<svg width="90" height="90" viewBox="0 0 90 90" fill="none" xmlns="http://www.w3.org/2000/svg">
<rect x="38.292" y="28.1553" width="14.8925" height="11.4558" fill="#DD0004"/>
<path fill-rule="evenodd" clip-rule="evenodd" d="M52.9026 40.6765H37.4281C36.8239 40.6765 36.3093 40.1887 36.3093 39.5578V27.5338C36.3093 26.9297 36.7971 26.415 37.4281 26.415H52.9026C53.5067 26.415 54.0213 26.9028 54.0213 27.5338V39.5578C53.9989 40.1619 53.5067 40.6765 52.9026 40.6765ZM38.5198 38.4614H51.7833V28.6256H38.5198V38.4614Z" fill="black"/>
<path fill-rule="evenodd" clip-rule="evenodd" d="M50.8302 28.6299H39.4819C38.8778 28.6299 38.3632 28.1422 38.3632 27.5112V24.4325C38.3632 20.7048 41.4151 17.6484 45.1472 17.6484C48.8748 17.6484 51.9312 20.6779 51.9312 24.4325V27.5335C51.9536 28.1376 51.4434 28.6299 50.8348 28.6299L50.8302 28.6299ZM40.6005 26.4148H49.7384V24.4324C49.7384 21.913 47.6888 19.8635 45.1695 19.8635C42.6501 19.8635 40.6005 21.913 40.6005 24.4324V26.4148Z" fill="black"/>
<path fill-rule="evenodd" clip-rule="evenodd" d="M45.1654 34.8997C43.8363 34.8997 42.74 33.8033 42.74 32.4742C42.74 31.1451 43.8363 30.0488 45.1654 30.0488C46.4945 30.0488 47.5908 31.1452 47.5908 32.4742C47.5908 33.8034 46.4945 34.8997 45.1654 34.8997ZM45.1654 32.2639C45.0491 32.2639 44.9551 32.3579 44.9551 32.4742C44.9551 32.5906 45.0491 32.6846 45.1654 32.6846C45.2818 32.6846 45.3757 32.5906 45.3757 32.4742C45.3757 32.3579 45.2818 32.2639 45.1654 32.2639Z" fill="black"/>
<path fill-rule="evenodd" clip-rule="evenodd" d="M45.1654 37.2752C44.5612 37.2752 44.0466 36.7875 44.0466 36.1565V33.7803C44.0466 33.1762 44.5344 32.6616 45.1654 32.6616C45.7963 32.6616 46.2841 33.1494 46.2841 33.7803V36.1565C46.2617 36.7875 45.7695 37.2752 45.1654 37.2752Z" fill="black"/>
<path fill-rule="evenodd" clip-rule="evenodd" d="M45.4919 52.2834C42.6011 52.2834 39.8534 50.4442 36.099 47.2715C32.0447 43.8213 29.0152 39.8834 27.0328 35.5969C24.1644 29.5602 24.1644 24.3155 24.1912 18.2115V17.3255C24.1912 16.7214 24.6789 16.2068 25.2875 16.2068C28.8987 16.2068 30.2771 15.4595 30.5321 13.3876C30.6484 12.4076 30.5321 10.8235 30.3218 10.4744C30.1607 10.197 30.1115 9.87029 30.2278 9.56599C30.3218 9.26169 30.5545 9.00663 30.8588 8.89028C40.0637 5.01948 52.3693 5.04629 60.1558 8.91266C60.6212 9.14535 60.8763 9.68235 60.7376 10.1925L60.6436 10.5639C60.2722 11.8706 59.8963 13.1997 60.4333 14.1976C61.5744 16.2023 62.5544 16.18 64.9306 16.2023H65.0246C65.6287 16.2023 66.1433 16.6901 66.1433 17.3211V18.2787C66.1433 23.1026 66.1657 27.6716 64.5815 32.4736C62.8094 37.9508 59.6412 42.7525 55.1662 46.7624C51.4118 50.2126 48.6418 52.2173 45.6347 52.2621C45.5899 52.2845 45.5407 52.2845 45.496 52.2845L45.4919 52.2834ZM26.4283 18.4177C26.4283 24.3828 26.4506 29.1172 29.064 34.6392C30.9032 38.671 33.7492 42.3315 37.5484 45.5714C40.9494 48.4398 43.3524 50.0687 45.5898 50.0463C47.5946 50.0015 49.7873 48.6725 53.676 45.106C57.8735 41.3516 60.8314 36.8766 62.4648 31.7749C63.9101 27.3447 63.9325 23.013 63.9325 18.422C61.8561 18.3772 60.0393 18.0013 58.5267 15.2984C58.5267 15.2984 58.5267 15.2761 58.5043 15.2761C57.6407 13.692 57.9897 11.9915 58.3656 10.5193C51.4429 7.46733 40.7707 7.48978 32.6794 10.564C32.9121 11.7767 32.8181 13.2221 32.7734 13.6651C32.2588 17.7194 28.7415 18.328 26.4324 18.4219L26.4283 18.4177Z" fill="black"/>
<path fill-rule="evenodd" clip-rule="evenodd" d="M70.7083 83.7469C70.1042 83.7469 69.612 83.2815 69.612 82.6729L69.2853 71.3469C69.1913 69.6464 69.8446 67.9907 71.0349 66.8273L84.9251 52.9371C85.6724 52.1898 86.0885 51.1875 86.1155 50.0955V24.4586C86.1155 22.8028 84.8356 21.4066 83.2023 21.2411C82.2938 21.1471 81.4302 21.4514 80.7545 22.0555C80.0788 22.6596 79.6805 23.5232 79.6805 24.4093L79.7029 42.0043C79.7029 42.6084 79.2151 43.123 78.6065 43.123C78.0024 43.123 77.5102 42.6353 77.4878 42.0267L77.4654 24.4317C77.4878 22.9147 78.1411 21.4469 79.2822 20.4445C80.4009 19.4198 81.918 18.9275 83.4081 19.0707C86.1602 19.3034 88.3261 21.6796 88.3261 24.4765V50.1352C88.3037 51.8133 87.6504 53.375 86.4869 54.5161L72.5967 68.4292C71.8494 69.1497 71.4556 70.2013 71.5004 71.2708V71.2932L71.827 82.6415C71.8494 83.2457 71.3616 83.7603 70.753 83.7826C70.7307 83.7379 70.7307 83.7379 70.7083 83.7379L70.7083 83.7469Z" fill="black"/>
<path fill-rule="evenodd" clip-rule="evenodd" d="M53.6723 84.6555C53.1577 84.6555 52.6923 84.3064 52.5984 83.7694C50.6429 74.3766 50.5713 66.8011 52.3657 61.2782C53.999 56.244 56.8853 53.8677 59.0333 52.7491C64.0229 50.1402 67.3522 46.784 71.2005 42.8908C71.6659 42.4254 72.1313 41.96 72.6235 41.4677C73.5543 40.5369 74.8163 40 76.1677 40C77.4968 40 78.7542 40.5146 79.7119 41.4677C80.6427 42.3985 81.1573 43.6605 81.1573 45.0119C81.1573 46.341 80.6427 47.5984 79.7119 48.5561L69.2943 58.9738C68.8512 59.4168 68.1532 59.4168 67.7325 58.9738C67.2895 58.5308 67.2895 57.8327 67.7325 57.412L78.1502 46.9943C78.6648 46.4797 78.9646 45.7816 78.9646 45.0388C78.9646 44.2915 78.6872 43.5935 78.1502 43.0833C77.6356 42.5687 76.9375 42.2689 76.1947 42.2689C75.4474 42.2689 74.7493 42.5463 74.2392 43.0833C73.7738 43.5487 73.2815 44.041 72.8385 44.5064C69.0169 48.3504 65.4056 51.9884 60.1122 54.7629C56.3353 56.7453 50.603 63.0817 54.8228 83.384C54.9392 83.9882 54.5678 84.5744 53.9592 84.6907C53.8204 84.6683 53.7489 84.6683 53.6817 84.6683L53.6723 84.6555Z" fill="black"/>
<path fill-rule="evenodd" clip-rule="evenodd" d="M19.596 83.7471H19.5736C18.9695 83.7247 18.4772 83.2101 18.4996 82.606L18.8263 71.2576V71.2352C18.871 70.1613 18.4996 69.1365 17.7523 68.4161L3.83923 54.503C2.69813 53.3619 2.04479 51.8001 2 50.1444V24.4582C2 21.6614 4.16583 19.2852 6.94031 19.0525C8.43048 18.9137 9.92512 19.4015 11.0662 20.4262C12.2073 21.451 12.8607 22.8963 12.883 24.4134L12.8606 42.0359C12.8606 42.64 12.3729 43.1322 11.7419 43.1322C11.1378 43.1322 10.6456 42.6445 10.6456 42.0135L10.6679 24.4185C10.6679 23.5325 10.2697 22.6689 9.59395 22.0647C8.91824 21.4606 8.05452 21.1787 7.14619 21.2503C5.51282 21.389 4.23298 22.8121 4.23298 24.4678V50.1265C4.25535 51.2005 4.676 52.2028 5.42335 52.9456L19.3135 66.8587C20.5039 68.0222 21.1303 69.6555 21.0363 71.356L20.7097 82.682C20.6873 83.2638 20.1951 83.756 19.5909 83.756L19.596 83.7471Z" fill="black"/>
<path fill-rule="evenodd" clip-rule="evenodd" d="M36.6583 84.6556C36.5867 84.6556 36.5195 84.6556 36.4256 84.6332C35.8215 84.5168 35.4456 83.9351 35.5619 83.3265C39.7818 63.0509 34.0449 56.6872 30.2725 54.7054C24.9832 51.9533 21.3675 48.2972 17.5463 44.4489C17.0809 43.9835 16.6155 43.5181 16.1456 43.0258C15.631 42.5112 14.9329 42.2114 14.1901 42.2114C13.4428 42.2114 12.7447 42.4888 12.2346 43.0258C11.7199 43.5404 11.4201 44.2385 11.4201 44.9813C11.4201 45.7286 11.6976 46.4267 12.2346 46.9368L22.6522 57.3545C23.0953 57.7975 23.0953 58.4956 22.6522 58.9163C22.2092 59.3593 21.5111 59.3593 21.0905 58.9163L10.6728 48.4986C9.74201 47.5678 9.22742 46.3059 9.22742 44.9544C9.22742 43.6253 9.74203 42.3679 10.6728 41.4102C11.6036 40.4794 12.8656 39.9648 14.217 39.9648C15.5461 39.9648 16.8035 40.4795 17.7612 41.4326L19.1842 42.8556C23.0282 46.7487 26.362 50.1049 31.3514 52.6914C33.4949 53.8102 36.3857 56.2087 38.0191 61.2206C39.8135 66.7427 39.7419 74.3192 37.7864 83.7118C37.6253 84.2935 37.1823 84.6426 36.6676 84.6426L36.6583 84.6556Z" fill="black"/>
</svg>
