<svg width="88" height="88" viewBox="0 0 88 88" fill="none" xmlns="http://www.w3.org/2000/svg">
<path d="M40.75 27.9047L40.2812 26.0297L39.8438 24.9985H38.375L36.4688 25.4985L35.2812 25.7797L35.8438 29.061L39.125 29.8422L40.75 29.5297V27.9047Z" fill="#DD0004"/>
<path d="M52.1562 28.1547L51.6875 26.2797L51.25 25.2485H49.7812L47.875 25.7485L46.6875 26.0297L47.25 29.311L50.5312 30.0922L52.1562 29.7797V28.1547Z" fill="#DD0004"/>
<path d="M47.9375 55.8422V53.7797L44.0625 52.9672H41.25L39.6875 53.7797L39.3125 55.8422L41.25 57.6547L46.6875 57.2797L47.9375 55.8422Z" fill="#DD0004" stroke="black"/>
<rect x="35.9375" y="42.1547" width="16.5625" height="4.25" fill="#DD0004"/>
<rect x="35.9375" y="47.8422" width="16.5625" height="4.25" fill="#DD0004"/>
<path fill-rule="evenodd" clip-rule="evenodd" d="M44.0042 54.0127H43.1291C42.151 54.0127 41.2686 54.0164 40.4745 54.0164V55.2775C40.4745 55.6599 40.6326 56.0055 40.8826 56.2593C41.1363 56.513 41.4819 56.6674 41.8643 56.6674H46.1368C46.5192 56.6674 46.8648 56.5093 47.1185 56.2593C47.3722 56.0056 47.5267 55.6599 47.5267 55.2775V54.0127L44.8647 54.009L44.7507 54.0127L44.0042 54.0127ZM64.7336 12.5784C65.2667 12.2696 65.9469 12.4534 66.2558 12.9829C66.5646 13.516 66.3808 14.1963 65.8513 14.5051L61.259 17.1561C60.7259 17.4649 60.0456 17.2811 59.7368 16.7516C59.428 16.2185 59.6118 15.5382 60.1412 15.2294L64.7336 12.5784ZM55.9386 4.71374C56.2806 4.20267 56.9718 4.06663 57.4829 4.40857C57.9939 4.75051 58.13 5.44179 57.788 5.9528L54.8392 10.3613C54.4973 10.8724 53.806 11.0084 53.295 10.6665C52.7839 10.3245 52.6479 9.63324 52.9898 9.12223L55.9386 4.71374ZM22.1558 14.5085C21.6227 14.1996 21.4425 13.5158 21.7514 12.9863C22.0602 12.4532 22.7441 12.273 23.2736 12.5818L27.8659 15.2328C28.399 15.5417 28.5792 16.2256 28.2704 16.755C27.9615 17.2882 27.2776 17.4683 26.7481 17.1595L22.1558 14.5085ZM30.219 5.95263C29.8771 5.44156 30.0131 4.75036 30.5242 4.4084C31.0353 4.06646 31.7265 4.2025 32.0685 4.71358L35.0136 9.12206C35.3555 9.63314 35.2195 10.3243 34.7084 10.6663C34.1973 11.0082 33.5061 10.8722 33.1642 10.3611L30.219 5.95263ZM42.8856 2.11775C42.8856 1.50004 43.3856 1 44.0033 1C44.621 1 45.1211 1.50004 45.1211 2.11775V7.42335C45.1211 8.04105 44.621 8.5411 44.0033 8.5411C43.3856 8.5411 42.8856 8.04105 42.8856 7.42335V2.11775ZM56.8464 38.1285C58.0266 36.7828 58.9973 35.2496 59.707 33.5767C60.582 31.5213 61.0674 29.2638 61.0674 26.8959C61.0674 26.0098 61.0012 25.1384 60.8688 24.2891L61.527 23.9103C62.5565 23.311 64.2368 22.3293 65.1707 21.855L71.2705 27.9659L68.9652 32.1942L68.5093 32.9847C67.7151 34.3524 67.4135 34.8709 67.5018 35.6467C67.557 36.1173 67.7335 36.4409 68.0202 36.9593C68.3879 37.6211 68.9983 38.7205 69.7226 41.0773L69.7925 41.3199C70.0682 42.2575 70.1491 42.5149 71.2669 42.8973V42.8936C71.6125 43.015 71.9949 43.1069 72.3551 43.1988C72.539 43.2429 72.7155 43.2871 72.9251 43.3459C73.3074 43.4562 73.9251 43.6106 74.6237 43.7908C75.8628 44.1033 77.3703 44.4857 78.2454 44.7799L78.2675 53.5858C77.1865 53.9425 75.0797 54.4793 73.4435 54.8984C72.6971 55.0896 72.0463 55.2587 71.6198 55.3727C70.1197 55.7845 69.991 56.2184 69.5792 57.6156C69.4248 58.1377 69.2078 58.873 68.7335 59.9467C68.4063 60.682 68.171 61.1343 67.9945 61.4726C67.6489 62.1307 67.465 62.48 67.4724 63.0315C67.4797 63.6345 67.7114 64.0279 68.1967 64.8662C68.3842 65.1897 68.6195 65.5942 68.8475 66.0134C69.1012 66.473 69.4027 66.9767 69.7373 67.5283C70.3145 68.4805 70.9837 69.5909 71.3477 70.3447L65.1597 76.5291C64.4611 76.1871 63.4646 75.5841 62.755 75.1576L62.2586 74.8562C61.5086 74.4113 61.0379 74.1171 60.6446 73.8781C59.4238 73.1243 58.8392 72.7603 58.1333 72.6868C57.4163 72.6096 56.953 72.8339 56.1111 73.2641L56.0302 73.3009C55.6147 73.5141 55.0779 73.7862 54.4161 74.0767C54.1771 74.1833 53.7911 74.3009 53.3866 74.426C52.4343 74.7201 51.3754 75.0437 50.7944 75.6172L50.7172 75.7055C50.1988 76.3379 49.7576 78.1873 49.3053 80.0956H49.309C49.0075 81.3567 48.6987 82.6436 48.4303 83.4341L39.5876 83.4562C39.3228 82.6694 39.0177 81.3935 38.7125 80.1398C38.2455 78.1947 37.7896 76.2975 37.2786 75.6908L37.2087 75.6173C36.6351 75.051 35.5652 74.7238 34.6313 74.437C34.2599 74.323 33.9143 74.2164 33.701 74.1282C32.8664 73.7752 32.2928 73.4737 31.859 73.2531C31.0391 72.8303 30.6126 72.6097 29.914 72.6758C29.2558 72.742 28.7337 73.0619 27.6491 73.7311C27.2005 74.0068 26.6343 74.3598 25.8181 74.8341L25.2114 75.1945C24.5018 75.6173 23.5201 76.2019 22.8326 76.5365L16.6482 70.3375C17.0379 69.5212 17.7991 68.2528 18.391 67.26C18.6374 66.8445 18.858 66.4769 19.0602 66.1202C19.2845 65.7268 19.5272 65.3187 19.7257 64.9841C20.2441 64.1164 20.4905 63.7046 20.5089 63.0869C20.5272 62.5097 20.3324 62.131 19.9647 61.4066C19.7956 61.0757 19.575 60.6418 19.2661 59.9469C18.9095 59.1417 18.6999 58.4725 18.5307 57.9394C18.13 56.6562 17.8947 55.9061 16.7842 55.4979L16.7217 55.4759C16.0856 55.2553 14.9459 54.9721 13.7031 54.667C12.2619 54.3103 10.6734 53.9206 9.75057 53.6044L9.72851 44.7947C10.8242 44.4381 13.0009 43.8756 14.6591 43.449C15.3246 43.2762 15.9092 43.1255 16.3908 42.9968C17.8762 42.5923 18.0012 42.1658 18.413 40.7723C18.5675 40.2502 18.7844 39.5149 19.2624 38.4302C19.5712 37.7316 19.7955 37.2977 19.9647 36.9668C20.3213 36.2719 20.5088 35.9042 20.5015 35.3453C20.4941 34.7312 20.2625 34.3268 19.7735 33.4774C19.6043 33.1796 19.3911 32.8119 19.1815 32.4259L19.1521 32.3634C18.8359 31.7824 18.4277 31.0618 18.0233 30.3522C17.5747 29.5617 17.1298 28.7858 16.7034 27.9733L22.8326 21.8588C23.2628 22.0757 23.8732 22.4066 24.5423 22.778C25.3218 23.2118 26.2998 23.7781 27.1381 24.2671C27.0057 25.1238 26.9359 26.0026 26.9359 26.896C26.9359 29.2602 27.4212 31.5215 28.2963 33.5768C29.0059 35.246 29.9766 36.7792 31.1569 38.1286C29.9619 39.5112 28.9912 41.0884 28.2926 42.8018C27.4874 44.7763 27.0425 46.9382 27.0425 49.1958C27.0425 53.8801 28.9397 58.1194 32.0098 61.1893C35.08 64.2594 39.3193 66.1566 44.0034 66.1566C48.6875 66.1566 52.927 64.2594 55.9969 61.1893C59.067 58.1192 60.9642 53.8799 60.9642 49.1958C60.9642 46.9346 60.5194 44.7763 59.7142 42.8018C59.0156 41.0848 58.0414 39.5109 56.8464 38.1285ZM32.6936 39.7647C32.9657 40.0993 33.1826 40.4302 33.3444 40.7611C33.5613 41.2097 33.6753 41.6509 33.6864 42.0885L33.6827 42.1841V49.3134H33.6864V49.3501C33.7231 50.4605 34.1276 51.4937 34.7931 52.3099C35.4586 53.1262 36.3851 53.7328 37.4661 53.9939C37.5506 54.016 37.6389 54.027 37.7308 54.027L38.2419 54.0234V55.2808C38.2419 56.2772 38.65 57.1853 39.3082 57.8436C39.9626 58.5017 40.8708 58.9098 41.8709 58.9098H46.1434C47.1435 58.9098 48.0479 58.5017 48.7062 57.8436C49.3643 57.1854 49.7724 56.2809 49.7724 55.2808V54.0234H50.2431C50.3423 54.027 50.4453 54.0197 50.5482 53.9939C51.6292 53.7329 52.5558 53.1262 53.2212 52.3099C53.8647 51.5194 54.2618 50.5304 54.3243 49.4641C54.3316 49.4163 54.3353 49.3685 54.3353 49.3171V42.1878H54.3316V42.1767C54.328 41.7134 54.4419 41.2428 54.6736 40.7685C54.8354 40.4376 55.0523 40.103 55.3244 39.7721C56.2877 40.9266 57.0782 42.2319 57.6555 43.6474C58.3541 45.3608 58.7365 47.236 58.7365 49.2031C58.7365 53.2696 57.0892 56.9501 54.4236 59.6153C51.7579 62.2809 48.0774 63.9281 44.0114 63.9281C39.9448 63.9281 36.2643 62.2809 33.5991 59.6153C30.9335 56.9496 29.2863 53.2691 29.2863 49.2031C29.2863 47.236 29.6724 45.3572 30.3709 43.6474C30.9371 42.2245 31.7313 40.9193 32.6947 39.7647L32.6936 39.7647ZM60.3582 22.0097L60.4023 21.984C61.7407 21.2008 64.1196 19.8146 65.0167 19.4985C65.4174 19.3404 65.8918 19.4249 66.2153 19.7485L73.4365 26.9844C73.7748 27.3264 73.8667 27.8595 73.6241 28.3044L70.9216 33.2643L70.8738 33.3562L70.4399 34.1063C69.9142 35.0108 69.7156 35.3527 69.723 35.4079C69.7266 35.4373 69.8222 35.6101 69.973 35.8822C70.3811 36.6176 71.0576 37.8382 71.8555 40.4267C71.8739 40.4745 71.9364 40.6657 71.9364 40.6914C71.9584 40.7613 71.9621 40.7797 71.9879 40.7907L71.9915 40.7944C72.2011 40.8679 72.5578 40.9562 72.8924 41.0371C73.1461 41.0996 73.3961 41.1621 73.5395 41.2025C73.9329 41.3165 74.5139 41.4636 75.1683 41.629C76.8633 42.0592 79.04 42.6108 79.8563 43.0336C80.2203 43.2174 80.4703 43.5924 80.4703 44.03L80.496 54.2549C80.5328 54.6924 80.3122 55.1263 79.8967 55.3395C79.1209 55.744 76.1648 56.5014 73.9918 57.0566C73.2638 57.2441 72.6277 57.4059 72.2049 57.5235C71.9071 57.6044 71.863 57.7552 71.7159 58.2478C71.5431 58.8361 71.2968 59.6634 70.7746 60.8473C70.4584 61.5606 70.1753 62.1011 69.9657 62.5019C69.7893 62.8365 69.6973 62.9982 69.6973 63.0056C69.6973 63.013 69.8334 63.2483 70.1275 63.752C70.293 64.0388 70.5026 64.3954 70.804 64.9506C70.9658 65.2447 71.2931 65.7852 71.6497 66.3808C72.4696 67.7376 73.4624 69.3774 73.7271 70.3114C73.8337 70.6901 73.7381 71.1092 73.4403 71.4071L66.2448 78.5952C65.9691 78.893 65.5389 79.0327 65.1197 78.9151C64.252 78.6687 62.6452 77.698 61.5973 77.0619L61.1194 76.7788C60.5531 76.4405 59.9575 76.0766 59.4722 75.7751C58.5456 75.2015 58.1007 74.9294 57.9021 74.9073C57.8139 74.9 57.5712 75.0176 57.119 75.2493L57.0381 75.2934C56.6263 75.503 56.0968 75.775 55.2989 76.1243C54.9496 76.2788 54.501 76.4148 54.0304 76.5582C53.3722 76.7604 52.6516 76.9847 52.4052 77.1612C52.2103 77.5142 51.8426 79.0401 51.4676 80.6137H51.4639C51.0338 82.4117 50.5925 84.2648 50.1292 85.0921C49.938 85.434 49.574 85.662 49.1548 85.662L38.8744 85.684C38.4699 85.6951 38.0729 85.4855 37.8633 85.1031C37.4184 84.2905 36.9772 82.4485 36.5434 80.6541C36.1573 79.0511 35.7823 77.4847 35.5911 77.1612C35.3521 76.9884 34.6205 76.7641 33.977 76.5656C33.5431 76.4332 33.1424 76.3082 32.8261 76.1758C31.918 75.7898 31.2966 75.4699 30.837 75.2309C30.3957 75.0029 30.1678 74.8853 30.1237 74.889C29.9839 74.9037 29.6052 75.1353 28.8184 75.6243C28.3184 75.9332 27.6897 76.3229 26.9432 76.7604L26.3586 77.1061C25.3071 77.7348 23.715 78.6834 22.8767 78.9224C22.498 79.0254 22.0752 78.9298 21.781 78.6356L14.5597 71.396C14.2877 71.1202 14.1663 70.7121 14.2766 70.3151C14.534 69.3811 15.6592 67.4986 16.4828 66.1199C16.7659 65.6455 17.0159 65.2301 17.1262 65.0316C17.4424 64.4727 17.6483 64.1271 17.8174 63.844C18.1336 63.3145 18.2844 63.0608 18.2844 63.0277C18.2844 63.013 18.1814 62.8108 17.9829 62.4211C17.7807 62.0203 17.5086 61.4945 17.2255 60.8474C16.821 59.9392 16.5894 59.1965 16.4055 58.6009C16.2143 57.9942 16.1041 57.6339 16.0084 57.5787L15.9937 57.5751C15.4753 57.3949 14.3759 57.1228 13.1736 56.8287C11.236 56.3507 9.0446 55.8102 8.14372 55.3396C7.77972 55.1558 7.5297 54.7807 7.5297 54.3432L7.50396 44.1183C7.46719 43.6844 7.6878 43.2469 8.10328 43.0336C8.85702 42.6402 11.9125 41.8497 14.1075 41.2871C14.8392 41.0996 15.4752 40.9342 15.8099 40.8422C16.093 40.765 16.1371 40.618 16.2768 40.1363C16.4496 39.548 16.696 38.7171 17.2254 37.5258C17.5159 36.8713 17.7843 36.3456 17.9865 35.9484C18.1777 35.5734 18.277 35.3785 18.277 35.3638C18.277 35.3454 18.1336 35.0991 17.8394 34.577C17.6813 34.3049 17.4901 33.9703 17.2254 33.4813L17.1923 33.4224C16.7474 32.6062 16.4165 32.0216 16.0893 31.448C15.5193 30.4515 14.9642 29.4735 14.3795 28.3117C14.1332 27.8852 14.192 27.3299 14.5597 26.9623L21.7957 19.741C22.0714 19.469 22.4795 19.3476 22.8766 19.4579C23.3288 19.5829 24.4208 20.1528 25.6232 20.8257C26.3402 21.2264 27.0351 21.6235 27.6527 21.9802C28.4727 19.241 29.9654 16.7959 31.9326 14.8251C35.021 11.7367 39.2862 9.82835 43.9995 9.82835C48.7132 9.82835 52.9783 11.7366 56.0665 14.8251C58.0446 16.8033 59.5383 19.2631 60.3582 22.0097ZM39.1874 51.7921C39.2425 51.7848 39.2977 51.7811 39.3565 51.7811H43.9341L44.004 51.7774H48.6478C48.7066 51.7774 48.7618 51.7811 48.8169 51.7884L50.1369 51.7958C50.6774 51.6377 51.1443 51.3215 51.4863 50.9023C51.8356 50.4722 52.0562 49.9354 52.0929 49.3544V48.1154H35.9145V49.314H35.9109C35.9366 49.9096 36.1609 50.4612 36.5175 50.9023C36.8595 51.3215 37.3228 51.6377 37.8669 51.7958L39.1874 51.7921ZM35.915 45.8799H52.0934V42.4163L46.6848 42.3538C46.6517 42.3575 46.6223 42.3575 46.5892 42.3575C46.5488 42.3575 46.5083 42.3538 46.4679 42.3501L41.7322 42.295C41.6182 42.3354 41.4969 42.3538 41.3719 42.3538C41.2358 42.3538 41.1071 42.3318 40.9858 42.2876L35.9155 42.2288L35.9118 45.8799L35.915 45.8799ZM35.4517 40.0007L40.2536 40.0558V31.4485H38.4594V31.4521C37.349 31.4521 36.3379 30.9999 35.6099 30.2719V30.2682C34.8819 29.5402 34.4297 28.5327 34.4297 27.4224C34.4297 26.3083 34.8819 25.3009 35.6099 24.5729C36.3379 23.8449 37.3491 23.3927 38.4594 23.3927C39.5735 23.3927 40.5809 23.8449 41.3089 24.5729L41.3052 24.5766C42.0369 25.3083 42.4891 26.3158 42.4891 27.4224V29.2241H45.471V27.4261C45.471 26.3488 45.8976 25.3707 46.5888 24.6464L46.6513 24.5766C47.3793 23.8486 48.3905 23.3963 49.5008 23.3963C50.6149 23.3963 51.6223 23.8486 52.3503 24.5766V24.5803C53.0783 25.3083 53.5305 26.3158 53.5305 27.4261C53.5305 28.5401 53.0783 29.5476 52.3503 30.2756L52.3466 30.2719C51.6149 31.0036 50.6074 31.4558 49.5008 31.4558V31.4521H47.7028V40.1478L52.4716 40.2029C52.5267 40.0632 52.5856 39.9272 52.6517 39.7911C53.0047 39.0631 53.5305 38.3499 54.2254 37.6513L54.2769 37.5998C55.7072 36.2247 56.8617 34.5627 57.6522 32.7096C58.4096 30.9338 58.8288 28.9703 58.8288 26.9039C58.8288 22.808 57.1705 19.1017 54.4864 16.4174C51.8023 13.7333 48.0961 12.075 43.9999 12.075C39.9039 12.075 36.1977 13.7333 33.5133 16.4174C30.8292 19.1015 29.171 22.8077 29.171 26.9039C29.171 28.9703 29.5901 30.9337 30.3475 32.7096C31.127 34.5407 32.2632 36.1805 33.6676 37.5446L33.8074 37.677C34.4876 38.3682 35.0023 39.0705 35.3516 39.7875C35.3847 39.8573 35.4186 39.9271 35.4517 40.0007ZM42.4891 40.0816L45.4711 40.1147V31.4448H42.4891V40.0816ZM40.2536 29.2204V27.4187C40.2536 26.9186 40.0551 26.4701 39.7315 26.1501H39.7279C39.4043 25.8266 38.9557 25.6244 38.4593 25.6244C37.9629 25.6244 37.5144 25.8266 37.1908 26.1501C36.8672 26.4737 36.665 26.9223 36.665 27.4187C36.665 27.915 36.8636 28.3673 37.1871 28.6909L37.1908 28.6872C37.5144 29.0108 37.9629 29.213 38.4593 29.213V29.2167L40.2536 29.2204ZM47.7066 29.2204H49.5045V29.2167C50.0009 29.2167 50.4531 29.0181 50.7731 28.6946V28.6909C51.0966 28.3673 51.2989 27.9188 51.2989 27.4224C51.2989 26.926 51.0966 26.4737 50.7768 26.1501H50.7731C50.4495 25.8266 50.001 25.6244 49.5045 25.6244C49.0081 25.6244 48.5596 25.8266 48.236 26.1501L48.1919 26.1943C47.8941 26.5141 47.7102 26.948 47.7102 27.4187L47.7066 29.2204Z" fill="black"/>
</svg>
