<svg width="76" height="76" viewBox="0 0 76 76" fill="none" xmlns="http://www.w3.org/2000/svg">
<path d="M72.5938 24.2693V20.175C72.5938 18.0507 70.8641 16.3125 68.75 16.3125H66.1875V12.45C66.1875 12.1024 66.0466 11.7805 65.8159 11.5359L55.5659 1.23592C55.3225 0.991299 55.0022 0.862549 54.6562 0.862549H13.6562C11.5422 0.862549 9.8125 2.60067 9.8125 4.72505V16.3125H7.25C5.13594 16.3125 3.40625 18.0507 3.40625 20.175V31.9943C1.92 32.5222 0.84375 33.9384 0.84375 35.625V71.675C0.84375 73.7994 2.57344 75.5376 4.6875 75.5376H71.3125C73.4266 75.5376 75.1562 73.7994 75.1562 71.675V27.9C75.1562 26.2263 74.08 24.81 72.5938 24.2693ZM68.75 18.8875C69.4547 18.8875 70.0312 19.4669 70.0312 20.175V24.0375H66.1875V18.8875H68.75ZM55.9375 5.25292L61.8184 11.1625H55.9375V5.25292ZM13.6562 3.43755H53.375V12.45C53.375 13.1582 53.9516 13.7375 54.6562 13.7375H63.625V24.0375H44.3294C43.1891 24.0375 42.1128 24.5397 41.3825 25.428L36.5138 31.299C36.2703 31.5952 35.9116 31.7626 35.5272 31.7626H12.375V4.72505C12.375 4.01692 12.9516 3.43755 13.6562 3.43755ZM7.25 18.8875H9.8125V31.7626H5.96875V20.175C5.96875 19.4669 6.54531 18.8875 7.25 18.8875ZM72.5938 71.675C72.5938 72.3832 72.0172 72.9625 71.3125 72.9625H4.6875C3.98281 72.9625 3.40625 72.3832 3.40625 71.675V35.625C3.40625 34.9169 3.98281 34.3376 4.6875 34.3376H35.5144C36.6547 34.3376 37.7309 33.8354 38.4613 32.947L43.33 27.076C43.5734 26.7799 43.9322 26.6125 44.3166 26.6125H71.2997C72.0044 26.6125 72.5809 27.1919 72.5809 27.9V71.675H72.5938Z" fill="black" stroke="black" stroke-width="0.4"/>
<path d="M66.1875 65.2375H43.125C42.4203 65.2375 41.8438 65.8169 41.8438 66.525C41.8438 67.2332 42.4203 67.8125 43.125 67.8125H66.1875C66.8922 67.8125 67.4688 67.2332 67.4688 66.525C67.4688 65.8169 66.8922 65.2375 66.1875 65.2375Z" fill="black" stroke="black" stroke-width="0.4"/>
<path d="M66.1875 60.0874H48.25C47.5453 60.0874 46.9688 60.6668 46.9688 61.3749C46.9688 62.083 47.5453 62.6624 48.25 62.6624H66.1875C66.8922 62.6624 67.4688 62.083 67.4688 61.3749C67.4688 60.6668 66.8922 60.0874 66.1875 60.0874Z" fill="black" stroke="black" stroke-width="0.4"/>
<path d="M10 65V53L13 51.5L12.5 49.5V46L14 44L16.5 41.5H19.5H23.5L25 45L26.5 51L29 53V63.5L28 66.5H12.5L10 65Z" fill="#DD0004"/>
<path d="M27.1094 50.2382V47.2125C27.1094 42.9509 23.6628 39.4875 19.4219 39.4875C15.1809 39.4875 11.7344 42.9509 11.7344 47.2125V50.2382C9.95344 50.354 8.53125 51.8347 8.53125 53.65V64.3749C8.53125 66.2676 10.0688 67.8125 11.9522 67.8125H26.9044C28.7878 67.8125 30.3253 66.2676 30.3253 64.3749V53.65C30.3253 51.8347 28.9031 50.354 27.1222 50.2382H27.1094ZM14.2969 47.2125C14.2969 44.3672 16.5903 42.0625 19.4219 42.0625C22.2534 42.0625 24.5469 44.3672 24.5469 47.2125V50.2124H14.2969V47.2125ZM27.75 64.3749C27.75 64.8513 27.3656 65.2375 26.8916 65.2375H11.9522C11.4781 65.2375 11.0938 64.8513 11.0938 64.3749V53.65C11.0938 53.1737 11.4781 52.7874 11.9522 52.7874H26.9044C27.3784 52.7874 27.7628 53.1737 27.7628 53.65V64.3749H27.75Z" fill="black" stroke="black" stroke-width="0.4"/>
<path d="M19.4219 54.5127C18.1278 54.5127 17.0772 55.5684 17.0772 56.8688C17.0772 57.6928 17.5 58.4267 18.1406 58.8387V61.1562C18.1406 61.8643 18.7172 62.4437 19.4219 62.4437C20.1266 62.4437 20.7031 61.8643 20.7031 61.1562V58.8387C21.3438 58.4138 21.7666 57.6928 21.7666 56.8688C21.7666 55.5684 20.716 54.5127 19.4219 54.5127Z" fill="black" stroke="black" stroke-width="0.4"/>
</svg>
