<svg width="86" height="89" viewBox="0 0 86 89" fill="none" xmlns="http://www.w3.org/2000/svg">
<path d="M43.5 44.5L42.5 50.5H40L36.5 50L32.5 48L30 45L28.5 40.5L29.5 35.5L33 30.5L40 29L45.5 31L49 34.5L46.5 38L43.5 44.5Z" fill="#DD0004"/>
<path fill-rule="evenodd" clip-rule="evenodd" d="M8.46443 22.5979C7.95545 22.0889 7.29193 21.8363 6.62461 21.8363C5.95728 21.8363 5.29372 22.0889 4.78478 22.5979C4.2758 23.1068 4.02319 23.7703 4.02319 24.4376C4.02319 25.1049 4.2758 25.7684 4.78478 26.2773C5.29376 26.7862 5.95728 27.0388 6.62461 27.0388C7.29193 27.0388 7.95549 26.7862 8.46443 26.2773C8.97341 25.7683 9.22602 25.1049 9.22602 24.4376C9.22602 23.7741 8.96965 23.1068 8.46443 22.5979ZM7.57089 28.8297V38.8206H14.8889V36.7659C14.8889 36.2344 15.1038 35.7745 15.4431 35.4314L15.4469 35.4276C15.7787 35.0958 16.2386 34.881 16.7363 34.8244L23.2211 34.1119C23.3418 33.7613 23.47 33.4182 23.6132 33.0751C23.7565 32.7321 23.9073 32.3965 24.0694 32.0648L19.9862 26.9715C19.6733 26.5832 19.4999 26.1044 19.4999 25.6332C19.4999 25.1469 19.6733 24.6718 20.0541 24.2949L21.5056 22.8396L15.6618 16.9961C15.2923 16.6267 15.2923 16.0272 15.6618 15.6578L23.3945 7.92552C22.9383 7.2243 22.6781 6.38731 22.6781 5.49013C22.6781 4.24976 23.1796 3.12636 23.994 2.31575C24.8083 1.5052 25.9319 1 27.1686 1C28.409 1 29.5325 1.50141 30.3431 2.31575C31.1537 3.13007 31.659 4.25352 31.659 5.49013C31.659 6.73051 31.1575 7.85391 30.3431 8.66451C29.5288 9.47884 28.4052 9.98026 27.1686 9.98026C26.2712 9.98026 25.4342 9.71636 24.733 9.26396L17.6676 16.3289L22.8442 21.5052L24.2957 20.0537C24.6727 19.6767 25.1478 19.4995 25.6341 19.4995C26.1054 19.4995 26.5804 19.673 26.9725 19.9859L32.0661 24.0688C32.3979 23.9067 32.7334 23.7521 33.0765 23.6126C33.4158 23.4732 33.7627 23.3412 34.1096 23.2206L34.8221 16.7361C34.9352 15.722 35.7081 14.8888 36.76 14.8888H38.8148V6.62491C38.8148 6.10088 39.2371 5.67864 39.7611 5.67864H50.6985C50.872 4.86054 51.2792 4.08397 51.9125 3.45056C52.791 2.57214 53.941 2.13481 55.0871 2.13481C56.237 2.13481 57.387 2.57214 58.2617 3.45056C59.1402 4.32897 59.5775 5.47886 59.5775 6.62494C59.5775 7.77479 59.1364 8.92463 58.2617 9.79932C57.3832 10.6777 56.2333 11.1151 55.0871 11.1151C53.9372 11.1151 52.7873 10.6778 51.9125 9.79932C51.2754 9.16219 50.872 8.38561 50.6985 7.56748H40.707V14.885H42.7618C43.2934 14.885 43.7533 15.0999 44.0964 15.4392L44.1002 15.443C44.4357 15.7785 44.6506 16.2347 44.7034 16.7285L45.416 23.2168C45.7666 23.3374 46.1097 23.4656 46.4528 23.6088C46.7959 23.7521 47.1314 23.9029 47.4632 24.065L52.5568 19.9821C52.9451 19.6692 53.424 19.4957 53.8952 19.4957C54.3778 19.4957 54.8529 19.6692 55.2299 20.0499C56.6135 21.475 58.0688 22.885 59.4751 24.2949C59.8559 24.6719 60.0293 25.1469 60.0293 25.6333C60.0293 26.1045 59.8559 26.5795 59.543 26.9716L57.262 29.8179C59.2414 29.2373 61.3414 28.9207 63.5168 28.9207C69.4398 28.9207 74.8046 31.2392 78.6924 34.9942C82.587 38.7566 85 43.9517 85 49.693C85 52.6147 84.3704 55.4046 83.2393 57.9342C82.063 60.5582 80.3475 62.9031 78.2287 64.8296C76.6716 66.2433 75.4198 67.7965 74.4773 69.478C73.7157 70.8314 73.1577 72.2715 72.7995 73.7909H74.7487C75.8723 73.7909 76.894 74.2508 77.633 74.9898C78.3719 75.7287 78.8319 76.7504 78.8319 77.8738C78.8319 78.9973 78.3719 80.019 77.633 80.7579C76.894 81.4968 75.8723 81.9568 74.7487 81.9568H72.5883V84.0303C72.5883 85.1236 72.1435 86.1151 71.4234 86.8313C70.7033 87.5514 69.7117 87.9962 68.6221 87.9962L58.4163 88C57.323 88 56.3313 87.5551 55.6151 86.8351C54.895 86.1188 54.4501 85.1236 54.4501 84.034V81.9606H52.2897C51.1662 81.9606 50.1444 81.5006 49.4055 80.7617C48.6665 80.0228 48.2065 79.0011 48.2065 77.8776C48.2065 76.7541 48.6665 75.7324 49.4055 74.9935C50.1445 74.2546 51.1662 73.7947 52.2897 73.7947H54.2427C53.8845 72.2754 53.3227 70.8352 52.5649 69.4817C51.6224 67.8003 50.3707 66.247 48.8135 64.8333C47.3243 63.4799 46.0349 61.9229 44.9943 60.2075L44.7078 62.7975C44.655 63.2951 44.4401 63.7551 44.1045 64.0906C43.7614 64.4336 43.3015 64.6448 42.7661 64.6448H40.7114V72.9086C40.7114 73.4326 40.2891 73.8549 39.765 73.8549H28.8276C28.6542 74.673 28.247 75.4496 27.6136 76.083C26.7351 76.9614 25.5852 77.3987 24.439 77.3987C23.2891 77.3987 22.1392 76.9614 21.2644 76.083C20.386 75.2045 19.9486 74.0547 19.9486 72.9086C19.9486 71.7587 20.386 70.6089 21.2644 69.7342C22.1429 68.8558 23.2929 68.4184 24.439 68.4184C25.5889 68.4184 26.7388 68.8558 27.6136 69.7342C28.2508 70.3713 28.6542 71.1479 28.8276 71.966H38.8191V64.6485H36.7644C36.2328 64.6485 35.7766 64.4374 35.4297 64.0943L35.4222 64.0868C35.0904 63.7512 34.8755 63.2951 34.8227 62.8012L34.1101 56.3168C33.7595 56.1961 33.4164 56.0679 33.0733 55.9247C32.7303 55.7814 32.3947 55.6306 32.0629 55.4685L26.9694 59.5515C26.581 59.8644 26.1022 60.0378 25.6309 60.0378C25.1483 60.0378 24.6733 59.8644 24.2963 59.4836L24.2925 59.4874L22.841 58.0359L16.9971 63.8794C16.6276 64.2489 16.0282 64.2489 15.6587 63.8794L7.92594 56.1472C7.22468 56.6033 6.38764 56.8635 5.49041 56.8635C4.24996 56.8635 3.12649 56.3621 2.31583 55.5477C1.50146 54.7334 1 53.61 1 52.3733C1 51.133 1.50144 50.0096 2.31583 49.199C3.12643 48.3846 4.25372 47.8832 5.49041 47.8832C6.73086 47.8832 7.85433 48.3846 8.66498 49.199C9.47935 50.0095 9.98081 51.133 9.98081 52.3733C9.98081 53.2706 9.71689 54.1076 9.26447 54.8087L16.3299 61.8737L21.5064 56.6975L20.0549 55.246C19.6741 54.869 19.5007 54.394 19.5007 53.9077C19.5007 53.4364 19.6741 52.9614 19.987 52.5694L24.0702 47.4761C23.9081 47.1444 23.7535 46.8088 23.614 46.4695C23.4708 46.1302 23.3426 45.7834 23.2219 45.4328L16.7371 44.7202C16.2394 44.6637 15.7794 44.4526 15.4439 44.117C15.4213 44.0944 15.3987 44.0718 15.3798 44.0454C15.0744 43.7099 14.8859 43.2763 14.8859 42.7787L14.8897 40.7127H6.62533C6.10504 40.7127 5.679 40.2905 5.679 39.7665V28.8297C4.86086 28.6563 4.08423 28.2491 3.44702 27.6158C2.56855 26.7374 2.13119 25.5875 2.13119 24.4414C2.13119 23.2916 2.56853 22.1417 3.44702 21.267C4.32549 20.3886 5.47545 19.9513 6.6216 19.9513C7.77151 19.9513 8.92143 20.3886 9.79617 21.267C10.6746 22.1454 11.112 23.2953 11.112 24.4414C11.112 25.5912 10.6747 26.7411 9.79617 27.6158C9.16655 28.2491 8.38907 28.6562 7.57089 28.8297ZM25.3283 7.32964L25.3358 7.33718C25.8071 7.80466 26.4556 8.09496 27.1719 8.09496C27.8882 8.09496 28.5405 7.80467 29.0117 7.33342C29.483 6.86217 29.7733 6.21368 29.7733 5.4937C29.7733 4.7774 29.483 4.12516 29.0117 3.65399C28.5404 3.18274 27.8919 2.89245 27.1719 2.89245C26.4518 2.89245 25.8033 3.18274 25.3321 3.65399C24.8608 4.12524 24.5705 4.77372 24.5705 5.4937C24.5705 6.21001 24.8608 6.85847 25.3283 7.32964ZM56.9341 8.46443C57.4431 7.95548 57.6957 7.292 57.6957 6.62472C57.6957 5.95743 57.4431 5.29391 56.9341 4.785C56.4251 4.27609 55.7616 4.02346 55.0943 4.02346C54.4269 4.02346 53.7634 4.27605 53.2544 4.785C52.7455 5.29395 52.4928 5.95743 52.4928 6.62472C52.4928 7.292 52.7455 7.95552 53.2544 8.46443C53.7634 8.97334 54.4269 9.22597 55.0943 9.22597C55.7616 9.22597 56.4251 8.97338 56.9341 8.46443ZM67.7847 51.2917V55.7931H71.5888C71.8301 55.7931 72.0488 55.6951 72.2071 55.533C72.3655 55.3747 72.4673 55.156 72.4673 54.9147V52.1663C72.4673 51.9251 72.3692 51.7064 72.2071 51.5481C72.0488 51.3897 71.8263 51.2879 71.5888 51.2879L67.7847 51.2955V51.2917ZM67.7847 57.6856V73.7916H70.8649C71.257 71.9405 71.913 70.1912 72.8293 68.555C73.8736 66.6964 75.2497 64.9849 76.9576 63.4353C78.8918 61.6785 80.4526 59.5485 81.5197 57.1696C82.5414 54.8849 83.1107 52.3553 83.1107 49.6974C83.1107 44.4873 80.9239 39.7711 77.3874 36.3594C73.8396 32.9362 68.9383 30.8175 63.5207 30.8175C58.3856 30.8175 53.7183 32.7176 50.2234 35.8316L50.2008 35.8542C50.016 36.0201 49.8313 36.1898 49.6541 36.3594C46.1176 39.7713 43.9308 44.4876 43.9308 49.6974C43.9308 52.1177 44.4021 54.4325 45.2617 56.5513C45.273 56.5777 45.2843 56.6041 45.2919 56.6305C45.3673 56.8114 45.4427 56.9924 45.5219 57.1696C46.5889 59.5484 48.1498 61.6785 50.0839 63.4353C51.7918 64.9849 53.1679 66.6964 54.2085 68.555C55.1247 70.1912 55.7807 71.9405 56.1728 73.7916H59.2531V57.6856H55.4489C54.6874 57.6856 53.9936 57.3727 53.4922 56.8751C52.9908 56.3737 52.6816 55.68 52.6816 54.9185V52.1701C52.6816 51.4086 52.9908 50.7149 53.4922 50.2135C53.9937 49.7121 54.6874 49.403 55.4489 49.403H60.1995C60.7235 49.403 61.1458 49.8252 61.1458 50.3493V55.7969H65.8926V50.3493C65.8926 49.829 66.3148 49.403 66.8389 49.403H71.5894C72.351 49.403 73.0447 49.7159 73.5461 50.2135C74.0476 50.7149 74.3567 51.4086 74.3567 52.1701V54.9185C74.3567 55.68 74.0438 56.3737 73.5461 56.8751C73.0447 57.3765 72.3509 57.6856 71.5894 57.6856L67.7847 57.6856ZM66.8421 75.6803H52.2891C51.6859 75.6803 51.1392 75.9291 50.7395 76.325C50.3399 76.7246 50.0948 77.2713 50.0948 77.8745C50.0948 78.4777 50.3399 79.0243 50.7395 79.424C51.1391 79.8236 51.6858 80.0687 52.2891 80.0687H74.745C75.3482 80.0687 75.8949 79.8199 76.2946 79.424C76.6942 79.0244 76.9393 78.4777 76.9393 77.8745C76.9393 77.2713 76.6905 76.7247 76.2946 76.325C75.895 75.9254 75.3483 75.6803 74.745 75.6803H66.8421ZM65.892 73.7916V57.6856H61.1452V73.7916H65.892ZM56.3382 81.9611V84.0346C56.3382 84.6039 56.572 85.1241 56.949 85.5011C57.326 85.8781 57.8426 86.1119 58.4156 86.1119H68.6253C69.1946 86.1119 69.7149 85.8781 70.0919 85.5011C70.4689 85.1241 70.7027 84.6076 70.7027 84.0346V81.9611H56.3382ZM22.5984 71.0659C22.0894 71.5748 21.8368 72.2383 21.8368 72.9056C21.8368 73.5729 22.0894 74.2364 22.5984 74.7453C23.1074 75.2543 23.7709 75.5069 24.4382 75.5069C25.1056 75.5069 25.7691 75.2543 26.2781 74.7453C26.7871 74.2364 27.0397 73.5729 27.0397 72.9056C27.0397 72.2383 26.7871 71.5748 26.2781 71.0659C25.7691 70.5569 25.1056 70.3044 24.4382 70.3044C23.7709 70.3044 23.1036 70.5607 22.5984 71.0659ZM5.49253 49.7618C4.77618 49.7618 4.1239 50.0521 3.6527 50.5233C3.1815 50.9946 2.89111 51.6431 2.89111 52.363C2.89111 53.0793 3.18142 53.7316 3.6527 54.2028C4.12398 54.6739 4.7725 54.9643 5.49253 54.9643C6.20887 54.9643 6.86115 54.674 7.33235 54.2028C7.80355 53.7315 8.09394 53.083 8.09394 52.363C8.09394 51.6467 7.80363 50.9945 7.33235 50.5233C6.86107 50.0522 6.20879 49.7618 5.49253 49.7618ZM23.2123 55.8164C23.3216 55.8616 23.4234 55.9295 23.5101 56.0162C23.6044 56.1104 23.676 56.2198 23.7213 56.3366C24.694 57.3244 25.629 58.199 25.7911 58.0709L31.3371 53.626C31.6237 53.3772 32.0459 53.3169 32.4004 53.5091C32.8528 53.7504 33.3165 53.9729 33.7991 54.1727C33.9197 54.2217 35.2506 54.6929 35.2506 54.6929C35.605 54.7985 35.8765 55.1076 35.918 55.4959C35.9971 56.2273 36.6381 62.625 36.7587 62.7456C36.7625 62.7494 38.2215 62.7494 39.7071 62.7494C39.7259 62.7494 39.7448 62.7456 39.7636 62.7456C39.7825 62.7456 39.8013 62.7456 39.8202 62.7494C41.1736 62.7494 42.5197 62.7456 42.7647 62.7456C42.8515 62.7456 43.3152 58.2292 43.4358 57.068C42.7233 55.2584 42.2633 53.3319 42.1012 51.3263C41.9127 51.364 41.7242 51.3979 41.5356 51.4243C40.955 51.511 40.3632 51.5563 39.7599 51.5563C36.5024 51.5563 33.5541 50.2368 31.4164 48.0992C29.2825 45.9654 27.9591 43.0135 27.9591 39.7562C27.9591 36.4989 29.2787 33.5508 31.4164 31.4132C33.5503 29.2794 36.5024 27.9562 39.7599 27.9562C42.0786 27.9562 44.2427 28.6272 46.0676 29.7846C47.6096 30.761 48.9103 32.088 49.8567 33.6526C51.0481 32.7026 52.3488 31.8731 53.7362 31.187C54.5581 30.1729 58.2002 25.6903 58.1361 25.6263L53.8946 21.385C53.6382 21.4265 48.8199 25.3925 48.1902 25.8978C47.9036 26.1466 47.4814 26.2069 47.1269 26.0146C46.6745 25.7733 46.2108 25.5509 45.7282 25.3511C45.2569 25.1551 44.7706 24.9816 44.2767 24.8308C43.9223 24.7253 43.6508 24.4161 43.6093 24.0241C43.5377 23.3643 42.8741 16.8158 42.7648 16.7706H36.7625C36.6645 16.7706 35.9896 23.3605 35.9218 23.9827C35.8992 24.3672 35.639 24.714 35.2507 24.8271C34.753 24.9779 34.2704 25.1514 33.7991 25.3474C33.3203 25.5472 32.8528 25.7696 32.4004 26.0109C32.0762 26.1843 31.6652 26.1579 31.3636 25.9129L25.7912 21.4454C25.7384 21.404 25.6819 21.3813 25.6366 21.3813C25.6329 21.3813 25.6366 21.3776 25.6366 21.3776L21.3914 25.6226C21.3914 25.6716 21.414 25.7244 21.4555 25.7771L25.9006 31.3228C26.1495 31.6094 26.2098 32.0316 26.0175 32.386C25.7762 32.8384 25.5538 33.3059 25.3539 33.7847C25.3049 33.9053 24.8336 35.2361 24.8336 35.2361C24.7281 35.5905 24.4189 35.8619 24.0306 35.9034C23.3708 35.975 16.8218 36.6386 16.7767 36.7479V42.7459C16.9199 42.8854 23.2426 43.5037 23.9892 43.5866C24.3738 43.6093 24.7206 43.8694 24.8337 44.2577C24.9845 44.7553 25.158 45.2379 25.354 45.7091C25.5538 46.1879 25.7725 46.6554 26.0176 47.1078C26.191 47.432 26.1646 47.8429 25.9195 48.1445C25.5274 48.6346 21.3161 53.8033 21.384 53.8712C21.5913 54.1011 22.3677 54.9418 23.2123 55.8164ZM59.2521 55.7938V51.2923H55.448C55.2067 51.2923 54.988 51.3904 54.8296 51.5525C54.6713 51.7108 54.5695 51.9295 54.5695 52.1707V54.9191C54.5695 55.1604 54.6675 55.3791 54.8296 55.5374C54.988 55.6957 55.2104 55.7975 55.448 55.7975L59.2521 55.7938ZM42.041 49.4111C42.1202 43.7825 44.5105 38.6963 48.3448 34.9941C48.3674 34.9715 48.3938 34.9489 48.4164 34.9263C47.6096 33.4861 46.4521 32.2684 45.0609 31.39C43.5302 30.4211 41.7167 29.8594 39.7675 29.8594C37.0303 29.8594 34.5533 30.9677 32.7624 32.7623C30.9715 34.5531 29.8593 37.0337 29.8593 39.7669C29.8593 42.5039 30.9677 44.9808 32.7624 46.7716C34.5533 48.5624 37.0341 49.6745 39.7675 49.6745C40.2764 49.6745 40.7779 49.6368 41.2605 49.5614C41.5244 49.5199 41.7847 49.4714 42.041 49.4111Z" fill="black" stroke="black" stroke-width="0.8"/>
</svg>
