<svg width="88" height="88" viewBox="0 0 88 88" fill="none" xmlns="http://www.w3.org/2000/svg">
<rect width="88" height="88" fill="white"/>
<rect x="41" y="63" width="6" height="7" fill="#E43336"/>
<circle opacity="0.8" cx="44.5" cy="8.5" r="2.5" fill="#DD0004"/>
<circle opacity="0.8" cx="54.5" cy="8.5" r="2.5" fill="#DD0004"/>
<circle opacity="0.8" cx="33.5" cy="8.5" r="2.5" fill="#DD0004"/>
<path fill-rule="evenodd" clip-rule="evenodd" d="M13.8028 25.6728H26.2127C26.6549 25.6728 27.0151 26.0306 27.0151 26.4696C27.0151 31.1272 28.918 35.3454 31.9902 38.3961C35.0623 41.4469 39.3103 43.3365 44.0002 43.3365C48.6901 43.3365 52.9381 41.4469 56.0102 38.3961C59.0823 35.3453 60.9852 31.1269 60.9852 26.4696C60.9852 26.0306 61.3455 25.6728 61.7876 25.6728H74.1976C74.6397 25.6728 75 26.0306 75 26.4696C75 26.4924 75 26.5152 74.9967 26.5412V31.6052H75C75 31.9272 74.8985 32.2297 74.7151 32.4801C74.5349 32.7273 74.2762 32.9192 73.965 33.02L66.0882 35.5602L69.8514 42.8879C69.9988 43.1741 70.0447 43.4896 69.9955 43.792C69.9464 44.0978 69.8056 44.3872 69.5763 44.6149L62.266 51.8776C62.0367 52.1053 61.7485 52.2451 61.4439 52.2939L61.4046 52.3004C61.1099 52.3394 60.8085 52.2907 60.5301 52.1508L53.1511 48.4138L50.5931 56.2358C50.4916 56.5448 50.3016 56.8017 50.0494 56.9806C49.8005 57.1595 49.4959 57.2636 49.1684 57.2636V57.2603H44.7993V61.8625H47.6258C48.0679 61.8625 48.4282 62.2202 48.4282 62.6593V65.4661H63.7073C64.1495 65.4661 64.5098 65.8239 64.5098 66.263V71.4506H69.0721C69.5143 71.4506 69.8745 71.8084 69.8745 72.2475V77.8774C69.8745 78.3165 69.5143 78.6742 69.0721 78.6742L58.3391 78.6645C57.8969 78.6645 57.5367 78.3067 57.5367 77.8676V72.2377C57.5367 71.7986 57.8969 71.4409 58.3391 71.4409H62.9014V67.0469H48.4247V69.8537C48.4247 70.2928 48.0644 70.6506 47.6223 70.6506H44.7958V75.1227C45.5818 75.282 46.2827 75.6658 46.8297 76.209C47.5568 76.931 48.0022 77.923 48.0022 79.0223C48.0022 80.1216 47.5535 81.1169 46.8297 81.8357C46.1026 82.5577 45.1037 83 43.9967 83C42.8896 83 41.8874 82.5544 41.1636 81.8357C40.4398 81.1136 39.9911 80.1216 39.9911 79.0223C39.9911 77.923 40.4398 76.9278 41.1636 76.209C41.7106 75.6658 42.4115 75.282 43.1975 75.1227V70.6506H40.371C39.9289 70.6506 39.5686 70.2928 39.5686 69.8537V67.0469H25.0919V71.4409H29.6542C30.0964 71.4409 30.4566 71.7986 30.4566 72.2377V77.8676C30.4566 78.3067 30.0964 78.6645 29.6542 78.6645H18.9245C18.4824 78.6645 18.1221 78.3067 18.1221 77.8676V72.2377C18.1221 71.7986 18.4824 71.4409 18.9245 71.4409H23.4869V66.2532C23.4869 65.8142 23.8472 65.4564 24.2893 65.4564L39.5684 65.4531V62.6463C39.5684 62.2072 39.9287 61.8494 40.3709 61.8494H43.1974V57.2473H38.8283V57.2506C38.504 57.2506 38.1994 57.1497 37.9472 56.9676C37.6983 56.7887 37.5051 56.5318 37.4036 56.2228L34.8456 48.4007L27.4665 52.1378C27.1783 52.2842 26.8606 52.3297 26.5561 52.2809H26.5528C26.2449 52.2321 25.9567 52.0923 25.7307 51.8646L18.4171 44.6019C18.1879 44.3742 18.047 44.088 17.9979 43.7855L17.9914 43.7465C17.9521 43.4538 18.0012 43.1546 18.142 42.8781L21.9053 35.5504L14.0284 33.0102C13.7238 32.9159 13.4651 32.724 13.2849 32.4768C13.1048 32.2296 13 31.9271 13 31.6019H13.0033V26.4663C13.0033 26.0272 13.3606 25.6728 13.8028 25.6728ZM62.1874 75.8448H65.2202C65.6624 75.8448 66.0226 75.4871 66.0226 75.048C66.0226 74.6089 65.6624 74.2512 65.2202 74.2512H62.1874C61.7452 74.2512 61.3849 74.6089 61.3849 75.048C61.3849 75.4871 61.7452 75.8448 62.1874 75.8448ZM22.7734 75.8448H25.8062C26.2484 75.8448 26.6086 75.4871 26.6086 75.048C26.6086 74.6089 26.2484 74.2512 25.8062 74.2512H22.7734C22.3312 74.2512 21.9709 74.6089 21.9709 75.048C21.9709 75.4871 22.3312 75.8448 22.7734 75.8448ZM45.6967 77.3312C45.2611 76.8987 44.6584 76.632 43.9969 76.632C43.332 76.632 42.7327 76.8987 42.2971 77.3312C41.8615 77.7638 41.5929 78.3623 41.5929 79.0192C41.5929 79.6795 41.8615 80.2746 42.2971 80.7072C42.7327 81.1397 43.3353 81.4064 43.9969 81.4064C44.6617 81.4064 45.2611 81.1397 45.6967 80.7072C46.1323 80.2746 46.4008 79.6761 46.4008 79.0192C46.4008 78.359 46.1323 77.7638 45.6967 77.3312ZM28.8522 73.0282H19.7273V77.0678H28.8555L28.8522 73.0282ZM68.2661 73.0282H59.1413V77.0678H68.2695V73.0282H68.2661ZM46.8235 63.4431H41.1705V69.0536H46.8235V63.4431ZM43.925 55.66C43.9479 55.6568 43.9741 55.6568 43.9971 55.6568C44.02 55.6568 44.0462 55.6568 44.0691 55.66H49.09L51.6611 47.7924C51.72 47.6136 51.8085 47.4509 51.9264 47.3078C51.9427 47.2851 51.9624 47.2623 51.982 47.2428C52.1294 47.0867 52.3063 46.9631 52.5093 46.8785H52.5126C52.7157 46.794 52.9286 46.7582 53.1415 46.7647C53.3249 46.7712 53.5017 46.8135 53.6753 46.8883C53.7048 46.898 53.731 46.911 53.7605 46.9241L61.1789 50.6806L68.381 43.5285L64.5982 36.1618C64.4999 35.9699 64.4442 35.7617 64.4344 35.5471C64.4278 35.3552 64.4573 35.1633 64.5261 34.9779C64.5327 34.9584 64.5392 34.9389 64.549 34.9193C64.6342 34.7177 64.7554 34.5388 64.9159 34.3957L64.9191 34.399C65.0796 34.2526 65.263 34.1453 65.4694 34.077L73.3921 31.5238V27.2631L62.5676 27.2664C62.3646 32.0475 60.3274 36.3569 57.1406 39.5217C53.777 42.8619 49.1294 44.9273 43.997 44.9273C38.8646 44.9273 34.2173 42.8619 30.8534 39.5217C27.6666 36.3571 25.6294 32.0476 25.4264 27.2664H14.6019V31.5271L22.5247 34.0802C22.7048 34.1388 22.8686 34.2266 23.0127 34.3437C23.0356 34.3599 23.0585 34.3794 23.0782 34.399C23.2354 34.5453 23.3598 34.7209 23.445 34.9226V34.9259C23.5301 35.1275 23.5662 35.3389 23.5596 35.5503C23.5498 35.765 23.4974 35.9731 23.3959 36.165L19.613 43.5318L26.8152 50.6838L34.2335 46.9273V46.9306C34.4333 46.8297 34.6397 46.7744 34.8525 46.7679C35.0458 46.7614 35.239 46.7907 35.4257 46.859C35.4454 46.8655 35.465 46.872 35.4847 46.8818C35.691 46.9663 35.8679 47.0867 36.012 47.2461L36.0087 47.2493C36.1561 47.4087 36.2642 47.5908 36.3329 47.7957L38.904 55.6633L43.925 55.66ZM33.4704 6.9709C32.9725 6.9709 32.5238 7.17256 32.1963 7.49455C31.8721 7.81654 31.669 8.26537 31.669 8.75971C31.669 9.25406 31.8721 9.69966 32.1963 10.0249C32.5206 10.3469 32.9725 10.5485 33.4704 10.5485C33.9682 10.5485 34.4169 10.3469 34.7444 10.0249C35.0686 9.70289 35.2717 9.25406 35.2717 8.75971C35.2717 8.26537 35.0686 7.81652 34.7444 7.49455C34.4201 7.17256 33.9682 6.9709 33.4704 6.9709ZM31.0631 6.37246C30.4473 6.98392 30.0641 7.82954 30.0641 8.76299C30.0641 9.69644 30.4441 10.5421 31.0631 11.1535C31.6788 11.765 32.5304 12.1455 33.4704 12.1455C34.0239 12.1455 34.5446 12.0154 35.0064 11.7845L37.1025 14.136V25.3988C37.1025 25.8379 37.4628 26.1957 37.905 26.1957C38.3471 26.1957 38.7074 25.8379 38.7074 25.3988L38.7041 14.1193C38.7041 13.9307 38.6714 13.7486 38.6026 13.5729C38.5371 13.4005 38.4388 13.2412 38.3111 13.0981L36.2215 10.7531C36.6309 10.1937 36.8732 9.5074 36.8732 8.76262C36.8732 7.82917 36.4933 6.98356 35.8743 6.37208C35.2586 5.76062 34.407 5.3801 33.467 5.3801C32.5303 5.3801 31.6788 5.75775 31.0631 6.37246ZM54.4936 5.35766C53.5536 5.35766 52.7021 5.73819 52.0863 6.34964C51.4706 6.9611 51.0874 7.80673 51.0874 8.74018C51.0874 9.498 51.3396 10.1973 51.7621 10.7632L49.6791 13.1017C49.5513 13.2481 49.4531 13.4042 49.3876 13.5765C49.3221 13.7522 49.286 13.9343 49.286 14.123V25.3991C49.286 25.8382 49.6463 26.196 50.0885 26.196C50.5306 26.196 50.8909 25.8382 50.8909 25.3991V14.1329L52.9936 11.7717C53.4455 11.9929 53.9532 12.1165 54.4936 12.1165C55.4336 12.1165 56.2852 11.7392 56.9009 11.1245C57.5167 10.513 57.8998 9.6674 57.8998 8.73395C57.8998 7.8005 57.5199 6.95489 56.9009 6.34342C56.2819 5.73521 55.4336 5.35766 54.4936 5.35766ZM55.7677 7.47177C56.0919 7.79376 56.295 8.24259 56.295 8.73693C56.295 9.23128 56.0919 9.67688 55.7677 10.0021C55.4434 10.3241 54.9914 10.5257 54.4936 10.5257C53.9958 10.5257 53.5471 10.3241 53.2196 10.0021C52.8954 9.68011 52.6923 9.23128 52.6923 8.73693C52.6923 8.24259 52.8954 7.79699 53.2196 7.47177C53.5438 7.14978 53.9958 6.94812 54.4936 6.94812C54.9914 6.94812 55.4402 7.14978 55.7677 7.47177ZM24.0867 13.3554C23.5889 13.3554 23.1402 13.557 22.8127 13.879C22.4884 14.201 22.2854 14.6499 22.2854 15.1442C22.2854 15.6385 22.4884 16.0842 22.8127 16.4094C23.1369 16.7314 23.5889 16.933 24.0867 16.933C24.5845 16.933 25.0333 16.7314 25.3608 16.4094C25.685 16.0874 25.8881 15.6418 25.8881 15.1507V15.1442C25.8881 14.6531 25.685 14.2075 25.3608 13.8855C25.0332 13.5538 24.5845 13.3554 24.0867 13.3554ZM21.6794 12.7537C21.0637 13.3652 20.6805 14.2108 20.6805 15.1442C20.6805 16.0777 21.0604 16.9233 21.6794 17.5348C22.2952 18.1462 23.1467 18.5267 24.0867 18.5267C25.0267 18.5267 25.8782 18.1462 26.494 17.5348C26.9296 17.1022 27.2473 16.5525 27.3947 15.941H31.0072V25.3955C31.0072 25.8345 31.3675 26.1923 31.8097 26.1923C32.2518 26.1923 32.6121 25.8345 32.6121 25.3955V15.8919C32.6121 15.4659 32.4385 15.0788 32.1568 14.8024C31.8752 14.5226 31.4854 14.3503 31.0596 14.3503H27.3979C27.2473 13.7356 26.9296 13.1892 26.4973 12.7565C25.8815 12.1451 25.03 11.7646 24.09 11.7646C23.1467 11.7613 22.2952 12.1422 21.6794 12.7537ZM63.9064 11.7617C62.9665 11.7617 62.1149 12.139 61.4992 12.7537C61.0636 13.1863 60.7459 13.7359 60.5985 14.3474H56.9368C56.5078 14.3474 56.118 14.5198 55.8396 14.7995C55.5579 15.0792 55.3843 15.4662 55.3843 15.8891V25.3926C55.3843 25.8317 55.7446 26.1894 56.1868 26.1894C56.6289 26.1894 56.9892 25.8317 56.9892 25.3926L56.9827 15.9407H60.5952C60.7459 16.5554 61.0636 17.1018 61.4959 17.5344C62.1116 18.1459 62.9632 18.5264 63.9032 18.5264C64.8431 18.5264 65.6947 18.1459 66.3104 17.5344C66.9262 16.923 67.3094 16.0773 67.3094 15.1439C67.3094 14.2104 66.9262 13.3648 66.3104 12.7533C65.698 12.1419 64.8464 11.7617 63.9064 11.7617ZM65.1837 13.8791C65.508 14.2011 65.7111 14.6499 65.7111 15.1442C65.7111 15.6386 65.508 16.0842 65.1837 16.4094C64.8595 16.7314 64.4075 16.933 63.9097 16.933C63.4119 16.933 62.9599 16.7314 62.6357 16.4094C62.3115 16.0874 62.1084 15.6386 62.1084 15.1442C62.1084 14.6499 62.3114 14.2043 62.6357 13.8791C62.9599 13.5571 63.4119 13.3554 63.9097 13.3554C64.4043 13.3554 64.8562 13.5538 65.1837 13.8791ZM43.996 5C43.056 5 42.2045 5.37728 41.5888 5.98874C40.973 6.6002 40.5898 7.44582 40.5898 8.37927C40.5898 9.31272 40.973 10.1583 41.5888 10.7698C42.0244 11.2024 42.5779 11.5179 43.1936 11.6642V25.3925C43.1936 25.8315 43.5539 26.1893 43.9961 26.1893C44.4382 26.1893 44.7985 25.8315 44.7985 25.3925V11.6675C45.4175 11.5179 45.9677 11.2024 46.4034 10.7731C47.0191 10.1617 47.4023 9.31605 47.4023 8.3826C47.4023 7.44915 47.0191 6.60354 46.4034 5.99207C45.7876 5.37736 44.936 5 43.996 5ZM45.2701 7.11411C45.5943 7.4361 45.7974 7.88493 45.7974 8.37927C45.7974 8.87362 45.5943 9.31922 45.2701 9.64444C44.9458 9.96966 44.4938 10.1681 43.996 10.1681C43.4982 10.1681 43.0495 9.96643 42.722 9.64444C42.3978 9.32245 42.1947 8.87362 42.1947 8.37927C42.1947 7.88493 42.3978 7.43933 42.722 7.11411C43.0495 6.79212 43.4982 6.59046 43.996 6.59046C44.4938 6.59046 44.9458 6.79212 45.2701 7.11411Z" fill="black"/>
</svg>
