<svg width="95" height="98" viewBox="0 0 95 98" fill="none" xmlns="http://www.w3.org/2000/svg">
<circle cx="80" cy="70.0002" r="13" fill="#DD0004"/>
<path d="M42.0571 68.7087V64.8753C38.0061 65.667 34.2252 62.5628 34.2252 58.417C34.2252 54.2712 38.0061 51.167 42.0571 51.9587V48.292H20.5766C21.5115 55.7712 26.6011 62.4795 30.9845 68.7087H42.0571ZM73.6753 70.5837C73.1975 69.9378 73.343 69.0212 73.9662 68.542C74.6102 68.0628 75.5242 68.2087 76.002 68.8337L77.7886 71.2712L83.1691 64.5837C83.6677 63.9587 84.5818 63.8545 85.205 64.3545C85.8282 64.8545 85.9321 65.7712 85.4335 66.3962L78.8689 74.5628C78.2872 75.292 77.1446 75.292 76.563 74.5212L73.6753 70.5837ZM79.5752 54.8545C87.6771 54.8545 94.2417 61.4378 94.2417 69.5628C94.2417 77.6878 87.6771 84.2712 79.5752 84.2712C71.4733 84.2712 64.9086 77.6878 64.9086 69.5628C64.9086 61.4587 71.4733 54.8545 79.5752 54.8545ZM87.9056 61.2295C83.3145 56.6253 75.8566 56.6253 71.2655 61.2295C66.6745 65.8337 66.6745 73.3128 71.2655 77.917C75.8566 82.5212 83.3145 82.5212 87.9056 77.917C92.4967 73.3128 92.4967 65.8337 87.9056 61.2295ZM27.5775 68.9378L27.5567 68.8962C22.9241 62.3545 17.9798 55.3337 17.5436 47.0212C16.9204 32.0628 28.7409 19.7712 43.5113 19.7712C58.0947 19.7712 69.8737 31.8753 69.4997 46.3753C69.292 54.9378 64.2439 62.2087 59.5281 68.9587C63.4337 70.167 64.2647 75.5003 61.5432 78.2295C64.6178 81.3337 63.1636 87.7503 57.8039 87.7503H54.5008L53.2544 91.5628C52.3195 94.4378 50.4914 97.3337 47.4999 97.3337H39.5642C36.5727 97.3337 34.7446 94.4378 33.8097 91.5628L32.5633 87.7503H29.2394C23.8797 87.7503 22.4255 81.3128 25.5001 78.2295C22.7371 75.4795 23.6096 70.1045 27.5775 68.9378ZM56.1627 68.7087C60.5045 62.5003 65.5526 55.7087 66.4667 48.292H44.9655V54.0837C44.9655 55.2087 43.719 55.917 42.7426 55.3128C40.3536 53.8128 37.1336 55.5003 37.1336 58.417C37.1336 60.8753 39.4811 62.6253 41.8078 61.9378C42.7011 61.6878 42.8257 61.292 43.5113 61.292C44.3215 61.292 44.9655 61.9378 44.9655 62.7503V68.7087H56.1627ZM57.8039 76.7712C59.9644 76.7712 60.6084 74.5837 60.0267 73.0837C59.7151 72.2712 58.9672 71.6253 57.8039 71.6253C48.2893 71.6253 38.754 71.6253 29.2187 71.6253C27.0582 71.6253 26.4142 73.8128 26.9958 75.3128C27.3074 76.1253 28.0553 76.7712 29.2187 76.7712H57.8039ZM51.4262 87.7503H35.5756L36.5312 90.6462C37.0297 92.167 38.0892 94.417 39.5226 94.417H47.4584C48.9126 94.417 49.9513 92.167 50.4498 90.6462L51.4262 87.7503ZM57.8039 79.6878H29.2187C27.0582 79.6878 26.4142 81.8753 26.9958 83.3753C27.3074 84.1878 28.0553 84.8337 29.2187 84.8337H57.8039C59.9644 84.8337 60.6084 82.6462 60.0267 81.1462C59.7151 80.3128 58.9672 79.6878 57.8039 79.6878ZM41.4339 2.12533C41.4339 1.31283 42.0779 0.666992 42.8881 0.666992C43.6982 0.666992 44.3422 1.31283 44.3422 2.12533V10.8753C44.3422 11.6878 43.6982 12.3337 42.8881 12.3337C42.0779 12.3337 41.4339 11.6878 41.4339 10.8753V2.12533ZM83.5638 41.4587C84.374 41.4587 85.018 42.1045 85.018 42.917C85.018 43.7295 84.374 44.3753 83.5638 44.3753H74.8387C74.0285 44.3753 73.3845 43.7295 73.3845 42.917C73.3845 42.1253 74.0285 41.4587 74.8387 41.4587H83.5638ZM70.6215 13.042C71.1824 12.4795 72.1173 12.4795 72.6782 13.042C73.2391 13.6045 73.2391 14.5212 72.6782 15.1045L66.5083 21.292C65.9474 21.8545 65.0333 21.8545 64.4516 21.292C63.8907 20.7295 63.8907 19.8128 64.4516 19.2295L70.6215 13.042ZM2.1915 44.3753C1.40208 44.3753 0.737305 43.7295 0.737305 42.917C0.737305 42.1253 1.3813 41.4587 2.1915 41.4587H10.9166C11.7268 41.4587 12.3708 42.1045 12.3708 42.917C12.3708 43.7295 11.7268 44.3753 10.9166 44.3753H2.1915ZM13.0771 15.1045C12.5162 14.542 12.5162 13.6045 13.0771 13.042C13.6381 12.4795 14.5729 12.4795 15.1338 13.042L21.3037 19.2295C21.8646 19.8128 21.8646 20.7295 21.3037 21.292C20.7428 21.8545 19.808 21.8545 19.2471 21.292L13.0771 15.1045ZM44.9655 45.3753H66.6121C66.3628 33.3128 56.9106 23.4795 44.9655 22.7295V28.3128C48.7464 27.9795 52.0702 31.0212 52.0702 34.8753C52.0702 38.7295 48.7671 41.7712 44.9655 41.4378V45.3753ZM27.1828 29.4795C23.1111 33.5628 20.5558 39.167 20.4312 45.3753H42.0779V39.6045C42.0779 38.6045 43.1373 37.8753 44.093 38.2712C46.4612 39.2712 49.1826 37.542 49.1826 34.8962C49.1826 32.5837 47.0429 30.8337 44.7993 31.292C44.1968 31.417 44.0099 31.6253 43.5528 31.6253C42.7426 31.6253 42.0986 30.9795 42.0986 30.167V22.7503C36.2611 23.1045 31.0468 25.6045 27.1828 29.4795Z" fill="black"/>
</svg>
