<svg width="98" height="91" viewBox="0 0 98 91" fill="none" xmlns="http://www.w3.org/2000/svg">
<path d="M27 57L28.5 55L30 58L31 62L31.5 68.5L32.5 72.5L35.5 75.5V78L38 83.5L34 85.5L32.5 88.5H29L27.5 85.5L23 83.5L20 85L17.5 82L18.5 79L16.5 74.5L13.5 72.5L14 69.5L16.5 67.5L18 63.5L17 60L20 57.5L23 58.5L27 57Z" fill="#DD0004"/>
<path d="M83.0241 44.8561C83.2054 44.0443 83.353 43.2199 83.4795 42.3998L80.878 41.9876C80.8527 42.1685 80.8231 42.3451 80.7936 42.5218C80.6966 43.1064 80.5786 43.6868 80.4521 44.2631L83.0241 44.8561ZM90.2002 26.3876C92.0132 26.3876 93.7462 27.1195 95.011 28.4149C97.663 31.132 97.663 35.4643 95.011 38.1814C93.7461 39.4726 92.009 40.2045 90.196 40.2045C88.383 40.2045 86.6458 39.4726 85.381 38.1814C84.4239 37.2056 83.7746 35.9732 83.5216 34.6357H75.7974C75.8564 35.3591 75.8817 36.0994 75.8817 36.8397L75.8775 36.8355C75.8775 39.3254 75.5486 41.8028 74.8951 44.2045L74.8318 44.4485C74.8993 44.4947 74.9667 44.541 75.0342 44.5915C75.5444 44.9868 75.9238 45.5336 76.1178 46.1477L76.7249 48.053H76.7291C76.7502 48.1413 76.7924 48.217 76.8556 48.2801C76.9189 48.339 76.999 48.3811 77.0833 48.4063C77.7622 48.604 78.4241 48.8395 79.0777 49.1171C79.7312 49.3905 80.3637 49.7018 80.9834 50.0467C81.0551 50.093 81.1394 50.1182 81.228 50.1224C81.3123 50.1182 81.3966 50.0972 81.4725 50.0509L83.2349 49.1424V49.1466C84.4534 48.5157 85.9418 48.7554 86.8989 49.7354L88.7751 51.6324C89.7407 52.625 89.9768 54.1181 89.357 55.3547L88.4589 57.1423V57.1381C88.4167 57.218 88.3914 57.3021 88.3872 57.3905C88.3957 57.4788 88.421 57.5671 88.4715 57.6428C89.1504 58.8963 89.6901 60.2211 90.0822 61.5966C90.1033 61.6765 90.1454 61.7564 90.2045 61.8195C90.2635 61.8826 90.3394 61.9288 90.4237 61.9499L92.3 62.5681C92.9409 62.7785 93.4974 63.1864 93.8854 63.7332C94.2775 64.2842 94.4841 64.9445 94.4841 65.6175V68.3136C94.4841 68.9908 94.2775 69.6469 93.8854 70.1979C93.4933 70.7447 92.9409 71.1527 92.3 71.3629L90.4279 71.9812C90.3436 72.0023 90.2635 72.0485 90.2002 72.1116C90.1454 72.1747 90.1033 72.2546 90.078 72.3387C89.884 73.0243 89.6479 73.7015 89.3781 74.3619C89.1124 75.0222 88.8089 75.6615 88.4715 76.2883C88.421 76.364 88.3957 76.4481 88.3914 76.5406C88.3957 76.6248 88.4167 76.7131 88.4589 76.7888L89.357 78.5764C89.9768 79.813 89.7407 81.3062 88.7751 82.2945L86.8989 84.1999H86.8946C86.4266 84.6793 85.8195 84.9948 85.1575 85.1C84.4997 85.2051 83.8209 85.1 83.2306 84.7887L81.4682 83.8802V83.8844C81.3965 83.8381 81.3122 83.8171 81.2236 83.8129C81.1393 83.8171 81.055 83.8423 80.9791 83.8886C80.3635 84.2377 79.7268 84.549 79.0734 84.8224C78.4241 85.0958 77.7578 85.3313 77.079 85.529C76.9947 85.5542 76.9188 85.5963 76.8513 85.6552C76.7923 85.7183 76.7501 85.794 76.7248 85.8823L76.1177 87.7876C75.9153 88.4311 75.5147 88.9905 74.9708 89.3943C74.4312 89.7897 73.7818 90 73.1114 90H70.4594C69.789 90 69.1396 89.7855 68.5999 89.3901C68.0602 88.9863 67.6639 88.4269 67.4657 87.7876L66.8459 85.8823C66.8206 85.7982 66.7785 85.7224 66.7152 85.6551C66.652 85.5963 66.5719 85.5542 66.4875 85.5332C65.8129 85.3355 65.1468 85.1 64.4932 84.8223C63.8439 84.549 63.2114 84.2419 62.5959 83.897C62.52 83.8507 62.4314 83.8213 62.3429 83.8171C62.2585 83.8213 62.1742 83.8423 62.0983 83.8886L60.3401 84.7971L60.3359 84.7929C60.045 84.9443 59.7288 85.0495 59.4041 85.0999C59.3451 85.1084 59.2903 85.1168 59.227 85.121C59.0331 85.3355 58.8433 85.55 58.641 85.7561C55.9889 88.469 52.3545 89.9958 48.5555 89.9958C44.7609 89.9958 41.1264 88.469 38.4744 85.7561C38.3015 85.5752 38.1328 85.3944 37.9684 85.2093C37.5679 85.4196 37.1547 85.6173 36.7331 85.7939H36.7288C36.1934 86.0169 35.6453 86.2104 35.0887 86.3744C35.0592 86.3828 35.0339 86.3954 35.0171 86.4164C34.996 86.4375 34.9791 86.4627 34.9707 86.4879L34.4816 88.0232C34.3045 88.5952 33.9503 89.0957 33.4697 89.4532C32.9932 89.8065 32.4114 89.9958 31.8212 89.9958H29.675C29.0805 89.9958 28.5029 89.8065 28.0265 89.4532C27.5416 89.0957 27.1832 88.5952 27.0019 88.0232L26.5086 86.4963C26.5044 86.4669 26.4918 86.4417 26.4749 86.4206C26.4496 86.3996 26.4243 86.3828 26.3948 86.3786C25.8382 86.2103 25.2902 86.0168 24.7547 85.7981C24.2192 85.571 23.7006 85.3144 23.1905 85.0326C23.1694 85.0158 23.1399 85.0074 23.1103 84.999C23.085 85.0074 23.0555 85.0158 23.0302 85.0284L21.6051 85.7645H21.6094C21.0865 86.0379 20.4878 86.1346 19.9018 86.0421C19.3157 85.9453 18.7718 85.6635 18.3544 85.2387L16.8366 83.6951C16.4149 83.2703 16.1409 82.7235 16.0523 82.1305C15.9596 81.5374 16.0566 80.9317 16.3264 80.3934L17.0474 78.9549H17.0432C17.06 78.9297 17.0727 78.9002 17.0769 78.8708C17.0727 78.8414 17.0643 78.8119 17.0432 78.7867C16.4782 77.7562 16.0355 76.6668 15.715 75.5354C15.7108 75.5102 15.6981 75.485 15.6813 75.4639C15.656 75.4471 15.6307 75.4303 15.6012 75.4219L14.0876 74.9255H14.0833C13.5184 74.7405 13.0251 74.3788 12.6793 73.8951C12.3336 73.4072 12.148 72.8225 12.148 72.221V70.0381C12.148 69.4367 12.3336 68.852 12.6793 68.3641C13.025 67.8804 13.5183 67.5145 14.0833 67.3294L15.597 66.8289H15.6012C15.6307 66.8247 15.656 66.8079 15.6813 66.7868C15.6981 66.7784 15.7066 66.749 15.7192 66.7111H15.715C15.8752 66.1475 16.065 65.5923 16.2842 65.0497C16.5077 64.5071 16.7564 63.9772 17.0389 63.464C17.0558 63.4387 17.0642 63.4135 17.0684 63.3841C17.0642 63.3546 17.0558 63.3252 17.0389 63.2999L16.3179 61.853V61.8572C15.7656 60.7595 15.9722 59.4345 16.8281 58.5555L18.3503 57.0118C18.7677 56.5912 19.3074 56.3094 19.8892 56.2169C20.4753 56.1202 21.0741 56.2211 21.5968 56.4945L23.0219 57.2264L23.0177 57.2221C23.043 57.239 23.0725 57.2516 23.0978 57.2558C23.1273 57.2516 23.1568 57.239 23.1779 57.2221C23.6881 56.9403 24.2067 56.688 24.7421 56.4608C25.2776 56.2379 25.8257 56.0444 26.3822 55.8804C26.4075 55.872 26.4328 55.8594 26.4539 55.8426C26.475 55.8215 26.4919 55.7921 26.4961 55.7626L26.9135 54.4672C26.6605 53.9372 26.4202 53.4535 26.1756 52.9951C25.8426 52.3684 25.4884 51.7332 25.0794 51.0477H25.0836C23.8229 48.9068 22.8574 46.6061 22.2081 44.2128C21.8623 42.9341 21.6052 41.6303 21.4407 40.3138H12.6918C12.4431 41.4115 11.8907 42.4168 11.1022 43.2201C10.0018 44.3474 8.49232 44.9824 6.91546 44.9824C5.34281 44.9824 3.8333 44.3473 2.73288 43.2201C0.422373 40.8605 0.422373 37.0919 2.73288 34.7323C3.8333 33.6093 5.34281 32.9742 6.91546 32.9742C8.49232 32.9742 10.0018 33.6093 11.1022 34.7323C11.8907 35.5357 12.4388 36.5409 12.6918 37.6387H21.2425C21.2383 37.3737 21.2341 37.1087 21.2341 36.8437V36.8479C21.213 29.5126 24.0885 22.4712 29.2367 17.2392C34.3131 12.0448 41.2782 9.1173 48.5521 9.1173C55.826 9.1173 62.7869 12.0448 67.8675 17.2392C71.8393 21.2603 74.4871 26.3958 75.4568 31.9606H83.5269C83.7841 30.6188 84.4292 29.3865 85.3863 28.4148C86.6554 27.1194 88.3926 26.3875 90.2055 26.3875L90.2002 26.3876ZM93.1432 30.3035C92.3674 29.5085 91.3049 29.0627 90.196 29.0627C89.0871 29.0627 88.0246 29.5086 87.2488 30.3035C85.6213 31.9691 85.6213 34.6273 87.2488 36.2929C88.0246 37.0836 89.0871 37.5294 90.196 37.5294C91.3049 37.5294 92.3674 37.0836 93.1432 36.2929C94.7749 34.6273 94.7749 31.9691 93.1432 30.3035ZM59.0501 40.7051C59.5982 40.7009 60.1379 40.7808 60.6607 40.9406L65.3872 32.6294H65.3914C65.6233 32.2214 66.0576 31.9648 66.5299 31.9648V31.9606H72.7785C71.8382 27.1111 69.4855 22.6443 66.0155 19.1236C61.424 14.4296 55.1333 11.7883 48.5642 11.7883C41.991 11.7883 35.7002 14.4296 31.1085 19.1236C26.4622 23.8512 23.865 30.2152 23.8818 36.8351C23.8818 37.1001 23.8818 37.3651 23.8945 37.63H41.1979L42.9224 28.2379C40.7847 27.3462 39.2331 25.4577 38.7735 23.1948C38.314 20.9319 39.0096 18.5892 40.6288 16.9362C41.8937 15.6449 43.6265 14.9173 45.4395 14.9173C47.2526 14.9173 48.9855 15.6449 50.2503 16.9362C52.9151 19.6532 52.9151 23.994 50.2503 26.711C50.1238 26.8372 49.9889 26.9592 49.854 27.0812L57.5065 40.9228C58.0083 40.7756 58.5269 40.7041 59.0497 40.7041L59.0501 40.7051ZM62.9376 42.2739C62.9755 42.3118 63.005 42.3496 63.043 42.3875H63.0472C65.2524 44.642 65.2524 48.2423 63.0472 50.4967C61.9973 51.5735 60.5554 52.1833 59.0502 52.1833C57.545 52.1833 56.1029 51.5734 55.0531 50.4967C52.848 48.2422 52.848 44.6419 55.0531 42.3875C55.1079 42.337 55.1585 42.2823 55.2134 42.2361L47.565 28.3858C46.8988 28.6045 46.2032 28.7223 45.5032 28.7265L43.5974 39.107L43.6017 39.1028C43.5342 39.78 42.9692 40.3016 42.2861 40.3058H24.1138C24.5565 43.6117 25.6612 46.7957 27.3561 49.6684C27.7693 50.3709 28.1446 51.0396 28.5114 51.7379C28.874 52.4361 29.2197 53.1343 29.5612 53.8535L32.5337 60.2425H64.5987L67.567 53.8535C67.9085 53.1342 68.25 52.4402 68.6126 51.7379C68.9752 51.0354 69.3547 50.3793 69.7721 49.6684H69.7679C72.0615 45.782 73.2632 41.3488 73.2422 36.8357C73.2422 36.0955 73.2084 35.3636 73.1494 34.6317L67.2845 34.6359L62.9376 42.2739ZM61.1836 44.276C60.6228 43.704 59.8554 43.3801 59.0543 43.3801C58.249 43.3801 57.4817 43.704 56.9208 44.276C55.7402 45.479 55.7402 47.4011 56.9208 48.604C57.4816 49.176 58.249 49.4999 59.0543 49.4999C59.8554 49.4999 60.6227 49.176 61.1836 48.604C62.3642 47.4011 62.3642 45.479 61.1836 44.276ZM48.3908 18.8292C47.615 18.0384 46.5526 17.5884 45.4394 17.5884C44.3306 17.5884 43.2638 18.0385 42.488 18.8292C40.8605 20.4948 40.8605 23.1488 42.488 24.8144C43.2638 25.6051 44.3305 26.0509 45.4394 26.0509C46.5525 26.0509 47.615 25.6051 48.3908 24.8144C50.0183 23.1488 50.0183 20.4948 48.3908 18.8292ZM9.25056 36.6171C8.63919 35.9904 7.80009 35.6413 6.92742 35.6413C6.05475 35.6413 5.21985 35.9904 4.60849 36.6171C3.32673 37.9251 3.32673 40.0155 4.60849 41.3279C5.21986 41.9504 6.05464 42.2995 6.92742 42.2995C7.8002 42.2995 8.6392 41.9504 9.25056 41.3279C10.5323 40.0155 10.5323 37.9251 9.25056 36.6171ZM62.8232 75.6407C62.8063 77.5586 62.4184 79.4556 61.6763 81.2263C61.9082 81.1717 62.1485 81.1464 62.3889 81.1506C62.9075 81.1632 63.4134 81.302 63.8688 81.5502C64.4001 81.8488 64.9482 82.118 65.5089 82.3578C66.0697 82.5933 66.6431 82.7994 67.2292 82.9718C67.7268 83.1148 68.1821 83.3798 68.5532 83.7458C68.92 84.1117 69.1941 84.5617 69.3459 85.0538L69.953 86.9549H69.9572C69.9867 87.0643 70.0542 87.1568 70.1428 87.2241C70.2355 87.2914 70.3451 87.325 70.459 87.325H73.1152C73.229 87.325 73.3429 87.2914 73.4356 87.2241C73.5242 87.161 73.5916 87.0643 73.6212 86.9549L74.2283 85.0538C74.3843 84.5575 74.6584 84.1074 75.0294 83.7458C75.3962 83.3798 75.8516 83.1148 76.3534 82.9718C76.9352 82.7994 77.5086 82.5933 78.0694 82.3578C78.6344 82.1222 79.1824 81.853 79.7137 81.5502C80.1648 81.302 80.675 81.1632 81.1894 81.1506C81.7038 81.1464 82.214 81.2642 82.6693 81.5039L84.4317 82.4124L84.4275 82.4082C84.5287 82.4629 84.6383 82.4839 84.748 82.4671C84.8576 82.4461 84.9588 82.3914 85.0389 82.3115L86.911 80.4104C86.9911 80.3305 87.0459 80.2295 87.067 80.1202C87.0838 80.0066 87.067 79.8888 87.0122 79.7879L86.1141 78.0088C85.878 77.5419 85.7599 77.0246 85.7683 76.503C85.7768 75.9773 85.9117 75.4684 86.1605 75.0057C86.4598 74.4673 86.7255 73.908 86.9573 73.3401C87.1892 72.7681 87.3916 72.1876 87.5603 71.5946C87.8385 70.5809 88.6101 69.7734 89.6136 69.4411L91.4856 68.8228C91.5953 68.7933 91.688 68.726 91.7555 68.6335C91.8187 68.541 91.8525 68.4316 91.8482 68.3181V65.6178C91.8525 65.5042 91.8187 65.3949 91.7555 65.2981C91.688 65.2098 91.5953 65.1425 91.4856 65.1088L89.6136 64.4906V64.4948C89.1203 64.3349 88.6733 64.0573 88.3192 63.6788C87.9566 63.3044 87.6952 62.8418 87.556 62.337C87.3874 61.7482 87.185 61.1636 86.9531 60.5957C86.717 60.0237 86.4514 59.4685 86.1562 58.9259C85.9075 58.4674 85.7725 57.9543 85.7641 57.4328C85.7557 56.9112 85.8737 56.3939 86.1098 55.927L87.0079 54.1437V54.1479C87.0627 54.047 87.0838 53.9292 87.0669 53.8157C87.0459 53.7063 86.9953 53.6054 86.9152 53.5296L85.0347 51.6201C84.9546 51.5402 84.8534 51.4855 84.748 51.4645C84.6341 51.4477 84.5245 51.4687 84.4275 51.5234L82.6651 52.4319C81.7375 52.9156 80.6245 52.8988 79.7095 52.3814C79.1782 52.0828 78.6301 51.8136 78.0652 51.5739C77.5044 51.3383 76.9309 51.1364 76.3492 50.964C75.8516 50.821 75.3963 50.556 75.0252 50.1943C74.6542 49.8284 74.3801 49.3741 74.2241 48.8777L73.7814 47.4982C73.2796 48.718 72.6894 49.8999 72.0232 51.0398C71.6184 51.7253 71.2643 52.3605 70.9354 52.9872C70.6065 53.6139 70.2903 54.2532 69.9446 54.9977L69.3248 56.3394H69.3205C70.1301 56.1417 70.9564 56.045 71.7871 56.045C74.6542 56.045 77.399 57.1974 79.3976 59.2458C83.6054 63.5402 83.6054 70.3999 79.3976 74.6951C76.13 78.0263 71.0661 78.8465 66.9092 76.7056C65.8762 76.1672 64.936 75.4648 64.1265 74.6278C63.7259 75.0063 63.2874 75.3428 62.8237 75.6372L62.8232 75.6407ZM36.3698 83.0349C35.6615 81.853 35.1261 80.5744 34.7803 79.2411C31.3271 81.0034 27.1319 80.3179 24.4207 77.5503C20.917 73.9836 20.917 68.2717 24.4207 64.7047C25.9934 63.0937 28.1227 62.1432 30.3741 62.0464V61.8655L28.4051 57.6384C28.3714 57.6763 28.3419 57.7099 28.304 57.752C27.9709 58.0759 27.5661 58.3072 27.1233 58.4334C26.6595 58.5722 26.2042 58.7362 25.7615 58.9213C25.3146 59.1105 24.8803 59.3208 24.4587 59.5606C24.0581 59.7835 23.6112 59.9055 23.1517 59.9139C22.6921 59.9223 22.2409 59.8129 21.8319 59.6026L20.411 58.8708C20.3478 58.8245 20.2592 58.8371 20.2086 58.896L18.695 60.4355C18.6655 60.4607 18.6444 60.4943 18.636 60.5322C18.636 60.57 18.6444 60.6079 18.6613 60.6415L19.3823 62.0842V62.08C19.5931 62.4964 19.6985 62.9548 19.6943 63.4175C19.6816 63.8844 19.5636 64.3386 19.3401 64.7467C19.1082 65.1757 18.8974 65.6173 18.7119 66.0674C18.5264 66.5174 18.3704 66.9801 18.2355 67.4469C18.109 67.8928 17.8771 68.305 17.5566 68.6415C17.2404 68.9737 16.8441 69.2219 16.4098 69.3649L14.9046 69.8696C14.8709 69.8781 14.8371 69.8991 14.8118 69.9285C14.795 69.9622 14.7865 70 14.7865 70.0379V72.2208V72.2166C14.7865 72.2544 14.795 72.2881 14.8118 72.3217C14.8371 72.3512 14.8667 72.3722 14.9046 72.3806L16.4182 72.8853C16.8567 73.0241 17.2488 73.2723 17.565 73.6046C17.8813 73.941 18.1132 74.349 18.2397 74.7949C18.3746 75.2618 18.5348 75.7245 18.7203 76.1744C18.9058 76.6287 19.1166 77.0703 19.3485 77.5036C19.5678 77.9116 19.6901 78.3658 19.7027 78.8285C19.7069 79.2954 19.6015 79.7539 19.3907 80.1661L18.6697 81.6045C18.6486 81.6382 18.6402 81.6802 18.6444 81.7181C18.6528 81.7559 18.6739 81.7896 18.7034 81.8106L20.2171 83.3542C20.2466 83.3795 20.2803 83.4005 20.314 83.4131C20.352 83.4131 20.3899 83.4047 20.4194 83.3879L21.8403 82.6518C22.2493 82.4373 22.7005 82.3322 23.1601 82.3364C23.6196 82.3406 24.0666 82.4668 24.4671 82.6939C24.8887 82.9294 25.323 83.1397 25.7657 83.3248C26.2126 83.5183 26.668 83.6781 27.1317 83.8127C27.5745 83.9389 27.975 84.1744 28.3038 84.4941V84.4983C28.6327 84.8263 28.8773 85.2259 29.0164 85.6633L29.5055 87.1985C29.5181 87.2364 29.5392 87.2658 29.5645 87.2953C29.5982 87.3121 29.632 87.3205 29.6699 87.3205H31.8202C31.8582 87.3205 31.8919 87.3121 31.9214 87.2953C31.951 87.27 31.972 87.2364 31.9805 87.1985L32.4738 85.6633H32.478C32.6129 85.2217 32.8575 84.8221 33.1863 84.4983L33.1905 84.4941C33.5194 84.1744 33.92 83.9431 34.3584 83.8127C34.8264 83.6823 35.2818 83.5183 35.7245 83.3248C35.9437 83.2323 36.163 83.1355 36.3696 83.0304L36.3698 83.0349ZM34.3334 76.4147C34.3165 76.1539 34.3081 75.9015 34.3081 75.6407H34.3039C33.7473 75.3 33.2372 74.8879 32.7817 74.421C31.2386 72.8564 30.37 70.7491 30.3742 68.5536V64.726C28.8226 64.8228 27.3679 65.4873 26.2843 66.5936C23.8135 69.1129 23.8135 73.1382 26.2843 75.6618C28.2407 77.6556 31.2933 78.1097 33.7515 76.7722C33.9496 76.6628 34.1479 76.5408 34.3334 76.4147ZM56.7812 83.8678C58.687 81.9372 59.8676 79.4094 60.129 76.7133C59.6695 76.8017 59.2014 76.8521 58.7376 76.8648H38.4616C38.2128 76.8648 37.9683 76.8479 37.7237 76.8227C37.5256 77.0666 37.3189 77.298 37.1039 77.5209H37.1081C37.5045 79.9184 38.6345 82.135 40.3462 83.8678C42.505 86.076 45.4691 87.3209 48.5639 87.3209C51.6586 87.3209 54.6225 86.076 56.7812 83.8678ZM66.7486 61.874V68.5532H66.7444C66.7486 69.9327 66.4071 71.2872 65.7578 72.5027C66.4198 73.2472 67.2125 73.8654 68.0937 74.3239C71.2306 75.9391 75.059 75.3208 77.5256 72.7971C80.7047 69.5584 80.7047 64.3766 77.5256 61.1337C74.941 58.484 70.8722 57.9456 67.6847 59.8383L66.7486 61.874ZM64.1177 62.9171H33.0144V68.5532C33.0102 70.0422 33.6005 71.4722 34.6461 72.5322C35.6749 73.5879 37.0915 74.1852 38.5672 74.1894H58.5529C60.0329 74.1852 61.4495 73.5879 62.4825 72.5322C63.5282 71.4722 64.1142 70.0422 64.1184 68.5532L64.1177 62.9171ZM49.0615 3.57415C49.0952 3.56153 49.1247 3.54892 49.1542 3.53209C49.1795 3.51947 49.2006 3.50686 49.2217 3.49003C49.2596 3.469 49.2976 3.44797 49.3355 3.42273L49.3988 3.37226C49.4325 3.34702 49.462 3.31338 49.4915 3.28814C49.6981 3.07784 49.833 2.80024 49.871 2.50582V2.43011C49.9089 1.8707 49.5927 1.34076 49.0741 1.11357L49.0783 1H48.5513H47.4972L47.2906 1.00421L47.0756 1.01262L46.869 1.02524L46.6539 1.03785L46.3504 1.05468L46.519 3.72556L46.7973 3.70873L46.9912 3.69612L47.1894 3.6835H47.5815L47.7755 3.67929L47.9736 3.67509H48.37H49.0657V3.57414L49.0615 3.57415ZM83.7957 39.6367C83.8632 38.7113 83.8969 37.7903 83.9011 36.8649H81.266C81.266 37.7187 81.2322 38.581 81.169 39.4348L83.7957 39.6367ZM82.1514 25.6938C81.8647 24.8106 81.5485 23.9441 81.1943 23.0861L78.7657 24.1207C79.0862 24.9157 79.3813 25.7191 79.6469 26.5308L82.1514 25.6938ZM80.0517 20.5667C79.6469 19.7507 79.1832 18.9222 78.7151 18.1398L76.4679 19.5488C76.9064 20.2681 77.3322 21.021 77.7032 21.7864L80.0517 20.5667ZM77.1931 15.8349C76.6618 15.0862 76.0885 14.3502 75.5024 13.652L73.4954 15.3849C74.0393 16.0326 74.5663 16.7099 75.0596 17.4038L77.1931 15.8349ZM73.6557 11.612C73.0064 10.9558 72.3444 10.3249 71.6487 9.71928L69.9327 11.7508C70.5736 12.3102 71.1806 12.8948 71.7836 13.5005L73.6557 11.612ZM69.5111 7.98635C68.7732 7.43536 68.0354 6.91801 67.2469 6.42593L65.8597 8.69302C66.5722 9.15148 67.2721 9.63518 67.9552 10.1442L69.5111 7.98635ZM64.8689 5.03789C64.0594 4.60887 63.2414 4.21351 62.3981 3.85174L61.3735 6.31653C62.1536 6.65722 62.9083 7.01894 63.663 7.41428L64.8689 5.03789ZM59.8388 2.87179C58.9745 2.57316 58.0974 2.31238 57.2162 2.08525L56.5754 4.68044C57.3933 4.89074 58.2028 5.1347 59.004 5.40389L59.8388 2.87179ZM54.5389 1.51745C54.3449 1.4796 54.1509 1.45015 53.957 1.42071C53.2487 1.30715 52.5361 1.21882 51.8235 1.15573L51.5874 3.81822C52.4264 3.89392 53.2697 4.00749 54.0961 4.14629L54.5389 1.51745ZM43.6318 1.34921L43.3451 1.39547L42.7379 1.49642L42.5313 1.52166L41.7218 1.67307L41.5194 1.71513L41.3212 1.75298L41.1189 1.79505L40.9418 1.84131L41.511 4.44909L41.6754 4.41124L41.8609 4.37339L42.0422 4.33553L42.4175 4.25982L42.603 4.22197L42.974 4.15467L43.1638 4.12943L43.3577 4.09579L43.5433 4.07055C43.6993 4.04531 43.851 4.02008 44.007 3.99905L43.6318 1.34921ZM38.2897 2.54376L37.9735 2.64049L37.7796 2.70779L37.5856 2.76668L37.3916 2.83397L37.1977 2.89706L37.0037 2.96857L36.8182 3.03166L36.6243 3.10316L36.4387 3.17046L36.2448 3.24196L36.0593 3.31767L35.8737 3.38917L35.7135 3.45226L36.6748 5.94645L37.0164 5.81607L37.1892 5.74456C37.4844 5.631 37.7753 5.53426 38.0704 5.42911L38.2475 5.37022L38.5975 5.25245C38.7577 5.20197 38.9179 5.15571 39.0781 5.10103L38.2897 2.54376ZM33.1964 4.56266L32.956 4.68044L32.7747 4.77297L32.0664 5.1431L31.8893 5.23984L31.7122 5.33238L31.3707 5.52586L31.1936 5.63101L31.0208 5.72775L30.7762 5.86655L32.1086 8.17144C32.2351 8.09994 32.3658 8.02423 32.4881 7.95693L32.8085 7.77187C32.9729 7.67934 33.1332 7.59101 33.2934 7.5069C33.6349 7.32182 33.9933 7.13676 34.3432 6.96431L33.1964 4.56266ZM28.4699 7.36394C28.3181 7.46488 28.1748 7.57424 28.0272 7.6836L27.867 7.79717L27.5465 8.03692L27.3863 8.15469L27.2303 8.27247L26.9141 8.51642L26.7581 8.6426L26.4503 8.89076L26.2816 9.02956L27.9513 11.099C28.3772 10.7415 28.8157 10.405 29.2669 10.0685C29.503 9.89604 29.7433 9.72359 29.9794 9.55535L28.4699 7.36394ZM24.2325 10.8592C24.1313 10.9517 24.0343 11.0442 23.9374 11.141L23.6591 11.4228L23.5157 11.5616L23.3766 11.7046L23.2417 11.8434L22.9634 12.1378L22.6978 12.4238L22.5586 12.5752L22.3183 12.8444L24.2704 14.6363L24.4981 14.3797C24.9957 13.8329 25.5058 13.3029 26.0413 12.794L24.2325 10.8592ZM20.5686 14.9811L20.4126 15.1788L20.2987 15.3428L20.1849 15.4984L19.388 16.6467L19.2742 16.8149C19.1772 16.9621 19.0886 17.1009 18.9917 17.2481L21.201 18.7035C21.3486 18.4721 21.5088 18.2366 21.6648 18.0053C21.9895 17.5342 22.3184 17.0673 22.6683 16.613L20.5686 14.9811ZM17.5708 19.6204L17.4148 19.9064L17.3221 20.0872L17.1365 20.4448L17.0438 20.6256L16.951 20.8107L16.8582 20.9915L16.7739 21.1766L16.6896 21.3575L16.4366 21.9127L16.3396 22.123L18.7472 23.2123L18.8315 23.0272L18.9875 22.6865L19.2278 22.1818L19.3122 22.0136C19.3923 21.8453 19.4766 21.6855 19.5609 21.5173C19.6621 21.3154 19.7717 21.1177 19.8772 20.9158L17.5708 19.6204ZM15.3193 24.676L15.235 24.9158L15.1676 25.1051L14.9778 25.6855L14.9188 25.879L14.8556 26.0725L14.6785 26.6529L14.6194 26.8548L14.5646 27.0483L14.4887 27.3174L17.0354 28.0157L17.1493 27.5908L17.2547 27.2291L17.3137 27.0483L17.5414 26.3248C17.6004 26.1482 17.6552 25.9673 17.7227 25.7906L17.7986 25.5635L15.3193 24.676ZM13.8647 30.0262L13.8183 30.287L13.7803 30.4931L13.7466 30.6992L13.7087 30.9053L13.6707 31.1072L13.5695 31.7255L13.5442 31.9358L13.5189 32.1419L13.4936 32.3522L13.4683 32.5583L13.4473 32.7686L16.0614 33.0714L16.0867 32.8779L16.1289 32.491L16.1542 32.2975L16.1795 32.1082L16.2385 31.7255L16.2638 31.5362L16.3017 31.3343L16.4029 30.7665L16.4451 30.5225L13.8647 30.0262ZM14.1851 45.2019C14.3917 46.0978 14.6405 46.9979 14.923 47.877L17.4316 47.061C17.1702 46.2493 16.9426 45.4165 16.7486 44.5878L14.1851 45.2019ZM15.8548 50.489C16.0108 50.8886 16.1837 51.2839 16.3608 51.6751C16.5631 52.1294 16.7697 52.5752 16.989 53.0169L19.3417 51.8097C18.9622 51.0484 18.6123 50.2661 18.2918 49.4753L15.8548 50.489Z" fill="black"/>
<path d="M56.7855 83.872L56.7812 83.8678M56.7812 83.8678C58.687 81.9372 59.8676 79.4094 60.129 76.7133C59.6695 76.8017 59.2014 76.8521 58.7376 76.8648H38.4616C38.2128 76.8648 37.9683 76.8479 37.7237 76.8227C37.5255 77.0666 37.3189 77.298 37.1039 77.5209H37.1081C37.5045 79.9184 38.6345 82.135 40.3463 83.8678C42.505 86.076 45.4691 87.3209 48.5639 87.3209C51.6586 87.3209 54.6225 86.076 56.7812 83.8678ZM83.0241 44.8561C83.2054 44.0443 83.353 43.2199 83.4795 42.3998L80.878 41.9876C80.8527 42.1685 80.8231 42.3451 80.7936 42.5218C80.6966 43.1064 80.5786 43.6868 80.4521 44.2631L83.0241 44.8561ZM90.2002 26.3876C92.0132 26.3876 93.7462 27.1195 95.011 28.415C97.663 31.132 97.663 35.4643 95.011 38.1814C93.7461 39.4726 92.009 40.2045 90.196 40.2045C88.383 40.2045 86.6458 39.4726 85.381 38.1814C84.4239 37.2056 83.7746 35.9732 83.5216 34.6357H75.7974C75.8564 35.3591 75.8817 36.0994 75.8817 36.8397L75.8775 36.8355C75.8775 39.3254 75.5486 41.8028 74.8951 44.2045L74.8318 44.4485C74.8993 44.4947 74.9667 44.541 75.0342 44.5915C75.5444 44.9868 75.9238 45.5336 76.1178 46.1477L76.7249 48.053H76.7291C76.7502 48.1413 76.7924 48.217 76.8556 48.2801C76.9189 48.339 76.999 48.3811 77.0833 48.4063C77.7622 48.604 78.4241 48.8395 79.0777 49.1171C79.7312 49.3905 80.3637 49.7018 80.9834 50.0467C81.0551 50.093 81.1394 50.1182 81.228 50.1224C81.3123 50.1182 81.3966 50.0972 81.4725 50.0509L83.2349 49.1424V49.1466C84.4534 48.5157 85.9418 48.7554 86.8989 49.7354L88.7751 51.6324C89.7407 52.625 89.9768 54.1181 89.357 55.3547L88.4589 57.1423V57.1381C88.4167 57.218 88.3914 57.3021 88.3872 57.3905C88.3957 57.4788 88.421 57.5671 88.4716 57.6428C89.1504 58.8963 89.6901 60.2211 90.0822 61.5966C90.1033 61.6765 90.1454 61.7564 90.2045 61.8195C90.2635 61.8826 90.3394 61.9288 90.4237 61.9499L92.3 62.5682C92.9409 62.7785 93.4974 63.1864 93.8854 63.7332C94.2775 64.2842 94.4841 64.9445 94.4841 65.6175V68.3136C94.4841 68.9908 94.2775 69.6469 93.8854 70.1979C93.4933 70.7447 92.9409 71.1527 92.3 71.3629L90.4279 71.9812C90.3436 72.0023 90.2635 72.0485 90.2002 72.1116C90.1454 72.1747 90.1033 72.2546 90.078 72.3387C89.884 73.0243 89.6479 73.7015 89.3781 74.3619C89.1124 75.0222 88.8089 75.6615 88.4716 76.2883C88.421 76.364 88.3957 76.4481 88.3914 76.5406C88.3957 76.6248 88.4167 76.7131 88.4589 76.7888L89.357 78.5764C89.9768 79.813 89.7407 81.3062 88.7751 82.2945L86.8989 84.1999H86.8946C86.4266 84.6793 85.8195 84.9948 85.1575 85.1C84.4997 85.2051 83.8209 85.1 83.2306 84.7887L81.4682 83.8802V83.8844C81.3965 83.8381 81.3122 83.8171 81.2236 83.8129C81.1393 83.8171 81.055 83.8423 80.9791 83.8886C80.3635 84.2377 79.7268 84.549 79.0734 84.8224C78.4241 85.0958 77.7578 85.3313 77.079 85.529C76.9947 85.5542 76.9188 85.5963 76.8513 85.6552C76.7923 85.7183 76.7501 85.794 76.7248 85.8823L76.1177 87.7876C75.9153 88.4311 75.5147 88.9906 74.9708 89.3943C74.4312 89.7897 73.7818 90 73.1114 90H70.4594C69.789 90 69.1396 89.7855 68.5999 89.3901C68.0602 88.9863 67.6639 88.4269 67.4657 87.7876L66.8459 85.8823C66.8206 85.7982 66.7785 85.7224 66.7152 85.6551C66.652 85.5963 66.5719 85.5542 66.4875 85.5332C65.8129 85.3355 65.1467 85.1 64.4932 84.8223C63.8439 84.549 63.2114 84.2419 62.5959 83.897C62.52 83.8507 62.4314 83.8213 62.3429 83.8171C62.2585 83.8213 62.1742 83.8423 62.0983 83.8886L60.3401 84.7971L60.3359 84.7929C60.045 84.9443 59.7288 85.0495 59.4041 85.0999C59.3451 85.1084 59.2903 85.1168 59.227 85.121C59.0331 85.3355 58.8434 85.55 58.641 85.7561C55.9889 88.469 52.3545 89.9958 48.5555 89.9958C44.7609 89.9958 41.1264 88.469 38.4744 85.7561C38.3015 85.5752 38.1328 85.3944 37.9684 85.2093C37.5679 85.4196 37.1547 85.6173 36.7331 85.7939H36.7288C36.1934 86.0169 35.6453 86.2104 35.0887 86.3744C35.0592 86.3828 35.0339 86.3954 35.0171 86.4164C34.996 86.4375 34.9791 86.4627 34.9707 86.4879L34.4816 88.0232C34.3045 88.5952 33.9503 89.0957 33.4697 89.4532C32.9932 89.8065 32.4114 89.9958 31.8212 89.9958H29.675C29.0805 89.9958 28.5029 89.8065 28.0265 89.4532C27.5416 89.0957 27.1832 88.5952 27.0019 88.0232L26.5086 86.4963C26.5044 86.4669 26.4918 86.4417 26.4749 86.4206C26.4496 86.3996 26.4243 86.3828 26.3948 86.3786C25.8382 86.2103 25.2902 86.0168 24.7547 85.7981C24.2192 85.571 23.7006 85.3144 23.1905 85.0326C23.1694 85.0158 23.1399 85.0074 23.1103 84.999C23.085 85.0074 23.0555 85.0158 23.0302 85.0284L21.6051 85.7645H21.6094C21.0865 86.0379 20.4878 86.1346 19.9018 86.0421C19.3157 85.9453 18.7718 85.6635 18.3544 85.2387L16.8366 83.6951C16.4149 83.2703 16.1409 82.7235 16.0523 82.1305C15.9596 81.5374 16.0566 80.9317 16.3264 80.3934L17.0474 78.9549H17.0432C17.06 78.9297 17.0727 78.9002 17.0769 78.8708C17.0727 78.8414 17.0643 78.8119 17.0432 78.7867C16.4782 77.7562 16.0355 76.6668 15.715 75.5354C15.7108 75.5102 15.6981 75.485 15.6813 75.4639C15.656 75.4471 15.6307 75.4303 15.6012 75.4219L14.0876 74.9255H14.0833C13.5184 74.7405 13.0251 74.3788 12.6793 73.8951C12.3336 73.4072 12.148 72.8225 12.148 72.221V70.0381C12.148 69.4367 12.3336 68.852 12.6793 68.3641C13.025 67.8804 13.5183 67.5145 14.0833 67.3294L15.597 66.8289H15.6012C15.6307 66.8247 15.656 66.8079 15.6813 66.7869C15.6981 66.7784 15.7066 66.749 15.7192 66.7111H15.715C15.8752 66.1475 16.065 65.5923 16.2842 65.0497C16.5077 64.5071 16.7564 63.9772 17.0389 63.464C17.0558 63.4387 17.0642 63.4135 17.0684 63.3841C17.0642 63.3546 17.0558 63.3252 17.0389 63.2999L16.3179 61.853V61.8572C15.7656 60.7595 15.9722 59.4345 16.8281 58.5555L18.3503 57.0118C18.7677 56.5912 19.3074 56.3094 19.8892 56.2169C20.4753 56.1202 21.0741 56.2211 21.5968 56.4945L23.0219 57.2264L23.0177 57.2221C23.043 57.239 23.0725 57.2516 23.0978 57.2558C23.1273 57.2516 23.1568 57.239 23.1779 57.2221C23.6881 56.9403 24.2067 56.688 24.7421 56.4609C25.2776 56.2379 25.8257 56.0445 26.3822 55.8804C26.4075 55.872 26.4328 55.8594 26.4539 55.8426C26.475 55.8215 26.4919 55.7921 26.4961 55.7626L26.9135 54.4672C26.6605 53.9372 26.4202 53.4535 26.1756 52.9951C25.8426 52.3684 25.4884 51.7332 25.0794 51.0477H25.0836C23.8229 48.9068 22.8574 46.6061 22.2081 44.2128C21.8623 42.9341 21.6052 41.6303 21.4407 40.3138H12.6918C12.4431 41.4115 11.8907 42.4168 11.1022 43.2201C10.0018 44.3474 8.49232 44.9824 6.91546 44.9824C5.34281 44.9824 3.8333 44.3473 2.73288 43.2201C0.422373 40.8605 0.422373 37.0919 2.73288 34.7323C3.8333 33.6093 5.34281 32.9742 6.91546 32.9742C8.49232 32.9742 10.0018 33.6093 11.1022 34.7323C11.8907 35.5357 12.4388 36.5409 12.6918 37.6387H21.2425C21.2383 37.3737 21.2341 37.1087 21.2341 36.8437V36.8479C21.213 29.5126 24.0885 22.4712 29.2367 17.2392C34.3131 12.0448 41.2782 9.1173 48.5521 9.1173C55.826 9.1173 62.7869 12.0448 67.8675 17.2392C71.8393 21.2602 74.4871 26.3958 75.4568 31.9606H83.5269C83.7841 30.6188 84.4292 29.3865 85.3863 28.4148C86.6554 27.1194 88.3926 26.3875 90.2055 26.3875L90.2002 26.3876ZM93.1432 30.3035C92.3674 29.5085 91.3049 29.0627 90.196 29.0627C89.087 29.0627 88.0246 29.5086 87.2488 30.3035C85.6213 31.9691 85.6213 34.6273 87.2488 36.2929C88.0246 37.0836 89.087 37.5294 90.196 37.5294C91.3049 37.5294 92.3674 37.0836 93.1432 36.2929C94.7749 34.6273 94.7749 31.9691 93.1432 30.3035ZM59.0501 40.7051C59.5982 40.7009 60.1379 40.7808 60.6607 40.9406L65.3872 32.6294H65.3914C65.6233 32.2214 66.0576 31.9648 66.5299 31.9648V31.9606H72.7785C71.8382 27.1111 69.4855 22.6443 66.0155 19.1236C61.424 14.4296 55.1333 11.7883 48.5642 11.7883C41.991 11.7883 35.7002 14.4296 31.1085 19.1236C26.4622 23.8512 23.865 30.2152 23.8818 36.8351C23.8818 37.1001 23.8818 37.3651 23.8945 37.63H41.1979L42.9224 28.2379C40.7847 27.3462 39.2331 25.4577 38.7735 23.1948C38.314 20.9319 39.0096 18.5892 40.6288 16.9362C41.8937 15.6449 43.6265 14.9173 45.4395 14.9173C47.2526 14.9173 48.9855 15.6449 50.2503 16.9362C52.9151 19.6532 52.9151 23.994 50.2503 26.711C50.1238 26.8372 49.9889 26.9592 49.854 27.0812L57.5065 40.9228C58.0083 40.7756 58.5269 40.7041 59.0497 40.7041L59.0501 40.7051ZM62.9376 42.2739C62.9755 42.3118 63.005 42.3496 63.043 42.3875H63.0472C65.2524 44.642 65.2524 48.2423 63.0472 50.4967C61.9973 51.5735 60.5554 52.1833 59.0502 52.1833C57.545 52.1833 56.1029 51.5734 55.0531 50.4967C52.848 48.2422 52.848 44.6419 55.0531 42.3875C55.1079 42.337 55.1585 42.2823 55.2134 42.2361L47.565 28.3858C46.8988 28.6045 46.2032 28.7223 45.5032 28.7265L43.5974 39.107L43.6017 39.1028C43.5342 39.78 42.9692 40.3016 42.2861 40.3058H24.1138C24.5565 43.6117 25.6612 46.7957 27.3561 49.6684C27.7693 50.3709 28.1446 51.0396 28.5114 51.7379C28.874 52.4361 29.2197 53.1343 29.5612 53.8535L32.5337 60.2425H64.5987L67.567 53.8535C67.9085 53.1342 68.25 52.4402 68.6126 51.7379C68.9752 51.0354 69.3547 50.3793 69.7721 49.6684H69.7679C72.0615 45.782 73.2632 41.3488 73.2422 36.8357C73.2422 36.0955 73.2084 35.3636 73.1494 34.6317L67.2845 34.6359L62.9376 42.2739ZM61.1836 44.276C60.6228 43.704 59.8554 43.3801 59.0543 43.3801C58.249 43.3801 57.4817 43.704 56.9208 44.276C55.7402 45.479 55.7402 47.4011 56.9208 48.604C57.4816 49.176 58.249 49.4999 59.0543 49.4999C59.8554 49.4999 60.6227 49.176 61.1836 48.604C62.3642 47.4011 62.3642 45.479 61.1836 44.276ZM48.3908 18.8292C47.615 18.0384 46.5526 17.5884 45.4394 17.5884C44.3306 17.5884 43.2638 18.0385 42.488 18.8292C40.8605 20.4948 40.8605 23.1488 42.488 24.8144C43.2638 25.6051 44.3305 26.0509 45.4394 26.0509C46.5525 26.0509 47.615 25.6051 48.3908 24.8144C50.0183 23.1488 50.0183 20.4948 48.3908 18.8292ZM9.25056 36.6171C8.63919 35.9904 7.80009 35.6413 6.92742 35.6413C6.05475 35.6413 5.21985 35.9904 4.60849 36.6171C3.32673 37.9251 3.32673 40.0155 4.60849 41.3279C5.21986 41.9504 6.05464 42.2995 6.92742 42.2995C7.8002 42.2995 8.6392 41.9504 9.25056 41.3279C10.5323 40.0155 10.5323 37.9251 9.25056 36.6171ZM62.8232 75.6407C62.8063 77.5586 62.4184 79.4556 61.6763 81.2263C61.9082 81.1717 62.1485 81.1464 62.3889 81.1506C62.9075 81.1632 63.4134 81.302 63.8688 81.5502C64.4001 81.8488 64.9482 82.118 65.5089 82.3578C66.0697 82.5933 66.6431 82.7994 67.2292 82.9718C67.7268 83.1148 68.1821 83.3798 68.5532 83.7458C68.92 84.1117 69.1941 84.5617 69.3459 85.0538L69.953 86.9549H69.9572C69.9867 87.0643 70.0542 87.1568 70.1428 87.2241C70.2355 87.2914 70.3451 87.325 70.459 87.325H73.1152C73.2291 87.325 73.3429 87.2914 73.4356 87.2241C73.5242 87.161 73.5916 87.0643 73.6212 86.9549L74.2283 85.0538C74.3843 84.5575 74.6584 84.1074 75.0294 83.7458C75.3962 83.3798 75.8516 83.1148 76.3534 82.9718C76.9352 82.7994 77.5086 82.5933 78.0694 82.3578C78.6344 82.1222 79.1824 81.853 79.7137 81.5502C80.1648 81.302 80.675 81.1632 81.1894 81.1506C81.7038 81.1464 82.214 81.2642 82.6693 81.5039L84.4317 82.4124L84.4275 82.4082C84.5287 82.4629 84.6383 82.4839 84.748 82.4671C84.8576 82.4461 84.9588 82.3914 85.0389 82.3115L86.911 80.4104C86.9911 80.3305 87.0459 80.2295 87.067 80.1202C87.0838 80.0066 87.067 79.8888 87.0122 79.7879L86.1141 78.0088C85.878 77.5419 85.7599 77.0246 85.7683 76.503C85.7768 75.9773 85.9117 75.4684 86.1605 75.0057C86.4598 74.4673 86.7255 73.908 86.9573 73.3401C87.1892 72.7681 87.3916 72.1876 87.5603 71.5946C87.8385 70.5809 88.6101 69.7734 89.6136 69.4411L91.4856 68.8228C91.5953 68.7933 91.688 68.726 91.7555 68.6335C91.8187 68.541 91.8525 68.4316 91.8482 68.3181V65.6178C91.8525 65.5042 91.8187 65.3949 91.7555 65.2981C91.688 65.2098 91.5953 65.1425 91.4856 65.1088L89.6136 64.4905V64.4948C89.1203 64.3349 88.6733 64.0573 88.3192 63.6788C87.9566 63.3044 87.6952 62.8418 87.556 62.337C87.3874 61.7482 87.185 61.1636 86.9531 60.5957C86.717 60.0237 86.4514 59.4685 86.1562 58.9259C85.9075 58.4674 85.7725 57.9543 85.7641 57.4328C85.7557 56.9112 85.8737 56.3939 86.1098 55.927L87.0079 54.1437V54.1479C87.0627 54.047 87.0838 53.9292 87.0669 53.8157C87.0459 53.7063 86.9953 53.6054 86.9152 53.5296L85.0347 51.6201C84.9546 51.5402 84.8534 51.4855 84.748 51.4645C84.6341 51.4477 84.5245 51.4687 84.4275 51.5234L82.6651 52.4319C81.7375 52.9156 80.6245 52.8988 79.7095 52.3814C79.1782 52.0828 78.6301 51.8136 78.0652 51.5739C77.5044 51.3383 76.9309 51.1364 76.3492 50.964C75.8516 50.821 75.3963 50.556 75.0252 50.1943C74.6542 49.8284 74.3801 49.3741 74.2241 48.8777L73.7814 47.4982C73.2796 48.718 72.6894 49.8999 72.0232 51.0398C71.6184 51.7253 71.2643 52.3605 70.9354 52.9872C70.6065 53.6139 70.2903 54.2532 69.9446 54.9977L69.3248 56.3394H69.3205C70.1301 56.1417 70.9564 56.045 71.7871 56.045C74.6542 56.045 77.399 57.1974 79.3976 59.2458C83.6054 63.5402 83.6054 70.3999 79.3976 74.6951C76.13 78.0263 71.0661 78.8465 66.9092 76.7056C65.8762 76.1672 64.936 75.4648 64.1265 74.6278C63.7259 75.0063 63.2874 75.3428 62.8237 75.6372L62.8232 75.6407ZM36.3698 83.0349C35.6615 81.853 35.1261 80.5744 34.7803 79.2411C31.3271 81.0034 27.1319 80.3179 24.4207 77.5503C20.917 73.9836 20.917 68.2717 24.4207 64.7047C25.9934 63.0937 28.1227 62.1432 30.3741 62.0464V61.8655L28.4051 57.6384C28.3714 57.6763 28.3419 57.7099 28.304 57.752C27.9709 58.0759 27.5661 58.3072 27.1233 58.4334C26.6595 58.5722 26.2042 58.7362 25.7615 58.9213C25.3146 59.1105 24.8803 59.3208 24.4587 59.5606C24.0581 59.7835 23.6112 59.9055 23.1517 59.9139C22.6921 59.9223 22.2409 59.8129 21.8319 59.6026L20.411 58.8708C20.3478 58.8245 20.2592 58.8371 20.2086 58.896L18.695 60.4355C18.6655 60.4607 18.6444 60.4943 18.636 60.5322C18.636 60.57 18.6444 60.6079 18.6613 60.6415L19.3823 62.0842V62.08C19.5931 62.4964 19.6985 62.9548 19.6943 63.4175C19.6816 63.8844 19.5636 64.3386 19.3401 64.7467C19.1082 65.1757 18.8974 65.6173 18.7119 66.0674C18.5264 66.5174 18.3704 66.9801 18.2355 67.4469C18.109 67.8928 17.8771 68.305 17.5566 68.6415C17.2404 68.9737 16.8441 69.2219 16.4098 69.3649L14.9046 69.8696C14.8709 69.878 14.8371 69.8991 14.8118 69.9285C14.795 69.9622 14.7865 70 14.7865 70.0379V72.2208V72.2166C14.7865 72.2544 14.795 72.2881 14.8118 72.3217C14.8371 72.3512 14.8667 72.3722 14.9046 72.3806L16.4182 72.8853C16.8567 73.0241 17.2488 73.2723 17.565 73.6046C17.8813 73.941 18.1132 74.349 18.2397 74.7949C18.3746 75.2618 18.5348 75.7245 18.7203 76.1744C18.9058 76.6287 19.1166 77.0703 19.3485 77.5036C19.5678 77.9116 19.6901 78.3658 19.7027 78.8285C19.7069 79.2954 19.6015 79.7539 19.3907 80.1661L18.6697 81.6045C18.6486 81.6381 18.6402 81.6802 18.6444 81.7181C18.6528 81.7559 18.6739 81.7896 18.7034 81.8106L20.217 83.3542C20.2466 83.3795 20.2803 83.4005 20.314 83.4131C20.352 83.4131 20.3899 83.4047 20.4194 83.3879L21.8403 82.6518C22.2493 82.4373 22.7005 82.3322 23.1601 82.3364C23.6196 82.3406 24.0666 82.4667 24.4671 82.6939C24.8887 82.9294 25.323 83.1397 25.7657 83.3248C26.2126 83.5183 26.668 83.6781 27.1317 83.8127C27.5745 83.9389 27.975 84.1744 28.3038 84.4941V84.4983C28.6327 84.8263 28.8773 85.2259 29.0164 85.6633L29.5055 87.1985C29.5181 87.2364 29.5392 87.2658 29.5645 87.2953C29.5982 87.3121 29.632 87.3205 29.6699 87.3205H31.8202C31.8582 87.3205 31.8919 87.3121 31.9214 87.2953C31.951 87.27 31.972 87.2364 31.9805 87.1985L32.4738 85.6633H32.478C32.6129 85.2217 32.8574 84.8221 33.1863 84.4983L33.1905 84.4941C33.5194 84.1744 33.92 83.9431 34.3584 83.8127C34.8264 83.6823 35.2818 83.5183 35.7245 83.3248C35.9437 83.2323 36.163 83.1355 36.3696 83.0304L36.3698 83.0349ZM34.3334 76.4147C34.3165 76.1539 34.3081 75.9015 34.3081 75.6407H34.3039C33.7473 75.3 33.2372 74.8879 32.7817 74.421C31.2386 72.8564 30.37 70.7491 30.3742 68.5536V64.726C28.8226 64.8228 27.3679 65.4873 26.2843 66.5936C23.8135 69.1129 23.8135 73.1382 26.2843 75.6618C28.2407 77.6556 31.2933 78.1097 33.7515 76.7722C33.9496 76.6628 34.1479 76.5408 34.3334 76.4147ZM66.7486 61.874V68.5532H66.7444C66.7486 69.9327 66.4071 71.2872 65.7578 72.5027C66.4198 73.2472 67.2125 73.8655 68.0937 74.3239C71.2306 75.9391 75.059 75.3208 77.5256 72.7971C80.7047 69.5585 80.7047 64.3766 77.5256 61.1337C74.941 58.484 70.8722 57.9456 67.6847 59.8383L66.7486 61.874ZM64.1177 62.9171H33.0144V68.5532C33.0102 70.0422 33.6005 71.4722 34.6461 72.5322C35.6749 73.5879 37.0915 74.1852 38.5672 74.1894H58.5529C60.0329 74.1852 61.4495 73.5879 62.4825 72.5322C63.5282 71.4722 64.1142 70.0422 64.1184 68.5532L64.1177 62.9171ZM49.0615 3.57415C49.0952 3.56153 49.1247 3.54892 49.1542 3.53209C49.1795 3.51947 49.2006 3.50685 49.2217 3.49003C49.2596 3.469 49.2976 3.44797 49.3355 3.42273L49.3988 3.37226C49.4325 3.34702 49.462 3.31338 49.4915 3.28814C49.6981 3.07784 49.833 2.80024 49.871 2.50582V2.43011C49.9089 1.8707 49.5927 1.34076 49.0741 1.11357L49.0783 1H48.5513H47.4972L47.2906 1.00421L47.0756 1.01262L46.869 1.02524L46.6539 1.03785L46.3504 1.05468L46.519 3.72556L46.7973 3.70873L46.9912 3.69612L47.1894 3.6835H47.5815L47.7755 3.67929L47.9736 3.67509H48.37H49.0657V3.57414L49.0615 3.57415ZM83.7957 39.6367C83.8632 38.7113 83.8969 37.7903 83.9011 36.8649H81.266C81.266 37.7187 81.2322 38.581 81.169 39.4348L83.7957 39.6367ZM82.1514 25.6938C81.8647 24.8106 81.5485 23.9441 81.1943 23.0861L78.7657 24.1207C79.0862 24.9157 79.3813 25.7191 79.6469 26.5308L82.1514 25.6938ZM80.0517 20.5667C79.6469 19.7507 79.1832 18.9222 78.7151 18.1398L76.4679 19.5488C76.9064 20.2681 77.3322 21.021 77.7032 21.7864L80.0517 20.5667ZM77.1931 15.8349C76.6618 15.0862 76.0885 14.3502 75.5024 13.652L73.4954 15.3849C74.0393 16.0327 74.5663 16.7099 75.0596 17.4038L77.1931 15.8349ZM73.6557 11.612C73.0064 10.9558 72.3444 10.3249 71.6487 9.71928L69.9327 11.7508C70.5736 12.3102 71.1807 12.8948 71.7836 13.5005L73.6557 11.612ZM69.5111 7.98635C68.7732 7.43536 68.0354 6.91801 67.2469 6.42593L65.8597 8.69302C66.5722 9.15148 67.2721 9.63518 67.9552 10.1442L69.5111 7.98635ZM64.8689 5.03789C64.0594 4.60887 63.2414 4.2135 62.3981 3.85174L61.3735 6.31653C62.1536 6.65722 62.9083 7.01894 63.663 7.41428L64.8689 5.03789ZM59.8388 2.87179C58.9745 2.57316 58.0974 2.31238 57.2162 2.08525L56.5754 4.68044C57.3933 4.89074 58.2028 5.1347 59.004 5.40389L59.8388 2.87179ZM54.5389 1.51745C54.3449 1.4796 54.1509 1.45015 53.957 1.42071C53.2487 1.30715 52.5361 1.21882 51.8235 1.15573L51.5874 3.81822C52.4264 3.89392 53.2697 4.00749 54.0961 4.14629L54.5389 1.51745ZM43.6318 1.34921L43.3451 1.39547L42.7379 1.49642L42.5313 1.52166L41.7218 1.67307L41.5194 1.71513L41.3212 1.75298L41.1189 1.79505L40.9418 1.84131L41.511 4.44909L41.6754 4.41124L41.8609 4.37339L42.0422 4.33553L42.4175 4.25982L42.603 4.22197L42.974 4.15467L43.1638 4.12943L43.3577 4.09579L43.5433 4.07055C43.6993 4.04531 43.851 4.02008 44.007 3.99905L43.6318 1.34921ZM38.2897 2.54376L37.9735 2.64049L37.7796 2.70779L37.5856 2.76668L37.3916 2.83397L37.1977 2.89706L37.0037 2.96857L36.8182 3.03166L36.6243 3.10316L36.4387 3.17046L36.2448 3.24196L36.0593 3.31767L35.8737 3.38917L35.7135 3.45226L36.6748 5.94645L37.0164 5.81607L37.1892 5.74456C37.4844 5.631 37.7753 5.53426 38.0704 5.42911L38.2475 5.37022L38.5975 5.25245C38.7577 5.20197 38.9179 5.15571 39.0781 5.10103L38.2897 2.54376ZM33.1964 4.56266L32.956 4.68044L32.7747 4.77297L32.0664 5.1431L31.8893 5.23984L31.7122 5.33238L31.3707 5.52586L31.1936 5.63101L31.0208 5.72775L30.7762 5.86655L32.1086 8.17144C32.2351 8.09994 32.3658 8.02423 32.4881 7.95693L32.8085 7.77187C32.9729 7.67934 33.1332 7.59101 33.2934 7.5069C33.6349 7.32182 33.9933 7.13676 34.3432 6.96431L33.1964 4.56266ZM28.4699 7.36394C28.3181 7.46488 28.1748 7.57424 28.0272 7.6836L27.867 7.79717L27.5465 8.03692L27.3863 8.15469L27.2303 8.27247L26.9141 8.51642L26.7581 8.6426L26.4503 8.89076L26.2816 9.02956L27.9513 11.099C28.3772 10.7415 28.8157 10.405 29.2669 10.0685C29.503 9.89603 29.7433 9.72359 29.9794 9.55535L28.4699 7.36394ZM24.2325 10.8592C24.1313 10.9517 24.0343 11.0442 23.9374 11.141L23.6591 11.4228L23.5157 11.5616L23.3766 11.7046L23.2417 11.8434L22.9634 12.1378L22.6978 12.4238L22.5586 12.5752L22.3183 12.8444L24.2704 14.6363L24.4981 14.3797C24.9957 13.8329 25.5058 13.3029 26.0413 12.794L24.2325 10.8592ZM20.5686 14.9811L20.4126 15.1788L20.2987 15.3428L20.1849 15.4984L19.388 16.6467L19.2742 16.8149C19.1772 16.9621 19.0886 17.1009 18.9917 17.2481L21.201 18.7035C21.3486 18.4721 21.5088 18.2366 21.6648 18.0053C21.9895 17.5342 22.3184 17.0673 22.6683 16.613L20.5686 14.9811ZM17.5708 19.6204L17.4148 19.9064L17.322 20.0872L17.1365 20.4448L17.0438 20.6256L16.951 20.8107L16.8582 20.9915L16.7739 21.1766L16.6896 21.3575L16.4366 21.9127L16.3396 22.123L18.7472 23.2123L18.8315 23.0272L18.9875 22.6865L19.2278 22.1818L19.3122 22.0136C19.3923 21.8453 19.4766 21.6855 19.5609 21.5173C19.6621 21.3154 19.7717 21.1177 19.8772 20.9158L17.5708 19.6204ZM15.3193 24.676L15.235 24.9158L15.1676 25.1051L14.9778 25.6855L14.9188 25.879L14.8556 26.0725L14.6785 26.6529L14.6194 26.8548L14.5646 27.0483L14.4887 27.3174L17.0354 28.0157L17.1493 27.5908L17.2547 27.2291L17.3137 27.0483L17.5414 26.3248C17.6004 26.1482 17.6552 25.9673 17.7227 25.7907L17.7986 25.5635L15.3193 24.676ZM13.8647 30.0262L13.8183 30.287L13.7803 30.4931L13.7466 30.6992L13.7087 30.9053L13.6707 31.1072L13.5695 31.7255L13.5442 31.9358L13.5189 32.1419L13.4936 32.3522L13.4683 32.5583L13.4473 32.7686L16.0614 33.0714L16.0867 32.8779L16.1289 32.491L16.1542 32.2975L16.1795 32.1082L16.2385 31.7254L16.2638 31.5362L16.3017 31.3343L16.4029 30.7665L16.4451 30.5225L13.8647 30.0262ZM14.1851 45.2019C14.3917 46.0978 14.6405 46.9979 14.923 47.877L17.4316 47.061C17.1702 46.2493 16.9426 45.4165 16.7486 44.5878L14.1851 45.2019ZM15.8548 50.489C16.0108 50.8886 16.1837 51.2839 16.3608 51.6751C16.5631 52.1294 16.7697 52.5752 16.989 53.0169L19.3417 51.8097C18.9622 51.0484 18.6123 50.2661 18.2918 49.4753L15.8548 50.489Z" stroke="black" stroke-width="0.1"/>
</svg>
