<svg width="88" height="88" viewBox="0 0 88 88" fill="none" xmlns="http://www.w3.org/2000/svg">
<path d="M25.7501 52.182V36.2809C25.7501 35.981 25.6154 35.6968 25.3833 35.5069L24.8891 35.1026C24.5776 34.8477 24.1437 34.8045 23.788 34.9928L22.25 35.807L19.9885 36.7592C19.9131 36.791 19.8419 36.8318 19.7765 36.8809L18.0572 38.1704C17.9373 38.2603 17.8391 38.376 17.7699 38.509L16.3961 41.1511C16.301 41.3339 16.2648 41.5416 16.2922 41.7458L17.0857 47.6404C17.1114 47.8307 17.1913 48.0097 17.316 48.1559L20.5668 51.9672C20.6866 52.1076 20.8429 52.2122 21.0185 52.2693L24.441 53.3816C25.0871 53.5915 25.7501 53.1099 25.7501 52.4305V52.182Z" fill="#DD0004" stroke="black"/>
<path fill-rule="evenodd" clip-rule="evenodd" d="M75.1838 72.6044H30.8619C30.2818 72.6044 29.8097 72.1322 29.8097 71.5521V16.451C29.8097 15.8708 30.2818 15.3987 30.8619 15.3987H75.1838C75.7639 15.3987 76.236 15.8709 76.236 16.451V71.5521C76.236 72.1322 75.7639 72.6013 75.1838 72.6013V72.6044ZM31.9142 70.5028H74.1347V17.5031H31.9142V70.5028Z" fill="black"/>
<path fill-rule="evenodd" clip-rule="evenodd" d="M75.322 83.4421H30.7221C27.59 83.4421 25.0441 80.8931 25.0441 77.7641V10.239C25.0441 7.10685 27.5931 4.5579 30.7221 4.5579H75.322C78.4541 4.5579 81 7.10685 81 10.239V77.7641C81 80.8931 78.4541 83.4421 75.322 83.4421ZM30.7221 6.66312C28.7502 6.66312 27.1456 8.26773 27.1456 10.2396V77.7647C27.1456 79.7366 28.7502 81.3412 30.7221 81.3412H75.322C77.2939 81.3412 78.8985 79.7366 78.8985 77.7647V10.2428C78.8985 8.27089 77.2939 6.66628 75.322 6.66628H30.7221V6.66312Z" fill="black"/>
<path fill-rule="evenodd" clip-rule="evenodd" d="M62.3063 78.0228H43.7386C43.1584 78.0228 42.6863 77.5507 42.6863 76.9706C42.6863 76.3905 43.1585 75.9183 43.7386 75.9183H62.3063C62.8864 75.9183 63.3585 76.3905 63.3585 76.9706C63.3585 77.5507 62.8864 78.0228 62.3063 78.0228Z" fill="black"/>
<path fill-rule="evenodd" clip-rule="evenodd" d="M64.4235 12.0814H49.5158C48.9356 12.0814 48.4635 11.6093 48.4635 11.0292C48.4635 10.4491 48.9356 9.97693 49.5158 9.97693H64.4235C65.0036 9.97693 65.4757 10.4491 65.4757 11.0292C65.4757 11.6093 65.0036 12.0814 64.4235 12.0814Z" fill="black"/>
<path fill-rule="evenodd" clip-rule="evenodd" d="M42.4984 12.0814H41.622C41.0419 12.0814 40.5698 11.6093 40.5698 11.0292C40.5698 10.4491 41.0419 9.97693 41.622 9.97693H42.4984C43.0786 9.97693 43.5507 10.4491 43.5507 11.0292C43.5507 11.6093 43.0816 12.0814 42.4984 12.0814Z" fill="black"/>
<path fill-rule="evenodd" clip-rule="evenodd" d="M47.3986 50.9755C47.1301 50.9755 46.8616 50.8737 46.6549 50.6669L40.946 44.958C40.5356 44.5476 40.5356 43.8811 40.946 43.4707L46.6549 37.7618C47.0653 37.3514 47.7319 37.3514 48.1422 37.7618C48.5527 38.1722 48.5527 38.8388 48.1422 39.2492L43.174 44.2174L48.1422 49.1857C48.5527 49.5961 48.5527 50.2627 48.1422 50.6731C47.9386 50.8767 47.6701 50.9786 47.3986 50.9786L47.3986 50.9755Z" fill="black"/>
<path fill-rule="evenodd" clip-rule="evenodd" d="M58.6464 50.9755C58.3779 50.9755 58.1094 50.8736 57.9027 50.6669C57.4922 50.2565 57.4922 49.5899 57.9027 49.1795L62.8709 44.2113L57.9027 39.243C57.4922 38.8326 57.4922 38.166 57.9027 37.7556C58.3131 37.3452 58.9796 37.3452 59.39 37.7556L65.0989 43.4645C65.5093 43.8749 65.5093 44.5415 65.0989 44.9519L59.39 50.6607C59.1864 50.8675 58.9148 50.9693 58.6463 50.9693L58.6464 50.9755Z" fill="black"/>
<path fill-rule="evenodd" clip-rule="evenodd" d="M50.6265 52.9718C50.5247 52.9718 50.4229 52.9563 50.321 52.9255C49.7656 52.7557 49.4508 52.1694 49.6205 51.6139L54.4129 35.7772C54.5795 35.2218 55.1689 34.907 55.7244 35.0767C56.2799 35.2465 56.5946 35.8328 56.4249 36.3882L51.6325 52.225C51.4937 52.6786 51.077 52.9718 50.6265 52.9718Z" fill="black"/>
<path fill-rule="evenodd" clip-rule="evenodd" d="M68.2928 24.2275H37.749C37.1688 24.2275 36.6967 23.7554 36.6967 23.1753C36.6967 22.5952 37.1689 22.123 37.749 22.123H68.2928C68.8729 22.123 69.345 22.5952 69.345 23.1753C69.345 23.7554 68.8729 24.2275 68.2928 24.2275Z" fill="black"/>
<path fill-rule="evenodd" clip-rule="evenodd" d="M68.2928 29.8901H37.749C37.1688 29.8901 36.6967 29.418 36.6967 28.8379C36.6967 28.2577 37.1689 27.7856 37.749 27.7856H68.2928C68.8729 27.7856 69.345 28.2577 69.345 28.8379C69.345 29.418 68.8729 29.8901 68.2928 29.8901Z" fill="black"/>
<path fill-rule="evenodd" clip-rule="evenodd" d="M68.2928 60.2175H37.749C37.1688 60.2175 36.6967 59.7453 36.6967 59.1652C36.6967 58.5851 37.1689 58.113 37.749 58.113H68.2928C68.8729 58.113 69.345 58.5851 69.345 59.1652C69.345 59.7454 68.8729 60.2175 68.2928 60.2175Z" fill="black"/>
<path fill-rule="evenodd" clip-rule="evenodd" d="M68.2928 65.8769H37.749C37.1688 65.8769 36.6967 65.4047 36.6967 64.8246C36.6967 64.2445 37.1689 63.7724 37.749 63.7724H68.2928C68.8729 63.7724 69.345 64.2445 69.345 64.8246C69.345 65.4047 68.8729 65.8769 68.2928 65.8769Z" fill="black"/>
<path fill-rule="evenodd" clip-rule="evenodd" d="M26.0937 67.8708H19.8448C19.2647 67.8708 18.7926 67.3987 18.7926 66.8185V59.5637C17.7372 59.0915 16.7312 58.5176 15.7869 57.8418L9.51646 61.4614C9.01346 61.7515 8.37162 61.5787 8.08154 61.0757L2.14128 50.7902C2.00242 50.5495 1.96538 50.2625 2.03636 49.994C2.10734 49.7256 2.28632 49.4941 2.52701 49.3553L8.75427 45.7602C8.63392 44.5845 8.63392 43.4057 8.75427 42.2393L2.52701 38.6442C2.28631 38.5054 2.11043 38.2739 2.03636 38.0055C1.96539 37.737 2.00242 37.45 2.14128 37.2093L8.08154 26.9238C8.2204 26.6831 8.45184 26.5072 8.72031 26.4331C8.98878 26.3621 9.27576 26.3992 9.51645 26.538L15.7992 30.1639C16.7373 29.4912 17.7402 28.9172 18.7926 28.4451V21.1809C18.7926 20.6008 19.2647 20.1287 19.8448 20.1287H26.0937C26.6739 20.1287 27.146 20.6008 27.146 21.1809V66.8181C27.146 67.4013 26.6769 67.8708 26.0937 67.8708ZM20.8972 65.7693H25.0415V22.2343H20.8972V29.1466C20.8972 29.5786 20.6349 29.9644 20.2337 30.1248C18.9006 30.6525 17.6539 31.3684 16.5214 32.251C16.182 32.5133 15.7191 32.5472 15.3488 32.3343L9.37763 28.8874L4.48962 37.352L10.4114 40.7711C10.7848 40.9871 10.9885 41.4068 10.9267 41.8358C10.7169 43.2645 10.7169 44.7241 10.9267 46.1776C10.9884 46.6034 10.7848 47.0231 10.4114 47.2392L4.48962 50.6552L9.37763 59.1198L15.3364 55.6791C15.7068 55.4662 16.1727 55.497 16.5091 55.7624C17.6447 56.648 18.8975 57.367 20.2306 57.8916C20.6318 58.049 20.8941 58.4378 20.8941 58.8699V65.7699L20.8972 65.7693Z" fill="black"/>
<path fill-rule="evenodd" clip-rule="evenodd" d="M25.7635 54.4593C20.2953 54.4593 15.8058 50.3643 15.3208 44.9361C15.0739 42.1527 15.9287 39.4402 17.7308 37.2955C19.5299 35.1539 22.0603 33.8362 24.853 33.5863C25.2819 33.5492 25.7047 33.5369 26.1244 33.5492C26.6922 33.5678 27.1427 34.0306 27.1427 34.6015V53.4038C27.1427 53.9685 26.6922 54.4345 26.1275 54.4561C26.0071 54.4592 25.8837 54.4622 25.7602 54.4622L25.7635 54.4593ZM25.0414 35.6815C22.8073 35.882 20.783 36.9343 19.3419 38.647C17.9039 40.3596 17.2188 42.5259 17.4163 44.7477C17.7804 48.8458 21.0021 51.9872 25.0414 52.3267V35.6815Z" fill="black"/>
<path d="M38.0743 11.0292C38.0743 10.2353 38.7179 9.59168 39.5118 9.59168H42.5625C43.3564 9.59168 44 10.2353 44 11.0292V11.0292C44 11.8231 43.3564 12.4667 42.5625 12.4667H39.5118C38.7179 12.4667 38.0743 11.8231 38.0743 11.0292V11.0292Z" fill="#DD0004"/>
</svg>
