<svg width="84" height="83" viewBox="0 0 84 83" fill="none" xmlns="http://www.w3.org/2000/svg">
<path d="M36.6639 34.1071L38.192 30.0322C38.8711 29.6926 40.3313 28.4022 44.8137 30.0322C45.2212 30.8472 46.6814 32.0696 46.8512 32.0696V35.6352C46.3418 36.6539 46.8512 36.6539 45.8324 40.2195C47.3605 40.2195 46.8512 41.7475 50.4167 43.785C51.9448 45.3131 50.9261 44.8037 51.9448 48.3693V49.388C51.6052 49.388 50.8242 49.5918 50.4167 50.4068C49.9074 51.4255 48.8886 50.4068 45.8324 50.9161H43.2856H40.7388H38.192C37.1732 50.9161 36.6639 51.4255 35.1358 50.9161L33.6077 50.4068L32.0796 49.388V47.3506L32.589 45.8225L33.6077 43.785L36.6639 42.2569L39.2107 40.2195L38.192 38.6914L36.6639 36.6539V34.1071Z" fill="#DD0004"/>
<path d="M41.817 25.4052C32.7726 25.4052 25.546 32.6433 25.546 41.5693C25.546 50.6137 32.784 57.8403 41.817 57.8403C50.743 57.8403 57.9811 50.6023 57.9811 41.5693C57.9811 32.6433 50.743 25.4052 41.817 25.4052ZM63.6268 49.5918C64.0783 48.3438 66.0037 49.0213 65.5522 50.2692C62.3908 58.8622 54.8199 65.0784 45.8825 66.5403C45.6566 68.6916 43.8501 70.2721 41.6988 70.2721C39.5475 70.2721 37.741 68.6913 37.5151 66.5403C28.5891 65.0664 21.0187 58.8508 17.8454 50.2692C17.3938 49.0213 19.3192 48.3438 19.7708 49.5918C22.5995 57.5073 29.4926 63.153 37.6221 64.6263C38.1926 62.9268 39.7734 61.6906 41.6868 61.6906C43.6122 61.6906 45.193 62.9385 45.7515 64.6263C53.9045 63.1644 60.7982 57.5072 63.6271 49.5918H63.6268ZM41.6986 63.7235C40.4507 63.7235 39.4404 64.7455 39.4404 65.9818C39.4404 67.2297 40.4624 68.2401 41.6986 68.2401C42.9466 68.2401 43.9569 67.218 43.9569 65.9818C43.9566 64.7455 42.9466 63.7235 41.6986 63.7235ZM33.7945 20.0925L35.601 19.4151L34.9235 17.4897L33.1171 18.1671L33.7945 20.0925ZM50.743 20.0925L48.9366 19.4151L49.614 17.4897L51.4205 18.1671L50.743 20.0925ZM63.8521 34.2242L63.1747 32.4178L65.1001 31.7403L65.7775 33.5468L63.8521 34.2242ZM62.2716 30.6111L61.2493 28.9116L63.0557 27.8895L64.0778 29.589L62.2716 30.6111ZM60.1203 27.2238L58.8724 25.7499L60.4532 24.502L61.7011 25.9758L60.1203 27.2238ZM57.4105 24.3953L55.9366 23.0404L57.1846 21.5665L58.7654 22.8145L57.4105 24.3953ZM54.2491 21.9111L52.5496 20.8891L53.5717 19.1896L55.2711 20.2116L54.2491 21.9111ZM20.6851 34.2244L21.3626 32.4179L19.5561 31.7405L18.7597 33.5469L20.6851 34.2244ZM22.2659 30.6112L23.288 28.9117L21.4815 27.8897L20.4595 29.5892L22.2659 30.6112ZM24.4053 27.2239L25.6532 25.7501L24.1794 24.5021L22.8245 25.976L24.4053 27.2239ZM27.1268 24.3954L28.6007 23.0405L27.3527 21.5667L25.8789 22.8146L27.1268 24.3954ZM30.2884 21.9112L31.9879 20.8892L30.9659 19.1897L29.2664 20.2118L30.2884 21.9112ZM41.8166 29.7084C39.1068 29.7084 36.9555 31.8597 36.9555 34.5695C36.9555 37.1724 39.1068 39.3117 41.8166 39.3117C44.4194 39.3117 46.5588 37.1604 46.5588 34.5695C46.5588 31.8477 44.4078 29.7084 41.8166 29.7084ZM41.8166 27.676C45.5484 27.676 48.6031 30.7304 48.6031 34.5695C48.6031 36.7208 47.5811 38.6343 46.0003 39.8822C48.936 40.6786 50.9684 42.2591 52.1094 44.0659C54.8192 48.4752 51.5389 52.4328 46.5708 52.4328H36.9673C31.9992 52.4328 28.7187 48.4751 31.5477 44.0659C32.5697 42.2594 34.6021 40.6786 37.6567 39.8822C35.9572 38.6343 34.9469 36.7208 34.9469 34.5695C34.9232 30.7184 37.9657 27.676 41.8165 27.676H41.8166ZM33.2236 45.0759C31.1912 48.2373 33.6752 50.3886 36.9555 50.3886H46.5589C49.9462 50.3886 52.3231 48.2373 50.3977 45.0759C47.3553 40.1078 36.2781 40.1078 33.2239 45.0759H33.2236ZM34.8044 10.157C35.3749 10.0381 35.9334 10.3829 36.0524 10.8345C36.1713 11.405 35.8265 11.9635 35.256 12.0824C29.4918 13.3304 24.2976 16.1472 20.3398 20.224C16.2751 24.1818 13.4463 29.3754 12.1982 35.0332C12.0793 35.6037 11.5208 35.9366 10.9503 35.8296C10.3798 35.7107 10.0469 35.1521 10.1539 34.7006C11.5088 28.4846 14.6702 23.0648 18.9729 18.7626C23.1686 14.5666 28.7069 11.3933 34.804 10.1575L34.8044 10.157ZM48.2587 12.0705C47.6882 11.9515 47.3553 11.393 47.4623 10.8225C47.5812 10.371 48.1398 10.0261 48.7102 10.1451C54.8193 11.393 60.2391 14.5544 64.5292 18.738C68.8198 23.0287 71.8742 28.4599 73.2291 34.6761C73.3481 35.1276 73.0032 35.6981 72.5517 35.8051C71.9812 35.924 71.4227 35.5792 71.3037 35.0087C70.0558 29.3631 67.12 24.1573 63.1621 20.1995C59.1094 16.147 54.0229 13.3183 48.2581 12.07L48.2587 12.0705ZM71.1966 48.6887C71.3156 48.1182 71.8741 47.7853 72.4446 47.8923C72.8961 48.0112 73.241 48.5698 73.122 49.1402C71.6482 55.4749 68.2609 61.1205 63.5186 65.4113C59.0023 69.595 53.3446 72.4235 47.0222 73.4338L42.6129 81.8007C42.2683 82.5971 41.2579 82.5971 40.9134 81.8007L36.5041 73.4338C30.1694 72.4118 24.5238 69.595 20.0077 65.4113C15.2655 61.1206 11.8661 55.4634 10.2858 49.1402C10.1669 48.5698 10.5117 48.0112 11.0822 47.8923C11.6527 47.7734 12.1043 48.1182 12.3302 48.6887C13.6851 54.6788 16.9654 59.8724 21.2562 63.9493C25.6655 67.907 31.2041 70.6169 37.3012 71.5204C37.7527 71.6393 37.9786 71.8649 38.0976 72.0909L41.7108 79.21L45.4426 72.0909C45.5616 71.8649 45.8942 71.6393 46.239 71.5204C52.3481 70.617 57.8749 67.9072 62.1771 63.9493C66.5618 59.8845 69.8423 54.6788 71.1972 48.6887H71.1966ZM69.0573 8.45784L68.3798 14.8995L74.8215 14.6736L73.9181 13.7702C73.5736 13.3187 73.5736 12.7482 74.0371 12.2964L80.3718 6.42518C80.8233 6.08061 81.0492 5.62878 81.0492 5.07027C81.0492 3.94128 80.1459 3.14487 79.1238 3.03791C78.6723 3.03791 78.2205 3.26382 77.7689 3.6084L71.3273 9.47958C70.9827 9.82416 70.3052 9.82416 69.9724 9.47958L69.0573 8.45784ZM69.0573 74.8007L68.3798 68.359L74.8215 68.478L73.9181 69.5C73.5736 69.9515 73.5736 70.522 74.0371 70.8549L80.3718 76.845C80.8233 77.1896 81.0492 77.6414 81.0492 78.1999C81.0492 79.3289 80.1459 80.1253 79.1238 80.1253C78.6723 80.1253 78.2205 80.0064 77.7689 79.6738L71.3273 73.8026C70.9827 73.3511 70.3052 73.458 69.9724 73.8026L69.0573 74.8007ZM66.3358 67.4556L67.3578 77.1775C67.3578 77.9739 68.4868 78.3065 69.0573 77.748L70.7568 75.9415L76.4023 81.1352C77.0798 81.8127 78.1018 82.1573 79.2311 82.1573C81.3824 82.0383 83.0699 80.2319 82.963 78.0925C82.963 77.0705 82.5114 76.0602 81.715 75.3827L76.0695 70.189L77.7689 68.2636C78.4464 67.6931 77.9949 66.6828 77.0915 66.5641L67.3696 66.3382C66.6805 66.3265 66.3359 66.778 66.3359 67.4555L66.3358 67.4556ZM66.3358 15.8029L67.3578 6.08104C67.3578 5.17767 68.4868 4.83309 69.0573 5.51055L70.7568 7.317L76.4023 2.12327C77.0798 1.44582 78.1018 0.994275 79.2311 1.10124C81.3824 1.10124 83.0699 2.90769 82.963 5.16597C82.963 6.188 82.5114 7.09137 81.715 7.87579L76.0695 13.0695L77.7689 14.9949C78.4464 15.5654 77.9949 16.5757 77.0915 16.5757L67.3696 16.9203C66.6805 16.932 66.3359 16.3735 66.3359 15.803L66.3358 15.8029ZM14.457 8.45784L15.1344 14.8995L8.69274 14.6736L9.5961 13.7702C9.94068 13.3187 9.94068 12.7482 9.5961 12.2964L3.16584 6.42547C2.82126 6.08062 2.59535 5.62907 2.59535 5.07056C2.4764 3.94156 3.39175 3.14516 4.52075 3.03819C4.97229 3.03819 5.42412 3.26411 5.87566 3.60868L12.2104 9.47987C12.6619 9.82444 13.2324 9.82444 13.5653 9.47987L14.457 8.45784ZM14.457 74.8007L15.1344 68.359L8.69274 68.478L9.5961 69.5C9.94068 69.9515 9.94068 70.522 9.5961 70.8549L3.15443 76.845C2.80986 77.1896 2.58394 77.6414 2.58394 78.1999C2.46499 79.3289 3.38034 80.1253 4.50934 80.1253C4.96088 80.1253 5.41271 80.0064 5.86425 79.6738L12.199 73.8026C12.6505 73.3511 13.221 73.458 13.5539 73.8026L14.457 74.8007ZM17.2854 67.4556L16.2634 77.1775C16.1445 77.9739 15.1344 78.3065 14.5639 77.748L12.7575 75.9415L7.21888 81.1352C6.42248 81.8127 5.41243 82.1573 4.39011 82.1573C2.13183 82.0383 0.432343 80.2319 0.55129 78.0925C0.55129 77.0705 1.00283 76.0602 1.79923 75.3827L7.44479 70.189L5.74531 68.2636C5.17482 67.6931 5.62636 66.6828 6.42276 66.5641L16.2516 66.3382C16.8338 66.3265 17.2853 66.778 17.2853 67.4555L17.2854 67.4556ZM17.2854 15.8029L16.2634 6.08104C16.1445 5.17767 15.1344 4.83309 14.5639 5.51055L12.7575 7.317L7.23057 2.13497C6.43446 1.44553 5.42412 0.99399 4.40209 1.11294C2.14381 1.11294 0.444324 2.91939 0.563271 5.17767C0.563271 6.1997 1.01481 7.10307 1.81121 7.88749L7.45677 13.0812L5.75729 15.0066C5.1868 15.5771 5.63834 16.5874 6.43474 16.5874L16.2635 16.932C16.8338 16.932 17.2853 16.3735 17.2853 15.803L17.2854 15.8029ZM49.0431 14.8995L42.4825 22.2446C42.1379 22.6961 41.4605 22.6961 41.0086 22.2446L34.567 14.8995C33.9965 14.329 34.448 13.2 35.3634 13.2H37.8473V7.43552C37.8473 5.28421 39.6537 3.47775 41.805 3.47775C43.9564 3.47775 45.7628 5.28421 45.7628 7.43552V13.1997H48.2467C48.9362 13.2 49.8392 13.7705 49.0431 14.8995ZM41.8165 20.0932L46.0001 15.2321H44.7522C44.1817 15.2321 43.7302 14.7806 43.7302 14.2101V7.43552C43.7302 6.30652 42.8268 5.40315 41.8048 5.40315C40.6758 5.40315 39.7724 6.30652 39.7724 7.43552V14.2221C39.7724 14.7925 39.3208 15.2441 38.7504 15.2441H37.5024L41.8165 20.0932ZM15.0277 34.451L22.3728 40.8927C22.8243 41.2373 22.9433 41.9147 22.3728 42.3665L15.1347 48.8082C14.4572 49.3787 13.4352 48.9272 13.4352 48.1308V45.5279H7.56374C5.41243 45.5279 3.60597 43.7215 3.60597 41.5701C3.60597 39.4188 5.41243 37.6124 7.56374 37.6124H13.4349V35.1285C13.328 34.5697 13.8984 33.5476 15.0277 34.451ZM20.2215 41.5701L15.3603 37.3865V38.6344C15.3603 39.2049 14.9088 39.6564 14.3383 39.6564L7.56374 39.6567C6.54171 39.6567 5.63834 40.5601 5.63834 41.5821C5.63834 42.7111 6.54171 43.6145 7.56374 43.6145H14.3503C14.9208 43.6145 15.3723 44.066 15.3723 44.6365V45.8845L20.2215 41.5701ZM68.4869 48.8082L61.1419 42.3665C60.6904 42.022 60.6904 41.2375 61.1419 40.8927L68.4869 34.451C69.0574 33.7736 70.1864 34.2251 70.1864 35.1285V37.6124H75.9507C78.102 37.6124 79.9084 39.4188 79.9084 41.5701C79.9084 43.8284 78.2089 45.5279 75.9507 45.5279H70.1864V48.1308C70.1867 48.6893 69.6162 49.7116 68.4869 48.8082ZM63.2932 41.5701L68.1544 45.8608V44.5059C68.1544 43.9354 68.6059 43.6025 69.1764 43.6025H75.9629C77.0919 43.6025 77.9953 42.6991 77.9953 41.5701C77.9953 40.5481 77.0919 39.6447 75.9629 39.6447H69.1764C68.6059 39.6447 68.1544 39.1932 68.1544 38.6227V37.3748L63.2932 41.5701ZM41.8165 23.3737C51.8713 23.3737 60.0129 31.5153 60.0129 41.5701C60.0129 51.625 51.8713 59.885 41.8165 59.885C31.7616 59.885 23.5016 51.6364 23.5016 41.5701C23.5016 31.5153 31.7502 23.3737 41.8165 23.3737Z" fill="black" stroke="black" stroke-width="0.5"/>
</svg>
