<svg width="163" height="164" viewBox="0 0 163 164" fill="none" xmlns="http://www.w3.org/2000/svg">
<g clip-path="url(#clip0_46_259)">
<path d="M82.1031 82.1396L82.1038 82.1367C82.9719 78.3223 82.1908 75.451 80.4166 73.3704L80.4164 73.3702C77.9295 70.4585 73.304 69.3008 68.911 69.909C64.5449 70.4955 60.2805 72.7412 58.2955 76.3542C56.9086 78.826 56.612 81.9558 58.0902 85.6097C59.7565 89.7951 63.2543 92.1715 67.3893 93.3155C68.7486 93.7155 70.1151 93.9158 71.5221 94.0423C70.6559 95.0853 69.7809 96.1359 68.8935 97.1964C65.3735 101.135 61.2785 104.807 57.0473 107.968L57.0434 107.971C51.5144 112.217 45.4833 115.387 38.8288 117.459L38.8139 117.464L38.7995 117.469C38.0487 117.774 37.5985 118.625 37.8391 119.424L37.8393 119.424C38.0863 120.239 38.9521 120.656 39.7666 120.451L39.7768 120.449L39.7869 120.445C46.7844 118.257 53.1587 114.951 58.9681 110.475L58.9694 110.474C63.2856 107.118 67.6061 103.382 71.2237 99.2235L71.2264 99.2203C72.66 97.5339 74.069 95.8665 75.4032 94.1445C78.987 93.9965 82.4949 93.2952 85.23 92.3835L85.23 92.3835L85.2359 92.3814C94.4109 89.1518 102.257 81.9181 108.673 73.3788C115.092 64.8364 120.104 54.9553 123.602 46.3759C123.937 45.5949 123.578 44.7185 122.786 44.3903L122.785 44.3901C121.978 44.0569 121.102 44.4744 120.774 45.2348L120.774 45.2348L120.771 45.2415C117.397 53.5047 112.61 63.0364 106.48 71.2658C100.347 79.4996 92.8957 86.3966 84.2032 89.4447C82.374 90.0858 80.1049 90.5906 77.7167 90.8697C77.8545 90.6434 77.9819 90.4133 78.1046 90.1916L78.1049 90.1911C78.1722 90.0844 78.2402 89.9768 78.3088 89.8683C79.7607 87.5708 81.4534 84.8922 82.1031 82.1396ZM75.4607 88.5945L75.4606 88.5945L75.4564 88.6018C74.9605 89.4804 74.4092 90.2945 73.8007 91.0475C71.9056 91.0584 70.0059 90.8474 68.212 90.3246L68.2121 90.3245L68.2032 90.3221C64.9745 89.4662 62.2333 87.6528 60.9278 84.4183C59.8754 81.7815 60.0745 79.6061 61.0266 77.8674L61.0293 77.8623C62.4868 75.0992 65.8515 73.4589 69.3456 73.0053L69.3456 73.0054L69.3523 73.0044C72.7572 72.4993 76.2294 73.2304 78.1092 75.4334C79.2613 76.7845 79.7421 78.7572 79.1165 81.4695C78.809 82.6914 78.2366 83.9032 77.5658 85.0996C77.1471 85.8464 76.7011 86.5688 76.261 87.2819C75.9894 87.7218 75.7201 88.1582 75.4607 88.5945Z" fill="white" stroke="white" stroke-width="0.75"/>
<path d="M122.291 45.7898C122.278 46.21 122.224 46.6754 122.166 47.1656L122.166 47.1656L122.165 47.1729C122.126 47.5734 122.079 47.9591 122.033 48.3385C121.999 48.6102 121.967 48.8787 121.938 49.147C121.87 49.7687 121.824 50.366 121.864 50.8741C122.242 56.5645 122.769 63.4588 124.957 68.8642C125.253 69.6356 126.17 70.0224 126.954 69.6972C127.721 69.3793 128.162 68.5247 127.795 67.6701C125.855 62.8227 125.384 56.6096 124.973 51.1737C124.959 50.9955 124.946 50.8181 124.933 50.6417C124.915 50.1914 124.971 49.5757 125.055 48.8803C125.089 48.6015 125.127 48.3075 125.166 48.0102C125.223 47.5816 125.28 47.1461 125.325 46.7392L125.325 46.7392L125.326 46.7282C125.423 45.5144 125.398 44.337 124.996 43.4239C124.735 42.7342 123.822 42.1497 122.491 42.4285L122.491 42.4284L122.481 42.4306C121.59 42.6406 120.203 43.3186 119.028 43.9419C118.433 44.2579 117.879 44.5671 117.451 44.8087C117.307 44.8899 117.179 44.9623 117.07 45.0244C116.847 45.1512 116.699 45.235 116.642 45.2635L116.641 45.264C112.808 47.2109 109.485 48.7615 105.265 47.687L105.257 47.685L105.249 47.6834C104.445 47.5153 103.654 48.0391 103.381 48.7432L103.372 48.766L103.366 48.7897C103.166 49.6092 103.68 50.4895 104.498 50.6646C109.601 51.9421 113.734 50.2741 118.083 48.0231L118.12 48.0042L118.151 47.9778C118.151 47.9778 118.152 47.9771 118.154 47.9754L118.163 47.9688C118.17 47.9632 118.18 47.956 118.193 47.9471C118.218 47.9293 118.251 47.9069 118.292 47.8799C118.374 47.8261 118.482 47.7572 118.613 47.6767C118.875 47.5157 119.222 47.3109 119.616 47.0903C120.399 46.6518 121.356 46.1577 122.193 45.8201C122.227 45.8112 122.26 45.8009 122.291 45.7898Z" fill="white" stroke="white" stroke-width="0.75"/>
</g>
<defs>
<clipPath id="clip0_46_259">
<rect width="115.304" height="115.304" fill="white" transform="translate(88.9663 0.767578) rotate(50.1165)"/>
</clipPath>
</defs>
</svg>
