<svg width="200" height="200" viewBox="0 0 200 200" fill="none" xmlns="http://www.w3.org/2000/svg">
<path d="M181.304 52.8378L181.323 52.8872L181.346 52.9353L181.385 53.018C181.943 54.4269 182.233 55.9232 182.241 57.4337V184.055C182.233 190.778 176.786 196.228 170.073 196.235H54.1139C47.3925 196.228 41.9538 190.779 41.9461 184.055V179.418V177.668H40.1961H30.9177C24.2047 177.661 18.7581 172.212 18.75 165.49V16.9286C18.7581 10.2067 24.2042 4.7581 30.917 4.75H146.878C153.598 4.75809 159.037 10.2065 159.045 16.9295V24.9359V25.7743L159.698 26.2997C160.225 26.723 160.722 27.2034 161.18 27.7206L179.41 49.6253C179.411 49.6273 179.413 49.6292 179.415 49.6312C180.204 50.5974 180.841 51.676 181.304 52.8378ZM169.449 51.1718H173.184L170.794 48.3018L157.504 32.3459L154.409 28.6306V33.466V49.4218V51.1718H156.159H169.449ZM153.273 16.9272L153.273 16.9212C153.261 13.405 150.416 10.5377 146.879 10.5377H30.9158C27.391 10.5377 24.5301 13.403 24.5301 16.9272V165.49C24.5301 169.014 27.3904 171.88 30.9154 171.88H44.8313C45.5953 171.88 46.3322 172.184 46.8723 172.725C47.4128 173.265 47.7172 174.004 47.7172 174.769L47.7172 184.057L47.7172 184.063C47.7291 187.58 50.5747 190.447 54.1115 190.447H170.074C173.599 190.447 176.46 187.582 176.46 184.057V58.7098V56.9598H174.71H156.162C152.004 56.9528 148.636 53.5832 148.629 49.4188V30.8547V29.1047H146.879H54.1115C50.5747 29.1047 47.7291 31.9721 47.7172 35.4883V35.4943V137.635C47.7172 139.232 46.4272 140.525 44.8315 140.525C43.2359 140.525 41.9458 139.232 41.9458 137.635V35.4963C41.9534 28.7734 47.3914 23.3252 54.1121 23.3168C54.1126 23.3168 54.1132 23.3168 54.1137 23.3168L151.523 23.3168H153.273V21.5668L153.273 16.9272Z" stroke="#DD0004" stroke-width="3.5"/>
<path d="M122.293 72.9948H150.565C153.906 72.9948 156.615 75.7032 156.615 79.0442C156.615 82.3852 153.906 85.0936 150.565 85.0936H122.293C118.952 85.0936 116.243 82.3852 116.243 79.0442C116.243 75.7032 118.952 72.9948 122.293 72.9948Z" stroke="#DD0004" stroke-width="3.5"/>
<path d="M122.293 112.967H150.565C153.906 112.967 156.615 115.675 156.615 119.016C156.615 122.357 153.906 125.066 150.565 125.066H122.293C118.952 125.066 116.243 122.357 116.243 119.016C116.243 115.675 118.952 112.967 122.293 112.967Z" stroke="#DD0004" stroke-width="3.5"/>
<path d="M122.293 152.939H150.565C153.906 152.939 156.615 155.647 156.615 158.988C156.615 162.329 153.906 165.038 150.565 165.038H122.293C118.952 165.038 116.243 162.329 116.243 158.988C116.243 155.647 118.952 152.939 122.293 152.939Z" stroke="#DD0004" stroke-width="3.5"/>
<path d="M74.9676 91.6578L74.9666 91.6569L67.7523 84.603C67.7512 84.602 67.7501 84.6009 67.7491 84.5998C66.1065 82.9724 66.1162 80.3767 67.7546 78.7801L67.7576 78.7771C69.4284 77.1408 72.1441 77.1375 73.8069 78.7567C73.8074 78.7571 73.8078 78.7575 73.8082 78.7579L76.7727 81.6611L77.9971 82.8602L79.2216 81.6611L91.8082 69.335C91.8091 69.3341 91.8101 69.3332 91.811 69.3323C93.4876 67.709 96.1931 67.717 97.8619 69.3513L99.0863 68.101L97.8619 69.3513C99.4992 70.9547 99.5064 73.5517 97.8714 75.1619C97.871 75.1623 97.8706 75.1628 97.8701 75.1632L81.0269 91.6577C80.2234 92.4444 79.1389 92.893 77.9971 92.893C76.8648 92.893 75.7695 92.4432 74.9676 91.6578Z" stroke="#DD0004" stroke-width="3.5"/>
<path d="M74.9676 130.288L74.9666 130.287L67.7523 123.233C67.7512 123.232 67.7501 123.231 67.7491 123.23C66.1065 121.602 66.1162 119.007 67.7546 117.41L67.7576 117.407C69.4284 115.771 72.1441 115.767 73.8069 117.387C73.8074 117.387 73.8078 117.387 73.8082 117.388L76.7727 120.291L77.9971 121.49L79.2216 120.291L91.8082 107.965C91.8091 107.964 91.8101 107.963 91.811 107.962C93.4876 106.339 96.1931 106.347 97.8619 107.981L99.0863 106.731L97.8619 107.981C99.4992 109.584 99.5064 112.182 97.8714 113.792C97.871 113.792 97.8706 113.793 97.8701 113.793L81.0269 130.288C80.2234 131.074 79.1389 131.523 77.9971 131.523C76.8648 131.523 75.7695 131.073 74.9676 130.288Z" stroke="#DD0004" stroke-width="3.5"/>
<path d="M74.9676 170.288L74.9666 170.287L67.7523 163.233C67.7512 163.232 67.7501 163.231 67.7491 163.23C66.1065 161.602 66.1162 159.007 67.7546 157.41L67.7576 157.407C69.4284 155.771 72.1441 155.767 73.8069 157.387C73.8074 157.387 73.8078 157.387 73.8082 157.388L76.7727 160.291L77.9971 161.49L79.2216 160.291L91.8082 147.965C91.8091 147.964 91.8101 147.963 91.811 147.962C93.4876 146.339 96.1931 146.347 97.8619 147.981L99.0863 146.731L97.8619 147.981C99.4992 149.584 99.5064 152.182 97.8714 153.792C97.871 153.792 97.8706 153.793 97.8701 153.793L81.0269 170.288C80.2234 171.074 79.1389 171.523 77.9971 171.523C76.8648 171.523 75.7695 171.073 74.9676 170.288Z" stroke="#DD0004" stroke-width="3.5"/>
<path d="M75.549 49.4217C75.549 50.4949 75.1644 51.1707 74.6868 51.5958C74.1772 52.0493 73.4486 52.3134 72.6632 52.3134C71.8777 52.3134 71.1491 52.0493 70.6395 51.5958C70.1619 51.1707 69.7773 50.4949 69.7773 49.4217C69.7773 48.3486 70.1619 47.6727 70.6395 47.2477C71.1491 46.7941 71.8777 46.53 72.6632 46.53C73.4486 46.53 74.1772 46.7941 74.6868 47.2477C75.1644 47.6727 75.549 48.3486 75.549 49.4217Z" stroke="#DD0004" stroke-width="3.5"/>
<path d="M94.1104 49.4217C94.1104 50.4943 93.7257 51.17 93.2475 51.5952C92.7371 52.049 92.0072 52.3134 91.2202 52.3134C90.4332 52.3134 89.7033 52.049 89.193 51.5952C88.7148 51.17 88.3301 50.4943 88.3301 49.4217C88.3301 48.3492 88.7148 47.6734 89.193 47.2482C89.7033 46.7944 90.4332 46.53 91.2202 46.53C92.0072 46.53 92.7371 46.7944 93.2475 47.2482C93.7257 47.6734 94.1104 48.3492 94.1104 49.4217Z" stroke="#DD0004" stroke-width="3.5"/>
<path d="M112.661 49.4217C112.661 50.4943 112.276 51.17 111.798 51.5952C111.288 52.049 110.558 52.3134 109.771 52.3134C108.984 52.3134 108.254 52.049 107.744 51.5952C107.266 51.17 106.881 50.4943 106.881 49.4217C106.881 48.3492 107.266 47.6734 107.744 47.2482C108.254 46.7944 108.984 46.53 109.771 46.53C110.558 46.53 111.288 46.7944 111.798 47.2482C112.276 47.6734 112.661 48.3492 112.661 49.4217Z" stroke="#DD0004" stroke-width="3.5"/>
<path d="M131.213 49.4217C131.213 50.4949 130.828 51.1707 130.351 51.5958C129.841 52.0493 129.113 52.3134 128.327 52.3134C127.542 52.3134 126.813 52.0493 126.304 51.5958C125.826 51.1707 125.441 50.4949 125.441 49.4217C125.441 48.3486 125.826 47.6727 126.304 47.2477C126.813 46.7941 127.542 46.53 128.327 46.53C129.113 46.53 129.841 46.7941 130.351 47.2477C130.828 47.6727 131.213 48.3486 131.213 49.4217Z" stroke="#DD0004" stroke-width="3.5"/>
<path d="M47.7169 151.563C47.7169 152.636 47.3323 153.312 46.8547 153.737C46.3451 154.191 45.6166 154.455 44.8311 154.455C44.0456 154.455 43.317 154.191 42.8074 153.737C42.3299 153.312 41.9453 152.636 41.9453 151.563C41.9453 150.49 42.3299 149.814 42.8074 149.389C43.317 148.936 44.0456 148.672 44.8311 148.672C45.6166 148.672 46.3451 148.936 46.8547 149.389C47.3323 149.814 47.7169 150.49 47.7169 151.563Z" stroke="#DD0004" stroke-width="3.5"/>
</svg>
