<svg width="20" height="20" viewBox="0 0 20 20" fill="none" xmlns="http://www.w3.org/2000/svg">
<path d="M3.99298 1.00177V1.99767H0.996304C0.443934 1.99987 -0.00209186 2.44922 1.71126e-05 3.00138V18.9943C-0.00318415 19.5472 0.443167 19.9978 0.996304 20H18.9959C19.5521 20.0021 20.0032 19.5503 20 18.9943V3.00138C20.0021 2.44617 19.5513 1.99555 18.9959 1.99767H15.9992V1.00177C15.9818 -0.341532 13.9826 -0.326293 13.9969 1.00177V1.99767H5.99336V1.00177C5.99542 -0.334876 3.99543 -0.332937 3.99298 1.00177ZM2.0004 3.99727H3.99298V5.00294C3.99298 6.34082 5.99336 6.32182 5.99336 5.00294V3.99727H13.9969V5.00294C13.9969 6.35279 15.9992 6.32097 15.9992 5.00294V3.99727H17.9996V7.00254H2.0004V3.99727ZM2.0004 8.99434H17.9996V17.9984H2.0004V8.99434ZM3.99298 9.99805C2.74584 9.99805 2.66605 11.9996 3.99298 11.9996H5.99336C7.35548 12.0017 7.38682 10.0021 5.99336 9.99805H3.99298ZM8.9998 9.99805C7.66799 10.0019 7.63668 12.0018 8.9998 11.9996H11.0002C12.3399 12.0017 12.418 10.0022 11.0002 9.99805H8.9998ZM13.9969 9.99805C12.6836 10.0019 12.6679 12.0017 13.9969 11.9996H15.9992C17.3251 11.9996 17.4024 10.0022 15.9992 9.99805H13.9969ZM3.99298 13.9992C2.6866 13.9992 2.68661 15.9988 3.99298 15.9988H5.99336C7.30553 16.0024 7.34976 14.0021 5.99336 13.9992H3.99298ZM8.9998 13.9992C7.61899 13.9992 7.64255 15.9988 8.9998 15.9988H11.0002C12.2834 16.0024 12.3056 13.9992 11.0002 13.9992H8.9998ZM13.9969 13.9992C12.6647 14.0021 12.6645 15.9988 13.9969 15.9988H15.9992C17.3239 16.0025 17.3744 14.0022 15.9992 13.9992H13.9969Z" fill="#DD0004"/>
</svg>
