<svg width="88" height="88" viewBox="0 0 88 88" fill="none" xmlns="http://www.w3.org/2000/svg">
<path d="M37.431 49.4461C38.6662 48.5478 39.4522 47.088 39.4522 45.4036C39.4522 42.5964 37.2064 40.3505 34.3991 40.3505C31.5918 40.3505 29.346 42.5964 29.346 45.4036C29.346 47.088 30.132 48.5478 31.3672 49.4461C28.2231 50.4567 25.9772 53.4886 25.9772 56.9696V57.1942C25.9772 57.868 26.4264 58.3171 27.1001 58.3171H41.698C42.3718 58.3171 42.8209 57.868 42.8209 57.1942V56.9696C42.8209 53.3763 40.5751 50.4567 37.431 49.4461ZM34.3991 42.4841C35.9712 42.4841 37.2064 43.7193 37.2064 45.2913C37.2064 46.8634 35.9712 48.0986 34.3991 48.0986C32.827 48.0986 31.5918 46.8634 31.5918 45.2913C31.5918 43.8316 32.827 42.4841 34.3991 42.4841ZM28.2231 55.959C28.6722 53.264 31.0303 51.2428 33.8376 51.2428H34.8482C37.6555 51.2428 40.0137 53.264 40.4628 55.959H28.2231Z" fill="#010101"/>
<path d="M56.8574 49.4461C58.0926 48.5478 58.8786 47.088 58.8786 45.4036C58.8786 42.5964 56.6328 40.3505 53.8255 40.3505C51.0182 40.3505 48.7724 42.5964 48.7724 45.4036C48.7724 47.088 49.5584 48.5478 50.7936 49.4461C47.6495 50.4567 45.4036 53.4886 45.4036 56.9696V57.1942C45.4036 57.868 45.8528 58.3171 46.5266 58.3171H61.1244C61.7982 58.3171 62.2473 57.868 62.2473 57.1942V56.9696C62.1351 53.3763 59.8892 50.4567 56.8574 49.4461ZM53.8255 42.4841C55.3976 42.4841 56.6328 43.7193 56.6328 45.2913C56.6328 46.8634 55.3976 48.0986 53.8255 48.0986C52.2534 48.0986 51.0182 46.8634 51.0182 45.2913C50.9059 43.8316 52.2534 42.4841 53.8255 42.4841ZM47.6495 55.959C48.0986 53.264 50.4568 51.2428 53.264 51.2428H54.2747C57.0819 51.2428 59.4401 53.264 59.8892 55.959H47.6495Z" fill="#010101"/>
<path d="M52.478 38.3293V38.1047C52.478 34.6237 50.2322 31.7041 47.088 30.5812C48.3232 29.6829 49.1093 28.2231 49.1093 26.5387C49.1093 23.7314 46.8634 21.4856 44.0562 21.4856C41.2489 21.4856 39.003 23.7314 39.003 26.5387C39.003 28.2231 39.7891 29.6829 41.0243 30.5812C37.8801 31.5918 35.6343 34.6237 35.6343 38.1047V38.3293C35.6343 39.003 36.0835 39.4522 36.7572 39.4522H51.3551C52.0288 39.4522 52.478 38.8908 52.478 38.3293ZM44.1684 23.7314C45.7405 23.7314 46.9757 24.9666 46.9757 26.5387C46.9757 28.1108 45.7405 29.346 44.1684 29.346C42.5964 29.346 41.3612 28.1108 41.3612 26.5387C41.2489 24.9666 42.4841 23.7314 44.1684 23.7314ZM37.9924 37.2064C38.4416 34.5114 40.7997 32.4901 43.607 32.4901H44.6176C47.4249 32.4901 49.783 34.5114 50.2322 37.2064H37.9924Z" fill="#010101"/>
<path d="M18.8906 43.9439C18.8906 29.9624 30.1875 18.666 44.0561 18.666C57.9248 18.666 69.2217 29.9624 69.2217 43.9439C69.2217 57.9253 57.9248 69.2217 44.0561 69.2217C30.1875 69.2217 18.8906 57.9253 18.8906 43.9439ZM20.9364 43.8316C20.9364 56.6877 31.3117 67.0636 44.0561 67.0636C56.8006 67.0636 67.1759 56.6877 67.1759 43.8316C67.1759 30.9754 56.8006 20.5995 44.0561 20.5995C31.3117 20.5995 20.9364 30.9754 20.9364 43.8316Z" fill="#010101" stroke="white" stroke-width="0.2"/>
<path d="M63.56 25.3312L63.5455 25.3337L63.5316 25.3384C63.2699 25.4256 62.9194 25.3334 62.7506 25.0803L62.7284 25.047L62.6952 25.0248C62.4421 24.8561 62.3498 24.5056 62.4371 24.2438L62.4415 24.2307L62.444 24.2171L64.801 11.5344C64.9038 11.1277 65.0917 10.8745 65.44 10.7874L65.4475 10.7855L65.4548 10.7831C65.7065 10.6992 66.079 10.7776 66.373 11.0716L68.5065 13.2052L68.6466 13.3453L68.788 13.2065L74.7395 7.36736L74.7395 7.36737L74.7408 7.36602C74.8413 7.26554 74.9338 7.19813 75.0315 7.15471C75.1284 7.11167 75.2403 7.08773 75.3854 7.08773C75.5305 7.08773 75.6425 7.11167 75.7393 7.15471C75.837 7.19813 75.9296 7.26554 76.0301 7.36602L80.4094 11.7454L80.4172 11.7532L80.4259 11.7601C80.8912 12.1324 80.8894 12.7792 80.5217 13.1469L74.5703 19.0984L74.4252 19.2434L74.5739 19.3848L76.8032 21.5026C76.9974 21.7998 77.0811 22.0755 76.9881 22.4477C76.901 22.7958 76.648 22.9837 76.2419 23.0866L63.56 25.3312ZM66.6558 13.933L66.3885 13.6656L66.3179 14.0371L64.6336 22.9081L64.5796 23.1923L64.8645 23.1424L73.8478 21.5703L74.2269 21.504L73.9548 21.2319L72.6073 19.8844C72.5068 19.7839 72.4394 19.6914 72.396 19.5937C72.3529 19.4969 72.329 19.3849 72.329 19.2398C72.329 19.0947 72.3529 18.9827 72.396 18.8859C72.4394 18.7882 72.5068 18.6956 72.6073 18.5952L78.5587 12.6437L78.7001 12.5023L78.5587 12.3609L75.5269 9.32901L75.3854 9.18758L75.244 9.32901L69.2926 15.2804C69.1079 15.4651 68.8231 15.5587 68.648 15.5587C68.5029 15.5587 68.3909 15.5348 68.2941 15.4918C68.1964 15.4483 68.1038 15.3809 68.0033 15.2804L66.6558 13.933Z" fill="#010101" stroke="white" stroke-width="0.4"/>
<path d="M24.442 62.3316L24.4421 62.332L24.4537 62.3291C24.8423 62.2319 25.1048 62.3315 25.2744 62.5011L25.2884 62.5151L25.3048 62.526C25.5579 62.6948 25.6502 63.0453 25.5629 63.307L25.5583 63.3209L25.5557 63.3354L23.3111 76.0173C23.2083 76.4234 23.0204 76.6765 22.6723 76.7635L22.6387 76.7719L22.6098 76.7911C22.3823 76.9428 22.038 76.8902 21.7393 76.5915L19.6058 74.458L19.463 74.3152L19.3216 74.4593L13.3715 80.5217C13.3713 80.5219 13.3711 80.5221 13.3708 80.5223C13.2706 80.6225 13.1782 80.6897 13.0808 80.733C12.9839 80.7761 12.872 80.8 12.7269 80.8C12.5813 80.8 12.4846 80.7759 12.4027 80.7213C12.317 80.6642 12.2243 80.5582 12.1197 80.3491L12.1052 80.3201L12.0822 80.2971L7.70288 75.9178C7.66446 75.8793 7.5921 75.7855 7.5298 75.6609C7.46766 75.5367 7.42458 75.3997 7.42458 75.2731L7.42458 75.2731C7.4246 75.2728 7.42489 75.2644 7.42765 75.2459C7.43027 75.2284 7.43451 75.2058 7.44061 75.1791C7.45282 75.1257 7.47155 75.0599 7.49676 74.9906C7.54904 74.8468 7.62099 74.7104 7.70288 74.6285L7.70288 74.6285L7.70422 74.6272L13.5434 68.6757L13.6821 68.5343L13.542 68.3942L11.4085 66.2607C11.2555 66.1077 11.1652 65.9664 11.1214 65.824C11.078 65.6831 11.075 65.5245 11.1242 65.3277C11.2113 64.9793 11.4647 64.7914 11.8714 64.6886L24.442 62.3316ZM21.5687 73.7302L21.8322 73.9937L21.9062 73.6285L23.7028 64.7575L23.7618 64.4665L23.47 64.5212L14.4867 66.2056L14.114 66.2754L14.3821 66.5435L15.7296 67.891C16.1007 68.2621 16.1007 68.8092 15.7296 69.1803L15.7283 69.1816L9.8891 75.1331L9.75036 75.2745L9.89044 75.4146L12.81 78.3341L12.9528 78.4769L13.0942 78.3328L18.932 72.3827C18.9322 72.3825 18.9324 72.3823 18.9326 72.3821C19.0329 72.2819 19.1252 72.2147 19.2227 72.1714C19.3196 72.1284 19.4315 72.1044 19.5766 72.1044C19.7217 72.1044 19.8337 72.1284 19.9305 72.1714C20.0282 72.2148 20.1208 72.2822 20.2212 72.3827L21.5687 73.7302Z" fill="#010101" stroke="white" stroke-width="0.4"/>
<path d="M80.5204 74.6272L80.5217 74.6285C80.6204 74.7272 80.6846 74.8156 80.7278 74.9344C80.7727 75.058 80.8 75.2284 80.8 75.4977C80.8 75.6428 80.7761 75.7548 80.733 75.8516C80.6896 75.9493 80.6222 76.0419 80.5217 76.1424L76.1423 80.5217L76.1283 80.5357L76.1174 80.5522C75.9401 80.8181 75.6762 80.9123 75.3854 80.9123C75.2105 80.9123 74.926 80.8188 74.7414 80.6346C74.7412 80.6344 74.741 80.6342 74.7408 80.634L68.7907 74.5716L68.6493 74.4275L68.5065 74.5703L66.3873 76.6895C66.0893 76.8848 65.8131 76.9691 65.44 76.8758C65.0919 76.7888 64.904 76.5358 64.8012 76.1296L62.5597 63.4656C62.5616 63.3209 62.5866 63.1513 62.635 62.994C62.6862 62.8276 62.7577 62.6935 62.8379 62.6134L62.8519 62.5994L62.8629 62.5829C63.0316 62.3298 63.3822 62.2376 63.6439 62.3248L63.657 62.3292L63.6706 62.3317L76.3534 64.6887C76.76 64.7915 77.0133 64.9794 77.1004 65.3277C77.1495 65.5245 77.1466 65.6831 77.1032 65.824C77.0594 65.9664 76.9691 66.1077 76.8161 66.2607L74.6826 68.3943L74.5425 68.5343L74.6812 68.6757L80.5204 74.6272ZM66.3174 73.6233L66.3837 74.0023L66.6558 73.7302L68.0033 72.3827C68.1038 72.2822 68.1964 72.2148 68.2941 72.1714C68.3909 72.1284 68.5029 72.1044 68.648 72.1044C68.7918 72.1044 68.9132 72.1279 69.0585 72.1675C69.1074 72.1809 69.1634 72.1974 69.2253 72.2158C69.3221 72.2444 69.4335 72.2773 69.555 72.309L75.355 78.2205L75.4964 78.3646L75.6391 78.2219L78.5587 75.3023L78.6988 75.1622L78.5601 75.0208L72.7209 69.0694L72.7209 69.0693L72.7196 69.068C72.3485 68.6969 72.3485 68.1498 72.7196 67.7788L74.0671 66.4313L74.3352 66.1631L73.9625 66.0933L64.9792 64.4089L64.6956 64.3557L64.7453 64.64L66.3174 73.6233Z" fill="#010101" stroke="white" stroke-width="0.4"/>
<path d="M13.542 19.3812L13.6861 19.2371L13.5393 19.0957L7.47703 13.2579C7.10724 12.8866 7.10766 12.2283 7.4783 11.8577L7.33833 11.7177L7.4783 11.8577L7.58968 11.7463L12.0804 7.3678L12.1046 7.34423L12.1197 7.31404C12.1459 7.26158 12.2091 7.20357 12.3239 7.15764C12.4363 7.11268 12.5787 7.08773 12.7269 7.08773C12.872 7.08773 12.9839 7.11167 13.0808 7.15471C13.1782 7.19803 13.2706 7.26524 13.3708 7.36537C13.371 7.36559 13.3713 7.3658 13.3715 7.36602L19.2093 13.3161L19.3507 13.4602L19.4935 13.3175L21.627 11.1839C21.78 11.0309 21.9213 10.9406 22.0637 10.8968C22.2046 10.8534 22.3632 10.8505 22.56 10.8997C22.9088 10.9869 23.0968 11.2408 23.1995 11.6485L25.7771 24.2002C25.775 24.3444 25.75 24.5128 25.7019 24.6692C25.6507 24.8356 25.5791 24.9696 25.4989 25.0498C25.1943 25.3545 24.9332 25.4184 24.693 25.3384L24.6791 25.3337L24.6646 25.3312L11.9827 23.0866C11.5766 22.9837 11.3235 22.7958 11.2365 22.4477L11.2281 22.4141L11.2089 22.3853C11.0572 22.1577 11.1098 21.8134 11.4085 21.5147L13.542 19.3812ZM21.7944 14.0375L21.7211 13.6461L21.4509 13.9387L20.1062 15.3955C20.0068 15.4945 19.915 15.561 19.8182 15.6041C19.7214 15.6471 19.6094 15.671 19.4643 15.671C19.343 15.671 19.2364 15.6317 19.1046 15.5658C19.0765 15.5517 19.0461 15.5358 19.0138 15.5188C18.9163 15.4676 18.8012 15.4071 18.6753 15.3606L12.756 9.4413L12.6146 9.29988L12.4731 9.4413L9.55357 12.3609L9.41082 12.5036L9.5549 12.645L15.6173 18.5952C15.6175 18.5954 15.6177 18.5956 15.6179 18.5958C15.7181 18.696 15.7853 18.7884 15.8286 18.8859C15.8717 18.9827 15.8956 19.0947 15.8956 19.2398C15.8956 19.3831 15.8723 19.4918 15.8185 19.5995C15.7623 19.7119 15.6672 19.8345 15.505 19.9967L14.1575 21.3442L13.8854 21.6163L14.2645 21.6826L23.2478 23.2547L23.532 23.3044L23.4788 23.0208L21.7944 14.0375Z" fill="#010101" stroke="white" stroke-width="0.4"/>
<circle cx="34.3991" cy="45.3907" r="3.63216" fill="#DD0004"/>
<circle cx="53.8255" cy="45.3907" r="3.63216" fill="#DD0004"/>
<circle cx="44.0561" cy="26.3907" r="3.63216" fill="#DD0004"/>
</svg>
