<svg width="85" height="87" viewBox="0 0 85 87" fill="none" xmlns="http://www.w3.org/2000/svg">
<path fill-rule="evenodd" clip-rule="evenodd" d="M13.4447 85.9963C12.3438 85.9963 11.4468 85.0993 11.4468 83.9984V79.6728C11.4468 79.1354 11.8842 78.698 12.4216 78.698C12.9627 78.698 13.3964 79.1354 13.3964 79.6765V83.9984C13.3964 84.0244 13.4149 84.0466 13.4408 84.0466L24.094 84.0429C24.1199 84.0429 24.1385 84.0243 24.1385 83.9947V79.6728C24.1385 79.1391 24.5647 78.7054 25.0984 78.698L31.1476 78.6091C32.1817 78.5942 33.0491 77.8159 33.1158 76.8336C33.1195 76.7854 33.1232 76.7335 33.1232 76.6816V70.7622C33.1232 70.5027 33.227 70.2507 33.4123 70.0691L35.3694 68.1231C35.5584 67.9378 35.5806 67.6449 35.425 67.43L33.3085 64.4832C33.1899 64.3164 33.1269 64.12 33.1269 63.9124V56.4251C33.1269 55.8877 33.5642 55.4503 34.1016 55.4503C34.6391 55.4503 35.0764 55.8877 35.0764 56.4251V63.6011L37.0113 66.292C37.7267 67.2891 37.6155 68.642 36.7444 69.5093L35.0765 71.1698V76.6852C35.0765 76.7816 35.0728 76.878 35.0654 76.9744C34.9208 78.9611 33.2158 80.5364 31.1771 80.5661L26.0917 80.6402V84.0021C26.0917 85.103 25.1947 86 24.0938 86H13.4406L13.4447 85.9963Z" fill="black" stroke="black" stroke-width="0.8"/>
<path fill-rule="evenodd" clip-rule="evenodd" d="M21.1506 42.5003C20.1833 42.5003 19.2195 42.5744 18.2744 42.7227C15.5797 43.1453 13.0851 44.1126 10.8686 45.6028C3.61856 50.4695 0.938532 59.855 4.49325 67.9168C6.74315 73.0207 10.5202 76.731 12.1881 78.2027L14.3046 74.763C14.4714 74.4924 14.4195 74.1477 14.1823 73.9364L12.5885 72.5205C11.1614 71.2529 10.6425 69.2365 11.2985 67.498C12.1325 65.2778 14.2267 64.922 15.7873 65.1073C16.536 61.6639 18.2188 59.0471 20.8023 57.3198C25.7691 54.0024 32.4224 55.081 34.0013 55.3998C34.9168 54.9773 35.7286 54.488 36.4143 53.9469C37.4447 53.1314 37.656 52.0639 37.6486 51.3078C37.6338 49.9438 36.911 48.5242 35.8065 47.6865C35.7434 47.6383 32.945 45.5737 28.4081 43.8539C26.0359 42.9532 23.571 42.4973 21.1543 42.4973L21.1506 42.5003ZM12.4254 80.6521C12.2104 80.6521 12.0028 80.5817 11.8323 80.452C11.5877 80.2667 5.84247 75.8114 2.70669 68.7019C0.820016 64.4171 0.482687 59.5689 1.76892 55.0503C3.05884 50.5172 5.90179 46.5845 9.78254 43.9825C12.24 42.3331 14.994 41.2619 17.9741 40.7948C21.6102 40.224 25.4577 40.654 29.0979 42.0328C33.9387 43.8676 36.8521 46.036 36.9744 46.1286C36.9781 46.1286 36.9744 46.1286 36.9781 46.1323C38.5719 47.3406 39.5764 49.32 39.5949 51.2956C39.6134 52.9783 38.9092 54.4685 37.6193 55.4841C36.7298 56.1846 35.6808 56.8036 34.4984 57.3188C34.3019 57.4041 34.0832 57.4226 33.8794 57.3744C33.8089 57.3559 26.7108 55.7139 21.8779 58.9498C19.5241 60.5251 18.0601 63.0381 17.5264 66.4185C17.4819 66.7002 17.3151 66.9486 17.0742 67.0968C16.8332 67.2451 16.5367 67.2822 16.2624 67.1932C16.0141 67.1154 13.7716 66.463 13.1266 68.1829C12.756 69.1689 13.0599 70.3253 13.8865 71.0555L15.4803 72.4714C16.4255 73.3128 16.6293 74.7028 15.9659 75.7777L13.2601 80.1774C13.1155 80.4109 12.8783 80.574 12.604 80.6259C12.5447 80.637 12.4854 80.6407 12.4298 80.6407L12.4254 80.6521Z" fill="black" stroke="black" stroke-width="0.8"/>
<path fill-rule="evenodd" clip-rule="evenodd" d="M71.2604 85.9963H60.6072C59.5026 85.9963 58.6094 85.0993 58.6094 83.9984L58.6131 80.6365L53.5239 80.5624C51.489 80.5327 49.7803 78.9575 49.6357 76.9782C49.6282 76.8781 49.6245 76.7817 49.6245 76.6854V71.17L47.9566 69.5094C47.0855 68.6458 46.9706 67.2892 47.6897 66.2921L49.6246 63.6012V56.4252C49.6246 55.8878 50.062 55.4504 50.5994 55.4504C51.1368 55.4504 51.5742 55.8878 51.5742 56.4252V63.9125C51.5742 64.1164 51.5112 64.3165 51.3925 64.4833L49.2723 67.4301C49.1167 67.6451 49.1426 67.9379 49.3279 68.1232L51.285 70.0692C51.4704 70.2508 51.5741 70.5029 51.5741 70.7623V76.6818C51.5741 76.7336 51.5741 76.7855 51.5778 76.8411C51.6483 77.8159 52.5156 78.5944 53.546 78.6129L59.5952 78.7019C60.1289 78.7093 60.5552 79.1429 60.5552 79.6766V84.0022C60.5552 84.0282 60.5774 84.0467 60.6033 84.0467H71.2565C71.2824 84.0467 71.3047 84.0245 71.3047 83.9985V79.6766C71.3047 79.1355 71.742 78.7018 72.2795 78.6981C72.8169 78.6981 73.2542 79.1355 73.2542 79.6729L73.2579 83.9985C73.2579 85.0994 72.3613 85.9963 71.2604 85.9963Z" fill="black" stroke="black" stroke-width="0.8"/>
<path fill-rule="evenodd" clip-rule="evenodd" d="M69.6295 65.0658C71.0639 65.0658 72.6949 65.6033 73.4065 67.5011C74.0626 69.2357 73.54 71.2558 72.1129 72.5198L70.5191 73.9357C70.2819 74.147 70.23 74.4917 70.3968 74.7623L72.5132 78.202C74.1812 76.7268 77.9619 73.0054 80.2081 67.9161C83.7628 59.8543 81.0792 50.4689 73.8328 45.6021C71.6163 44.1121 69.1217 43.1447 66.427 42.7221C63.1244 42.2031 59.6217 42.5997 56.2967 43.8563C51.7747 45.5724 48.9799 47.6296 48.8983 47.6852C47.7937 48.5229 47.0673 49.9462 47.0562 51.3102C47.0488 52.0627 47.2563 53.1339 48.2905 53.9493C48.9799 54.4904 49.7879 54.9797 50.7035 55.4022C52.2825 55.0834 58.9358 54.0011 63.9025 57.3222C66.486 59.0494 68.1688 61.6663 68.9175 65.1097C69.1436 65.0837 69.3849 65.0696 69.6295 65.0658ZM72.2797 80.6484C72.2204 80.6484 72.1611 80.6447 72.1018 80.6336C71.8312 80.5817 71.594 80.4186 71.4495 80.1851L68.7399 75.7854C68.0764 74.7068 68.2803 73.3168 69.2292 72.4791L70.823 71.0595C71.6496 70.3256 71.9572 69.1728 71.5866 68.1869C70.9379 66.4671 68.6991 67.1157 68.4434 67.1973C68.1728 67.2825 67.8763 67.2454 67.6354 67.0972C67.3944 66.9489 67.2276 66.7006 67.1832 66.4189C66.6494 63.0385 65.1853 60.5254 62.8317 58.9501C57.9982 55.7142 50.9004 57.3563 50.8302 57.3748C50.6226 57.4229 50.4076 57.4044 50.2112 57.3192C49.0288 56.8002 47.9761 56.185 47.0902 55.4844C45.8003 54.4651 45.096 52.9788 45.1146 51.2959C45.1332 49.3203 46.1376 47.3447 47.7315 46.1327L47.7352 46.1289C47.8575 46.0363 50.7708 43.8679 55.6117 42.0332C59.2515 40.6544 63.0989 40.2244 66.7354 40.7952C69.7155 41.2622 72.4733 42.3334 74.927 43.9829C78.804 46.5849 81.6507 50.5175 82.9369 55.0507C84.2231 59.569 83.8895 64.4172 81.9991 68.7023C78.8671 75.8115 73.1182 80.2673 72.8735 80.4523C72.703 80.5821 72.4955 80.6525 72.2805 80.6525L72.2797 80.6484Z" fill="black" stroke="black" stroke-width="0.8"/>
<path fill-rule="evenodd" clip-rule="evenodd" d="M42.353 2.73943C32.2967 2.73943 24.1164 10.9199 24.1164 20.9761C24.1164 31.0323 32.2968 39.2127 42.353 39.2127C52.4092 39.2127 60.5896 31.0323 60.5896 20.9761C60.5896 10.9199 52.4092 2.73943 42.353 2.73943ZM42.353 41.1655C31.2226 41.1655 22.1636 32.1103 22.1636 20.9761C22.1636 9.84563 31.2188 0.786621 42.353 0.786621C53.4834 0.786621 62.5424 9.84184 62.5424 20.9761C62.5424 32.1065 53.4872 41.1655 42.3568 41.1655H42.353Z" fill="black" stroke="black" stroke-width="0.8"/>
<path d="M31.2163 25.9633L42.3522 8.04907L53.488 25.9633L51.0672 29.8366L49.6147 34.1941V38.5516H46.7097L40.8997 40.4883L36.058 38.5516L34.6055 32.2574L31.2163 25.9633Z" fill="#DD0004" stroke="black"/>
<path fill-rule="evenodd" clip-rule="evenodd" d="M35.214 39.7942H35.1732C34.6357 39.7719 34.2169 39.3197 34.2354 38.7823C34.5394 31.1208 29.8653 27.203 29.8209 27.166C29.4428 26.8584 29.3539 26.3172 29.6096 25.9021L41.5229 6.53156C41.6971 6.24244 42.0122 6.06824 42.3532 6.06824C42.6942 6.06824 43.0055 6.24244 43.1835 6.53156L55.0967 25.9021C55.3525 26.3172 55.2598 26.8584 54.8817 27.166C54.6927 27.3254 50.1632 31.1692 50.4672 38.7823C50.4895 39.3197 50.0706 39.7757 49.5332 39.7942H49.4924C48.9735 39.7942 48.5398 39.3827 48.5176 38.8564C48.2433 31.9177 51.5867 27.7146 53.0211 26.2429L42.3537 8.8963L31.6902 26.2429C33.1246 27.7181 36.468 31.9214 36.19 38.8564C36.1714 39.3827 35.7378 39.7942 35.2152 39.7942H35.214Z" fill="black" stroke="black" stroke-width="0.8"/>
<path fill-rule="evenodd" clip-rule="evenodd" d="M42.3527 41.1652C41.8153 41.1652 41.3779 40.7279 41.3779 40.1904V31.2798C41.3779 30.7424 41.8153 30.3051 42.3527 30.3051C42.8901 30.3051 43.3275 30.7424 43.3275 31.2798V40.1904C43.3275 40.7279 42.8901 41.1652 42.3527 41.1652Z" fill="black" stroke="black" stroke-width="0.8"/>
<path fill-rule="evenodd" clip-rule="evenodd" d="M42.3527 25.1083C40.922 25.1083 39.7544 26.2722 39.7544 27.7067C39.7544 29.1374 40.9183 30.305 42.3527 30.305C43.7871 30.305 44.951 29.1411 44.951 27.7067C44.951 26.2759 43.7871 25.1083 42.3527 25.1083ZM42.3527 32.2546C39.8434 32.2546 37.8047 30.2123 37.8047 27.7066C37.8047 25.1973 39.8433 23.1586 42.3527 23.1586C44.8621 23.1586 46.9007 25.1972 46.9007 27.7066C46.9007 30.216 44.8584 32.2546 42.3527 32.2546Z" fill="black" stroke="black" stroke-width="0.8"/>
<path fill-rule="evenodd" clip-rule="evenodd" d="M11.6848 44.9353C11.1473 44.9353 10.71 44.4979 10.71 43.9605V27.9775C10.71 23.5815 14.2868 20.0046 18.6828 20.0046H23.1381C23.6755 20.0046 24.1129 20.442 24.1129 20.9794C24.1129 21.5168 23.6755 21.9542 23.1381 21.9542H18.6828C15.3617 21.9542 12.6595 24.6564 12.6595 27.9775V43.9605C12.6595 44.4979 12.2222 44.9353 11.6848 44.9353Z" fill="black" stroke="black" stroke-width="0.8"/>
<path fill-rule="evenodd" clip-rule="evenodd" d="M73.0248 44.9352C72.4873 44.9352 72.05 44.4979 72.05 43.9604V27.9774C72.05 24.6563 69.3479 21.9579 66.0268 21.9579H61.5715C61.034 21.9579 60.5967 21.5205 60.5967 20.9831C60.5967 20.4456 61.0341 20.0083 61.5715 20.0083H66.0268C70.4228 20.0083 73.9996 23.5851 73.9996 27.9811V43.9641C73.9996 44.5016 73.5622 44.9389 73.0248 44.9389V44.9352Z" fill="black" stroke="black" stroke-width="0.8"/>
</svg>
