<svg width="86" height="87" viewBox="0 0 86 87" fill="none" xmlns="http://www.w3.org/2000/svg">
<circle cx="43.5" cy="46.5" r="9.5" fill="#DD0004"/>
<path fill-rule="evenodd" clip-rule="evenodd" d="M59.1758 52.6496C61.9531 46.2591 62.7397 38.7332 62.8579 31.3804C59.161 31.046 55.3275 30.1824 51.7488 28.7492C48.5431 27.463 45.5369 25.7211 43.0144 23.4869C40.7726 25.6109 37.807 27.3086 34.6235 28.5875C30.838 30.1052 26.7237 31.0386 23.1409 31.3766C23.2591 38.7335 24.0495 46.2591 26.823 52.6496C29.6446 59.1465 34.5565 64.5076 42.9988 67.3637C51.4377 64.5084 56.3533 59.1469 59.1746 52.6496H59.1758ZM65.1255 30.417C65.0591 38.3251 64.2909 46.5235 61.244 53.5348C58.1418 60.6786 52.7128 66.5584 43.3465 69.6158C43.1102 69.693 42.8664 69.6856 42.6485 69.6158L42.6301 69.6085C33.2752 66.5511 27.8535 60.6751 24.7515 53.535C21.6972 46.5014 20.9327 38.2771 20.8699 30.3438C20.8663 29.7449 21.3316 29.2524 21.9262 29.2157V29.212C25.5234 28.9842 29.8407 28.0766 33.7775 26.4927C37.0644 25.1735 40.0744 23.3875 42.1426 21.1496C42.5636 20.6939 43.2801 20.6645 43.738 21.0835C43.7565 21.0982 43.7713 21.1165 43.7897 21.1349C46.2457 23.5088 49.2962 25.3351 52.5869 26.6544C56.28 28.1317 60.2687 28.9695 64.0657 29.2121C64.6898 29.2488 65.1626 29.7854 65.1219 30.4064V30.4137L65.1255 30.417ZM48.5877 39.6737C50.0169 41.0959 50.9033 43.0619 50.9033 45.2337C50.9033 47.4055 50.0169 49.3715 48.5877 50.7937C47.1584 52.2158 45.1825 53.0977 42.9998 53.0977C40.8172 53.0977 38.8413 52.2195 37.412 50.7937C35.9828 49.3716 35.0964 47.4055 35.0964 45.2337C35.0964 43.0619 35.9828 41.096 37.412 39.6737C38.8412 38.2516 40.8172 37.3697 42.9998 37.3697C45.1825 37.3697 47.1583 38.2516 48.5877 39.6737ZM42.9998 35.117C45.8067 35.117 48.3475 36.2488 50.1905 38.0788C52.0297 39.9088 53.1672 42.4371 53.1672 45.2336C53.1672 48.0265 52.0297 50.5546 50.1905 52.3884C48.3513 54.2184 45.8104 55.3502 42.9998 55.3502C40.193 55.3502 37.6522 54.2184 35.8092 52.3884C33.97 50.5584 32.8325 48.0302 32.8325 45.2336C32.8325 42.4407 33.97 39.9126 35.8092 38.0788C37.6484 36.2488 40.1893 35.117 42.9998 35.117ZM38.5533 45.9647C38.0953 45.5421 38.0695 44.8292 38.4942 44.3772C38.9189 43.9215 39.6353 43.8958 40.0896 44.3184L41.9584 46.0491L45.8658 42.0583C46.3016 41.6137 47.0143 41.6027 47.4612 42.0363C47.9081 42.4699 47.9192 43.1791 47.4834 43.6238L42.8226 48.3863C42.3979 48.842 41.6814 48.8677 41.2271 48.4451L38.5533 45.9647ZM57.6874 70.9347C55.5268 72.0813 53.2223 72.9816 50.8144 73.5953C48.3289 74.231 45.7104 74.5691 42.9996 74.5691C34.3613 74.5691 26.5393 71.0854 20.8807 65.452C15.2191 59.8186 11.718 52.0389 11.718 43.4434C11.718 38.6331 12.8111 34.0838 14.7612 30.0265C16.6151 26.1717 19.2447 22.7541 22.4504 19.9719L24.5998 22.9742C24.7697 23.213 25.0319 23.3821 25.3421 23.4335C25.9589 23.5291 26.535 23.1138 26.6347 22.5001L27.6172 16.3302C29.8442 15.0771 32.2447 14.0886 34.7819 13.4014C37.4003 12.6921 40.1555 12.3174 43.0029 12.3174C51.6412 12.3174 59.4633 15.801 65.1218 21.4345C70.7835 27.0679 74.2846 34.8475 74.2846 43.4431C74.2846 48.382 73.1323 53.049 71.0789 57.1864C69.14 61.1 66.3997 64.5469 63.0721 67.321L61.4545 64.462C61.3105 64.2047 61.0667 64.0063 60.7602 63.9254C60.1582 63.7638 59.5377 64.1239 59.3753 64.7229L57.6912 70.9333L57.6874 70.9347ZM60.1913 79.7027C57.9569 80.7537 55.6117 81.6062 53.1816 82.2383C49.939 83.0798 46.5265 83.5245 42.9962 83.5245C31.872 83.5245 21.8048 79.0376 14.5144 71.7869C7.22411 64.5329 2.71798 54.5158 2.71798 43.4471C2.71798 37.1669 4.16566 31.2287 6.75092 25.9408C9.43213 20.4507 13.3433 15.6585 18.1219 11.9219C18.6131 11.5397 18.698 10.8304 18.3102 10.3417L18.3066 10.3344L17.1617 8.73954L21.1024 9.43407C21.1171 9.43775 21.1356 9.44142 21.1504 9.44142L26.2765 10.3454L24.8289 19.4442L23.5843 17.7096C23.5658 17.6839 23.551 17.6619 23.5289 17.6361C23.1374 17.1511 22.4283 17.0739 21.9408 17.4634C18.0592 20.5796 14.8905 24.541 12.7152 29.0684C10.6174 33.4303 9.4431 38.3104 9.4431 43.4514C9.4431 52.6677 13.1991 61.0131 19.2711 67.0546C25.3431 73.096 33.7299 76.8336 42.9926 76.8336C45.8696 76.8336 48.6763 76.4661 51.365 75.7789C53.2854 75.2865 55.1321 74.6361 56.8974 73.835L55.9446 77.3444H55.9483C55.7895 77.9324 56.133 78.5423 56.7239 78.7114L60.1881 79.7109L60.1913 79.7027ZM68.6597 77.2076L70.6393 80.7097C70.9459 81.2499 70.7501 81.9371 70.2072 82.2421C69.9081 82.4074 69.5683 82.4258 69.2692 82.3192L63.3711 80.6178C60.3723 82.2494 57.1445 83.5319 53.7502 84.4101C50.3082 85.3031 46.7036 85.7771 42.9994 85.7771C31.2512 85.7771 20.6149 81.0403 12.9151 73.3782C5.21482 65.7163 0.453979 55.1325 0.453979 43.4438C0.453979 36.8218 1.98666 30.5491 4.7159 24.9601C7.39343 19.4811 11.2233 14.6637 15.8874 10.8198L13.7232 7.79555C13.3612 7.2921 13.4794 6.59027 13.9891 6.23006C14.2439 6.04999 14.5504 5.98753 14.8385 6.03898V6.0353L21.1058 7.13776C24.293 5.23059 27.7573 3.72757 31.4245 2.69492C35.1103 1.6586 38.9955 1.10742 43.0025 1.10742C54.7508 1.10742 65.3871 5.84424 73.0869 13.5064C80.7867 21.1685 85.548 31.7521 85.548 43.4408C85.548 50.375 83.8676 56.9272 80.8872 62.7147C77.9511 68.4142 73.7556 73.3676 68.6662 77.2039L68.6597 77.2076ZM66.2001 77.4465L67.3154 79.4162L63.6148 78.3505C63.5668 78.3321 63.5188 78.3211 63.4708 78.3101L58.4222 76.8549L60.8339 67.9656L61.7498 69.5826C62.0563 70.1227 62.7433 70.3175 63.2899 70.0125C63.36 69.9758 63.4228 69.928 63.4819 69.8765C67.5185 66.775 70.8276 62.7769 73.1028 58.1831C75.3076 53.733 76.5449 48.7277 76.5449 43.4436C76.5449 34.2273 72.7889 25.8819 66.7169 19.8404C60.6453 13.7991 52.258 10.0614 42.9954 10.0614C39.9448 10.0614 36.9903 10.4657 34.1835 11.2263C32.0525 11.8033 29.9991 12.586 28.0528 13.5525L28.6695 9.67563C28.6732 9.65725 28.6769 9.63521 28.6806 9.61316C28.7877 8.99947 28.3778 8.41889 27.761 8.30863L24.6292 7.75741C26.9744 6.55947 29.4488 5.58562 32.0266 4.86172C35.5093 3.8842 39.1877 3.36237 42.992 3.36237C54.1162 3.36237 64.1834 7.84923 71.4738 15.1C78.7641 22.3539 83.2703 32.371 83.2703 43.4398C83.2703 50.0213 81.6822 56.2245 78.8643 61.6921C75.9504 67.3512 71.7216 72.2312 66.5771 75.9358C66.0675 76.2518 65.8939 76.9133 66.1893 77.4388L66.2001 77.4465Z" fill="black" stroke="black" stroke-width="0.5"/>
</svg>
