<svg width="90" height="90" viewBox="0 0 90 90" fill="none" xmlns="http://www.w3.org/2000/svg">
<path d="M33.806 40.3657L56.7645 40.8343V46.4567L43.1768 45.5197L41.3027 49.268L43.1768 56.2961L46.9251 55.8275L48.7993 45.9074L56.7645 46.4567L57.7016 55.8275L56.7645 60.0444L33.806 60.9815V40.3657Z" fill="#DD0004"/>
<path d="M83.1487 60.1098C80.8573 60.1098 78.9246 61.6765 78.3645 63.7923H75.0006L70.5164 57.2803C70.2785 56.9362 69.8905 56.7312 69.4732 56.7312H67.5808V46.3175H78.3647C78.9247 48.4369 80.8575 49.9999 83.1489 49.9999C85.8797 49.9999 88.1016 47.778 88.1016 45.0473C88.1016 42.3165 85.8797 40.0946 83.1489 40.0946C80.8575 40.0946 78.9248 41.6613 78.3647 43.7771L67.5808 43.7844V33.3706H69.4732C69.8905 33.3706 70.2785 33.1656 70.5164 32.8215L75.0006 26.3096H78.3645C78.9245 28.429 80.8573 29.992 83.1487 29.992C85.8795 29.992 88.1014 27.7701 88.1014 25.0394C88.1014 22.3086 85.8795 20.0867 83.1487 20.0867C80.8573 20.0867 78.9246 21.6534 78.3645 23.7692H74.3343C73.917 23.7692 73.529 23.9741 73.291 24.3182L68.8069 30.8302H67.5807V25.1309C67.5807 23.6886 66.4057 22.5136 64.9634 22.5136H59.2641V21.2873L65.776 16.8032C66.1201 16.5653 66.3251 16.1773 66.3251 15.76V11.7371C68.4445 11.177 70.0076 9.24428 70.0076 6.95284C70.0076 4.2221 67.7856 2.00019 65.0549 2.00019C62.3278 2.00019 60.1097 4.2221 60.1097 6.95284C60.1097 9.24428 61.6764 11.177 63.7957 11.7371V15.101L57.2838 19.5851C56.9397 19.8231 56.7347 20.2111 56.7347 20.6284V22.5208H46.3172V11.7369C48.4366 11.1769 49.9997 9.24409 49.9997 6.95265C49.9997 4.22191 47.7777 2 45.047 2C42.3163 2 40.0943 4.22191 40.0943 6.95265C40.0943 9.24409 41.661 11.1768 43.7768 11.7369V22.5208H33.3705V20.6284C33.3705 20.2111 33.1655 19.8231 32.8214 19.5851L26.3095 15.101V11.7371C28.4289 11.177 29.9919 9.24428 29.9919 6.95284C29.9919 4.2221 27.77 2.00019 25.0393 2.00019C22.3122 2.00019 20.0904 4.2221 20.0904 6.95284C20.0904 9.24428 21.6571 11.177 23.7728 11.7371V15.7673C23.7728 16.1846 23.9778 16.5726 24.3219 16.8105L30.8338 21.2947V22.5209H25.1345C23.6923 22.5209 22.5173 23.6959 22.5173 25.1382V30.8375H21.291L16.8069 24.3255C16.569 23.9815 16.1809 23.7765 15.7636 23.7765H11.7371C11.177 21.6571 9.24428 20.094 6.95284 20.094C4.2221 20.094 2.00019 22.3159 2.00019 25.0467C2.00019 27.7774 4.2221 29.9993 6.95284 29.9993C9.24428 29.9993 11.177 28.4326 11.7371 26.3169H15.101L19.5851 32.8288C19.8231 33.1729 20.2111 33.3779 20.6284 33.3779H22.5208V43.7917L11.7369 43.7844C11.1769 41.665 9.24409 40.1019 6.95265 40.1019C4.22191 40.1019 2 42.3238 2 45.0546C2 47.7853 4.22191 50.0072 6.95265 50.0072C9.24409 50.0072 11.1768 48.4405 11.7369 46.3248H22.5208V56.7386L20.6284 56.7349C20.2111 56.7349 19.8231 56.9399 19.5851 57.284L15.101 63.7959H11.7371C11.177 61.6765 9.24428 60.1135 6.95284 60.1135C4.2221 60.1135 2.00019 62.3354 2.00019 65.0661C2.00019 67.7969 4.2221 70.0188 6.95284 70.0188C9.24428 70.0188 11.177 68.4521 11.7371 66.3363H15.7673C16.1846 66.3363 16.5726 66.1314 16.8105 65.7873L21.2947 59.2753H22.5209V64.9746C22.5209 66.4169 23.6959 67.5919 25.1382 67.5919H30.8375V68.8182L24.3255 73.3023C23.9815 73.5402 23.7765 73.9282 23.7765 74.3455V78.3757C21.6571 78.9358 20.094 80.8685 20.094 83.16C20.094 85.8907 22.3159 88.1126 25.0467 88.1126C27.7774 88.1126 29.9993 85.8907 29.9993 83.16C29.9993 80.8685 28.4326 78.9358 26.3169 78.3757V75.0118L32.8288 70.5277C33.1729 70.2897 33.3779 69.9017 33.3779 69.4844V67.592H43.7917L43.788 78.3647C41.6686 78.9247 40.1056 80.8575 40.1056 83.1489C40.1056 85.8797 42.3275 88.1016 45.0582 88.1016C47.789 88.1016 50.0109 85.8797 50.0109 83.1489C50.0109 80.8575 48.4442 78.9247 46.3285 78.3647L46.3211 67.5807H56.7349V69.4732C56.7349 69.8905 56.9399 70.2785 57.284 70.5164L63.7959 75.0005V78.3645C61.6765 78.9245 60.1098 80.8573 60.1098 83.1487C60.1098 85.8795 62.3317 88.1014 65.0625 88.1014C67.7932 88.1014 70.0151 85.8795 70.0151 83.1487C70.0151 80.8573 68.4484 78.9246 66.3327 78.3645V74.3343C66.3327 73.917 66.1277 73.529 65.7836 73.291L59.2717 68.8069V67.5807H64.971C66.4132 67.5807 67.5882 66.4056 67.5882 64.9634V59.2641H68.8145L73.2986 65.776C73.5366 66.1201 73.9246 66.3251 74.3419 66.3251H78.3721C78.9321 68.4445 80.8649 70.0075 83.1563 70.0075C85.8871 70.0075 88.109 67.7856 88.109 65.0549C88.1053 62.3278 85.8795 60.1098 83.1487 60.1098ZM83.1487 42.6314C84.4812 42.6314 85.5683 43.7149 85.5683 45.051C85.5683 46.3834 84.4848 47.4705 83.1487 47.4705C81.8163 47.4705 80.7329 46.3833 80.7329 45.051C80.7329 43.7186 81.8163 42.6314 83.1487 42.6314ZM83.1487 22.6229C84.4812 22.6229 85.5683 23.7063 85.5683 25.0424C85.5683 26.3749 84.4848 27.462 83.1487 27.462C81.8163 27.462 80.7292 26.3785 80.7292 25.0424C80.7329 23.71 81.8164 22.6229 83.1487 22.6229ZM62.6389 6.95212C62.6389 5.61968 63.7223 4.53258 65.0584 4.53258C66.3909 4.53258 67.478 5.61603 67.478 6.95212C67.478 8.28455 66.3945 9.37166 65.0584 9.37166C63.726 9.36799 62.6389 8.28446 62.6389 6.95212ZM42.6304 6.95212C42.6304 5.61968 43.7138 4.53258 45.0499 4.53258C46.3823 4.53258 47.4694 5.61603 47.4694 6.95212C47.4694 8.28455 46.3822 9.368 45.0499 9.368C43.7176 9.368 42.6304 8.28455 42.6304 6.95212ZM22.6218 6.95212C22.6218 5.61968 23.7053 4.53258 25.0414 4.53258C26.3738 4.53258 27.4609 5.61603 27.4609 6.95212C27.4609 8.28455 26.3775 9.37166 25.0414 9.37166C23.7089 9.36799 22.6218 8.28446 22.6218 6.95212ZM6.95106 27.462C5.61863 27.462 4.53152 26.3785 4.53152 25.0424C4.53152 23.71 5.61497 22.6229 6.95106 22.6229C8.28349 22.6229 9.3706 23.7063 9.3706 25.0424C9.36694 26.3749 8.2834 27.462 6.95106 27.462ZM6.95106 47.4705C5.61863 47.4705 4.53152 46.387 4.53152 45.051C4.53152 43.7185 5.61497 42.6314 6.95106 42.6314C8.28349 42.6314 9.3706 43.7149 9.3706 45.051C9.36694 46.3834 8.2834 47.4705 6.95106 47.4705ZM6.95106 67.479C5.61863 67.479 4.53152 66.3956 4.53152 65.0595C4.53152 63.727 5.61497 62.6399 6.95106 62.6399C8.28349 62.6399 9.3706 63.7234 9.3706 65.0595C9.36694 66.3919 8.2834 67.479 6.95106 67.479ZM27.4609 83.1498C27.4609 84.4822 26.3775 85.5693 25.0414 85.5693C23.7089 85.5693 22.6218 84.4859 22.6218 83.1498C22.6218 81.8174 23.7053 80.7303 25.0414 80.7303C26.3738 80.7339 27.4609 81.8175 27.4609 83.1498ZM47.4694 83.1498C47.4694 84.4822 46.386 85.5693 45.0499 85.5693C43.7175 85.5693 42.6304 84.4859 42.6304 83.1498C42.6304 81.8174 43.7138 80.7303 45.0499 80.7303C46.3823 80.7339 47.4694 81.8175 47.4694 83.1498ZM67.478 83.1498C67.478 84.4822 66.3945 85.5693 65.0584 85.5693C63.726 85.5693 62.6389 84.4859 62.6389 83.1498C62.6389 81.8174 63.7223 80.7303 65.0584 80.7303C66.3909 80.7339 67.478 81.8175 67.478 83.1498ZM65.0474 64.9648C65.0474 65.0088 65.0071 65.049 64.9632 65.049H25.1373C25.0934 65.049 25.0531 65.0088 25.0531 64.9648V25.139C25.0531 25.095 25.0934 25.0548 25.1373 25.0548H64.9632C65.0071 25.0548 65.0474 25.095 65.0474 25.139V64.9648ZM83.148 67.4796C81.8156 67.4796 80.7285 66.3961 80.7285 65.06C80.7285 63.7276 81.8119 62.6405 83.148 62.6405C84.4804 62.6405 85.5675 63.724 85.5675 65.06C85.5675 66.3925 84.4841 67.4796 83.148 67.4796ZM55.1602 39.2576H53.9559V37.1564C53.9559 32.2477 49.9624 28.2505 45.05 28.2505C40.1413 28.2505 36.1441 32.2441 36.1441 37.1564V39.2576H34.9398C33.3181 39.2576 31.9968 40.579 31.9968 42.2005V58.9143C31.9968 60.5359 33.3182 61.8573 34.9398 61.8573H55.1563C56.7779 61.8573 58.0993 60.5358 58.0993 58.9143L58.103 42.2005C58.0993 40.5753 56.7818 39.2576 55.1602 39.2576ZM38.677 37.1564C38.677 33.6424 41.5359 30.7835 45.0499 30.7835C48.564 30.7835 51.4228 33.6424 51.4228 37.1564V39.2576H38.6766L38.677 37.1564ZM55.5697 58.9107C55.5697 59.134 55.3831 59.3207 55.1598 59.3207H34.9395C34.7162 59.3207 34.5295 59.134 34.5295 58.9107V42.2007C34.5295 41.9774 34.7162 41.7908 34.9395 41.7908H55.156C55.3793 41.7908 55.566 41.9774 55.566 42.2007L55.5697 58.9107ZM45.0492 43.731C42.194 43.731 39.8696 46.0554 39.8696 48.9105C39.8696 50.5138 40.6164 52.0182 41.8609 52.992V56.1143C41.8609 56.8134 42.4283 57.3809 43.1275 57.3809H46.9674C47.6665 57.3809 48.2339 56.8135 48.2339 56.1143V52.992C49.4784 52.0182 50.2252 50.5138 50.2252 48.9105C50.2289 46.0553 47.9042 43.731 45.0492 43.731ZM46.3486 51.2167C45.9496 51.4399 45.7044 51.8646 45.7044 52.3185V54.8478H44.3939V52.3185C44.3939 51.8609 44.1487 51.44 43.7497 51.2167C42.9188 50.7481 42.4027 49.8623 42.4027 48.9106C42.4027 47.4501 43.5886 46.2641 45.0492 46.2641C46.5097 46.2641 47.6957 47.4501 47.6957 48.9106C47.6957 49.8623 47.1795 50.7481 46.3486 51.2167Z" fill="black"/>
</svg>
