<svg width="70" height="86" viewBox="0 0 70 86" fill="none" xmlns="http://www.w3.org/2000/svg">
<path d="M63.3547 57.7059C59.2149 57.7059 54.4766 61.0346 44.7351 68.2832C44.3198 66.6783 43.0838 64.8621 40.087 63.3166C33.8207 60.0805 25.9328 56.131 22.8299 54.5857C21.7268 54.0375 20.4909 53.7469 19.2549 53.7469H11.5235C11.5235 53.0171 10.9288 52.426 10.1945 52.426H2.22048C1.48621 52.426 0.891479 53.0171 0.891479 53.7469V74.8811C0.891479 75.6109 1.48621 76.202 2.22048 76.202H10.1945C10.9288 76.202 11.5235 75.6109 11.5235 74.8811H12.5203C13.3907 74.8811 14.2546 75.0958 15.0221 75.502L31.2925 84.1273C32.9206 84.9924 34.7612 85.4481 36.6085 85.4481H39.7815C42.4395 85.4481 45.0245 84.5103 47.0578 82.8064L69.5246 64.0037C69.8236 63.7527 69.9964 63.3828 69.9964 62.9932C69.9964 61.1637 68.6076 57.7096 63.3513 57.7096L63.3547 57.7059ZM3.55008 73.5566V55.0642H8.86609V73.5566H3.55008ZM45.3475 80.7852C43.7926 82.0863 41.8157 82.8028 39.7823 82.8028H36.6093C35.1939 82.8028 33.7918 82.4528 32.5426 81.7923L16.2722 73.1671C15.1226 72.5594 13.8235 72.2358 12.5177 72.2358H11.5209V56.3851H19.2524C20.0764 56.3851 20.9003 56.5767 21.6346 56.9465C24.7312 58.4919 32.6086 62.4315 38.8585 65.6614C42.892 67.7451 42.3205 69.8751 42.1345 70.5751C41.8621 71.5889 41.1776 72.4508 40.2009 72.999C39.244 73.5339 38.1143 73.6924 37.0977 73.4315L29.1934 70.978C28.4923 70.7601 27.7481 71.1497 27.5289 71.8432C27.3096 72.54 27.7016 73.2796 28.3993 73.4976L36.3334 75.9611C36.3534 75.9677 36.3667 75.971 36.3866 75.9743C36.9381 76.1196 37.5096 76.1922 38.0844 76.1922C39.2672 76.1922 40.4567 75.8884 41.5065 75.294C42.9618 74.4751 44.0283 73.2169 44.5566 71.7144C54.3908 64.3834 59.8471 60.345 63.3523 60.345C66.1964 60.345 67.0137 61.6395 67.2462 62.4486L45.3443 80.7829L45.3475 80.7852Z" fill="black"/>
<path d="M69.0365 24.7367L62.5576 22.8973C62.1057 21.3057 61.4678 19.7767 60.6571 18.3337L63.9298 12.4788C64.2155 11.9637 64.1291 11.3198 63.7072 10.9037L59.9461 7.16553C59.5275 6.74944 58.8796 6.65699 58.3612 6.94428L52.4704 10.197C51.0185 9.39126 49.4802 8.75725 47.8787 8.30811L46.0281 1.86877C45.8653 1.30078 45.3437 0.911133 44.7523 0.911133H39.4362C38.8448 0.911133 38.3199 1.3008 38.1604 1.86877L36.3098 8.30811C34.7083 8.75721 33.17 9.3912 31.7181 10.197L25.8273 6.94428C25.309 6.66028 24.6611 6.74614 24.2424 7.16553L20.4813 10.9037C20.0627 11.3197 19.9697 11.9637 20.2587 12.4788L23.5314 18.3337C22.7207 19.7767 22.0828 21.3057 21.6309 22.8973L15.152 24.7367C14.5805 24.8985 14.1885 25.4169 14.1885 26.0047V31.2883C14.1885 31.8761 14.5806 32.3978 15.152 32.5563L21.6309 34.3957C22.0828 35.9874 22.7207 37.5163 23.5314 38.9593L20.2587 44.8175C19.973 45.3326 20.0594 45.9766 20.4813 46.3927L24.2424 50.1308C24.6611 50.5469 25.3089 50.6393 25.8273 50.3521L31.7181 47.0993C33.17 47.9051 34.7083 48.5391 36.3098 48.9882L38.1604 55.4276C38.3232 55.9955 38.8448 56.3852 39.4362 56.3852H44.7523C45.3437 56.3852 45.8686 55.9955 46.0281 55.4276L47.8787 48.9882C49.4802 48.5391 51.0185 47.9051 52.4704 47.0993L58.3612 50.3521C58.8795 50.6393 59.5274 50.5502 59.9461 50.1308L63.7072 46.3927C64.1258 45.9766 64.2188 45.3327 63.9298 44.8175L60.6571 38.9593C61.4678 37.5163 62.1057 35.9874 62.5576 34.3957L69.0365 32.5563C69.6079 32.3945 70 31.8761 70 31.2883V26.0047C70 25.4169 69.6079 24.8952 69.0365 24.7367ZM67.342 30.291L61.0956 32.0643C60.6371 32.1964 60.2816 32.5597 60.1687 33.022C59.7168 34.8712 58.9826 36.6313 57.9891 38.256C57.7399 38.6622 57.73 39.1674 57.9626 39.5868L61.1156 45.227L58.7765 47.5518L53.1017 44.418C52.683 44.1868 52.1713 44.1967 51.7627 44.4444C50.128 45.4351 48.3572 46.1649 46.4966 46.6106C46.0314 46.7229 45.6659 47.073 45.533 47.5319L43.7488 53.7401H40.4396L38.6554 47.5319C38.5225 47.0762 38.157 46.7229 37.6919 46.6106C35.8313 46.1615 34.0604 45.4318 32.4257 44.4444C32.0171 44.1967 31.5087 44.1868 31.0868 44.418L25.4119 47.5518L23.0729 45.227L26.2259 39.5868C26.4585 39.1707 26.4485 38.6621 26.1993 38.256C25.2025 36.6313 24.4683 34.8712 24.0198 33.022C23.9068 32.5597 23.5546 32.1964 23.0928 32.0643L16.8465 30.291V27.002L23.0928 25.2287C23.5513 25.0966 23.9068 24.7334 24.0198 24.2711C24.4716 22.4218 25.2059 20.6618 26.1993 19.037C26.4485 18.6309 26.4585 18.1256 26.2259 17.7063L23.0729 12.066L25.4119 9.74128L31.0868 12.8751C31.5054 13.1062 32.0171 13.0963 32.4257 12.8486C34.0604 11.858 35.8313 11.1281 37.6919 10.6824C38.157 10.5701 38.5225 10.2201 38.6554 9.7611L40.4396 3.55288H43.7488L45.533 9.7611C45.6659 10.2168 46.0314 10.5701 46.4966 10.6824C48.3572 11.1315 50.128 11.8613 51.7627 12.8486C52.1714 13.0963 52.6797 13.1062 53.1017 12.8751L58.7765 9.74128L61.1156 12.066L57.9626 17.7063C57.73 18.1223 57.7399 18.6309 57.9891 19.037C58.9859 20.6618 59.7202 22.4218 60.1687 24.2711C60.2817 24.7334 60.6338 25.0966 61.0956 25.2287L67.342 27.002V30.291Z" fill="black"/>
<circle cx="42.5" cy="28.5" r="12.5" fill="#DD0004"/>
<path d="M42.0907 14.1162C34.0303 14.1162 27.4713 20.6348 27.4713 28.6464C27.4713 36.6581 34.0298 43.1766 42.0907 43.1766C50.1516 43.1766 56.7101 36.6581 56.7101 28.6464C56.7101 20.6348 50.1516 14.1162 42.0907 14.1162ZM42.0907 40.534C35.4955 40.534 30.1301 35.2009 30.1301 28.6464C30.1301 22.0919 35.496 16.7588 42.0907 16.7588C48.6854 16.7588 54.0513 22.0919 54.0513 28.6464C54.0513 35.2009 48.6854 40.534 42.0907 40.534Z" fill="black"/>
<path d="M46.4669 23.7495L39.6391 30.5355L37.8782 27.9135C37.4696 27.3059 36.6456 27.1408 36.0375 27.547C35.4262 27.9532 35.2601 28.7721 35.6687 29.3765L38.3267 33.3391C38.546 33.6693 38.9049 33.8807 39.3035 33.9203C39.3467 33.9269 39.3899 33.9269 39.4364 33.9269C39.7886 33.9269 40.1275 33.7882 40.3767 33.5406L48.3507 25.6152C48.869 25.1001 48.869 24.2613 48.3507 23.7462C47.8324 23.2311 46.9885 23.2311 46.4702 23.7462L46.4669 23.7495Z" fill="black"/>
</svg>
