<svg width="77" height="95" viewBox="0 0 77 95" fill="none" xmlns="http://www.w3.org/2000/svg">
<path d="M52.6234 85.7401L61.8766 93.0453L63.8247 92.0713L73.5649 81.844L74.539 75.9999V65.7726L66.7468 64.7986L61.3896 62.3635L54.0844 65.7726H48.2403L48.7273 78.922L52.6234 85.7401Z" fill="#DD0004"/>
<path fill-rule="evenodd" clip-rule="evenodd" d="M50.9209 85.4032H4.58599C3.63475 85.3985 2.72392 85.0158 2.05215 84.3384C1.38038 83.6611 1.00217 82.7441 1 81.7875V4.61775C1.0019 3.66083 1.37995 2.74348 2.05172 2.06576C2.72349 1.38804 3.63448 1.00494 4.58599 1H41.0917C41.379 0.999704 41.6547 1.11404 41.8582 1.31793L62.1706 18.829C62.2903 18.9314 62.3865 19.0588 62.4523 19.2024C62.5181 19.3459 62.5521 19.5021 62.5518 19.6602V61.4929L64.0643 62.4353C65.0901 63.0726 66.2077 63.5464 67.3776 63.84C68.5716 64.1359 69.798 64.279 71.0276 64.266L74.8998 64.2504C75.1877 64.2507 75.4637 64.3658 75.6673 64.5705C75.8709 64.7753 75.9854 65.0529 75.9856 65.3424V74.9354C76.1706 78.684 74.5517 82.122 72.2219 85.1237C69.9497 87.9052 67.3364 90.3862 64.4445 92.5077L62.1138 94.2844C61.9222 94.4308 61.6877 94.5089 61.4472 94.5064C61.2066 94.504 60.9737 94.4211 60.7852 94.2709L58.472 92.5046C55.6786 90.4499 53.1412 88.0646 50.9147 85.4L50.9209 85.4032ZM59.0826 79.2025V82.6737C59.083 83.2705 59.3064 83.8454 59.7087 84.2842C59.7314 84.3121 59.7555 84.3388 59.781 84.3642C60.0017 84.5864 60.2638 84.7627 60.5523 84.8831C60.8408 85.0034 61.1501 85.0653 61.4624 85.0653C61.7747 85.0653 62.084 85.0034 62.3725 84.8831C62.661 84.7627 62.9231 84.5864 63.1438 84.3642C63.3649 84.1432 63.5404 83.8805 63.6603 83.5911C63.7801 83.3017 63.8419 82.9914 63.8422 82.6779V79.2025C64.4304 78.8521 64.9356 78.377 65.3227 77.8102C65.8045 77.1033 66.0852 76.2775 66.1346 75.4219C66.184 74.5663 66.0001 73.7134 65.6028 72.9552C65.2056 72.1969 64.61 71.5622 63.8803 71.1194C63.1506 70.6766 62.3146 70.4426 61.4624 70.4426C60.6102 70.4426 59.7742 70.6766 59.0445 71.1194C58.3148 71.5622 57.7192 72.1969 57.322 72.9552C56.9247 73.7134 56.7408 74.5663 56.7902 75.4219C56.8396 76.2775 57.1203 77.1033 57.6021 77.8102C57.9892 78.377 58.4944 78.8521 59.0826 79.2025ZM59.3987 76.577C59.6704 76.9757 60.0501 77.2876 60.4928 77.4757C60.7156 77.5446 60.9105 77.6834 61.0491 77.8719C61.1876 78.0604 61.2624 78.2886 61.2625 78.523V82.6737C61.2625 82.7169 61.2758 82.759 61.3007 82.7943L61.3224 82.815C61.3406 82.8341 61.3624 82.8492 61.3866 82.8596C61.4107 82.8699 61.4367 82.8753 61.4629 82.8753C61.4891 82.8751 61.515 82.8697 61.5392 82.8593C61.5633 82.849 61.5851 82.8339 61.6034 82.815C61.64 82.7764 61.6603 82.725 61.6602 82.6717V78.523C61.6603 78.3026 61.7267 78.0875 61.8506 77.9057C61.9745 77.724 62.1501 77.5842 62.3545 77.5048C62.8394 77.3173 63.2543 76.9826 63.5414 76.5472C63.8286 76.1118 63.9738 75.5973 63.9569 75.0751C63.94 74.5529 63.7618 74.049 63.4471 73.6332C63.1325 73.2175 62.6969 72.9107 62.2008 72.7553C61.7048 72.5999 61.173 72.6038 60.6792 72.7662C60.1855 72.9287 59.7543 73.2417 59.4455 73.6619C59.1367 74.0821 58.9657 74.5886 58.9562 75.1109C58.9467 75.6333 59.0992 76.1457 59.3925 76.577H59.3987ZM60.7883 89.4012C60.9767 89.552 61.2098 89.6353 61.4506 89.6379C61.6914 89.6405 61.9263 89.5624 62.1179 89.4157C65.0089 87.3321 67.5778 84.8302 69.7414 81.9911C71.3174 80.02 72.1626 77.559 72.1321 75.0299V69.2365C72.1315 69.0931 72.1029 68.9512 72.0478 68.8189C71.9928 68.6867 71.9123 68.5666 71.8111 68.4656C71.7099 68.3646 71.5899 68.2846 71.4579 68.2302C71.326 68.1758 71.1847 68.1481 71.0421 68.1487C69.4173 68.1655 67.7975 67.9642 66.2256 67.5502C64.7558 67.1569 63.3515 66.5481 62.058 65.7434C61.8855 65.6319 61.685 65.5717 61.4799 65.5699C61.2748 65.568 61.0733 65.6246 60.8988 65.733C59.5991 66.5415 58.1878 67.1524 56.7105 67.5461C55.1688 67.9521 53.5808 68.1533 51.987 68.1445C51.955 68.1445 51.922 68.1445 51.8899 68.1445C51.601 68.1437 51.3236 68.2583 51.1187 68.463C50.9137 68.6678 50.798 68.946 50.7969 69.2365V75.0257C50.7673 77.5547 51.6124 80.0154 53.1875 81.987C55.3461 84.8199 57.9087 87.3168 60.7924 89.397L60.7883 89.4012ZM54.9542 80.7246C56.8118 83.1689 59.003 85.3375 61.4629 87.1663C63.9229 85.3376 66.1141 83.169 67.9716 80.7246C69.2492 79.1561 69.9518 77.1936 69.9614 75.166C69.9564 75.1229 69.954 75.0795 69.9542 75.0361V70.3067C68.5039 70.2491 67.0641 70.0324 65.6605 69.6604C64.1936 69.268 62.7831 68.6869 61.4639 67.9315C60.1444 68.6867 58.7336 69.2678 57.2663 69.6604C55.8628 70.0324 54.423 70.2491 52.9727 70.3067V75.0361C52.9727 75.0621 52.9727 75.0881 52.9727 75.113C52.9655 77.1587 53.6681 79.1429 54.9594 80.7236L54.9542 80.7246ZM60.373 61.4929V20.7543H42.8604C42.1026 20.7537 41.3759 20.4508 40.84 19.912C40.304 19.3732 40.0025 18.6425 40.0017 17.8804V3.19434H4.58599C4.40143 3.19432 4.21868 3.23103 4.04828 3.30236C3.87788 3.37368 3.7232 3.47822 3.59316 3.60994C3.46164 3.74247 3.35743 3.8998 3.28651 4.07293C3.2156 4.24605 3.17937 4.43155 3.17991 4.61879V81.7875C3.1794 81.9749 3.21564 82.1605 3.28655 82.3338C3.35746 82.5071 3.46165 82.6646 3.59316 82.7974C3.7232 82.9291 3.87788 83.0336 4.04828 83.1049C4.21868 83.1763 4.40143 83.213 4.58599 83.213H49.3598C48.3296 81.6198 47.5913 79.8541 47.1799 77.9993H11.2631C10.974 77.9993 10.6968 77.8838 10.4924 77.6783C10.288 77.4727 10.1732 77.1939 10.1732 76.9032C10.1732 76.6125 10.288 76.3337 10.4924 76.1281C10.6968 75.9226 10.974 75.8071 11.2631 75.8071H46.9268C46.9192 75.512 46.9233 75.2145 46.9392 74.9146V71.5898H11.2631C10.974 71.5898 10.6968 71.4743 10.4924 71.2688C10.288 71.0632 10.1732 70.7844 10.1732 70.4937C10.1732 70.203 10.288 69.9242 10.4924 69.7186C10.6968 69.513 10.974 69.3976 11.2631 69.3976H46.9371V65.3455C46.9371 65.0548 47.0519 64.776 47.2563 64.5704C47.4608 64.3649 47.738 64.2494 48.0271 64.2494C48.0612 64.2494 48.0942 64.2494 48.1304 64.2546L51.9023 64.2691C53.1311 64.2809 54.3564 64.1368 55.5493 63.84C56.7191 63.5464 57.8368 63.0726 58.8625 62.4353L60.375 61.4929H60.373ZM49.1118 66.4375V74.9135C49.1118 74.9343 49.1118 74.9541 49.1118 74.9738C48.9321 78.1469 50.3578 81.134 52.4106 83.7803C54.5667 86.4124 57.0444 88.7603 59.7851 90.7685L61.4608 92.0454L63.1397 90.7685C65.8815 88.7602 68.3603 86.4119 70.5173 83.7792C72.5556 81.1526 73.9741 78.1895 73.8233 75.0434C73.8179 75 73.8152 74.9563 73.815 74.9125V66.4375L71.0328 66.4489C69.6253 66.4646 68.2215 66.3012 66.8548 65.9627C65.4683 65.6134 64.144 65.0501 62.9289 64.293L61.4681 63.3829L60.0062 64.293C58.7913 65.0503 57.4669 65.6136 56.0803 65.9627C54.7136 66.3012 53.3098 66.4646 51.9023 66.4489L49.1201 66.4375H49.1118ZM11.2631 20.7543H33.7502C33.8961 20.7588 34.0414 20.7338 34.1775 20.6808C34.3136 20.6277 34.4378 20.5478 34.5425 20.4456C34.6473 20.3434 34.7306 20.2211 34.7875 20.0859C34.8444 19.9507 34.8737 19.8054 34.8737 19.6586C34.8737 19.5119 34.8444 19.3666 34.7875 19.2314C34.7306 19.0962 34.6473 18.9739 34.5425 18.8717C34.4378 18.7695 34.3136 18.6896 34.1775 18.6365C34.0414 18.5835 33.8961 18.5585 33.7502 18.563H11.2631C11.1172 18.5585 10.9719 18.5835 10.8358 18.6365C10.6997 18.6896 10.5756 18.7695 10.4708 18.8717C10.366 18.9739 10.2827 19.0962 10.2258 19.2314C10.1689 19.3666 10.1396 19.5119 10.1396 19.6586C10.1396 19.8054 10.1689 19.9507 10.2258 20.0859C10.2827 20.2211 10.366 20.3434 10.4708 20.4456C10.5756 20.5478 10.6997 20.6277 10.8358 20.6808C10.9719 20.7338 11.1172 20.7588 11.2631 20.7543ZM11.2631 13.2871H25.9429C26.226 13.2783 26.4946 13.159 26.6918 12.9545C26.889 12.75 26.9993 12.4763 26.9993 12.1914C26.9993 11.9066 26.889 11.6329 26.6918 11.4284C26.4946 11.2239 26.226 11.1046 25.9429 11.0958H11.2631C11.1172 11.0913 10.9719 11.1163 10.8358 11.1693C10.6997 11.2224 10.5756 11.3023 10.4708 11.4045C10.366 11.5067 10.2827 11.629 10.2258 11.7642C10.1689 11.8994 10.1396 12.0447 10.1396 12.1914C10.1396 12.3382 10.1689 12.4835 10.2258 12.6187C10.2827 12.7539 10.366 12.8762 10.4708 12.9784C10.5756 13.0806 10.6997 13.1605 10.8358 13.2136C10.9719 13.2666 11.1172 13.2916 11.2631 13.2871ZM30.2335 13.2871H33.7461C33.892 13.2916 34.0373 13.2666 34.1734 13.2136C34.3095 13.1605 34.4336 13.0806 34.5384 12.9784C34.6432 12.8762 34.7265 12.7539 34.7834 12.6187C34.8403 12.4835 34.8696 12.3382 34.8696 12.1914C34.8696 12.0447 34.8403 11.8994 34.7834 11.7642C34.7265 11.629 34.6432 11.5067 34.5384 11.4045C34.4336 11.3023 34.3095 11.2224 34.1734 11.1693C34.0373 11.1163 33.892 11.0913 33.7461 11.0958H30.2376C30.0917 11.0913 29.9464 11.1163 29.8103 11.1693C29.6742 11.2224 29.5501 11.3023 29.4453 11.4045C29.3405 11.5067 29.2572 11.629 29.2003 11.7642C29.1434 11.8994 29.1141 12.0447 29.1141 12.1914C29.1141 12.3382 29.1434 12.4835 29.2003 12.6187C29.2572 12.7539 29.3405 12.8762 29.4453 12.9784C29.5501 13.0806 29.6742 13.1605 29.8103 13.2136C29.9464 13.2666 30.0917 13.2916 30.2376 13.2871H30.2335ZM31.777 38.0388C30.9798 38.0386 30.1995 38.2693 29.5293 38.7034C28.8591 39.1374 28.3274 39.7564 27.9979 40.4863C27.6683 41.2163 27.5548 42.0262 27.671 42.8193C27.7871 43.6124 28.128 44.3551 28.6528 44.9585C27.5512 45.5354 26.6279 46.4049 25.9832 47.4724C25.3384 48.5399 24.9968 49.7647 24.9955 51.0137C24.991 51.1604 25.0158 51.3066 25.0686 51.4434C25.1213 51.5803 25.2008 51.7051 25.3024 51.8105C25.404 51.9159 25.5257 51.9997 25.6601 52.0569C25.7945 52.1141 25.939 52.1436 26.0849 52.1436C26.2309 52.1436 26.3753 52.1141 26.5098 52.0569C26.6442 51.9997 26.7658 51.9159 26.8674 51.8105C26.969 51.7051 27.0485 51.5803 27.1013 51.4434C27.154 51.3066 27.1788 51.1604 27.1744 51.0137C27.1744 49.7861 27.6593 48.6088 28.5224 47.7407C29.3856 46.8727 30.5563 46.385 31.777 46.385C32.9976 46.385 34.1683 46.8727 35.0315 47.7407C35.8946 48.6088 36.3795 49.7861 36.3795 51.0137C36.3751 51.1604 36.3999 51.3066 36.4526 51.4434C36.5054 51.5803 36.5849 51.7051 36.6865 51.8105C36.7881 51.9159 36.9097 51.9997 37.0441 52.0569C37.1786 52.1141 37.323 52.1436 37.469 52.1436C37.6149 52.1436 37.7594 52.1141 37.8938 52.0569C38.0282 51.9997 38.1499 51.9159 38.2515 51.8105C38.3531 51.7051 38.4326 51.5803 38.4853 51.4434C38.5381 51.3066 38.5629 51.1604 38.5584 51.0137C38.5572 49.7645 38.2156 48.5396 37.5706 47.472C36.9256 46.4045 36.002 45.5351 34.9001 44.9585C35.4249 44.3552 35.7657 43.6126 35.8819 42.8196C35.998 42.0266 35.8846 41.2167 35.5552 40.4868C35.2258 39.7569 34.6942 39.1379 34.0242 38.7038C33.3542 38.2697 32.574 38.0388 31.777 38.0388ZM33.1706 40.8109C32.8481 40.4858 32.4234 40.2833 31.9691 40.2379C31.5147 40.1925 31.0587 40.3069 30.6788 40.5617C30.299 40.8166 30.0187 41.196 29.8859 41.6354C29.7531 42.0747 29.7759 42.5468 29.9504 42.9711C30.1249 43.3955 30.4404 43.7458 30.843 43.9624C31.2457 44.179 31.7105 44.2485 32.1584 44.159C32.6063 44.0695 33.0094 43.8266 33.2991 43.4716C33.5888 43.1167 33.7472 42.6717 33.7471 42.2125C33.7477 41.9522 33.697 41.6943 33.5981 41.4538C33.4991 41.2132 33.3539 40.9947 33.1706 40.8109ZM31.777 32.5436C28.8941 32.5437 26.1005 33.549 23.872 35.3883C21.6436 37.2275 20.1182 39.787 19.5559 42.6305C18.9936 45.474 19.429 48.4256 20.7881 50.9824C22.1471 53.5392 24.3457 55.543 27.0091 56.6524C29.6726 57.7618 32.6361 57.9081 35.3948 57.0663C38.1535 56.2246 40.5366 54.447 42.1381 52.0363C43.7396 49.6256 44.4604 46.731 44.1776 43.8458C43.8949 40.9606 42.6261 38.2632 40.5875 36.2133C39.4317 35.0482 38.0583 34.1242 36.5463 33.4944C35.0343 32.8646 33.4135 32.5415 31.777 32.5436ZM39.0471 37.7635C37.3651 36.0714 35.1517 35.0183 32.7842 34.7834C30.4166 34.5486 28.0413 35.1466 26.063 36.4756C24.0848 37.8047 22.6259 39.7824 21.9351 42.0719C21.2444 44.3614 21.3643 46.8209 22.2747 49.0314C23.185 51.2419 24.8293 53.0665 26.9274 54.1944C29.0256 55.3223 31.4477 55.6836 33.781 55.2168C36.1144 54.7501 38.2146 53.484 39.7238 51.6345C41.233 49.785 42.0578 47.4664 42.0576 45.0738C42.0593 43.716 41.7943 42.3711 41.2776 41.1166C40.761 39.8621 40.003 38.7225 39.0471 37.7635ZM34.7689 29.8309L34.2978 27.5981H29.2561L28.785 29.835C28.7415 30.0399 28.6406 30.228 28.4941 30.3769C28.3476 30.5259 28.1617 30.6295 27.9585 30.6755C26.6826 31.0172 25.4584 31.5302 24.3188 32.2008C24.1321 32.3106 23.9172 32.362 23.7014 32.3485C23.4855 32.335 23.2786 32.2572 23.1069 32.1249L21.27 30.9228L17.7026 34.5073L18.9424 36.4253C19.0515 36.5947 19.1118 36.7912 19.1166 36.9929C19.1213 37.1947 19.0703 37.3938 18.9692 37.5682C18.6323 38.1469 18.3351 38.7482 18.0797 39.3677C17.8246 39.9863 17.6112 40.6215 17.4412 41.2691C17.3898 41.465 17.2853 41.6428 17.1394 41.7825C16.9935 41.9223 16.8118 42.0186 16.6147 42.0608L14.3914 42.5345V47.6058L16.6147 48.0796C16.8186 48.123 17.0058 48.2244 17.154 48.3718C17.3022 48.5191 17.4051 48.7063 17.4505 48.9108C17.7923 50.196 18.3056 51.4287 18.9765 52.5753C19.0854 52.7631 19.1364 52.9792 19.1229 53.1962C19.1095 53.4132 19.0323 53.6213 18.901 53.794L17.7026 55.6403L21.27 59.229L23.1772 57.9822C23.3456 57.8724 23.541 57.8118 23.7416 57.807C23.9422 57.8022 24.1402 57.8535 24.3136 57.9552C24.8892 58.2942 25.487 58.5934 26.103 58.8508C26.718 59.1066 27.3492 59.3208 27.9926 59.4919C28.1876 59.5432 28.3645 59.6482 28.5036 59.795C28.6426 59.9418 28.7383 60.1247 28.7798 60.323L29.252 62.5589H34.2937L34.7648 60.323C34.808 60.118 34.9089 59.9299 35.0554 59.7808C35.2019 59.6318 35.3879 59.5283 35.5913 59.4825C36.8672 59.1406 38.0915 58.6272 39.231 57.9562C39.4176 57.8467 39.6324 57.7955 39.848 57.8092C40.0637 57.8229 40.2704 57.9008 40.4418 58.0331L42.2787 59.2342L45.8461 55.6455L44.6064 53.7276C44.497 53.5583 44.4366 53.3619 44.4316 53.1601C44.4267 52.9583 44.4775 52.7591 44.5785 52.5847C45.2521 51.4268 45.7658 50.1821 46.1054 48.8848C46.1568 48.6888 46.2612 48.511 46.4071 48.3712C46.5531 48.2314 46.7348 48.1351 46.9319 48.0931L49.1552 47.6193V42.5387L46.9319 42.0649C46.728 42.0214 46.5408 41.9199 46.3925 41.7726C46.2441 41.6253 46.1409 41.4383 46.0951 41.2337C45.7563 39.9505 45.2472 38.719 44.5816 37.5723C44.4727 37.3845 44.4217 37.1684 44.4351 36.9515C44.4485 36.7345 44.5258 36.5264 44.657 36.3536L45.8513 34.5063L42.2839 30.9228L40.3767 32.1696C40.2082 32.2789 40.0128 32.3393 39.8123 32.3441C39.6118 32.3489 39.4138 32.2978 39.2403 32.1966C38.6643 31.858 38.0661 31.5591 37.4499 31.3021C36.8353 31.0452 36.204 30.831 35.5603 30.661C35.3655 30.6092 35.1888 30.5041 35.0498 30.3573C34.9108 30.2106 34.815 30.028 34.773 29.8298L34.7689 29.8309ZM36.3857 26.9508C36.2937 26.5131 36.0549 26.1205 35.7094 25.8387C35.3639 25.5569 34.9327 25.403 34.4879 25.4027H29.066C28.621 25.4028 28.1895 25.5566 27.8438 25.8384C27.4982 26.1202 27.2593 26.5129 27.1671 26.9508L26.7921 28.7326C26.2735 28.8926 25.7672 29.0755 25.2734 29.2812C24.7796 29.4869 24.2916 29.7183 23.8095 29.9753L22.2918 28.983C21.9204 28.7381 21.4763 28.6295 21.0345 28.6757C20.5928 28.7219 20.1804 28.92 19.867 29.2366L16.0331 33.0922C16.0052 33.1203 15.9794 33.1504 15.9546 33.1805C15.6708 33.4984 15.4992 33.9015 15.4665 34.3274C15.4338 34.7533 15.5418 35.1781 15.7738 35.5359L16.7604 37.0612C16.5104 37.5363 16.2807 38.0267 16.0713 38.5324C15.8619 39.038 15.6808 39.5492 15.5279 40.0659L13.7561 40.4441C13.321 40.5368 12.9308 40.7768 12.6504 41.124C12.3701 41.4711 12.2166 41.9045 12.2157 42.3517V47.8053C12.2164 48.2527 12.3698 48.6863 12.6501 49.0337C12.9305 49.3811 13.3209 49.6212 13.7561 49.7139L15.5279 50.0911C15.6856 50.6127 15.8674 51.1218 16.0734 51.6184C16.28 52.1254 16.5097 52.6162 16.7625 53.0907L15.7738 54.6117C15.5302 54.9852 15.4223 55.4318 15.4682 55.8761C15.5141 56.3204 15.7111 56.7351 16.0258 57.0502L19.8598 60.9059C19.8879 60.9339 19.9176 60.9603 19.9486 60.9849C20.2653 61.2691 20.6664 61.4403 21.0897 61.4718C21.513 61.5034 21.9348 61.3936 22.2897 61.1594L23.8074 60.1672C24.2785 60.4186 24.7661 60.6496 25.2703 60.8602C25.7641 61.068 26.2707 61.2512 26.79 61.4098L27.1651 63.1906C27.2573 63.6285 27.4963 64.0212 27.8419 64.3032C28.1875 64.5852 28.6189 64.7393 29.0639 64.7398H34.4858C34.9307 64.739 35.3618 64.5848 35.7073 64.3029C36.0527 64.0209 36.2914 63.6283 36.3837 63.1906L36.7597 61.4098C37.2784 61.2498 37.7846 61.0666 38.2784 60.8602C38.7723 60.6538 39.2603 60.4228 39.7424 60.1672L41.259 61.1594C41.6313 61.4044 42.0762 61.5129 42.5188 61.4668C42.9613 61.4206 43.3745 61.2225 43.6889 60.9059L47.5229 57.0502C47.8375 56.734 48.0344 56.3185 48.0805 55.8735C48.1266 55.4286 48.0191 54.9812 47.776 54.6065L46.7894 53.0803C47.0394 52.6065 47.2691 52.1161 47.4785 51.6091C47.6851 51.1124 47.8669 50.603 48.024 50.0807L49.7958 49.7036C50.231 49.6109 50.6213 49.3708 50.9016 49.0234C51.1818 48.676 51.3348 48.2423 51.3351 47.7949V42.3517C51.3348 41.9043 51.1818 41.4707 50.9016 41.1232C50.6213 40.7758 50.231 40.5357 49.7958 40.4431L48.026 40.0659C47.8669 39.5457 47.6851 39.0366 47.4805 38.5386C47.276 38.0406 47.0463 37.5502 46.7914 37.0674L47.7781 35.5411C48.0212 35.1664 48.1287 34.7191 48.0826 34.2741C48.0365 33.8292 47.8396 33.4137 47.525 33.0974L43.691 29.2417C43.3766 28.9251 42.9634 28.7271 42.5208 28.6809C42.0783 28.6347 41.6334 28.7433 41.2611 28.9882L39.7444 29.9805C39.272 29.7276 38.784 29.4963 38.2805 29.2864C37.777 29.0765 37.2708 28.8937 36.7618 28.7378L36.3857 26.956V26.9508ZM58.5226 18.5589L42.1806 4.47645V17.8794C42.1817 18.0603 42.2537 18.2334 42.3809 18.3612C42.5082 18.489 42.6805 18.5612 42.8604 18.562L58.5226 18.5589Z" fill="black" stroke="black" stroke-width="0.5"/>
</svg>
