<svg width="88" height="88" viewBox="0 0 88 88" fill="none" xmlns="http://www.w3.org/2000/svg">
<rect width="88" height="88" fill="white"/>
<path d="M25 82L13.5 63L10.5 65L7 68L8 70L20 84.5H22.5L25 82Z" fill="#DD0004"/>
<path d="M53 41.5L54 39L45.5 38L42.5 38.5L44.5 41.5H53Z" fill="#DD0004"/>
<path d="M51 47.5L51.5 45H46H44L45 47.5H51Z" fill="#DD0004"/>
<path d="M72.8409 53.4895C71.9424 52.4624 70.6835 51.824 69.3274 51.7076C67.9713 51.5912 66.6229 52.0058 65.5639 52.8649L54.4418 61.5417C54.2695 59.184 52.9141 56.7352 50.8579 56.3327C50.814 56.324 50.7695 56.3184 50.7247 56.3158C47.3691 56.1373 41.1996 54.4052 37.8911 53.2343C34.1934 51.8121 30.118 51.7288 26.3658 52.9987C23.0592 54.221 20.2746 56.5539 18.4839 59.6025L18.3808 59.7721C17.9369 60.5842 17.4113 61.3485 16.8123 62.0531C16.4497 61.8309 16.0267 61.7292 15.6033 61.7625C15.1799 61.7959 14.7778 61.9625 14.4541 62.2387L14.002 62.6242L13.7444 62.2128C13.6705 62.0947 13.5722 61.994 13.4561 61.9174C13.34 61.8409 13.2089 61.7903 13.0717 61.7691C12.9345 61.748 12.7943 61.7567 12.6607 61.7948C12.5271 61.8328 12.4033 61.8993 12.2975 61.9897L6.99141 66.5213C6.42271 67.0083 6.06948 67.7021 6.0092 68.4504C5.94893 69.1987 6.18652 69.9405 6.66988 70.5131L18.9271 85.003C19.4115 85.5747 20.102 85.93 20.8468 85.9907C21.5917 86.0514 22.3301 85.8127 22.9 85.327L25.7245 82.9175C25.9019 82.7661 26.019 82.5555 26.0543 82.3243C26.0895 82.0931 26.0405 81.857 25.9163 81.6592L25.7742 81.4307L28.6307 78.9864C28.8936 78.7621 29.0949 78.4737 29.2151 78.1489C29.3353 77.824 29.3705 77.4736 29.3173 77.1311C29.66 77.0385 30.0123 76.9867 30.3671 76.9767C31.4783 77.2252 32.5491 77.6299 33.5478 78.1788C36.1893 79.4005 39.806 81.0738 44.0943 81.2014C44.263 81.2058 44.4309 81.2085 44.5988 81.2085C49.4954 81.2085 54.1914 79.0891 58.5649 74.9037C63.6463 70.041 66.5667 67.2022 72.3444 60.7439C74.35 58.4986 74.5552 55.5162 72.8409 53.4895ZM21.6476 83.8384C21.4688 83.9892 21.238 84.0631 21.0053 84.0443C20.7726 84.0254 20.5566 83.9152 20.4041 83.7376L8.14696 69.2476C7.99701 69.0678 7.92356 68.8359 7.94251 68.6021C7.96146 68.3682 8.07128 68.1513 8.24821 67.9983L12.7034 64.1939L23.8344 81.9724L21.6476 83.8384ZM27.3739 77.5024L24.7341 79.7575L15.0412 64.2814L15.7056 63.7147C15.7138 63.7075 15.7234 63.7022 15.7338 63.6989C15.7442 63.6957 15.7551 63.6947 15.766 63.696C15.777 63.6966 15.7878 63.6995 15.7977 63.7044C15.8076 63.7093 15.8165 63.7161 15.8237 63.7245L27.3872 77.3855C27.3945 77.3936 27.4 77.4033 27.4034 77.4137C27.4067 77.4242 27.4079 77.4352 27.4067 77.4461C27.4056 77.4576 27.4021 77.4687 27.3964 77.4786C27.3908 77.4886 27.3831 77.4973 27.3739 77.5041V77.5024ZM70.9011 59.4437C65.1713 65.8485 62.2722 68.6667 57.2308 73.4999C47.727 82.6024 39.3575 78.7285 34.3587 76.4163C33.1437 75.7364 31.8219 75.2701 30.4506 75.0375C29.7021 75.0504 28.9596 75.1755 28.2479 75.4088L18.1446 63.4613C18.8745 62.641 19.5089 61.7398 20.0355 60.7751L20.1377 60.6056C23.7003 54.7157 30.2561 52.5909 37.248 55.0646C40.6409 56.2649 46.9809 58.0363 50.5426 58.2496C51.7453 58.5432 52.724 60.6939 52.4967 62.5715C52.3279 63.945 51.6085 64.608 50.3561 64.542L41.4483 64.0717C41.32 64.0653 41.1918 64.0844 41.0708 64.1279L37.4292 65.4397C37.2147 65.517 37.0341 65.6679 36.9194 65.8658C36.8047 66.0637 36.7632 66.2959 36.8022 66.5216C36.8411 66.7472 36.958 66.9518 37.1324 67.0993C37.3067 67.2468 37.5273 67.3279 37.7552 67.3281C37.8666 67.3279 37.9771 67.3086 38.082 67.2709L41.546 66.0216L50.2602 66.4812C51.025 66.5624 51.796 66.4011 52.465 66.0199C53.134 65.6387 53.6674 65.0567 53.9906 64.3555L66.7514 54.4025C67.4165 53.8513 68.2678 53.5796 69.1276 53.6439C69.9873 53.7083 70.7891 54.1038 71.3656 54.7478C72.6198 56.2319 72.0362 58.1756 70.9011 59.4437ZM17.8941 78.8222C17.7354 78.6249 17.6598 78.373 17.6833 78.1204C17.7068 77.8678 17.8276 77.6344 18.0199 77.47C18.2123 77.3057 18.4609 77.2233 18.7129 77.2405C18.9648 77.2577 19.2001 77.3731 19.3685 77.5621L21.0508 79.5504C21.21 79.7478 21.286 80 21.2625 80.253C21.2391 80.5059 21.1181 80.7397 20.9254 80.9042C20.7326 81.0687 20.4835 81.1509 20.2312 81.1332C19.979 81.1155 19.7436 80.9994 19.5755 80.8096L17.8941 78.8222ZM40.8985 35.0177C41.2953 35.2568 41.6224 35.5967 41.8468 36.0033C42.0712 36.4099 42.1849 36.8687 42.1766 37.3335V37.4165C42.0151 37.4966 41.879 37.6205 41.7839 37.7743C41.6888 37.9281 41.6384 38.1055 41.6384 38.2866V39.3494C41.6404 40.1364 41.907 40.8997 42.3951 41.5153C42.8831 42.1309 43.5639 42.5627 44.327 42.7405V44.1086H44.1582C43.9015 44.1086 43.6552 44.2111 43.4736 44.3935C43.2921 44.5759 43.1901 44.8233 43.1901 45.0813C43.1901 45.3393 43.2921 45.5867 43.4736 45.7691C43.6552 45.9516 43.9015 46.054 44.1582 46.054H44.327V46.2878C44.3277 47.016 44.6158 47.7141 45.1282 48.229C45.6405 48.744 46.3353 49.0337 47.06 49.0347H49.419C50.1437 49.0337 50.8385 48.744 51.3508 48.229C51.8632 47.7141 52.1513 47.016 52.152 46.2878V46.054H52.3208C52.5776 46.054 52.8238 45.9516 53.0054 45.7691C53.1869 45.5867 53.2889 45.3393 53.2889 45.0813C53.2889 44.8233 53.1869 44.5759 53.0054 44.3935C52.8238 44.2111 52.5776 44.1086 52.3208 44.1086H52.152V42.7432C52.9152 42.5655 53.5961 42.1337 54.0842 41.5181C54.5722 40.9025 54.8388 40.1391 54.8406 39.3521V38.2866C54.8407 38.1055 54.7903 37.9281 54.6952 37.7743C54.6 37.6205 54.464 37.4966 54.3024 37.4165V37.3335C54.2941 36.8687 54.4079 36.4099 54.6323 36.0033C54.8566 35.5967 55.1837 35.2568 55.5805 35.0177C58.1381 33.4154 60.1068 31.02 61.1889 28.1937C62.2711 25.3674 62.4079 22.2639 61.5785 19.3526C60.7491 16.4412 58.9988 13.8804 56.5922 12.0574C54.1855 10.2343 51.2535 9.24826 48.2395 9.24826C45.2255 9.24826 42.2935 10.2343 39.8869 12.0574C37.4802 13.8804 35.7299 16.4412 34.9005 19.3526C34.0712 22.2639 34.2079 25.3674 35.2901 28.1937C36.3722 31.02 38.341 33.4154 40.8985 35.0177ZM50.2193 46.2905C50.2193 46.5035 50.1351 46.7078 49.9852 46.8584C49.8353 47.0091 49.6319 47.0937 49.4199 47.0937H47.0626C46.8506 47.0937 46.6473 47.0091 46.4974 46.8584C46.3475 46.7078 46.2633 46.5035 46.2633 46.2905V46.0567H50.2167L50.2193 46.2905ZM46.2659 44.1113V42.836H50.2193V44.1113H46.2659ZM52.9079 39.3494C52.9072 39.7581 52.7452 40.1498 52.4575 40.4387C52.1698 40.7276 51.7799 40.8901 51.3731 40.8906H45.1113C44.7046 40.8901 44.3147 40.7276 44.0271 40.4387C43.7396 40.1497 43.5778 39.758 43.5773 39.3494V39.2602H52.9079V39.3494ZM48.2422 11.1923C50.8358 11.1923 53.3589 12.0409 55.4299 13.6097C57.5008 15.1786 59.007 17.3823 59.7206 19.8877C60.4341 22.393 60.3163 25.0637 59.3849 27.4958C58.4535 29.9278 56.7592 31.989 54.5582 33.3676C53.8855 33.7798 53.3305 34.3598 52.947 35.0513C52.5635 35.7428 52.3646 36.5223 52.3697 37.3138H44.1147C44.1198 36.5224 43.921 35.743 43.5376 35.0515C43.1543 34.3601 42.5995 33.78 41.9271 33.3676C39.7261 31.9891 38.0319 29.928 37.1004 27.496C36.169 25.064 36.0511 22.3934 36.7646 19.8881C37.478 17.3828 38.984 15.179 41.0548 13.6101C43.1257 12.0412 45.6486 11.1925 48.2422 11.1923ZM62.9686 23.1871C62.9686 22.9291 63.0706 22.6817 63.2521 22.4993C63.4337 22.3168 63.6799 22.2144 63.9367 22.2144H67.3661C67.6228 22.2144 67.8691 22.3168 68.0506 22.4993C68.2322 22.6817 68.3342 22.9291 68.3342 23.1871C68.3342 23.4451 68.2322 23.6925 68.0506 23.8749C67.8691 24.0573 67.6228 24.1598 67.3661 24.1598H63.9367C63.6799 24.1598 63.4337 24.0573 63.2521 23.8749C63.0706 23.6925 62.9686 23.4451 62.9686 23.1871ZM62.4499 36.0859C62.6315 36.2684 62.7335 36.5159 62.7335 36.7739C62.7335 37.032 62.6315 37.2795 62.4499 37.462C62.2682 37.6445 62.0219 37.747 61.7651 37.747C61.5082 37.747 61.2619 37.6445 61.0803 37.462L58.6519 35.0248C58.5583 34.9354 58.4834 34.828 58.4317 34.709C58.38 34.5901 58.3525 34.4619 58.3509 34.3321C58.3493 34.2023 58.3735 34.0735 58.4222 33.9533C58.4709 33.833 58.543 33.7238 58.6344 33.632C58.7257 33.5402 58.8345 33.4677 58.9541 33.4188C59.0738 33.3699 59.202 33.3455 59.3312 33.3472C59.4604 33.3488 59.5879 33.3764 59.7063 33.4284C59.8247 33.4803 59.9316 33.5555 60.0206 33.6496L62.4499 36.0859ZM47.274 7.41829V3.97272C47.274 3.71474 47.376 3.46732 47.5576 3.2849C47.7392 3.10248 47.9854 3 48.2422 3C48.4989 3 48.7452 3.10248 48.9268 3.2849C49.1083 3.46732 49.2103 3.71474 49.2103 3.97272V7.41829C49.2103 7.67627 49.1083 7.92369 48.9268 8.10611C48.7452 8.28853 48.4989 8.39101 48.2422 8.39101C47.9854 8.39101 47.7392 8.28853 47.5576 8.10611C47.376 7.92369 47.274 7.67627 47.274 7.41829ZM58.6519 12.7272C58.562 12.6369 58.4906 12.5298 58.4419 12.4118C58.3933 12.2938 58.3682 12.1673 58.3682 12.0396C58.3682 11.9119 58.3933 11.7854 58.4419 11.6674C58.4906 11.5495 58.562 11.4423 58.6519 11.352L61.0767 8.91575C61.2582 8.73327 61.5044 8.6307 61.7612 8.63062C62.018 8.63054 62.2642 8.73294 62.4459 8.9153C62.6275 9.09766 62.7296 9.34505 62.7296 9.60303C62.7297 9.86101 62.6278 10.1085 62.4463 10.2909L60.0242 12.7272C59.9344 12.8177 59.8277 12.8895 59.7103 12.9384C59.5929 12.9874 59.467 13.0126 59.3398 13.0126C59.2127 13.0126 59.0868 12.9874 58.9693 12.9384C58.8519 12.8895 58.7452 12.8177 58.6555 12.7272H58.6519ZM28.1502 23.1871C28.1502 22.9291 28.2522 22.6817 28.4337 22.4993C28.6153 22.3168 28.8615 22.2144 29.1183 22.2144H32.5485C32.8053 22.2144 33.0516 22.3168 33.2331 22.4993C33.4147 22.6817 33.5167 22.9291 33.5167 23.1871C33.5167 23.4451 33.4147 23.6925 33.2331 23.8749C33.0516 24.0573 32.8053 24.1598 32.5485 24.1598H29.1183C28.8615 24.1598 28.6153 24.0573 28.4337 23.8749C28.2522 23.6925 28.1502 23.4451 28.1502 23.1871ZM34.0354 10.2883C33.9417 10.1988 33.8669 10.0915 33.8152 9.9725C33.7635 9.85353 33.736 9.72537 33.7344 9.59557C33.7327 9.46578 33.757 9.33696 33.8057 9.21672C33.8544 9.09648 33.9265 8.98725 34.0179 8.89546C34.1092 8.80367 34.2179 8.73118 34.3376 8.68226C34.4573 8.63335 34.5855 8.60899 34.7147 8.61063C34.8439 8.61228 34.9714 8.63988 35.0898 8.69182C35.2082 8.74376 35.3151 8.81899 35.4041 8.91307L37.8298 11.3493C38.0116 11.5318 38.1139 11.7794 38.1141 12.0376C38.1142 12.2959 38.0123 12.5436 37.8307 12.7263C37.6491 12.909 37.4026 13.0118 37.1456 13.0119C36.8886 13.0121 36.642 12.9097 36.4602 12.7272L34.0354 10.2883ZM34.0354 37.462C33.9454 37.3716 33.8741 37.2644 33.8254 37.1463C33.7767 37.0283 33.7516 36.9017 33.7516 36.7739C33.7516 36.6461 33.7767 36.5196 33.8254 36.4015C33.8741 36.2835 33.9454 36.1762 34.0354 36.0859L36.4602 33.6496C36.5492 33.5555 36.6561 33.4803 36.7745 33.4284C36.8929 33.3764 37.0204 33.3488 37.1496 33.3472C37.2788 33.3455 37.407 33.3699 37.5267 33.4188C37.6463 33.4677 37.7551 33.5402 37.8464 33.632C37.9378 33.7238 38.0099 33.833 38.0586 33.9533C38.1073 34.0735 38.1315 34.2023 38.1299 34.3321C38.1283 34.4619 38.1008 34.5901 38.0491 34.709C37.9974 34.828 37.9225 34.9354 37.8289 35.0248L35.4041 37.462C35.2226 37.6443 34.9764 37.7467 34.7197 37.7467C34.4631 37.7467 34.2169 37.6443 34.0354 37.462Z" fill="black"/>
</svg>
