<svg width="88" height="88" viewBox="0 0 88 88" fill="none" xmlns="http://www.w3.org/2000/svg">
<path d="M38.0625 39.0625L47.8125 48H50.0625L55.5 42.8125C58.3333 37.8333 64.0125 27.7625 64.0625 27.3125C64.1125 26.8625 63.3333 24.75 62.9375 23.75L60.1875 19.75L56.25 18.5L52.1875 19.75L48.8125 23.375L47.3125 23.75L44.875 20.1875L40.5625 18.5L35.875 20.1875L32.5 23.0625L33.25 30.5625L38.0625 39.0625Z" fill="#DD0004"/>
<mask id="path-2-outside-1_18_75" maskUnits="userSpaceOnUse" x="3.24924" y="1.0202" width="74" height="86" fill="black">
<rect fill="white" x="3.24924" y="1.0202" width="74" height="86"/>
<path d="M72.9962 49.4695C71.6238 48.3433 69.3963 47.9434 67.7481 49.7233L59.8402 58.2649C59.4108 55.9229 57.3551 54.143 54.8909 54.143H41.3579L39.8519 53.2736C38.1054 52.2648 36.3523 51.7953 34.3347 51.7953H28.6658C25.6853 51.7953 23.0627 52.8794 20.8715 55.0191L13.6612 62.0595L11.887 60.2853C11.4948 59.8921 10.8573 59.8921 10.4641 60.2853L4.54414 66.2053C4.35517 66.3942 4.24924 66.65 4.24924 66.9163C4.24924 67.1825 4.35517 67.4393 4.54414 67.6273L23.1448 86.2279C23.3414 86.4245 23.5981 86.5228 23.8558 86.5228C24.1135 86.5228 24.3711 86.4245 24.5668 86.2279L30.4867 80.308C30.6757 80.119 30.7816 79.8632 30.7816 79.597C30.7816 79.3307 30.6757 79.074 30.4867 78.886L28.6734 77.0727L29.6545 75.9456C30.5917 74.869 31.7904 74.3231 33.2181 74.3231H53.7132C57.4973 74.3231 60.8624 72.5566 63.1891 69.348L73.7826 54.7405C75.1626 52.8374 74.4306 50.6481 72.9943 49.4695H72.9962ZM23.8558 84.0949L6.6781 66.9172L11.1751 62.4203L28.3528 79.5979L23.8558 84.0949ZM72.1544 53.5599L61.561 68.1675C59.595 70.8788 56.8817 72.3113 53.7141 72.3113H33.2191C31.213 72.3113 29.456 73.1111 28.138 74.6247L27.2476 75.6468L15.0832 63.4825L22.2763 56.4593C24.1039 54.6756 26.193 53.808 28.6648 53.808H34.3338C36.0058 53.808 37.3973 54.1812 38.8451 55.0172L40.5839 56.0212C40.7366 56.109 40.9103 56.1558 41.0869 56.1558H54.8899C56.5543 56.1558 57.9095 57.51 57.9095 59.1754C57.9095 59.915 57.6356 60.6279 57.1384 61.1834C56.5629 61.8266 55.7441 62.195 54.8899 62.195H43.1226C42.5671 62.195 42.1167 62.6455 42.1167 63.2009C42.1167 63.7564 42.5671 64.2068 43.1226 64.2068H54.8899C56.3081 64.2068 57.6671 63.5989 58.6234 62.5395L58.6263 62.5367L69.2236 51.09C70.0443 50.2034 71.0808 50.5002 71.7192 51.0241C72.3768 51.5634 72.8855 52.5521 72.1544 53.5599ZM47.1576 8.22169V3.02611C47.1576 2.47066 47.6081 2.0202 48.1635 2.0202C48.719 2.0202 49.1694 2.47066 49.1694 3.02611V8.22169C49.1694 8.77713 48.719 9.22759 48.1635 9.22759C47.6081 9.22759 47.1576 8.77713 47.1576 8.22169ZM31.3686 7.79604C31.0908 7.31504 31.2559 6.69947 31.7369 6.42175C32.218 6.14403 32.8335 6.30913 33.1112 6.79013L35.709 11.289C35.9867 11.77 35.8216 12.3856 35.3406 12.6633C35.1822 12.7549 35.0095 12.7979 34.8386 12.7979C34.4913 12.7979 34.1525 12.6175 33.9664 12.2949L31.3686 7.79604ZM19.7119 18.4468C19.9896 17.9658 20.6052 17.8007 21.0862 18.0784L25.5851 20.6762C26.0661 20.9539 26.2312 21.5695 25.9535 22.0505C25.7674 22.3731 25.4286 22.5534 25.0812 22.5534C24.9104 22.5534 24.7376 22.5095 24.5792 22.4189L20.0803 19.8211C19.5993 19.5434 19.4342 18.9278 19.7119 18.4468ZM60.618 11.289L63.2158 6.79013C63.4935 6.30913 64.1082 6.14403 64.5901 6.42175C65.0711 6.69947 65.2362 7.31504 64.9585 7.79604L62.3607 12.2949C62.1746 12.6175 61.8358 12.7979 61.4884 12.7979C61.3176 12.7979 61.1449 12.754 60.9864 12.6633C60.5054 12.3856 60.3403 11.77 60.618 11.289ZM76.2468 19.8201L71.7479 22.4179C71.5895 22.5095 71.4167 22.5525 71.2459 22.5525C70.8985 22.5525 70.5597 22.3721 70.3736 22.0495C70.0959 21.5685 70.261 20.953 70.742 20.6752L75.2409 18.0774C75.7219 17.7997 76.3374 17.9648 76.6152 18.4458C76.8929 18.9268 76.7278 19.5424 76.2468 19.8201ZM26.0814 33.8665C26.6368 33.8665 27.0873 34.317 27.0873 34.8724C27.0873 35.4279 26.6368 35.8783 26.0814 35.8783H20.8858C20.3303 35.8783 19.8799 35.4279 19.8799 34.8724C19.8799 34.317 20.3303 33.8665 20.8858 33.8665H26.0814ZM76.4472 34.8724C76.4472 35.4279 75.9967 35.8783 75.4413 35.8783H70.2457C69.6903 35.8783 69.2398 35.4279 69.2398 34.8724C69.2398 34.317 69.6903 33.8665 70.2457 33.8665H75.4413C75.9967 33.8665 76.4472 34.317 76.4472 34.8724ZM31.568 26.0999C31.568 34.3112 39.6429 42.3862 47.4525 50.1948C47.6491 50.3914 47.9068 50.4897 48.1635 50.4897C48.4203 50.4897 48.6789 50.3914 48.8745 50.1948C56.6832 42.3862 64.7581 34.3112 64.7581 26.0999C64.7581 21.2469 60.8099 17.2996 55.9579 17.2996C52.0888 17.2996 49.9091 19.1425 48.1635 22.0495C46.418 19.1425 44.2382 17.2996 40.3692 17.2996C35.5162 17.2996 31.568 21.2479 31.568 26.0999ZM40.3683 19.3114C43.5463 19.3114 45.2852 20.6466 47.2636 24.6015C47.4334 24.9422 47.7827 25.1579 48.1635 25.1579C48.5443 25.1579 48.8927 24.9422 49.0635 24.6015C51.041 20.6466 52.7808 19.3114 55.9588 19.3114C59.7018 19.3114 62.7472 22.3568 62.7472 26.0999C62.7472 33.2462 55.4539 40.7637 48.1645 48.0608C40.8741 40.7637 33.5808 33.2452 33.5808 26.0999C33.5808 22.3568 36.6252 19.3114 40.3683 19.3114Z"/>
</mask>
<path d="M72.9962 49.4695C71.6238 48.3433 69.3963 47.9434 67.7481 49.7233L59.8402 58.2649C59.4108 55.9229 57.3551 54.143 54.8909 54.143H41.3579L39.8519 53.2736C38.1054 52.2648 36.3523 51.7953 34.3347 51.7953H28.6658C25.6853 51.7953 23.0627 52.8794 20.8715 55.0191L13.6612 62.0595L11.887 60.2853C11.4948 59.8921 10.8573 59.8921 10.4641 60.2853L4.54414 66.2053C4.35517 66.3942 4.24924 66.65 4.24924 66.9163C4.24924 67.1825 4.35517 67.4393 4.54414 67.6273L23.1448 86.2279C23.3414 86.4245 23.5981 86.5228 23.8558 86.5228C24.1135 86.5228 24.3711 86.4245 24.5668 86.2279L30.4867 80.308C30.6757 80.119 30.7816 79.8632 30.7816 79.597C30.7816 79.3307 30.6757 79.074 30.4867 78.886L28.6734 77.0727L29.6545 75.9456C30.5917 74.869 31.7904 74.3231 33.2181 74.3231H53.7132C57.4973 74.3231 60.8624 72.5566 63.1891 69.348L73.7826 54.7405C75.1626 52.8374 74.4306 50.6481 72.9943 49.4695H72.9962ZM23.8558 84.0949L6.6781 66.9172L11.1751 62.4203L28.3528 79.5979L23.8558 84.0949ZM72.1544 53.5599L61.561 68.1675C59.595 70.8788 56.8817 72.3113 53.7141 72.3113H33.2191C31.213 72.3113 29.456 73.1111 28.138 74.6247L27.2476 75.6468L15.0832 63.4825L22.2763 56.4593C24.1039 54.6756 26.193 53.808 28.6648 53.808H34.3338C36.0058 53.808 37.3973 54.1812 38.8451 55.0172L40.5839 56.0212C40.7366 56.109 40.9103 56.1558 41.0869 56.1558H54.8899C56.5543 56.1558 57.9095 57.51 57.9095 59.1754C57.9095 59.915 57.6356 60.6279 57.1384 61.1834C56.5629 61.8266 55.7441 62.195 54.8899 62.195H43.1226C42.5671 62.195 42.1167 62.6455 42.1167 63.2009C42.1167 63.7564 42.5671 64.2068 43.1226 64.2068H54.8899C56.3081 64.2068 57.6671 63.5989 58.6234 62.5395L58.6263 62.5367L69.2236 51.09C70.0443 50.2034 71.0808 50.5002 71.7192 51.0241C72.3768 51.5634 72.8855 52.5521 72.1544 53.5599ZM47.1576 8.22169V3.02611C47.1576 2.47066 47.6081 2.0202 48.1635 2.0202C48.719 2.0202 49.1694 2.47066 49.1694 3.02611V8.22169C49.1694 8.77713 48.719 9.22759 48.1635 9.22759C47.6081 9.22759 47.1576 8.77713 47.1576 8.22169ZM31.3686 7.79604C31.0908 7.31504 31.2559 6.69947 31.7369 6.42175C32.218 6.14403 32.8335 6.30913 33.1112 6.79013L35.709 11.289C35.9867 11.77 35.8216 12.3856 35.3406 12.6633C35.1822 12.7549 35.0095 12.7979 34.8386 12.7979C34.4913 12.7979 34.1525 12.6175 33.9664 12.2949L31.3686 7.79604ZM19.7119 18.4468C19.9896 17.9658 20.6052 17.8007 21.0862 18.0784L25.5851 20.6762C26.0661 20.9539 26.2312 21.5695 25.9535 22.0505C25.7674 22.3731 25.4286 22.5534 25.0812 22.5534C24.9104 22.5534 24.7376 22.5095 24.5792 22.4189L20.0803 19.8211C19.5993 19.5434 19.4342 18.9278 19.7119 18.4468ZM60.618 11.289L63.2158 6.79013C63.4935 6.30913 64.1082 6.14403 64.5901 6.42175C65.0711 6.69947 65.2362 7.31504 64.9585 7.79604L62.3607 12.2949C62.1746 12.6175 61.8358 12.7979 61.4884 12.7979C61.3176 12.7979 61.1449 12.754 60.9864 12.6633C60.5054 12.3856 60.3403 11.77 60.618 11.289ZM76.2468 19.8201L71.7479 22.4179C71.5895 22.5095 71.4167 22.5525 71.2459 22.5525C70.8985 22.5525 70.5597 22.3721 70.3736 22.0495C70.0959 21.5685 70.261 20.953 70.742 20.6752L75.2409 18.0774C75.7219 17.7997 76.3374 17.9648 76.6152 18.4458C76.8929 18.9268 76.7278 19.5424 76.2468 19.8201ZM26.0814 33.8665C26.6368 33.8665 27.0873 34.317 27.0873 34.8724C27.0873 35.4279 26.6368 35.8783 26.0814 35.8783H20.8858C20.3303 35.8783 19.8799 35.4279 19.8799 34.8724C19.8799 34.317 20.3303 33.8665 20.8858 33.8665H26.0814ZM76.4472 34.8724C76.4472 35.4279 75.9967 35.8783 75.4413 35.8783H70.2457C69.6903 35.8783 69.2398 35.4279 69.2398 34.8724C69.2398 34.317 69.6903 33.8665 70.2457 33.8665H75.4413C75.9967 33.8665 76.4472 34.317 76.4472 34.8724ZM31.568 26.0999C31.568 34.3112 39.6429 42.3862 47.4525 50.1948C47.6491 50.3914 47.9068 50.4897 48.1635 50.4897C48.4203 50.4897 48.6789 50.3914 48.8745 50.1948C56.6832 42.3862 64.7581 34.3112 64.7581 26.0999C64.7581 21.2469 60.8099 17.2996 55.9579 17.2996C52.0888 17.2996 49.9091 19.1425 48.1635 22.0495C46.418 19.1425 44.2382 17.2996 40.3692 17.2996C35.5162 17.2996 31.568 21.2479 31.568 26.0999ZM40.3683 19.3114C43.5463 19.3114 45.2852 20.6466 47.2636 24.6015C47.4334 24.9422 47.7827 25.1579 48.1635 25.1579C48.5443 25.1579 48.8927 24.9422 49.0635 24.6015C51.041 20.6466 52.7808 19.3114 55.9588 19.3114C59.7018 19.3114 62.7472 22.3568 62.7472 26.0999C62.7472 33.2462 55.4539 40.7637 48.1645 48.0608C40.8741 40.7637 33.5808 33.2452 33.5808 26.0999C33.5808 22.3568 36.6252 19.3114 40.3683 19.3114Z" fill="black"/>
<path d="M72.9962 49.4695C71.6238 48.3433 69.3963 47.9434 67.7481 49.7233L59.8402 58.2649C59.4108 55.9229 57.3551 54.143 54.8909 54.143H41.3579L39.8519 53.2736C38.1054 52.2648 36.3523 51.7953 34.3347 51.7953H28.6658C25.6853 51.7953 23.0627 52.8794 20.8715 55.0191L13.6612 62.0595L11.887 60.2853C11.4948 59.8921 10.8573 59.8921 10.4641 60.2853L4.54414 66.2053C4.35517 66.3942 4.24924 66.65 4.24924 66.9163C4.24924 67.1825 4.35517 67.4393 4.54414 67.6273L23.1448 86.2279C23.3414 86.4245 23.5981 86.5228 23.8558 86.5228C24.1135 86.5228 24.3711 86.4245 24.5668 86.2279L30.4867 80.308C30.6757 80.119 30.7816 79.8632 30.7816 79.597C30.7816 79.3307 30.6757 79.074 30.4867 78.886L28.6734 77.0727L29.6545 75.9456C30.5917 74.869 31.7904 74.3231 33.2181 74.3231H53.7132C57.4973 74.3231 60.8624 72.5566 63.1891 69.348L73.7826 54.7405C75.1626 52.8374 74.4306 50.6481 72.9943 49.4695H72.9962ZM23.8558 84.0949L6.6781 66.9172L11.1751 62.4203L28.3528 79.5979L23.8558 84.0949ZM72.1544 53.5599L61.561 68.1675C59.595 70.8788 56.8817 72.3113 53.7141 72.3113H33.2191C31.213 72.3113 29.456 73.1111 28.138 74.6247L27.2476 75.6468L15.0832 63.4825L22.2763 56.4593C24.1039 54.6756 26.193 53.808 28.6648 53.808H34.3338C36.0058 53.808 37.3973 54.1812 38.8451 55.0172L40.5839 56.0212C40.7366 56.109 40.9103 56.1558 41.0869 56.1558H54.8899C56.5543 56.1558 57.9095 57.51 57.9095 59.1754C57.9095 59.915 57.6356 60.6279 57.1384 61.1834C56.5629 61.8266 55.7441 62.195 54.8899 62.195H43.1226C42.5671 62.195 42.1167 62.6455 42.1167 63.2009C42.1167 63.7564 42.5671 64.2068 43.1226 64.2068H54.8899C56.3081 64.2068 57.6671 63.5989 58.6234 62.5395L58.6263 62.5367L69.2236 51.09C70.0443 50.2034 71.0808 50.5002 71.7192 51.0241C72.3768 51.5634 72.8855 52.5521 72.1544 53.5599ZM47.1576 8.22169V3.02611C47.1576 2.47066 47.6081 2.0202 48.1635 2.0202C48.719 2.0202 49.1694 2.47066 49.1694 3.02611V8.22169C49.1694 8.77713 48.719 9.22759 48.1635 9.22759C47.6081 9.22759 47.1576 8.77713 47.1576 8.22169ZM31.3686 7.79604C31.0908 7.31504 31.2559 6.69947 31.7369 6.42175C32.218 6.14403 32.8335 6.30913 33.1112 6.79013L35.709 11.289C35.9867 11.77 35.8216 12.3856 35.3406 12.6633C35.1822 12.7549 35.0095 12.7979 34.8386 12.7979C34.4913 12.7979 34.1525 12.6175 33.9664 12.2949L31.3686 7.79604ZM19.7119 18.4468C19.9896 17.9658 20.6052 17.8007 21.0862 18.0784L25.5851 20.6762C26.0661 20.9539 26.2312 21.5695 25.9535 22.0505C25.7674 22.3731 25.4286 22.5534 25.0812 22.5534C24.9104 22.5534 24.7376 22.5095 24.5792 22.4189L20.0803 19.8211C19.5993 19.5434 19.4342 18.9278 19.7119 18.4468ZM60.618 11.289L63.2158 6.79013C63.4935 6.30913 64.1082 6.14403 64.5901 6.42175C65.0711 6.69947 65.2362 7.31504 64.9585 7.79604L62.3607 12.2949C62.1746 12.6175 61.8358 12.7979 61.4884 12.7979C61.3176 12.7979 61.1449 12.754 60.9864 12.6633C60.5054 12.3856 60.3403 11.77 60.618 11.289ZM76.2468 19.8201L71.7479 22.4179C71.5895 22.5095 71.4167 22.5525 71.2459 22.5525C70.8985 22.5525 70.5597 22.3721 70.3736 22.0495C70.0959 21.5685 70.261 20.953 70.742 20.6752L75.2409 18.0774C75.7219 17.7997 76.3374 17.9648 76.6152 18.4458C76.8929 18.9268 76.7278 19.5424 76.2468 19.8201ZM26.0814 33.8665C26.6368 33.8665 27.0873 34.317 27.0873 34.8724C27.0873 35.4279 26.6368 35.8783 26.0814 35.8783H20.8858C20.3303 35.8783 19.8799 35.4279 19.8799 34.8724C19.8799 34.317 20.3303 33.8665 20.8858 33.8665H26.0814ZM76.4472 34.8724C76.4472 35.4279 75.9967 35.8783 75.4413 35.8783H70.2457C69.6903 35.8783 69.2398 35.4279 69.2398 34.8724C69.2398 34.317 69.6903 33.8665 70.2457 33.8665H75.4413C75.9967 33.8665 76.4472 34.317 76.4472 34.8724ZM31.568 26.0999C31.568 34.3112 39.6429 42.3862 47.4525 50.1948C47.6491 50.3914 47.9068 50.4897 48.1635 50.4897C48.4203 50.4897 48.6789 50.3914 48.8745 50.1948C56.6832 42.3862 64.7581 34.3112 64.7581 26.0999C64.7581 21.2469 60.8099 17.2996 55.9579 17.2996C52.0888 17.2996 49.9091 19.1425 48.1635 22.0495C46.418 19.1425 44.2382 17.2996 40.3692 17.2996C35.5162 17.2996 31.568 21.2479 31.568 26.0999ZM40.3683 19.3114C43.5463 19.3114 45.2852 20.6466 47.2636 24.6015C47.4334 24.9422 47.7827 25.1579 48.1635 25.1579C48.5443 25.1579 48.8927 24.9422 49.0635 24.6015C51.041 20.6466 52.7808 19.3114 55.9588 19.3114C59.7018 19.3114 62.7472 22.3568 62.7472 26.0999C62.7472 33.2462 55.4539 40.7637 48.1645 48.0608C40.8741 40.7637 33.5808 33.2452 33.5808 26.0999C33.5808 22.3568 36.6252 19.3114 40.3683 19.3114Z" stroke="black" stroke-width="0.4" mask="url(#path-2-outside-1_18_75)"/>
</svg>
