<svg width="88" height="88" viewBox="0 0 88 88" fill="none" xmlns="http://www.w3.org/2000/svg">
<mask id="path-1-outside-1_4_607" maskUnits="userSpaceOnUse" x="2" y="11.5076" width="84" height="65" fill="black">
<rect fill="white" x="2" y="11.5076" width="84" height="65"/>
<path fill-rule="evenodd" clip-rule="evenodd" d="M57.5187 38.388C57.5187 38.8791 57.1208 39.2805 56.6261 39.2805C56.135 39.2805 55.7335 38.8827 55.7335 38.388V30.6059L54.081 32.2619C53.7333 32.6096 53.167 32.6096 52.8193 32.2619C52.4716 31.9142 52.4716 31.3479 52.8193 31.0002L55.9916 27.8278C56.0023 27.8171 56.0167 27.8028 56.031 27.792L56.0812 27.7418L56.0884 27.7382L56.0991 27.7275H56.1027L56.1063 27.7239L56.1206 27.7131L56.1278 27.706L56.1385 27.6988L56.1457 27.6916L56.1887 27.663L56.1959 27.6594L56.2067 27.6558L56.2102 27.6522C56.2174 27.6486 56.2282 27.6415 56.2353 27.6379L56.2461 27.6343C56.3608 27.5805 56.4863 27.5518 56.6225 27.5518C56.7551 27.5518 56.8841 27.5805 56.9989 27.6343L57.0096 27.6379L57.0168 27.6415H57.0204L57.0311 27.645L57.0347 27.6486L57.0634 27.663H57.067L57.0885 27.6773L57.1243 27.6988L57.1386 27.7096H57.1422L57.1566 27.7203H57.1602L60.4257 30.9859C60.7734 31.3336 60.7734 31.8999 60.4257 32.2476C60.078 32.5953 59.5116 32.5953 59.1639 32.2476L57.5079 30.5915L57.515 38.388L57.5187 38.388ZM64.2756 43.2702H58.9274C58.7052 47.0447 57.085 50.4393 54.5758 52.9486C51.8694 55.6549 48.1343 57.3289 44.0044 57.3289C39.8786 57.3289 36.1399 55.6549 33.4331 52.9486C30.9239 50.4394 29.3037 47.0412 29.0814 43.2702H12.6674V46.5106L24.518 47.7795C24.8585 47.8153 25.1596 48.0447 25.2707 48.3924C25.432 48.8979 25.6184 49.4033 25.8263 49.9051C26.0342 50.4069 26.2601 50.8944 26.5038 51.364C26.6615 51.6687 26.6364 52.0486 26.407 52.3318L18.9225 61.612L24.7654 67.4549L34.0281 59.9846C34.2934 59.7588 34.6805 59.7015 35.0103 59.8735C35.4834 60.1173 35.971 60.3431 36.4764 60.5546C36.9675 60.7589 37.455 60.9382 37.9461 61.0959C38.2902 61.1891 38.5591 61.4866 38.5985 61.8594L39.8674 73.7136H48.1298L49.3988 61.8594C49.4346 61.5224 49.664 61.2177 50.0117 61.1066C50.5172 60.9453 51.0226 60.7589 51.5244 60.551C52.0262 60.3431 52.5137 60.1173 52.9833 59.8735C53.288 59.7158 53.6679 59.7409 53.9511 59.9703L63.2313 67.4548L69.0742 61.612L61.6039 52.3492C61.3781 52.084 61.3208 51.6968 61.4928 51.3671C61.7366 50.8939 61.9624 50.4064 62.1703 49.9045C62.3746 49.4134 62.5539 48.9224 62.7152 48.4312C62.8084 48.0871 63.1059 47.8183 63.4787 47.7788L75.3292 46.5099V43.2695L64.2756 43.2702ZM63.383 41.485H58.0635C57.5724 41.485 57.1709 41.8829 57.1709 42.3776C57.1709 46.0123 55.6977 49.3066 53.314 51.6872C50.9302 54.0709 47.6396 55.5441 44.0044 55.5441C40.3692 55.5441 37.0754 54.0708 34.6949 51.6872C32.3111 49.3034 30.8379 46.0128 30.8379 42.3776C30.8379 41.8865 30.44 41.485 29.9453 41.485H24.6258V16.5654C24.6258 16.0743 24.2279 15.6728 23.7332 15.6728H16.7612C16.5892 14.9093 16.2056 14.2282 15.6715 13.6942C14.9367 12.9593 13.9223 12.5076 12.8039 12.5076C11.6818 12.5076 10.6711 12.9629 9.9362 13.6942C9.20137 14.429 8.7461 15.4434 8.7461 16.5618C8.7461 17.6838 9.20134 18.6946 9.9362 19.433C10.671 20.1679 11.6854 20.6196 12.8039 20.6196C13.9259 20.6196 14.9367 20.1643 15.6715 19.433C16.2056 18.8989 16.5927 18.2179 16.7612 17.4544H22.8442V41.4821H18.8797V26.4556C18.8797 25.9645 18.4818 25.5631 17.9871 25.5631H11.0151C10.8431 24.7996 10.4595 24.1185 9.92541 23.5844C9.19057 22.8496 8.17619 22.3979 7.05418 22.3979C5.93217 22.3979 4.92137 22.8532 4.18652 23.5844C3.45169 24.3193 3 25.3337 3 26.4521C3 27.5741 3.45524 28.5849 4.18652 29.3197C4.92136 30.0546 5.93574 30.5098 7.05418 30.5098C8.17619 30.5098 9.18698 30.0546 9.92541 29.3197C10.4595 28.7856 10.8466 28.1046 11.0151 27.3411H17.0981V41.4821H11.7786C11.2875 41.4821 10.886 41.88 10.886 42.3747L10.8896 47.3034C10.8896 47.7515 11.2266 48.1386 11.6854 48.1888L23.769 49.4829C23.9016 49.8593 24.0414 50.2249 24.1884 50.5833C24.339 50.9454 24.5003 51.3038 24.6687 51.6587L17.0767 61.072C16.754 61.4233 16.7612 61.9681 17.1017 62.3087L24.0774 69.2807C24.3928 69.5998 24.9054 69.632 25.2639 69.3452L34.7267 61.7137C35.0815 61.8858 35.44 62.0471 35.8021 62.194C36.1569 62.341 36.5262 62.4808 36.8989 62.6134L38.1858 74.6392C38.2037 75.116 38.5944 75.4924 39.0747 75.4924L48.9358 75.4888C49.3839 75.4888 49.771 75.1518 49.8212 74.693L51.1152 62.6094C51.4916 62.4768 51.8572 62.337 52.2121 62.19C52.5742 62.0394 52.9326 61.8781 53.2875 61.7097L62.7007 69.3017C63.052 69.6244 63.5969 69.6172 63.9375 69.2802L70.9095 62.3046C71.2285 61.9892 71.2608 61.4766 70.974 61.1181L63.3425 51.6581C63.5145 51.3032 63.6758 50.9447 63.8228 50.5827C63.9698 50.2242 64.1132 49.8586 64.2422 49.4822L76.268 48.1954C76.7447 48.1775 77.1247 47.7832 77.1247 47.3028V42.3741C77.1247 41.883 76.7268 41.4815 76.2321 41.4815H70.9126L70.9055 27.3479H76.9885C77.1605 28.1114 77.5441 28.7924 78.0782 29.3265C78.813 30.0613 79.8274 30.5166 80.9458 30.5166C82.0678 30.5166 83.0786 30.0614 83.8135 29.3265C84.5483 28.5917 85 27.5773 85 26.4588C85 25.3368 84.5448 24.326 83.8135 23.5912C83.0786 22.8563 82.0643 22.4047 80.9458 22.4047C79.8238 22.4047 78.813 22.8599 78.0782 23.5912C77.5441 24.1253 77.1605 24.8063 76.9885 25.5698H70.0164C69.5253 25.5698 69.1239 25.9677 69.1239 26.4624V41.4926H65.1594V17.4584H71.2424C71.4144 18.2219 71.798 18.903 72.3321 19.437C73.0669 20.1719 74.0813 20.6236 75.2033 20.6236C76.3253 20.6236 77.3361 20.1683 78.071 19.437C78.8058 18.7022 79.2575 17.6878 79.2575 16.5658C79.2575 15.4438 78.8022 14.433 78.071 13.6981C77.3361 12.9633 76.3217 12.5116 75.2033 12.5116C74.0813 12.5116 73.0705 12.9669 72.3321 13.6981C71.798 14.2322 71.4108 14.9133 71.2424 15.6768H64.2703C63.7792 15.6768 63.3778 16.0747 63.3778 16.5693V41.4854L63.383 41.485ZM72.9321 16.5654C72.9321 15.9381 73.1866 15.3681 73.5988 14.9559C74.011 14.5437 74.581 14.2892 75.2083 14.2892C75.8356 14.2892 76.4055 14.5437 76.8177 14.9559C77.23 15.3681 77.4845 15.938 77.4845 16.5654C77.4845 17.1927 77.23 17.7626 76.8177 18.1748C76.4055 18.587 75.8356 18.8415 75.2083 18.8415C74.581 18.8415 74.011 18.587 73.5988 18.1748C73.1866 17.7626 72.9321 17.1927 72.9321 16.5654ZM78.6781 26.4549C78.6781 25.8276 78.9326 25.2576 79.3449 24.8454C79.7571 24.4332 80.3234 24.1787 80.9543 24.1787C81.5816 24.1787 82.1516 24.4332 82.5638 24.8454C82.976 25.2576 83.2305 25.8276 83.2305 26.4549C83.2305 27.0822 82.976 27.6521 82.5638 28.0643C82.1516 28.4766 81.5852 28.7311 80.9543 28.7311C80.327 28.7311 79.7571 28.4766 79.3449 28.0643C78.9326 27.6521 78.6781 27.0822 78.6781 26.4549ZM14.4142 18.1745C14.002 18.5868 13.4321 18.8413 12.8048 18.8413C12.1775 18.8413 11.6075 18.5868 11.1953 18.1745C10.7831 17.7623 10.5286 17.1924 10.5286 16.5651C10.5286 15.9378 10.7831 15.3678 11.1953 14.9556C11.6075 14.5434 12.1739 14.2889 12.8048 14.2889C13.4321 14.2889 14.002 14.5434 14.4142 14.9556C14.8264 15.3678 15.0809 15.9378 15.0809 16.5651C15.0774 17.1924 14.8229 17.7623 14.4142 18.1745ZM49.8795 25.8742H53.2884V25.8706C53.5178 25.8706 53.7437 25.781 53.9193 25.6089C54.267 25.2612 54.2634 24.6984 53.9157 24.3507L44.6319 15.1201C44.2842 14.776 43.725 14.776 43.3773 15.1201L34.1402 24.3039C33.9502 24.4688 33.8283 24.709 33.8283 24.9814C33.8283 25.4725 34.2262 25.874 34.7209 25.874H38.1298V38.388C38.1298 38.879 38.5277 39.2805 39.0223 39.2805H48.9908C49.4819 39.2805 49.8833 38.8826 49.8833 38.388L49.8795 25.8742ZM48.098 37.499H39.9144L39.9108 24.9813C39.9108 24.4902 39.5129 24.0887 39.0183 24.0887H36.8747L44.0044 17.0056L51.1305 24.0923H48.987C48.4959 24.0923 48.0944 24.4902 48.0944 24.9849V37.4989L48.098 37.499ZM32.0144 27.8278L35.1903 31.0037C35.538 31.3515 35.538 31.9178 35.1903 32.2655C34.8426 32.6132 34.2762 32.6132 33.9285 32.2655L32.2724 30.6094V38.3916C32.2724 38.8826 31.8745 39.2841 31.3799 39.2841C30.8888 39.2841 30.4873 38.8862 30.4873 38.3916V30.6094L28.8312 32.2655C28.4835 32.6132 27.9171 32.6132 27.5694 32.2655C27.2217 31.9178 27.2217 31.3515 27.5694 31.0037L30.7418 27.8314C30.7525 27.8207 30.7668 27.8063 30.7812 27.7956L30.8314 27.7454L30.8385 27.7418L30.8493 27.7311H30.8529L30.8565 27.7275L30.8708 27.7167L30.878 27.7096L30.8887 27.7024L30.8959 27.6952L30.9389 27.6665L30.9461 27.663L30.9568 27.6594L30.9604 27.6558C30.9676 27.6522 30.9783 27.645 30.9855 27.6414L30.9963 27.6379C31.111 27.5841 31.2364 27.5554 31.3726 27.5554C31.5053 27.5554 31.6343 27.5841 31.749 27.6379L31.7598 27.6414L31.7669 27.645H31.7705L31.7813 27.6486L31.7849 27.6522L31.8135 27.6665H31.8171L31.8386 27.6809L31.8745 27.7024L31.8888 27.7131H31.896L31.9103 27.7239H31.9139L31.9569 27.7669L31.9641 27.7705L32.0035 27.8099L32.0144 27.8278ZM8.66478 28.0644C8.25255 28.4767 7.68262 28.7312 7.05531 28.7312C6.42801 28.7312 5.85806 28.4767 5.44585 28.0644C5.03362 27.6522 4.77912 27.0858 4.77912 26.455C4.77912 25.8277 5.03362 25.2577 5.44585 24.8455C5.85807 24.4333 6.42443 24.1788 7.05531 24.1788C7.68261 24.1788 8.25257 24.4333 8.66478 24.8455C9.07699 25.2577 9.33151 25.8277 9.33151 26.455C9.33151 27.0823 9.07701 27.6522 8.66478 28.0644Z"/>
</mask>
<path fill-rule="evenodd" clip-rule="evenodd" d="M57.5187 38.388C57.5187 38.8791 57.1208 39.2805 56.6261 39.2805C56.135 39.2805 55.7335 38.8827 55.7335 38.388V30.6059L54.081 32.2619C53.7333 32.6096 53.167 32.6096 52.8193 32.2619C52.4716 31.9142 52.4716 31.3479 52.8193 31.0002L55.9916 27.8278C56.0023 27.8171 56.0167 27.8028 56.031 27.792L56.0812 27.7418L56.0884 27.7382L56.0991 27.7275H56.1027L56.1063 27.7239L56.1206 27.7131L56.1278 27.706L56.1385 27.6988L56.1457 27.6916L56.1887 27.663L56.1959 27.6594L56.2067 27.6558L56.2102 27.6522C56.2174 27.6486 56.2282 27.6415 56.2353 27.6379L56.2461 27.6343C56.3608 27.5805 56.4863 27.5518 56.6225 27.5518C56.7551 27.5518 56.8841 27.5805 56.9989 27.6343L57.0096 27.6379L57.0168 27.6415H57.0204L57.0311 27.645L57.0347 27.6486L57.0634 27.663H57.067L57.0885 27.6773L57.1243 27.6988L57.1386 27.7096H57.1422L57.1566 27.7203H57.1602L60.4257 30.9859C60.7734 31.3336 60.7734 31.8999 60.4257 32.2476C60.078 32.5953 59.5116 32.5953 59.1639 32.2476L57.5079 30.5915L57.515 38.388L57.5187 38.388ZM64.2756 43.2702H58.9274C58.7052 47.0447 57.085 50.4393 54.5758 52.9486C51.8694 55.6549 48.1343 57.3289 44.0044 57.3289C39.8786 57.3289 36.1399 55.6549 33.4331 52.9486C30.9239 50.4394 29.3037 47.0412 29.0814 43.2702H12.6674V46.5106L24.518 47.7795C24.8585 47.8153 25.1596 48.0447 25.2707 48.3924C25.432 48.8979 25.6184 49.4033 25.8263 49.9051C26.0342 50.4069 26.2601 50.8944 26.5038 51.364C26.6615 51.6687 26.6364 52.0486 26.407 52.3318L18.9225 61.612L24.7654 67.4549L34.0281 59.9846C34.2934 59.7588 34.6805 59.7015 35.0103 59.8735C35.4834 60.1173 35.971 60.3431 36.4764 60.5546C36.9675 60.7589 37.455 60.9382 37.9461 61.0959C38.2902 61.1891 38.5591 61.4866 38.5985 61.8594L39.8674 73.7136H48.1298L49.3988 61.8594C49.4346 61.5224 49.664 61.2177 50.0117 61.1066C50.5172 60.9453 51.0226 60.7589 51.5244 60.551C52.0262 60.3431 52.5137 60.1173 52.9833 59.8735C53.288 59.7158 53.6679 59.7409 53.9511 59.9703L63.2313 67.4548L69.0742 61.612L61.6039 52.3492C61.3781 52.084 61.3208 51.6968 61.4928 51.3671C61.7366 50.8939 61.9624 50.4064 62.1703 49.9045C62.3746 49.4134 62.5539 48.9224 62.7152 48.4312C62.8084 48.0871 63.1059 47.8183 63.4787 47.7788L75.3292 46.5099V43.2695L64.2756 43.2702ZM63.383 41.485H58.0635C57.5724 41.485 57.1709 41.8829 57.1709 42.3776C57.1709 46.0123 55.6977 49.3066 53.314 51.6872C50.9302 54.0709 47.6396 55.5441 44.0044 55.5441C40.3692 55.5441 37.0754 54.0708 34.6949 51.6872C32.3111 49.3034 30.8379 46.0128 30.8379 42.3776C30.8379 41.8865 30.44 41.485 29.9453 41.485H24.6258V16.5654C24.6258 16.0743 24.2279 15.6728 23.7332 15.6728H16.7612C16.5892 14.9093 16.2056 14.2282 15.6715 13.6942C14.9367 12.9593 13.9223 12.5076 12.8039 12.5076C11.6818 12.5076 10.6711 12.9629 9.9362 13.6942C9.20137 14.429 8.7461 15.4434 8.7461 16.5618C8.7461 17.6838 9.20134 18.6946 9.9362 19.433C10.671 20.1679 11.6854 20.6196 12.8039 20.6196C13.9259 20.6196 14.9367 20.1643 15.6715 19.433C16.2056 18.8989 16.5927 18.2179 16.7612 17.4544H22.8442V41.4821H18.8797V26.4556C18.8797 25.9645 18.4818 25.5631 17.9871 25.5631H11.0151C10.8431 24.7996 10.4595 24.1185 9.92541 23.5844C9.19057 22.8496 8.17619 22.3979 7.05418 22.3979C5.93217 22.3979 4.92137 22.8532 4.18652 23.5844C3.45169 24.3193 3 25.3337 3 26.4521C3 27.5741 3.45524 28.5849 4.18652 29.3197C4.92136 30.0546 5.93574 30.5098 7.05418 30.5098C8.17619 30.5098 9.18698 30.0546 9.92541 29.3197C10.4595 28.7856 10.8466 28.1046 11.0151 27.3411H17.0981V41.4821H11.7786C11.2875 41.4821 10.886 41.88 10.886 42.3747L10.8896 47.3034C10.8896 47.7515 11.2266 48.1386 11.6854 48.1888L23.769 49.4829C23.9016 49.8593 24.0414 50.2249 24.1884 50.5833C24.339 50.9454 24.5003 51.3038 24.6687 51.6587L17.0767 61.072C16.754 61.4233 16.7612 61.9681 17.1017 62.3087L24.0774 69.2807C24.3928 69.5998 24.9054 69.632 25.2639 69.3452L34.7267 61.7137C35.0815 61.8858 35.44 62.0471 35.8021 62.194C36.1569 62.341 36.5262 62.4808 36.8989 62.6134L38.1858 74.6392C38.2037 75.116 38.5944 75.4924 39.0747 75.4924L48.9358 75.4888C49.3839 75.4888 49.771 75.1518 49.8212 74.693L51.1152 62.6094C51.4916 62.4768 51.8572 62.337 52.2121 62.19C52.5742 62.0394 52.9326 61.8781 53.2875 61.7097L62.7007 69.3017C63.052 69.6244 63.5969 69.6172 63.9375 69.2802L70.9095 62.3046C71.2285 61.9892 71.2608 61.4766 70.974 61.1181L63.3425 51.6581C63.5145 51.3032 63.6758 50.9447 63.8228 50.5827C63.9698 50.2242 64.1132 49.8586 64.2422 49.4822L76.268 48.1954C76.7447 48.1775 77.1247 47.7832 77.1247 47.3028V42.3741C77.1247 41.883 76.7268 41.4815 76.2321 41.4815H70.9126L70.9055 27.3479H76.9885C77.1605 28.1114 77.5441 28.7924 78.0782 29.3265C78.813 30.0613 79.8274 30.5166 80.9458 30.5166C82.0678 30.5166 83.0786 30.0614 83.8135 29.3265C84.5483 28.5917 85 27.5773 85 26.4588C85 25.3368 84.5448 24.326 83.8135 23.5912C83.0786 22.8563 82.0643 22.4047 80.9458 22.4047C79.8238 22.4047 78.813 22.8599 78.0782 23.5912C77.5441 24.1253 77.1605 24.8063 76.9885 25.5698H70.0164C69.5253 25.5698 69.1239 25.9677 69.1239 26.4624V41.4926H65.1594V17.4584H71.2424C71.4144 18.2219 71.798 18.903 72.3321 19.437C73.0669 20.1719 74.0813 20.6236 75.2033 20.6236C76.3253 20.6236 77.3361 20.1683 78.071 19.437C78.8058 18.7022 79.2575 17.6878 79.2575 16.5658C79.2575 15.4438 78.8022 14.433 78.071 13.6981C77.3361 12.9633 76.3217 12.5116 75.2033 12.5116C74.0813 12.5116 73.0705 12.9669 72.3321 13.6981C71.798 14.2322 71.4108 14.9133 71.2424 15.6768H64.2703C63.7792 15.6768 63.3778 16.0747 63.3778 16.5693V41.4854L63.383 41.485ZM72.9321 16.5654C72.9321 15.9381 73.1866 15.3681 73.5988 14.9559C74.011 14.5437 74.581 14.2892 75.2083 14.2892C75.8356 14.2892 76.4055 14.5437 76.8177 14.9559C77.23 15.3681 77.4845 15.938 77.4845 16.5654C77.4845 17.1927 77.23 17.7626 76.8177 18.1748C76.4055 18.587 75.8356 18.8415 75.2083 18.8415C74.581 18.8415 74.011 18.587 73.5988 18.1748C73.1866 17.7626 72.9321 17.1927 72.9321 16.5654ZM78.6781 26.4549C78.6781 25.8276 78.9326 25.2576 79.3449 24.8454C79.7571 24.4332 80.3234 24.1787 80.9543 24.1787C81.5816 24.1787 82.1516 24.4332 82.5638 24.8454C82.976 25.2576 83.2305 25.8276 83.2305 26.4549C83.2305 27.0822 82.976 27.6521 82.5638 28.0643C82.1516 28.4766 81.5852 28.7311 80.9543 28.7311C80.327 28.7311 79.7571 28.4766 79.3449 28.0643C78.9326 27.6521 78.6781 27.0822 78.6781 26.4549ZM14.4142 18.1745C14.002 18.5868 13.4321 18.8413 12.8048 18.8413C12.1775 18.8413 11.6075 18.5868 11.1953 18.1745C10.7831 17.7623 10.5286 17.1924 10.5286 16.5651C10.5286 15.9378 10.7831 15.3678 11.1953 14.9556C11.6075 14.5434 12.1739 14.2889 12.8048 14.2889C13.4321 14.2889 14.002 14.5434 14.4142 14.9556C14.8264 15.3678 15.0809 15.9378 15.0809 16.5651C15.0774 17.1924 14.8229 17.7623 14.4142 18.1745ZM49.8795 25.8742H53.2884V25.8706C53.5178 25.8706 53.7437 25.781 53.9193 25.6089C54.267 25.2612 54.2634 24.6984 53.9157 24.3507L44.6319 15.1201C44.2842 14.776 43.725 14.776 43.3773 15.1201L34.1402 24.3039C33.9502 24.4688 33.8283 24.709 33.8283 24.9814C33.8283 25.4725 34.2262 25.874 34.7209 25.874H38.1298V38.388C38.1298 38.879 38.5277 39.2805 39.0223 39.2805H48.9908C49.4819 39.2805 49.8833 38.8826 49.8833 38.388L49.8795 25.8742ZM48.098 37.499H39.9144L39.9108 24.9813C39.9108 24.4902 39.5129 24.0887 39.0183 24.0887H36.8747L44.0044 17.0056L51.1305 24.0923H48.987C48.4959 24.0923 48.0944 24.4902 48.0944 24.9849V37.4989L48.098 37.499ZM32.0144 27.8278L35.1903 31.0037C35.538 31.3515 35.538 31.9178 35.1903 32.2655C34.8426 32.6132 34.2762 32.6132 33.9285 32.2655L32.2724 30.6094V38.3916C32.2724 38.8826 31.8745 39.2841 31.3799 39.2841C30.8888 39.2841 30.4873 38.8862 30.4873 38.3916V30.6094L28.8312 32.2655C28.4835 32.6132 27.9171 32.6132 27.5694 32.2655C27.2217 31.9178 27.2217 31.3515 27.5694 31.0037L30.7418 27.8314C30.7525 27.8207 30.7668 27.8063 30.7812 27.7956L30.8314 27.7454L30.8385 27.7418L30.8493 27.7311H30.8529L30.8565 27.7275L30.8708 27.7167L30.878 27.7096L30.8887 27.7024L30.8959 27.6952L30.9389 27.6665L30.9461 27.663L30.9568 27.6594L30.9604 27.6558C30.9676 27.6522 30.9783 27.645 30.9855 27.6414L30.9963 27.6379C31.111 27.5841 31.2364 27.5554 31.3726 27.5554C31.5053 27.5554 31.6343 27.5841 31.749 27.6379L31.7598 27.6414L31.7669 27.645H31.7705L31.7813 27.6486L31.7849 27.6522L31.8135 27.6665H31.8171L31.8386 27.6809L31.8745 27.7024L31.8888 27.7131H31.896L31.9103 27.7239H31.9139L31.9569 27.7669L31.9641 27.7705L32.0035 27.8099L32.0144 27.8278ZM8.66478 28.0644C8.25255 28.4767 7.68262 28.7312 7.05531 28.7312C6.42801 28.7312 5.85806 28.4767 5.44585 28.0644C5.03362 27.6522 4.77912 27.0858 4.77912 26.455C4.77912 25.8277 5.03362 25.2577 5.44585 24.8455C5.85807 24.4333 6.42443 24.1788 7.05531 24.1788C7.68261 24.1788 8.25257 24.4333 8.66478 24.8455C9.07699 25.2577 9.33151 25.8277 9.33151 26.455C9.33151 27.0823 9.07701 27.6522 8.66478 28.0644Z" fill="black"/>
<path fill-rule="evenodd" clip-rule="evenodd" d="M57.5187 38.388C57.5187 38.8791 57.1208 39.2805 56.6261 39.2805C56.135 39.2805 55.7335 38.8827 55.7335 38.388V30.6059L54.081 32.2619C53.7333 32.6096 53.167 32.6096 52.8193 32.2619C52.4716 31.9142 52.4716 31.3479 52.8193 31.0002L55.9916 27.8278C56.0023 27.8171 56.0167 27.8028 56.031 27.792L56.0812 27.7418L56.0884 27.7382L56.0991 27.7275H56.1027L56.1063 27.7239L56.1206 27.7131L56.1278 27.706L56.1385 27.6988L56.1457 27.6916L56.1887 27.663L56.1959 27.6594L56.2067 27.6558L56.2102 27.6522C56.2174 27.6486 56.2282 27.6415 56.2353 27.6379L56.2461 27.6343C56.3608 27.5805 56.4863 27.5518 56.6225 27.5518C56.7551 27.5518 56.8841 27.5805 56.9989 27.6343L57.0096 27.6379L57.0168 27.6415H57.0204L57.0311 27.645L57.0347 27.6486L57.0634 27.663H57.067L57.0885 27.6773L57.1243 27.6988L57.1386 27.7096H57.1422L57.1566 27.7203H57.1602L60.4257 30.9859C60.7734 31.3336 60.7734 31.8999 60.4257 32.2476C60.078 32.5953 59.5116 32.5953 59.1639 32.2476L57.5079 30.5915L57.515 38.388L57.5187 38.388ZM64.2756 43.2702H58.9274C58.7052 47.0447 57.085 50.4393 54.5758 52.9486C51.8694 55.6549 48.1343 57.3289 44.0044 57.3289C39.8786 57.3289 36.1399 55.6549 33.4331 52.9486C30.9239 50.4394 29.3037 47.0412 29.0814 43.2702H12.6674V46.5106L24.518 47.7795C24.8585 47.8153 25.1596 48.0447 25.2707 48.3924C25.432 48.8979 25.6184 49.4033 25.8263 49.9051C26.0342 50.4069 26.2601 50.8944 26.5038 51.364C26.6615 51.6687 26.6364 52.0486 26.407 52.3318L18.9225 61.612L24.7654 67.4549L34.0281 59.9846C34.2934 59.7588 34.6805 59.7015 35.0103 59.8735C35.4834 60.1173 35.971 60.3431 36.4764 60.5546C36.9675 60.7589 37.455 60.9382 37.9461 61.0959C38.2902 61.1891 38.5591 61.4866 38.5985 61.8594L39.8674 73.7136H48.1298L49.3988 61.8594C49.4346 61.5224 49.664 61.2177 50.0117 61.1066C50.5172 60.9453 51.0226 60.7589 51.5244 60.551C52.0262 60.3431 52.5137 60.1173 52.9833 59.8735C53.288 59.7158 53.6679 59.7409 53.9511 59.9703L63.2313 67.4548L69.0742 61.612L61.6039 52.3492C61.3781 52.084 61.3208 51.6968 61.4928 51.3671C61.7366 50.8939 61.9624 50.4064 62.1703 49.9045C62.3746 49.4134 62.5539 48.9224 62.7152 48.4312C62.8084 48.0871 63.1059 47.8183 63.4787 47.7788L75.3292 46.5099V43.2695L64.2756 43.2702ZM63.383 41.485H58.0635C57.5724 41.485 57.1709 41.8829 57.1709 42.3776C57.1709 46.0123 55.6977 49.3066 53.314 51.6872C50.9302 54.0709 47.6396 55.5441 44.0044 55.5441C40.3692 55.5441 37.0754 54.0708 34.6949 51.6872C32.3111 49.3034 30.8379 46.0128 30.8379 42.3776C30.8379 41.8865 30.44 41.485 29.9453 41.485H24.6258V16.5654C24.6258 16.0743 24.2279 15.6728 23.7332 15.6728H16.7612C16.5892 14.9093 16.2056 14.2282 15.6715 13.6942C14.9367 12.9593 13.9223 12.5076 12.8039 12.5076C11.6818 12.5076 10.6711 12.9629 9.9362 13.6942C9.20137 14.429 8.7461 15.4434 8.7461 16.5618C8.7461 17.6838 9.20134 18.6946 9.9362 19.433C10.671 20.1679 11.6854 20.6196 12.8039 20.6196C13.9259 20.6196 14.9367 20.1643 15.6715 19.433C16.2056 18.8989 16.5927 18.2179 16.7612 17.4544H22.8442V41.4821H18.8797V26.4556C18.8797 25.9645 18.4818 25.5631 17.9871 25.5631H11.0151C10.8431 24.7996 10.4595 24.1185 9.92541 23.5844C9.19057 22.8496 8.17619 22.3979 7.05418 22.3979C5.93217 22.3979 4.92137 22.8532 4.18652 23.5844C3.45169 24.3193 3 25.3337 3 26.4521C3 27.5741 3.45524 28.5849 4.18652 29.3197C4.92136 30.0546 5.93574 30.5098 7.05418 30.5098C8.17619 30.5098 9.18698 30.0546 9.92541 29.3197C10.4595 28.7856 10.8466 28.1046 11.0151 27.3411H17.0981V41.4821H11.7786C11.2875 41.4821 10.886 41.88 10.886 42.3747L10.8896 47.3034C10.8896 47.7515 11.2266 48.1386 11.6854 48.1888L23.769 49.4829C23.9016 49.8593 24.0414 50.2249 24.1884 50.5833C24.339 50.9454 24.5003 51.3038 24.6687 51.6587L17.0767 61.072C16.754 61.4233 16.7612 61.9681 17.1017 62.3087L24.0774 69.2807C24.3928 69.5998 24.9054 69.632 25.2639 69.3452L34.7267 61.7137C35.0815 61.8858 35.44 62.0471 35.8021 62.194C36.1569 62.341 36.5262 62.4808 36.8989 62.6134L38.1858 74.6392C38.2037 75.116 38.5944 75.4924 39.0747 75.4924L48.9358 75.4888C49.3839 75.4888 49.771 75.1518 49.8212 74.693L51.1152 62.6094C51.4916 62.4768 51.8572 62.337 52.2121 62.19C52.5742 62.0394 52.9326 61.8781 53.2875 61.7097L62.7007 69.3017C63.052 69.6244 63.5969 69.6172 63.9375 69.2802L70.9095 62.3046C71.2285 61.9892 71.2608 61.4766 70.974 61.1181L63.3425 51.6581C63.5145 51.3032 63.6758 50.9447 63.8228 50.5827C63.9698 50.2242 64.1132 49.8586 64.2422 49.4822L76.268 48.1954C76.7447 48.1775 77.1247 47.7832 77.1247 47.3028V42.3741C77.1247 41.883 76.7268 41.4815 76.2321 41.4815H70.9126L70.9055 27.3479H76.9885C77.1605 28.1114 77.5441 28.7924 78.0782 29.3265C78.813 30.0613 79.8274 30.5166 80.9458 30.5166C82.0678 30.5166 83.0786 30.0614 83.8135 29.3265C84.5483 28.5917 85 27.5773 85 26.4588C85 25.3368 84.5448 24.326 83.8135 23.5912C83.0786 22.8563 82.0643 22.4047 80.9458 22.4047C79.8238 22.4047 78.813 22.8599 78.0782 23.5912C77.5441 24.1253 77.1605 24.8063 76.9885 25.5698H70.0164C69.5253 25.5698 69.1239 25.9677 69.1239 26.4624V41.4926H65.1594V17.4584H71.2424C71.4144 18.2219 71.798 18.903 72.3321 19.437C73.0669 20.1719 74.0813 20.6236 75.2033 20.6236C76.3253 20.6236 77.3361 20.1683 78.071 19.437C78.8058 18.7022 79.2575 17.6878 79.2575 16.5658C79.2575 15.4438 78.8022 14.433 78.071 13.6981C77.3361 12.9633 76.3217 12.5116 75.2033 12.5116C74.0813 12.5116 73.0705 12.9669 72.3321 13.6981C71.798 14.2322 71.4108 14.9133 71.2424 15.6768H64.2703C63.7792 15.6768 63.3778 16.0747 63.3778 16.5693V41.4854L63.383 41.485ZM72.9321 16.5654C72.9321 15.9381 73.1866 15.3681 73.5988 14.9559C74.011 14.5437 74.581 14.2892 75.2083 14.2892C75.8356 14.2892 76.4055 14.5437 76.8177 14.9559C77.23 15.3681 77.4845 15.938 77.4845 16.5654C77.4845 17.1927 77.23 17.7626 76.8177 18.1748C76.4055 18.587 75.8356 18.8415 75.2083 18.8415C74.581 18.8415 74.011 18.587 73.5988 18.1748C73.1866 17.7626 72.9321 17.1927 72.9321 16.5654ZM78.6781 26.4549C78.6781 25.8276 78.9326 25.2576 79.3449 24.8454C79.7571 24.4332 80.3234 24.1787 80.9543 24.1787C81.5816 24.1787 82.1516 24.4332 82.5638 24.8454C82.976 25.2576 83.2305 25.8276 83.2305 26.4549C83.2305 27.0822 82.976 27.6521 82.5638 28.0643C82.1516 28.4766 81.5852 28.7311 80.9543 28.7311C80.327 28.7311 79.7571 28.4766 79.3449 28.0643C78.9326 27.6521 78.6781 27.0822 78.6781 26.4549ZM14.4142 18.1745C14.002 18.5868 13.4321 18.8413 12.8048 18.8413C12.1775 18.8413 11.6075 18.5868 11.1953 18.1745C10.7831 17.7623 10.5286 17.1924 10.5286 16.5651C10.5286 15.9378 10.7831 15.3678 11.1953 14.9556C11.6075 14.5434 12.1739 14.2889 12.8048 14.2889C13.4321 14.2889 14.002 14.5434 14.4142 14.9556C14.8264 15.3678 15.0809 15.9378 15.0809 16.5651C15.0774 17.1924 14.8229 17.7623 14.4142 18.1745ZM49.8795 25.8742H53.2884V25.8706C53.5178 25.8706 53.7437 25.781 53.9193 25.6089C54.267 25.2612 54.2634 24.6984 53.9157 24.3507L44.6319 15.1201C44.2842 14.776 43.725 14.776 43.3773 15.1201L34.1402 24.3039C33.9502 24.4688 33.8283 24.709 33.8283 24.9814C33.8283 25.4725 34.2262 25.874 34.7209 25.874H38.1298V38.388C38.1298 38.879 38.5277 39.2805 39.0223 39.2805H48.9908C49.4819 39.2805 49.8833 38.8826 49.8833 38.388L49.8795 25.8742ZM48.098 37.499H39.9144L39.9108 24.9813C39.9108 24.4902 39.5129 24.0887 39.0183 24.0887H36.8747L44.0044 17.0056L51.1305 24.0923H48.987C48.4959 24.0923 48.0944 24.4902 48.0944 24.9849V37.4989L48.098 37.499ZM32.0144 27.8278L35.1903 31.0037C35.538 31.3515 35.538 31.9178 35.1903 32.2655C34.8426 32.6132 34.2762 32.6132 33.9285 32.2655L32.2724 30.6094V38.3916C32.2724 38.8826 31.8745 39.2841 31.3799 39.2841C30.8888 39.2841 30.4873 38.8862 30.4873 38.3916V30.6094L28.8312 32.2655C28.4835 32.6132 27.9171 32.6132 27.5694 32.2655C27.2217 31.9178 27.2217 31.3515 27.5694 31.0037L30.7418 27.8314C30.7525 27.8207 30.7668 27.8063 30.7812 27.7956L30.8314 27.7454L30.8385 27.7418L30.8493 27.7311H30.8529L30.8565 27.7275L30.8708 27.7167L30.878 27.7096L30.8887 27.7024L30.8959 27.6952L30.9389 27.6665L30.9461 27.663L30.9568 27.6594L30.9604 27.6558C30.9676 27.6522 30.9783 27.645 30.9855 27.6414L30.9963 27.6379C31.111 27.5841 31.2364 27.5554 31.3726 27.5554C31.5053 27.5554 31.6343 27.5841 31.749 27.6379L31.7598 27.6414L31.7669 27.645H31.7705L31.7813 27.6486L31.7849 27.6522L31.8135 27.6665H31.8171L31.8386 27.6809L31.8745 27.7024L31.8888 27.7131H31.896L31.9103 27.7239H31.9139L31.9569 27.7669L31.9641 27.7705L32.0035 27.8099L32.0144 27.8278ZM8.66478 28.0644C8.25255 28.4767 7.68262 28.7312 7.05531 28.7312C6.42801 28.7312 5.85806 28.4767 5.44585 28.0644C5.03362 27.6522 4.77912 27.0858 4.77912 26.455C4.77912 25.8277 5.03362 25.2577 5.44585 24.8455C5.85807 24.4333 6.42443 24.1788 7.05531 24.1788C7.68261 24.1788 8.25257 24.4333 8.66478 24.8455C9.07699 25.2577 9.33151 25.8277 9.33151 26.455C9.33151 27.0823 9.07701 27.6522 8.66478 28.0644Z" stroke="black" stroke-width="0.4" mask="url(#path-1-outside-1_4_607)"/>
<circle cx="75.125" cy="16.5" r="2.5" fill="#DD0004"/>
<circle cx="80.875" cy="26.5" r="2.5" fill="#DD0004"/>
<circle cx="7.125" cy="26.5" r="2.5" fill="#DD0004"/>
<circle cx="12.75" cy="16.5" r="2.5" fill="#DD0004"/>
</svg>
