<svg width="88" height="88" viewBox="0 0 88 88" fill="none" xmlns="http://www.w3.org/2000/svg">
<g clip-path="url(#clip0_4_647)">
<path d="M77.4409 83.4756H77.4443L71.5521 87.9056C71.2279 88.1487 70.8118 88.2405 70.4133 88.1558L70.4127 88.1557C70.018 88.0747 69.6728 87.8244 69.4757 87.4689L69.4753 87.4683L62.4187 74.9408L62.3525 74.8232L62.2593 74.9208L54.188 83.3696C54.1879 83.3697 54.1877 83.3699 54.1876 83.37C53.782 83.7822 53.1651 83.9055 52.6327 83.6834L52.6325 83.6834C52.0964 83.4611 51.7508 82.9356 51.7579 82.3573V82.356V82.3536V82.3523L51.89 77.5222L51.8928 77.4195H51.79H11.678C7.21762 77.4158 3.60373 73.802 3.6 69.3415L3.6 11.8914C3.60375 7.43107 7.21754 3.8172 11.678 3.81347H69.128C73.5884 3.81719 77.2023 7.431 77.2098 11.8916V60.6039V60.662L77.2603 60.6908L83.7041 64.3638C83.7043 64.3639 83.7045 64.364 83.7046 64.3641C84.2013 64.6568 84.4692 65.2213 84.3845 65.7927C84.2999 66.3641 83.8805 66.8258 83.3202 66.9636C83.3199 66.9637 83.3197 66.9637 83.3194 66.9638L71.3897 69.7007L71.2576 69.731L71.3255 69.8483L78.0536 81.4625L78.0537 81.4627C78.4131 82.0791 78.2514 82.8653 77.6798 83.2957L77.4409 83.4756ZM11.6787 6.63367L11.6786 6.63367C8.77664 6.63751 6.42579 8.98908 6.42194 11.891V11.8911V19.1327V19.2327H6.52194H74.2901H74.3901V19.1327V11.8911V11.891C74.3862 8.98896 72.0308 6.63752 69.129 6.63367H69.1289L11.6787 6.63367ZM6.42126 69.3405L6.42126 69.3406C6.4251 72.2424 8.77656 74.5979 11.6787 74.5979L51.8731 74.6013L51.9705 74.6013L51.9731 74.504L52.6602 49.069C52.6602 49.0689 52.6602 49.0688 52.6602 49.0686C52.678 48.5754 52.9529 48.1274 53.3835 47.8839C53.8134 47.6408 54.3349 47.6404 54.7692 47.8803C54.7694 47.8804 54.7696 47.8805 54.7698 47.8806L74.236 58.9692L74.3855 59.0544V58.8824V22.1532V22.0532H74.2855H6.52126H6.42126V22.1532V69.3405ZM68.9379 67.3664L78.9176 65.0852L79.168 65.028L78.9449 64.9009L55.5629 51.5808L55.418 51.4982L55.4134 51.6649L54.6848 78.5168L54.6777 78.7764L54.857 78.5886L61.6263 71.4985C61.6264 71.4984 61.6266 71.4982 61.6267 71.498C61.937 71.1775 62.3811 71.0225 62.8216 71.0789C63.2622 71.1353 63.6538 71.3961 63.8762 71.7802C63.8763 71.7805 63.8765 71.7808 63.8766 71.7811L71.0875 84.5792L71.1435 84.6787L71.2347 84.6101L74.9159 81.8426L74.9868 81.7892L74.9423 81.7125L67.8596 69.4908C67.6375 69.1031 67.6128 68.6343 67.7926 68.2254L67.7929 68.2247C67.9692 67.8157 68.3287 67.5126 68.7659 67.4103L68.941 67.3694L68.9379 67.3664Z" fill="black" stroke="white" stroke-width="0.2"/>
<path d="M22.9106 17.1073C24.0649 17.0897 24.9905 16.1501 24.9905 14.9957C24.9905 13.8378 24.065 12.8983 22.9106 12.8841C21.7563 12.8982 20.8272 13.8378 20.8272 14.9957C20.8272 16.15 21.7562 17.0896 22.9106 17.1073Z" fill="black"/>
<path d="M15.8968 17.1073C17.0511 17.0897 17.9802 16.1501 17.9802 14.9957C17.9802 13.8378 17.0512 12.8983 15.8968 12.8841C14.7426 12.8982 13.817 13.8378 13.817 14.9957C13.817 16.15 14.7425 17.0896 15.8968 17.1073Z" fill="black"/>
<path d="M29.9206 17.1073C31.0749 17.0897 32.0005 16.1501 32.0005 14.9957C32.0005 13.8378 31.075 12.8983 29.9206 12.8841C28.7663 12.8982 27.8372 13.8378 27.8372 14.9957C27.8372 16.15 28.7663 17.0896 29.9206 17.1073Z" fill="black"/>
<path d="M15.8365 32.7609L19.7076 32.7433V32.7468C20.3833 34.6894 22.2133 35.9916 24.2721 35.9951C26.3273 35.9986 28.1608 34.7 28.8471 32.761H48.0584C48.8256 32.7504 49.445 32.124 49.445 31.3533C49.445 30.5861 48.8256 29.9596 48.0584 29.9456H28.9525C28.4035 27.8199 26.4855 26.3313 24.286 26.3278C22.09 26.3243 20.1685 27.8059 19.6089 29.9315L15.8293 29.9456H15.8328C15.0656 29.9667 14.4568 30.5931 14.4568 31.3568C14.4568 32.124 15.0728 32.7469 15.8365 32.7609ZM24.2791 29.1432C25.3912 29.1643 26.2816 30.0722 26.2816 31.1843C26.2816 32.2929 25.3912 33.2008 24.2791 33.2219C23.167 33.2008 22.2801 32.2929 22.2801 31.1843C22.2801 30.0722 23.167 29.1642 24.2791 29.1432Z" fill="black"/>
<path d="M45.3949 38.7331C43.1989 38.7402 41.2809 40.2252 40.7214 42.3474L15.8369 42.3509C15.0697 42.3685 14.4574 42.9949 14.4574 43.7586C14.4574 44.5258 15.0697 45.1522 15.8369 45.1663L40.8268 45.1628C41.418 46.8766 42.9207 48.1154 44.7155 48.3758C46.5139 48.6327 48.3017 47.8655 49.3538 46.384C50.4026 44.9059 50.5398 42.9632 49.7058 41.3515C48.8717 39.7432 47.2109 38.7295 45.3949 38.7331ZM45.3949 45.6273C44.2828 45.6062 43.3889 44.7018 43.3889 43.5897C43.3924 42.474 44.2828 41.5696 45.3949 41.5485C46.507 41.5696 47.4009 42.474 47.4009 43.5897C47.4009 44.7018 46.507 45.6097 45.3949 45.6273Z" fill="black"/>
<path d="M48.2698 55.875L37.6488 55.8504C37.3215 53.4573 35.2733 51.6731 32.8556 51.6766C30.4379 51.6836 28.3967 53.4749 28.0765 55.868L16.0446 55.875C15.2774 55.8926 14.6651 56.5155 14.6651 57.2827C14.6686 58.0499 15.281 58.6763 16.0482 58.6904L28.5377 58.6833C29.3472 60.3409 31.0328 61.3896 32.877 61.3861C34.7175 61.3826 36.3998 60.3233 37.2021 58.6658L48.2664 58.6904C49.0336 58.6763 49.6459 58.0499 49.6459 57.2862C49.6459 56.519 49.037 55.8926 48.2698 55.875ZM32.8622 58.5708C31.7501 58.5532 30.8527 57.6452 30.8527 56.5296C30.8527 55.4175 31.7501 54.5096 32.8622 54.492C33.9778 54.5096 34.8717 55.4175 34.8717 56.5296C34.8717 57.6452 33.9778 58.5532 32.8622 58.5708Z" fill="black"/>
<circle cx="24.1963" cy="31.1615" r="2.9922" fill="#DD0004"/>
<circle cx="45.5234" cy="43.579" r="2.9922" fill="#DD0004"/>
<circle cx="32.911" cy="56.5314" r="2.9922" fill="#DD0004"/>
</g>
<defs>
<clipPath id="clip0_4_647">
<rect width="88" height="88" fill="white"/>
</clipPath>
</defs>
</svg>
