<svg width="83" height="82" viewBox="0 0 83 82" fill="none" xmlns="http://www.w3.org/2000/svg">
<path d="M41.5 56C46.1944 56 50 52.1944 50 47.5C50 42.8056 46.1944 39 41.5 39C36.8056 39 33 42.8056 33 47.5C33 52.1944 36.8056 56 41.5 56Z" fill="#DD0004"/>
<path d="M32.1504 47.8612C32.1504 42.6551 36.3879 38.4253 41.5863 38.4253C46.7847 38.4253 51.0222 42.6551 51.0222 47.8612C51.0222 53.0673 46.7924 57.2971 41.5863 57.2971C36.3801 57.2971 32.1504 53.0673 32.1504 47.8612ZM33.4129 47.8538C33.4129 52.3585 37.0815 56.0272 41.5863 56.0272C46.0909 56.0272 49.7597 52.3586 49.7597 47.8538C49.7597 43.3492 46.0909 39.6805 41.5863 39.6805C37.0816 39.6805 33.4129 43.3491 33.4129 47.8538Z" fill="black" stroke="black" stroke-width="0.3"/>
<path d="M59.595 26.2931C59.953 26.407 60.3517 26.4723 60.7427 26.4723C62.7787 26.4723 64.4318 24.8192 64.4318 22.7832C64.4318 20.7471 62.7786 19.0941 60.7427 19.0941C60.3443 19.0941 59.961 19.159 59.6091 19.2815C59.4096 19.3454 59.2024 19.3188 59.0333 19.2003C58.8686 19.0794 58.7677 18.8823 58.7677 18.6816V13.5722C58.7677 12.4519 59.6771 11.5425 60.7974 11.5425H79.1954C80.3157 11.5425 81.2255 12.4522 81.2255 13.5724V31.9784C81.2255 33.0987 80.3161 34.0081 79.1958 34.0081H75.0552H74.8862L74.9063 34.176C74.9288 34.3636 74.9365 34.5526 74.9365 34.7441C74.9365 36.2685 74.2544 37.6783 73.0559 38.6264C72.177 39.3309 71.1003 39.6957 69.9849 39.6957C69.5901 39.6957 69.1875 39.6501 68.7923 39.559C66.7629 39.0818 65.223 37.2774 65.0562 35.1776L65.0561 35.1759C65.0258 34.8434 65.0333 34.51 65.0713 34.1834L65.0908 34.0161H64.9223H60.7895C59.6692 34.0161 58.7598 33.1066 58.7598 31.9864V26.8926C58.7598 26.693 58.8598 26.5026 59.0264 26.3809C59.1896 26.2616 59.3972 26.2293 59.595 26.2931ZM73.4858 33.5783L73.4852 33.5766C73.4157 33.3807 73.4476 33.167 73.5665 33.0043C73.6873 32.839 73.8848 32.7376 74.086 32.7376H79.1954C79.6232 32.7376 79.9626 32.388 79.9626 31.9705L79.9625 13.5563C79.9625 13.1285 79.6129 12.7891 79.1953 12.7891H60.7813C60.3535 12.7891 60.0141 13.1388 60.0141 13.5563V17.6891V17.859L60.1827 17.838C60.3621 17.8155 60.543 17.8079 60.7344 17.8079C63.4641 17.8079 65.686 20.0298 65.686 22.7595C65.686 25.4891 63.4641 27.7111 60.7344 27.7111C60.543 27.7111 60.3621 27.7034 60.1827 27.681L60.0141 27.6599V27.8298V31.9626C60.0141 32.3904 60.3638 32.7298 60.7813 32.7298H65.8907C66.1015 32.7298 66.2894 32.8247 66.4087 32.9942C66.5301 33.1669 66.5606 33.3739 66.4916 33.5686C66.3273 34.0285 66.271 34.5265 66.3115 35.0523C66.4337 36.5928 67.5964 37.9606 69.0827 38.3117C70.2186 38.5794 71.3835 38.3368 72.273 37.627C73.1605 36.9267 73.6735 35.8677 73.6735 34.7361C73.6735 34.3295 73.6085 33.9381 73.4858 33.5783Z" fill="black"/>
<path d="M59.0264 26.3809C58.8598 26.5026 58.7598 26.693 58.7598 26.8926V31.9864C58.7598 33.1066 59.6692 34.0161 60.7895 34.0161H64.9223H65.0908L65.0713 34.1834C65.0333 34.51 65.0258 34.8434 65.0561 35.1759L65.0562 35.1776C65.223 37.2774 66.7629 39.0818 68.7923 39.559C69.1875 39.6501 69.5901 39.6957 69.9849 39.6957C71.1003 39.6957 72.177 39.3309 73.0559 38.6264C74.2544 37.6783 74.9365 36.2685 74.9365 34.7441C74.9365 34.5526 74.9288 34.3636 74.9063 34.176L74.8862 34.0081H75.0552H79.1958C80.3161 34.0081 81.2255 33.0987 81.2255 31.9784V13.5724C81.2255 12.4522 80.3157 11.5425 79.1954 11.5425H60.7974C59.6771 11.5425 58.7677 12.4519 58.7677 13.5722V18.6816C58.7677 18.8823 58.8686 19.0794 59.0333 19.2003C59.2024 19.3188 59.4096 19.3454 59.6091 19.2815C59.961 19.159 60.3443 19.0941 60.7427 19.0941C62.7786 19.0941 64.4318 20.7471 64.4318 22.7832C64.4318 24.8192 62.7787 26.4723 60.7427 26.4723C60.3517 26.4723 59.953 26.407 59.595 26.2931C59.3972 26.2293 59.1896 26.2616 59.0264 26.3809ZM59.0264 26.3809L58.9381 26.2599M73.5665 33.0043C73.4476 33.167 73.4157 33.3807 73.4852 33.5766L73.4858 33.5783C73.6085 33.9381 73.6735 34.3295 73.6735 34.7361C73.6735 35.8677 73.1605 36.9267 72.273 37.627C71.3835 38.3368 70.2186 38.5794 69.0827 38.3117C67.5964 37.9606 66.4337 36.5928 66.3115 35.0523C66.271 34.5265 66.3273 34.0285 66.4916 33.5686C66.5606 33.3739 66.5301 33.1669 66.4087 32.9942C66.2894 32.8247 66.1015 32.7298 65.8907 32.7298H60.7813C60.3638 32.7298 60.0141 32.3904 60.0141 31.9626V27.8298V27.6599L60.1827 27.681C60.3621 27.7034 60.543 27.7111 60.7344 27.7111C63.4641 27.7111 65.686 25.4891 65.686 22.7595C65.686 20.0298 63.4641 17.8079 60.7344 17.8079C60.543 17.8079 60.3621 17.8155 60.1827 17.838L60.0141 17.859V17.6891V13.5563C60.0141 13.1388 60.3535 12.7891 60.7813 12.7891H79.1953C79.6129 12.7891 79.9625 13.1285 79.9625 13.5563L79.9626 31.9705C79.9626 32.388 79.6232 32.7376 79.1954 32.7376H74.086C73.8848 32.7376 73.6873 32.839 73.5665 33.0043ZM73.5665 33.0043L73.4454 32.9158" stroke="black" stroke-width="0.3"/>
<path d="M68.7565 56.3075L68.7811 56.6055H70.4373C76.2684 56.6055 81.0064 61.351 80.991 67.1741C80.991 67.5209 80.7066 67.8057 80.3598 67.8057H58.0938H57.9063L57.9474 67.9886C58.1563 68.9168 58.2797 69.8823 58.2797 70.8776V75.9245C58.2797 76.2714 57.9953 76.5558 57.6485 76.5558H25.4925C25.1456 76.5558 24.8612 76.2714 24.8612 75.9245V70.8776C24.8612 69.8824 24.9846 68.9246 25.1935 67.9884L25.2343 67.8057H25.0471H2.78115C2.4343 67.8057 2.1499 67.5213 2.1499 67.1745C2.1499 61.3431 6.89547 56.6055 12.7189 56.6055H14.3751L14.3997 56.3075C10.7595 55.7021 7.9782 52.5445 7.9782 48.7367C7.9782 44.5069 11.4189 41.0586 15.6563 41.0586C19.8861 41.0586 23.3344 44.4993 23.3344 48.7367C23.3344 52.5446 20.553 55.7021 16.9129 56.3075L16.9375 56.6055H18.5937C22.4903 56.6055 26.0886 58.8162 27.9147 62.214L28.0163 62.4031L28.1589 62.2426C30.5539 59.5464 34.0295 57.8399 37.9062 57.8399H45.25C49.1269 57.8399 52.6101 59.5464 54.9971 62.2424L55.1397 62.4035L55.2415 62.214C57.0675 58.8162 60.6659 56.6055 64.5625 56.6055H66.2187L66.2433 56.3075C62.6031 55.7021 59.8218 52.5445 59.8218 48.7367C59.8218 44.5069 63.2625 41.0586 67.4999 41.0586C71.7297 41.0586 75.178 44.4993 75.178 48.7367C75.178 52.5446 72.3966 55.7021 68.7565 56.3075ZM3.45964 66.3798L3.44579 66.5426H3.6091H25.5232H25.629L25.6645 66.4429C26.0277 65.423 26.5064 64.4656 27.1006 63.5859L27.147 63.5173L27.1136 63.4415C25.6368 60.0908 22.2709 57.8676 18.6013 57.8676H12.7263C7.86619 57.8676 3.86461 61.6234 3.45964 66.3798ZM56.8821 75.2926H57.0321V75.1426L57.0319 70.877C57.0319 64.388 51.7539 59.102 45.2569 59.102H37.9131C31.4161 59.102 26.1381 64.388 26.1381 70.877V75.1426V75.2926H26.2881H56.8821ZM57.4991 66.4442L57.5351 66.5426H57.6399H79.554H79.717L79.7035 66.3801C79.3064 61.6154 75.2965 57.8676 70.4368 57.8676H64.5618C60.8922 57.8676 57.5263 60.0908 56.0495 63.4415L56.0161 63.5173L56.0625 63.5859C56.6562 64.4649 57.1275 65.4303 57.4991 66.4442ZM67.4998 42.329C63.9639 42.329 61.0842 45.2086 61.0842 48.7446C61.0842 52.2805 63.9639 55.1602 67.4998 55.1602C71.0357 55.1602 73.9154 52.2805 73.9154 48.7446C73.9154 45.2086 71.0357 42.329 67.4998 42.329ZM15.6638 42.329C12.1279 42.329 9.2482 45.2086 9.2482 48.7446C9.2482 52.2805 12.1279 55.1602 15.6638 55.1602C19.1997 55.1602 22.0794 52.2805 22.0794 48.7446C22.0794 45.2086 19.1997 42.329 15.6638 42.329Z" fill="black" stroke="black" stroke-width="0.3"/>
<path d="M42.7506 26.6306C42.8645 26.2726 42.9298 25.8739 42.9298 25.4829C42.9298 23.4469 41.2767 21.7938 39.2407 21.7938C37.2046 21.7938 35.5516 23.447 35.5516 25.4829C35.5516 25.8813 35.6165 26.2646 35.739 26.6165C35.8029 26.816 35.7763 27.0232 35.6578 27.1923C35.5369 27.357 35.3398 27.4579 35.1391 27.4579L30.0297 27.4579C28.9094 27.4579 28 26.5485 28 25.4282L28 7.03022C28 5.90992 28.9097 5.00012 30.0299 5.00012L48.4359 5.00012C49.5562 5.00012 50.4656 5.90952 50.4656 7.02982L50.4656 11.1704L50.4656 11.3394L50.6335 11.3193C50.8211 11.2968 51.0101 11.2891 51.2016 11.2891C52.726 11.2891 54.1358 11.9712 55.0839 13.1697C55.7884 14.0486 56.1532 15.1253 56.1532 16.2407C56.1532 16.6355 56.1076 17.0381 56.0165 17.4333C55.5393 19.4627 53.7349 21.0026 51.6351 21.1694L51.6334 21.1695C51.3009 21.1998 50.9675 21.1923 50.6409 21.1543L50.4736 21.1348L50.4736 21.3033L50.4736 25.4361C50.4736 26.5564 49.5641 27.4658 48.4439 27.4658L43.3501 27.4658C43.1505 27.4658 42.9601 27.3658 42.8384 27.1992C42.7191 27.036 42.6868 26.8284 42.7506 26.6306ZM50.0358 12.7398L50.0341 12.7404C49.8382 12.8099 49.6245 12.778 49.4618 12.6591C49.2965 12.5383 49.1951 12.3408 49.1951 12.1396L49.1951 7.03022C49.1951 6.60242 48.8455 6.26302 48.428 6.26302L30.0138 6.26312C29.586 6.26312 29.2466 6.61272 29.2466 7.03032L29.2466 25.4443C29.2466 25.8721 29.5963 26.2115 30.0138 26.2115L34.1466 26.2115L34.3165 26.2115L34.2955 26.0429C34.273 25.8635 34.2654 25.6826 34.2654 25.4912C34.2654 22.7615 36.4873 20.5396 39.217 20.5396C41.9466 20.5396 44.1686 22.7615 44.1686 25.4912C44.1686 25.6826 44.1609 25.8635 44.1385 26.0429L44.1174 26.2115L44.2873 26.2115L48.4201 26.2115C48.8479 26.2115 49.1873 25.8618 49.1873 25.4443L49.1873 20.3349C49.1873 20.1241 49.2822 19.9362 49.4517 19.8169C49.6244 19.6955 49.8314 19.665 50.0261 19.734C50.486 19.8983 50.984 19.9546 51.5098 19.9141C53.0503 19.7919 54.4181 18.6292 54.7692 17.1429C55.0369 16.007 54.7943 14.8421 54.0845 13.9526C53.3842 13.0651 52.3252 12.5521 51.1936 12.5521C50.787 12.5521 50.3956 12.6171 50.0358 12.7398Z" fill="black"/>
<path d="M50.0358 12.7398L50.0341 12.7404C49.8382 12.8099 49.6245 12.778 49.4618 12.6591C49.2965 12.5383 49.1951 12.3408 49.1951 12.1396L49.1951 7.03022C49.1951 6.60242 48.8455 6.26302 48.428 6.26302L30.0138 6.26312C29.586 6.26312 29.2466 6.61272 29.2466 7.03032L29.2466 25.4443C29.2466 25.8721 29.5963 26.2115 30.0138 26.2115L34.1466 26.2115L34.3165 26.2115L34.2955 26.0429C34.273 25.8635 34.2654 25.6826 34.2654 25.4912C34.2654 22.7615 36.4873 20.5396 39.217 20.5396C41.9466 20.5396 44.1686 22.7615 44.1686 25.4912C44.1686 25.6826 44.1609 25.8635 44.1385 26.0429L44.1174 26.2115L44.2873 26.2115L48.4201 26.2115C48.8479 26.2115 49.1873 25.8618 49.1873 25.4443L49.1873 20.3349C49.1873 20.1241 49.2822 19.9362 49.4517 19.8169C49.6244 19.6955 49.8314 19.665 50.0261 19.734C50.486 19.8983 50.984 19.9546 51.5098 19.9141C53.0503 19.7919 54.4181 18.6292 54.7692 17.1429C55.0369 16.007 54.7943 14.8421 54.0845 13.9526C53.3842 13.0651 52.3252 12.5521 51.1936 12.5521C50.787 12.5521 50.3956 12.6171 50.0358 12.7398Z" fill="#DD0004"/>
<path d="M42.8384 27.1992C42.9601 27.3658 43.1505 27.4658 43.3501 27.4658L48.4439 27.4658C49.5641 27.4658 50.4736 26.5564 50.4736 25.4361L50.4736 21.3033L50.4736 21.1348L50.6409 21.1543C50.9675 21.1923 51.3009 21.1998 51.6334 21.1695L51.6351 21.1694C53.7349 21.0026 55.5393 19.4627 56.0165 17.4333C56.1076 17.0381 56.1532 16.6355 56.1532 16.2407C56.1532 15.1253 55.7884 14.0486 55.0839 13.1697C54.1358 11.9712 52.726 11.2891 51.2016 11.2891C51.0101 11.2891 50.8211 11.2968 50.6335 11.3193L50.4656 11.3394L50.4656 11.1704L50.4656 7.02982C50.4656 5.90952 49.5562 5.00012 48.4359 5.00012L30.0299 5.00012C28.9097 5.00012 28 5.90992 28 7.03022L28 25.4282C28 26.5485 28.9094 27.4579 30.0297 27.4579L35.1391 27.4579C35.3398 27.4579 35.5369 27.357 35.6578 27.1923C35.7763 27.0232 35.8029 26.816 35.739 26.6165C35.6165 26.2646 35.5516 25.8813 35.5516 25.4829C35.5516 23.447 37.2046 21.7938 39.2407 21.7938C41.2767 21.7938 42.9298 23.4469 42.9298 25.4829C42.9298 25.8739 42.8645 26.2726 42.7506 26.6306C42.6868 26.8284 42.7191 27.036 42.8384 27.1992ZM42.8384 27.1992L42.7174 27.2875M49.4618 12.6591C49.6245 12.778 49.8382 12.8099 50.0341 12.7404L50.0358 12.7398C50.3956 12.6171 50.787 12.5521 51.1936 12.5521C52.3252 12.5521 53.3842 13.0651 54.0845 13.9526C54.7943 14.8421 55.0369 16.007 54.7692 17.1429C54.4181 18.6292 53.0503 19.7919 51.5098 19.9141C50.984 19.9546 50.486 19.8983 50.0261 19.734C49.8314 19.665 49.6244 19.6955 49.4517 19.8169C49.2822 19.9362 49.1873 20.1241 49.1873 20.3349L49.1873 25.4443C49.1873 25.8618 48.8479 26.2115 48.4201 26.2115L44.2873 26.2115L44.1174 26.2115L44.1385 26.0429C44.1609 25.8635 44.1686 25.6826 44.1686 25.4912C44.1686 22.7615 41.9466 20.5396 39.217 20.5396C36.4873 20.5396 34.2654 22.7615 34.2654 25.4912C34.2654 25.6826 34.273 25.8635 34.2955 26.0429L34.3165 26.2115L34.1466 26.2115L30.0138 26.2115C29.5963 26.2115 29.2466 25.8721 29.2466 25.4443L29.2466 7.03032C29.2466 6.61272 29.586 6.26312 30.0138 6.26312L48.428 6.26302C48.8455 6.26302 49.1951 6.60242 49.1951 7.03022L49.1951 12.1396C49.1951 12.3408 49.2965 12.5383 49.4618 12.6591ZM49.4618 12.6591L49.3733 12.7802" stroke="black" stroke-width="0.3"/>
</svg>
