<svg width="88" height="88" viewBox="0 0 88 88" fill="none" xmlns="http://www.w3.org/2000/svg">
<path d="M61.6896 55.82L61.6896 55.82L61.6896 55.82ZM61.6896 55.82L61.6895 55.8199L61.6896 55.82ZM54.3976 72.8701V72.87H54.3896H36.5996C36.1753 72.87 35.7683 72.7014 35.4682 72.4014C35.1682 72.1013 34.9996 71.6944 34.9996 71.27C34.9996 59.5603 29.8746 55.7229 29.5447 55.4864C29.4584 55.4227 29.3757 55.3543 29.2969 55.2816C19.9515 45.9303 19.7777 30.9085 28.8817 21.8536L28.8822 21.8531C33.2903 17.4512 39.2651 14.9789 45.4946 14.9789C51.7241 14.9789 57.6989 17.4512 62.107 21.8531L62.1075 21.8536C71.2427 30.9397 71.0282 45.9357 61.6768 55.2872L61.6646 55.2994L61.6535 55.3126C61.5956 55.3813 61.5294 55.4426 61.4564 55.495L61.4564 55.495L61.4523 55.498C61.1731 55.7037 56.0296 59.5275 56.0296 71.27V71.2701C56.0296 71.4829 55.9872 71.6936 55.9048 71.8899C55.8224 72.0861 55.7017 72.2639 55.5497 72.4129C55.3977 72.5619 55.2176 72.6791 55.0197 72.7576C54.8219 72.8361 54.6104 72.8743 54.3976 72.8701ZM38.1501 69.2895L38.1686 69.67H38.5496H52.4296H52.8102L52.8291 69.2898C53.3824 58.1446 58.4414 53.7474 59.4728 52.9576L59.4953 52.9404L59.5151 52.9202C67.5102 44.7723 67.6761 31.9111 59.8426 24.0674L59.8422 24.0669C56.0344 20.2665 50.8744 18.132 45.4946 18.132C40.1148 18.132 34.9548 20.2665 31.147 24.0669L31.1468 24.0672C23.3033 31.9106 23.4785 44.8226 31.4648 52.9209L31.4843 52.9407L31.5064 52.9576C32.5381 53.7476 37.6067 58.1448 38.1501 69.2895Z" fill="black" stroke="white" stroke-width="0.8"/>
<path d="M49.5996 85.19H41.3896C40.9918 85.19 40.6102 85.0319 40.3289 84.7506C40.0476 84.4693 39.8896 84.0878 39.8896 83.69C39.8896 83.2921 40.0476 82.9106 40.3289 82.6293C40.6102 82.348 40.9918 82.19 41.3896 82.19H49.5996C49.9974 82.19 50.379 82.348 50.6603 82.6293C50.9416 82.9106 51.0996 83.2921 51.0996 83.69C51.0996 84.0878 50.9416 84.4693 50.6603 84.7506C50.379 85.0319 49.9974 85.19 49.5996 85.19Z" fill="black" stroke="white"/>
<path d="M52.3296 80.9801H38.6896C38.2918 80.9801 37.9102 80.822 37.6289 80.5407C37.3476 80.2594 37.1896 79.8779 37.1896 79.4801C37.1896 79.0822 37.3476 78.7007 37.6289 78.4194C37.9102 78.1381 38.2918 77.9801 38.6896 77.9801H52.3296C52.7274 77.9801 53.1089 78.1381 53.3902 78.4194C53.6716 78.7007 53.8296 79.0822 53.8296 79.4801C53.8296 79.8779 53.6716 80.2594 53.3902 80.5407C53.1089 80.822 52.7274 80.9801 52.3296 80.9801Z" fill="black" stroke="white"/>
<path d="M49.0396 38.4501C49.0396 37.4737 48.6548 36.5367 47.9686 35.8422C47.2824 35.1477 46.35 34.7517 45.3737 34.7401L45.0196 34.7358V34.7628C44.4079 34.8141 43.8164 35.0166 43.2995 35.3545C42.6834 35.7573 42.201 36.3342 41.9137 37.012C41.6265 37.6897 41.5473 38.4376 41.6863 39.1605C41.8254 39.8833 42.1763 40.5485 42.6944 41.0713C43.2126 41.5942 43.8746 41.9511 44.5962 42.0966C45.3178 42.2421 46.0663 42.1697 46.7466 41.8885C47.4269 41.6074 48.0082 41.1302 48.4165 40.5177C48.8246 39.9055 49.0415 39.1858 49.0396 38.4501ZM49.0396 38.4501L48.6896 38.45L49.0396 38.449C49.0396 38.4494 49.0396 38.4497 49.0396 38.4501ZM45.3674 44.47C44.1775 44.4775 43.0122 44.1316 42.0191 43.4762C41.0261 42.8208 40.2499 41.8854 39.7889 40.7885C39.3279 39.6915 39.203 38.4824 39.4298 37.3144C39.6567 36.1463 40.2251 35.0719 41.0632 34.2272C41.9012 33.3826 42.9711 32.8057 44.1373 32.5696C45.3035 32.3336 46.5136 32.449 47.6141 32.9013C48.7147 33.3536 49.6562 34.1224 50.3194 35.1103C50.9826 36.0982 51.3377 37.2607 51.3396 38.4506C51.3421 40.0397 50.7152 41.565 49.596 42.6931C48.4768 43.8212 46.9564 44.46 45.3674 44.47Z" fill="black" stroke="white" stroke-width="0.7"/>
<mask id="path-5-inside-1_4_703" fill="white">
<path d="M46.1996 52.82H44.5596C43.8513 52.775 43.1799 52.4883 42.6575 52.0078C42.1351 51.5273 41.7935 50.8821 41.6896 50.18L41.3296 48.82L40.8896 48.63L39.5996 49.45C39.0392 49.8304 38.3769 50.0326 37.6996 50.03C36.9426 50.0187 36.2205 49.7097 35.6896 49.17L34.5296 48.01C34.0585 47.4779 33.7846 46.8001 33.7536 46.0901C33.7227 45.3801 33.9366 44.6811 34.3596 44.11L35.1896 42.72L35.1296 42.58L33.6596 42.21C32.9554 42.1156 32.3075 41.7743 31.8313 41.2469C31.3552 40.7195 31.0817 40.0402 31.0596 39.33V37.7C31.0939 36.9683 31.3791 36.2706 31.8671 35.7243C32.3552 35.178 33.0163 34.8163 33.7396 34.7L35.0896 34.4C35.0896 34.33 35.1496 34.25 35.1896 34.17L34.2896 32.82C33.8691 32.2505 33.6583 31.5532 33.6929 30.8461C33.7275 30.139 34.0054 29.4657 34.4796 28.94L35.6896 27.74C36.2387 27.2665 36.9296 26.9889 37.6537 26.9509C38.3778 26.9129 39.0939 27.1166 39.6896 27.53L40.9196 28.31L41.3496 28.13L41.6896 26.7C41.7984 26.001 42.1437 25.3605 42.6679 24.8855C43.192 24.4105 43.8633 24.1297 44.5696 24.09H46.1996C46.9319 24.1225 47.6305 24.407 48.1772 24.8953C48.7239 25.3837 49.0851 26.046 49.1996 26.77L49.5096 28.16L49.8096 28.28L51.0496 27.49C51.6173 27.1184 52.2811 26.9203 52.9596 26.92C53.3401 26.9138 53.7181 26.9831 54.0717 27.1238C54.4253 27.2646 54.7474 27.474 55.0196 27.74L56.1696 28.9C56.6439 29.43 56.9208 30.1075 56.9536 30.818C56.9863 31.5285 56.773 32.2285 56.3496 32.8L55.5796 34.08C55.5796 34.19 55.6796 34.3 55.7196 34.41L57.1296 34.72C57.8453 34.8431 58.497 35.2083 58.9757 35.7544C59.4545 36.3005 59.7312 36.9943 59.7596 37.72V39.35C59.7195 40.0604 59.4362 40.7353 58.9573 41.2615C58.4784 41.7878 57.8331 42.1333 57.1296 42.24L55.6896 42.58C55.6606 42.6617 55.6272 42.7418 55.5896 42.82L56.3796 44.13C56.7952 44.702 57.0021 45.3992 56.9657 46.1054C56.9293 46.8115 56.6518 47.4837 56.1796 48.01L54.9896 49.16C54.7179 49.4274 54.3961 49.6383 54.0425 49.7808C53.689 49.9232 53.3107 49.9943 52.9296 49.99C52.2158 49.9991 51.5168 49.7859 50.9296 49.38L49.7296 48.62L49.4396 48.74L49.1196 50.18C49.0017 50.8847 48.6491 51.529 48.119 52.0082C47.589 52.4874 46.9126 52.7734 46.1996 52.82ZM44.6896 49.82H46.0796C46.1406 49.7602 46.1823 49.6836 46.1996 49.6L46.6896 47.4C46.7533 47.1088 46.8921 46.8394 47.092 46.6184C47.292 46.3974 47.5463 46.2325 47.8296 46.14C48.2505 46.0061 48.6587 45.8355 49.0496 45.63C49.3174 45.4948 49.6155 45.4311 49.9151 45.4452C50.2147 45.4592 50.5056 45.5504 50.7596 45.71L52.6896 46.89C52.7751 46.9422 52.8704 46.9762 52.9696 46.99L53.9696 45.99C53.9387 45.8851 53.895 45.7843 53.8396 45.69L52.6296 43.82C52.4787 43.5736 52.393 43.2928 52.3808 43.0041C52.3685 42.7154 52.4301 42.4283 52.5596 42.17C52.7556 41.7945 52.9196 41.4031 53.0496 41C53.1353 40.7155 53.2924 40.4577 53.506 40.2512C53.7195 40.0446 53.9824 39.8962 54.2696 39.82L56.3996 39.29C56.5161 39.2653 56.6276 39.2214 56.7296 39.16V37.82C56.6632 37.7684 56.5889 37.7279 56.5096 37.7L54.3496 37.22C54.051 37.152 53.7762 37.0046 53.5544 36.7934C53.3326 36.5822 53.172 36.315 53.0896 36.02C52.9514 35.6057 52.7774 35.2042 52.5696 34.82C52.4359 34.5598 52.3712 34.2696 52.3817 33.9772C52.3922 33.6848 52.4776 33.4 52.6296 33.15L53.7696 31.26C53.8311 31.1569 53.8782 31.0459 53.9096 30.93L52.9096 29.93C52.8252 29.9339 52.7429 29.9579 52.6696 30L50.7796 31.21C50.521 31.3679 50.2264 31.4573 49.9237 31.4695C49.6209 31.4818 49.3201 31.4165 49.0496 31.28C48.6569 31.0755 48.2491 30.9016 47.8296 30.76C47.546 30.6649 47.2919 30.4979 47.0921 30.2753C46.8923 30.0528 46.7536 29.7822 46.6896 29.49L46.2196 27.36C46.2011 27.26 46.1562 27.1668 46.0896 27.09H44.6896C44.6334 27.1863 44.5929 27.2909 44.5696 27.4L44.0396 29.53C43.9662 29.8137 43.8223 30.0744 43.6212 30.2876C43.4202 30.5009 43.1685 30.66 42.8896 30.75C42.4357 30.8893 41.9969 31.0735 41.5796 31.3C41.3117 31.4395 41.012 31.5064 40.7103 31.4941C40.4085 31.4818 40.1152 31.3908 39.8596 31.23L37.9596 30.02C37.8777 29.9606 37.7806 29.9259 37.6796 29.92L36.6796 30.92C36.7062 31.0264 36.7501 31.1278 36.8096 31.22L38.0196 33.22C38.1649 33.4583 38.2508 33.7281 38.2699 34.0066C38.2891 34.285 38.2409 34.564 38.1296 34.82C37.9512 35.2076 37.804 35.6089 37.6896 36.02C37.5989 36.3092 37.4339 36.5694 37.211 36.7748C36.9881 36.9801 36.7152 37.1233 36.4196 37.19L34.3196 37.65C34.2218 37.6747 34.1299 37.7189 34.0496 37.78V39.18C34.1443 39.2322 34.245 39.2725 34.3496 39.3L36.4996 39.83C36.777 39.9094 37.0307 40.0559 37.2382 40.2564C37.4457 40.4569 37.6007 40.7054 37.6896 40.98C37.8037 41.3413 37.9475 41.6925 38.1196 42.03C38.2518 42.2911 38.3148 42.5817 38.3025 42.8741C38.2903 43.1665 38.2032 43.4509 38.0496 43.7L36.8596 45.7C36.7985 45.7998 36.7514 45.9074 36.7196 46.02L37.7196 47.02C37.8034 47.0204 37.8859 46.9998 37.9596 46.96L39.8996 45.72C40.1564 45.5574 40.4515 45.4653 40.7552 45.453C41.0589 45.4407 41.3605 45.5087 41.6296 45.65C42.0485 45.873 42.487 46.0571 42.9396 46.2C43.2185 46.29 43.4702 46.4491 43.6712 46.6624C43.8723 46.8756 44.0162 47.1362 44.0896 47.42L44.6096 49.52C44.6251 49.6227 44.6519 49.7233 44.6896 49.82ZM34.7796 41.9C34.7796 41.9 34.8296 41.91 34.8296 41.9H34.7796Z"/>
</mask>
<path d="M46.1996 52.82H44.5596C43.8513 52.775 43.1799 52.4883 42.6575 52.0078C42.1351 51.5273 41.7935 50.8821 41.6896 50.18L41.3296 48.82L40.8896 48.63L39.5996 49.45C39.0392 49.8304 38.3769 50.0326 37.6996 50.03C36.9426 50.0187 36.2205 49.7097 35.6896 49.17L34.5296 48.01C34.0585 47.4779 33.7846 46.8001 33.7536 46.0901C33.7227 45.3801 33.9366 44.6811 34.3596 44.11L35.1896 42.72L35.1296 42.58L33.6596 42.21C32.9554 42.1156 32.3075 41.7743 31.8313 41.2469C31.3552 40.7195 31.0817 40.0402 31.0596 39.33V37.7C31.0939 36.9683 31.3791 36.2706 31.8671 35.7243C32.3552 35.178 33.0163 34.8163 33.7396 34.7L35.0896 34.4C35.0896 34.33 35.1496 34.25 35.1896 34.17L34.2896 32.82C33.8691 32.2505 33.6583 31.5532 33.6929 30.8461C33.7275 30.139 34.0054 29.4657 34.4796 28.94L35.6896 27.74C36.2387 27.2665 36.9296 26.9889 37.6537 26.9509C38.3778 26.9129 39.0939 27.1166 39.6896 27.53L40.9196 28.31L41.3496 28.13L41.6896 26.7C41.7984 26.001 42.1437 25.3605 42.6679 24.8855C43.192 24.4105 43.8633 24.1297 44.5696 24.09H46.1996C46.9319 24.1225 47.6305 24.407 48.1772 24.8953C48.7239 25.3837 49.0851 26.046 49.1996 26.77L49.5096 28.16L49.8096 28.28L51.0496 27.49C51.6173 27.1184 52.2811 26.9203 52.9596 26.92C53.3401 26.9138 53.7181 26.9831 54.0717 27.1238C54.4253 27.2646 54.7474 27.474 55.0196 27.74L56.1696 28.9C56.6439 29.43 56.9208 30.1075 56.9536 30.818C56.9863 31.5285 56.773 32.2285 56.3496 32.8L55.5796 34.08C55.5796 34.19 55.6796 34.3 55.7196 34.41L57.1296 34.72C57.8453 34.8431 58.497 35.2083 58.9757 35.7544C59.4545 36.3005 59.7312 36.9943 59.7596 37.72V39.35C59.7195 40.0604 59.4362 40.7353 58.9573 41.2615C58.4784 41.7878 57.8331 42.1333 57.1296 42.24L55.6896 42.58C55.6606 42.6617 55.6272 42.7418 55.5896 42.82L56.3796 44.13C56.7952 44.702 57.0021 45.3992 56.9657 46.1054C56.9293 46.8115 56.6518 47.4837 56.1796 48.01L54.9896 49.16C54.7179 49.4274 54.3961 49.6383 54.0425 49.7808C53.689 49.9232 53.3107 49.9943 52.9296 49.99C52.2158 49.9991 51.5168 49.7859 50.9296 49.38L49.7296 48.62L49.4396 48.74L49.1196 50.18C49.0017 50.8847 48.6491 51.529 48.119 52.0082C47.589 52.4874 46.9126 52.7734 46.1996 52.82ZM44.6896 49.82H46.0796C46.1406 49.7602 46.1823 49.6836 46.1996 49.6L46.6896 47.4C46.7533 47.1088 46.8921 46.8394 47.092 46.6184C47.292 46.3974 47.5463 46.2325 47.8296 46.14C48.2505 46.0061 48.6587 45.8355 49.0496 45.63C49.3174 45.4948 49.6155 45.4311 49.9151 45.4452C50.2147 45.4592 50.5056 45.5504 50.7596 45.71L52.6896 46.89C52.7751 46.9422 52.8704 46.9762 52.9696 46.99L53.9696 45.99C53.9387 45.8851 53.895 45.7843 53.8396 45.69L52.6296 43.82C52.4787 43.5736 52.393 43.2928 52.3808 43.0041C52.3685 42.7154 52.4301 42.4283 52.5596 42.17C52.7556 41.7945 52.9196 41.4031 53.0496 41C53.1353 40.7155 53.2924 40.4577 53.506 40.2512C53.7195 40.0446 53.9824 39.8962 54.2696 39.82L56.3996 39.29C56.5161 39.2653 56.6276 39.2214 56.7296 39.16V37.82C56.6632 37.7684 56.5889 37.7279 56.5096 37.7L54.3496 37.22C54.051 37.152 53.7762 37.0046 53.5544 36.7934C53.3326 36.5822 53.172 36.315 53.0896 36.02C52.9514 35.6057 52.7774 35.2042 52.5696 34.82C52.4359 34.5598 52.3712 34.2696 52.3817 33.9772C52.3922 33.6848 52.4776 33.4 52.6296 33.15L53.7696 31.26C53.8311 31.1569 53.8782 31.0459 53.9096 30.93L52.9096 29.93C52.8252 29.9339 52.7429 29.9579 52.6696 30L50.7796 31.21C50.521 31.3679 50.2264 31.4573 49.9237 31.4695C49.6209 31.4818 49.3201 31.4165 49.0496 31.28C48.6569 31.0755 48.2491 30.9016 47.8296 30.76C47.546 30.6649 47.2919 30.4979 47.0921 30.2753C46.8923 30.0528 46.7536 29.7822 46.6896 29.49L46.2196 27.36C46.2011 27.26 46.1562 27.1668 46.0896 27.09H44.6896C44.6334 27.1863 44.5929 27.2909 44.5696 27.4L44.0396 29.53C43.9662 29.8137 43.8223 30.0744 43.6212 30.2876C43.4202 30.5009 43.1685 30.66 42.8896 30.75C42.4357 30.8893 41.9969 31.0735 41.5796 31.3C41.3117 31.4395 41.012 31.5064 40.7103 31.4941C40.4085 31.4818 40.1152 31.3908 39.8596 31.23L37.9596 30.02C37.8777 29.9606 37.7806 29.9259 37.6796 29.92L36.6796 30.92C36.7062 31.0264 36.7501 31.1278 36.8096 31.22L38.0196 33.22C38.1649 33.4583 38.2508 33.7281 38.2699 34.0066C38.2891 34.285 38.2409 34.564 38.1296 34.82C37.9512 35.2076 37.804 35.6089 37.6896 36.02C37.5989 36.3092 37.4339 36.5694 37.211 36.7748C36.9881 36.9801 36.7152 37.1233 36.4196 37.19L34.3196 37.65C34.2218 37.6747 34.1299 37.7189 34.0496 37.78V39.18C34.1443 39.2322 34.245 39.2725 34.3496 39.3L36.4996 39.83C36.777 39.9094 37.0307 40.0559 37.2382 40.2564C37.4457 40.4569 37.6007 40.7054 37.6896 40.98C37.8037 41.3413 37.9475 41.6925 38.1196 42.03C38.2518 42.2911 38.3148 42.5817 38.3025 42.8741C38.2903 43.1665 38.2032 43.4509 38.0496 43.7L36.8596 45.7C36.7985 45.7998 36.7514 45.9074 36.7196 46.02L37.7196 47.02C37.8034 47.0204 37.8859 46.9998 37.9596 46.96L39.8996 45.72C40.1564 45.5574 40.4515 45.4653 40.7552 45.453C41.0589 45.4407 41.3605 45.5087 41.6296 45.65C42.0485 45.873 42.487 46.0571 42.9396 46.2C43.2185 46.29 43.4702 46.4491 43.6712 46.6624C43.8723 46.8756 44.0162 47.1362 44.0896 47.42L44.6096 49.52C44.6251 49.6227 44.6519 49.7233 44.6896 49.82ZM34.7796 41.9C34.7796 41.9 34.8296 41.91 34.8296 41.9H34.7796Z" fill="black" stroke="white" stroke-width="0.8" mask="url(#path-5-inside-1_4_703)"/>
<path d="M45.5197 10.47H45.5196C45.2146 10.47 44.9221 10.3488 44.7064 10.1332C44.4908 9.91751 44.3696 9.625 44.3696 9.32V3.5C44.3696 3.195 44.4908 2.90249 44.7064 2.68683C44.9221 2.47116 45.2146 2.35 45.5196 2.35C45.8246 2.35 46.1171 2.47116 46.3328 2.68683C46.5484 2.9025 46.6696 3.195 46.6696 3.5V9.35502C46.6605 9.65308 46.536 9.93602 46.3222 10.1441C46.1074 10.3532 45.8195 10.4701 45.5197 10.47Z" fill="black" stroke="white" stroke-width="0.7"/>
<path d="M28.2628 15.12L28.2628 15.1199L28.2552 15.12C28.054 15.1225 27.8558 15.0708 27.6816 14.9702C27.5073 14.8697 27.3633 14.724 27.2647 14.5486L27.2648 14.5486L27.2624 14.5444L24.3227 9.4751C24.3227 9.475 24.3226 9.4749 24.3226 9.4748C24.1702 9.21049 24.129 8.89647 24.2081 8.60179C24.2871 8.307 24.4801 8.0557 24.7445 7.90317C25.0089 7.75065 25.323 7.70939 25.6178 7.78848C25.9126 7.86757 26.1639 8.06053 26.3164 8.32491L26.3165 8.32513L29.2465 13.3951L29.2465 13.3951L29.2477 13.3971C29.3242 13.5274 29.374 13.6717 29.3942 13.8214C29.4144 13.9712 29.4046 14.1235 29.3655 14.2694C29.3263 14.4153 29.2586 14.552 29.1661 14.6716C29.0736 14.7911 28.9583 14.891 28.8269 14.9656L28.8269 14.9655L28.8205 14.9693C28.6519 15.0697 28.459 15.1219 28.2628 15.12Z" fill="black" stroke="white" stroke-width="0.7"/>
<path d="M17.39 27.75L17.3867 27.75C17.1863 27.7517 16.9893 27.6992 16.8164 27.598L16.8145 27.5968L11.7345 24.6668C11.7345 24.6668 11.7345 24.6668 11.7345 24.6668C11.4701 24.5143 11.2772 24.263 11.1981 23.9682C11.119 23.6734 11.1603 23.3593 11.3128 23.0949C11.4653 22.8305 11.7166 22.6376 12.0114 22.5585C12.3062 22.4794 12.6203 22.5206 12.8847 22.6732L12.8847 22.6732L17.9647 25.6032L17.965 25.6033C18.1846 25.7297 18.3563 25.9251 18.4534 26.1592C18.5506 26.3932 18.5677 26.6528 18.5021 26.8975C18.4366 27.1423 18.292 27.3586 18.0909 27.5127C17.8898 27.6669 17.6434 27.7503 17.39 27.75ZM17.3896 28.1L17.3896 28.1L17.3896 28.1Z" fill="black" stroke="white" stroke-width="0.7"/>
<path d="M15.4296 45.01H9.5596C9.2546 45.01 8.9621 44.8888 8.74643 44.6732C8.53076 44.4575 8.4096 44.165 8.4096 43.86C8.4096 43.555 8.53076 43.2625 8.74643 43.0468C8.96209 42.8311 9.2546 42.71 9.5596 42.71H15.4296C15.7346 42.71 16.0271 42.8311 16.2428 43.0468C16.4584 43.2625 16.5796 43.555 16.5796 43.86C16.5796 44.165 16.4584 44.4575 16.2428 44.6732C16.0271 44.8888 15.7346 45.01 15.4296 45.01Z" fill="black" stroke="white" stroke-width="0.7"/>
<path d="M62.4826 15.12L62.4826 15.12L62.4766 15.12C62.2763 15.1217 62.0793 15.0692 61.9064 14.968L61.9043 14.9667C61.7734 14.8913 61.6586 14.7908 61.5665 14.6709C61.4744 14.5511 61.4069 14.4143 61.3677 14.2683C61.3286 14.1223 61.3186 13.9701 61.3383 13.8203C61.358 13.6704 61.4071 13.526 61.4826 13.3951C61.4826 13.3951 61.4826 13.3951 61.4827 13.3951L64.4126 8.32513L64.4128 8.32491C64.5653 8.06053 64.8166 7.86757 65.1114 7.78848C65.4062 7.70939 65.7203 7.75065 65.9847 7.90317C66.2491 8.0557 66.442 8.307 66.5211 8.60179C66.6002 8.89658 66.5589 9.21072 66.4064 9.4751L63.4766 14.5449L63.4765 14.5449L63.4751 14.5474C63.3757 14.7227 63.2313 14.8682 63.0568 14.9688C62.8823 15.0695 62.684 15.1217 62.4826 15.12Z" fill="black" stroke="white" stroke-width="0.7"/>
<path d="M73.3529 27.75L73.3529 27.75L73.3468 27.75C73.0928 27.752 72.8452 27.6698 72.6428 27.5163C72.4404 27.3627 72.2945 27.1465 72.228 26.9013C72.1614 26.6561 72.1779 26.3958 72.275 26.161C72.3719 25.9262 72.5439 25.7301 72.7641 25.6034C72.7641 25.6034 72.7641 25.6033 72.7642 25.6033L77.8639 22.6735L77.8645 22.6732C77.9954 22.5976 78.1399 22.5486 78.2897 22.529C78.4396 22.5093 78.5918 22.5193 78.7378 22.5585C78.8838 22.5976 79.0206 22.6652 79.1405 22.7572C79.2603 22.8492 79.3609 22.964 79.4364 23.0949C79.5119 23.2258 79.5609 23.3703 79.5806 23.5201C79.6003 23.67 79.5903 23.8222 79.5511 23.9682C79.5119 24.1142 79.4444 24.251 79.3524 24.3709C79.2604 24.4907 79.1457 24.5912 79.0149 24.6667C79.0148 24.6667 79.0147 24.6668 79.0147 24.6668L73.9152 27.5965L73.9152 27.5965L73.9105 27.5993C73.7419 27.6997 73.549 27.7518 73.3529 27.75Z" fill="black" stroke="white" stroke-width="0.7"/>
<circle cx="45.2763" cy="38.7561" r="6.10512" fill="#DD0004"/>
</svg>
