<svg width="88" height="88" viewBox="0 0 88 88" fill="none" xmlns="http://www.w3.org/2000/svg">
<rect width="88" height="88" fill="white"/>
<path d="M39.4035 26.551C39.318 25.3131 39.4835 24.0708 39.89 22.8985C40.2965 21.7262 40.9356 20.6481 41.7691 19.729C42.6025 18.8098 43.613 18.0684 44.7401 17.5495C45.8671 17.0305 47.0873 16.7445 48.3276 16.7088C49.5678 16.673 50.8025 16.8882 51.9576 17.3414C53.1126 17.7946 54.1642 18.4765 55.0492 19.3462C55.9342 20.2158 56.6344 21.2553 57.1077 22.4022C57.581 23.5492 57.8178 24.7799 57.8038 26.0206L48.593 25.9163L39.4035 26.551Z" fill="#DD0004"/>
<path d="M67.2964 73.1583H32.5179C30.4803 73.1583 28.7388 71.7706 28.2828 69.7854L26.4824 61.9507H70.1373C70.5854 61.9507 70.9772 61.648 71.0899 61.213L79.9689 26.791C80.045 26.4961 79.9807 26.1843 79.7934 25.9431C79.6073 25.7033 79.3216 25.5618 79.0163 25.5618H67.1483C67.147 25.1844 67.1667 24.8097 67.1391 24.4284L71.2 22.6187C71.6913 22.3999 71.9154 21.8273 71.7018 21.3333L68.0603 12.8683C67.8454 12.3651 67.2597 12.1358 66.7565 12.3599L63.0115 14.0398C62.2672 13.1382 61.4443 12.3193 60.5558 11.5959L62.0339 7.79587C62.2305 7.29137 61.9815 6.72136 61.4731 6.5235L52.9688 3.22137C52.4696 3.02613 51.8943 3.27641 51.6965 3.7809L50.2197 7.57834C49.0652 7.50496 47.9042 7.55607 46.7406 7.72117L45.1302 3.96042C44.9153 3.45855 44.3269 3.2253 43.8238 3.45069L35.3968 7.23765C34.9067 7.45779 34.684 8.03173 34.8975 8.52443L36.6626 12.5944C35.8947 13.3164 35.1858 14.121 34.5464 14.9976L30.3388 13.3623C29.8395 13.1671 29.2656 13.4121 29.0664 13.9231L25.7106 22.5716C25.5153 23.0774 25.7656 23.6461 26.2714 23.8439L30.6952 25.5631H18.1183L16.0204 16.4325C15.9182 15.9857 15.5211 15.6699 15.0625 15.6699H2.25084C1.70835 15.6699 1.26807 16.1101 1.26807 16.6526C1.26807 17.1951 1.70835 17.6354 2.25084 17.6354H14.2802L26.367 70.2257C27.0301 73.1098 29.5591 75.1239 32.5179 75.1239H36.3625C35.064 76.3844 34.2502 78.139 34.2502 80.0875C34.2502 83.9073 37.3584 87.0168 41.1794 87.0168C45.0005 87.0168 48.1087 83.9086 48.1087 80.0875C48.1087 78.139 47.2949 76.3844 45.9964 75.1239H62.4782C61.1796 76.3844 60.3658 78.139 60.3658 80.0875C60.3658 83.9073 63.474 87.0168 67.2951 87.0168C71.1161 87.0168 74.2243 83.9086 74.2243 80.0875C74.2256 76.2665 71.1174 73.1583 67.2964 73.1583ZM30.5432 15.5506L34.5542 17.1086C34.9866 17.2751 35.4715 17.1218 35.7283 16.7365C36.5342 15.5257 37.437 14.4984 38.4866 13.5942C38.8129 13.3138 38.9177 12.8539 38.7474 12.4582L37.0872 8.63188L43.7176 5.65341L45.2363 9.20189C45.4185 9.62383 45.8575 9.87018 46.32 9.78107C47.8086 9.50327 49.3063 9.44169 50.7661 9.595C51.2038 9.64086 51.6244 9.38796 51.7856 8.97389L53.1732 5.40837L59.8456 7.99897L58.458 11.5632C58.2981 11.9746 58.4317 12.4437 58.7869 12.7084C59.9609 13.5824 61.0184 14.636 61.9317 15.8415C62.2095 16.2071 62.7022 16.3316 63.1163 16.1455L66.6491 14.5626L69.5135 21.2193L65.6951 22.9214C65.3033 23.0957 65.0701 23.5046 65.1199 23.9317C65.1828 24.4847 65.2155 25.0246 65.2181 25.5631H59.8496C59.3975 19.884 54.7129 15.3514 48.8779 15.3514C43.2446 15.3514 38.2993 19.7176 37.7384 25.5631H32.8809C32.8835 25.3954 32.8901 25.2277 32.9032 25.0586C32.9346 24.6275 32.6817 24.2279 32.2781 24.0706L27.9002 22.3685L30.5432 15.5506ZM48.8792 17.3144C53.6292 17.3144 57.4083 20.952 57.8552 25.5618H39.721C40.2805 20.7462 44.3702 17.3144 48.8792 17.3144ZM77.7492 27.5274L76.4808 32.4465H47.1875C46.645 32.4465 46.2047 32.8868 46.2047 33.4293C46.2047 33.9718 46.645 34.4121 47.1875 34.4121H75.9736L74.7052 39.3312H48.4978C47.9554 39.3312 47.5151 39.7715 47.5151 40.3139C47.5151 40.8564 47.9554 41.2967 48.4978 41.2967H74.1968L72.9283 46.2145H49.8082C49.2657 46.2145 48.8254 46.6548 48.8254 47.1973C48.8254 47.7398 49.2657 48.1801 49.8082 48.1801H72.4212L71.1528 53.0992H51.1186C50.5761 53.0992 50.1358 53.5395 50.1358 54.082C50.1358 54.6245 50.5761 55.0648 51.1186 55.0648H70.6457L69.3772 59.9839H26.0303L18.5704 27.5274H77.7492ZM46.1444 80.0875C46.1444 82.8236 43.9181 85.0512 41.1808 85.0512C38.4434 85.0512 36.2171 82.8249 36.2171 80.0875C36.2171 77.3502 38.4434 75.1239 41.1808 75.1239C43.9168 75.1239 46.1444 77.3502 46.1444 80.0875ZM67.2964 85.0499C64.559 85.0499 62.3327 82.8236 62.3327 80.0862C62.3327 77.3489 64.559 75.1226 67.2964 75.1226C70.0337 75.1226 72.2601 77.3489 72.2601 80.0862C72.2601 82.8236 70.0337 85.0499 67.2964 85.0499Z" fill="black"/>
</svg>
