<svg width="686" height="630" viewBox="0 0 686 630" fill="none" xmlns="http://www.w3.org/2000/svg">
<path fill-rule="evenodd" clip-rule="evenodd" d="M132 0.336951C128.906 0.896951 3.756 125.518 1.488 130.297C0.131003 133.157 -0.00800041 158.503 0.231 358.822L0.499997 584.131L3.155 591.395C4.615 595.39 7.237 600.883 8.981 603.602C13.605 610.807 23.541 619.64 31.344 623.48C44.468 629.94 33.25 629.655 263 629.369L471.5 629.109L478 626.906C492.877 621.865 505.275 611.222 511.462 598.18C516.266 588.054 517 582.997 517 560.032C517 537.429 516.472 534.961 511.033 532.148C505.401 529.236 498.544 530.709 495.264 535.535C493.756 537.754 493.423 541.33 492.973 560.131C492.485 580.552 492.28 582.471 490.12 586.867C487.332 592.541 481.113 598.984 475.551 601.962L471.5 604.131L260.11 604.39L48.72 604.649L43.49 602.255C36.108 598.876 30.715 593.622 27.718 586.893C24.495 579.657 24.741 600.21 24.884 349.881L25 147.631L61.25 147.614C102.265 147.594 106.503 147.098 118.257 140.936C132.146 133.655 141.945 120.986 146.025 105.035C147.814 98.039 148 93.887 148 60.971V24.631H307.962C467.22 24.631 467.949 24.6399 473.451 26.6989C480.008 29.1519 486.679 35.407 490.112 42.322C492.399 46.928 492.513 48.153 492.814 71.381C493.002 85.851 492.755 95.631 492.201 95.631C491.691 95.631 488.908 95.1819 486.018 94.6339C483.127 94.0859 474.741 93.181 467.381 92.622C433.888 90.08 396.801 97.345 365.417 112.596C350.635 119.779 331.222 132.605 322.496 140.954C316.255 146.924 316 147.358 316 152C316 156.161 316.472 157.303 319.4 160.231C322.342 163.173 323.46 163.631 327.703 163.631C332.311 163.631 333.175 163.175 342.053 156.056C368.616 134.756 399.599 121.684 433.267 117.573C447.486 115.836 474.704 116.83 488.47 119.589C569.17 135.763 628.641 204.694 632.586 286.631C636.62 370.392 580.365 446.781 499.246 467.697C467.759 475.815 435.53 475.423 405 466.55C374.898 457.801 350.764 443.405 328 420.619C312.871 405.475 304.31 393.667 295.024 375.131C281.398 347.934 275.982 325.139 275.897 294.631C275.811 263.666 283.739 233.167 298.563 207.428C304.179 197.678 304.619 192.096 300.128 187.605C294.762 182.239 287.155 182.412 282.239 188.012C275.223 196.002 263.388 223.281 257.927 244.049C251.929 266.857 249.965 296.427 252.874 320.131C261.198 387.977 304.301 447.888 366.146 477.574C382.417 485.384 396.275 490.067 413.991 493.739C433.065 497.693 460.77 498.744 479.745 496.232C517.179 491.278 554.762 475.271 581.706 452.805C585.12 449.96 588.262 447.631 588.689 447.631C589.117 447.631 607.024 465.149 628.483 486.56C662.358 520.359 667.988 525.578 671.207 526.163C679.404 527.654 686.897 520.161 685.435 511.937C684.838 508.58 680.205 503.571 646.162 469.481C624.935 448.223 607.408 430.354 607.213 429.771C607.019 429.188 609.224 425.881 612.114 422.421C630.713 400.152 646.947 365.809 652.903 336.131C658.893 306.281 658.184 273.719 650.92 245.131C642.077 210.33 625.283 180.354 600.018 154.273C578.501 132.06 555.485 116.71 527 105.572L517.5 101.858L516.977 72.495C516.497 45.511 516.277 42.658 514.274 37.299C507.894 20.233 495.534 8.33095 478 2.36695L471.5 0.156958L303 0.0199649C210.325 -0.0550351 133.375 0.087951 132 0.336951ZM124 67.506C124 80.573 123.515 93.934 122.923 97.197C121.045 107.54 114.136 116.403 104.5 120.829C99.725 123.023 98.227 123.141 71.25 123.46C55.713 123.643 43 123.422 43 122.967C43 121.571 122.322 42.712 123.188 43.247C123.635 43.523 124 54.44 124 67.506ZM427.836 148.706C376.237 156.28 331.336 193.631 314.326 243.131C308.449 260.234 304.707 287.6 307.373 293.982C310.173 300.682 317.7 303.547 324.439 300.477C328.952 298.421 330.218 295.111 331.047 283.206C333.562 247.071 350.339 216.132 379.036 194.703C397.52 180.902 423.917 171.631 444.73 171.631C455.866 171.631 461 167.513 461 158.581C461 155.195 460.374 153.805 457.6 151.031L454.2 147.631L443.85 147.753C438.158 147.82 430.951 148.249 427.836 148.706ZM411.538 245.128C407.164 246.688 404.446 249.652 403.625 253.757C402.458 259.592 404.573 262.681 420.999 279.13L437.001 295.154L420.982 311.142C403.941 328.151 402.331 330.625 404.11 337.067C405.539 342.241 410.15 345.631 415.76 345.631H420.367L437.197 328.906L454.027 312.181L469.763 327.799C478.419 336.389 486.483 343.915 487.684 344.524C495.527 348.5 505 342.416 505 333.403C505 328.782 503.731 327.157 486.624 309.881L471.523 294.63L487.87 278.261C503.241 262.869 504.245 261.631 504.696 257.512C505.616 249.122 497.885 242.438 489.841 244.668C487.474 245.324 481.846 250.257 470.536 261.588L454.572 277.582L437.916 261.106C428.755 252.045 420.563 244.631 419.712 244.631C418.86 244.631 417.564 244.425 416.832 244.173C416.099 243.921 413.717 244.35 411.538 245.128ZM79.418 471.585C73.158 474.163 70.287 482.418 73.494 488.62C76.708 494.835 74.911 494.631 126.5 494.631C178.089 494.631 176.292 494.835 179.506 488.62C182.076 483.649 181.435 479.076 177.578 474.866L174.155 471.131L127.828 470.929C102.347 470.818 80.563 471.113 79.418 471.585ZM77.763 534.196C70.129 538.338 70.254 551.125 77.967 555.114C82.39 557.401 221.61 557.401 226.033 555.114C233.856 551.069 233.856 538.193 226.033 534.148C221.665 531.889 81.93 531.935 77.763 534.196Z" fill="#B8B8B8"/>
</svg>
