<svg width="88" height="88" viewBox="0 0 88 88" fill="none" xmlns="http://www.w3.org/2000/svg">
<rect x="37.6875" y="43.125" width="10.875" height="7.6875" fill="#DD0004"/>
<path fill-rule="evenodd" clip-rule="evenodd" d="M42.9787 64.0649C42.8834 64.0649 42.8072 64.0459 42.7119 64.0268C40.4816 63.474 38.3657 62.54 36.4595 61.2628C34.5915 60.0238 32.9521 58.4798 31.5606 56.6879C30.1881 54.8961 29.1016 52.8946 28.3772 50.7597C27.6148 48.5675 27.2335 46.261 27.2335 43.9164V31.7549C27.2335 31.2021 27.6529 30.7446 28.2057 30.6874C33.848 30.1155 38.9567 27.9615 42.2163 24.7591C42.6356 24.3397 43.3028 24.3397 43.7221 24.7591C46.9817 27.9615 52.0904 30.1155 57.7327 30.6874C58.2855 30.7446 58.7049 31.2021 58.7049 31.7549V43.9164C58.7049 44.0308 58.7049 44.1451 58.7049 44.2595C58.5524 53.638 52.1857 61.7775 43.2265 64.0268C43.1503 64.0459 43.055 64.0649 42.9787 64.0649ZM29.3875 32.708V43.9164C29.3875 52.3799 34.9536 59.7188 42.9787 61.8537C50.8513 59.7569 56.4365 52.5324 56.5699 44.2214C56.5699 44.1261 56.5699 44.0117 56.5699 43.9164V32.708C53.8441 32.3458 51.2516 31.6595 48.8879 30.6302C46.6196 29.658 44.6371 28.4381 42.9978 26.9894C41.3394 28.4381 39.376 29.658 37.1076 30.6302C34.6868 31.6595 32.1134 32.3648 29.3875 32.708Z" fill="black"/>
<path fill-rule="evenodd" clip-rule="evenodd" d="M49.0976 52.5133H36.8598C36.2689 52.5133 35.7733 52.0368 35.7733 51.4268V42.3724C35.7733 41.7814 36.2498 41.2858 36.8598 41.2858H49.0976C49.6885 41.2858 50.1842 41.7624 50.1842 42.3724V51.4268C50.1651 52.0368 49.6885 52.5133 49.0976 52.5133ZM37.9273 50.3593H48.0111V43.4589H37.9273V50.3593Z" fill="black"/>
<path fill-rule="evenodd" clip-rule="evenodd" d="M46.6767 43.4589C46.0858 43.4589 45.5902 42.9823 45.5902 42.3723V38.4265C45.5902 37.7022 45.3043 37.0159 44.8087 36.5013C44.3131 35.9866 43.6459 35.7197 42.9597 35.7197C41.5109 35.7197 40.3291 36.9397 40.3291 38.4265V42.3533C40.3291 42.9442 39.8526 43.4398 39.2426 43.4398C38.6516 43.4398 38.156 42.9633 38.156 42.3533V38.4265C38.156 35.7388 40.31 33.5657 42.9406 33.5657C44.2177 33.5657 45.4377 34.0804 46.3336 34.9954C47.2295 35.9103 47.7252 37.1303 47.7252 38.4265V42.3533C47.7633 42.9823 47.2867 43.4589 46.6767 43.4589Z" fill="black"/>
<path fill-rule="evenodd" clip-rule="evenodd" d="M12.8036 17.9158C10.4018 17.9158 8.45747 15.9334 8.45747 13.5125C8.45747 11.0916 10.4018 9.10919 12.8036 9.10919C15.2054 9.10919 17.1497 11.0916 17.1497 13.5125C17.1497 15.9334 15.1864 17.9158 12.8036 17.9158ZM12.8036 11.2632C11.6027 11.2632 10.6115 12.2735 10.6115 13.5125C10.6115 14.7515 11.5836 15.7618 12.8036 15.7618C14.0236 15.7618 14.9767 14.7515 14.9767 13.5125C14.9767 12.2735 14.0045 11.2632 12.8036 11.2632Z" fill="black"/>
<path fill-rule="evenodd" clip-rule="evenodd" d="M73.1539 45.327H57.6374C57.0465 45.327 56.5509 44.8504 56.5509 44.2404C56.5509 43.6495 57.0274 43.1539 57.6374 43.1539H72.0673V30.4968C72.0673 21.7282 65.0716 14.58 56.4556 14.58H16.0632C15.4723 14.58 14.9767 14.1034 14.9767 13.4935C14.9767 12.9025 15.4532 12.4069 16.0632 12.4069H56.4556C58.8574 12.4069 61.1829 12.8835 63.3751 13.8366C65.4909 14.7515 67.3971 16.0478 69.0174 17.7062C70.6567 19.3645 71.9339 21.2898 72.8298 23.4438C73.7638 25.6741 74.2213 28.0378 74.2213 30.4777V44.2023C74.2213 44.8504 73.7448 45.327 73.1539 45.327Z" fill="black"/>
<path fill-rule="evenodd" clip-rule="evenodd" d="M73.1539 79.3907C70.7521 79.3907 68.8077 77.4083 68.8077 74.9874C68.8077 72.5666 70.7521 70.5841 73.1539 70.5841C75.5557 70.5841 77.5 72.5666 77.5 74.9874C77.5 77.4083 75.5366 79.3907 73.1539 79.3907ZM73.1539 72.7381C71.953 72.7381 70.9617 73.7484 70.9617 74.9874C70.9617 76.2265 71.9339 77.2367 73.1539 77.2367C74.3738 77.2367 75.3269 76.2265 75.3269 74.9874C75.3269 73.7484 74.3548 72.7381 73.1539 72.7381Z" fill="black"/>
<path fill-rule="evenodd" clip-rule="evenodd" d="M69.8752 76.0549H29.4828C27.081 76.0549 24.7555 75.5784 22.5633 74.6253C20.4475 73.7103 18.5413 72.4141 16.921 70.7557C15.2817 69.0973 14.0045 67.172 13.1086 65.018C12.1746 62.7878 11.7171 60.4241 11.7171 57.9841V44.2595C11.7171 43.6686 12.1936 43.173 12.8036 43.173H28.3201C28.911 43.173 29.4066 43.6495 29.4066 44.2595C29.4066 44.8504 28.93 45.346 28.3201 45.346H13.8711V58.0032C13.8711 66.7717 20.8668 73.92 29.4828 73.92H69.8752C70.4661 73.92 70.9617 74.3965 70.9617 75.0065C70.9617 75.6165 70.4852 76.0549 69.8752 76.0549Z" fill="black"/>
<circle cx="12.8036" cy="13.5125" r="2.5" fill="#DD0004"/>
<circle cx="73.1539" cy="74.9874" r="2.5" fill="#DD0004"/>
</svg>
