<svg width="88" height="88" viewBox="0 0 88 88" fill="none" xmlns="http://www.w3.org/2000/svg">
<rect width="88" height="88" fill="white"/>
<g clip-path="url(#clip0_12_578)">
<path d="M44.5 30.5V58.5L46.5 62.5L51.5 62L55 58L60.5 56L61.5 52L65 49.5L66.5 44.5L63 41V38V32.5L56 28.5L50.5 25.5L45.5 26.5L44.5 30.5Z" fill="#DD0004" stroke="black"/>
<path d="M77.5229 36.1681H74.1635C73.4409 33.379 72.3315 30.7111 70.8588 28.215L73.2416 25.8322C75.0424 24.0314 75.0424 21.0978 73.2416 19.297L68.7025 14.7579C66.9017 12.9571 63.972 12.9571 62.1673 14.7579L59.7845 17.1407C57.2845 15.668 54.6165 14.5587 51.8314 13.836V10.4766C51.8314 7.92967 49.7572 5.85547 47.2103 5.85547H40.7884C38.2415 5.85547 36.1673 7.92967 36.1673 10.4766V13.836C33.3782 14.5586 30.7103 15.668 28.2142 17.1407L25.8314 14.7579C24.0306 12.9571 21.1009 12.9571 19.2962 14.7579L14.7571 19.297C12.9563 21.0978 12.9563 24.0314 14.7571 25.8322L17.1399 28.215C15.6672 30.7111 14.5618 33.3791 13.8352 36.1681H10.4758C7.92894 36.1681 5.85474 38.2423 5.85474 40.7892V47.2111C5.85474 49.758 7.92894 51.8322 10.4758 51.8322H13.8352C14.5579 54.6213 15.6672 57.2892 17.1399 59.7853L14.7571 62.1681C12.9563 63.9689 12.9563 66.8986 14.7571 68.7033L19.2962 73.2424C21.097 75.0432 24.0267 75.0432 25.8314 73.2424L28.2142 70.8596C30.7103 72.3323 33.3783 73.4377 36.1673 74.1604V77.5198C36.1673 80.0667 38.2415 82.1409 40.7884 82.1409H47.2103C49.7572 82.1409 51.8314 80.0667 51.8314 77.5198V74.1604C54.6205 73.4377 57.2884 72.3323 59.7845 70.8557L62.1673 73.2385C63.9681 75.0393 66.8978 75.0393 68.7025 73.2385L73.2416 68.6994C75.0424 66.8986 75.0424 63.965 73.2416 62.1642L70.8588 59.7814C72.3315 57.2853 73.4408 54.6173 74.1635 51.8283H77.5229C80.0698 51.8283 82.144 49.7541 82.144 47.2072V40.7853C82.144 38.2384 80.0698 36.1642 77.5229 36.1642V36.1681ZM79.812 47.2071C79.812 48.4688 78.7847 49.4962 77.5229 49.4962H72.3159L72.1089 50.4024C71.3902 53.5626 70.1441 56.5704 68.4019 59.336L67.9058 60.1251L71.5933 63.8126C72.4839 64.7032 72.4839 66.1564 71.5933 67.047L67.0542 71.5861C66.1909 72.4494 64.6831 72.4494 63.8198 71.5861L60.1323 67.8986L59.3433 68.3947C56.5738 70.1369 53.5699 71.3869 50.4097 72.1017L49.5034 72.3087V77.5196C49.5034 78.7813 48.4761 79.8087 47.2143 79.8087H40.7924C39.5307 79.8087 38.5033 78.7814 38.5033 77.5196V72.3087L37.5931 72.1017C34.4329 71.3868 31.429 70.1369 28.6595 68.3947L27.8705 67.8986L24.183 71.5861C23.3197 72.4494 21.8119 72.4494 20.9486 71.5861L16.4095 67.047C15.5189 66.1564 15.5189 64.7032 16.4095 63.8126L20.097 60.1251L19.6009 59.336C17.8587 56.5704 16.6087 53.5626 15.8939 50.4024L15.6869 49.4962H10.4799C9.21817 49.4962 8.19077 48.4689 8.19077 47.2071V40.7852C8.19077 39.5235 9.21807 38.4961 10.4799 38.4961H15.6869L15.8939 37.5898C16.6126 34.4296 17.8587 31.4218 19.6009 28.6562L20.097 27.8672L16.4095 24.1797C15.9759 23.75 15.7415 23.1719 15.7415 22.5625C15.7415 21.9531 15.9798 21.375 16.4095 20.9453L20.9486 16.4062C21.8119 15.5429 23.3197 15.5429 24.183 16.4062L27.8705 20.0937L28.6595 19.5976C31.4251 17.8554 34.4329 16.6054 37.5931 15.8906L38.4994 15.6835V10.4765C38.4994 9.21484 39.5267 8.18744 40.7885 8.18744H47.2104C48.4721 8.18744 49.4995 9.21474 49.4995 10.4765V15.6835L50.4057 15.8906C53.5659 16.6054 56.5698 17.8554 59.3393 19.5976L60.1284 20.0937L63.8159 16.4062C64.6792 15.5429 66.187 15.5429 67.0503 16.4062L71.5894 20.9453C72.023 21.3749 72.2574 21.9531 72.2574 22.5625C72.2574 23.1719 72.0191 23.75 71.5894 24.1797L67.9019 27.8672L68.398 28.6562C70.1402 31.4218 71.3902 34.4296 72.105 37.5898L72.312 38.4961H77.519C78.7807 38.4961 79.8081 39.5234 79.8081 40.7852V47.2071H79.812Z" fill="black"/>
<path d="M33.9921 37.6021C34.2655 36.5865 34.9648 35.7349 35.9023 35.2583C36.4765 34.9654 36.707 34.2661 36.414 33.688C36.125 33.1138 35.4218 32.8794 34.8476 33.1763C33.3203 33.9498 32.1874 35.3404 31.7421 36.9888C31.5741 37.6099 31.9413 38.2505 32.5624 38.4185C32.664 38.4459 32.7655 38.4576 32.8671 38.4576C33.3827 38.4576 33.8515 38.1177 33.9921 37.5982L33.9921 37.6021Z" fill="black"/>
<path d="M37.223 51.648C36.2074 51.3707 35.3558 50.6754 34.8792 49.7378C34.5862 49.1597 33.8831 48.9331 33.3128 49.2261C32.7386 49.5191 32.5081 50.2183 32.8011 50.7925C33.5745 52.3198 34.9652 53.4527 36.6136 53.898C36.7151 53.9253 36.8206 53.9371 36.9222 53.9371C37.4339 53.9371 37.9065 53.5972 38.0472 53.0777C38.2151 52.4566 37.8479 51.816 37.2268 51.6441L37.223 51.648Z" fill="black"/>
<path d="M38.312 41.2699C37.4018 41.7933 36.3042 41.9066 35.3042 41.5746C34.6909 41.3715 34.0347 41.7074 33.8315 42.3207C33.6323 42.9339 33.9643 43.5902 34.5776 43.7934C35.1909 43.9966 35.8276 44.0941 36.4643 44.0941C37.5073 44.0941 38.5502 43.8246 39.4721 43.2973C40.0307 42.977 40.226 42.2661 39.9057 41.7035C39.5854 41.1449 38.8746 40.9496 38.312 41.2699Z" fill="black"/>
<path d="M28.4261 42.7661C27.8675 43.0864 27.6722 43.7973 27.9925 44.3599C28.516 45.27 28.6253 46.3677 28.2972 47.3677C28.098 47.9809 28.43 48.6372 29.0433 48.8404C29.1644 48.8794 29.2855 48.899 29.4066 48.899C29.8988 48.899 30.3558 48.5865 30.516 48.0943C31.0472 46.4693 30.8676 44.6841 30.0199 43.1998C29.6957 42.6412 28.9847 42.4497 28.4261 42.7661Z" fill="black"/>
<path d="M63.488 39.6168C63.9841 38.527 64.242 37.3473 64.242 36.1363C64.242 31.5386 60.5662 27.7847 55.9998 27.6519C54.7264 25.355 52.3123 23.9097 49.6443 23.9097C47.4099 23.9097 45.3552 24.9253 43.9998 26.6011C42.6404 24.9253 40.5896 23.9097 38.3553 23.9097C35.6834 23.9097 33.2733 25.3511 31.9959 27.6519C27.4295 27.7847 23.7576 31.5386 23.7576 36.1363C23.7576 37.3472 24.0154 38.5269 24.5115 39.6168C22.1795 40.5933 20.5662 42.9059 20.5662 45.5191C20.5662 48.5621 22.6443 51.0894 25.492 51.7574C25.4802 51.9175 25.4724 52.0777 25.4724 52.2339C25.4724 56.273 28.906 59.5855 32.9997 59.2378C33.6989 62.0425 36.2145 64.0855 39.2106 64.0855C41.0661 64.0855 42.8004 63.2691 43.9997 61.9214C45.1989 63.273 46.9333 64.0855 48.7888 64.0855C51.7849 64.0855 54.3005 62.0425 54.9997 59.2378C59.0974 59.5816 62.527 56.273 62.527 52.2339C62.527 52.0738 62.5192 51.9175 62.5075 51.7574C65.3552 51.0894 67.4333 48.5621 67.4333 45.5191C67.4333 42.9058 65.82 40.5972 63.488 39.6168ZM39.211 61.7538C37.0196 61.7538 35.2305 60.0311 35.1407 57.8319C35.1251 57.4803 34.9532 57.1522 34.6681 56.9412C34.465 56.7928 34.2228 56.7147 33.9767 56.7147C33.879 56.7147 33.7775 56.7264 33.6798 56.7537C33.2267 56.8709 32.8517 56.9295 32.4962 56.9295C29.9103 56.9295 27.8048 54.824 27.8048 52.2381C27.8048 51.8866 27.8595 51.5116 27.9767 51.0584C28.0665 50.7147 27.9923 50.3475 27.7814 50.0623C27.5665 49.7772 27.2384 49.6092 26.8829 49.5975C24.6485 49.5389 22.9024 47.7459 22.9024 45.5233C22.9024 43.5077 24.418 41.7772 26.4258 41.496C26.8282 41.4413 27.1719 41.1796 27.336 40.8046C27.4961 40.4335 27.4532 39.9999 27.2227 39.6679C26.4844 38.621 26.0977 37.3984 26.0977 36.1406C26.0977 32.75 28.9219 30.0156 32.3555 30C32.3828 30.0039 32.6094 30.0312 32.6368 30.0312C33.125 30.0469 33.5977 29.7734 33.7891 29.3125C34.5586 27.4531 36.3516 26.25 38.3594 26.25C40.293 26.25 42.0274 27.3633 42.8399 29.1055V59.5465C42.1367 60.8981 40.7422 61.7574 39.2188 61.7574L39.211 61.7538ZM61.121 49.5938C60.7656 49.6055 60.4335 49.7735 60.2187 50.0586C60.0039 50.3438 59.9335 50.7109 60.0234 51.0547C60.1406 51.5039 60.1953 51.8789 60.1953 52.2344C60.1953 54.8203 58.0898 56.9258 55.5039 56.9258C55.1484 56.9258 54.7695 56.8711 54.3203 56.75C53.9765 56.6602 53.6132 56.7305 53.332 56.9375C53.0468 57.1485 52.875 57.4766 52.8593 57.8281C52.7695 60.0273 50.9804 61.75 48.789 61.75C47.2656 61.75 45.8671 60.8907 45.1679 59.5391V29.0981C45.9804 27.3559 47.7148 26.2426 49.6484 26.2426C51.6562 26.2426 53.4492 27.4457 54.2187 29.3051C54.4101 29.7661 54.8515 30.0551 55.3749 30.0239C55.4062 30.02 55.7343 29.9848 55.7616 29.977C59.1561 29.977 61.9139 32.7348 61.9139 36.1293C61.9139 37.391 61.5233 38.6098 60.7889 39.6566C60.5546 39.9886 60.5116 40.4183 60.6717 40.7933C60.8319 41.1644 61.1757 41.4261 61.5819 41.4847C63.5897 41.7621 65.1053 43.4964 65.1053 45.512C65.1053 47.7386 63.3553 49.5276 61.1248 49.5862L61.121 49.5938Z" fill="black"/>
<path d="M53.1519 33.1802C52.5738 32.8873 51.8746 33.1216 51.5855 33.6919C51.2925 34.2662 51.523 34.9693 52.0972 35.2623C53.0386 35.7388 53.7339 36.5903 54.0074 37.606C54.148 38.1256 54.6168 38.4654 55.1324 38.4654C55.234 38.4654 55.3355 38.4537 55.4371 38.4264C56.0582 38.2584 56.4254 37.6178 56.2574 36.9967C55.8121 35.3483 54.6793 33.9576 53.1519 33.1842L53.1519 33.1802Z" fill="black"/>
<path d="M54.6909 49.2268C54.1128 48.9339 53.4136 49.1643 53.1245 49.7386C52.6479 50.6761 51.7925 51.3753 50.7807 51.6488C50.1596 51.8167 49.7924 52.4574 49.9604 53.0824C50.101 53.6019 50.5737 53.9417 51.0854 53.9417C51.1869 53.9417 51.2885 53.93 51.394 53.9027C53.0424 53.4535 54.4331 52.3207 55.2065 50.7972C55.4994 50.223 55.269 49.5199 54.6947 49.2308L54.6909 49.2268Z" fill="black"/>
<path d="M53.426 43.7931C54.0392 43.5939 54.3713 42.9337 54.172 42.3204C53.9728 41.7071 53.3127 41.3751 52.6994 41.5743C51.6994 41.8985 50.6017 41.7891 49.6916 41.2696C49.1291 40.9532 48.4221 41.1446 48.0978 41.7032C47.7774 42.2618 47.9728 42.9727 48.5313 43.297C49.4532 43.8243 50.4961 44.0939 51.5391 44.0939C52.172 44.0939 52.8088 43.9962 53.426 43.7931Z" fill="black"/>
<path d="M59.5779 42.7662C59.0154 42.442 58.3045 42.6373 57.9841 43.1959C57.1325 44.6764 56.9529 46.4615 57.4841 48.0904C57.6443 48.5826 58.1013 48.8951 58.5935 48.8951C58.7146 48.8951 58.8357 48.8756 58.9568 48.8365C59.5701 48.6373 59.9021 47.9772 59.7029 47.3677C59.3748 46.3638 59.488 45.27 60.0076 44.3599C60.3279 43.8013 60.1365 43.0866 59.5779 42.7662Z" fill="black"/>
</g>
<defs>
<clipPath id="clip0_12_578">
<rect width="81" height="85" fill="white" transform="translate(4 2)"/>
</clipPath>
</defs>
</svg>
