<svg width="88" height="88" viewBox="0 0 88 88" fill="none" xmlns="http://www.w3.org/2000/svg">
<rect width="88" height="88" fill="white"/>
<path d="M29.1377 60.5507V61.2507H29.8377H58.8652H59.5652V60.5507V39.0248V38.3248H58.8652H29.8377H29.1377V39.0248V60.5507ZM61.3146 64.6985H27.4484C26.5019 64.6985 25.7 63.9336 25.7 62.9502V36.6354C25.7 35.6889 26.465 34.887 27.4484 34.887H61.3146C62.2611 34.887 63.063 35.652 63.063 36.6354V62.9362C63.0207 63.9099 62.224 64.6985 61.3146 64.6985Z" fill="black" stroke="white" stroke-width="1.4"/>
<path fill-rule="evenodd" clip-rule="evenodd" d="M44.3811 52.7549C41.4723 52.7549 39.073 50.3554 39.073 47.4468C39.073 44.538 41.4724 42.1387 44.3811 42.1387C47.2898 42.1387 49.6892 44.5381 49.6892 47.4468C49.6892 50.3555 47.2898 52.7549 44.3811 52.7549ZM44.3811 46.9865C44.1265 46.9865 43.9208 47.1921 43.9208 47.4467C43.9208 47.7014 44.1265 47.907 44.3811 47.907C44.6357 47.907 44.8414 47.7014 44.8414 47.4467C44.8414 47.1921 44.6357 46.9865 44.3811 46.9865Z" fill="#DD0004"/>
<path fill-rule="evenodd" clip-rule="evenodd" d="M44.3812 57.9544C43.0591 57.9544 41.9329 56.8869 41.9329 55.5061V50.3058C41.9329 48.9837 43.0003 47.8574 44.3812 47.8574C45.7621 47.8574 46.8296 48.9249 46.8296 50.3058V55.5061C46.7806 56.8869 45.7033 57.9544 44.3812 57.9544Z" fill="#DD0004"/>
<path d="M44.3715 86.0243C44.3654 86.025 44.3567 86.0257 44.3437 86.0261L44.338 86.0246H44.2846C39.1714 86.0246 34.2594 82.7719 27.3891 76.9661C20.0251 70.6993 14.53 63.5532 10.9362 55.7823L10.9344 55.7786C5.73915 44.8451 5.73452 35.3516 5.78349 24.2014V24.1997V22.5815C5.78349 21.6875 6.50666 20.9384 7.38575 20.9384C10.6923 20.9384 13.0575 20.5998 14.663 19.7352C16.3141 18.8461 17.116 17.4282 17.3609 15.4387L17.3611 15.437C17.4712 14.5093 17.4702 13.3117 17.3945 12.2686C17.3565 11.7457 17.2991 11.2535 17.2252 10.8466C17.1551 10.4603 17.061 10.0952 16.9243 9.86627C16.6811 9.44613 16.6198 8.97678 16.7817 8.55331L16.7864 8.54104L16.7903 8.52849C16.9265 8.08761 17.2649 7.71767 17.7033 7.55004L17.7034 7.55025L17.7155 7.54515C34.436 0.513972 56.7864 0.573817 70.8872 7.5755C71.5728 7.91883 71.943 8.70934 71.7417 9.44967L71.7416 9.44966L71.7399 9.45653L71.5696 10.1294C71.2329 11.3138 70.8826 12.5469 70.7446 13.7155C70.6061 14.8883 70.6744 16.0453 71.2197 17.0586L71.2196 17.0587L71.2243 17.0669C72.2922 18.9431 73.3235 19.9365 74.6966 20.4335C75.9742 20.8959 77.5147 20.9098 79.5315 20.928C79.6141 20.9288 79.6974 20.9295 79.7815 20.9303H79.7853H79.9569C80.8456 20.9303 81.6 21.6483 81.6 22.5735V24.3224L81.6001 24.6612C81.6005 33.3538 81.601 41.5331 78.7679 50.1209L78.7672 50.1231C75.5537 60.0556 69.8084 68.7655 61.6858 76.0438L61.6821 76.0472C54.8116 82.3609 49.8586 85.9066 44.5395 85.9858L44.4482 85.9871L44.3748 86.0239C44.3739 86.024 44.3728 86.0241 44.3715 86.0243ZM9.63573 24.1766L9.06906 23.6065V24.5763C9.06906 35.4657 9.10558 44.1958 13.9199 54.3697C17.3062 61.7919 22.5419 68.5218 29.5181 74.471L29.5197 74.4724C32.6282 77.0941 35.3 79.1663 37.7156 80.578C40.1321 81.9902 42.3237 82.7605 44.4675 82.739L44.4724 82.7389C46.3954 82.696 48.3807 82.0357 50.7654 80.5812C53.1453 79.1297 55.9442 76.874 59.5 73.6128C67.2143 66.7122 72.6568 58.4809 75.6626 49.0932C78.3245 40.9337 78.3625 32.9614 78.3625 24.584V24.1925L77.9711 24.1841C76.0913 24.1436 74.3842 23.9528 72.8146 23.1923C71.2628 22.4404 69.8057 21.1116 68.4622 18.7255C68.4569 18.7111 68.4505 18.6959 68.4426 18.6802C68.4239 18.6427 68.3953 18.5991 68.3528 18.5587C66.9184 15.8423 67.5026 12.9164 68.1834 10.2504L68.2672 9.92209L67.9571 9.78541C55.2039 4.16303 35.603 4.21337 20.7434 9.85922L20.4293 9.97856L20.4927 10.3085C20.9056 12.4607 20.7404 15.0475 20.6596 15.8513C20.2056 19.4173 18.4462 21.4357 16.3046 22.6012C14.1969 23.7483 11.6953 24.0808 9.63573 24.1766Z" fill="black" stroke="white" stroke-width="0.8"/>
</svg>
