<svg width="88" height="88" viewBox="0 0 88 88" fill="none" xmlns="http://www.w3.org/2000/svg">
<path d="M57.5 14H43.5V11.5L43 4H57L56.5 6L50.5 9L55.5 11.5L57.5 14Z" fill="#DD0004"/>
<circle cx="43.5" cy="53.5" r="4.5" fill="#DD0004"/>
<path fill-rule="evenodd" clip-rule="evenodd" d="M43.5 86.2672C41.2314 86.2672 39.3968 84.4322 39.3968 82.1752C39.3968 79.9182 41.2314 78.0822 43.5 78.0822C45.7686 78.0822 47.6116 79.9173 47.6116 82.1742C47.6116 84.4312 45.7686 86.2672 43.5 86.2672ZM69.7023 63.8259L64.5176 65.9891L65.1972 67.5887L68.1784 66.3416C64.3369 73.7577 57.3994 79.0349 49.1676 80.7293C48.521 78.2135 46.227 76.3476 43.5 76.3476C40.7721 76.3476 38.479 78.2126 37.8314 80.7293C33.5805 79.8479 29.5507 77.9603 26.1432 75.2383C25.7666 74.9382 25.2179 74.9992 24.9223 75.3733C24.6192 75.7465 24.6766 76.2932 25.0531 76.5923C28.7224 79.5206 33.0637 81.5394 37.6592 82.4612C37.8069 85.5405 40.3701 88 43.4991 88C46.628 88 49.1921 85.5405 49.339 82.4612C53.909 81.5432 58.2428 79.5384 61.9036 76.626C65.2867 73.9387 68.0381 70.5237 69.9556 66.683L71.4052 70.1195L73.011 69.4482L70.8404 64.2891C70.6531 63.8474 70.1448 63.6393 69.7023 63.8259ZM43.5 49.5442C45.7686 49.5442 47.6116 51.3811 47.6116 53.6362C47.6116 55.8932 45.7686 57.7282 43.5 57.7282C41.2314 57.7282 39.3968 55.8922 39.3968 53.6362C39.3968 51.382 41.2314 49.5442 43.5 49.5442ZM44.3679 4.73469H56.1465L50.2003 8.1572C49.9301 8.31098 49.7578 8.59791 49.7578 8.90827C49.7578 9.21677 49.9301 9.50463 50.2003 9.65935L56.1465 13.0819H44.3679V4.73469ZM43.5 59.4638C46.7268 59.4638 49.3484 56.8496 49.3484 53.6362C49.3484 50.7181 47.1862 48.2952 44.3679 47.8751V14.8175H59.3987C59.7922 14.8175 60.1358 14.5531 60.2346 14.1742C60.341 13.7964 60.1772 13.395 59.8336 13.1991L52.3719 8.90921L59.8327 4.61842C60.1763 4.42245 60.3401 4.02206 60.2337 3.64418C60.1358 3.26349 59.7913 3 59.3978 3H43.5C43.0171 3 42.6321 3.3882 42.6321 3.86735V47.8751C39.8148 48.2952 37.6516 50.7181 37.6516 53.6362C37.6516 56.8496 40.2732 59.4638 43.5 59.4638ZM14.8484 57.7291C12.5873 57.7291 10.7442 55.8932 10.7442 53.6371C10.7442 51.382 12.5873 49.5451 14.8484 49.5451C17.1169 49.5451 18.96 51.382 18.96 53.6371C18.96 55.8932 17.1169 57.7291 14.8484 57.7291ZM29.3624 56.9799L30.5993 58.2064L34.5641 54.2513C34.9077 53.9128 34.9077 53.3633 34.5641 53.0248L30.5993 49.0678L29.3624 50.2943L31.8522 52.7698H20.6393C20.2873 50.4472 18.559 48.5681 16.3065 47.9923C18.4037 37.9217 26.0782 29.7218 36.0796 26.9669C36.5465 26.8384 36.8167 26.3621 36.6858 25.8998C36.5625 25.4366 36.0796 25.1675 35.6212 25.2941C24.9317 28.2384 16.7404 37.0338 14.5697 47.8179C11.4738 47.967 9 50.5194 9 53.6362C9 56.8487 11.6291 59.4638 14.8484 59.4638C17.7806 59.4638 20.2138 57.3072 20.6393 54.5045H31.8522L29.3624 56.9799ZM72.1516 57.7291C69.8831 57.7291 68.04 55.8932 68.04 53.6371C68.04 51.382 69.8831 49.5451 72.1516 49.5451C74.4127 49.5451 76.2548 51.382 76.2548 53.6371C76.2557 55.8932 74.4127 57.7291 72.1516 57.7291ZM72.4387 47.8179C75.5272 47.967 78 50.5194 78 53.6362C78 56.8487 75.3709 59.4638 72.1516 59.4638C68.9248 59.4638 66.3033 56.8496 66.3033 53.6362C66.3033 50.9235 68.1708 48.6365 70.6935 47.9914C68.6707 38.2856 61.4706 30.3163 51.9934 27.2876L53.7057 30.2488L52.1987 31.1161L49.3888 26.273C49.1516 25.8567 49.2909 25.3279 49.7079 25.0878L54.5736 22.2898L55.4415 23.7919L52.3455 25.5763C62.5606 28.771 70.3255 37.3601 72.4387 47.8179Z" fill="black"/>
</svg>
