<svg width="88" height="88" viewBox="0 0 88 88" fill="none" xmlns="http://www.w3.org/2000/svg">
<path d="M74.8823 65.997H74.9435L74.9713 65.9424C75.5371 64.8323 76.678 64.0657 78.0081 64.0657C79.8968 64.0657 81.4286 65.5977 81.4285 67.4841C81.4285 69.3704 79.8967 70.8998 78.008 70.8998C76.4826 70.8998 75.2051 69.8957 74.764 68.5178L74.7417 68.4483H74.6687H67.05V53.2892V53.1892H66.95H60.9447C60.9396 53.1884 60.9339 53.1878 60.9276 53.1878H60.8276V53.2878V55.8262C60.8276 59.2896 59.3959 61.4693 57.5915 62.7864C55.7822 64.1071 53.5915 64.5648 52.0773 64.5648H35.9747C32.5067 64.5648 30.324 63.1349 29.0052 61.333C27.6827 59.5262 27.2244 57.3386 27.2244 55.8262V53.6528V53.5528H27.1244C27.0987 53.5528 27.0763 53.5597 27.0676 53.5624L27.0659 53.5629C27.0634 53.5637 27.0617 53.5641 27.0606 53.5645H21.0495H20.9495V53.6645V63.2671L13.4467 67.2016L13.3902 67.2313L13.3933 67.2951C13.3949 67.3285 13.3996 67.3612 13.4035 67.389L13.405 67.3999C13.4094 67.4317 13.4125 67.4581 13.4125 67.4842C13.4125 69.3706 11.8809 70.9 9.99208 70.9C8.1032 70.9 6.57143 69.3706 6.57143 67.4842C6.57143 65.5977 8.10329 64.0658 9.99208 64.0658C10.8777 64.0658 11.6778 64.4112 12.2867 64.9653L12.3384 65.0124L12.4004 64.9799L18.4417 61.8137L18.4953 61.7856V61.7251V51.1133H27.0618C27.0628 51.1136 27.0646 51.1141 27.0672 51.1148L27.0692 51.1154C27.0773 51.1178 27.0967 51.1236 27.1182 51.1249L27.2245 51.1316V51.0251V45.2168V45.1119L27.1198 45.1169C27.0918 45.1182 27.0671 45.1261 27.0571 45.129C27.0485 45.1315 27.0453 45.1321 27.0446 45.1323H13.2496H13.1824L13.157 45.1944C12.6468 46.4424 11.4236 47.3226 9.99208 47.3226C8.1033 47.3226 6.57161 45.7931 6.57161 43.9068C6.57161 42.0178 8.10335 40.4884 9.99208 40.4884C11.4241 40.4884 12.6475 41.3697 13.157 42.6189L13.1824 42.6812H13.2496H27.0444C27.0452 42.6813 27.0484 42.682 27.0569 42.6845L27.0595 42.6852C27.0708 42.6886 27.0938 42.6954 27.1197 42.6967L27.2244 42.7016V42.5968V37.2571V37.1505L27.1181 37.1573C27.0946 37.1587 27.0737 37.1655 27.0672 37.1673C27.0648 37.168 27.0631 37.1685 27.0621 37.1687H18.4954V22.1002V22.0002H18.3954H13.1187H13.0574L13.0296 22.0547C12.4637 23.165 11.3222 23.9315 9.99208 23.9315C8.1033 23.9315 6.57161 22.402 6.57161 20.5157C6.57161 18.6294 8.10329 17.1 9.99208 17.1C11.5155 17.1 12.7925 18.103 13.2348 19.4796L13.2571 19.549H13.33H20.9496V34.6176V34.7176H21.0496H27.0621C27.0631 34.7179 27.0648 34.7183 27.0671 34.719C27.0736 34.7209 27.0944 34.7276 27.1177 34.7292L27.2245 34.7364V34.6294V32.1738C27.2245 28.709 28.6563 26.5286 30.4607 25.2112C32.27 23.8902 34.4606 23.4325 35.9748 23.4325H52.0774C55.5454 23.4325 57.7281 24.863 59.047 26.6656C60.3694 28.4731 60.8277 30.6614 60.8277 32.1738V34.619V34.719H60.9277C60.9343 34.719 60.9401 34.7184 60.945 34.7176H66.9506H67.0506V34.6176V24.7302L74.5527 20.7971L74.6091 20.7675L74.6061 20.7038C74.6045 20.6692 74.5998 20.6358 74.5958 20.6078L74.5944 20.5982C74.59 20.5666 74.5869 20.541 74.5869 20.5157C74.5869 18.6294 76.1186 17.1 78.0081 17.1C79.8971 17.1 81.4286 18.6294 81.4286 20.5157C81.4286 22.402 79.8968 23.9315 78.0081 23.9315C77.1218 23.9315 76.3212 23.5859 75.7122 23.032L75.6604 22.9849L75.5985 23.0174L69.5584 26.1837L69.5049 26.2118V26.2723V37.1687H60.945C60.9401 37.1679 60.9343 37.1673 60.9277 37.1673H60.8277V37.2673V42.5812V42.6812H60.9277H74.7502H74.8174L74.8428 42.619C75.3527 41.371 76.5761 40.4884 78.0082 40.4884C79.8968 40.4884 81.4286 42.0205 81.4286 43.9068C81.4286 45.7931 79.8969 47.3226 78.0082 47.3226C76.5761 47.3226 75.3527 46.4423 74.8428 45.1945L74.8174 45.1323H74.7502H60.9279H60.8279V45.2323V50.6393V50.7393H60.9279C60.934 50.7393 60.9396 50.7387 60.9445 50.738H69.5044V65.897V65.997H69.6044H74.8823ZM60.9008 34.5231C60.9003 34.5232 60.9007 34.5231 60.9017 34.5228L60.9008 34.5231ZM60.9008 37.3633L60.9017 37.3636L60.9008 37.3633ZM60.9616 34.7136C60.9621 34.7134 60.9617 34.7136 60.9608 34.7139L60.9616 34.7136ZM60.9616 37.1728L60.9608 37.1725L60.9616 37.1728ZM60.9634 50.7333C60.9637 50.7332 60.9632 50.7334 60.9621 50.7337C60.9626 50.7335 60.963 50.7334 60.9632 50.7333L60.9634 50.7333ZM52.0742 62.1138L52.075 62.1138C52.4019 62.1112 53.9714 62.0545 55.4625 61.2418C56.2095 60.8346 56.9384 60.2369 57.4802 59.3602C58.0221 58.4833 58.3734 57.3329 58.3734 55.8262L58.3734 32.1736L58.3734 32.1728C58.3708 31.8524 58.3152 30.2851 57.502 28.7946C57.0946 28.0479 56.4962 27.319 55.6181 26.777C54.7398 26.2349 53.5873 25.8834 52.0774 25.8834L35.9748 25.8834L35.974 25.8834C35.6533 25.886 34.0845 25.9418 32.5926 26.7544C31.8453 27.1614 31.1156 27.7593 30.5731 28.6365C30.0305 29.5139 29.6786 30.6653 29.6786 32.1736L29.6786 55.8262L29.6786 55.827C29.6812 56.1472 29.7369 57.7139 30.5501 59.2038C30.9576 59.9502 31.556 60.6788 32.4341 61.2206C33.3124 61.7625 34.4649 62.1138 35.9748 62.1138L52.0742 62.1138Z" fill="black" stroke="white" stroke-width="0.2"/>
<path d="M49.6263 42.436V42.4388L49.6223 42.4591C49.1779 44.7121 47.2604 46.4345 44.9128 46.6246L42.2633 46.6699C42.2631 46.6699 42.2629 46.6699 42.2626 46.6699C42.0417 46.6702 41.9275 46.671 41.7835 46.672C41.6332 46.6731 41.4505 46.6743 41.0802 46.6755L40.8605 46.6762L41.0053 46.8414L48.2962 55.162L48.2964 55.1623L49.4126 56.4254L49.4127 56.4255C49.8616 56.933 49.8128 57.707 49.3048 58.1551L49.3048 58.1551C48.7969 58.6033 48.0218 58.5553 47.573 58.0474L47.573 58.0474L44.9341 55.0621L44.9339 55.0618L37.0455 46.0649V44.2225H38.6401H38.6905L38.6945 44.2271L38.7397 44.227C40.4292 44.2245 42.1138 44.221 43.225 44.2187C43.909 44.2173 44.3757 44.2163 44.4925 44.2163C45.6859 44.2163 46.7049 43.4635 47.0958 42.4114L47.1459 42.2766L47.0021 42.2766L44.579 42.2762V42.2547H44.479H44.4171C43.7534 42.2547 43.2161 41.7158 43.2161 41.0506C43.2161 40.3853 43.7533 39.8466 44.4171 39.8466H44.4755H44.5755V39.8252L47.1066 39.8256L47.2053 39.8256L47.2066 39.7269L47.2367 37.424L47.238 37.3227L47.1367 37.3227L44.579 37.3223V37.3008H44.479H44.4171C43.7534 37.3008 43.2161 36.7619 43.2161 36.0968C43.2161 35.4315 43.7533 34.8927 44.4171 34.8927H44.4755H44.5755V34.8713L47.0704 34.8718L47.202 34.8718L47.1668 34.745C46.8433 33.5793 45.7674 32.7201 44.4924 32.7201C44.3929 32.7201 44.1652 32.7193 43.8135 32.7182C43.0556 32.7159 41.7214 32.7117 39.8506 32.7089H39.8504H37.6437C36.9653 32.7089 36.4167 32.16 36.4167 31.4833C36.4167 30.8065 36.9653 30.2577 37.6437 30.2577H41.8424V30.2646L41.9419 30.2651C42.0292 30.2656 42.125 30.2659 42.2625 30.2661C42.2627 30.2661 42.263 30.2661 42.2633 30.2661L44.9127 30.3115C47.3239 30.5068 49.2816 32.318 49.6556 34.6604L49.6643 34.7147C49.6648 34.7314 49.6654 34.7512 49.6659 34.774L49.668 34.8718H49.7659H50.2845H51.9711C52.6495 34.8718 53.1982 35.4208 53.1982 36.0975C53.1982 36.7628 52.6678 37.3045 52.0053 37.3226H51.9711H49.7632H49.6638L49.6632 37.422C49.6588 38.17 49.6529 38.9781 49.6471 39.7248L49.6464 39.8255H49.7471H50.2844H51.971C52.6494 39.8255 53.1981 40.3744 53.1981 41.0512C53.1981 41.7279 52.6494 42.2767 51.971 42.2767H49.7388H49.6548L49.6403 42.3595C49.6363 42.3822 49.6323 42.4045 49.6281 42.4267L49.6263 42.436Z" fill="black" stroke="white" stroke-width="0.2"/>
<circle cx="9.90893" cy="20.4375" r="3.4375" fill="#DD0004"/>
<circle cx="78.0911" cy="20.4375" r="3.4375" fill="#DD0004"/>
<circle cx="9.90893" cy="43.4375" r="3.4375" fill="#DD0004"/>
<circle cx="78.0911" cy="43.4375" r="3.4375" fill="#DD0004"/>
<circle cx="9.90893" cy="67.4375" r="3.4375" fill="#DD0004"/>
<circle cx="78.0911" cy="67.4375" r="3.4375" fill="#DD0004"/>
</svg>
