<svg width="88" height="88" viewBox="0 0 88 88" fill="none" xmlns="http://www.w3.org/2000/svg">
<rect width="88" height="88" fill="white"/>
<path d="M48 26.5L47.5 25.5L46 22.5H41.5V25.5H40.5L38 27.5L37 30L39 32L41.5 33V35.5L43.5 36.5L47.5 35.5V34.5L48 32H51L52 30.5L51 26.5H48Z" fill="#DD0004"/>
<path fill-rule="evenodd" clip-rule="evenodd" d="M60.1341 54.0458C59.7473 54.2861 59.2375 54.1689 58.9943 53.785C58.7511 53.4012 58.8595 52.8913 59.2433 52.6423L65.2267 48.8448C66.0677 48.1855 66.5248 47.1482 66.4398 46.0816C66.39 45.6216 66.2289 45.1821 65.9739 44.7983C65.1682 43.5559 63.5273 43.1691 62.2527 43.9192L54.5932 48.3526L54.5551 48.3731C47.3704 52.0856 48.1146 56.9792 48.8501 61.8197C49.2896 63.9646 49.4097 66.1652 49.2075 68.3452L62.9092 68.9546C63.8469 64.8173 66.8444 61.6176 69.7101 58.564C72.7487 55.3262 75.6261 52.2553 75.3038 48.6159L73.2907 25.7957V25.7928C73.2644 25.3767 73.0798 24.9841 72.775 24.6969C72.4674 24.2926 71.9107 24.1783 71.4682 24.4274C70.513 25.1599 69.757 26.1239 69.2735 27.2286C69.0801 27.5832 68.9277 27.9553 68.8164 28.345C68.7109 28.7347 68.6523 29.1362 68.6347 29.5376L67.9373 45.1408H67.9403C68.0106 45.3899 68.0604 45.6448 68.0897 45.9026C68.2421 47.52 67.5681 49.1053 66.2964 50.1162C66.2554 50.1572 66.2085 50.1953 66.1587 50.2246L60.1314 54.0514L60.1341 54.0458ZM41.8994 21.4943H46.9481C47.2733 21.4943 47.5839 21.6262 47.8154 21.8577L47.8212 21.8635V21.8606C48.0498 22.0921 48.1816 22.4027 48.1816 22.7309V25.4853L50.936 25.4823C51.2613 25.4853 51.5748 25.6142 51.8033 25.8457C52.0377 26.0771 52.1666 26.3936 52.1666 26.7218V31.7676C52.1666 32.4503 51.6158 33.0041 50.936 33.007H48.1846V35.7614C48.1846 36.0866 48.0527 36.4001 47.8212 36.6286C47.5897 36.8631 47.2762 36.992 46.948 36.992H41.8993C41.5711 36.992 41.2576 36.8631 41.0261 36.6286C40.9997 36.6052 40.9763 36.5788 40.9558 36.5495C40.7653 36.3268 40.6628 36.0455 40.6628 35.7525V33.0069H37.9084C37.5802 33.0069 37.2696 32.8751 37.0381 32.6436C36.8066 32.4121 36.6748 32.0986 36.6748 31.7704V26.7217C36.6748 26.3935 36.8066 26.08 37.0381 25.8485C37.0645 25.8221 37.0909 25.7987 37.1172 25.7782C37.337 25.5906 37.6183 25.4851 37.9084 25.4851H40.6627L40.6598 22.7308C40.6627 22.4055 40.7917 22.0949 41.0232 21.8635L41.029 21.8576C41.2605 21.6291 41.5711 21.5002 41.8963 21.4972L41.8994 21.4943ZM46.5173 23.1587V26.3174H46.5202C46.5173 26.5401 46.6052 26.751 46.7605 26.9093C46.9187 27.0646 47.1297 27.1525 47.3524 27.1525H50.5111V31.3396H47.3524C46.8924 31.3396 46.5202 31.7118 46.5202 32.1718V35.3305H42.3301V32.1718C42.3301 31.9491 42.2422 31.7382 42.084 31.5829C41.9287 31.4246 41.7177 31.3397 41.495 31.3397H38.3363V27.1525H41.495C41.7177 27.1554 41.9287 27.0646 42.0869 26.9093C42.2422 26.751 42.3301 26.5401 42.3301 26.3174V23.1587L46.5173 23.1587ZM44.4251 16.7094C48.3222 16.7094 51.9969 18.5232 54.3702 21.6145C56.7408 24.7087 57.5407 28.726 56.5327 32.4912C55.5217 36.2565 52.8202 39.3361 49.219 40.8273C45.6208 42.3188 41.5303 42.0521 38.1547 40.1036C34.7792 38.155 32.5024 34.7473 31.9956 30.8823C31.4857 27.0175 32.8043 23.1381 35.5586 20.3807C37.9086 18.0278 41.0996 16.7065 44.4251 16.7094ZM52.1109 21.5588C54.499 23.9498 55.6417 27.3136 55.2022 30.666C54.7597 34.0151 52.7848 36.9716 49.8576 38.6593C46.9333 40.3499 43.3849 40.5814 40.2643 39.2892C37.1407 37.997 34.7995 35.3247 33.9235 32.0605C33.0502 28.7963 33.7418 25.3095 35.7988 22.6285C37.8557 19.9475 41.0437 18.3769 44.4251 18.3769C47.3085 18.3739 50.0744 19.5193 52.1109 21.5588ZM43.9534 49.5097C27.5798 38.9375 21.3853 29.0862 20.8519 21.7703C20.5853 18.972 21.312 16.1678 22.906 13.8528C24.415 11.746 26.5804 10.1989 29.0652 9.45167C33.727 7.99539 39.5901 9.04438 44.4254 13.4572C49.2572 9.04728 55.1206 7.99539 59.7796 9.45167C62.2614 10.1989 64.4268 11.746 65.9387 13.8528C67.5298 16.1676 68.2564 18.9717 67.9928 21.7703C67.4595 29.0898 61.2593 38.9465 44.8711 49.5217V49.5247C44.5898 49.7034 44.2264 49.6976 43.951 49.51L43.9534 49.5097ZM22.5105 21.6525C22.2731 19.238 22.8943 16.8149 24.2627 14.8077C25.5637 13.0027 27.4243 11.6783 29.5575 11.0395C33.8736 9.69163 39.3765 10.7875 43.839 15.1916C44.1642 15.511 44.68 15.511 45.0052 15.1916C49.4678 10.7876 54.9706 9.69171 59.2867 11.0395C61.4199 11.6783 63.2805 13.0027 64.5815 14.8077C65.9499 16.8149 66.5711 19.238 66.3337 21.6525C65.8385 28.4563 59.9548 37.7036 44.422 47.8302C28.8892 37.7036 23.0055 28.4561 22.5105 21.6525ZM41.7878 73.188L41.6413 69.9209L24.2302 70.6944L24.3738 73.9645L41.7878 73.188ZM43.2939 69.6572C43.2558 68.8456 42.5701 68.2185 41.7614 68.2507L41.3101 68.2712C41.105 66.1996 41.2164 64.1075 41.6413 62.0681C42.4676 56.6502 43.2997 51.1711 35.0718 46.9075L27.4064 42.4712L27.3712 42.4507V42.4536C25.8124 41.5657 23.8696 41.7123 22.4632 42.8228L21.8654 29.4669C21.8273 28.4062 21.5402 27.3718 21.0332 26.44C20.412 25.054 19.4305 23.8615 18.191 22.9824C17.1156 22.3055 15.7062 22.5312 14.9004 23.5098C14.3144 24.0754 13.9598 24.8372 13.8954 25.646L11.8824 48.4721C11.4956 52.8468 14.622 56.1811 17.9273 59.7037C20.5644 62.5166 23.3246 65.4585 24.2447 69.0307L23.9664 69.0424V69.0453C23.1547 69.0805 22.5276 69.7661 22.5599 70.5778L22.721 74.2259H22.724C22.7591 75.0287 23.4331 75.6528 24.2359 75.6323L24.3619 78.4951C24.4 79.3067 25.0857 79.9338 25.8973 79.8986L40.7587 79.2393H40.7616C40.8056 79.2393 40.8525 79.2364 40.8964 79.2276C41.6495 79.1397 42.215 78.498 42.2004 77.7391C42.2004 77.7039 42.2004 77.6717 42.1945 77.6365L42.0714 74.8353V74.8382C42.8714 74.7884 43.4838 74.1057 43.4515 73.3057L43.2939 69.6572ZM40.4136 74.911L40.5308 77.5833L26.0122 78.2279L25.8979 75.5556L40.4165 74.911H40.4136ZM25.9355 68.954L39.6402 68.3445C39.438 66.1645 39.5581 63.964 39.9947 61.8191C40.7302 56.9814 41.4774 52.0848 34.2897 48.3724L34.2516 48.3519L26.5921 43.9185C25.3175 43.1684 23.6766 43.5552 22.8738 44.7976C22.6159 45.1814 22.4577 45.621 22.405 46.0781C22.3229 47.1447 22.7771 48.1819 23.6181 48.8441L29.6015 52.6416C29.789 52.7559 29.9238 52.9463 29.9736 53.1632C30.0234 53.3771 29.9853 53.6056 29.8652 53.7932C29.748 53.9807 29.5575 54.1155 29.3407 54.1624C29.1239 54.2092 28.8953 54.1682 28.7107 54.0452L22.6833 50.2183V50.2213C22.6335 50.189 22.5866 50.1539 22.5456 50.1129C21.2739 49.099 20.6 47.5138 20.7524 45.8964C20.7817 45.6385 20.8315 45.3836 20.9047 45.1345L20.2074 29.5313V29.5342C20.181 28.7255 19.9642 27.9314 19.5715 27.2253C19.091 26.1206 18.335 25.1566 17.3768 24.424C16.9373 24.175 16.3777 24.2892 16.07 24.6936C15.7652 24.9807 15.5806 25.3705 15.5572 25.7894L13.5442 48.6096C13.2218 52.2518 16.0992 55.3226 19.1378 58.5577C22.0035 61.6109 25.0011 64.8106 25.9358 68.9484L25.9355 68.954ZM47.5397 68.2712C47.7448 66.1967 47.6335 64.1046 47.2086 62.0652C46.3823 56.6473 45.5502 51.1682 53.778 46.9045L61.4375 42.4712L61.4726 42.4507V42.4536C62.8147 41.7005 64.4467 41.6947 65.7946 42.4331C65.9997 42.5473 66.196 42.6763 66.3806 42.8228L66.9784 29.4669C67.0165 28.4061 67.3007 27.3718 67.8106 26.44C68.4318 25.054 69.4134 23.8615 70.6529 22.9824C71.7282 22.3085 73.1347 22.5341 73.9434 23.5098C74.5294 24.0783 74.8898 24.8372 74.9543 25.6489L76.9674 48.469C77.3541 52.8437 74.2277 56.178 70.9224 59.7006C68.2853 62.5135 65.5251 65.4554 64.605 69.0276L64.8834 69.0393V69.0422C65.6921 69.0774 66.3221 69.763 66.2869 70.5747L66.1287 74.2228C66.0935 75.0256 65.4196 75.6497 64.6167 75.6263L64.4908 78.4891V78.492C64.4732 78.8817 64.3003 79.2509 64.0102 79.5147C63.7231 79.7784 63.3392 79.9161 62.9495 79.8985L48.0851 79.2363C48.0411 79.2363 47.9943 79.2334 47.9503 79.2246C47.1973 79.1367 46.6317 78.492 46.6434 77.736C46.6434 77.7009 46.6464 77.6686 46.6493 77.6335L46.7753 74.8322V74.8352C45.9754 74.7853 45.36 74.1026 45.3922 73.3027L45.5505 69.6546C45.5886 68.843 46.2742 68.2159 47.083 68.2481L47.5342 68.2686L47.5397 68.2712ZM62.9494 75.5556L48.4309 74.9109L48.3136 77.5833L62.8322 78.2279L62.9494 75.5556ZM47.2029 69.918L47.0593 73.1881L64.4704 73.9616L64.6169 70.6915L47.2029 69.918Z" fill="black"/>
</svg>
