<svg width="88" height="88" viewBox="0 0 88 88" fill="none" xmlns="http://www.w3.org/2000/svg">
<circle cx="68.25" cy="46.9922" r="8.12499" fill="#DD0004"/>
<mask id="path-2-outside-1_4_664" maskUnits="userSpaceOnUse" x="3.25" y="1.75" width="81" height="81" fill="black">
<rect fill="white" x="3.25" y="1.75" width="81" height="81"/>
<path d="M19.8389 54.8657C24.1509 54.8657 27.6593 51.3573 27.6593 47.0453C27.6593 42.7333 24.1509 39.2249 19.8389 39.2249C15.5269 39.2249 12.0272 42.7333 12.0272 47.0453C12.0272 51.3573 15.5269 54.8657 19.8389 54.8657ZM19.8389 41.1606C23.0794 41.1606 25.7236 43.7962 25.7236 47.0453C25.7236 50.2858 23.088 52.9301 19.8389 52.9301C16.5984 52.9301 13.9542 50.2945 13.9542 47.0453C13.9628 43.7962 16.5984 41.1606 19.8389 41.1606ZM60.3407 47.0453C60.3407 51.3573 63.8491 54.8657 68.1611 54.8657C72.4731 54.8657 75.9815 51.3573 75.9815 47.0453C75.9815 42.7333 72.4731 39.2249 68.1611 39.2249C63.8491 39.2249 60.3407 42.7333 60.3407 47.0453ZM68.1611 41.1606C71.4016 41.1606 74.0458 43.7962 74.0458 47.0453C74.0458 50.2858 71.4102 52.9301 68.1611 52.9301C64.9206 52.9301 62.2764 50.2945 62.2764 47.0453C62.2764 43.7962 64.912 41.1606 68.1611 41.1606ZM68.1611 56.2051C64.0478 56.2051 60.116 57.8642 57.1953 60.7677C53.5918 57.8297 49.0033 56.0582 44 56.0582C38.9967 56.0582 34.4082 57.8297 30.8047 60.7677C27.884 57.8729 23.9522 56.2051 19.8389 56.2051C11.2408 56.2051 4.25 63.1959 4.25 71.794V72.8569C4.25 74.5679 5.64125 75.9505 7.34359 75.9505H23.1399C23.1226 76.2789 23.114 76.6072 23.114 76.9356V78.3873C23.114 80.5217 24.8509 82.25 26.9766 82.25H61.0234C63.1578 82.25 64.886 80.5131 64.886 78.3873V76.9356C64.886 76.6072 64.8774 76.2789 64.8601 75.9505H80.6564C82.3674 75.9505 83.75 74.5592 83.75 72.8569V71.794C83.75 63.1959 76.7592 56.2051 68.1611 56.2051ZM23.3214 74.0148H7.34359C6.70413 74.0148 6.18565 73.4964 6.18565 72.8569V71.794C6.18565 64.2674 12.3123 58.1408 19.8389 58.1408C23.3991 58.1408 26.8124 59.5666 29.3616 62.0553C26.1643 65.2007 23.9781 69.3658 23.3214 74.0148ZM62.9504 78.3873C62.9504 79.4502 62.0862 80.3143 61.0234 80.3143H26.9766C25.9137 80.3143 25.0496 79.4502 25.0496 78.3873V76.9356C25.0496 66.4883 33.5527 57.9852 44 57.9852C54.4473 57.9852 62.9504 66.4883 62.9504 76.9356V78.3873ZM81.8143 72.8569C81.8143 73.4964 81.2959 74.0148 80.6564 74.0148H64.6786C64.0219 69.3658 61.8357 65.2007 58.6384 62.0553C61.1876 59.5666 64.6009 58.1408 68.1611 58.1408C75.6877 58.1408 81.8143 64.2674 81.8143 71.794V72.8569ZM44 32.9254C38.3227 32.9254 33.6996 37.5485 33.6996 43.2259C33.6996 48.9032 38.3227 53.5263 44 53.5263C49.6773 53.5263 54.3004 48.9032 54.3004 43.2259C54.3004 37.5485 49.6773 32.9254 44 32.9254ZM44 51.582C39.3942 51.582 35.6352 47.8317 35.6352 43.2172C35.6352 38.6028 39.3855 34.8524 44 34.8524C48.6058 34.8524 52.3648 38.6028 52.3648 43.2172C52.3648 47.8317 48.6145 51.582 44 51.582ZM43.0322 8.77299V3.71783C43.0322 3.18207 43.4642 2.75 44 2.75C44.5358 2.75 44.9678 3.18207 44.9678 3.71783V8.77299C44.9678 9.30875 44.5358 9.74082 44 9.74082C43.4642 9.74082 43.0322 9.30875 43.0322 8.77299ZM30.6751 9.63712C30.2949 9.2569 30.2949 8.64337 30.6751 8.26315C31.0553 7.88293 31.6689 7.88293 32.0491 8.26315L35.6179 11.832C35.9982 12.2122 35.9982 12.8258 35.6179 13.206C35.4278 13.3961 35.1772 13.4911 34.9353 13.4911C34.6933 13.4911 34.4427 13.3961 34.2526 13.206L30.6751 9.63712ZM56.8237 20.6289H61.8789C62.4146 20.6289 62.8467 21.0609 62.8467 21.5967C62.8467 22.1324 62.4146 22.5645 61.8789 22.5645H56.8237C56.2879 22.5645 55.8559 22.1324 55.8559 21.5967C55.8559 21.0609 56.2879 20.6289 56.8237 20.6289ZM25.1533 21.5967C25.1533 21.0609 25.5854 20.6289 26.1211 20.6289H31.1763C31.7121 20.6289 32.1441 21.0609 32.1441 21.5967C32.1441 22.1324 31.7121 22.5645 31.1763 22.5645H26.1211C25.5854 22.5645 25.1533 22.1324 25.1533 21.5967ZM52.3821 13.2146C52.0018 12.8344 52.0018 12.2209 52.3821 11.8407L55.9509 8.27179C56.3311 7.89158 56.9447 7.89158 57.3249 8.27179C57.7051 8.65201 57.7051 9.26554 57.3249 9.64576L53.756 13.2146C53.5659 13.4047 53.3153 13.4998 53.0734 13.4998C52.8228 13.4998 52.5722 13.4047 52.3821 13.2146ZM34.2267 18.1229C34.0193 18.7623 34.1921 19.445 34.6847 19.903L38.193 23.1867L37.2857 27.9048C37.1561 28.5616 37.4153 29.2183 37.9597 29.6158C38.5041 30.0133 39.2041 30.0565 39.7917 29.7282L44 27.4123L48.2083 29.7368C48.4676 29.8837 48.7527 29.9528 49.0379 29.9528C49.3922 29.9528 49.7378 29.8405 50.0403 29.6245C50.5847 29.227 50.8439 28.5702 50.7143 27.9135L49.807 23.1953L53.3153 19.9116C53.8079 19.4536 53.9807 18.771 53.7733 18.1315C53.5659 17.4921 53.0215 17.0427 52.3561 16.9563L47.5948 16.3601L45.5554 12.0135C45.2703 11.4086 44.674 11.0284 44 11.0284C43.326 11.0284 42.7297 11.4086 42.4446 12.0135L40.4052 16.3601L35.6439 16.9563C34.9785 17.0427 34.4341 17.4921 34.2267 18.1229ZM40.7768 18.2698C41.3644 18.2007 41.8656 17.8291 42.1162 17.2933L44 13.2665L45.8838 17.2933C46.1344 17.8291 46.6356 18.192 47.2232 18.2698L51.6389 18.8228L48.3898 21.8646C47.9577 22.2707 47.7676 22.8583 47.8799 23.4373L48.7182 27.8011L44.8209 25.6495C44.5617 25.5026 44.2765 25.4334 43.9914 25.4334C43.7062 25.4334 43.421 25.5026 43.1618 25.6495L39.2646 27.8011L40.1028 23.4373C40.2151 22.8583 40.025 22.2707 39.5929 21.8646L36.3438 18.8228L40.7768 18.2698Z"/>
</mask>
<path d="M19.8389 54.8657C24.1509 54.8657 27.6593 51.3573 27.6593 47.0453C27.6593 42.7333 24.1509 39.2249 19.8389 39.2249C15.5269 39.2249 12.0272 42.7333 12.0272 47.0453C12.0272 51.3573 15.5269 54.8657 19.8389 54.8657ZM19.8389 41.1606C23.0794 41.1606 25.7236 43.7962 25.7236 47.0453C25.7236 50.2858 23.088 52.9301 19.8389 52.9301C16.5984 52.9301 13.9542 50.2945 13.9542 47.0453C13.9628 43.7962 16.5984 41.1606 19.8389 41.1606ZM60.3407 47.0453C60.3407 51.3573 63.8491 54.8657 68.1611 54.8657C72.4731 54.8657 75.9815 51.3573 75.9815 47.0453C75.9815 42.7333 72.4731 39.2249 68.1611 39.2249C63.8491 39.2249 60.3407 42.7333 60.3407 47.0453ZM68.1611 41.1606C71.4016 41.1606 74.0458 43.7962 74.0458 47.0453C74.0458 50.2858 71.4102 52.9301 68.1611 52.9301C64.9206 52.9301 62.2764 50.2945 62.2764 47.0453C62.2764 43.7962 64.912 41.1606 68.1611 41.1606ZM68.1611 56.2051C64.0478 56.2051 60.116 57.8642 57.1953 60.7677C53.5918 57.8297 49.0033 56.0582 44 56.0582C38.9967 56.0582 34.4082 57.8297 30.8047 60.7677C27.884 57.8729 23.9522 56.2051 19.8389 56.2051C11.2408 56.2051 4.25 63.1959 4.25 71.794V72.8569C4.25 74.5679 5.64125 75.9505 7.34359 75.9505H23.1399C23.1226 76.2789 23.114 76.6072 23.114 76.9356V78.3873C23.114 80.5217 24.8509 82.25 26.9766 82.25H61.0234C63.1578 82.25 64.886 80.5131 64.886 78.3873V76.9356C64.886 76.6072 64.8774 76.2789 64.8601 75.9505H80.6564C82.3674 75.9505 83.75 74.5592 83.75 72.8569V71.794C83.75 63.1959 76.7592 56.2051 68.1611 56.2051ZM23.3214 74.0148H7.34359C6.70413 74.0148 6.18565 73.4964 6.18565 72.8569V71.794C6.18565 64.2674 12.3123 58.1408 19.8389 58.1408C23.3991 58.1408 26.8124 59.5666 29.3616 62.0553C26.1643 65.2007 23.9781 69.3658 23.3214 74.0148ZM62.9504 78.3873C62.9504 79.4502 62.0862 80.3143 61.0234 80.3143H26.9766C25.9137 80.3143 25.0496 79.4502 25.0496 78.3873V76.9356C25.0496 66.4883 33.5527 57.9852 44 57.9852C54.4473 57.9852 62.9504 66.4883 62.9504 76.9356V78.3873ZM81.8143 72.8569C81.8143 73.4964 81.2959 74.0148 80.6564 74.0148H64.6786C64.0219 69.3658 61.8357 65.2007 58.6384 62.0553C61.1876 59.5666 64.6009 58.1408 68.1611 58.1408C75.6877 58.1408 81.8143 64.2674 81.8143 71.794V72.8569ZM44 32.9254C38.3227 32.9254 33.6996 37.5485 33.6996 43.2259C33.6996 48.9032 38.3227 53.5263 44 53.5263C49.6773 53.5263 54.3004 48.9032 54.3004 43.2259C54.3004 37.5485 49.6773 32.9254 44 32.9254ZM44 51.582C39.3942 51.582 35.6352 47.8317 35.6352 43.2172C35.6352 38.6028 39.3855 34.8524 44 34.8524C48.6058 34.8524 52.3648 38.6028 52.3648 43.2172C52.3648 47.8317 48.6145 51.582 44 51.582ZM43.0322 8.77299V3.71783C43.0322 3.18207 43.4642 2.75 44 2.75C44.5358 2.75 44.9678 3.18207 44.9678 3.71783V8.77299C44.9678 9.30875 44.5358 9.74082 44 9.74082C43.4642 9.74082 43.0322 9.30875 43.0322 8.77299ZM30.6751 9.63712C30.2949 9.2569 30.2949 8.64337 30.6751 8.26315C31.0553 7.88293 31.6689 7.88293 32.0491 8.26315L35.6179 11.832C35.9982 12.2122 35.9982 12.8258 35.6179 13.206C35.4278 13.3961 35.1772 13.4911 34.9353 13.4911C34.6933 13.4911 34.4427 13.3961 34.2526 13.206L30.6751 9.63712ZM56.8237 20.6289H61.8789C62.4146 20.6289 62.8467 21.0609 62.8467 21.5967C62.8467 22.1324 62.4146 22.5645 61.8789 22.5645H56.8237C56.2879 22.5645 55.8559 22.1324 55.8559 21.5967C55.8559 21.0609 56.2879 20.6289 56.8237 20.6289ZM25.1533 21.5967C25.1533 21.0609 25.5854 20.6289 26.1211 20.6289H31.1763C31.7121 20.6289 32.1441 21.0609 32.1441 21.5967C32.1441 22.1324 31.7121 22.5645 31.1763 22.5645H26.1211C25.5854 22.5645 25.1533 22.1324 25.1533 21.5967ZM52.3821 13.2146C52.0018 12.8344 52.0018 12.2209 52.3821 11.8407L55.9509 8.27179C56.3311 7.89158 56.9447 7.89158 57.3249 8.27179C57.7051 8.65201 57.7051 9.26554 57.3249 9.64576L53.756 13.2146C53.5659 13.4047 53.3153 13.4998 53.0734 13.4998C52.8228 13.4998 52.5722 13.4047 52.3821 13.2146ZM34.2267 18.1229C34.0193 18.7623 34.1921 19.445 34.6847 19.903L38.193 23.1867L37.2857 27.9048C37.1561 28.5616 37.4153 29.2183 37.9597 29.6158C38.5041 30.0133 39.2041 30.0565 39.7917 29.7282L44 27.4123L48.2083 29.7368C48.4676 29.8837 48.7527 29.9528 49.0379 29.9528C49.3922 29.9528 49.7378 29.8405 50.0403 29.6245C50.5847 29.227 50.8439 28.5702 50.7143 27.9135L49.807 23.1953L53.3153 19.9116C53.8079 19.4536 53.9807 18.771 53.7733 18.1315C53.5659 17.4921 53.0215 17.0427 52.3561 16.9563L47.5948 16.3601L45.5554 12.0135C45.2703 11.4086 44.674 11.0284 44 11.0284C43.326 11.0284 42.7297 11.4086 42.4446 12.0135L40.4052 16.3601L35.6439 16.9563C34.9785 17.0427 34.4341 17.4921 34.2267 18.1229ZM40.7768 18.2698C41.3644 18.2007 41.8656 17.8291 42.1162 17.2933L44 13.2665L45.8838 17.2933C46.1344 17.8291 46.6356 18.192 47.2232 18.2698L51.6389 18.8228L48.3898 21.8646C47.9577 22.2707 47.7676 22.8583 47.8799 23.4373L48.7182 27.8011L44.8209 25.6495C44.5617 25.5026 44.2765 25.4334 43.9914 25.4334C43.7062 25.4334 43.421 25.5026 43.1618 25.6495L39.2646 27.8011L40.1028 23.4373C40.2151 22.8583 40.025 22.2707 39.5929 21.8646L36.3438 18.8228L40.7768 18.2698Z" fill="black"/>
<path d="M19.8389 54.8657C24.1509 54.8657 27.6593 51.3573 27.6593 47.0453C27.6593 42.7333 24.1509 39.2249 19.8389 39.2249C15.5269 39.2249 12.0272 42.7333 12.0272 47.0453C12.0272 51.3573 15.5269 54.8657 19.8389 54.8657ZM19.8389 41.1606C23.0794 41.1606 25.7236 43.7962 25.7236 47.0453C25.7236 50.2858 23.088 52.9301 19.8389 52.9301C16.5984 52.9301 13.9542 50.2945 13.9542 47.0453C13.9628 43.7962 16.5984 41.1606 19.8389 41.1606ZM60.3407 47.0453C60.3407 51.3573 63.8491 54.8657 68.1611 54.8657C72.4731 54.8657 75.9815 51.3573 75.9815 47.0453C75.9815 42.7333 72.4731 39.2249 68.1611 39.2249C63.8491 39.2249 60.3407 42.7333 60.3407 47.0453ZM68.1611 41.1606C71.4016 41.1606 74.0458 43.7962 74.0458 47.0453C74.0458 50.2858 71.4102 52.9301 68.1611 52.9301C64.9206 52.9301 62.2764 50.2945 62.2764 47.0453C62.2764 43.7962 64.912 41.1606 68.1611 41.1606ZM68.1611 56.2051C64.0478 56.2051 60.116 57.8642 57.1953 60.7677C53.5918 57.8297 49.0033 56.0582 44 56.0582C38.9967 56.0582 34.4082 57.8297 30.8047 60.7677C27.884 57.8729 23.9522 56.2051 19.8389 56.2051C11.2408 56.2051 4.25 63.1959 4.25 71.794V72.8569C4.25 74.5679 5.64125 75.9505 7.34359 75.9505H23.1399C23.1226 76.2789 23.114 76.6072 23.114 76.9356V78.3873C23.114 80.5217 24.8509 82.25 26.9766 82.25H61.0234C63.1578 82.25 64.886 80.5131 64.886 78.3873V76.9356C64.886 76.6072 64.8774 76.2789 64.8601 75.9505H80.6564C82.3674 75.9505 83.75 74.5592 83.75 72.8569V71.794C83.75 63.1959 76.7592 56.2051 68.1611 56.2051ZM23.3214 74.0148H7.34359C6.70413 74.0148 6.18565 73.4964 6.18565 72.8569V71.794C6.18565 64.2674 12.3123 58.1408 19.8389 58.1408C23.3991 58.1408 26.8124 59.5666 29.3616 62.0553C26.1643 65.2007 23.9781 69.3658 23.3214 74.0148ZM62.9504 78.3873C62.9504 79.4502 62.0862 80.3143 61.0234 80.3143H26.9766C25.9137 80.3143 25.0496 79.4502 25.0496 78.3873V76.9356C25.0496 66.4883 33.5527 57.9852 44 57.9852C54.4473 57.9852 62.9504 66.4883 62.9504 76.9356V78.3873ZM81.8143 72.8569C81.8143 73.4964 81.2959 74.0148 80.6564 74.0148H64.6786C64.0219 69.3658 61.8357 65.2007 58.6384 62.0553C61.1876 59.5666 64.6009 58.1408 68.1611 58.1408C75.6877 58.1408 81.8143 64.2674 81.8143 71.794V72.8569ZM44 32.9254C38.3227 32.9254 33.6996 37.5485 33.6996 43.2259C33.6996 48.9032 38.3227 53.5263 44 53.5263C49.6773 53.5263 54.3004 48.9032 54.3004 43.2259C54.3004 37.5485 49.6773 32.9254 44 32.9254ZM44 51.582C39.3942 51.582 35.6352 47.8317 35.6352 43.2172C35.6352 38.6028 39.3855 34.8524 44 34.8524C48.6058 34.8524 52.3648 38.6028 52.3648 43.2172C52.3648 47.8317 48.6145 51.582 44 51.582ZM43.0322 8.77299V3.71783C43.0322 3.18207 43.4642 2.75 44 2.75C44.5358 2.75 44.9678 3.18207 44.9678 3.71783V8.77299C44.9678 9.30875 44.5358 9.74082 44 9.74082C43.4642 9.74082 43.0322 9.30875 43.0322 8.77299ZM30.6751 9.63712C30.2949 9.2569 30.2949 8.64337 30.6751 8.26315C31.0553 7.88293 31.6689 7.88293 32.0491 8.26315L35.6179 11.832C35.9982 12.2122 35.9982 12.8258 35.6179 13.206C35.4278 13.3961 35.1772 13.4911 34.9353 13.4911C34.6933 13.4911 34.4427 13.3961 34.2526 13.206L30.6751 9.63712ZM56.8237 20.6289H61.8789C62.4146 20.6289 62.8467 21.0609 62.8467 21.5967C62.8467 22.1324 62.4146 22.5645 61.8789 22.5645H56.8237C56.2879 22.5645 55.8559 22.1324 55.8559 21.5967C55.8559 21.0609 56.2879 20.6289 56.8237 20.6289ZM25.1533 21.5967C25.1533 21.0609 25.5854 20.6289 26.1211 20.6289H31.1763C31.7121 20.6289 32.1441 21.0609 32.1441 21.5967C32.1441 22.1324 31.7121 22.5645 31.1763 22.5645H26.1211C25.5854 22.5645 25.1533 22.1324 25.1533 21.5967ZM52.3821 13.2146C52.0018 12.8344 52.0018 12.2209 52.3821 11.8407L55.9509 8.27179C56.3311 7.89158 56.9447 7.89158 57.3249 8.27179C57.7051 8.65201 57.7051 9.26554 57.3249 9.64576L53.756 13.2146C53.5659 13.4047 53.3153 13.4998 53.0734 13.4998C52.8228 13.4998 52.5722 13.4047 52.3821 13.2146ZM34.2267 18.1229C34.0193 18.7623 34.1921 19.445 34.6847 19.903L38.193 23.1867L37.2857 27.9048C37.1561 28.5616 37.4153 29.2183 37.9597 29.6158C38.5041 30.0133 39.2041 30.0565 39.7917 29.7282L44 27.4123L48.2083 29.7368C48.4676 29.8837 48.7527 29.9528 49.0379 29.9528C49.3922 29.9528 49.7378 29.8405 50.0403 29.6245C50.5847 29.227 50.8439 28.5702 50.7143 27.9135L49.807 23.1953L53.3153 19.9116C53.8079 19.4536 53.9807 18.771 53.7733 18.1315C53.5659 17.4921 53.0215 17.0427 52.3561 16.9563L47.5948 16.3601L45.5554 12.0135C45.2703 11.4086 44.674 11.0284 44 11.0284C43.326 11.0284 42.7297 11.4086 42.4446 12.0135L40.4052 16.3601L35.6439 16.9563C34.9785 17.0427 34.4341 17.4921 34.2267 18.1229ZM40.7768 18.2698C41.3644 18.2007 41.8656 17.8291 42.1162 17.2933L44 13.2665L45.8838 17.2933C46.1344 17.8291 46.6356 18.192 47.2232 18.2698L51.6389 18.8228L48.3898 21.8646C47.9577 22.2707 47.7676 22.8583 47.8799 23.4373L48.7182 27.8011L44.8209 25.6495C44.5617 25.5026 44.2765 25.4334 43.9914 25.4334C43.7062 25.4334 43.421 25.5026 43.1618 25.6495L39.2646 27.8011L40.1028 23.4373C40.2151 22.8583 40.025 22.2707 39.5929 21.8646L36.3438 18.8228L40.7768 18.2698Z" stroke="black" stroke-width="0.8" mask="url(#path-2-outside-1_4_664)"/>
<circle cx="19.6963" cy="46.9922" r="5.8037" fill="#DD0004"/>
<circle cx="44" cy="43.25" r="8.12499" fill="#DD0004"/>
</svg>
