<svg width="88" height="88" viewBox="0 0 88 88" fill="none" xmlns="http://www.w3.org/2000/svg">
<path fill-rule="evenodd" clip-rule="evenodd" d="M48.6962 81.5231C46.3193 82.6569 44.489 83.3009 43.6174 83.5553C39.2001 82.2659 10.1551 70.969 10.1551 36.6284V14.2515C15.8514 14.7899 30.6359 14.5666 43.6174 4.60535C56.5988 14.5666 71.3833 14.7899 77.0796 14.2515V36.6284C77.0796 40.395 76.7302 43.8843 76.1022 47.1136C77.0629 47.9167 77.954 48.8003 78.7652 49.754C79.6217 45.7955 80.1062 41.4329 80.1062 36.6284V13.3443C80.1062 11.955 78.9822 10.831 77.5929 10.831C77.3513 10.831 77.1202 10.8651 76.8996 10.9281C75.4053 11.2538 60.4331 14.1032 45.2194 1.47895C44.2713 0.68845 42.9109 0.719965 42.0023 1.49208C26.0578 14.7128 10.3766 10.9383 10.2155 10.8995L10.2144 10.8992C8.86447 10.5841 7.51722 11.4245 7.20207 12.7744C7.15743 12.9661 7.13642 13.1578 7.13642 13.3443H7.13379V36.6284C7.13379 77.7162 42.573 86.4842 43.0069 86.5915L43.0107 86.5925C43.4362 86.6975 43.8642 86.687 44.2582 86.5846C44.5903 86.5012 47.7187 85.6908 52.0011 83.6017C50.8355 83.0059 49.73 82.3092 48.6962 81.5231Z" fill="black"/>
<circle cx="62" cy="64" r="21" stroke="black" stroke-width="2"/>
<path d="M62.4881 69.0085C65.1929 69.0085 67.3855 66.766 67.3855 63.9998C67.3855 61.2336 65.1929 58.9912 62.4881 58.9912C59.7834 58.9912 57.5908 61.2336 57.5908 63.9998C57.5908 66.766 59.7834 69.0085 62.4881 69.0085Z" fill="#DD0004"/>
<path d="M49.9746 67.6632C49.7418 67.4818 49.6975 67.1403 49.8749 66.9021C50.0522 66.6641 50.3861 66.6187 50.6189 66.8001L50.6868 66.854C50.9196 67.0354 50.964 67.3769 50.7866 67.615C50.6092 67.8531 50.2753 67.8984 50.0425 67.717L49.9746 67.6632ZM67.2529 57.6557C67.5231 57.8683 67.7781 58.0978 68.0192 58.343L68.0483 58.3756C69.4464 59.821 70.3096 61.8091 70.3096 64C70.3096 66.2064 69.4339 68.2074 68.0178 69.6556C67.7767 69.9022 67.5204 70.1332 67.2488 70.3457C68.4751 70.0283 69.6653 69.589 70.803 69.0363C73.2403 67.8517 75.4376 66.1454 77.2279 64C77.0187 63.7491 76.8011 63.5011 76.5767 63.2602C76.2455 62.9017 75.9088 62.563 75.5721 62.2456C75.356 62.0443 75.3407 61.7014 75.5389 61.4803C75.7356 61.2593 76.071 61.2437 76.2871 61.4463C76.6598 61.7963 77.0159 62.1535 77.3512 62.5162C77.6852 62.8776 78.0108 63.2574 78.3253 63.6527C78.4861 63.8483 78.493 64.1387 78.3295 64.3428C76.3883 66.7788 73.9623 68.7034 71.2562 70.0184C68.5488 71.3349 65.5588 72.0406 62.4881 72.0406C60.6037 72.0406 58.7441 71.7728 56.9624 71.2612C55.1611 70.7439 53.4388 69.9759 51.8453 68.9811C51.5945 68.8252 51.5169 68.4907 51.6693 68.2357C51.8218 67.9792 52.1488 67.8998 52.3982 68.0557C53.9085 68.9981 55.5407 69.7265 57.2478 70.2168C57.4071 70.2621 57.5665 70.306 57.7286 70.3485C57.457 70.1346 57.2007 69.905 56.9596 69.6585L56.9568 69.6556C55.5421 68.2073 54.6678 66.2079 54.6678 64.0029C54.6678 61.7965 55.5435 59.7969 56.9582 58.3487L56.961 58.3459C57.202 58.0993 57.4584 57.8698 57.7286 57.6572C56.501 57.9746 55.3107 58.4153 54.1733 58.968C51.7361 60.1527 49.5387 61.8589 47.7485 64.0044C47.9189 64.2099 48.0921 64.4082 48.2639 64.5981C48.5313 64.8929 48.8167 65.189 49.1188 65.4838C49.3308 65.6907 49.3391 66.035 49.1382 66.2518C48.9359 66.4687 48.5992 66.4772 48.3872 66.2717C48.0879 65.9798 47.7873 65.6666 47.4866 65.335C47.1928 65.0105 46.9143 64.6832 46.651 64.353C46.4903 64.1574 46.4834 63.8669 46.6469 63.6629C48.5881 61.227 51.0141 59.3024 53.7202 57.9873C56.4276 56.6708 59.4176 55.9651 62.4883 55.9651C64.6913 55.9651 66.853 56.3293 68.8965 57.0195C70.9596 57.7167 72.9079 58.7497 74.662 60.0803C74.8975 60.2589 74.946 60.599 74.7728 60.8385C74.5982 61.0794 74.2657 61.129 74.0315 60.9518C72.373 59.6949 70.526 58.7157 68.5655 58.0539C68.1331 57.9079 67.6967 57.7775 67.2547 57.6628L67.2529 57.6557ZM67.2668 59.1124C66.0447 57.8626 64.3543 57.0888 62.4878 57.0888C60.62 57.0888 58.9311 57.8612 57.7102 59.111C56.4867 60.3623 55.7315 62.0897 55.7315 64.0001C55.7315 65.9105 56.4867 67.6376 57.7088 68.8863C58.9323 70.1376 60.6213 70.9099 62.4892 70.9099C64.3556 70.9099 66.0445 70.1362 67.2682 68.8863C68.4917 67.6378 69.2469 65.909 69.2469 64.0001C69.2469 62.1026 68.5014 60.3851 67.2946 59.1382L67.2682 59.1127L67.2668 59.1124ZM56.225 76.1812C56.0781 76.4406 55.7539 76.5284 55.5003 76.3782C55.2467 76.228 55.1608 75.8964 55.3077 75.6371L56.8665 72.8766C57.0134 72.6173 57.3376 72.5294 57.5912 72.6796C57.8447 72.8298 57.9307 73.1614 57.7838 73.4208L56.225 76.1812ZM68.1135 55.1234C67.9666 55.3827 67.6424 55.4706 67.3888 55.3204C67.1353 55.1702 67.0494 54.8386 67.1962 54.5792L68.755 51.8187C68.9019 51.5594 69.2261 51.4715 69.4797 51.6218C69.7332 51.772 69.8191 52.1036 69.6723 52.3629L68.1135 55.1234ZM69.6723 75.6371C69.8191 75.8964 69.7332 76.2294 69.4797 76.3782C69.2261 76.5285 68.9005 76.4406 68.755 76.1813L67.1962 73.4208C67.0494 73.1615 67.1353 72.8285 67.3888 72.6796C67.6424 72.5294 67.968 72.6173 68.1135 72.8766L69.6723 75.6371ZM57.7838 54.5792C57.9307 54.8386 57.8448 55.1716 57.5912 55.3204C57.3376 55.4706 57.012 55.3827 56.8665 55.1234L55.3077 52.3629C55.1608 52.1036 55.2467 51.7706 55.5003 51.6218C55.7539 51.4716 56.0795 51.5594 56.225 51.8188L57.7838 54.5792ZM63.0215 77.7513C63.0215 78.0517 62.7831 78.2955 62.4894 78.2955C62.1956 78.2955 61.9573 78.0517 61.9573 77.7513V74.5643C61.9573 74.2639 62.1956 74.0202 62.4894 74.0202C62.7831 74.0202 63.0215 74.2639 63.0215 74.5643V77.7513ZM63.0215 53.4358C63.0215 53.7362 62.7831 53.9799 62.4894 53.9799C62.1956 53.9799 61.9573 53.7362 61.9573 53.4358V50.2487C61.9573 49.9483 62.1956 49.7046 62.4894 49.7046C62.7831 49.7046 63.0215 49.9483 63.0215 50.2487V53.4358ZM62.4894 58.0031C63.0727 58.0031 63.6394 58.0924 64.1742 58.2553C64.7271 58.424 65.2467 58.6776 65.7178 58.9951C65.9464 59.1495 66.0199 59.4556 65.8966 59.6979L65.3437 60.7862L66.4674 60.1883C66.7099 60.0593 67.0064 60.1415 67.1547 60.3697C67.533 60.8783 67.8364 61.4509 68.0401 62.0673C68.2424 62.6738 68.3532 63.3257 68.3532 63.9988C68.3532 65.6539 67.6965 67.1532 66.6351 68.2389C65.5737 69.3244 64.1078 69.9961 62.4892 69.9961C60.8722 69.9961 59.4049 69.3244 58.3434 68.2389C57.282 67.1534 56.6252 65.6541 56.6252 63.9988C56.6252 62.3434 57.282 60.8443 58.3434 59.7587C59.4047 58.6732 60.8706 58.0015 62.4892 58.0015L62.4894 58.0031ZM63.8708 59.2969C63.4357 59.1637 62.9715 59.0914 62.4894 59.0914C61.1647 59.0914 59.9648 59.6412 59.0961 60.5297C58.2287 61.4168 57.6897 62.6454 57.6897 64.0002C57.6897 65.3549 58.2273 66.5821 59.0961 67.4706C59.9635 68.3576 61.1647 68.9089 62.4894 68.9089C63.814 68.9089 65.0139 68.3591 65.8827 67.4706C66.75 66.5835 67.2891 65.3549 67.2891 64.0002C67.2891 63.4447 67.199 62.9118 67.0341 62.4173C66.9108 62.0474 66.7459 61.6974 66.545 61.3743L64.3682 62.5292C64.2158 62.6213 64.0218 62.6327 63.8528 62.5434C63.5923 62.4045 63.4912 62.0757 63.6256 61.8108L64.7216 59.654C64.4513 59.508 64.1673 59.389 63.8708 59.2983V59.2969Z" fill="black"/>
<path d="M28.7054 34.0675C27.7232 33.0879 27.7232 31.4938 28.7054 30.5142C29.6876 29.532 31.2791 29.532 32.2587 30.5142L39.6647 37.9201L52.1708 23.1634C53.0663 22.105 54.6473 21.9737 55.7057 22.8692C56.7614 23.7648 56.8954 25.3458 55.9998 26.4041L41.8366 43.1175C41.763 43.2173 41.6816 43.3118 41.5923 43.4011C40.6101 44.3833 39.0186 44.3833 38.039 43.4011L28.7054 34.0675Z" fill="#DD0004"/>
</svg>
