<svg width="88" height="88" viewBox="0 0 88 88" fill="none" xmlns="http://www.w3.org/2000/svg">
<path d="M38.75 30.25V40.25H50.125V37.125L49.125 28.25L51.5 27.625L54.375 26.25L53 24.5L44.625 13.25H43.25L36.75 22C35.8333 23.625 33.95 27.025 33.75 27.625C33.55 28.225 37 28.2917 38.75 28.25V30.25Z" fill="#DD0004"/>
<mask id="path-2-outside-1_18_83" maskUnits="userSpaceOnUse" x="2.99878" y="1.24762" width="82" height="82" fill="black">
<rect fill="white" x="2.99878" y="1.24762" width="82" height="82"/>
<path fill-rule="evenodd" clip-rule="evenodd" d="M62.5817 80.619H78.7029V74.362L70.4457 71.9785C70.169 71.8985 69.969 71.6852 69.8924 71.4252C69.359 69.6217 68.6223 67.845 67.7255 66.2016C67.5889 65.9482 67.5989 65.6549 67.7255 65.4215L71.8791 57.8978L65.1955 51.2141L57.6717 55.3677C57.4017 55.5144 57.0884 55.4944 56.8483 55.3443C56.0383 54.9077 55.2016 54.5076 54.3349 54.1477C53.4615 53.7843 52.5715 53.4709 51.6681 53.2042C51.3781 53.1176 51.1714 52.8842 51.1047 52.6109L48.7313 44.3904H39.281L36.8975 52.6476C36.8175 52.9243 36.6041 53.1243 36.3441 53.2009C34.5407 53.7343 32.7639 54.471 31.1205 55.3678C30.8671 55.5044 30.5738 55.4944 30.3404 55.3678L22.8167 51.2142L16.133 57.8978L20.2866 65.4216C20.4333 65.6916 20.4133 66.0049 20.2633 66.245C19.8266 67.055 19.4266 67.8917 19.0666 68.7584C18.7032 69.6318 18.3899 70.5218 18.1232 71.4252C18.0365 71.7152 17.8032 71.9219 17.5298 71.9886L9.31271 74.362V80.6223H25.4305C24.8171 69.8416 33.3242 60.9016 44.0017 60.9016C54.6792 60.9016 63.1824 69.8425 62.5817 80.619ZM45.5943 75.8254L51.4179 70.0084C51.7379 69.6917 52.2513 69.6917 52.568 70.0118C52.8847 70.3318 52.8847 70.8451 52.5647 71.1619L46.7444 76.9788C47.9611 79.0756 46.451 81.7391 44.0009 81.7391C41.1841 81.7391 39.7674 78.3189 41.7575 76.3254C42.7742 75.312 44.3476 75.102 45.5943 75.8254ZM45.0876 77.4788C45.6876 78.0789 45.6876 79.0556 45.0876 79.6556C44.1209 80.6223 42.4608 79.9356 42.4608 78.5689C42.4641 77.2022 44.1242 76.5155 45.0876 77.4788ZM60.7053 77.9322C60.7753 77.9322 60.8453 77.9422 60.912 77.9589C60.6886 75.5021 59.9419 73.1953 58.7819 71.1518L56.8817 72.2485C55.9517 72.7852 55.1383 71.3752 56.065 70.8385L57.9118 69.7718C56.5718 67.8617 54.8517 66.2449 52.8615 65.0215L51.9081 66.675C51.6848 67.065 51.1881 67.1983 50.798 66.975C50.408 66.7516 50.2747 66.2549 50.498 65.8649L51.4348 64.2415C49.418 63.2582 47.1779 62.6614 44.8144 62.5514V64.3415C44.8144 65.4116 43.1877 65.4116 43.1877 64.3415V62.5514C40.821 62.6647 38.5842 63.2581 36.5674 64.2415L37.5041 65.8649C38.0408 66.7949 36.6308 67.6084 36.0941 66.6816L35.1374 65.0249C33.144 66.2449 31.4271 67.865 30.0871 69.7751L31.9305 70.8385C32.3206 71.0619 32.4539 71.5585 32.2306 71.9486C32.0072 72.3386 31.5105 72.4719 31.1205 72.2486L29.217 71.1485C28.0603 73.1919 27.3102 75.4988 27.0869 77.9589C27.3002 77.9022 29.2237 77.9322 29.597 77.9322C30.6671 77.9322 30.6671 79.5589 29.597 79.5589H27.2969C27.2002 79.5589 27.1069 79.5423 27.0202 79.5123L27.1102 81.2957C27.1836 81.8324 26.7969 82.2524 26.3069 82.2524H8.48573C8.03571 82.2524 7.66902 81.8857 7.66902 81.4357V73.7486H7.67236C7.67236 73.3953 7.90237 73.0719 8.25906 72.9686L16.6795 70.5351C17.1896 68.8983 17.8396 67.3382 18.6363 65.8182L14.4228 58.1844C14.2227 57.8678 14.2594 57.4444 14.5361 57.1711L22.0865 49.6206C22.3366 49.3706 22.7299 49.3039 23.0566 49.4839L30.7337 53.7208C32.2537 52.9241 33.8172 52.2741 35.4505 51.764L37.884 43.3435C37.9807 43.0035 38.2941 42.7568 38.6641 42.7568H49.3117C49.6751 42.7468 50.0117 42.9802 50.1184 43.3435L52.5519 51.764C54.1887 52.2774 55.7488 52.9241 57.2688 53.7208L64.9025 49.5072C65.2192 49.3072 65.6426 49.3439 65.9159 49.6206L73.4664 57.171C73.7164 57.421 73.783 57.8144 73.603 58.1411L69.3662 65.8181C70.1629 67.3382 70.8129 68.9017 71.323 70.535L79.7434 72.9685C80.0835 73.0685 80.3301 73.3785 80.3301 73.7486L80.3335 81.4356C80.3335 81.8857 79.9668 82.2523 79.5168 82.2523L61.6956 82.2557V82.2523C61.2156 82.2523 60.8356 81.8323 60.8856 81.3523L60.9823 79.5122C60.8956 79.5422 60.8023 79.5589 60.7056 79.5589H58.4055C57.3354 79.5589 57.3354 77.9322 58.4055 77.9322H60.7053ZM11.316 55.5907C11.316 56.6641 9.68251 56.6641 9.68251 55.5907V40.2598H4.8156C4.17891 40.2598 3.7389 39.533 4.17223 38.9397L13.4425 25.3726C13.9692 24.6026 14.7959 24.1659 15.7293 24.1659V24.1692C16.666 24.1692 17.4861 24.6026 18.0161 25.376L27.3196 38.9865C27.6897 39.5299 27.2963 40.2599 26.6463 40.2599V40.2633L21.776 40.2599V45.5102C21.776 46.5836 20.1426 46.5836 20.1426 45.5102V39.4398C20.1426 38.9898 20.5093 38.6231 20.9593 38.6231H25.0995L16.6691 26.2858C16.4458 25.9591 16.1224 25.7891 15.729 25.7891V25.7925C15.3323 25.7925 15.0123 25.9591 14.7889 26.2858L6.35848 38.6265H10.4987C10.9488 38.6265 11.3154 38.9932 11.3154 39.4432L11.316 55.5907ZM78.3199 55.5907C78.3199 56.6641 76.6864 56.6641 76.6864 55.5907V17.5283C76.6864 17.0783 77.0531 16.7116 77.5032 16.7116H81.6434L73.2096 4.37426C72.7563 3.7109 71.7862 3.7109 71.3296 4.37426L62.8991 16.7116H67.0394C67.4894 16.7116 67.8561 17.0783 67.8561 17.5283V45.5132C67.8561 46.5865 66.2226 46.5865 66.2226 45.5132L66.226 18.345H61.359V18.3416C60.7123 18.3416 60.3156 17.6116 60.6857 17.0682L69.9858 3.45767C71.0892 1.84427 73.4527 1.84427 74.5561 3.45767L83.8263 17.0247C84.263 17.6214 83.8197 18.3448 83.183 18.3448H78.3161L78.3199 55.5907ZM39.451 39.2562C39.451 40.3296 37.8176 40.3296 37.8176 39.2562V28.4925H33.084C32.4473 28.4925 32.0073 27.7658 32.4406 27.1724L41.7109 13.6054C42.2376 12.8353 43.0576 12.4019 43.9977 12.4019V12.3986C44.9277 12.3986 45.7578 12.8353 46.2845 13.6054L55.588 27.2193C55.958 27.7627 55.5647 28.4927 54.9146 28.4927V28.4961H50.181V39.3067C50.181 40.3801 48.5476 40.3801 48.5476 39.3067C48.5476 38.1633 48.5776 28.456 48.5276 28.1957C48.4876 27.969 48.4109 27.9123 48.4109 27.6823C48.4109 27.2323 48.7776 26.8656 49.2276 26.8656H53.3679L44.9374 14.5283C44.7141 14.2016 44.3974 14.035 43.9973 14.035V14.0316C43.604 14.0316 43.2806 14.2016 43.0572 14.5283L34.6268 26.8656H38.7671V26.869C39.3237 26.869 39.7271 27.4323 39.5304 27.9657L39.4471 28.4357L39.451 39.2562Z"/>
</mask>
<path fill-rule="evenodd" clip-rule="evenodd" d="M62.5817 80.619H78.7029V74.362L70.4457 71.9785C70.169 71.8985 69.969 71.6852 69.8924 71.4252C69.359 69.6217 68.6223 67.845 67.7255 66.2016C67.5889 65.9482 67.5989 65.6549 67.7255 65.4215L71.8791 57.8978L65.1955 51.2141L57.6717 55.3677C57.4017 55.5144 57.0884 55.4944 56.8483 55.3443C56.0383 54.9077 55.2016 54.5076 54.3349 54.1477C53.4615 53.7843 52.5715 53.4709 51.6681 53.2042C51.3781 53.1176 51.1714 52.8842 51.1047 52.6109L48.7313 44.3904H39.281L36.8975 52.6476C36.8175 52.9243 36.6041 53.1243 36.3441 53.2009C34.5407 53.7343 32.7639 54.471 31.1205 55.3678C30.8671 55.5044 30.5738 55.4944 30.3404 55.3678L22.8167 51.2142L16.133 57.8978L20.2866 65.4216C20.4333 65.6916 20.4133 66.0049 20.2633 66.245C19.8266 67.055 19.4266 67.8917 19.0666 68.7584C18.7032 69.6318 18.3899 70.5218 18.1232 71.4252C18.0365 71.7152 17.8032 71.9219 17.5298 71.9886L9.31271 74.362V80.6223H25.4305C24.8171 69.8416 33.3242 60.9016 44.0017 60.9016C54.6792 60.9016 63.1824 69.8425 62.5817 80.619ZM45.5943 75.8254L51.4179 70.0084C51.7379 69.6917 52.2513 69.6917 52.568 70.0118C52.8847 70.3318 52.8847 70.8451 52.5647 71.1619L46.7444 76.9788C47.9611 79.0756 46.451 81.7391 44.0009 81.7391C41.1841 81.7391 39.7674 78.3189 41.7575 76.3254C42.7742 75.312 44.3476 75.102 45.5943 75.8254ZM45.0876 77.4788C45.6876 78.0789 45.6876 79.0556 45.0876 79.6556C44.1209 80.6223 42.4608 79.9356 42.4608 78.5689C42.4641 77.2022 44.1242 76.5155 45.0876 77.4788ZM60.7053 77.9322C60.7753 77.9322 60.8453 77.9422 60.912 77.9589C60.6886 75.5021 59.9419 73.1953 58.7819 71.1518L56.8817 72.2485C55.9517 72.7852 55.1383 71.3752 56.065 70.8385L57.9118 69.7718C56.5718 67.8617 54.8517 66.2449 52.8615 65.0215L51.9081 66.675C51.6848 67.065 51.1881 67.1983 50.798 66.975C50.408 66.7516 50.2747 66.2549 50.498 65.8649L51.4348 64.2415C49.418 63.2582 47.1779 62.6614 44.8144 62.5514V64.3415C44.8144 65.4116 43.1877 65.4116 43.1877 64.3415V62.5514C40.821 62.6647 38.5842 63.2581 36.5674 64.2415L37.5041 65.8649C38.0408 66.7949 36.6308 67.6084 36.0941 66.6816L35.1374 65.0249C33.144 66.2449 31.4271 67.865 30.0871 69.7751L31.9305 70.8385C32.3206 71.0619 32.4539 71.5585 32.2306 71.9486C32.0072 72.3386 31.5105 72.4719 31.1205 72.2486L29.217 71.1485C28.0603 73.1919 27.3102 75.4988 27.0869 77.9589C27.3002 77.9022 29.2237 77.9322 29.597 77.9322C30.6671 77.9322 30.6671 79.5589 29.597 79.5589H27.2969C27.2002 79.5589 27.1069 79.5423 27.0202 79.5123L27.1102 81.2957C27.1836 81.8324 26.7969 82.2524 26.3069 82.2524H8.48573C8.03571 82.2524 7.66902 81.8857 7.66902 81.4357V73.7486H7.67236C7.67236 73.3953 7.90237 73.0719 8.25906 72.9686L16.6795 70.5351C17.1896 68.8983 17.8396 67.3382 18.6363 65.8182L14.4228 58.1844C14.2227 57.8678 14.2594 57.4444 14.5361 57.1711L22.0865 49.6206C22.3366 49.3706 22.7299 49.3039 23.0566 49.4839L30.7337 53.7208C32.2537 52.9241 33.8172 52.2741 35.4505 51.764L37.884 43.3435C37.9807 43.0035 38.2941 42.7568 38.6641 42.7568H49.3117C49.6751 42.7468 50.0117 42.9802 50.1184 43.3435L52.5519 51.764C54.1887 52.2774 55.7488 52.9241 57.2688 53.7208L64.9025 49.5072C65.2192 49.3072 65.6426 49.3439 65.9159 49.6206L73.4664 57.171C73.7164 57.421 73.783 57.8144 73.603 58.1411L69.3662 65.8181C70.1629 67.3382 70.8129 68.9017 71.323 70.535L79.7434 72.9685C80.0835 73.0685 80.3301 73.3785 80.3301 73.7486L80.3335 81.4356C80.3335 81.8857 79.9668 82.2523 79.5168 82.2523L61.6956 82.2557V82.2523C61.2156 82.2523 60.8356 81.8323 60.8856 81.3523L60.9823 79.5122C60.8956 79.5422 60.8023 79.5589 60.7056 79.5589H58.4055C57.3354 79.5589 57.3354 77.9322 58.4055 77.9322H60.7053ZM11.316 55.5907C11.316 56.6641 9.68251 56.6641 9.68251 55.5907V40.2598H4.8156C4.17891 40.2598 3.7389 39.533 4.17223 38.9397L13.4425 25.3726C13.9692 24.6026 14.7959 24.1659 15.7293 24.1659V24.1692C16.666 24.1692 17.4861 24.6026 18.0161 25.376L27.3196 38.9865C27.6897 39.5299 27.2963 40.2599 26.6463 40.2599V40.2633L21.776 40.2599V45.5102C21.776 46.5836 20.1426 46.5836 20.1426 45.5102V39.4398C20.1426 38.9898 20.5093 38.6231 20.9593 38.6231H25.0995L16.6691 26.2858C16.4458 25.9591 16.1224 25.7891 15.729 25.7891V25.7925C15.3323 25.7925 15.0123 25.9591 14.7889 26.2858L6.35848 38.6265H10.4987C10.9488 38.6265 11.3154 38.9932 11.3154 39.4432L11.316 55.5907ZM78.3199 55.5907C78.3199 56.6641 76.6864 56.6641 76.6864 55.5907V17.5283C76.6864 17.0783 77.0531 16.7116 77.5032 16.7116H81.6434L73.2096 4.37426C72.7563 3.7109 71.7862 3.7109 71.3296 4.37426L62.8991 16.7116H67.0394C67.4894 16.7116 67.8561 17.0783 67.8561 17.5283V45.5132C67.8561 46.5865 66.2226 46.5865 66.2226 45.5132L66.226 18.345H61.359V18.3416C60.7123 18.3416 60.3156 17.6116 60.6857 17.0682L69.9858 3.45767C71.0892 1.84427 73.4527 1.84427 74.5561 3.45767L83.8263 17.0247C84.263 17.6214 83.8197 18.3448 83.183 18.3448H78.3161L78.3199 55.5907ZM39.451 39.2562C39.451 40.3296 37.8176 40.3296 37.8176 39.2562V28.4925H33.084C32.4473 28.4925 32.0073 27.7658 32.4406 27.1724L41.7109 13.6054C42.2376 12.8353 43.0576 12.4019 43.9977 12.4019V12.3986C44.9277 12.3986 45.7578 12.8353 46.2845 13.6054L55.588 27.2193C55.958 27.7627 55.5647 28.4927 54.9146 28.4927V28.4961H50.181V39.3067C50.181 40.3801 48.5476 40.3801 48.5476 39.3067C48.5476 38.1633 48.5776 28.456 48.5276 28.1957C48.4876 27.969 48.4109 27.9123 48.4109 27.6823C48.4109 27.2323 48.7776 26.8656 49.2276 26.8656H53.3679L44.9374 14.5283C44.7141 14.2016 44.3974 14.035 43.9973 14.035V14.0316C43.604 14.0316 43.2806 14.2016 43.0572 14.5283L34.6268 26.8656H38.7671V26.869C39.3237 26.869 39.7271 27.4323 39.5304 27.9657L39.4471 28.4357L39.451 39.2562Z" fill="black"/>
<path fill-rule="evenodd" clip-rule="evenodd" d="M62.5817 80.619H78.7029V74.362L70.4457 71.9785C70.169 71.8985 69.969 71.6852 69.8924 71.4252C69.359 69.6217 68.6223 67.845 67.7255 66.2016C67.5889 65.9482 67.5989 65.6549 67.7255 65.4215L71.8791 57.8978L65.1955 51.2141L57.6717 55.3677C57.4017 55.5144 57.0884 55.4944 56.8483 55.3443C56.0383 54.9077 55.2016 54.5076 54.3349 54.1477C53.4615 53.7843 52.5715 53.4709 51.6681 53.2042C51.3781 53.1176 51.1714 52.8842 51.1047 52.6109L48.7313 44.3904H39.281L36.8975 52.6476C36.8175 52.9243 36.6041 53.1243 36.3441 53.2009C34.5407 53.7343 32.7639 54.471 31.1205 55.3678C30.8671 55.5044 30.5738 55.4944 30.3404 55.3678L22.8167 51.2142L16.133 57.8978L20.2866 65.4216C20.4333 65.6916 20.4133 66.0049 20.2633 66.245C19.8266 67.055 19.4266 67.8917 19.0666 68.7584C18.7032 69.6318 18.3899 70.5218 18.1232 71.4252C18.0365 71.7152 17.8032 71.9219 17.5298 71.9886L9.31271 74.362V80.6223H25.4305C24.8171 69.8416 33.3242 60.9016 44.0017 60.9016C54.6792 60.9016 63.1824 69.8425 62.5817 80.619ZM45.5943 75.8254L51.4179 70.0084C51.7379 69.6917 52.2513 69.6917 52.568 70.0118C52.8847 70.3318 52.8847 70.8451 52.5647 71.1619L46.7444 76.9788C47.9611 79.0756 46.451 81.7391 44.0009 81.7391C41.1841 81.7391 39.7674 78.3189 41.7575 76.3254C42.7742 75.312 44.3476 75.102 45.5943 75.8254ZM45.0876 77.4788C45.6876 78.0789 45.6876 79.0556 45.0876 79.6556C44.1209 80.6223 42.4608 79.9356 42.4608 78.5689C42.4641 77.2022 44.1242 76.5155 45.0876 77.4788ZM60.7053 77.9322C60.7753 77.9322 60.8453 77.9422 60.912 77.9589C60.6886 75.5021 59.9419 73.1953 58.7819 71.1518L56.8817 72.2485C55.9517 72.7852 55.1383 71.3752 56.065 70.8385L57.9118 69.7718C56.5718 67.8617 54.8517 66.2449 52.8615 65.0215L51.9081 66.675C51.6848 67.065 51.1881 67.1983 50.798 66.975C50.408 66.7516 50.2747 66.2549 50.498 65.8649L51.4348 64.2415C49.418 63.2582 47.1779 62.6614 44.8144 62.5514V64.3415C44.8144 65.4116 43.1877 65.4116 43.1877 64.3415V62.5514C40.821 62.6647 38.5842 63.2581 36.5674 64.2415L37.5041 65.8649C38.0408 66.7949 36.6308 67.6084 36.0941 66.6816L35.1374 65.0249C33.144 66.2449 31.4271 67.865 30.0871 69.7751L31.9305 70.8385C32.3206 71.0619 32.4539 71.5585 32.2306 71.9486C32.0072 72.3386 31.5105 72.4719 31.1205 72.2486L29.217 71.1485C28.0603 73.1919 27.3102 75.4988 27.0869 77.9589C27.3002 77.9022 29.2237 77.9322 29.597 77.9322C30.6671 77.9322 30.6671 79.5589 29.597 79.5589H27.2969C27.2002 79.5589 27.1069 79.5423 27.0202 79.5123L27.1102 81.2957C27.1836 81.8324 26.7969 82.2524 26.3069 82.2524H8.48573C8.03571 82.2524 7.66902 81.8857 7.66902 81.4357V73.7486H7.67236C7.67236 73.3953 7.90237 73.0719 8.25906 72.9686L16.6795 70.5351C17.1896 68.8983 17.8396 67.3382 18.6363 65.8182L14.4228 58.1844C14.2227 57.8678 14.2594 57.4444 14.5361 57.1711L22.0865 49.6206C22.3366 49.3706 22.7299 49.3039 23.0566 49.4839L30.7337 53.7208C32.2537 52.9241 33.8172 52.2741 35.4505 51.764L37.884 43.3435C37.9807 43.0035 38.2941 42.7568 38.6641 42.7568H49.3117C49.6751 42.7468 50.0117 42.9802 50.1184 43.3435L52.5519 51.764C54.1887 52.2774 55.7488 52.9241 57.2688 53.7208L64.9025 49.5072C65.2192 49.3072 65.6426 49.3439 65.9159 49.6206L73.4664 57.171C73.7164 57.421 73.783 57.8144 73.603 58.1411L69.3662 65.8181C70.1629 67.3382 70.8129 68.9017 71.323 70.535L79.7434 72.9685C80.0835 73.0685 80.3301 73.3785 80.3301 73.7486L80.3335 81.4356C80.3335 81.8857 79.9668 82.2523 79.5168 82.2523L61.6956 82.2557V82.2523C61.2156 82.2523 60.8356 81.8323 60.8856 81.3523L60.9823 79.5122C60.8956 79.5422 60.8023 79.5589 60.7056 79.5589H58.4055C57.3354 79.5589 57.3354 77.9322 58.4055 77.9322H60.7053ZM11.316 55.5907C11.316 56.6641 9.68251 56.6641 9.68251 55.5907V40.2598H4.8156C4.17891 40.2598 3.7389 39.533 4.17223 38.9397L13.4425 25.3726C13.9692 24.6026 14.7959 24.1659 15.7293 24.1659V24.1692C16.666 24.1692 17.4861 24.6026 18.0161 25.376L27.3196 38.9865C27.6897 39.5299 27.2963 40.2599 26.6463 40.2599V40.2633L21.776 40.2599V45.5102C21.776 46.5836 20.1426 46.5836 20.1426 45.5102V39.4398C20.1426 38.9898 20.5093 38.6231 20.9593 38.6231H25.0995L16.6691 26.2858C16.4458 25.9591 16.1224 25.7891 15.729 25.7891V25.7925C15.3323 25.7925 15.0123 25.9591 14.7889 26.2858L6.35848 38.6265H10.4987C10.9488 38.6265 11.3154 38.9932 11.3154 39.4432L11.316 55.5907ZM78.3199 55.5907C78.3199 56.6641 76.6864 56.6641 76.6864 55.5907V17.5283C76.6864 17.0783 77.0531 16.7116 77.5032 16.7116H81.6434L73.2096 4.37426C72.7563 3.7109 71.7862 3.7109 71.3296 4.37426L62.8991 16.7116H67.0394C67.4894 16.7116 67.8561 17.0783 67.8561 17.5283V45.5132C67.8561 46.5865 66.2226 46.5865 66.2226 45.5132L66.226 18.345H61.359V18.3416C60.7123 18.3416 60.3156 17.6116 60.6857 17.0682L69.9858 3.45767C71.0892 1.84427 73.4527 1.84427 74.5561 3.45767L83.8263 17.0247C84.263 17.6214 83.8197 18.3448 83.183 18.3448H78.3161L78.3199 55.5907ZM39.451 39.2562C39.451 40.3296 37.8176 40.3296 37.8176 39.2562V28.4925H33.084C32.4473 28.4925 32.0073 27.7658 32.4406 27.1724L41.7109 13.6054C42.2376 12.8353 43.0576 12.4019 43.9977 12.4019V12.3986C44.9277 12.3986 45.7578 12.8353 46.2845 13.6054L55.588 27.2193C55.958 27.7627 55.5647 28.4927 54.9146 28.4927V28.4961H50.181V39.3067C50.181 40.3801 48.5476 40.3801 48.5476 39.3067C48.5476 38.1633 48.5776 28.456 48.5276 28.1957C48.4876 27.969 48.4109 27.9123 48.4109 27.6823C48.4109 27.2323 48.7776 26.8656 49.2276 26.8656H53.3679L44.9374 14.5283C44.7141 14.2016 44.3974 14.035 43.9973 14.035V14.0316C43.604 14.0316 43.2806 14.2016 43.0572 14.5283L34.6268 26.8656H38.7671V26.869C39.3237 26.869 39.7271 27.4323 39.5304 27.9657L39.4471 28.4357L39.451 39.2562Z" stroke="black" stroke-width="0.6" mask="url(#path-2-outside-1_18_83)"/>
<circle cx="44" cy="78.5625" r="1.875" fill="#DD0004"/>
</svg>
