<?xml version="1.0" encoding="utf-8"?>
<!-- Generator: Adobe Illustrator 16.0.0, SVG Export Plug-In . SVG Version: 6.00 Build 0)  -->
<!DOCTYPE svg PUBLIC "-//W3C//DTD SVG 1.1//EN" "http://www.w3.org/Graphics/SVG/1.1/DTD/svg11.dtd">
<svg version="1.1" id="Layer_1" xmlns="http://www.w3.org/2000/svg" xmlns:xlink="http://www.w3.org/1999/xlink" x="0px" y="0px"
	 width="80px" height="80px" viewBox="0 0 80 80" style="enable-background:new 0 0 80 80;" xml:space="preserve">
<rect x="15.05" y="11.56" style="fill:#DD0004;" width="49.55" height="11.95"/>
<g>
	<g>
		<path d="M14.94,24.54h2.55v14c0,0.7,0.56,1.26,1.26,1.26h42.01c0.7,0,1.26-0.56,1.26-1.26v-14h2.55c0.7,0,1.26-0.56,1.26-1.26
			V11.82c0-0.69-0.56-1.26-1.26-1.26H48.65V4.01c0-0.69-0.56-1.26-1.26-1.26H32.11c-0.7,0-1.26,0.56-1.26,1.26v6.55H14.94
			c-0.7,0-1.26,0.56-1.26,1.26v11.47C13.68,23.98,14.24,24.54,14.94,24.54z M59.49,37.29H20V24.54h11.4v5.62
			c0,0.69,0.56,1.26,1.26,1.26h14.18c0.7,0,1.26-0.56,1.26-1.26v-5.62h11.4V37.29z M33.92,24.54h11.66v4.36H33.92V24.54z
			 M33.37,5.27h12.76v5.29H33.37V5.27z M16.19,13.08c13.99,0,33.12,0,47.11,0v8.95c-14.48,0-32.63,0-47.11,0V13.08L16.19,13.08z"/>
		<path d="M77.47,41.96c-0.07-0.33-0.27-0.62-0.56-0.8c-2.97-1.87-6.95-1.5-9.48,0.89l-4.79,4.54l-8.01,3.8
			c-0.58-0.79-1.55-1.28-2.61-1.28H34.97c-3.27-1.28-7.08-2.98-10.68-2.11c0,0-8.31,1.57-8.31,1.57c-1.94,0.36-3.68,1.3-5.02,2.7
			c-0.06,0.06-0.19,0.19-8.67,10.63c-0.44,0.54-0.36,1.33,0.18,1.77C3,64.1,3.8,64.02,4.23,63.47c3.28-4.04,8.27-10.17,8.52-10.45
			c1-1.03,2.27-1.72,3.69-1.98l8.31-1.57c1.81-0.34,3.65-0.17,5.32,0.47c0.17,0.04,4.68,1.85,4.67,1.68h17.29
			c0.41-0.02,0.69,0.32,0.75,0.73c0.9,3.55-3.52,5.57-6.88,6.29c0,0-17.17,4.08-17.17,4.08l0.58,2.45l17.18-4.08
			c5.03-1.02,9.38-4.18,8.89-8.27l8.53-4.04c0.12-0.06,0.23-0.13,0.33-0.22l4.94-4.68c1.39-1.31,3.43-1.72,5.22-1.15l-8.47,12.61
			c0.23,0.75-16.07,12.03-16.83,12.75c-1.21,0.89-2.72,1.38-4.25,1.38H27.14c-1.42,0-2.83,0.35-4.08,1l-10.36,5.41
			c-0.62,0.32-0.85,1.08-0.53,1.7c0.32,0.62,1.09,0.85,1.7,0.53l10.36-5.41c0.9-0.47,1.9-0.71,2.92-0.71h17.69
			c2.06,0,4.09-0.66,5.74-1.86l15.29-11.16c0.87-0.63,1.6-1.39,2.15-2.24l9.27-13.81C77.47,42.64,77.54,42.29,77.47,41.96z"/>
	</g>
</g>
</svg>
