<svg width="88" height="88" viewBox="0 0 88 88" fill="none" xmlns="http://www.w3.org/2000/svg">
<path d="M60.4999 25C60.6666 21.3333 60.8999 13.5 60.4999 11.5C58.8998 7.5 55.4999 7.83333 54 8.5H40.5H36.5V12.5V15.5H33.5L31.5 17L29 18.5V22L31.5 25L35.5 26H36.5V32.5H43.9999C43.1999 28.9 45.3332 26.6667 46.4999 26C50.8999 23.6 53.9999 27.3333 54.9999 29.5L59.4999 28L60.4999 25Z" fill="#DD0004" stroke="#202020"/>
<path fill-rule="evenodd" clip-rule="evenodd" d="M37.212 57.3519C37.212 57.793 36.8527 58.1523 36.4116 58.1523H15.8823C14.6278 58.1523 13.4909 57.6394 12.6643 56.8161C11.8378 55.9896 11.3281 54.8527 11.3281 53.5982V12.2258C11.3281 10.9746 11.841 9.83444 12.6643 9.00789C13.4909 8.18463 14.6278 7.67169 15.8823 7.67169H56.9477C58.2022 7.67169 59.3391 8.1846 60.1656 9.00789C60.9921 9.83442 61.5018 10.9713 61.5018 12.2258V25.7409C61.5018 26.1819 61.1425 26.5413 60.7014 26.5413C60.2604 26.5413 59.901 26.1819 59.901 25.7409V12.2258C59.901 11.4156 59.5678 10.6773 59.032 10.1415C58.4962 9.60579 57.7579 9.27251 56.9477 9.27251H37.2154V16.3029C37.2154 16.7439 36.856 17.1032 36.415 17.1032C36.2614 17.1032 36.1177 17.0608 35.9935 16.9824C35.6963 16.8256 35.3794 16.7047 35.0462 16.6197C34.7097 16.5348 34.3536 16.4891 33.9844 16.4891C32.792 16.4891 31.714 16.9726 30.9332 17.7533C30.1524 18.5341 29.6689 19.6155 29.6689 20.8046C29.6689 21.997 30.1524 23.0751 30.9332 23.8559C31.714 24.6367 32.7921 25.1202 33.9844 25.1202C34.3536 25.1202 34.7097 25.0744 35.0462 24.9895C35.3957 24.9013 35.7289 24.7706 36.036 24.604C36.4248 24.3949 36.9083 24.5419 37.1174 24.9274C37.1827 25.0483 37.2121 25.179 37.2121 25.3064H37.2154V32.1081H42.7333C42.7169 32.0493 42.7006 31.9872 42.6843 31.9284C42.5666 31.4612 42.5046 30.9777 42.5046 30.4811C42.5046 28.8477 43.1678 27.3677 44.236 26.2962C45.3075 25.2247 46.7875 24.5648 48.4209 24.5648C49.5121 24.5648 50.5346 24.8621 51.4167 25.3815C52.3281 25.9173 53.0795 26.6883 53.5925 27.6128C53.8081 27.9983 53.6676 28.4818 53.2821 28.6974C52.8966 28.9131 52.4131 28.7726 52.1975 28.3871C51.8218 27.7108 51.2729 27.1489 50.6065 26.7569C49.9695 26.3812 49.2214 26.1656 48.4177 26.1656C47.2252 26.1656 46.1472 26.6491 45.3664 27.4299C44.5856 28.2107 44.1021 29.2888 44.1021 30.4812C44.1021 30.8503 44.1479 31.2064 44.2328 31.5429C44.3178 31.8761 44.4386 32.193 44.5954 32.4903C44.6706 32.6144 44.7163 32.7581 44.7163 32.9117C44.7163 33.3527 44.357 33.7121 43.9159 33.7121H37.2122V39.1123C37.2711 39.0959 37.3331 39.0796 37.3919 39.0633C37.8591 38.9457 38.3426 38.8836 38.8392 38.8836C40.4726 38.8836 41.9526 39.5468 43.0241 40.615C44.0956 41.6865 44.7555 43.1665 44.7555 44.7999C44.7555 46.4334 44.0924 47.9133 43.0241 48.9848C41.9526 50.0563 40.4726 50.7163 38.8392 50.7163C38.3426 50.7163 37.8558 50.6542 37.3919 50.5366C37.3299 50.5203 37.271 50.5039 37.2122 50.4876L37.212 57.3519ZM57.3098 69.8676C57.3098 70.3086 56.9505 70.668 56.5094 70.668C56.1958 70.668 55.9279 70.4883 55.794 70.227L53.3601 66.3034C53.0432 65.7905 52.5434 65.4573 51.9913 65.3266C51.4588 65.2024 50.8806 65.271 50.3774 65.5618C50.3447 65.5846 50.3121 65.6075 50.2761 65.6239C49.7926 65.9408 49.4725 66.4275 49.3483 66.9601C49.2242 67.4926 49.2928 68.0708 49.5835 68.5739C49.6097 68.6099 49.6325 68.6458 49.6521 68.685L57.0027 80.5408C58.1494 82.5075 59.9952 83.6803 62.0632 84.1834C63.8404 84.6179 65.7809 84.5656 67.5941 84.1083C69.3974 83.6509 71.0602 82.795 72.2952 81.6189C73.5757 80.3971 74.3892 78.8257 74.3925 76.9995H74.3892L74.3958 66.0394C74.3958 65.618 74.2226 65.2357 73.9449 64.9548C73.6673 64.6771 73.2818 64.5039 72.8603 64.5039C72.4389 64.5039 72.0566 64.6771 71.7757 64.9548C71.498 65.2324 71.3248 65.6179 71.3248 66.0394V68.9143C71.3248 69.3553 70.9655 69.7147 70.5244 69.7147C70.0834 69.7147 69.7241 69.3553 69.7241 68.9143V63.4781C69.7241 63.0567 69.5509 62.6745 69.2732 62.3935C68.9955 62.1158 68.61 61.9427 68.1886 61.9427C67.7671 61.9427 67.3849 62.1158 67.104 62.3935C66.8263 62.6712 66.6531 63.0567 66.6531 63.4781V68.2185C66.6531 68.6595 66.2938 69.0188 65.8527 69.0188C65.4117 69.0188 65.0523 68.6595 65.0523 68.2185V59.7339C65.0523 59.3125 64.8792 58.9302 64.6015 58.6493C64.3238 58.3716 63.9383 58.1984 63.5169 58.1984C63.0954 58.1984 62.7132 58.3716 62.4322 58.6493C62.1546 58.9269 61.9814 59.3124 61.9814 59.7339V67.5222C61.9814 67.9632 61.622 68.3226 61.181 68.3226C60.74 68.3226 60.3806 67.9632 60.3806 67.5222V46.5814C60.3806 46.1599 60.2075 45.7777 59.9298 45.4967C59.6521 45.2191 59.2666 45.0459 58.8452 45.0459C58.4237 45.0459 58.0415 45.2191 57.7605 45.4967C57.4828 45.7744 57.3097 46.1599 57.3097 46.5814V59.5938L57.313 69.8681L57.3098 69.8676ZM15.8823 56.5516H35.6146V49.3055C35.6146 48.8645 35.974 48.5051 36.415 48.5051C36.5686 48.5051 36.7156 48.5509 36.8365 48.626C37.1337 48.7828 37.4506 48.9037 37.7838 48.9886C38.1203 49.0736 38.4764 49.1193 38.8456 49.1193C40.038 49.1193 41.116 48.6358 41.8968 47.855C42.6776 47.0743 43.1611 45.9961 43.1611 44.8038C43.1611 43.6113 42.6776 42.5333 41.8968 41.7525C41.1161 40.9717 40.0379 40.4882 38.8456 40.4882C38.4764 40.4882 38.1203 40.534 37.7838 40.6189C37.4506 40.7038 37.1337 40.8247 36.8365 40.9815C36.7123 41.0567 36.5686 41.1024 36.415 41.1024C35.974 41.1024 35.6146 40.743 35.6146 40.302V33.7159H30.1818C30.1981 33.7747 30.2144 33.8368 30.2308 33.8956C30.3484 34.3628 30.4104 34.8463 30.4104 35.3429C30.4104 36.9763 29.7473 38.4563 28.679 39.5278C27.6075 40.5993 26.1275 41.2592 24.4941 41.2592C22.8606 41.2592 21.3807 40.596 20.3092 39.5278C19.2377 38.4563 18.5777 36.9763 18.5777 35.3429C18.5777 34.8463 18.6398 34.3595 18.7574 33.8956C18.7737 33.8335 18.7901 33.7747 18.8064 33.7159H12.9325V53.6013C12.9325 54.4148 13.2658 55.1499 13.8016 55.6889C14.3308 56.2214 15.0688 56.5516 15.8823 56.5516ZM12.9291 12.2261V32.1115H19.9888C20.4299 32.1115 20.7892 32.4709 20.7892 32.9119C20.7892 33.0655 20.7468 33.2092 20.6684 33.3334C20.5115 33.6306 20.3907 33.9475 20.3057 34.2807C20.2208 34.6172 20.1751 34.9733 20.1751 35.3425C20.1751 36.5349 20.6585 37.6129 21.4393 38.3937C22.2201 39.1745 23.2982 39.658 24.4906 39.658C25.6829 39.658 26.7611 39.1745 27.5419 38.3937C28.3226 37.6129 28.8061 36.5348 28.8061 35.3425C28.8061 34.9733 28.7604 34.6172 28.6755 34.2807C28.5905 33.9475 28.4696 33.6306 28.3128 33.3334C28.2377 33.2092 28.192 33.0655 28.192 32.9119C28.192 32.4709 28.5513 32.1115 28.9923 32.1115H35.6111V26.4958C35.5523 26.5121 35.4903 26.5284 35.4315 26.5448C34.9643 26.6624 34.4808 26.7244 33.9842 26.7244C32.3508 26.7244 30.8708 26.0612 29.7993 24.993C28.7278 23.9215 28.0678 22.4415 28.0678 20.8081C28.0678 19.1746 28.731 17.6947 29.7993 16.6232C30.8708 15.5517 32.3508 14.8917 33.9842 14.8917C34.4808 14.8917 34.9675 14.9538 35.4315 15.0714C35.4935 15.0877 35.5523 15.1041 35.6111 15.1204L35.6144 9.27262H15.8821C15.0686 9.27262 14.3335 9.60585 13.7978 10.1417C13.2587 10.6774 12.9291 11.4159 12.9291 12.2261ZM47.0128 51.1807C46.8919 51.1055 46.7449 51.0598 46.5914 51.0598C46.1503 51.0598 45.791 51.4191 45.791 51.8602V59.5897C45.791 60.0307 46.1503 60.3901 46.5914 60.3901H55.7123V67.0611L54.7225 65.4603C54.1704 64.5685 53.3079 63.987 52.3605 63.7648C51.4164 63.5427 50.384 63.6799 49.4954 64.232L49.4889 64.2353C48.6003 64.7874 48.0188 65.6498 47.7999 66.594C47.5778 67.5381 47.715 68.5705 48.2671 69.4591L55.6307 81.3341C57.0158 83.7124 59.2276 85.1237 61.6974 85.7281C63.7326 86.2279 65.941 86.1691 67.9926 85.6529C70.054 85.1335 71.9685 84.1404 73.406 82.7715C74.9904 81.2622 75.9934 79.2989 75.9966 76.9957H75.9999L75.9966 66.0381C75.9966 65.1757 75.6438 64.3915 75.0753 63.8232C74.5069 63.2548 73.7228 62.9019 72.8604 62.9019C72.3018 62.9019 71.7758 63.0489 71.3217 63.307C71.2793 62.5098 70.9362 61.7879 70.4037 61.2586C69.8353 60.6902 69.0512 60.3373 68.1888 60.3373C67.6334 60.3373 67.1074 60.4844 66.6533 60.7392V60.3341C67.9471 60.1577 69.1068 59.5533 69.9889 58.6712C71.0473 57.6095 71.7073 56.1492 71.7073 54.5386L71.704 35.1232C71.704 34.6822 71.3447 34.3228 70.9036 34.3228H64.4613L64.4809 34.2411C64.5985 33.774 64.6606 33.2905 64.6606 32.7939C64.6606 31.1604 63.9974 29.6805 62.9291 28.609C61.8576 27.5375 60.3777 26.8775 58.7442 26.8775C57.1108 26.8775 55.6308 27.5407 54.5593 28.609C53.4878 29.6805 52.8279 31.1604 52.8279 32.7939C52.8279 33.2904 52.8899 33.7772 53.0075 34.2411L53.0271 34.3228H46.5848C46.1438 34.3228 45.7844 34.6822 45.7844 35.1232V42.8527C45.7844 43.2937 46.1438 43.6531 46.5848 43.6531C46.7384 43.6531 46.8854 43.6106 47.0063 43.5322C47.3035 43.3754 47.6204 43.2545 47.9537 43.1696C48.2901 43.0847 48.6462 43.0389 49.0154 43.0389C50.2078 43.0389 51.2858 43.5224 52.0666 44.3032C52.8474 45.084 53.3309 46.1621 53.3309 47.3545C53.3309 48.5468 52.8474 49.6249 52.0666 50.4057C51.2858 51.1865 50.2077 51.67 49.0154 51.67C48.6462 51.67 48.2901 51.6243 47.9537 51.5393C47.627 51.4609 47.3068 51.3375 47.0128 51.1807ZM66.4934 58.7468C67.4082 58.6064 68.2281 58.1751 68.8553 57.5479C69.6263 56.7769 70.1033 55.7152 70.1033 54.5489V35.9239H63.6316C63.4029 36.048 63.1154 36.0611 62.8704 35.9271C62.4816 35.718 62.3379 35.2345 62.5469 34.8457L62.5698 34.8033C62.5829 34.7739 62.5992 34.7445 62.6155 34.7183C62.7527 34.4472 62.8573 34.1564 62.9357 33.8559C63.0206 33.5194 63.0664 33.1633 63.0664 32.7942C63.0664 31.6018 62.5829 30.5237 61.8021 29.7429C61.0213 28.9621 59.9432 28.4787 58.7508 28.4787C57.5585 28.4787 56.4804 28.9622 55.6996 29.7429C54.9188 30.5237 54.4353 31.6018 54.4353 32.7942C54.4353 33.1634 54.481 33.5195 54.566 33.8559C54.6411 34.1565 54.7489 34.4472 54.8861 34.7183C54.9025 34.7477 54.9188 34.7739 54.9319 34.8033L54.9547 34.8457C55.1638 35.2345 55.0168 35.718 54.6313 35.9271C54.383 36.0611 54.0988 36.048 53.8701 35.9239H47.3886V41.6704C47.4474 41.654 47.5094 41.6377 47.5682 41.6213C48.0354 41.5037 48.5189 41.4417 49.0155 41.4417C50.6489 41.4417 52.1289 42.1049 53.2004 43.1731C54.2719 44.2446 54.9319 45.7246 54.9319 47.358C54.9319 48.9915 54.2687 50.4714 53.2004 51.5429C52.1289 52.6144 50.6489 53.2744 49.0155 53.2744C48.5189 53.2744 48.0322 53.2123 47.5682 53.0947C47.5062 53.0784 47.4474 53.062 47.3886 53.0457V58.7922H55.7094V46.5776C55.7094 45.7152 56.0622 44.9311 56.6307 44.3627C57.1991 43.7942 57.9832 43.4414 58.8456 43.4414C59.708 43.4414 60.4922 43.7942 61.0605 44.3627C61.629 44.9311 61.9818 45.7152 61.9818 46.5776V56.9958C62.4359 56.7377 62.9587 56.5939 63.5172 56.5939C64.3797 56.5939 65.1638 56.9468 65.7322 57.5152C66.0752 57.8583 66.3366 58.2764 66.4934 58.7468Z" fill="black"/>
</svg>
