<svg width="88" height="88" viewBox="0 0 88 88" fill="none" xmlns="http://www.w3.org/2000/svg">
<rect width="88" height="88" fill="white"/>
<path d="M54 65.5001L56 63.0001C56 62.2002 53.3333 60.3334 52 59.5H43H38H35L33.5 61.5001C33 61.1668 32 61.0001 32 63.0001C32 65.0001 36.6667 67.8334 39 69.0001H47L54 65.5001Z" fill="#DD0004"/>
<circle cx="44.5" cy="51.5" r="4.5" fill="#DD0004"/>
<path fill-rule="evenodd" clip-rule="evenodd" d="M44.0012 39.4189C48.2893 39.4189 52.1713 41.155 54.9807 43.9676C57.7898 46.7766 59.5293 50.6585 59.5293 54.9471C59.5293 59.2353 57.7932 63.1172 54.9807 65.9266C52.1716 68.7357 48.2898 70.4752 44.0012 70.4752C39.7126 70.4752 35.831 68.7392 33.0216 65.9266C30.2126 63.1176 28.473 59.2357 28.473 54.9471C28.473 50.6589 30.2091 46.777 33.0216 43.9676C35.8307 41.1585 39.7126 39.4189 44.0012 39.4189ZM38.2269 31.5926L37.6574 31.7488C36.6817 32.0162 35.7269 32.3426 34.7998 32.7245H34.7964C33.8623 33.11 32.9561 33.5544 32.0845 34.0544L31.5707 34.3461L26.845 31.9155C26.4839 31.728 26.0533 31.8079 25.779 32.0822L25.7756 32.0787L21.1332 36.7211C20.8276 37.0266 20.7825 37.4919 20.9977 37.8426L23.4005 42.5127L23.1088 43.0266C22.6123 43.8912 22.1679 44.8009 21.779 45.7419C21.397 46.6655 21.0672 47.6204 20.8032 48.5995L20.647 49.1689L15.5845 50.7904C15.1956 50.9154 14.9491 51.2731 14.9491 51.6585H14.9456V58.2244C14.9456 58.6584 15.2477 59.023 15.654 59.1168L20.6436 60.7175L20.7998 61.2869C21.0672 62.2626 21.3936 63.2175 21.7755 64.1445C22.1644 65.0855 22.6089 65.9917 23.1054 66.8598L23.3971 67.3737L20.9665 72.0994C20.779 72.4605 20.8589 72.891 21.1332 73.1653L21.1297 73.1688L25.7721 77.8112C26.0776 78.1167 26.5429 78.1619 26.8936 77.9466L31.5637 75.5438L32.0776 75.8355C32.9422 76.332 33.8519 76.7765 34.7929 77.1654C35.7165 77.5473 36.6714 77.8772 37.6505 78.1411L38.2199 78.2973L39.8414 83.3598C39.9664 83.7487 40.3241 83.9952 40.7095 83.9952V83.9987H47.2754C47.7094 83.9987 48.074 83.6966 48.1678 83.2904L49.7685 78.3008L50.3379 78.1445C51.3137 77.8772 52.2685 77.5508 53.1955 77.1688C54.1365 76.7799 55.0462 76.3355 55.9108 75.8389L56.4247 75.5473L61.1504 77.9778C61.5115 78.1654 61.942 78.0855 62.2163 77.8112L62.2198 77.8147L66.8622 73.1723C67.1677 72.8667 67.2129 72.4014 66.9976 72.0508L64.5948 67.3806L64.8865 66.8667C65.383 66.0022 65.8275 65.0924 66.2164 64.1515C66.5983 63.2278 66.9282 62.273 67.1921 61.2939L67.3483 60.7244L72.4108 59.1029C72.7997 58.9779 73.0462 58.6203 73.0462 58.2349H73.0497V51.6689C73.0497 51.2349 72.7476 50.8703 72.3414 50.7766L67.3518 49.1759L67.1955 48.6064C66.9282 47.6307 66.6018 46.6758 66.2198 45.7488V45.7453C65.8344 44.8113 65.3899 43.9051 64.8899 43.0335L64.5983 42.5196L67.0289 37.794C67.2164 37.4329 67.1365 37.0023 66.8622 36.728L66.8657 36.7245L62.2233 32.0821C61.9177 31.7766 61.4524 31.7315 61.1018 31.9467L56.4316 34.3495L55.9178 34.0578C55.0532 33.5613 54.1434 33.1168 53.2025 32.728C52.2788 32.346 51.324 32.0162 50.3449 31.7522L49.7754 31.596L48.1539 26.5335C48.0289 26.1446 47.6713 25.8981 47.2859 25.8981V25.8946H40.7199C40.2859 25.8946 39.9213 26.1967 39.8276 26.603L38.2269 31.5926ZM41.3866 27.7245L39.8172 32.6203C39.7165 32.9397 39.4526 33.162 39.147 33.2314L38.1401 33.5057C37.2443 33.7488 36.3658 34.0508 35.5012 34.4085C34.6435 34.7626 33.8102 35.1758 32.9977 35.6376L32.0567 36.1758C31.7616 36.3459 31.4109 36.3321 31.1366 36.1689L26.6087 33.839L22.9073 37.5404L25.258 42.1133C25.4038 42.398 25.3865 42.7244 25.2406 42.9848L24.7024 43.9293C24.2337 44.7487 23.824 45.5821 23.4733 46.4293C23.1157 47.2938 22.8136 48.1757 22.5671 49.0717L22.2823 50.1203C22.199 50.4293 21.9664 50.6585 21.6817 50.7487L16.7858 52.3182V57.5542L21.6817 59.1237C22.0011 59.2244 22.2233 59.4883 22.2928 59.7938L22.5671 60.8007C22.8101 61.6966 23.1122 62.5785 23.4733 63.4431C23.824 64.2903 24.2337 65.1237 24.7024 65.9431L25.2406 66.8876C25.4108 67.1827 25.3969 67.5334 25.2337 67.8077L22.9038 72.3356L26.6052 76.037L31.1781 73.6863C31.4628 73.5405 31.7892 73.5578 32.0496 73.7037L32.9906 74.2419C33.8101 74.7106 34.6434 75.1203 35.4906 75.471C36.3552 75.8287 37.2371 76.1307 38.133 76.3772L39.1816 76.662C39.4907 76.7453 39.7198 76.9779 39.8101 77.2626L41.3795 82.1585H46.6156L48.185 77.2626C48.2857 76.9432 48.5496 76.721 48.8552 76.6515L49.8621 76.3772C50.7579 76.1342 51.6399 75.8321 52.5045 75.471C53.3517 75.1203 54.1885 74.7106 55.0045 74.2419L55.9455 73.7037C56.2406 73.5335 56.5913 73.5474 56.8656 73.7106L61.3935 76.0405L65.0949 72.3391L62.7442 67.7662C62.5984 67.4815 62.6157 67.1551 62.7616 66.8947L63.2998 65.9502C63.7685 65.1308 64.1782 64.2974 64.5289 63.4502C64.8865 62.5856 65.1886 61.7037 65.4351 60.8078L65.7199 59.7592C65.8032 59.4502 66.0358 59.221 66.3205 59.1307L71.2164 57.5613V52.3252L66.3205 50.7558C66.0011 50.6551 65.7789 50.3912 65.7094 50.0857L65.4351 49.0787C65.1921 48.1829 64.89 47.3044 64.5324 46.4398C64.1782 45.5856 63.7685 44.7489 63.3032 43.9364L62.765 42.9919C62.5949 42.6968 62.6088 42.3461 62.772 42.0717L65.1018 37.5439L61.4004 33.8425L56.8275 36.1932C56.5428 36.339 56.2164 36.3216 55.956 36.1758L55.015 35.6376C54.1956 35.1689 53.3622 34.7591 52.515 34.4085C51.6505 34.0508 50.7686 33.7487 49.8727 33.5022L48.824 33.2175C48.515 33.1342 48.2858 32.9015 48.1956 32.6168L46.6261 27.721H41.3901L41.3866 27.7245ZM46.5949 48.6133C45.9317 47.9501 45.0186 47.5404 44.0046 47.5404C42.9942 47.5404 42.0775 47.9502 41.4143 48.6133C40.7511 49.2765 40.3414 50.1897 40.3414 51.2036C40.3414 52.214 40.7512 53.1307 41.4143 53.7939C42.0775 54.4571 42.9907 54.8668 44.0046 54.8668C45.015 54.8668 45.9317 54.4571 46.5949 53.7939C47.2581 53.1308 47.6678 52.2176 47.6678 51.2036C47.6678 50.1932 47.2581 49.2765 46.5949 48.6133ZM44.0046 45.7106C42.4873 45.7106 41.1157 46.3252 40.1192 47.3182C39.1262 48.3113 38.5116 49.6863 38.5116 51.2036C38.5116 52.721 39.1262 54.0925 40.1192 55.0891C41.1123 56.0821 42.4873 56.6967 44.0046 56.6967C45.522 56.6967 46.8935 56.0821 47.89 55.0891C48.8831 54.096 49.4977 52.721 49.4977 51.2036C49.4977 49.6863 48.8831 48.3148 47.89 47.3182C46.897 46.3252 45.522 45.7106 44.0046 45.7106ZM54.8411 63.3185C54.5424 62.6276 54.0772 61.9679 53.5077 61.4713C52.9452 60.9818 52.289 60.6658 51.6015 60.6658H36.4104C35.7403 60.6658 35.1014 60.9852 34.5493 61.4713C33.9798 61.9748 33.5111 62.6519 33.2021 63.3602C33.5493 63.8082 33.9243 64.2318 34.3236 64.6311C36.8028 67.1103 40.2263 68.6415 44.008 68.6415C47.7892 68.6415 51.2129 67.1102 53.6924 64.6311C54.1056 64.2179 54.4876 63.7838 54.8452 63.322L54.8411 63.3185ZM32.0527 61.6345C32.4103 61.0651 32.8443 60.5408 33.3374 60.1033C34.2054 59.3324 35.261 58.8324 36.4068 58.8324H51.5979C52.7645 58.8324 53.8305 59.3289 54.7055 60.0894C55.1951 60.5165 55.6257 61.0304 55.9798 61.5859C57.0736 59.6172 57.6951 57.3533 57.6951 54.9435C57.6951 51.1623 56.1638 47.7387 53.6847 45.2591C51.2055 42.7799 47.782 41.2487 44.0003 41.2487C40.2186 41.2487 36.7954 42.78 34.3159 45.2591C31.8367 47.7383 30.3055 51.1619 30.3055 54.9435C30.3055 57.3741 30.9374 59.6554 32.0485 61.631L32.0527 61.6345ZM45.834 10.9502L44.0041 7.05785L42.209 10.8808C42.0944 11.1933 41.8132 11.4294 41.459 11.471L37.1986 12.0058L40.3062 14.9224C40.5458 15.1307 40.6673 15.4536 40.6048 15.7835L39.7958 20.0057L43.5527 17.9363C43.8201 17.787 44.1534 17.7731 44.4416 17.9328L48.209 20.0057L47.4 15.7835C47.3444 15.4849 47.4347 15.1689 47.6708 14.9467L50.8062 12.0057L46.5457 11.471V11.4675C46.2437 11.4293 45.9694 11.2418 45.8305 10.9467L45.834 10.9502ZM44.8305 4.52656L47.268 9.71749L52.9624 10.4328C53.4659 10.4953 53.8235 10.9501 53.761 11.4536C53.7332 11.6966 53.6082 11.905 53.4346 12.0473L49.2888 15.9362L50.3686 21.5751C50.4623 22.0716 50.1394 22.5509 49.6429 22.6445C49.4241 22.6862 49.2123 22.648 49.0318 22.5473L44.0005 19.78L38.9692 22.5473C38.5282 22.7904 37.9727 22.6272 37.7262 22.1862C37.6186 21.9918 37.5908 21.7765 37.629 21.5751L38.7088 15.9362L34.5213 12.0091C34.1533 11.6619 34.1359 11.0854 34.4831 10.7174C34.6359 10.5542 34.8338 10.4605 35.0387 10.4362V10.4327L40.7331 9.71743L43.1706 4.5265C43.3824 4.06818 43.9275 3.87372 44.3824 4.08554C44.5838 4.17929 44.7366 4.33901 44.8234 4.5265L44.8305 4.52656ZM14.1879 22.5443C14.4934 22.6519 14.8164 22.5894 15.0559 22.4054L15.0594 22.4089L18.4552 19.7735L18.3163 24.0721C18.3059 24.4124 18.483 24.7145 18.7504 24.8776L22.2746 27.27L18.1427 28.4679C17.8267 28.5582 17.6011 28.8048 17.5177 29.0999L16.3232 33.2249L13.9065 29.6659C13.726 29.3985 13.4239 29.2561 13.1218 29.2665L8.82325 29.402L11.4622 26.0061C11.6775 25.7284 11.7087 25.3603 11.5698 25.0617L10.1358 21.086L14.1844 22.5477L14.1879 22.5443ZM8.93092 18.7075L14.3302 20.6554L18.8649 17.1312C19.2643 16.8221 19.8407 16.8916 20.1497 17.2909C20.3024 17.4853 20.3615 17.7214 20.3372 17.9506L20.1566 23.6242L24.9066 26.8499C25.3233 27.1311 25.4344 27.7006 25.1497 28.1173C25.0247 28.3013 24.8441 28.4263 24.6497 28.4818L19.1358 30.0826L17.5386 35.5964C17.3997 36.0825 16.8928 36.3603 16.4067 36.2179C16.181 36.152 16.0039 36.0096 15.8859 35.8256L12.681 31.1034L6.94143 31.2874C6.43796 31.3048 6.01779 30.9089 6.00046 30.4054C5.99351 30.1832 6.06643 29.9784 6.19142 29.8186L6.18795 29.8152L9.71221 25.2804L7.7643 19.8811C7.59416 19.4054 7.84069 18.8846 8.31638 18.7145C8.52472 18.6416 8.73999 18.645 8.93097 18.7145L8.93092 18.7075ZM76.4028 25.1311C76.2952 25.4367 76.3577 25.7596 76.5417 25.9992L76.5382 26.0027L79.1771 29.3985L74.8786 29.2596C74.5383 29.2492 74.2362 29.4263 74.073 29.6936L71.6807 33.2179L70.4827 29.086C70.3924 28.77 70.1459 28.5443 69.8508 28.461L65.7258 27.2665L69.2848 24.8498C69.5522 24.6692 69.6945 24.3672 69.6841 24.0651L69.5452 19.7665L72.941 22.4019C73.2188 22.6172 73.5869 22.6484 73.8855 22.5095L77.8612 21.0755L76.3994 25.1241L76.4028 25.1311ZM80.2396 19.8742L78.2917 25.2735L81.8159 29.8082C82.125 30.2075 82.0555 30.7839 81.6562 31.0929C81.4618 31.2457 81.2257 31.3047 80.9965 31.2804L75.3229 31.0999L72.0972 35.8499C71.816 36.2666 71.2465 36.3777 70.8298 36.093C70.6458 35.968 70.5208 35.7874 70.4653 35.593L68.868 30.0791L63.3542 28.4819C62.868 28.343 62.5903 27.836 62.7326 27.35C62.7986 27.1243 62.941 26.9472 63.125 26.8291L67.8472 23.6242L67.6632 17.8847C67.6458 17.3812 68.0416 16.961 68.5451 16.9437C68.7673 16.9368 68.9722 17.0097 69.1319 17.1347L69.1354 17.1312L73.6702 20.6555L79.0694 18.7076C79.5451 18.5374 80.066 18.784 80.2361 19.2596C80.3125 19.468 80.3055 19.6833 80.2361 19.8742L80.2396 19.8742Z" fill="black"/>
</svg>
