<svg width="88" height="88" viewBox="0 0 88 88" fill="none" xmlns="http://www.w3.org/2000/svg">
<rect width="88" height="88" fill="white"/>
<path d="M43.7213 36.4407L34.4277 35.894V45.1876V51.2011H42.628H48.0948H54.655L53.5616 35.894H49.7348L43.7213 36.4407Z" fill="#DD0004"/>
<path d="M44.2384 69.2478C30.1914 69.2478 18.7681 57.8244 18.7681 43.7774C18.7681 29.7305 30.1914 18.3071 44.2384 18.3071C58.2853 18.3071 69.7221 29.7305 69.7221 43.7774C69.7221 57.8244 58.2853 69.2478 44.2384 69.2478ZM44.2384 20.8388C31.5876 20.8388 21.3006 31.1258 21.3006 43.7766C21.3006 56.4274 31.5876 66.7144 44.2384 66.7144C56.8892 66.7144 67.1896 56.4274 67.1896 43.7766C67.1896 31.1258 56.8892 20.8388 44.2384 20.8388Z" fill="black"/>
<path d="M44.239 69.2478C38.077 69.2478 33.2593 58.0592 33.2593 43.7774C33.2593 29.4957 38.0897 18.3071 44.239 18.3071C50.3883 18.3071 55.2312 29.4957 55.2312 43.7774C55.2312 58.0592 50.4009 69.2478 44.239 69.2478ZM44.239 20.8388C40.2441 20.8388 35.7926 30.2644 35.7926 43.7766C35.7926 57.2888 40.2444 66.7144 44.239 66.7144C48.2336 66.7144 52.6854 57.2888 52.6854 43.7766C52.6854 30.2644 48.2466 20.8388 44.239 20.8388Z" fill="black"/>
<path d="M44.2389 38.15C35.1266 38.15 26.9534 36.2048 22.3973 32.954C21.8228 32.5493 21.6923 31.7529 22.097 31.1915C22.5017 30.6171 23.2981 30.4865 23.8595 30.8912C27.9457 33.8026 35.7524 35.6172 44.2255 35.6172C52.7245 35.6172 60.5317 33.8025 64.5916 30.8912C65.153 30.4865 65.9493 30.6171 66.3541 31.1785C66.7588 31.7529 66.6282 32.5362 66.0668 32.9409C61.5367 36.2047 53.3771 38.15 44.2389 38.15Z" fill="black"/>
<path d="M23.1416 56.8975C22.7499 56.8975 22.3583 56.7148 22.1102 56.3623C21.7055 55.7878 21.836 55.0045 22.4105 54.5998C26.9667 51.3491 35.1389 49.4038 44.2521 49.4038C53.3911 49.4038 61.5501 51.349 66.0937 54.5998C66.6681 55.0045 66.7986 55.8009 66.3809 56.3623C65.9762 56.9367 65.1798 57.0542 64.6184 56.6495C60.5452 53.7382 52.7514 51.9236 44.2524 51.9236C35.7792 51.9236 27.9729 53.7382 23.8863 56.6495C23.6513 56.8323 23.3896 56.8975 23.1416 56.8975Z" fill="black"/>
<path d="M44.2385 69.2468C43.5335 69.2468 42.9722 68.6854 42.9722 67.9805V19.5715C42.9722 18.8665 43.5335 18.3052 44.2385 18.3052C44.9435 18.3052 45.5048 18.8666 45.5048 19.5715V67.9805C45.5048 68.6855 44.9435 69.2468 44.2385 69.2468Z" fill="black"/>
<path d="M79.9443 43.7767C79.2393 43.7767 78.678 43.2154 78.678 42.5104C78.678 21.5703 61.6407 4.53304 40.6873 4.53304C28.5462 4.53304 17.0576 10.3948 9.9297 20.2251C9.52498 20.7865 8.72862 20.9171 8.16723 20.5124C7.60584 20.1076 7.47531 19.3113 7.88002 18.7499C15.4782 8.25395 27.7372 2 40.688 2C63.025 2 81.2112 20.1728 81.2112 42.5099C81.2112 43.2018 80.6362 43.7767 79.9443 43.7767Z" fill="black"/>
<path d="M8.8848 20.7479C8.57148 20.7479 8.2712 20.6304 8.03624 20.4215C7.77513 20.1865 7.63152 19.8601 7.61847 19.5076L7.27904 5.09472C7.26598 4.38974 7.81429 3.81535 8.5193 3.80223C9.17206 3.73696 9.79866 4.33749 9.81178 5.02946L10.1251 18.1105L23.1669 17.0269C23.8719 16.9617 24.4724 17.4839 24.5377 18.1888C24.5899 18.8807 24.0807 19.4943 23.3758 19.5596L8.98878 20.7476L8.8848 20.7479Z" fill="black"/>
<path d="M46.5232 83.0332C24.1728 83.0332 6 64.8604 6 42.51C6 41.805 6.56138 41.2437 7.26633 41.2437C7.97128 41.2437 8.53266 41.805 8.53266 42.51C8.53266 63.4634 25.57 80.5007 46.5234 80.5007C56.5364 80.5007 65.9888 76.6364 73.1426 69.6255C73.6387 69.1424 74.4481 69.1294 74.9311 69.6255C75.4272 70.1216 75.4272 70.9048 74.9311 71.401C67.2939 78.9077 57.2155 83.0332 46.5232 83.0332Z" fill="black"/>
<path d="M70.6625 85.5532C70.5581 85.5532 70.4667 85.5401 70.3623 85.514C69.6834 85.3443 69.2656 84.6655 69.4353 83.9866L72.5555 71.284L59.6959 68.9211C59.004 68.7905 58.547 68.1377 58.6775 67.4458C58.808 66.7539 59.4608 66.31 60.1527 66.4275L74.3434 69.0385C74.6828 69.1038 74.9831 69.2996 75.1789 69.5999C75.3617 69.8871 75.427 70.2527 75.3486 70.5921L71.9151 84.6006C71.7454 85.162 71.2239 85.5532 70.6625 85.5532Z" fill="black"/>
</svg>
