<svg width="91" height="78" viewBox="0 0 91 78" fill="none" xmlns="http://www.w3.org/2000/svg">
<path d="M55.5 55.5V60.5V62.5H59L60 66L58 68.5L62.5 73L65.5 71L68.5 73L69 75.5L75 76L75.5 72L78.5 71L81.5 73L86.5 68.5L84 65L85 62.5H88.5V55.5L85 55L84 52.5L86.5 49.5L81.5 44.5L78.5 47L75.5 46V42.5H68.5V46L65.5 47L63 44.5L58 49.5L60 52.5L59 55.5H55.5Z" fill="#DD0004"/>
<path fill-rule="evenodd" clip-rule="evenodd" d="M9.88977 16.4552C11.5889 16.4552 13.1357 15.8045 14.2958 14.7345L14.3036 14.7266C14.37 14.6639 14.4364 14.6051 14.4989 14.5385C15.6786 13.3547 16.409 11.7202 16.409 9.91323C16.409 8.10623 15.6786 6.47173 14.4989 5.28797C14.2841 5.07239 14.0536 4.86856 13.8075 4.68434L13.7997 4.6765C12.71 3.85728 11.3584 3.37122 9.88967 3.37122C8.08894 3.37122 6.4601 4.1042 5.28045 5.28799C4.1008 6.47175 3.37033 8.10626 3.37033 9.91326C3.37033 11.7203 4.10077 13.3548 5.28045 14.5385C6.4601 15.7223 8.08904 16.4552 9.88977 16.4552ZM14.8935 2.54447H38.0375C38.3422 2.54447 38.643 2.66206 38.8735 2.89332L44.7912 8.83169C45.2521 9.29422 45.2521 10.0468 44.7912 10.5133L38.8813 16.4438C38.6664 16.6633 38.3657 16.8005 38.0336 16.8005H15.5385C14.0034 18.0705 12.0348 18.8348 9.88645 18.8348C7.43344 18.8348 5.21083 17.8353 3.6015 16.2242C1.99216 14.6093 1 12.3829 1 9.91739C1 7.45584 1.99605 5.22549 3.6015 3.61056C5.21083 1.99562 7.42944 1 9.88645 1C11.7419 1 13.4644 1.57227 14.8901 2.54831L14.8935 2.54447ZM17.5614 14.4212H37.5446L42.2788 9.67051L37.5446 4.91982H17.2524C18.2133 6.34661 18.7757 8.0634 18.7757 9.91354C18.7757 11.5559 18.3343 13.0964 17.557 14.4212H17.5614ZM9.88977 44.1913C11.5889 44.1913 13.1357 43.5407 14.2958 42.4706L14.3036 42.4628C14.37 42.4001 14.4364 42.3413 14.4989 42.2746C15.6786 41.0909 16.409 39.4564 16.409 37.6494C16.409 35.8424 15.6786 34.2079 14.4989 33.0241C14.2841 32.8085 14.0536 32.6047 13.8075 32.4205L13.7997 32.4126C12.71 31.5934 11.3584 31.1074 9.88967 31.1074C8.08894 31.1074 6.4601 31.8403 5.28045 33.0241C4.1008 34.2079 3.37033 35.8424 3.37033 37.6494C3.37033 39.4564 4.10077 41.0909 5.28045 42.2747C6.4601 43.4584 8.08904 44.1913 9.88977 44.1913ZM14.8935 30.2806H49.4191C49.7238 30.2806 50.0245 30.3982 50.255 30.6295L56.1728 36.5678C56.6337 37.0304 56.6337 37.7829 56.1728 38.2494L50.2628 44.1799C50.048 44.3994 49.7472 44.5366 49.4152 44.5366L15.5415 44.5288C14.0064 45.7988 12.0378 46.5631 9.88945 46.5631C7.43644 46.5631 5.21383 45.5636 3.6045 43.9525C1.99516 42.3376 1.003 40.1112 1.003 37.6457C1.003 35.1841 1.99905 32.9538 3.6045 31.3389C5.21383 29.7239 7.43244 28.7283 9.88945 28.7283C11.7449 28.7283 13.4674 29.3006 14.8931 30.2766L14.8935 30.2806ZM17.5614 42.1573H48.9311L53.6653 37.4067L48.9311 32.656H17.2564C18.2173 34.0827 18.7797 35.7995 18.7797 37.6497C18.7797 39.292 18.3387 40.8325 17.5614 42.1573ZM9.88977 71.9275C11.5889 71.9275 13.1357 71.2768 14.2958 70.2068L14.3036 70.1989C14.37 70.1362 14.4364 70.0774 14.4989 70.0108C15.6786 68.827 16.409 67.1925 16.409 65.3855C16.409 63.5785 15.6786 61.944 14.4989 60.7602C14.2841 60.5447 14.0536 60.3408 13.8075 60.1566L13.7997 60.1488C12.71 59.3296 11.3584 58.8435 9.88967 58.8435C8.08894 58.8435 6.4601 59.5765 5.28045 60.7603C4.1008 61.944 3.37033 63.5785 3.37033 65.3855C3.37033 67.1925 4.10077 68.827 5.28045 70.0108C6.4601 71.1946 8.08904 71.9275 9.88977 71.9275ZM74.5282 43.2039H69.419V45.8106C69.419 46.328 69.0792 46.8023 68.5597 46.9512C68.1026 47.0845 67.6612 47.2373 67.2355 47.4137C66.8215 47.5862 66.423 47.7782 66.048 47.9821C65.5871 48.2878 64.9622 48.2408 64.5559 47.8331L62.7162 45.987L59.103 49.6127L60.9428 51.4589L60.9389 51.4628C61.3021 51.8273 61.3998 52.4035 61.1342 52.8738C60.9115 53.2736 60.7084 53.7009 60.5209 54.1477C60.3529 54.5593 60.2006 54.9865 60.0756 55.4255C59.9506 55.9507 59.4819 56.3388 58.9234 56.3388H56.3258V61.4658H58.9234C59.439 61.4658 59.9116 61.8068 60.06 62.3281C60.1928 62.7867 60.3452 63.2296 60.5209 63.6568C60.6928 64.0723 60.8842 64.4721 61.0873 64.8484C61.392 65.311 61.3451 65.9381 60.9389 66.3458L59.0992 68.1919L62.7123 71.8176L64.552 69.9715L64.5559 69.9754C64.9192 69.6109 65.4934 69.5129 65.9621 69.7794C66.3605 70.0029 66.7863 70.2067 67.2315 70.3948C67.6417 70.5634 68.0674 70.7162 68.5049 70.8417C69.0283 70.9671 69.415 71.4375 69.415 71.9979V74.6046H74.5242V71.9979C74.5242 71.4805 74.864 71.0063 75.3835 70.8573C75.8406 70.7241 76.282 70.5712 76.7077 70.3948C77.1217 70.2223 77.5202 70.0303 77.8951 69.8264C78.3561 69.5207 78.981 69.5677 79.3873 69.9754L81.227 71.8215L84.8402 68.1958L83.0005 66.3497L83.0044 66.3457C82.6411 65.9812 82.5434 65.405 82.8091 64.9347C83.0317 64.5349 83.2348 64.1076 83.4223 63.6608C83.5903 63.2493 83.7426 62.822 83.8676 62.3831C83.9926 61.8578 84.4613 61.4698 85.0199 61.4698H87.6175V56.3428H85.0199C84.5043 56.3428 84.0316 56.0018 83.8832 55.4804C83.7504 55.0218 83.598 54.5789 83.4223 54.1517C83.2504 53.7362 83.059 53.3364 82.8559 52.9601C82.5512 52.4976 82.5981 51.8704 83.0043 51.4627L84.844 49.6166L81.2309 45.9909L79.3912 47.837L79.3873 47.8331C79.024 48.1976 78.4498 48.2956 77.9811 48.0291C77.5827 47.8056 77.1569 47.6018 76.7117 47.4137C76.3015 47.2451 75.8758 47.0923 75.4383 46.9668C74.9149 46.8414 74.5282 46.3711 74.5282 45.8106L74.5282 43.2039ZM57.4429 69.8935L17.5575 69.8896C18.3309 68.5686 18.7762 67.0282 18.7762 65.3819C18.7762 63.5318 18.2137 61.8111 17.2529 60.3882H53.9544V61.7483C53.9544 62.2736 54.1497 62.7557 54.4778 63.1281C54.5052 63.1633 54.5364 63.1986 54.5677 63.23C54.9466 63.6102 55.4661 63.8454 56.0442 63.8454H58.0636C58.1496 64.0884 58.2433 64.3314 58.341 64.5705C58.4386 64.8096 58.5441 65.0448 58.6574 65.28L57.2277 66.7146C56.8215 67.1223 56.6184 67.6593 56.6184 68.1963C56.6184 68.7333 56.8215 69.2703 57.2277 69.678L57.4429 69.8935ZM69.1374 40.8288H74.8091C75.3794 40.8288 75.9028 41.064 76.2817 41.4442L76.2856 41.4403C76.6645 41.8205 76.8989 42.3418 76.8989 42.9219V44.9484C77.1411 45.0346 77.3832 45.1287 77.6215 45.2267C77.8598 45.3247 78.0942 45.4305 78.3324 45.5442L79.7621 44.1096C80.1683 43.7019 80.7034 43.4981 81.2386 43.4981C81.7738 43.4981 82.3089 43.7019 82.7152 44.1096L86.7267 48.1351C87.1329 48.5427 87.3361 49.0797 87.3361 49.6168C87.3361 50.1538 87.1329 50.6907 86.7267 51.0984L85.2971 52.5331C85.4103 52.7682 85.5158 53.0073 85.6134 53.2425C85.7111 53.4816 85.8049 53.7247 85.8908 53.9677H87.9102C88.4805 53.9677 89 54.2028 89.3828 54.5831L89.3906 54.5909C89.7656 54.9711 90 55.4924 90 56.0648V61.7562C90 62.3284 89.7656 62.8497 89.3867 63.2339L89.3789 63.2418C89 63.6181 88.4805 63.8533 87.9102 63.8533H85.8908C85.8048 64.0963 85.7111 64.3393 85.6134 64.5784C85.5158 64.8175 85.4103 65.0527 85.297 65.2879L86.7267 66.7225C87.1329 67.1301 87.336 67.6671 87.336 68.2042C87.336 68.7373 87.1329 69.2703 86.7267 69.6819L86.7228 69.6859L86.7267 69.6898L82.7151 73.7153C82.3089 74.1229 81.7738 74.3268 81.2386 74.3268V74.3228C80.7035 74.3228 80.1722 74.119 79.766 73.7153L79.7621 73.7114L79.7582 73.7153L78.3285 72.2807C78.0941 72.3943 77.8559 72.5002 77.6215 72.5982C77.3832 72.6962 77.1411 72.7902 76.8989 72.8765V74.9029C76.8989 75.4791 76.6645 76.0044 76.2856 76.3846C76.2544 76.416 76.2192 76.4473 76.1841 76.4748C75.813 76.8001 75.3325 77 74.8091 77H69.1374C68.5672 77 68.0437 76.7648 67.6648 76.3846L67.6609 76.3885C67.282 76.0083 67.0476 75.487 67.0476 74.9068V72.8804C66.8055 72.7942 66.5633 72.7001 66.325 72.6021C66.0867 72.5041 65.8524 72.3983 65.6141 72.2846L64.1845 73.7192C63.7782 74.1269 63.2431 74.3307 62.7079 74.3307C62.1727 74.3307 61.6377 74.1269 61.2314 73.7192L59.8017 72.2846H59.7509L15.5417 72.2611C14.0066 73.531 12.0379 74.2954 9.88963 74.2954C7.43663 74.2954 5.21402 73.2958 3.60468 71.6848C1.99535 70.0699 1.00319 67.8435 1.00319 65.378C1.00319 62.9164 1.99924 60.6861 3.60468 59.0711C5.21402 57.4562 7.43263 56.4606 9.88963 56.4606C11.7451 56.4606 13.4676 57.0329 14.8933 58.0089H53.9538V56.053C53.9538 55.4807 54.1881 54.9594 54.567 54.5752L54.5749 54.5674C54.9537 54.1911 55.4733 53.9559 56.0436 53.9559H58.063C58.1489 53.7129 58.2427 53.4699 58.3403 53.2308C58.438 52.9917 58.5435 52.7565 58.6567 52.5213L57.2271 51.0867C56.8209 50.679 56.6177 50.142 56.6177 49.605C56.6177 49.0719 56.8209 48.5388 57.2271 48.1272L57.231 48.1233L57.2271 48.1194L61.2386 44.0939C61.6449 43.6862 62.18 43.4824 62.7152 43.4824V43.4863C63.2503 43.4863 63.7854 43.6901 64.1917 44.0939L65.6214 45.5285C65.8557 45.4148 66.094 45.309 66.3284 45.211C66.5666 45.113 66.8088 45.0189 67.051 44.9327V42.9062C67.051 42.33 67.2854 41.8048 67.6642 41.4246C67.6955 41.3932 67.7307 41.3618 67.7658 41.3344C68.1369 41.0091 68.6173 40.8092 69.1407 40.8092L69.1374 40.8288ZM75.477 55.3907C76.3715 56.2883 76.9261 57.5348 76.9261 58.9067C76.9261 60.2786 76.3714 61.5212 75.477 62.4227C74.5825 63.3203 73.3403 63.8768 71.9732 63.8768C70.6061 63.8768 69.3678 63.3202 68.4694 62.4227C67.5749 61.525 67.0203 60.2786 67.0203 58.9067C67.0203 57.5348 67.575 56.2922 68.4694 55.3907C69.3639 54.4931 70.6061 53.9366 71.9732 53.9366C73.3403 53.9366 74.5786 54.4931 75.477 55.3907ZM71.9732 51.5573C73.9965 51.5573 75.8246 52.3804 77.1527 53.7092C78.4768 55.0379 79.2971 56.8762 79.2971 58.9067C79.2971 60.9371 78.4768 62.7716 77.1527 64.1042C75.8285 65.433 73.9966 66.2561 71.9732 66.2561C69.9499 66.2561 68.1217 65.433 66.7937 64.1042C65.4696 62.7755 64.6493 60.9372 64.6493 58.9067C64.6493 56.8763 65.4696 55.0418 66.7937 53.7092C68.1179 52.3804 69.9498 51.5573 71.9732 51.5573ZM82.2188 16.4208H77.4768V32.3424C77.4768 32.997 76.9455 33.5301 76.2932 33.5301H67.1686C66.5163 33.5301 65.985 32.997 65.985 32.3424V16.4208H61.7274V16.4168C61.4345 16.4168 61.1415 16.3071 60.9149 16.0915C60.4423 15.6407 60.4228 14.8921 60.872 14.4139L71.1176 3.59976C71.1332 3.58408 71.1449 3.5684 71.1605 3.55664C71.6332 3.10588 72.3793 3.12547 72.8324 3.59976L83.02 14.3557C83.2582 14.5752 83.4067 14.8848 83.4067 15.2337C83.4067 15.8883 82.8754 16.4213 82.2231 16.4213L82.2188 16.4208ZM76.2932 14.0454H79.465L71.9731 6.1394L64.4812 14.0454H67.1686C67.8209 14.0454 68.3521 14.5785 68.3521 15.2331V31.1547H75.1097V15.2331C75.1097 14.5785 75.6409 14.0454 76.2932 14.0454Z" fill="black" stroke="black" stroke-width="0.5"/>
</svg>
