<svg width="114" height="74" viewBox="0 0 114 74" fill="none" xmlns="http://www.w3.org/2000/svg">
<path d="M99.9664 35.3306H100.045L100.063 35.2547C100.805 32.2611 103.516 30.0289 106.739 30.0251L106.763 30.0292L106.771 30.0306H106.78C110.569 30.0306 113.66 33.1142 113.66 36.8942C113.66 40.6743 110.569 43.7578 106.78 43.7578C103.547 43.7578 100.822 41.5241 100.096 38.5286L100.078 38.4522H99.9991H87.8172H87.7172V38.5522V50.9042V51.0042H87.8172H99.6889C100.558 51.0042 101.251 51.7107 101.251 52.5623V59.8353V59.9136L101.327 59.9323C104.331 60.6732 106.569 63.3811 106.569 66.5998C106.569 70.3799 103.478 73.4633 99.6889 73.4633C95.8992 73.4633 92.8087 70.3797 92.8087 66.5998C92.8087 63.3754 95.0475 60.6569 98.0504 59.9325L98.1269 59.914V59.8353V54.2201V54.1201H98.0269H87.8006H87.7006V54.2201V60.9405C87.7006 64.5769 84.7264 67.5443 81.0808 67.5443H32.9179C29.2614 67.5443 26.2981 64.577 26.2981 60.9405V54.2201V54.1201H26.1981H15.9718H15.8718V54.2201V59.8353V59.9136L15.9478 59.9323C18.9515 60.6732 21.19 63.3811 21.19 66.5998C21.19 70.3799 18.0994 73.4633 14.3098 73.4633C10.5201 73.4633 7.42966 70.3797 7.42966 66.5998C7.42966 63.3754 9.6684 60.6569 12.6713 59.9325L12.7478 59.914V59.8353V52.5623C12.7478 51.6954 13.4556 51.0042 14.3098 51.0042H26.1815H26.2815V50.9042V38.5522V38.4522H26.1815H13.9997H13.9214L13.9026 38.5281C13.16 41.5243 10.4459 43.7578 7.21904 43.7578C3.42936 43.7578 0.338892 40.6742 0.338892 36.8942C0.338892 33.1141 3.42949 30.0306 7.21904 30.0306C10.4516 30.0306 13.1764 32.2643 13.9025 35.2597L13.921 35.3362H13.9997H26.1815H26.2815V35.2362V22.8841V22.7841H26.1815H14.3098C13.4403 22.7841 12.7478 22.0777 12.7478 21.2261V13.9531V13.8748L12.6718 13.856C9.66814 13.1151 7.42966 10.4073 7.42966 7.18859C7.42966 3.40848 10.5203 0.325009 14.3098 0.325009C18.0995 0.325009 21.19 3.40862 21.19 7.18859C21.19 10.413 18.9512 13.1314 15.9483 13.8559L15.8718 13.8744V13.9531V19.5682V19.6682H15.9718H26.1981H26.2981V19.5682V12.8478C26.2981 9.21148 29.2723 6.24403 32.9179 6.24403L81.0482 6.2385C84.7047 6.2385 87.6679 9.20585 87.6679 12.8423V19.5627V19.6627H87.7679H97.9943H98.0943V19.5627V13.9476V13.8692L98.0182 13.8505C95.0146 13.1096 92.7761 10.4018 92.7761 7.18306C92.7761 3.40295 95.8666 0.319482 99.6563 0.319482C103.446 0.319482 106.536 3.40309 106.536 7.18306C106.536 10.4075 104.298 13.1259 101.295 13.8504L101.218 13.8688V13.9476V21.2206C101.218 22.0874 100.51 22.7786 99.6563 22.7786H87.7845H87.6845V22.8786V35.2306V35.3306H87.7845H99.9664ZM81.0646 64.4068C82.9301 64.4068 84.4545 62.9563 84.575 61.1301L84.5997 61.1548V60.9138V12.8652C84.5997 10.925 83.02 9.35525 81.0816 9.35525H32.9188C30.9745 9.35525 29.4007 10.9309 29.4007 12.8652V60.8968C29.4007 62.837 30.9804 64.4068 32.9188 64.4068H81.0646ZM99.6727 3.44048C97.5903 3.44048 95.8999 5.12635 95.8999 7.20456C95.8999 9.28263 97.5901 10.9687 99.6727 10.9687C101.755 10.9687 103.446 9.28278 103.446 7.20456C103.446 5.12649 101.755 3.44048 99.6727 3.44048ZM14.3265 3.44048C12.2441 3.44048 10.5537 5.12635 10.5537 7.20456C10.5537 9.28263 12.244 10.9687 14.3265 10.9687C16.409 10.9687 18.0993 9.28278 18.0993 7.20456C18.0993 5.12649 16.4091 3.44048 14.3265 3.44048ZM3.46283 36.8721C3.46283 38.9502 5.15305 40.6362 7.23563 40.6362C9.31807 40.6362 11.0084 38.9503 11.0084 36.8721C11.0084 34.794 9.31822 33.108 7.23563 33.108C5.1532 33.108 3.46283 34.7939 3.46283 36.8721ZM14.31 70.3201C16.3924 70.3201 18.0828 68.6343 18.0828 66.556C18.0828 64.478 16.3925 62.792 14.31 62.792C12.2275 62.792 10.5371 64.478 10.5371 66.556C10.5371 68.6341 12.2274 70.3201 14.31 70.3201ZM99.6561 70.3201C101.739 70.3201 103.429 68.6343 103.429 66.556C103.429 64.478 101.739 62.792 99.6561 62.792C97.5737 62.792 95.8833 64.478 95.8833 66.556C95.8833 68.6341 97.5737 70.3201 99.6561 70.3201ZM102.974 36.8721C102.974 38.9502 104.664 40.6362 106.747 40.6362C108.829 40.6362 110.52 38.9503 110.52 36.8721C110.52 34.794 108.829 33.108 106.747 33.108C104.665 33.108 102.974 34.7939 102.974 36.8721Z" fill="black" stroke="white" stroke-width="0.2"/>
<path d="M46 46L57 54.5L60 52L70.5 43L75.5 34V30L74 25.5L71 22L65.5 19.5L61 20.5L57 25.5L53.5 21.5L50.5 21H43.5L38.5 28L40 36L46 46Z" fill="#DD0004"/>
<path d="M68.5491 18.5952C65.743 17.643 60.8011 17.0974 56.9997 22.9397C53.1982 17.1124 48.2565 17.643 45.4504 18.5952C41.1738 20.0533 38.0226 23.7133 37.2173 28.1322C34.6713 42.2276 55.3246 55.2259 56.2043 55.7719C56.4494 55.9256 56.7145 56 56.9996 56C57.2797 56 57.5498 55.9256 57.7949 55.7719C58.6802 55.2263 79.3327 42.2123 76.782 28.1322C75.9867 23.7133 72.8258 20.0582 68.5491 18.5952ZM56.9997 52.7455C53.3233 50.2707 38.2125 39.3649 40.1639 28.6481C40.7792 25.2856 43.1751 22.4884 46.4263 21.3874C47.2966 21.0948 48.1169 20.941 48.8972 20.941C51.6633 20.941 53.8891 22.8207 55.6597 26.6296C55.9048 27.1503 56.43 27.4925 57.0152 27.4925C57.6055 27.4925 58.1307 27.1503 58.3708 26.6296C60.6266 21.7545 63.6478 20.0285 67.5892 21.3874C70.8405 22.5033 73.2514 25.2855 73.8516 28.6481C75.7873 39.3655 60.6869 50.271 57.0158 52.7455L56.9997 52.7455Z" fill="black"/>
<path d="M68.585 33.6865H62.535C62.2655 33.6865 61.9911 33.7614 61.7601 33.9164L59.368 35.491L55.6716 30.5775C55.4117 30.2425 55.0411 30.0276 54.6224 30.0026C54.2181 29.9776 53.809 30.1326 53.5154 30.4375L49.5736 34.5313H45.4439C44.6546 34.5313 44 35.1961 44 36.0309C44 36.8607 44.6401 37.5305 45.4439 37.5305H50.1607C50.5409 37.5305 50.9115 37.3755 51.1714 37.0956L54.3865 33.7665L57.8855 38.4252C58.1695 38.7951 58.5882 39 59.0214 39C59.2813 39 59.5509 38.925 59.7963 38.7701L62.9248 36.6956H68.5561C69.3454 36.6956 70 36.0308 70 35.196C70 34.3663 69.3599 33.6964 68.5561 33.6964L68.585 33.6865Z" fill="black"/>
</svg>
