<svg width="88" height="88" viewBox="0 0 88 88" fill="none" xmlns="http://www.w3.org/2000/svg">
<rect width="88" height="88" fill="white"/>
<path d="M28.5 27H41L40.5 14.5H51.5V27L64 27.5L63.5 38H51.5V50H41L40.5 38H28.5V27Z" fill="#DD0004"/>
<mask id="path-2-outside-1_12_709" maskUnits="userSpaceOnUse" x="7" y="4" width="77" height="80" fill="black">
<rect fill="white" x="7" y="4" width="77" height="80"/>
<path d="M52.3099 50.4251V38.6243H64.1107C64.4701 38.6243 64.7682 38.3262 64.7682 37.9667V26.6832C64.7682 26.3238 64.4701 26.0257 64.1107 26.0257H52.3099V14.2161C52.3099 13.8567 52.0118 13.5586 51.6524 13.5586H40.3689C40.0094 13.5586 39.7113 13.8567 39.7113 14.2161V26.0169H27.9105C27.5511 26.0169 27.253 26.315 27.253 26.6745V37.958C27.253 38.3174 27.5511 38.6155 27.9105 38.6155H39.7113V50.4163C39.7113 50.7758 40.0094 51.0738 40.3689 51.0738H51.6524C52.0118 51.0738 52.3099 50.7758 52.3099 50.4163V50.4251ZM50.9948 37.9667V49.7675H41.0264V37.9667C41.0264 37.6073 40.7283 37.3092 40.3689 37.3092H28.5681V27.3408H40.3689C40.7283 27.3408 41.0264 27.0427 41.0264 26.6832V14.8825H50.9948V26.6832C50.9948 27.0427 51.2929 27.3408 51.6524 27.3408H63.4531V37.3092H51.6524C51.2929 37.3092 50.9948 37.6073 50.9948 37.9667ZM83.6618 60.3146C83.0042 58.0263 81.9697 56.5271 80.5055 55.7293C78.3663 54.5632 75.6484 55.1243 73.0183 55.9046C67.1705 57.6493 64.3036 58.1491 63.5496 58.263C63.3655 56.9129 62.0942 56.5622 60.2969 56.5008C67.5299 52.1084 72.3782 44.665 73.4215 36.1431C75.2802 20.9582 64.4877 7.07956 49.3816 5.21213C42.0872 4.3091 34.8718 6.30804 29.0678 10.8495C23.22 15.4173 19.5115 21.9927 18.6084 29.3836C17.1706 41.1405 23.2551 52.4065 33.7758 57.6318C32.864 58.5173 32.3292 59.3765 32.075 59.8762H28.8311V58.0701C28.8311 57.7107 28.533 57.4126 28.1735 57.4126H23.9126V55.44C23.9126 55.0805 23.6146 54.7824 23.2551 54.7824H8.65755C8.29809 54.7824 8 55.0805 8 55.44C8 55.7994 8.29809 56.0975 8.65755 56.0975H22.5888V82.0136H8.65755C8.29809 82.0136 8 82.3117 8 82.6712C8 83.0306 8.29809 83.3287 8.65755 83.3287H23.2463C23.6058 83.3287 23.9039 83.0306 23.9039 82.6712V79.1643H28.1648C28.5242 79.1643 28.8223 78.8662 28.8223 78.5067V74.6316C29.8306 74.6316 31.3298 74.7718 33.1709 74.9296C36.0992 75.1839 39.6762 75.4908 43.2708 75.4908C47.9175 75.4908 52.5992 74.9735 55.9133 73.1674C74.5613 62.9974 83.0656 61.165 83.1532 61.1475C83.3286 61.1124 83.4864 60.9984 83.5828 60.8406C83.6793 60.6828 83.7056 60.4987 83.653 60.3233L83.6618 60.3146ZM19.906 29.5414C20.7652 22.51 24.3072 16.2414 29.8744 11.884C35.3978 7.57053 42.2714 5.65926 49.215 6.51845C63.6109 8.29821 73.8862 21.5105 72.1152 35.9853C71.0281 44.8929 65.5836 52.5731 57.5527 56.5183C54.9576 56.5709 51.5647 56.5709 47.9613 55.5539C41.3069 53.6777 37.2389 54.9928 34.8542 56.7024C24.5176 51.8454 18.512 40.9213 19.906 29.5326V29.5414ZM27.5072 77.8492H23.9039V58.7277H27.5072V77.8492ZM55.2908 72.0101C49.7499 75.0349 39.4483 74.1494 33.2849 73.6233C31.4174 73.4655 29.8919 73.334 28.8223 73.3252V61.1825H32.4783C32.7501 61.1825 32.9956 61.0072 33.092 60.7529C33.1183 60.6828 35.9063 53.5287 47.6106 56.8252C51.6348 57.9649 55.3697 57.886 58.1051 57.8247C60.9808 57.7633 62.2432 57.8159 62.2696 58.5524C62.2959 59.3239 61.9802 60.0428 61.3227 60.674C59.2711 62.6642 54.3439 63.5672 47.8123 63.1376C47.4528 63.1113 47.1372 63.3919 47.1109 63.7514C47.0846 64.1108 47.3652 64.4264 47.7246 64.4527C48.8293 64.5229 49.8901 64.5579 50.8984 64.5579C56.2815 64.5579 60.2531 63.5409 62.2345 61.6209C62.8482 61.0247 63.2427 60.3321 63.4356 59.6044C63.4531 59.6044 63.4707 59.6044 63.4794 59.6044C63.5934 59.5957 66.3551 59.2713 73.3865 57.1671C75.7361 56.4657 78.1471 55.9485 79.8655 56.8866C80.8737 57.4389 81.6365 58.4647 82.1801 60.0252C79.7866 60.6565 71.3174 63.2604 55.282 72.0101H55.2908Z"/>
</mask>
<path d="M52.3099 50.4251V38.6243H64.1107C64.4701 38.6243 64.7682 38.3262 64.7682 37.9667V26.6832C64.7682 26.3238 64.4701 26.0257 64.1107 26.0257H52.3099V14.2161C52.3099 13.8567 52.0118 13.5586 51.6524 13.5586H40.3689C40.0094 13.5586 39.7113 13.8567 39.7113 14.2161V26.0169H27.9105C27.5511 26.0169 27.253 26.315 27.253 26.6745V37.958C27.253 38.3174 27.5511 38.6155 27.9105 38.6155H39.7113V50.4163C39.7113 50.7758 40.0094 51.0738 40.3689 51.0738H51.6524C52.0118 51.0738 52.3099 50.7758 52.3099 50.4163V50.4251ZM50.9948 37.9667V49.7675H41.0264V37.9667C41.0264 37.6073 40.7283 37.3092 40.3689 37.3092H28.5681V27.3408H40.3689C40.7283 27.3408 41.0264 27.0427 41.0264 26.6832V14.8825H50.9948V26.6832C50.9948 27.0427 51.2929 27.3408 51.6524 27.3408H63.4531V37.3092H51.6524C51.2929 37.3092 50.9948 37.6073 50.9948 37.9667ZM83.6618 60.3146C83.0042 58.0263 81.9697 56.5271 80.5055 55.7293C78.3663 54.5632 75.6484 55.1243 73.0183 55.9046C67.1705 57.6493 64.3036 58.1491 63.5496 58.263C63.3655 56.9129 62.0942 56.5622 60.2969 56.5008C67.5299 52.1084 72.3782 44.665 73.4215 36.1431C75.2802 20.9582 64.4877 7.07956 49.3816 5.21213C42.0872 4.3091 34.8718 6.30804 29.0678 10.8495C23.22 15.4173 19.5115 21.9927 18.6084 29.3836C17.1706 41.1405 23.2551 52.4065 33.7758 57.6318C32.864 58.5173 32.3292 59.3765 32.075 59.8762H28.8311V58.0701C28.8311 57.7107 28.533 57.4126 28.1735 57.4126H23.9126V55.44C23.9126 55.0805 23.6146 54.7824 23.2551 54.7824H8.65755C8.29809 54.7824 8 55.0805 8 55.44C8 55.7994 8.29809 56.0975 8.65755 56.0975H22.5888V82.0136H8.65755C8.29809 82.0136 8 82.3117 8 82.6712C8 83.0306 8.29809 83.3287 8.65755 83.3287H23.2463C23.6058 83.3287 23.9039 83.0306 23.9039 82.6712V79.1643H28.1648C28.5242 79.1643 28.8223 78.8662 28.8223 78.5067V74.6316C29.8306 74.6316 31.3298 74.7718 33.1709 74.9296C36.0992 75.1839 39.6762 75.4908 43.2708 75.4908C47.9175 75.4908 52.5992 74.9735 55.9133 73.1674C74.5613 62.9974 83.0656 61.165 83.1532 61.1475C83.3286 61.1124 83.4864 60.9984 83.5828 60.8406C83.6793 60.6828 83.7056 60.4987 83.653 60.3233L83.6618 60.3146ZM19.906 29.5414C20.7652 22.51 24.3072 16.2414 29.8744 11.884C35.3978 7.57053 42.2714 5.65926 49.215 6.51845C63.6109 8.29821 73.8862 21.5105 72.1152 35.9853C71.0281 44.8929 65.5836 52.5731 57.5527 56.5183C54.9576 56.5709 51.5647 56.5709 47.9613 55.5539C41.3069 53.6777 37.2389 54.9928 34.8542 56.7024C24.5176 51.8454 18.512 40.9213 19.906 29.5326V29.5414ZM27.5072 77.8492H23.9039V58.7277H27.5072V77.8492ZM55.2908 72.0101C49.7499 75.0349 39.4483 74.1494 33.2849 73.6233C31.4174 73.4655 29.8919 73.334 28.8223 73.3252V61.1825H32.4783C32.7501 61.1825 32.9956 61.0072 33.092 60.7529C33.1183 60.6828 35.9063 53.5287 47.6106 56.8252C51.6348 57.9649 55.3697 57.886 58.1051 57.8247C60.9808 57.7633 62.2432 57.8159 62.2696 58.5524C62.2959 59.3239 61.9802 60.0428 61.3227 60.674C59.2711 62.6642 54.3439 63.5672 47.8123 63.1376C47.4528 63.1113 47.1372 63.3919 47.1109 63.7514C47.0846 64.1108 47.3652 64.4264 47.7246 64.4527C48.8293 64.5229 49.8901 64.5579 50.8984 64.5579C56.2815 64.5579 60.2531 63.5409 62.2345 61.6209C62.8482 61.0247 63.2427 60.3321 63.4356 59.6044C63.4531 59.6044 63.4707 59.6044 63.4794 59.6044C63.5934 59.5957 66.3551 59.2713 73.3865 57.1671C75.7361 56.4657 78.1471 55.9485 79.8655 56.8866C80.8737 57.4389 81.6365 58.4647 82.1801 60.0252C79.7866 60.6565 71.3174 63.2604 55.282 72.0101H55.2908Z" fill="black"/>
<path d="M52.3099 50.4251V38.6243H64.1107C64.4701 38.6243 64.7682 38.3262 64.7682 37.9667V26.6832C64.7682 26.3238 64.4701 26.0257 64.1107 26.0257H52.3099V14.2161C52.3099 13.8567 52.0118 13.5586 51.6524 13.5586H40.3689C40.0094 13.5586 39.7113 13.8567 39.7113 14.2161V26.0169H27.9105C27.5511 26.0169 27.253 26.315 27.253 26.6745V37.958C27.253 38.3174 27.5511 38.6155 27.9105 38.6155H39.7113V50.4163C39.7113 50.7758 40.0094 51.0738 40.3689 51.0738H51.6524C52.0118 51.0738 52.3099 50.7758 52.3099 50.4163V50.4251ZM50.9948 37.9667V49.7675H41.0264V37.9667C41.0264 37.6073 40.7283 37.3092 40.3689 37.3092H28.5681V27.3408H40.3689C40.7283 27.3408 41.0264 27.0427 41.0264 26.6832V14.8825H50.9948V26.6832C50.9948 27.0427 51.2929 27.3408 51.6524 27.3408H63.4531V37.3092H51.6524C51.2929 37.3092 50.9948 37.6073 50.9948 37.9667ZM83.6618 60.3146C83.0042 58.0263 81.9697 56.5271 80.5055 55.7293C78.3663 54.5632 75.6484 55.1243 73.0183 55.9046C67.1705 57.6493 64.3036 58.1491 63.5496 58.263C63.3655 56.9129 62.0942 56.5622 60.2969 56.5008C67.5299 52.1084 72.3782 44.665 73.4215 36.1431C75.2802 20.9582 64.4877 7.07956 49.3816 5.21213C42.0872 4.3091 34.8718 6.30804 29.0678 10.8495C23.22 15.4173 19.5115 21.9927 18.6084 29.3836C17.1706 41.1405 23.2551 52.4065 33.7758 57.6318C32.864 58.5173 32.3292 59.3765 32.075 59.8762H28.8311V58.0701C28.8311 57.7107 28.533 57.4126 28.1735 57.4126H23.9126V55.44C23.9126 55.0805 23.6146 54.7824 23.2551 54.7824H8.65755C8.29809 54.7824 8 55.0805 8 55.44C8 55.7994 8.29809 56.0975 8.65755 56.0975H22.5888V82.0136H8.65755C8.29809 82.0136 8 82.3117 8 82.6712C8 83.0306 8.29809 83.3287 8.65755 83.3287H23.2463C23.6058 83.3287 23.9039 83.0306 23.9039 82.6712V79.1643H28.1648C28.5242 79.1643 28.8223 78.8662 28.8223 78.5067V74.6316C29.8306 74.6316 31.3298 74.7718 33.1709 74.9296C36.0992 75.1839 39.6762 75.4908 43.2708 75.4908C47.9175 75.4908 52.5992 74.9735 55.9133 73.1674C74.5613 62.9974 83.0656 61.165 83.1532 61.1475C83.3286 61.1124 83.4864 60.9984 83.5828 60.8406C83.6793 60.6828 83.7056 60.4987 83.653 60.3233L83.6618 60.3146ZM19.906 29.5414C20.7652 22.51 24.3072 16.2414 29.8744 11.884C35.3978 7.57053 42.2714 5.65926 49.215 6.51845C63.6109 8.29821 73.8862 21.5105 72.1152 35.9853C71.0281 44.8929 65.5836 52.5731 57.5527 56.5183C54.9576 56.5709 51.5647 56.5709 47.9613 55.5539C41.3069 53.6777 37.2389 54.9928 34.8542 56.7024C24.5176 51.8454 18.512 40.9213 19.906 29.5326V29.5414ZM27.5072 77.8492H23.9039V58.7277H27.5072V77.8492ZM55.2908 72.0101C49.7499 75.0349 39.4483 74.1494 33.2849 73.6233C31.4174 73.4655 29.8919 73.334 28.8223 73.3252V61.1825H32.4783C32.7501 61.1825 32.9956 61.0072 33.092 60.7529C33.1183 60.6828 35.9063 53.5287 47.6106 56.8252C51.6348 57.9649 55.3697 57.886 58.1051 57.8247C60.9808 57.7633 62.2432 57.8159 62.2696 58.5524C62.2959 59.3239 61.9802 60.0428 61.3227 60.674C59.2711 62.6642 54.3439 63.5672 47.8123 63.1376C47.4528 63.1113 47.1372 63.3919 47.1109 63.7514C47.0846 64.1108 47.3652 64.4264 47.7246 64.4527C48.8293 64.5229 49.8901 64.5579 50.8984 64.5579C56.2815 64.5579 60.2531 63.5409 62.2345 61.6209C62.8482 61.0247 63.2427 60.3321 63.4356 59.6044C63.4531 59.6044 63.4707 59.6044 63.4794 59.6044C63.5934 59.5957 66.3551 59.2713 73.3865 57.1671C75.7361 56.4657 78.1471 55.9485 79.8655 56.8866C80.8737 57.4389 81.6365 58.4647 82.1801 60.0252C79.7866 60.6565 71.3174 63.2604 55.282 72.0101H55.2908Z" stroke="black" stroke-width="0.6" mask="url(#path-2-outside-1_12_709)"/>
</svg>
