<svg width="82" height="98" viewBox="0 0 82 98" fill="none" xmlns="http://www.w3.org/2000/svg">
<path d="M37.5 37.5V29.5H44C45.2 29.5 44.5 34.8333 44 37.5H52.5V44.5H44V52.5H37.5V44.5H29.5V37.5H37.5Z" fill="#DD0004"/>
<path d="M41 10C34.4542 10.0034 28.0788 12.0871 22.7944 15.9502C17.5101 19.8134 13.5903 25.256 11.6011 31.4923C9.61183 37.7285 9.6561 44.4357 11.7275 50.6451C13.7989 56.8546 17.7902 62.2451 23.125 66.0381V68.5C21.8321 68.5 20.5921 69.0136 19.6779 69.9279C18.7636 70.8421 18.25 72.0821 18.25 73.375C18.25 74.6679 18.7636 75.9079 19.6779 76.8221C20.5921 77.7364 21.8321 78.25 23.125 78.25V79.875C23.125 84.6157 25.0083 89.1623 28.3605 92.5145C31.7127 95.8667 36.2593 97.75 41 97.75C45.7408 97.75 50.2873 95.8667 53.6396 92.5145C56.9918 89.1623 58.875 84.6157 58.875 79.875V78.25C60.1679 78.25 61.4079 77.7364 62.3222 76.8221C63.2364 75.9079 63.75 74.6679 63.75 73.375C63.75 72.0821 63.2364 70.8421 62.3222 69.9279C61.4079 69.0136 60.1679 68.5 58.875 68.5V66.0381C64.2099 62.2451 68.2012 56.8546 70.2726 50.6451C72.3439 44.4357 72.3882 37.7285 70.399 31.4923C68.4097 25.256 64.4899 19.8134 59.2056 15.9502C53.9213 12.0871 47.5459 10.0034 41 10ZM55.625 79.875C55.625 83.7538 54.0842 87.4737 51.3415 90.2164C48.5987 92.9592 44.8788 94.5 41 94.5C37.1212 94.5 33.4013 92.9592 30.6586 90.2164C27.9159 87.4737 26.375 83.7538 26.375 79.875V78.25H55.625V79.875ZM60.5 73.375C60.5 73.806 60.3288 74.2193 60.0241 74.524C59.7193 74.8288 59.306 75 58.875 75H23.125C22.694 75 22.2807 74.8288 21.976 74.524C21.6712 74.2193 21.5 73.806 21.5 73.375C21.5 72.944 21.6712 72.5307 21.976 72.226C22.2807 71.9212 22.694 71.75 23.125 71.75H58.875C59.306 71.75 59.7193 71.9212 60.0241 72.226C60.3288 72.5307 60.5 72.944 60.5 73.375ZM56.3465 63.8346C56.1246 63.9831 55.9426 64.184 55.8168 64.4195C55.6909 64.655 55.6251 64.918 55.625 65.185V68.5H26.375V65.185C26.375 64.918 26.3091 64.655 26.1833 64.4195C26.0574 64.184 25.8755 63.9831 25.6535 63.8346C20.7255 60.5422 16.987 55.7522 14.9902 50.1721C12.9934 44.5919 12.8441 38.5175 14.5643 32.8461C16.2846 27.1746 19.7833 22.2067 24.5436 18.6761C29.3038 15.1456 35.0734 13.2395 41 13.2395C46.9267 13.2395 52.6962 15.1456 57.4565 18.6761C62.2168 22.2067 65.7154 27.1746 67.4357 32.8461C69.156 38.5175 69.0067 44.5919 67.0098 50.1721C65.013 55.7522 61.2745 60.5422 56.3465 63.8346Z" fill="black"/>
<path d="M52.375 36H45.875V29.5C45.875 29.069 45.7038 28.6557 45.399 28.351C45.0943 28.0462 44.681 27.875 44.25 27.875H37.75C37.319 27.875 36.9057 28.0462 36.601 28.351C36.2962 28.6557 36.125 29.069 36.125 29.5V36H29.625C29.194 36 28.7807 36.1712 28.476 36.476C28.1712 36.7807 28 37.194 28 37.625V44.125C28 44.556 28.1712 44.9693 28.476 45.274C28.7807 45.5788 29.194 45.75 29.625 45.75H36.125V52.25C36.125 52.681 36.2962 53.0943 36.601 53.399C36.9057 53.7038 37.319 53.875 37.75 53.875H44.25C44.681 53.875 45.0943 53.7038 45.399 53.399C45.7038 53.0943 45.875 52.681 45.875 52.25V45.75H52.375C52.806 45.75 53.2193 45.5788 53.524 45.274C53.8288 44.9693 54 44.556 54 44.125V37.625C54 37.194 53.8288 36.7807 53.524 36.476C53.2193 36.1712 52.806 36 52.375 36ZM50.75 42.5H44.25C43.819 42.5 43.4057 42.6712 43.101 42.976C42.7962 43.2807 42.625 43.694 42.625 44.125V50.625H39.375V44.125C39.375 43.694 39.2038 43.2807 38.899 42.976C38.5943 42.6712 38.181 42.5 37.75 42.5H31.25V39.25H37.75C38.181 39.25 38.5943 39.0788 38.899 38.774C39.2038 38.4693 39.375 38.056 39.375 37.625V31.125H42.625V37.625C42.625 38.056 42.7962 38.4693 43.101 38.774C43.4057 39.0788 43.819 39.25 44.25 39.25H50.75V42.5Z" fill="black"/>
<path d="M42.625 0.25H39.375V6.75H42.625V0.25Z" fill="black"/>
<path d="M13.4231 10.9991L11.1252 13.2974L15.7218 17.8932L18.0197 15.5949L13.4231 10.9991Z" fill="black"/>
<path d="M6.875 39.25H0.375V42.5H6.875V39.25Z" fill="black"/>
<path d="M15.7217 63.8562L11.1255 68.4524L13.4236 70.7505L18.0198 66.1543L15.7217 63.8562Z" fill="black"/>
<path d="M66.2793 63.8567L63.9814 66.155L68.578 70.7508L70.8759 68.4525L66.2793 63.8567Z" fill="black"/>
<path d="M81.625 39.25H75.125V42.5H81.625V39.25Z" fill="black"/>
<path d="M68.5757 10.9995L63.9796 15.5957L66.2777 17.8938L70.8738 13.2976L68.5757 10.9995Z" fill="black"/>
<path d="M52.375 81.5H29.625V84.75H52.375V81.5Z" fill="black"/>
<path d="M47.5 88H34.5V91.25H47.5V88Z" fill="black"/>
</svg>
