<?xml version="1.0" encoding="utf-8"?>
<!-- Generator: Adobe Illustrator 16.0.0, SVG Export Plug-In . SVG Version: 6.00 Build 0)  -->
<!DOCTYPE svg PUBLIC "-//W3C//DTD SVG 1.1//EN" "http://www.w3.org/Graphics/SVG/1.1/DTD/svg11.dtd">
<svg version="1.1" id="Layer_1" xmlns="http://www.w3.org/2000/svg" xmlns:xlink="http://www.w3.org/1999/xlink" x="0px" y="0px"
	 width="80px" height="80px" viewBox="0 0 80 80" style="enable-background:new 0 0 80 80;" xml:space="preserve">
<path style="fill-rule:evenodd;clip-rule:evenodd;fill:#DD0004;" d="M26.92,55c0,0,1.92-8.08,9.08-9c0,0,9.92-1.92,14,9
	C50,55,37.58,68.5,26.92,55z"/>
<circle style="fill-rule:evenodd;clip-rule:evenodd;fill:#DD0004;" cx="38.65" cy="40.1" r="6.5"/>
<path style="fill-rule:evenodd;clip-rule:evenodd;" d="M36.45,77.16c-1.29-0.19-2.58-0.33-3.87-0.57
	c-6.78-1.24-12.59-4.34-17.42-9.24c-5.42-5.5-8.56-12.14-9.31-19.82c-0.77-7.93,1.14-15.21,5.63-21.81
	c0.11-0.16,0.23-0.32,0.34-0.49c0.03-0.04,0.04-0.09,0.22-0.3c-0.47-0.4-0.96-0.76-1.4-1.2c-1.26-1.26-1.27-2.79-0.03-4.04
	c1.09-1.11,2.19-2.21,3.3-3.3c1.24-1.22,2.76-1.23,4-0.02c0.44,0.43,0.83,0.91,1.28,1.4c4.31-3.09,8.97-5.04,14.11-5.89
	c0-0.97,0-1.9,0-2.86C33,9,32.71,8.97,32.42,8.93c-1.22-0.19-2.14-1.18-2.21-2.42c-0.03-0.61,0.02-1.24-0.02-1.85
	c-0.13-1.64,0.54-2.76,2.11-3.3c4.15,0,8.29,0,12.44,0c1.57,0.55,2.24,1.66,2.11,3.31c-0.04,0.49,0,0.99-0.01,1.48
	c-0.02,1.66-0.93,2.65-2.59,2.83c-0.17,0.02-0.33,0.05-0.52,0.07c0,0.93,0,1.84,0,2.84c5.1,0.85,9.77,2.78,14.19,5.95
	c0.4-0.48,0.77-1,1.22-1.45c1.23-1.22,2.76-1.2,4,0.02c1.11,1.09,2.21,2.19,3.3,3.3c1.24,1.26,1.23,2.78-0.03,4.05
	c-0.42,0.42-0.87,0.8-1.32,1.21c0.17,0.28,0.28,0.47,0.4,0.64c4.52,6.6,6.43,13.9,5.72,21.86c-1.28,14.37-12.46,26.59-26.6,29.11
	c-1.33,0.24-2.67,0.39-4.01,0.58C39.22,77.16,37.83,77.16,36.45,77.16z M8.06,43.56C7.69,60.23,20.67,74.11,37.24,74.75
	c17.2,0.65,31.3-12.6,31.73-29.74C69.4,28.06,55.8,14,38.77,13.86C22.3,13.72,8.53,26.79,8.06,43.56z M44.48,6.54
	c0-0.65-0.04-1.26,0.01-1.87c0.07-0.73-0.15-0.98-0.93-0.97c-2.96,0.05-5.92,0.02-8.88,0.02c-2.17,0-2.15,0-2.12,2.2
	c0.01,0.49,0.14,0.71,0.67,0.71c3.55-0.02,7.1-0.01,10.66-0.01C44.03,6.61,44.17,6.58,44.48,6.54z M41.28,11.53
	c0-0.81,0-1.65,0-2.48c-1.87,0-3.69,0-5.53,0c0,0.86,0,1.66,0,2.48C37.6,11.53,39.41,11.53,41.28,11.53z M59.86,19.03
	c1.32,1.34,2.61,2.64,4.02,4.07c0.19-0.23,0.46-0.62,0.79-0.94c0.35-0.34,0.32-0.59-0.02-0.91c-0.75-0.71-1.47-1.45-2.19-2.18
	C61.09,17.69,61.1,17.69,59.86,19.03z M17.23,19.01c-0.19-0.18-0.53-0.46-0.82-0.79c-0.34-0.38-0.61-0.39-0.97-0.02
	c-0.73,0.77-1.49,1.5-2.24,2.25c-1.33,1.33-1.33,1.33,0.1,2.6c0.03,0.03,0.09,0.03,0.13,0.04c-0.05-0.05-0.1-0.1-0.14-0.15
	C14.58,21.67,15.86,20.38,17.23,19.01z"/>
<path style="fill-rule:evenodd;clip-rule:evenodd;" d="M9.25,44.34C9.21,28.26,22.3,15.15,38.46,15.07
	C54.57,15,67.76,28.14,67.8,44.3c0.04,16.07-13.09,29.23-29.21,29.29C22.49,73.66,9.3,60.5,9.25,44.34z M65.43,44.38
	c0.11-14.74-11.95-26.85-26.82-26.94C23.83,17.35,11.78,29.3,11.62,44.22c-0.16,14.69,11.94,26.88,26.78,27
	C53.18,71.34,65.32,59.28,65.43,44.38z"/>
<path style="fill-rule:evenodd;clip-rule:evenodd;" d="M56.36,44.35C56.33,54.2,48.31,62.2,38.5,62.17
	c-9.83-0.02-17.83-8.05-17.81-17.88c0.02-9.88,8.06-17.86,17.93-17.8C48.45,26.56,56.39,34.55,56.36,44.35z M34.05,45.52
	c-1.6-1.39-2.49-3.09-2.58-5.13c-0.1-2.07,0.6-3.88,2.08-5.35c2.56-2.54,6.57-2.75,9.37-0.51c1.36,1.09,2.23,2.5,2.54,4.22
	c0.48,2.69-0.45,4.92-2.45,6.8c1.92,0.74,3.5,1.8,4.85,3.22c1.33,1.4,2.26,3.05,2.91,4.92c4.74-5.94,4.53-15.78-2.67-21.52
	c-6.88-5.48-17.03-4.02-22.18,3.19c-4.73,6.61-2.84,14.88,0.41,18.22C27.66,49.75,30.22,47.09,34.05,45.52z M38.54,59.8
	c3.52,0,6.99-1.25,9.76-3.48c0.4-0.32,0.52-0.63,0.41-1.13c-1.03-4.67-5.34-8.09-10.19-8.08c-4.86,0-9.19,3.46-10.18,8.1
	c-0.1,0.46-0.01,0.77,0.38,1.08C31.59,58.58,34.86,59.75,38.54,59.8z M38.53,35.37c-2.6,0-4.72,2.1-4.71,4.69
	c0.01,2.55,2.11,4.66,4.66,4.68c2.6,0.02,4.73-2.08,4.75-4.66C43.25,37.49,41.14,35.37,38.53,35.37z"/>
<path style="fill-rule:evenodd;clip-rule:evenodd;" d="M53.6,30.52c-1.01,0-1.65-1.01-1.11-1.72c0.56-0.74,1.27-1.38,1.98-1.97
	c0.43-0.35,1.03-0.22,1.32,0.21c0.23,0.34,0.41,1.01,0.23,1.25c-0.58,0.77-1.33,1.43-2.04,2.1C53.87,30.51,53.66,30.51,53.6,30.52z"
	/>
<path style="fill-rule:evenodd;clip-rule:evenodd;" d="M24.81,29.51c-0.2,0.25-0.39,0.71-0.71,0.84c-0.35,0.14-0.93,0.14-1.22-0.07
	c-0.65-0.48-1.21-1.09-1.74-1.7c-0.38-0.44-0.36-0.98,0.01-1.43c0.36-0.45,0.92-0.69,1.37-0.32c0.76,0.61,1.41,1.35,2.09,2.06
	C24.72,28.98,24.72,29.19,24.81,29.51z"/>
<path style="fill-rule:evenodd;clip-rule:evenodd;" d="M39.71,22.1c0,0.35,0.02,0.69,0,1.04c-0.04,0.72-0.5,1.18-1.16,1.18
	c-0.66,0.01-1.16-0.44-1.19-1.15c-0.03-0.71-0.03-1.43,0-2.14c0.03-0.7,0.54-1.17,1.19-1.16c0.65,0.01,1.12,0.49,1.16,1.2
	C39.72,21.41,39.71,21.75,39.71,22.1z"/>
<path style="fill-rule:evenodd;clip-rule:evenodd;" d="M21.95,62.03c-0.27-0.19-0.73-0.36-0.86-0.68c-0.15-0.35-0.17-0.94,0.04-1.22
	c0.49-0.66,1.12-1.24,1.75-1.79c0.47-0.4,1.02-0.33,1.48,0.09c0.42,0.4,0.57,0.96,0.21,1.4c-0.57,0.7-1.26,1.31-1.92,1.94
	C22.52,61.9,22.29,61.92,21.95,62.03z"/>
<path style="fill-rule:evenodd;clip-rule:evenodd;" d="M53.42,57.98c0.39,0.2,0.68,0.29,0.89,0.47c0.53,0.48,1.04,0.98,1.52,1.51
	c0.47,0.52,0.44,1.21-0.03,1.66c-0.44,0.42-1.12,0.45-1.6,0.01c-0.55-0.5-1.12-0.99-1.54-1.58c-0.22-0.32-0.29-0.9-0.16-1.27
	C52.61,58.45,53.09,58.25,53.42,57.98z"/>
<path style="fill-rule:evenodd;clip-rule:evenodd;" d="M16.28,45.49c-0.37,0-0.74,0.03-1.11,0c-0.65-0.06-1.04-0.43-1.08-1.09
	c-0.04-0.67,0.32-1.14,0.95-1.21c0.83-0.09,1.68-0.09,2.51,0c0.63,0.06,0.99,0.53,0.99,1.19c0,0.62-0.48,1.08-1.14,1.12
	C17.02,45.51,16.65,45.49,16.28,45.49C16.28,45.49,16.28,45.49,16.28,45.49z"/>
<path style="fill-rule:evenodd;clip-rule:evenodd;" d="M60.72,45.49c-0.34,0-0.69,0.02-1.04,0c-0.67-0.04-1.13-0.48-1.17-1.1
	c-0.03-0.61,0.39-1.17,1.04-1.22c0.78-0.06,1.58-0.06,2.36,0c0.67,0.05,1.07,0.58,1.05,1.21c-0.02,0.63-0.47,1.08-1.14,1.12
	C61.46,45.51,61.09,45.49,60.72,45.49z"/>
<path style="fill-rule:evenodd;clip-rule:evenodd;" d="M37.35,66.55c0-0.37-0.02-0.74,0.01-1.11c0.05-0.65,0.54-1.12,1.15-1.13
	c0.6-0.02,1.15,0.45,1.19,1.08c0.04,0.76,0.04,1.53,0,2.29c-0.04,0.66-0.55,1.09-1.18,1.08c-0.63-0.01-1.11-0.44-1.16-1.1
	C37.32,67.29,37.35,66.92,37.35,66.55z"/>
</svg>
