<svg width="76" height="85" viewBox="0 0 76 85" fill="none" xmlns="http://www.w3.org/2000/svg">
<path fill-rule="evenodd" clip-rule="evenodd" d="M63.8825 28.9762L61.7219 31.1277C61.1504 31.6968 61.1514 32.6208 61.7219 33.1888C62.2923 33.7568 63.2203 33.7579 63.7918 33.1888L65.9524 31.0373C66.5239 30.4683 66.5229 29.5442 65.9524 28.9762C65.382 28.4082 64.454 28.4072 63.8825 28.9762Z" fill="black"/>
<path fill-rule="evenodd" clip-rule="evenodd" d="M72.8688 42.9638L69.9186 43.7494C69.1382 43.9572 68.676 44.7585 68.8854 45.5354C69.0949 46.3123 69.8983 46.7764 70.6787 46.5687L73.6289 45.783C74.4093 45.5752 74.8715 44.774 74.662 43.9971C74.4526 43.2202 73.6492 42.756 72.8688 42.9638Z" fill="black"/>
<path fill-rule="evenodd" clip-rule="evenodd" d="M13.6676 49.2469L10.7555 46.3472C10.1848 45.7789 9.25705 45.7789 8.68633 46.3472C8.11562 46.9155 8.11562 47.8393 8.68633 48.4076L11.5984 51.3073L8.68633 54.207C8.11562 54.7753 8.11562 55.6991 8.68633 56.2674C9.25705 56.8357 10.1848 56.8357 10.7555 56.2674L13.6676 53.3677L16.5797 56.2674C17.1504 56.8357 18.0782 56.8357 18.6489 56.2674C19.2196 55.6991 19.2196 54.7753 18.6489 54.207L15.7368 51.3073L18.6489 48.4076C19.2196 47.8393 19.2196 46.9155 18.6489 46.3472C18.0782 45.7789 17.1504 45.7789 16.5797 46.3472L13.6676 49.2469Z" fill="black"/>
<path fill-rule="evenodd" clip-rule="evenodd" d="M36.1444 10.4777C32.3577 10.4777 29.2786 13.5436 29.2786 17.3143C29.2786 21.0849 32.3577 24.1509 36.1444 24.1509C39.9311 24.1509 43.0102 21.0849 43.0102 17.3143C43.0102 13.5436 39.9311 10.4777 36.1444 10.4777ZM36.1444 13.393C38.316 13.393 40.0824 15.1519 40.0824 17.3143C40.0824 19.4766 38.316 21.2355 36.1444 21.2355C33.9728 21.2355 32.2064 19.4766 32.2064 17.3143C32.2064 15.1519 33.9728 13.393 36.1444 13.393Z" fill="black"/>
<path d="M39.5 54V73.5H36.5L32.5 72.5L30.5 69.5L29.5 66L26.5 59.5V56L24.5 54V51V45.5L26.5 40L29.5 38L32.5 35L38 32H43.5L49 33L53.5 35L57.5 40L60 45.5L59 49.5V56L57.5 61.5L55 68.5L51.5 73.5H45.5V54H49L51.5 52.5V49.5V46.5H49L45.5 47.5L44.5 52.5H42L39.5 49.5L38 46.5H34.5L32.5 49.5L34.5 52.5L39.5 54Z" fill="#DD0004"/>
<path fill-rule="evenodd" clip-rule="evenodd" d="M26.7852 66.2313L27.0252 67.3533C27.6398 70.221 29.4309 72.5932 31.8308 74.0037C31.8279 74.0416 31.8279 74.0795 31.8279 74.1173C31.8279 76.8859 32.9313 79.5379 34.898 81.4933C36.8619 83.4517 39.5252 84.5504 42.3056 84.5504C45.086 84.5504 47.7551 83.4517 49.7219 81.4933C51.6857 79.535 52.792 76.8801 52.792 74.1115C52.792 74.0183 52.7833 73.925 52.7657 73.8376C55.0281 72.4067 56.7051 70.1102 57.2992 67.3533C57.7879 65.0685 58.2826 62.7546 58.6279 61.3791C58.6338 61.3616 58.6367 61.347 58.6396 61.3295C58.7977 60.5922 59.0728 59.884 59.4503 59.2312C59.4533 59.2254 59.4562 59.2196 59.4591 59.2138C61.0512 56.3753 61.9585 53.1055 61.9585 49.6229C61.9585 41.8593 57.4397 35.1361 50.8779 31.9246V13.3577C50.8779 6.00213 44.8899 0.0366211 37.4999 0.0366211C30.2211 0.0366211 20.9464 0.0366211 13.6676 0.0366211C6.27762 0.0366211 0.289551 6.00213 0.289551 13.3577C0.289551 24.668 0.289551 41.5999 0.289551 52.9102C0.289551 60.2687 6.27762 66.2313 13.6676 66.2313H26.7852ZM49.798 75.1111C48.9902 75.3151 48.1444 75.4229 47.281 75.4229H37.0433C36.2853 75.4229 35.5448 75.3413 34.8307 75.184C35.0619 76.7839 35.8053 78.2789 36.9672 79.433C38.3808 80.8435 40.3037 81.6362 42.3056 81.6362C44.3104 81.6362 46.2332 80.8435 47.6527 79.433C48.8293 78.2585 49.5785 76.7373 49.798 75.1111ZM46.681 72.5087H47.281C50.7316 72.5087 53.714 70.1044 54.4369 66.7442C54.9315 64.4332 55.4319 62.096 55.7831 60.6942C56.0056 59.6742 56.3831 58.695 56.9041 57.7916C58.2591 55.3728 59.0318 52.5867 59.0318 49.6229C59.0318 40.3526 51.4721 32.8251 42.1622 32.8251C32.8493 32.8251 25.2896 40.3526 25.2896 49.6229C25.2896 52.5809 26.0593 55.3582 27.4495 57.7479C27.9822 58.6688 28.3685 59.6713 28.5939 60.7088L29.8875 66.7442C30.6075 70.1044 33.5898 72.5087 37.0433 72.5087H37.6433V54.2216H35.9839C34.8015 54.2216 33.6688 53.7554 32.8347 52.9248C32.0006 52.0942 31.5294 50.9664 31.5294 49.789C31.5294 49.7132 31.5294 49.6346 31.5294 49.5588C31.5294 48.3814 32.0006 47.2536 32.8347 46.423C33.6688 45.5925 34.8015 45.1233 35.9839 45.1233C36.0278 45.1233 36.0717 45.1233 36.1156 45.1233C38.5769 45.1233 40.57 47.1079 40.57 49.5588V51.3074H43.7543V49.5588C43.7543 47.1079 45.7474 45.1233 48.2058 45.1233C48.2497 45.1233 48.2937 45.1233 48.3405 45.1233C49.52 45.1233 50.6526 45.5925 51.4867 46.423C52.3238 47.2536 52.792 48.3814 52.792 49.5588C52.792 49.6346 52.792 49.7132 52.792 49.789C52.792 50.9664 52.3238 52.0942 51.4867 52.9248C50.6526 53.7554 49.52 54.2216 48.3405 54.2216H46.681V72.5087ZM43.7543 72.5087V54.2216H40.57V72.5087H43.7543ZM47.9512 30.7705V13.3577C47.9512 7.6108 43.2714 2.95089 37.4999 2.95089H13.6676C7.8961 2.95089 3.21627 7.6108 3.21627 13.3577V52.9102C3.21627 58.6571 7.8961 63.3171 13.6676 63.3171H26.1588L25.7315 61.3208C25.5706 60.5776 25.2955 59.8666 24.915 59.2109C23.276 56.3898 22.3629 53.1113 22.3629 49.6229C22.3629 44.2781 24.5053 39.4259 27.9822 35.8734C26.671 35.0836 25.155 34.6552 23.598 34.6552C17.3055 34.6552 12.2042 29.5757 12.2042 23.31V13.5996L11.4111 14.3894C10.8404 14.9577 9.9126 14.9577 9.34189 14.3894C8.77118 13.8211 8.77118 12.8973 9.34189 12.329L12.6345 9.05338C13.2052 8.48218 14.13 8.48218 14.7036 9.05338L17.9933 12.329C18.564 12.8973 18.564 13.8211 17.9933 14.3894C17.4226 14.9577 16.4948 14.9577 15.9241 14.3894L15.131 13.5996V23.31C15.131 27.967 18.9211 31.741 23.598 31.741C26.0008 31.741 28.3276 32.4987 30.2533 33.88C33.5693 31.3883 37.6931 29.9108 42.1622 29.9108C44.1758 29.9108 46.122 30.211 47.9512 30.7705ZM37.6433 51.3074V49.5559C37.6433 48.7195 36.9585 48.0376 36.1156 48.0376C36.0717 48.0376 36.0278 48.0376 35.9839 48.0376C35.577 48.0376 35.1907 48.1978 34.9039 48.4834C34.6171 48.769 34.4561 49.1537 34.4561 49.5588V49.789C34.4561 50.1912 34.6171 50.5788 34.9039 50.8644C35.1907 51.1471 35.577 51.3074 35.9839 51.3074H37.6433ZM46.681 51.3074H48.3405C48.7444 51.3074 49.1307 51.1471 49.4175 50.8644C49.7043 50.5788 49.8653 50.1912 49.8653 49.789V49.5588C49.8653 49.1537 49.7043 48.769 49.4175 48.4834C49.1307 48.1978 48.7444 48.0376 48.3405 48.0376C48.2937 48.0376 48.2497 48.0376 48.2058 48.0376C47.3629 48.0376 46.681 48.7195 46.681 49.5588V51.3074Z" fill="black"/>
</svg>
