<svg width="88" height="88" viewBox="0 0 88 88" fill="none" xmlns="http://www.w3.org/2000/svg">
<rect width="88" height="88" fill="white"/>
<rect x="30.6953" y="4.78418" width="8.62708" height="3.13712" fill="#DD0004"/>
<path d="M45.2042 48.3117C49.2824 47.0568 51.0863 43.3446 51.4784 41.6453L36.9692 41.2532C37.9104 46.5863 42.8513 48.181 45.2042 48.3117Z" fill="#DD0004"/>
<mask id="path-3-outside-1_10_467" maskUnits="userSpaceOnUse" x="21.8525" y="3" width="44" height="60" fill="black">
<rect fill="white" x="21.8525" y="3" width="44" height="60"/>
<path d="M64.4539 40.6183H23.6028C23.2583 40.6183 22.977 40.8939 22.977 41.2366V43.564C22.977 43.8303 23.1505 44.0688 23.4082 44.1522L26.6305 45.1827C27.0921 47.1372 27.8561 48.9574 28.906 50.6038L27.3687 53.5958C27.2468 53.8343 27.2914 54.1238 27.4835 54.3113L30.7971 57.5858C30.987 57.7757 31.2799 57.8197 31.5212 57.6993L34.549 56.1801C36.241 57.2338 38.0852 57.9911 40.0397 58.4311L41.0942 61.6106C41.1786 61.8653 41.4176 62.0367 41.6894 62.0367H46.3646C46.6341 62.0367 46.8755 61.8653 46.9599 61.6106L48.0144 58.4311C49.9689 57.9911 51.8155 57.2338 53.5051 56.1801L56.5329 57.6993C56.7742 57.8197 57.0672 57.7757 57.257 57.5858L60.5706 54.3113C60.7627 54.1215 60.8073 53.8343 60.6854 53.5958L59.1481 50.6038C60.198 48.9574 60.9619 47.1371 61.4236 45.1827L64.6459 44.1522C64.9036 44.0688 65.0771 43.8326 65.0771 43.564V41.2366C65.0771 40.8962 64.7984 40.6183 64.4539 40.6183ZM63.8282 43.117L60.7021 44.1151C60.4888 44.1822 60.3271 44.3582 60.2826 44.5736C59.8373 46.6323 59.0406 48.5335 57.9087 50.2263C57.7845 50.4116 57.7704 50.6478 57.8735 50.8447L59.3687 53.7532L56.6971 56.3932L53.7538 54.9157C53.5546 54.8161 53.3132 54.83 53.1281 54.9504C51.3869 56.0875 49.4629 56.8748 47.4124 57.294C47.1945 57.338 47.0164 57.4954 46.9461 57.7039L45.9173 60.8H42.1491L41.1204 57.7039C41.0501 57.4954 40.872 57.338 40.654 57.294C38.6035 56.8748 36.6795 56.0874 34.9384 54.9504C34.7509 54.8277 34.5119 54.8138 34.3126 54.9157L31.3693 56.3932L28.6978 53.7532L30.1929 50.8447C30.2937 50.6478 30.282 50.4116 30.1578 50.2263C29.0282 48.5335 28.2291 46.6323 27.7862 44.5736C27.7393 44.3559 27.5776 44.1822 27.3667 44.1151L24.2406 43.117V41.8549H30.8163C31.1468 48.7904 36.9422 54.337 44.0405 54.337C48.8984 54.337 53.3651 51.7109 55.697 47.4844C55.8633 47.1857 55.7509 46.8105 55.4485 46.6461C55.1439 46.4817 54.7666 46.5928 54.6002 46.8916C52.4888 50.7195 48.4438 53.1003 44.0428 53.1003C37.6332 53.1003 32.3797 48.1098 32.0539 41.8549H36.6236C36.6775 42.5218 36.8158 43.1656 37.0431 43.7769C37.1626 44.0965 37.5212 44.2609 37.8445 44.1451C38.1679 44.027 38.3367 43.6727 38.2172 43.3532C38.0414 42.8761 37.9266 42.376 37.8773 41.8549H50.2064C49.8923 44.9511 47.2489 47.3757 44.0434 47.3757C42.2038 47.3757 40.4673 46.5698 39.2791 45.1641C39.0588 44.9024 38.6628 44.8677 38.398 45.0854C38.1331 45.303 38.098 45.6944 38.3183 45.9561C39.7454 47.6443 41.8311 48.61 44.041 48.61C47.9358 48.61 51.1345 45.632 51.4531 41.8529H56.0298C55.9759 42.8742 55.7908 43.8838 55.4721 44.8634C55.3666 45.1876 55.5494 45.5349 55.8775 45.6391C56.2056 45.7434 56.5571 45.5627 56.6625 45.2385C57.0187 44.1362 57.2156 42.9992 57.2695 41.8529H63.838L63.831 43.1173L63.8282 43.117ZM23.481 37.5129H45.6595C46.004 37.5129 46.2852 37.2373 46.2852 36.8945C46.2852 36.5541 46.0064 36.2762 45.6595 36.2762H42.9013L42.8989 19.8115V17.1345L50.7729 21.6224V36.279H48.0146C47.6702 36.279 47.3889 36.5546 47.3889 36.8973C47.3889 37.2377 47.6678 37.5157 48.0146 37.5157H64.5779C64.9224 37.5157 65.2036 37.2401 65.2036 36.8973C65.2036 36.5569 64.9248 36.279 64.5779 36.279H61.1471L61.1447 21.2638C61.1447 21.0438 61.0252 20.84 60.8331 20.7288L51.71 15.53C51.5155 15.4188 51.2788 15.4212 51.0843 15.53C50.8898 15.6412 50.7726 15.8449 50.7726 16.0649V20.1939L42.5867 15.53C42.3922 15.4188 42.1555 15.4211 41.961 15.53C41.7665 15.6411 41.6493 15.8449 41.6493 16.0649V19.1934H40.3463L38.7528 9.1734H39.2262C39.5707 9.1734 39.8519 8.89783 39.8519 8.55508V4.61832C39.8519 4.27791 39.573 4 39.2262 4H30.5813C30.2368 4 29.9556 4.27557 29.9556 4.61832V8.55739C29.9556 8.89781 30.2344 9.17572 30.5813 9.17572H31.0734L29.4799 19.1958H27.5348C27.1903 19.1958 26.9091 19.4713 26.9091 19.8141V36.2812H23.4783C23.1338 36.2812 22.8525 36.5567 22.8525 36.8995C22.8549 37.2376 23.1341 37.5129 23.481 37.5129ZM52.0217 21.2634V17.1344L59.8957 21.6223V36.2789H52.0217V21.2634ZM38.0009 36.2786H31.8283V28.1829H38.0009V36.2786ZM31.2074 5.23378H38.6008V7.93626H31.2074V5.23378ZM32.3393 9.17285H37.4878L39.079 19.1929H30.7454L32.3393 9.17285ZM28.1609 20.4295H41.6472V36.2783H39.2475L39.2498 27.5666C39.2498 27.2262 38.971 26.9483 38.6241 26.9483H31.2025C30.858 26.9483 30.5767 27.2239 30.5767 27.5666V36.2783H28.1607L28.1609 20.4295Z"/>
</mask>
<path d="M64.4539 40.6183H23.6028C23.2583 40.6183 22.977 40.8939 22.977 41.2366V43.564C22.977 43.8303 23.1505 44.0688 23.4082 44.1522L26.6305 45.1827C27.0921 47.1372 27.8561 48.9574 28.906 50.6038L27.3687 53.5958C27.2468 53.8343 27.2914 54.1238 27.4835 54.3113L30.7971 57.5858C30.987 57.7757 31.2799 57.8197 31.5212 57.6993L34.549 56.1801C36.241 57.2338 38.0852 57.9911 40.0397 58.4311L41.0942 61.6106C41.1786 61.8653 41.4176 62.0367 41.6894 62.0367H46.3646C46.6341 62.0367 46.8755 61.8653 46.9599 61.6106L48.0144 58.4311C49.9689 57.9911 51.8155 57.2338 53.5051 56.1801L56.5329 57.6993C56.7742 57.8197 57.0672 57.7757 57.257 57.5858L60.5706 54.3113C60.7627 54.1215 60.8073 53.8343 60.6854 53.5958L59.1481 50.6038C60.198 48.9574 60.9619 47.1371 61.4236 45.1827L64.6459 44.1522C64.9036 44.0688 65.0771 43.8326 65.0771 43.564V41.2366C65.0771 40.8962 64.7984 40.6183 64.4539 40.6183ZM63.8282 43.117L60.7021 44.1151C60.4888 44.1822 60.3271 44.3582 60.2826 44.5736C59.8373 46.6323 59.0406 48.5335 57.9087 50.2263C57.7845 50.4116 57.7704 50.6478 57.8735 50.8447L59.3687 53.7532L56.6971 56.3932L53.7538 54.9157C53.5546 54.8161 53.3132 54.83 53.1281 54.9504C51.3869 56.0875 49.4629 56.8748 47.4124 57.294C47.1945 57.338 47.0164 57.4954 46.9461 57.7039L45.9173 60.8H42.1491L41.1204 57.7039C41.0501 57.4954 40.872 57.338 40.654 57.294C38.6035 56.8748 36.6795 56.0874 34.9384 54.9504C34.7509 54.8277 34.5119 54.8138 34.3126 54.9157L31.3693 56.3932L28.6978 53.7532L30.1929 50.8447C30.2937 50.6478 30.282 50.4116 30.1578 50.2263C29.0282 48.5335 28.2291 46.6323 27.7862 44.5736C27.7393 44.3559 27.5776 44.1822 27.3667 44.1151L24.2406 43.117V41.8549H30.8163C31.1468 48.7904 36.9422 54.337 44.0405 54.337C48.8984 54.337 53.3651 51.7109 55.697 47.4844C55.8633 47.1857 55.7509 46.8105 55.4485 46.6461C55.1439 46.4817 54.7666 46.5928 54.6002 46.8916C52.4888 50.7195 48.4438 53.1003 44.0428 53.1003C37.6332 53.1003 32.3797 48.1098 32.0539 41.8549H36.6236C36.6775 42.5218 36.8158 43.1656 37.0431 43.7769C37.1626 44.0965 37.5212 44.2609 37.8445 44.1451C38.1679 44.027 38.3367 43.6727 38.2172 43.3532C38.0414 42.8761 37.9266 42.376 37.8773 41.8549H50.2064C49.8923 44.9511 47.2489 47.3757 44.0434 47.3757C42.2038 47.3757 40.4673 46.5698 39.2791 45.1641C39.0588 44.9024 38.6628 44.8677 38.398 45.0854C38.1331 45.303 38.098 45.6944 38.3183 45.9561C39.7454 47.6443 41.8311 48.61 44.041 48.61C47.9358 48.61 51.1345 45.632 51.4531 41.8529H56.0298C55.9759 42.8742 55.7908 43.8838 55.4721 44.8634C55.3666 45.1876 55.5494 45.5349 55.8775 45.6391C56.2056 45.7434 56.5571 45.5627 56.6625 45.2385C57.0187 44.1362 57.2156 42.9992 57.2695 41.8529H63.838L63.831 43.1173L63.8282 43.117ZM23.481 37.5129H45.6595C46.004 37.5129 46.2852 37.2373 46.2852 36.8945C46.2852 36.5541 46.0064 36.2762 45.6595 36.2762H42.9013L42.8989 19.8115V17.1345L50.7729 21.6224V36.279H48.0146C47.6702 36.279 47.3889 36.5546 47.3889 36.8973C47.3889 37.2377 47.6678 37.5157 48.0146 37.5157H64.5779C64.9224 37.5157 65.2036 37.2401 65.2036 36.8973C65.2036 36.5569 64.9248 36.279 64.5779 36.279H61.1471L61.1447 21.2638C61.1447 21.0438 61.0252 20.84 60.8331 20.7288L51.71 15.53C51.5155 15.4188 51.2788 15.4212 51.0843 15.53C50.8898 15.6412 50.7726 15.8449 50.7726 16.0649V20.1939L42.5867 15.53C42.3922 15.4188 42.1555 15.4211 41.961 15.53C41.7665 15.6411 41.6493 15.8449 41.6493 16.0649V19.1934H40.3463L38.7528 9.1734H39.2262C39.5707 9.1734 39.8519 8.89783 39.8519 8.55508V4.61832C39.8519 4.27791 39.573 4 39.2262 4H30.5813C30.2368 4 29.9556 4.27557 29.9556 4.61832V8.55739C29.9556 8.89781 30.2344 9.17572 30.5813 9.17572H31.0734L29.4799 19.1958H27.5348C27.1903 19.1958 26.9091 19.4713 26.9091 19.8141V36.2812H23.4783C23.1338 36.2812 22.8525 36.5567 22.8525 36.8995C22.8549 37.2376 23.1341 37.5129 23.481 37.5129ZM52.0217 21.2634V17.1344L59.8957 21.6223V36.2789H52.0217V21.2634ZM38.0009 36.2786H31.8283V28.1829H38.0009V36.2786ZM31.2074 5.23378H38.6008V7.93626H31.2074V5.23378ZM32.3393 9.17285H37.4878L39.079 19.1929H30.7454L32.3393 9.17285ZM28.1609 20.4295H41.6472V36.2783H39.2475L39.2498 27.5666C39.2498 27.2262 38.971 26.9483 38.6241 26.9483H31.2025C30.858 26.9483 30.5767 27.2239 30.5767 27.5666V36.2783H28.1607L28.1609 20.4295Z" fill="black"/>
<path d="M64.4539 40.6183H23.6028C23.2583 40.6183 22.977 40.8939 22.977 41.2366V43.564C22.977 43.8303 23.1505 44.0688 23.4082 44.1522L26.6305 45.1827C27.0921 47.1372 27.8561 48.9574 28.906 50.6038L27.3687 53.5958C27.2468 53.8343 27.2914 54.1238 27.4835 54.3113L30.7971 57.5858C30.987 57.7757 31.2799 57.8197 31.5212 57.6993L34.549 56.1801C36.241 57.2338 38.0852 57.9911 40.0397 58.4311L41.0942 61.6106C41.1786 61.8653 41.4176 62.0367 41.6894 62.0367H46.3646C46.6341 62.0367 46.8755 61.8653 46.9599 61.6106L48.0144 58.4311C49.9689 57.9911 51.8155 57.2338 53.5051 56.1801L56.5329 57.6993C56.7742 57.8197 57.0672 57.7757 57.257 57.5858L60.5706 54.3113C60.7627 54.1215 60.8073 53.8343 60.6854 53.5958L59.1481 50.6038C60.198 48.9574 60.9619 47.1371 61.4236 45.1827L64.6459 44.1522C64.9036 44.0688 65.0771 43.8326 65.0771 43.564V41.2366C65.0771 40.8962 64.7984 40.6183 64.4539 40.6183ZM63.8282 43.117L60.7021 44.1151C60.4888 44.1822 60.3271 44.3582 60.2826 44.5736C59.8373 46.6323 59.0406 48.5335 57.9087 50.2263C57.7845 50.4116 57.7704 50.6478 57.8735 50.8447L59.3687 53.7532L56.6971 56.3932L53.7538 54.9157C53.5546 54.8161 53.3132 54.83 53.1281 54.9504C51.3869 56.0875 49.4629 56.8748 47.4124 57.294C47.1945 57.338 47.0164 57.4954 46.9461 57.7039L45.9173 60.8H42.1491L41.1204 57.7039C41.0501 57.4954 40.872 57.338 40.654 57.294C38.6035 56.8748 36.6795 56.0874 34.9384 54.9504C34.7509 54.8277 34.5119 54.8138 34.3126 54.9157L31.3693 56.3932L28.6978 53.7532L30.1929 50.8447C30.2937 50.6478 30.282 50.4116 30.1578 50.2263C29.0282 48.5335 28.2291 46.6323 27.7862 44.5736C27.7393 44.3559 27.5776 44.1822 27.3667 44.1151L24.2406 43.117V41.8549H30.8163C31.1468 48.7904 36.9422 54.337 44.0405 54.337C48.8984 54.337 53.3651 51.7109 55.697 47.4844C55.8633 47.1857 55.7509 46.8105 55.4485 46.6461C55.1439 46.4817 54.7666 46.5928 54.6002 46.8916C52.4888 50.7195 48.4438 53.1003 44.0428 53.1003C37.6332 53.1003 32.3797 48.1098 32.0539 41.8549H36.6236C36.6775 42.5218 36.8158 43.1656 37.0431 43.7769C37.1626 44.0965 37.5212 44.2609 37.8445 44.1451C38.1679 44.027 38.3367 43.6727 38.2172 43.3532C38.0414 42.8761 37.9266 42.376 37.8773 41.8549H50.2064C49.8923 44.9511 47.2489 47.3757 44.0434 47.3757C42.2038 47.3757 40.4673 46.5698 39.2791 45.1641C39.0588 44.9024 38.6628 44.8677 38.398 45.0854C38.1331 45.303 38.098 45.6944 38.3183 45.9561C39.7454 47.6443 41.8311 48.61 44.041 48.61C47.9358 48.61 51.1345 45.632 51.4531 41.8529H56.0298C55.9759 42.8742 55.7908 43.8838 55.4721 44.8634C55.3666 45.1876 55.5494 45.5349 55.8775 45.6391C56.2056 45.7434 56.5571 45.5627 56.6625 45.2385C57.0187 44.1362 57.2156 42.9992 57.2695 41.8529H63.838L63.831 43.1173L63.8282 43.117ZM23.481 37.5129H45.6595C46.004 37.5129 46.2852 37.2373 46.2852 36.8945C46.2852 36.5541 46.0064 36.2762 45.6595 36.2762H42.9013L42.8989 19.8115V17.1345L50.7729 21.6224V36.279H48.0146C47.6702 36.279 47.3889 36.5546 47.3889 36.8973C47.3889 37.2377 47.6678 37.5157 48.0146 37.5157H64.5779C64.9224 37.5157 65.2036 37.2401 65.2036 36.8973C65.2036 36.5569 64.9248 36.279 64.5779 36.279H61.1471L61.1447 21.2638C61.1447 21.0438 61.0252 20.84 60.8331 20.7288L51.71 15.53C51.5155 15.4188 51.2788 15.4212 51.0843 15.53C50.8898 15.6412 50.7726 15.8449 50.7726 16.0649V20.1939L42.5867 15.53C42.3922 15.4188 42.1555 15.4211 41.961 15.53C41.7665 15.6411 41.6493 15.8449 41.6493 16.0649V19.1934H40.3463L38.7528 9.1734H39.2262C39.5707 9.1734 39.8519 8.89783 39.8519 8.55508V4.61832C39.8519 4.27791 39.573 4 39.2262 4H30.5813C30.2368 4 29.9556 4.27557 29.9556 4.61832V8.55739C29.9556 8.89781 30.2344 9.17572 30.5813 9.17572H31.0734L29.4799 19.1958H27.5348C27.1903 19.1958 26.9091 19.4713 26.9091 19.8141V36.2812H23.4783C23.1338 36.2812 22.8525 36.5567 22.8525 36.8995C22.8549 37.2376 23.1341 37.5129 23.481 37.5129ZM52.0217 21.2634V17.1344L59.8957 21.6223V36.2789H52.0217V21.2634ZM38.0009 36.2786H31.8283V28.1829H38.0009V36.2786ZM31.2074 5.23378H38.6008V7.93626H31.2074V5.23378ZM32.3393 9.17285H37.4878L39.079 19.1929H30.7454L32.3393 9.17285ZM28.1609 20.4295H41.6472V36.2783H39.2475L39.2498 27.5666C39.2498 27.2262 38.971 26.9483 38.6241 26.9483H31.2025C30.858 26.9483 30.5767 27.2239 30.5767 27.5666V36.2783H28.1607L28.1609 20.4295Z" stroke="black" stroke-width="0.2" mask="url(#path-3-outside-1_10_467)"/>
<mask id="path-4-inside-2_10_467" fill="white">
<path d="M22.9662 74.7904L35.1029 70.3735L32.1088 62.1496V62.1535C31.9681 61.7626 31.757 61.403 31.4834 61.0942C31.2019 60.7893 30.8619 60.5431 30.4827 60.3711L18.5842 54.6995C18.0448 54.4376 17.4194 54.4024 16.8526 54.6018C16.2898 54.7933 15.8247 55.2037 15.5666 55.7392V55.7509C15.4454 56.0011 15.3751 56.2708 15.3555 56.5483V56.5561C15.3399 56.8219 15.3673 57.0877 15.4415 57.3457C15.4493 57.3887 15.4611 57.4278 15.4767 57.4668C15.5353 57.6388 15.6135 57.7991 15.7112 57.9476C15.934 58.2916 16.2428 58.5691 16.6102 58.745L27.7933 64.1117C28.3523 64.3814 28.5907 65.0537 28.321 65.6126C28.0552 66.1755 27.3829 66.41 26.82 66.1442L15.625 60.7814C15.1676 60.5626 14.7533 60.2655 14.3937 59.9059C14.382 59.8903 14.3624 59.8746 14.3468 59.8629C14.2491 59.7574 14.1552 59.644 14.0654 59.5307L14.0341 59.4877H14.0302C13.7448 59.1202 13.5181 58.7098 13.3579 58.2681C13.1742 57.756 13.0804 57.2127 13.0843 56.6655L5.7202 36.4497H5.72411C5.34887 35.5741 4.35604 35.1481 3.46098 35.4725C2.56588 35.8008 2.08511 36.7702 2.36649 37.6809L12.732 66.1519C12.8727 66.5428 13.0877 66.9063 13.3652 67.219C13.6506 67.5278 13.9946 67.774 14.3776 67.9421L19.6661 70.4085V70.4045C20.9834 71.0104 22.0035 72.1204 22.4882 73.4846L22.9662 74.7904ZM37.2292 69.6153C38.2846 69.3807 39.3477 69.9671 39.7113 70.9833L41.267 75.2555C41.4624 75.791 41.4389 76.3813 41.1966 76.9011C40.9543 77.417 40.5204 77.8157 39.9849 78.0112L23.8848 83.8704C23.3493 84.0658 22.759 84.0385 22.2431 83.8C21.7272 83.5577 21.3285 83.1199 21.133 82.5845L19.5773 78.3084C19.1708 77.2022 19.7376 75.9788 20.8398 75.5683L20.363 74.2589C20.0933 73.4537 19.4913 72.801 18.7135 72.4648L13.425 69.9984C12.7761 69.7013 12.1898 69.2753 11.7051 68.7476C11.2243 68.216 10.853 67.5985 10.6106 66.9223L0.245055 38.4513C-0.122367 37.4428 -0.0754575 36.3288 0.377949 35.3595C0.831356 34.3862 1.65215 33.6318 2.66059 33.2644C4.75962 32.4983 7.08139 33.581 7.84747 35.68L14.3633 53.5783C14.8558 53.0819 15.4538 52.7028 16.1105 52.4721C17.2401 52.0773 18.4792 52.1438 19.5541 52.6597L31.4566 58.3313C32.1015 58.6323 32.6762 59.0544 33.153 59.5782C33.6298 60.1059 33.9972 60.7234 34.2356 61.3919L37.2292 69.6153ZM21.7354 77.6398L23.2208 81.7127L39.1098 75.92L37.6284 71.851L21.7354 77.6398ZM49.4679 71.855L47.9865 75.924L63.8755 81.7167L65.3609 77.6438L49.4679 71.855ZM51.9968 70.3735L64.1335 74.7904L64.6104 73.4849C65.0951 72.1208 66.1113 71.0107 67.4286 70.4049L72.7171 67.9385L72.7132 67.9424C73.1002 67.7743 73.4441 67.5281 73.7294 67.2193C74.0109 66.9105 74.2258 66.547 74.3626 66.1522L84.7322 37.6812C84.8925 37.2356 84.869 36.7431 84.6697 36.3132C84.4703 35.8832 84.1107 35.551 83.6651 35.3868C83.2195 35.2226 82.727 35.2461 82.301 35.4532C81.871 35.6487 81.5349 36.0083 81.3707 36.45L74.0105 56.6657C74.0144 57.213 73.9245 57.7562 73.7369 58.2684C73.5806 58.7101 73.3539 59.1205 73.0685 59.4879L73.0333 59.5309H73.0294C72.9434 59.6482 72.8457 59.7576 72.748 59.8632C72.7324 59.8749 72.7167 59.8905 72.705 59.9062C72.3454 60.2658 71.9311 60.5589 71.4737 60.7817L60.2787 66.1406C59.7197 66.4103 59.0435 66.1719 58.7777 65.6129C58.508 65.0501 58.7464 64.3778 59.3054 64.1081L70.4965 58.7492V58.7531C70.7818 58.6163 71.032 58.4209 71.2352 58.1785C71.2938 58.1082 71.3525 58.03 71.3994 57.9479C71.4971 57.7994 71.5753 57.6391 71.6339 57.4749C71.6456 57.4319 71.6613 57.3929 71.6691 57.3499H71.673C71.7433 57.0919 71.7707 56.8261 71.7512 56.5603V56.5525C71.7355 56.2789 71.6613 56.0053 71.544 55.759L71.5362 55.7473C71.2782 55.2118 70.817 54.8014 70.2542 54.6099C69.6874 54.4066 69.062 54.4418 68.5226 54.7037L56.609 60.3714C56.2338 60.5433 55.8977 60.7896 55.6162 61.0945C55.3387 61.4033 55.1237 61.7629 54.983 62.1538L51.9968 70.3735ZM66.2559 75.5643C67.3582 75.9747 67.9249 77.1982 67.5184 78.3044L65.9627 82.5805C65.7711 83.116 65.3685 83.5537 64.8526 83.796C64.3366 84.0345 63.7464 84.0618 63.2109 83.8625L47.1148 78.0072C46.0008 77.6007 45.4262 76.3733 45.8287 75.2554L47.3883 70.9832C47.7518 69.967 48.815 69.3767 49.8704 69.6152L52.8684 61.3873C53.3374 60.0348 54.3381 58.9326 55.6396 58.3306L67.5422 52.6591C68.621 52.1431 69.86 52.0767 70.9897 52.4714C71.6502 52.7021 72.2482 53.0812 72.7369 53.5776L79.2488 35.6833C80.0149 33.5843 82.3366 32.5016 84.4357 33.2677C85.448 33.6312 86.2688 34.3817 86.7183 35.3549C87.1717 36.3282 87.2225 37.4421 86.8551 38.4507L76.4855 66.9217C76.0009 68.2858 74.9846 69.392 73.6674 69.9939L68.3788 72.4603C67.9997 72.6323 67.6557 72.8746 67.3704 73.1795C67.085 73.4922 66.8701 73.8596 66.7372 74.2544L66.2559 75.5643Z"/>
</mask>
<path d="M22.9662 74.7904L35.1029 70.3735L32.1088 62.1496V62.1535C31.9681 61.7626 31.757 61.403 31.4834 61.0942C31.2019 60.7893 30.8619 60.5431 30.4827 60.3711L18.5842 54.6995C18.0448 54.4376 17.4194 54.4024 16.8526 54.6018C16.2898 54.7933 15.8247 55.2037 15.5666 55.7392V55.7509C15.4454 56.0011 15.3751 56.2708 15.3555 56.5483V56.5561C15.3399 56.8219 15.3673 57.0877 15.4415 57.3457C15.4493 57.3887 15.4611 57.4278 15.4767 57.4668C15.5353 57.6388 15.6135 57.7991 15.7112 57.9476C15.934 58.2916 16.2428 58.5691 16.6102 58.745L27.7933 64.1117C28.3523 64.3814 28.5907 65.0537 28.321 65.6126C28.0552 66.1755 27.3829 66.41 26.82 66.1442L15.625 60.7814C15.1676 60.5626 14.7533 60.2655 14.3937 59.9059C14.382 59.8903 14.3624 59.8746 14.3468 59.8629C14.2491 59.7574 14.1552 59.644 14.0654 59.5307L14.0341 59.4877H14.0302C13.7448 59.1202 13.5181 58.7098 13.3579 58.2681C13.1742 57.756 13.0804 57.2127 13.0843 56.6655L5.7202 36.4497H5.72411C5.34887 35.5741 4.35604 35.1481 3.46098 35.4725C2.56588 35.8008 2.08511 36.7702 2.36649 37.6809L12.732 66.1519C12.8727 66.5428 13.0877 66.9063 13.3652 67.219C13.6506 67.5278 13.9946 67.774 14.3776 67.9421L19.6661 70.4085V70.4045C20.9834 71.0104 22.0035 72.1204 22.4882 73.4846L22.9662 74.7904ZM37.2292 69.6153C38.2846 69.3807 39.3477 69.9671 39.7113 70.9833L41.267 75.2555C41.4624 75.791 41.4389 76.3813 41.1966 76.9011C40.9543 77.417 40.5204 77.8157 39.9849 78.0112L23.8848 83.8704C23.3493 84.0658 22.759 84.0385 22.2431 83.8C21.7272 83.5577 21.3285 83.1199 21.133 82.5845L19.5773 78.3084C19.1708 77.2022 19.7376 75.9788 20.8398 75.5683L20.363 74.2589C20.0933 73.4537 19.4913 72.801 18.7135 72.4648L13.425 69.9984C12.7761 69.7013 12.1898 69.2753 11.7051 68.7476C11.2243 68.216 10.853 67.5985 10.6106 66.9223L0.245055 38.4513C-0.122367 37.4428 -0.0754575 36.3288 0.377949 35.3595C0.831356 34.3862 1.65215 33.6318 2.66059 33.2644C4.75962 32.4983 7.08139 33.581 7.84747 35.68L14.3633 53.5783C14.8558 53.0819 15.4538 52.7028 16.1105 52.4721C17.2401 52.0773 18.4792 52.1438 19.5541 52.6597L31.4566 58.3313C32.1015 58.6323 32.6762 59.0544 33.153 59.5782C33.6298 60.1059 33.9972 60.7234 34.2356 61.3919L37.2292 69.6153ZM21.7354 77.6398L23.2208 81.7127L39.1098 75.92L37.6284 71.851L21.7354 77.6398ZM49.4679 71.855L47.9865 75.924L63.8755 81.7167L65.3609 77.6438L49.4679 71.855ZM51.9968 70.3735L64.1335 74.7904L64.6104 73.4849C65.0951 72.1208 66.1113 71.0107 67.4286 70.4049L72.7171 67.9385L72.7132 67.9424C73.1002 67.7743 73.4441 67.5281 73.7294 67.2193C74.0109 66.9105 74.2258 66.547 74.3626 66.1522L84.7322 37.6812C84.8925 37.2356 84.869 36.7431 84.6697 36.3132C84.4703 35.8832 84.1107 35.551 83.6651 35.3868C83.2195 35.2226 82.727 35.2461 82.301 35.4532C81.871 35.6487 81.5349 36.0083 81.3707 36.45L74.0105 56.6657C74.0144 57.213 73.9245 57.7562 73.7369 58.2684C73.5806 58.7101 73.3539 59.1205 73.0685 59.4879L73.0333 59.5309H73.0294C72.9434 59.6482 72.8457 59.7576 72.748 59.8632C72.7324 59.8749 72.7167 59.8905 72.705 59.9062C72.3454 60.2658 71.9311 60.5589 71.4737 60.7817L60.2787 66.1406C59.7197 66.4103 59.0435 66.1719 58.7777 65.6129C58.508 65.0501 58.7464 64.3778 59.3054 64.1081L70.4965 58.7492V58.7531C70.7818 58.6163 71.032 58.4209 71.2352 58.1785C71.2938 58.1082 71.3525 58.03 71.3994 57.9479C71.4971 57.7994 71.5753 57.6391 71.6339 57.4749C71.6456 57.4319 71.6613 57.3929 71.6691 57.3499H71.673C71.7433 57.0919 71.7707 56.8261 71.7512 56.5603V56.5525C71.7355 56.2789 71.6613 56.0053 71.544 55.759L71.5362 55.7473C71.2782 55.2118 70.817 54.8014 70.2542 54.6099C69.6874 54.4066 69.062 54.4418 68.5226 54.7037L56.609 60.3714C56.2338 60.5433 55.8977 60.7896 55.6162 61.0945C55.3387 61.4033 55.1237 61.7629 54.983 62.1538L51.9968 70.3735ZM66.2559 75.5643C67.3582 75.9747 67.9249 77.1982 67.5184 78.3044L65.9627 82.5805C65.7711 83.116 65.3685 83.5537 64.8526 83.796C64.3366 84.0345 63.7464 84.0618 63.2109 83.8625L47.1148 78.0072C46.0008 77.6007 45.4262 76.3733 45.8287 75.2554L47.3883 70.9832C47.7518 69.967 48.815 69.3767 49.8704 69.6152L52.8684 61.3873C53.3374 60.0348 54.3381 58.9326 55.6396 58.3306L67.5422 52.6591C68.621 52.1431 69.86 52.0767 70.9897 52.4714C71.6502 52.7021 72.2482 53.0812 72.7369 53.5776L79.2488 35.6833C80.0149 33.5843 82.3366 32.5016 84.4357 33.2677C85.448 33.6312 86.2688 34.3817 86.7183 35.3549C87.1717 36.3282 87.2225 37.4421 86.8551 38.4507L76.4855 66.9217C76.0009 68.2858 74.9846 69.392 73.6674 69.9939L68.3788 72.4603C67.9997 72.6323 67.6557 72.8746 67.3704 73.1795C67.085 73.4922 66.8701 73.8596 66.7372 74.2544L66.2559 75.5643Z" fill="black"/>
<path d="M58.8674 53.1211H59.0674V52.6369L58.7257 52.98L58.8674 53.1211ZM55.2206 53.6957L55.3119 53.5177L55.3108 53.5172L55.2206 53.6957ZM59.0674 53.125V53.1211H58.6674V53.125H59.0674ZM58.7257 52.98C57.8257 53.8836 56.4464 54.0996 55.3119 53.5178L55.1293 53.8737C56.4182 54.5347 57.986 54.2895 59.0091 53.2623L58.7257 52.98ZM55.3108 53.5172L54.9082 53.3139L54.7279 53.671L55.1305 53.8742L55.3108 53.5172ZM22.9662 74.7904L22.5906 74.9279L22.7278 75.3029L23.103 75.1663L22.9662 74.7904ZM35.1029 70.3735L35.2397 70.7494L35.6156 70.6126L35.4787 70.2367L35.1029 70.3735ZM32.1088 62.1496L32.4846 62.0127L31.7088 62.1496H32.1088ZM32.1088 62.1535L31.7324 62.2889L32.5088 62.1535H32.1088ZM31.4834 61.0942L31.7828 60.8289L31.7773 60.8229L31.4834 61.0942ZM30.4827 60.3711L30.3106 60.7322L30.3175 60.7354L30.4827 60.3711ZM18.5842 54.6995L18.4095 55.0593L18.4121 55.0606L18.5842 54.6995ZM16.8526 54.6018L16.9815 54.9805L16.9853 54.9791L16.8526 54.6018ZM15.5666 55.7392L15.2063 55.5655L15.1666 55.6478V55.7392H15.5666ZM15.5666 55.7509L15.9266 55.9253L15.9666 55.8427V55.7509H15.5666ZM15.3555 56.5483L14.9565 56.5202L14.9555 56.5342V56.5483H15.3555ZM15.3555 56.5561L15.7548 56.5796L15.7555 56.5679V56.5561H15.3555ZM15.4415 57.3457L15.8351 57.2741L15.8315 57.2543L15.8259 57.235L15.4415 57.3457ZM15.4767 57.4668L15.8553 57.3378L15.852 57.3279L15.8481 57.3183L15.4767 57.4668ZM15.7112 57.9476L16.047 57.7302L16.0454 57.7278L15.7112 57.9476ZM16.6102 58.745L16.7833 58.3844L16.783 58.3842L16.6102 58.745ZM27.7933 64.1117L27.9671 63.7514L27.9664 63.7511L27.7933 64.1117ZM28.321 65.6126L27.9607 65.4388L27.9593 65.4418L28.321 65.6126ZM26.82 66.1442L26.6472 66.505L26.6492 66.5059L26.82 66.1442ZM15.625 60.7814L15.7978 60.4207L15.7977 60.4206L15.625 60.7814ZM14.3937 59.9059L14.0737 60.1459L14.0907 60.1686L14.1109 60.1887L14.3937 59.9059ZM14.3468 59.8629L14.0533 60.1347L14.0778 60.1612L14.1068 60.1829L14.3468 59.8629ZM14.0654 59.5307L13.7419 59.7659L13.7468 59.7727L13.7519 59.7792L14.0654 59.5307ZM14.0341 59.4877L14.3576 59.2524L14.2378 59.0877H14.0341V59.4877ZM14.0302 59.4877L13.7143 59.733L13.8344 59.8877H14.0302V59.4877ZM13.3579 58.2681L12.9814 58.4032L12.9818 58.4045L13.3579 58.2681ZM13.0843 56.6655L13.4842 56.6683L13.4848 56.5963L13.4601 56.5286L13.0843 56.6655ZM5.7202 36.4497V36.0497H5.14878L5.34436 36.5866L5.7202 36.4497ZM5.72411 36.4497V36.8497H6.33073L6.09177 36.2921L5.72411 36.4497ZM3.46098 35.4725L3.32466 35.0965L3.32323 35.097L3.46098 35.4725ZM2.36649 37.6809L1.98431 37.799L1.98724 37.8084L1.99062 37.8178L2.36649 37.6809ZM12.732 66.1519L13.1084 66.0164L13.1079 66.0151L12.732 66.1519ZM13.3652 67.219L13.066 67.4845L13.0715 67.4905L13.3652 67.219ZM14.3776 67.9421L14.5467 67.5795L14.5383 67.5758L14.3776 67.9421ZM19.6661 70.4085L19.4971 70.771L20.0661 71.0364V70.4085H19.6661ZM19.6661 70.4045L19.8333 70.0411L19.2661 69.7803V70.4045H19.6661ZM22.4882 73.4846L22.1113 73.6185L22.1126 73.6221L22.4882 73.4846ZM37.2292 69.6153L36.8533 69.7521L36.9734 70.0819L37.316 70.0057L37.2292 69.6153ZM39.7113 70.9833L39.3346 71.1181L39.3354 71.1202L39.7113 70.9833ZM41.267 75.2555L40.8911 75.3924L40.8912 75.3927L41.267 75.2555ZM41.1966 76.9011L41.5587 77.0711L41.5591 77.0701L41.1966 76.9011ZM39.9849 78.0112L40.1217 78.3871L40.1221 78.3869L39.9849 78.0112ZM23.8848 83.8704L23.748 83.4945L23.7476 83.4946L23.8848 83.8704ZM22.2431 83.8L22.0731 84.1621L22.0753 84.1631L22.2431 83.8ZM21.133 82.5845L20.7571 82.7212L20.7573 82.7216L21.133 82.5845ZM19.5773 78.3084L19.9532 78.1716L19.9528 78.1704L19.5773 78.3084ZM20.8398 75.5683L20.9794 75.9432L21.3516 75.8046L21.2157 75.4314L20.8398 75.5683ZM20.363 74.2589L19.9836 74.386L19.9871 74.3958L20.363 74.2589ZM18.7135 72.4648L18.5444 72.8274L18.5548 72.8319L18.7135 72.4648ZM13.425 69.9984L13.5941 69.6359L13.5915 69.6347L13.425 69.9984ZM11.7051 68.7476L11.4084 69.0159L11.4105 69.0182L11.7051 68.7476ZM10.6106 66.9223L10.9872 66.7873L10.9865 66.7854L10.6106 66.9223ZM0.245055 38.4513L0.620919 38.3144L0.620886 38.3143L0.245055 38.4513ZM0.377949 35.3595L0.740271 35.529L0.740535 35.5284L0.377949 35.3595ZM2.66059 33.2644L2.79753 33.6402L2.79773 33.6401L2.66059 33.2644ZM7.84747 35.68L8.22334 35.5432L8.22323 35.5429L7.84747 35.68ZM14.3633 53.5783L13.9874 53.7152L14.2031 54.3077L14.6472 53.86L14.3633 53.5783ZM16.1105 52.4721L15.9785 52.0945L15.9779 52.0947L16.1105 52.4721ZM19.5541 52.6597L19.381 53.0204L19.382 53.0208L19.5541 52.6597ZM31.4566 58.3313L31.2845 58.6924L31.2874 58.6938L31.4566 58.3313ZM33.153 59.5782L33.4497 59.31L33.4488 59.3089L33.153 59.5782ZM34.2356 61.3919L33.8589 61.5262L33.8598 61.5287L34.2356 61.3919ZM21.7354 77.6398L21.5985 77.264L21.2225 77.401L21.3596 77.7769L21.7354 77.6398ZM23.2208 81.7127L22.845 81.8498L22.982 82.2255L23.3578 82.0885L23.2208 81.7127ZM39.1098 75.92L39.2468 76.2958L39.6224 76.1588L39.4857 75.7831L39.1098 75.92ZM37.6284 71.851L38.0042 71.7141L37.8674 71.3382L37.4915 71.4751L37.6284 71.851ZM49.4679 71.855L49.6048 71.4791L49.2289 71.3422L49.0921 71.7181L49.4679 71.855ZM47.9865 75.924L47.6106 75.7871L47.4739 76.1628L47.8495 76.2998L47.9865 75.924ZM63.8755 81.7167L63.7385 82.0925L64.1143 82.2295L64.2513 81.8538L63.8755 81.7167ZM65.3609 77.6438L65.7367 77.7809L65.8738 77.405L65.4978 77.268L65.3609 77.6438ZM51.9968 70.3735L51.6209 70.237L51.4844 70.6127L51.86 70.7494L51.9968 70.3735ZM64.1335 74.7904L63.9967 75.1663L64.3722 75.303L64.5092 74.9277L64.1335 74.7904ZM64.6104 73.4849L64.9861 73.6222L64.9873 73.6188L64.6104 73.4849ZM67.4286 70.4049L67.5957 70.7683L67.5976 70.7674L67.4286 70.4049ZM72.7171 67.9385L72.9999 68.2214L72.548 67.576L72.7171 67.9385ZM72.7132 67.9424L72.4303 67.6596L72.8725 68.3093L72.7132 67.9424ZM73.7294 67.2193L74.0232 67.4908L74.0251 67.4887L73.7294 67.2193ZM74.3626 66.1522L73.9867 66.0153L73.9847 66.0213L74.3626 66.1522ZM84.7322 37.6812L85.108 37.8181L85.1086 37.8166L84.7322 37.6812ZM82.301 35.4532L82.4665 35.8175L82.4759 35.813L82.301 35.4532ZM81.3707 36.45L80.9957 36.3106L80.9948 36.3131L81.3707 36.45ZM74.0105 56.6657L73.6347 56.5289L73.61 56.5966L73.6105 56.6686L74.0105 56.6657ZM73.7369 58.2684L73.3613 58.1308L73.3598 58.1349L73.7369 58.2684ZM73.0685 59.4879L73.3782 59.7413L73.3845 59.7333L73.0685 59.4879ZM73.0333 59.5309V59.9309H73.2229L73.3429 59.7842L73.0333 59.5309ZM73.0294 59.5309V59.1309H72.8267L72.7069 59.2944L73.0294 59.5309ZM72.748 59.8632L72.988 60.1832L73.0169 60.1615L73.0415 60.1349L72.748 59.8632ZM72.705 59.9062L72.9879 60.189L73.008 60.1689L73.025 60.1462L72.705 59.9062ZM71.4737 60.7817L71.6464 61.1425L71.6489 61.1413L71.4737 60.7817ZM60.2787 66.1406L60.1059 65.7798L60.1048 65.7804L60.2787 66.1406ZM58.7777 65.6129L59.139 65.4412L59.1384 65.4401L58.7777 65.6129ZM59.3054 64.1081L59.1326 63.7473L59.1316 63.7478L59.3054 64.1081ZM70.4965 58.7492H70.8965V58.1142L70.3237 58.3884L70.4965 58.7492ZM70.4965 58.7531H70.0965V59.3885L70.6694 59.1138L70.4965 58.7531ZM71.2352 58.1785L71.5417 58.4356L71.5425 58.4346L71.2352 58.1785ZM71.3994 57.9479L71.0652 57.7281L71.0583 57.7386L71.0521 57.7495L71.3994 57.9479ZM71.6339 57.4749L72.0106 57.6095L72.0158 57.595L72.0198 57.5802L71.6339 57.4749ZM71.6691 57.3499V56.9499H71.3352L71.2755 57.2783L71.6691 57.3499ZM71.673 57.3499V57.7499H71.9785L72.0589 57.4551L71.673 57.3499ZM71.7512 56.5603H71.3512V56.575L71.3522 56.5896L71.7512 56.5603ZM71.7512 56.5525H72.1512V56.5411L72.1505 56.5297L71.7512 56.5525ZM71.544 55.759L71.9051 55.587L71.8928 55.5612L71.8769 55.5373L71.544 55.759ZM71.5362 55.7473L71.1758 55.9209L71.1879 55.9459L71.2033 55.969L71.5362 55.7473ZM70.2542 54.6099L70.1191 54.9864L70.1253 54.9885L70.2542 54.6099ZM68.5226 54.7037L68.6944 55.0649L68.6973 55.0635L68.5226 54.7037ZM56.609 60.3714L56.7757 60.735L56.7809 60.7326L56.609 60.3714ZM55.6162 61.0945L55.3223 60.8231L55.3187 60.8271L55.6162 61.0945ZM54.983 62.1538L55.359 62.2903L55.3594 62.2892L54.983 62.1538ZM66.2559 75.5643L65.8804 75.4264L65.743 75.8002L66.1163 75.9392L66.2559 75.5643ZM67.5184 78.3044L67.1429 78.1664L67.1425 78.1676L67.5184 78.3044ZM65.9627 82.5805L65.5868 82.4437L65.586 82.4458L65.9627 82.5805ZM64.8526 83.796L65.0204 84.1591L65.0226 84.1581L64.8526 83.796ZM63.2109 83.8625L63.3505 83.4876L63.3477 83.4866L63.2109 83.8625ZM47.1148 78.0072L46.9776 78.3829L46.978 78.3831L47.1148 78.0072ZM45.8287 75.2554L45.453 75.1183L45.4524 75.1199L45.8287 75.2554ZM47.3883 70.9832L47.7641 71.1204L47.765 71.118L47.3883 70.9832ZM49.8704 69.6152L49.7822 70.0053L50.1257 70.0829L50.2462 69.7521L49.8704 69.6152ZM52.8684 61.3873L53.2443 61.5242L53.2463 61.5183L52.8684 61.3873ZM55.6396 58.3306L55.8076 58.6937L55.8117 58.6917L55.6396 58.3306ZM67.5422 52.6591L67.7142 53.0202L67.7148 53.0199L67.5422 52.6591ZM70.9897 52.4714L70.8577 52.849L70.8578 52.8491L70.9897 52.4714ZM72.7369 53.5776L72.4518 53.8582L72.8961 54.3097L73.1127 53.7144L72.7369 53.5776ZM79.2488 35.6833L78.873 35.5462L78.8729 35.5465L79.2488 35.6833ZM84.4357 33.2677L84.2985 33.6435L84.3005 33.6442L84.4357 33.2677ZM86.7183 35.3549L86.3551 35.5226L86.3557 35.5238L86.7183 35.3549ZM86.8551 38.4507L86.4793 38.3138L86.4792 38.3138L86.8551 38.4507ZM76.4855 66.9217L76.1097 66.7848L76.1086 66.7878L76.4855 66.9217ZM73.6674 69.9939L73.5011 69.6301L73.4983 69.6314L73.6674 69.9939ZM68.3788 72.4603L68.5441 72.8246L68.5479 72.8228L68.3788 72.4603ZM67.3704 73.1795L67.0783 72.9061L67.0749 72.9099L67.3704 73.1795ZM66.7372 74.2544L67.1128 74.3924L67.1163 74.382L66.7372 74.2544ZM23.103 75.1663L35.2397 70.7494L34.9661 69.9977L22.8294 74.4146L23.103 75.1663ZM35.4787 70.2367L32.4846 62.0127L31.7329 62.2864L34.727 70.5104L35.4787 70.2367ZM31.7088 62.1496V62.1535H32.5088V62.1496H31.7088ZM32.4851 62.018C32.3277 61.5807 32.091 61.1768 31.7828 60.8289L31.184 61.3595C31.423 61.6292 31.6084 61.9445 31.7324 62.2889L32.4851 62.018ZM31.7773 60.8229C31.4598 60.4789 31.076 60.201 30.648 60.0068L30.3175 60.7354C30.6478 60.8852 30.9441 61.0997 31.1894 61.3655L31.7773 60.8229ZM30.6549 60.01L18.7563 54.3384L18.4121 55.0606L30.3106 60.7322L30.6549 60.01ZM18.7589 54.3397C18.1232 54.031 17.3871 53.9898 16.7199 54.2244L16.9853 54.9791C17.4517 54.8151 17.9664 54.8442 18.4095 55.0593L18.7589 54.3397ZM16.7238 54.2231C16.0599 54.449 15.5111 54.9329 15.2063 55.5655L15.927 55.9128C16.1382 55.4745 16.5196 55.1376 16.9815 54.9805L16.7238 54.2231ZM15.1666 55.7392V55.7509H15.9666V55.7392H15.1666ZM15.2066 55.5766C15.0626 55.8739 14.9795 56.1934 14.9565 56.5202L15.7546 56.5764C15.7706 56.3481 15.8283 56.1283 15.9266 55.9253L15.2066 55.5766ZM14.9555 56.5483V56.5561H15.7555V56.5483H14.9555ZM14.9562 56.5326C14.9381 56.8416 14.9698 57.1529 15.0571 57.4563L15.8259 57.235C15.7647 57.0225 15.7418 56.8022 15.7548 56.5796L14.9562 56.5326ZM15.048 57.4172C15.061 57.4889 15.0807 57.5538 15.1053 57.6154L15.8481 57.3183C15.8415 57.3017 15.8377 57.2884 15.8351 57.2741L15.048 57.4172ZM15.0981 57.5959C15.1674 57.7992 15.2604 57.9901 15.3771 58.1675L16.0454 57.7278C15.9667 57.6081 15.9033 57.4785 15.8553 57.3378L15.0981 57.5959ZM15.3755 58.1651C15.6366 58.5681 16.0006 58.8966 16.4375 59.1058L16.783 58.3842C16.485 58.2416 16.2315 58.0151 16.047 57.7302L15.3755 58.1651ZM16.4372 59.1056L27.6203 64.4723L27.9664 63.7511L16.7833 58.3844L16.4372 59.1056ZM27.6195 64.4719C27.9816 64.6467 28.1334 65.0809 27.9607 65.4388L28.6812 65.7865C29.048 65.0265 28.7229 64.1161 27.9671 63.7514L27.6195 64.4719ZM27.9593 65.4418C27.7895 65.8013 27.3576 65.9557 26.9908 65.7825L26.6492 66.5059C27.4082 66.8643 28.3209 66.5497 28.6827 65.7834L27.9593 65.4418ZM26.9928 65.7835L15.7978 60.4207L15.4522 61.1422L26.6472 66.505L26.9928 65.7835ZM15.7977 60.4206C15.3828 60.2221 15.0054 59.9519 14.6765 59.623L14.1109 60.1887C14.5013 60.5791 14.9525 60.903 15.4523 61.1422L15.7977 60.4206ZM14.7137 59.6659C14.6635 59.5989 14.6 59.5528 14.5868 59.5429L14.1068 60.1829C14.1111 60.1861 14.1103 60.1857 14.107 60.1829C14.1052 60.1812 14.1013 60.1777 14.0962 60.1725C14.0913 60.1674 14.0831 60.1585 14.0737 60.1459L14.7137 59.6659ZM14.6403 59.5911C14.5523 59.4961 14.4656 59.3916 14.3788 59.2821L13.7519 59.7792C13.8449 59.8964 13.9458 60.0186 14.0533 60.1347L14.6403 59.5911ZM14.3888 59.2954L14.3576 59.2524L13.7106 59.7229L13.7419 59.7659L14.3888 59.2954ZM14.0341 59.0877H14.0302V59.8877H14.0341V59.0877ZM14.3461 59.2423C14.0864 58.9079 13.8799 58.5343 13.7339 58.1317L12.9818 58.4045C13.1563 58.8854 13.4033 59.3326 13.7143 59.733L14.3461 59.2423ZM13.7344 58.133C13.5664 57.6647 13.4807 57.1681 13.4842 56.6683L12.6843 56.6626C12.68 57.2574 12.782 57.8473 12.9814 58.4032L13.7344 58.133ZM13.4601 56.5286L6.09604 36.3128L5.34436 36.5866L12.7084 56.8024L13.4601 56.5286ZM5.7202 36.8497H5.72411V36.0497H5.7202V36.8497ZM6.09177 36.2921C5.63238 35.2202 4.41759 34.7003 3.32466 35.0965L3.59729 35.8486C4.2945 35.5958 5.06536 35.928 5.35645 36.6073L6.09177 36.2921ZM3.32323 35.097C2.2286 35.4985 1.64001 36.6846 1.98431 37.799L2.74866 37.5628C2.53021 36.8558 2.90316 36.1032 3.59873 35.848L3.32323 35.097ZM1.99062 37.8178L12.3562 66.2887L13.1079 66.0151L2.74235 37.5441L1.99062 37.8178ZM12.3557 66.2874C12.5135 66.7259 12.7546 67.1336 13.0661 67.4845L13.6644 66.9535C13.4209 66.679 13.232 66.3597 13.1084 66.0164L12.3557 66.2874ZM13.0715 67.4905C13.3937 67.8391 13.7827 68.1179 14.2169 68.3084L14.5383 67.5758C14.2064 67.4302 13.9075 67.2164 13.659 66.9475L13.0715 67.4905ZM14.2085 68.3046L19.4971 70.771L19.8352 70.0459L14.5467 67.5796L14.2085 68.3046ZM20.0661 70.4085V70.4045H19.2661V70.4085H20.0661ZM19.499 70.768C20.719 71.3291 21.663 72.3569 22.1113 73.6185L22.8651 73.3507C22.344 71.884 21.2477 70.6917 19.8333 70.0411L19.499 70.768ZM22.1126 73.6221L22.5906 74.9279L23.3418 74.6529L22.8638 73.3471L22.1126 73.6221ZM37.316 70.0057C38.1748 69.8149 39.0391 70.292 39.3346 71.1181L40.0879 70.8486C39.6563 69.6421 38.3943 68.9466 37.1424 69.2248L37.316 70.0057ZM39.3354 71.1202L40.8911 75.3924L41.6428 75.1187L40.0871 70.8465L39.3354 71.1202ZM40.8912 75.3927C41.0505 75.8291 41.0312 76.3091 40.8341 76.7321L41.5591 77.0701C41.8467 76.4534 41.8743 75.753 41.6427 75.1184L40.8912 75.3927ZM40.8345 76.731C40.6368 77.1521 40.2834 77.4764 39.8478 77.6354L40.1221 78.3869C40.7574 78.155 41.2717 77.682 41.5587 77.0711L40.8345 76.731ZM39.8481 77.6353L23.748 83.4945L24.0215 84.2463L40.1217 78.3871L39.8481 77.6353ZM23.7476 83.4946C23.3127 83.6534 22.8321 83.6316 22.4109 83.4369L22.0753 84.1631C22.686 84.4454 23.3858 84.4783 24.0219 84.2461L23.7476 83.4946ZM22.4132 83.438C21.9934 83.2408 21.6683 82.8842 21.5088 82.4473L20.7573 82.7216C20.9887 83.3556 21.461 83.8746 22.0731 84.1621L22.4132 83.438ZM21.5089 82.4477L19.9532 78.1716L19.2014 78.4451L20.7571 82.7212L21.5089 82.4477ZM19.9528 78.1704C19.6226 77.2718 20.0826 76.2771 20.9794 75.9432L20.7002 75.1935C19.3926 75.6804 18.7191 77.1325 19.2019 78.4463L19.9528 78.1704ZM21.2157 75.4314L20.7388 74.122L19.9871 74.3958L20.464 75.7052L21.2157 75.4314ZM20.7423 74.1318C20.4363 73.2185 19.7539 72.4787 18.8722 72.0976L18.5548 72.8319C19.2288 73.1232 19.7502 73.6889 19.9837 74.3859L20.7423 74.1318ZM18.8826 72.1022L13.594 69.6359L13.2559 70.3609L18.5445 72.8273L18.8826 72.1022ZM13.5915 69.6347C12.9912 69.3599 12.4484 68.9655 11.9997 68.477L11.4105 69.0182C11.9312 69.5851 12.5611 70.0428 13.2585 70.3621L13.5915 69.6347ZM12.0018 68.4793C11.5558 67.9862 11.2118 67.4139 10.9871 66.7873L10.2341 67.0572C10.4942 67.7831 10.8928 68.4458 11.4084 69.0159L12.0018 68.4793ZM10.9865 66.7854L0.620919 38.3144L-0.13081 38.5881L10.2347 67.0591L10.9865 66.7854ZM0.620886 38.3143C0.289589 37.405 0.332229 36.4013 0.74027 35.529L0.0156279 35.19C-0.483144 36.2563 -0.534323 37.4806 -0.130776 38.5882L0.620886 38.3143ZM0.740535 35.5284C1.1493 34.651 1.88912 33.9712 2.79753 33.6402L2.52365 32.8885C1.41518 33.2924 0.513411 34.1215 0.0153633 35.1906L0.740535 35.5284ZM2.79773 33.6401C4.68884 32.9499 6.78123 33.9253 7.47171 35.8171L8.22323 35.5429C7.38155 33.2367 4.8304 32.0466 2.52345 32.8886L2.79773 33.6401ZM7.4716 35.8168L13.9874 53.7152L14.7392 53.4415L8.22334 35.5432L7.4716 35.8168ZM14.6472 53.86C15.0976 53.4062 15.6439 53.0599 16.243 52.8495L15.9779 52.0947C15.2636 52.3456 14.614 52.7577 14.0793 53.2966L14.6472 53.86ZM16.2425 52.8497C17.2729 52.4896 18.4023 52.5506 19.381 53.0204L19.7272 52.2991C18.5561 51.737 17.2073 51.6651 15.9785 52.0945L16.2425 52.8497ZM19.382 53.0208L31.2845 58.6924L31.6287 57.9702L19.7261 52.2986L19.382 53.0208ZM31.2874 58.6938C31.8848 58.9725 32.4162 59.3631 32.8572 59.8475L33.4488 59.3089C32.9361 58.7458 32.3183 58.2921 31.6257 57.9689L31.2874 58.6938ZM32.8562 59.8464C33.2975 60.3348 33.638 60.9068 33.8589 61.5262L34.6124 61.2575C34.3565 60.5401 33.9621 59.877 33.4497 59.31L32.8562 59.8464ZM33.8598 61.5287L36.8533 69.7521L37.6051 69.4784L34.6115 61.255L33.8598 61.5287ZM21.3596 77.7769L22.845 81.8498L23.5965 81.5757L22.1112 77.5028L21.3596 77.7769ZM23.3578 82.0885L39.2468 76.2958L38.9728 75.5441L23.0837 81.3369L23.3578 82.0885ZM39.4857 75.7831L38.0042 71.7141L37.2525 71.9878L38.7339 76.0568L39.4857 75.7831ZM37.4915 71.4751L21.5985 77.264L21.8723 78.0157L37.7653 72.2268L37.4915 71.4751ZM49.0921 71.7181L47.6106 75.7871L48.3624 76.0608L49.8438 71.9918L49.0921 71.7181ZM47.8495 76.2998L63.7385 82.0925L64.0126 81.3409L48.1235 75.5482L47.8495 76.2998ZM64.2513 81.8538L65.7367 77.7809L64.9851 77.5068L63.4998 81.5797L64.2513 81.8538ZM65.4978 77.268L49.6048 71.4791L49.331 72.2308L65.224 78.0197L65.4978 77.268ZM51.86 70.7494L63.9967 75.1663L64.2703 74.4146L52.1336 69.9977L51.86 70.7494ZM64.5092 74.9277L64.9861 73.6222L64.2347 73.3477L63.7578 74.6532L64.5092 74.9277ZM64.9873 73.6188C65.4358 72.3566 66.3762 71.3291 67.5957 70.7683L67.2614 70.0415C65.8465 70.6922 64.7544 71.8849 64.2335 73.351L64.9873 73.6188ZM67.5976 70.7674L72.8862 68.301L72.548 67.576L67.2595 70.0424L67.5976 70.7674ZM72.4343 67.6557L72.4303 67.6596L72.996 68.2253L72.9999 68.2214L72.4343 67.6557ZM72.8725 68.3093C73.3114 68.1187 73.7009 67.8396 74.0232 67.4908L73.4356 66.9479C73.1873 67.2166 72.8889 67.43 72.5538 67.5755L72.8725 68.3093ZM74.0251 67.4887C74.3435 67.1394 74.5862 66.7286 74.7406 66.2832L73.9847 66.0213C73.8654 66.3654 73.6783 66.6816 73.4338 66.9499L74.0251 67.4887ZM74.7385 66.2891L85.108 37.8181L84.3563 37.5443L73.9868 66.0153L74.7385 66.2891ZM85.1086 37.8166C85.3048 37.271 85.2757 36.6695 85.0326 36.1449L84.3068 36.4814C84.4623 36.8168 84.4801 37.2003 84.3558 37.5459L85.1086 37.8166ZM85.0326 36.1449C84.7888 35.6191 84.3485 35.2123 83.8034 35.0115L83.5268 35.7621C83.8729 35.8896 84.1519 36.1473 84.3068 36.4814L85.0326 36.1449ZM83.8034 35.0115C83.2564 34.8099 82.6508 34.8384 82.1261 35.0935L82.4759 35.813C82.8033 35.6538 83.1827 35.6353 83.5268 35.7621L83.8034 35.0115ZM82.1354 35.0891C81.6091 35.3283 81.1972 35.7685 80.9957 36.3106L81.7456 36.5893C81.8725 36.2481 82.1329 35.969 82.4665 35.8174L82.1354 35.0891ZM80.9948 36.3131L73.6347 56.5289L74.3864 56.8026L81.7465 36.5868L80.9948 36.3131ZM73.6105 56.6686C73.6141 57.1702 73.5317 57.6657 73.3613 58.1308L74.1125 58.406C74.3174 57.8467 74.4148 57.2557 74.4105 56.6629L73.6105 56.6686ZM73.3598 58.1349C73.2181 58.5353 73.0124 58.9081 72.7526 59.2426L73.3845 59.7333C73.6954 59.3329 73.943 58.8848 74.114 58.4018L73.3598 58.1349ZM72.7589 59.2346L72.7238 59.2776L73.3429 59.7842L73.3781 59.7412L72.7589 59.2346ZM73.0333 59.1309H73.0294V59.9309H73.0333V59.1309ZM72.7069 59.2944C72.635 59.3924 72.5502 59.4881 72.4545 59.5914L73.0415 60.1349C73.1413 60.0272 73.2519 59.904 73.352 59.7675L72.7069 59.2944ZM72.508 59.5432C72.462 59.5776 72.4195 59.6202 72.385 59.6662L73.025 60.1462C73.0185 60.1548 73.0127 60.1612 73.0079 60.166C73.0031 60.1708 72.9967 60.1767 72.988 60.1832L72.508 59.5432ZM72.4222 59.6233C72.0946 59.9509 71.7169 60.2183 71.2986 60.4221L71.6489 61.1413C72.1453 60.8995 72.5962 60.5807 72.9879 60.189L72.4222 59.6233ZM71.301 60.4209L60.1059 65.7798L60.4514 66.5014L71.6464 61.1425L71.301 60.4209ZM60.1048 65.7804C59.7454 65.9538 59.3094 65.7996 59.1389 65.4412L58.4165 65.7847C58.7776 66.5442 59.694 66.8668 60.4525 66.5009L60.1048 65.7804ZM59.1384 65.4401C58.9644 65.0768 59.1181 64.6426 59.4792 64.4683L59.1316 63.7478C58.3748 64.1129 58.0516 65.0233 58.417 65.7858L59.1384 65.4401ZM59.4781 64.4689L70.6692 59.11L70.3237 58.3884L59.1326 63.7473L59.4781 64.4689ZM70.0965 58.7492V58.7531H70.8965V58.7492H70.0965ZM70.6694 59.1138C71.0069 58.952 71.3024 58.7209 71.5417 58.4356L70.9287 57.9215C70.7615 58.1208 70.5567 58.2806 70.3235 58.3924L70.6694 59.1138ZM71.5425 58.4346C71.6093 58.3544 71.6838 58.2563 71.7467 58.1463L71.0521 57.7495C71.0211 57.8037 70.9784 57.8619 70.9279 57.9225L71.5425 58.4346ZM71.7335 58.1677C71.8499 57.9909 71.9419 57.8017 72.0106 57.6095L71.2572 57.3404C71.2086 57.4765 71.1443 57.6078 71.0652 57.7281L71.7335 58.1677ZM72.0198 57.5802C72.0233 57.5674 72.0254 57.562 72.0351 57.5307C72.0427 57.5059 72.0543 57.467 72.0626 57.4214L71.2755 57.2783C71.276 57.2757 71.2759 57.2779 71.2708 57.2941C71.2696 57.298 71.2683 57.3021 71.2667 57.3073C71.2652 57.3121 71.2633 57.3181 71.2614 57.3243C71.2575 57.3366 71.2527 57.3523 71.248 57.3697L72.0198 57.5802ZM71.6691 57.7499H71.673V56.9499H71.6691V57.7499ZM72.0589 57.4551C72.1407 57.1551 72.1731 56.8438 72.1501 56.531L71.3522 56.5896C71.3683 56.8084 71.346 57.0287 71.2871 57.2446L72.0589 57.4551ZM72.1512 56.5603V56.5525H71.3512V56.5603H72.1512ZM72.1505 56.5297C72.1317 56.2005 72.043 55.8765 71.9051 55.587L71.1828 55.931C71.2795 56.134 71.3393 56.3572 71.3518 56.5753L72.1505 56.5297ZM71.8769 55.5373L71.8691 55.5256L71.2033 55.969L71.2111 55.9807L71.8769 55.5373ZM71.8966 55.5737C71.5923 54.9422 71.048 54.4575 70.383 54.2312L70.1253 54.9885C70.5859 55.1453 70.9641 55.4814 71.1758 55.9209L71.8966 55.5737ZM70.3892 54.2333C69.7207 53.9936 68.9837 54.0352 68.3479 54.3438L68.6973 55.0635C69.1404 54.8484 69.6541 54.8196 70.1191 54.9864L70.3892 54.2333ZM68.3507 54.3425L56.4372 60.0102L56.7809 60.7326L68.6944 55.0649L68.3507 54.3425ZM56.4424 60.0077C56.0177 60.2024 55.6387 60.4805 55.3223 60.8232L55.9101 61.3658C56.1567 61.0987 56.4499 60.8843 56.7757 60.735L56.4424 60.0077ZM55.3187 60.8271C55.0066 61.1744 54.7649 61.5788 54.6067 62.0183L55.3594 62.2892C55.4826 61.947 55.6708 61.6322 55.9137 61.3619L55.3187 60.8271ZM54.6071 62.0172L51.6209 70.237L52.3728 70.5101L55.359 62.2903L54.6071 62.0172ZM66.1163 75.9392C67.0131 76.2731 67.4731 77.2678 67.1429 78.1664L67.8938 78.4424C68.3767 77.1285 67.7032 75.6764 66.3954 75.1895L66.1163 75.9392ZM67.1425 78.1676L65.5868 82.4437L66.3386 82.7172L67.8943 78.4411L67.1425 78.1676ZM65.586 82.4458C65.431 82.8792 65.1039 83.2361 64.6826 83.434L65.0226 84.1581C65.6332 83.8714 66.1113 83.3528 66.3393 82.7152L65.586 82.4458ZM64.6848 83.4329C64.2636 83.6275 63.784 83.649 63.3505 83.4876L63.0714 84.2373C63.7088 84.4746 64.4096 84.4414 65.0204 84.1591L64.6848 83.4329ZM63.3477 83.4866L47.2515 77.6313L46.978 78.3831L63.0742 84.2384L63.3477 83.4866ZM47.2519 77.6314C46.3449 77.3005 45.8771 76.3018 46.2051 75.391L45.4524 75.1199C44.9753 76.4449 45.6566 77.9009 46.9776 78.3829L47.2519 77.6314ZM46.2045 75.3926L47.7641 71.1204L47.0126 70.8461L45.453 75.1183L46.2045 75.3926ZM47.765 71.118C48.0609 70.2907 48.9256 69.8118 49.7822 70.0053L49.9585 69.225C48.7045 68.9417 47.4428 69.6433 47.0117 70.8485L47.765 71.118ZM50.2462 69.7521L53.2442 61.5242L52.4926 61.2503L49.4946 69.4782L50.2462 69.7521ZM53.2463 61.5183C53.6796 60.269 54.6041 59.2503 55.8076 58.6937L55.4717 57.9676C54.0721 58.6149 52.9953 59.8006 52.4905 61.2562L53.2463 61.5183ZM55.8117 58.6917L67.7142 53.0202L67.3701 52.298L55.4676 57.9695L55.8117 58.6917ZM67.7148 53.0199C68.6978 52.5497 69.8274 52.489 70.8577 52.849L71.1216 52.0938C69.8927 51.6643 68.5441 51.7365 67.3696 52.2982L67.7148 53.0199ZM70.8578 52.8491C71.4606 53.0595 72.0061 53.4055 72.4518 53.8582L73.0219 53.2971C72.4903 52.7569 71.8399 52.3446 71.1215 52.0938L70.8578 52.8491ZM73.1127 53.7144L79.6247 35.8201L78.8729 35.5465L72.361 53.4408L73.1127 53.7144ZM79.6245 35.8205C80.315 33.9286 82.4074 32.9533 84.2985 33.6435L84.5728 32.8919C82.2658 32.05 79.7147 33.24 78.873 35.5462L79.6245 35.8205ZM84.3005 33.6442C85.2123 33.9716 85.9508 34.6471 86.3552 35.5226L87.0814 35.1872C86.5868 34.1163 85.6837 33.2908 84.5708 32.8912L84.3005 33.6442ZM86.3557 35.5238C86.7646 36.4016 86.8101 37.4056 86.4793 38.3138L87.2309 38.5876C87.6349 37.4787 87.5788 36.2548 87.0809 35.186L86.3557 35.5238ZM86.4792 38.3138L76.1097 66.7848L76.8614 67.0586L87.2309 38.5876L86.4792 38.3138ZM76.1086 66.7878C75.6603 68.0496 74.7203 69.073 73.5011 69.6301L73.8336 70.3577C75.2489 69.7111 76.3414 68.5221 76.8625 67.0556L76.1086 66.7878ZM73.4983 69.6314L68.2098 72.0978L68.5479 72.8228L73.8364 70.3564L73.4983 69.6314ZM68.2136 72.096C67.7887 72.2888 67.4011 72.5613 67.0783 72.9062L67.6624 73.4528C67.9104 73.1879 68.2107 72.9758 68.5441 72.8246L68.2136 72.096ZM67.0749 72.9099C66.7519 73.2638 66.5086 73.6797 66.3581 74.1267L67.1163 74.382C67.2315 74.0395 67.4182 73.7205 67.6659 73.4491L67.0749 72.9099ZM66.3617 74.1164L65.8804 75.4264L66.6313 75.7023L67.1126 74.3923L66.3617 74.1164Z" fill="white" mask="url(#path-4-inside-2_10_467)"/>
</svg>
