<svg width="88" height="88" viewBox="0 0 88 88" fill="none" xmlns="http://www.w3.org/2000/svg">
<path d="M56.5 64.5L30 65V72H56.5V64.5Z" fill="#DD0004"/>
<path d="M39.5 50.5V45.5H39L34.5 42.5L31.5 43.5L31 46L31.5 50.5H39.5Z" fill="#DD0004"/>
<mask id="path-3-inside-1_9_192" fill="white">
<path fill-rule="evenodd" clip-rule="evenodd" d="M44.5272 63.2418L45.9425 63.2381C46.087 62.7528 46.25 62.0637 46.413 61.3931H46.4093C46.7168 60.1075 47.0132 58.859 47.4133 58.37L47.4948 58.2774L47.4911 58.2737C47.9357 57.8365 48.6803 57.6031 49.3509 57.3993C49.6028 57.3215 49.8436 57.2474 49.977 57.1882C50.3845 57.0103 50.7327 56.8325 51.0032 56.6917L51.0884 56.651C51.6923 56.3435 52.0294 56.1879 52.6074 56.2472C53.1631 56.3064 53.5706 56.5584 54.4228 57.0807C54.6562 57.2252 54.9525 57.4105 55.4639 57.7105L55.7862 57.9069L55.8677 57.9588C56.227 58.1773 56.679 58.4478 57.0495 58.6479L60.6395 55.0617C60.4024 54.6171 60.0541 54.0429 59.7466 53.5316C59.5355 53.1796 59.3391 52.8573 59.1613 52.5313C59.0279 52.2867 58.8686 52.0126 58.7426 51.794C58.3907 51.1864 58.224 50.8975 58.2165 50.3936C58.2091 49.9305 58.3462 49.6711 58.6055 49.1784C58.713 48.971 58.8612 48.6931 59.0724 48.2115C59.3725 47.5335 59.5095 47.0742 59.6058 46.7481C59.9245 45.6663 60.0245 45.3292 61.2285 44.9994C61.5064 44.9216 61.9324 44.8142 62.4214 44.6882C63.3476 44.4511 64.5146 44.151 65.2371 43.9361L65.226 38.8309C64.6703 38.6642 63.8664 38.4605 63.1884 38.29C62.7253 38.1752 62.3178 38.0714 62.0733 38.0011C61.9288 37.9603 61.8287 37.9344 61.7213 37.9084C61.4583 37.8418 61.1767 37.7714 60.9729 37.7047C60.043 37.3861 59.9763 37.1749 59.7503 36.3969L59.6985 36.2117C59.2428 34.7445 58.8612 34.0592 58.6352 33.6443C58.424 33.2627 58.2906 33.0219 58.2462 32.6329C58.1721 31.9919 58.3869 31.6215 58.9538 30.6434L59.2205 30.184L60.5913 27.6684L57.0681 24.1377C56.4679 24.46 55.5751 24.9824 54.9971 25.3196L53.9486 25.9309C53.2669 26.3347 52.9446 26.5273 52.4037 26.5347C51.9184 26.5421 51.6294 26.3977 51.0885 26.1198L51.0848 26.1235C50.844 26.0012 50.5291 25.8382 50.1994 25.69C49.5214 25.3863 49.0546 25.2492 48.7249 25.1529C47.6505 24.8379 47.3244 24.7416 46.9947 23.5376C46.9095 23.219 46.8169 22.8707 46.7132 22.4669C46.4687 21.5259 46.15 20.2848 45.9315 19.5513H44.531V30.2429C47.2799 30.4503 49.7511 31.6507 51.5886 33.4846C53.6114 35.5074 54.8636 38.3045 54.8636 41.3906C54.8636 44.4767 53.6114 47.2738 51.5886 49.2966C49.7548 51.1304 47.2836 52.3308 44.531 52.5383L44.5272 63.2418ZM44.5272 32.5697C46.639 32.7697 48.5359 33.7107 49.9548 35.1297C51.5627 36.7375 52.5556 38.9568 52.5556 41.4056C52.5556 43.8581 51.5627 46.0774 49.9548 47.6815C48.5359 49.1005 46.639 50.0415 44.5272 50.2415V32.5697ZM56.7828 63.2674C56.8273 63.2637 56.8717 63.26 56.9162 63.26C57.5534 63.26 58.0683 63.775 58.0683 64.4121V74.8486C58.0683 74.8968 58.0646 74.9487 58.0572 74.9968C57.9831 76.4787 57.4311 77.8495 56.5419 78.9425C55.6305 80.065 54.3598 80.8949 52.8779 81.2542C52.8334 81.2654 52.7926 81.2728 52.7482 81.2765C52.5296 82.5695 51.9072 83.729 51.0181 84.6182L50.9477 84.6811C49.8288 85.7666 48.3099 86.4335 46.6464 86.4335H40.1001C38.3995 86.4335 36.8546 85.7371 35.7321 84.6145L35.7284 84.6182C34.8392 83.729 34.2168 82.5694 33.9983 81.2765C33.9538 81.2691 33.913 81.2617 33.8686 81.2543C32.3867 80.8949 31.116 80.065 30.2045 78.9425C29.2931 77.8236 28.7374 76.4084 28.6855 74.8858V74.8487H28.6818V64.3572L28.6855 64.2535C28.6781 63.5236 28.4966 62.7901 28.1372 62.0492C27.7408 61.2378 27.1369 60.4265 26.3218 59.6114C23.9508 57.3293 22.0317 54.5766 20.7239 51.5016C19.4643 48.5378 18.7641 45.2813 18.7641 41.8694C18.7641 35.0748 21.5204 28.9215 25.9737 24.4677C30.4268 20.0182 36.5809 17.2618 43.3754 17.2618H46.7283V17.2655C47.1321 17.2655 47.5211 17.4804 47.7323 17.8546C48.0138 18.3621 48.5584 20.459 48.9289 21.9039L49.1994 22.9487C49.2105 22.982 49.229 22.9264 49.355 22.9635C49.7477 23.0783 50.3071 23.2413 51.1259 23.6081C51.6112 23.8267 51.8965 23.9712 52.1188 24.086L52.1151 24.0897C52.3225 24.1972 52.2707 24.2565 52.3522 24.2528C52.43 24.2528 52.43 24.1601 52.7634 23.9638L53.8193 23.3451C54.6825 22.8412 56.194 21.9595 56.8535 21.7112C57.2721 21.5371 57.7686 21.6223 58.1094 21.9595L62.8033 26.6645C63.1516 27.0164 63.2442 27.5648 62.996 28.0242C62.3106 29.2838 61.5955 30.5434 60.9176 31.8068C60.6286 32.3069 60.4953 32.2884 60.5064 32.3921C60.5138 32.4551 60.5434 32.4107 60.6175 32.5403C60.888 33.0294 61.34 33.8407 61.866 35.5449L61.8846 35.5894L62.6885 35.7969C62.9478 35.871 63.3146 35.9636 63.7333 36.071C64.8521 36.3563 66.2859 36.7193 66.8713 37.0194C67.2454 37.2084 67.5048 37.5974 67.5048 38.0456L67.5196 44.655C67.5566 45.1033 67.3306 45.5516 66.9046 45.7739C66.3637 46.0555 64.4113 46.5556 62.9775 46.9223C62.507 47.0446 62.0958 47.1483 61.8216 47.2224C61.7845 47.2335 61.8438 47.2595 61.7994 47.404C61.6845 47.8004 61.5178 48.3561 61.1696 49.1452C60.9658 49.6046 60.7731 49.9713 60.6287 50.2455C60.5472 50.4011 60.5027 50.2604 60.5027 50.3715C60.5027 50.4789 60.5731 50.3863 60.725 50.6494C60.8287 50.8309 60.9584 51.0495 61.1696 51.4385C61.2585 51.6015 61.4734 51.9572 61.7105 52.3499C62.2551 53.2538 62.9182 54.3468 63.1072 55.0062C63.2146 55.3952 63.1183 55.8287 62.8108 56.1362L58.1465 60.7931C57.8612 61.1006 57.4203 61.2451 56.9868 61.1229C56.3903 60.9562 55.3753 60.3449 54.6713 59.9225L54.5898 59.8781L54.2749 59.6891C53.9304 59.4854 53.5377 59.2409 53.2042 59.0334C52.6596 58.6963 52.3966 58.5332 52.3633 58.5295C52.3225 58.5258 52.304 58.5629 52.2114 58.6296C52.1558 58.6703 52.1002 58.7074 52.0372 58.7407C51.7705 58.8778 51.426 59.0519 50.8851 59.289C50.6369 59.4002 50.3331 59.4928 50.0182 59.5891C49.6736 59.6965 49.2994 59.8114 49.1587 59.8781C49.0697 60.1263 48.8586 61.0117 48.6437 61.9194H48.64C48.5326 62.3714 48.4251 62.8233 48.314 63.2457L56.7828 63.2674ZM42.2226 19.5952C36.5209 19.8842 31.3821 22.3145 27.5997 26.0972C23.5615 30.1354 21.0682 35.7114 21.0682 41.8723C21.0682 44.9769 21.7017 47.9296 22.8391 50.6045C24.0246 53.3905 25.7659 55.8875 27.9184 57.9585L27.9332 57.9733C28.9446 58.981 29.7004 60.0035 30.2079 61.0446V61.0483C30.5562 61.7633 30.7859 62.4894 30.9007 63.223L38.3288 63.2342V52.5833H34.9834V52.587C33.4237 52.587 32.0122 51.9535 30.9934 50.9347V50.931C29.9709 49.9085 29.341 48.4969 29.341 46.941C29.341 45.3813 29.9746 43.9697 30.9934 42.9472C32.0159 41.9247 33.4274 41.2949 34.9834 41.2949C36.5431 41.2949 37.9546 41.9284 38.9771 42.9472L38.9734 42.9509C39.9959 43.9734 40.6295 45.385 40.6295 46.941V50.2863H42.2263L42.2226 19.5952ZM42.2226 52.5824H40.6258V63.2371L42.2226 63.2408V52.5824ZM44.1157 65.5379L43.4822 65.5416H43.3748C43.3266 65.5416 43.2821 65.5379 43.2377 65.5342L39.5699 65.5268C39.5366 65.5305 39.507 65.5305 39.4736 65.5305C39.4403 65.5305 39.4069 65.5305 39.3736 65.5268L30.9822 65.512V70.858H55.7674V65.5527L44.1157 65.5379ZM67.3673 64.771L73.1246 70.5283C73.5729 70.9766 74.3027 70.9766 74.7509 70.5283C75.1992 70.08 75.1992 69.3501 74.7509 68.9019L68.9937 63.1447C68.5454 62.6964 67.8156 62.6964 67.3673 63.1447C66.9191 63.593 66.9191 64.3191 67.3673 64.771ZM75.4549 43.0236C74.8176 43.0236 74.3027 42.5087 74.3027 41.8715C74.3027 41.2343 74.8177 40.7193 75.4549 40.7193H83.598C84.2315 40.7193 84.7501 41.2343 84.7501 41.8715C84.7501 42.5087 84.2351 43.0236 83.598 43.0236H75.4549ZM73.1246 13.078L67.3673 18.839C66.9191 19.2872 66.9191 20.0171 67.3673 20.4653C67.8156 20.9135 68.5455 20.9136 68.9937 20.4653L74.7509 14.7081C75.1992 14.2598 75.1992 13.5299 74.7509 13.0817C74.3064 12.6297 73.5728 12.6297 73.1246 13.078ZM38.3259 50.2886V46.9432C38.3259 46.017 37.9517 45.1797 37.3516 44.5795H37.3478C36.744 43.9756 35.9067 43.6015 34.9842 43.6015C34.0616 43.6015 33.2244 43.9757 32.6205 44.5795C32.0166 45.1834 31.6425 46.0207 31.6425 46.9432C31.6425 47.8694 32.0167 48.7067 32.6168 49.3106L32.6205 49.3069C33.2244 49.9107 34.0616 50.2849 34.9842 50.2849V50.2886H38.3259ZM17.7564 63.1407L11.9992 68.8979C11.5509 69.3462 11.5509 70.0761 11.9992 70.5243C12.4474 70.9726 13.1773 70.9726 13.6255 70.5243L19.3828 64.7671C19.831 64.3188 19.831 63.5889 19.3828 63.1407C18.9345 62.6924 18.2046 62.6924 17.7564 63.1407ZM11.2952 40.719C11.9325 40.719 12.4474 41.2339 12.4474 41.8711C12.4474 42.5083 11.9324 43.0233 11.2952 43.0233H3.15215C2.51492 43.0233 2 42.5083 2 41.8711C2 41.2339 2.51497 40.719 3.15215 40.719H11.2952ZM11.9954 14.7074L17.7527 20.4646C18.201 20.9129 18.9308 20.9129 19.379 20.4646C19.8273 20.0164 19.8273 19.2865 19.379 18.8383L13.6218 13.0774C13.1735 12.6291 12.4437 12.6291 11.9954 13.0774C11.5472 13.5256 11.5472 14.2554 11.9954 14.7074ZM42.2227 2.15215C42.2227 1.51492 42.7377 1 43.3749 1C44.0121 1 44.527 1.51497 44.527 2.15215V10.2952C44.527 10.9325 44.0121 11.4474 43.3749 11.4474C42.7377 11.4474 42.2227 10.9324 42.2227 10.2952V2.15215ZM50.3955 81.2718L47.9911 81.2644L43.3749 81.257C41.0372 81.257 38.6957 81.2607 36.3544 81.2681C36.5359 81.9238 36.8878 82.5129 37.3584 82.9834V82.9871C38.0586 83.6873 39.0329 84.1244 40.1036 84.1244H46.6499C47.6947 84.1244 48.6468 83.7095 49.3432 83.0353L49.3951 82.9834C49.8619 82.5166 50.214 81.9275 50.3955 81.2718ZM51.6403 78.9822H51.7404L52.4665 78.9859C53.3927 78.734 54.1855 78.1968 54.7635 77.4892C55.3526 76.7667 55.7156 75.8628 55.7675 74.8884V73.162L30.9823 73.1657V74.8439H30.9786C31.0193 75.8368 31.3861 76.7593 31.9826 77.4892C32.5605 78.2005 33.3533 78.734 34.2796 78.9859L35.0391 78.9822H35.0835C37.8473 78.9711 40.611 78.9636 43.3748 78.9636L47.9947 78.9711L51.6403 78.9822Z"/>
</mask>
<path fill-rule="evenodd" clip-rule="evenodd" d="M44.5272 63.2418L45.9425 63.2381C46.087 62.7528 46.25 62.0637 46.413 61.3931H46.4093C46.7168 60.1075 47.0132 58.859 47.4133 58.37L47.4948 58.2774L47.4911 58.2737C47.9357 57.8365 48.6803 57.6031 49.3509 57.3993C49.6028 57.3215 49.8436 57.2474 49.977 57.1882C50.3845 57.0103 50.7327 56.8325 51.0032 56.6917L51.0884 56.651C51.6923 56.3435 52.0294 56.1879 52.6074 56.2472C53.1631 56.3064 53.5706 56.5584 54.4228 57.0807C54.6562 57.2252 54.9525 57.4105 55.4639 57.7105L55.7862 57.9069L55.8677 57.9588C56.227 58.1773 56.679 58.4478 57.0495 58.6479L60.6395 55.0617C60.4024 54.6171 60.0541 54.0429 59.7466 53.5316C59.5355 53.1796 59.3391 52.8573 59.1613 52.5313C59.0279 52.2867 58.8686 52.0126 58.7426 51.794C58.3907 51.1864 58.224 50.8975 58.2165 50.3936C58.2091 49.9305 58.3462 49.6711 58.6055 49.1784C58.713 48.971 58.8612 48.6931 59.0724 48.2115C59.3725 47.5335 59.5095 47.0742 59.6058 46.7481C59.9245 45.6663 60.0245 45.3292 61.2285 44.9994C61.5064 44.9216 61.9324 44.8142 62.4214 44.6882C63.3476 44.4511 64.5146 44.151 65.2371 43.9361L65.226 38.8309C64.6703 38.6642 63.8664 38.4605 63.1884 38.29C62.7253 38.1752 62.3178 38.0714 62.0733 38.0011C61.9288 37.9603 61.8287 37.9344 61.7213 37.9084C61.4583 37.8418 61.1767 37.7714 60.9729 37.7047C60.043 37.3861 59.9763 37.1749 59.7503 36.3969L59.6985 36.2117C59.2428 34.7445 58.8612 34.0592 58.6352 33.6443C58.424 33.2627 58.2906 33.0219 58.2462 32.6329C58.1721 31.9919 58.3869 31.6215 58.9538 30.6434L59.2205 30.184L60.5913 27.6684L57.0681 24.1377C56.4679 24.46 55.5751 24.9824 54.9971 25.3196L53.9486 25.9309C53.2669 26.3347 52.9446 26.5273 52.4037 26.5347C51.9184 26.5421 51.6294 26.3977 51.0885 26.1198L51.0848 26.1235C50.844 26.0012 50.5291 25.8382 50.1994 25.69C49.5214 25.3863 49.0546 25.2492 48.7249 25.1529C47.6505 24.8379 47.3244 24.7416 46.9947 23.5376C46.9095 23.219 46.8169 22.8707 46.7132 22.4669C46.4687 21.5259 46.15 20.2848 45.9315 19.5513H44.531V30.2429C47.2799 30.4503 49.7511 31.6507 51.5886 33.4846C53.6114 35.5074 54.8636 38.3045 54.8636 41.3906C54.8636 44.4767 53.6114 47.2738 51.5886 49.2966C49.7548 51.1304 47.2836 52.3308 44.531 52.5383L44.5272 63.2418ZM44.5272 32.5697C46.639 32.7697 48.5359 33.7107 49.9548 35.1297C51.5627 36.7375 52.5556 38.9568 52.5556 41.4056C52.5556 43.8581 51.5627 46.0774 49.9548 47.6815C48.5359 49.1005 46.639 50.0415 44.5272 50.2415V32.5697ZM56.7828 63.2674C56.8273 63.2637 56.8717 63.26 56.9162 63.26C57.5534 63.26 58.0683 63.775 58.0683 64.4121V74.8486C58.0683 74.8968 58.0646 74.9487 58.0572 74.9968C57.9831 76.4787 57.4311 77.8495 56.5419 78.9425C55.6305 80.065 54.3598 80.8949 52.8779 81.2542C52.8334 81.2654 52.7926 81.2728 52.7482 81.2765C52.5296 82.5695 51.9072 83.729 51.0181 84.6182L50.9477 84.6811C49.8288 85.7666 48.3099 86.4335 46.6464 86.4335H40.1001C38.3995 86.4335 36.8546 85.7371 35.7321 84.6145L35.7284 84.6182C34.8392 83.729 34.2168 82.5694 33.9983 81.2765C33.9538 81.2691 33.913 81.2617 33.8686 81.2543C32.3867 80.8949 31.116 80.065 30.2045 78.9425C29.2931 77.8236 28.7374 76.4084 28.6855 74.8858V74.8487H28.6818V64.3572L28.6855 64.2535C28.6781 63.5236 28.4966 62.7901 28.1372 62.0492C27.7408 61.2378 27.1369 60.4265 26.3218 59.6114C23.9508 57.3293 22.0317 54.5766 20.7239 51.5016C19.4643 48.5378 18.7641 45.2813 18.7641 41.8694C18.7641 35.0748 21.5204 28.9215 25.9737 24.4677C30.4268 20.0182 36.5809 17.2618 43.3754 17.2618H46.7283V17.2655C47.1321 17.2655 47.5211 17.4804 47.7323 17.8546C48.0138 18.3621 48.5584 20.459 48.9289 21.9039L49.1994 22.9487C49.2105 22.982 49.229 22.9264 49.355 22.9635C49.7477 23.0783 50.3071 23.2413 51.1259 23.6081C51.6112 23.8267 51.8965 23.9712 52.1188 24.086L52.1151 24.0897C52.3225 24.1972 52.2707 24.2565 52.3522 24.2528C52.43 24.2528 52.43 24.1601 52.7634 23.9638L53.8193 23.3451C54.6825 22.8412 56.194 21.9595 56.8535 21.7112C57.2721 21.5371 57.7686 21.6223 58.1094 21.9595L62.8033 26.6645C63.1516 27.0164 63.2442 27.5648 62.996 28.0242C62.3106 29.2838 61.5955 30.5434 60.9176 31.8068C60.6286 32.3069 60.4953 32.2884 60.5064 32.3921C60.5138 32.4551 60.5434 32.4107 60.6175 32.5403C60.888 33.0294 61.34 33.8407 61.866 35.5449L61.8846 35.5894L62.6885 35.7969C62.9478 35.871 63.3146 35.9636 63.7333 36.071C64.8521 36.3563 66.2859 36.7193 66.8713 37.0194C67.2454 37.2084 67.5048 37.5974 67.5048 38.0456L67.5196 44.655C67.5566 45.1033 67.3306 45.5516 66.9046 45.7739C66.3637 46.0555 64.4113 46.5556 62.9775 46.9223C62.507 47.0446 62.0958 47.1483 61.8216 47.2224C61.7845 47.2335 61.8438 47.2595 61.7994 47.404C61.6845 47.8004 61.5178 48.3561 61.1696 49.1452C60.9658 49.6046 60.7731 49.9713 60.6287 50.2455C60.5472 50.4011 60.5027 50.2604 60.5027 50.3715C60.5027 50.4789 60.5731 50.3863 60.725 50.6494C60.8287 50.8309 60.9584 51.0495 61.1696 51.4385C61.2585 51.6015 61.4734 51.9572 61.7105 52.3499C62.2551 53.2538 62.9182 54.3468 63.1072 55.0062C63.2146 55.3952 63.1183 55.8287 62.8108 56.1362L58.1465 60.7931C57.8612 61.1006 57.4203 61.2451 56.9868 61.1229C56.3903 60.9562 55.3753 60.3449 54.6713 59.9225L54.5898 59.8781L54.2749 59.6891C53.9304 59.4854 53.5377 59.2409 53.2042 59.0334C52.6596 58.6963 52.3966 58.5332 52.3633 58.5295C52.3225 58.5258 52.304 58.5629 52.2114 58.6296C52.1558 58.6703 52.1002 58.7074 52.0372 58.7407C51.7705 58.8778 51.426 59.0519 50.8851 59.289C50.6369 59.4002 50.3331 59.4928 50.0182 59.5891C49.6736 59.6965 49.2994 59.8114 49.1587 59.8781C49.0697 60.1263 48.8586 61.0117 48.6437 61.9194H48.64C48.5326 62.3714 48.4251 62.8233 48.314 63.2457L56.7828 63.2674ZM42.2226 19.5952C36.5209 19.8842 31.3821 22.3145 27.5997 26.0972C23.5615 30.1354 21.0682 35.7114 21.0682 41.8723C21.0682 44.9769 21.7017 47.9296 22.8391 50.6045C24.0246 53.3905 25.7659 55.8875 27.9184 57.9585L27.9332 57.9733C28.9446 58.981 29.7004 60.0035 30.2079 61.0446V61.0483C30.5562 61.7633 30.7859 62.4894 30.9007 63.223L38.3288 63.2342V52.5833H34.9834V52.587C33.4237 52.587 32.0122 51.9535 30.9934 50.9347V50.931C29.9709 49.9085 29.341 48.4969 29.341 46.941C29.341 45.3813 29.9746 43.9697 30.9934 42.9472C32.0159 41.9247 33.4274 41.2949 34.9834 41.2949C36.5431 41.2949 37.9546 41.9284 38.9771 42.9472L38.9734 42.9509C39.9959 43.9734 40.6295 45.385 40.6295 46.941V50.2863H42.2263L42.2226 19.5952ZM42.2226 52.5824H40.6258V63.2371L42.2226 63.2408V52.5824ZM44.1157 65.5379L43.4822 65.5416H43.3748C43.3266 65.5416 43.2821 65.5379 43.2377 65.5342L39.5699 65.5268C39.5366 65.5305 39.507 65.5305 39.4736 65.5305C39.4403 65.5305 39.4069 65.5305 39.3736 65.5268L30.9822 65.512V70.858H55.7674V65.5527L44.1157 65.5379ZM67.3673 64.771L73.1246 70.5283C73.5729 70.9766 74.3027 70.9766 74.7509 70.5283C75.1992 70.08 75.1992 69.3501 74.7509 68.9019L68.9937 63.1447C68.5454 62.6964 67.8156 62.6964 67.3673 63.1447C66.9191 63.593 66.9191 64.3191 67.3673 64.771ZM75.4549 43.0236C74.8176 43.0236 74.3027 42.5087 74.3027 41.8715C74.3027 41.2343 74.8177 40.7193 75.4549 40.7193H83.598C84.2315 40.7193 84.7501 41.2343 84.7501 41.8715C84.7501 42.5087 84.2351 43.0236 83.598 43.0236H75.4549ZM73.1246 13.078L67.3673 18.839C66.9191 19.2872 66.9191 20.0171 67.3673 20.4653C67.8156 20.9135 68.5455 20.9136 68.9937 20.4653L74.7509 14.7081C75.1992 14.2598 75.1992 13.5299 74.7509 13.0817C74.3064 12.6297 73.5728 12.6297 73.1246 13.078ZM38.3259 50.2886V46.9432C38.3259 46.017 37.9517 45.1797 37.3516 44.5795H37.3478C36.744 43.9756 35.9067 43.6015 34.9842 43.6015C34.0616 43.6015 33.2244 43.9757 32.6205 44.5795C32.0166 45.1834 31.6425 46.0207 31.6425 46.9432C31.6425 47.8694 32.0167 48.7067 32.6168 49.3106L32.6205 49.3069C33.2244 49.9107 34.0616 50.2849 34.9842 50.2849V50.2886H38.3259ZM17.7564 63.1407L11.9992 68.8979C11.5509 69.3462 11.5509 70.0761 11.9992 70.5243C12.4474 70.9726 13.1773 70.9726 13.6255 70.5243L19.3828 64.7671C19.831 64.3188 19.831 63.5889 19.3828 63.1407C18.9345 62.6924 18.2046 62.6924 17.7564 63.1407ZM11.2952 40.719C11.9325 40.719 12.4474 41.2339 12.4474 41.8711C12.4474 42.5083 11.9324 43.0233 11.2952 43.0233H3.15215C2.51492 43.0233 2 42.5083 2 41.8711C2 41.2339 2.51497 40.719 3.15215 40.719H11.2952ZM11.9954 14.7074L17.7527 20.4646C18.201 20.9129 18.9308 20.9129 19.379 20.4646C19.8273 20.0164 19.8273 19.2865 19.379 18.8383L13.6218 13.0774C13.1735 12.6291 12.4437 12.6291 11.9954 13.0774C11.5472 13.5256 11.5472 14.2554 11.9954 14.7074ZM42.2227 2.15215C42.2227 1.51492 42.7377 1 43.3749 1C44.0121 1 44.527 1.51497 44.527 2.15215V10.2952C44.527 10.9325 44.0121 11.4474 43.3749 11.4474C42.7377 11.4474 42.2227 10.9324 42.2227 10.2952V2.15215ZM50.3955 81.2718L47.9911 81.2644L43.3749 81.257C41.0372 81.257 38.6957 81.2607 36.3544 81.2681C36.5359 81.9238 36.8878 82.5129 37.3584 82.9834V82.9871C38.0586 83.6873 39.0329 84.1244 40.1036 84.1244H46.6499C47.6947 84.1244 48.6468 83.7095 49.3432 83.0353L49.3951 82.9834C49.8619 82.5166 50.214 81.9275 50.3955 81.2718ZM51.6403 78.9822H51.7404L52.4665 78.9859C53.3927 78.734 54.1855 78.1968 54.7635 77.4892C55.3526 76.7667 55.7156 75.8628 55.7675 74.8884V73.162L30.9823 73.1657V74.8439H30.9786C31.0193 75.8368 31.3861 76.7593 31.9826 77.4892C32.5605 78.2005 33.3533 78.734 34.2796 78.9859L35.0391 78.9822H35.0835C37.8473 78.9711 40.611 78.9636 43.3748 78.9636L47.9947 78.9711L51.6403 78.9822Z" fill="black" stroke="black" stroke-width="2" mask="url(#path-3-inside-1_9_192)"/>
</svg>
