<svg width="86" height="86" viewBox="0 0 86 86" fill="none" xmlns="http://www.w3.org/2000/svg">
<path d="M30.5 31L27 38.5L29.5 40L31 42L30.5 45L27 47.5L30.5 54L34 53L37 54L39 57V59.5L46.5 59L47 56L48 54L51.5 53L55.5 54L59 47.5L57.5 46L56 45L55.5 42.5V40L59 37.5L55.5 31.5L53.5 32.5L50.5 33L48 32.5L47 29.5L46.5 27H39L38.5 30L37 32.5L34 33L30.5 31Z" fill="#DD0004"/>
<path d="M43 50.8275C47.3164 50.8275 50.8275 47.3164 50.8275 43C50.8275 38.6836 47.3164 35.1726 43 35.1726C38.6836 35.1726 35.1726 38.6836 35.1726 43C35.1726 47.3164 38.6836 50.8275 43 50.8275ZM43 37.2526C46.1688 37.2526 48.7475 39.8313 48.7475 43C48.7475 46.1688 46.1688 48.7475 43 48.7475C39.8313 48.7475 37.2526 46.1688 37.2526 43C37.2526 39.8313 39.8313 37.2526 43 37.2526Z" fill="black" stroke="black" stroke-width="0.8"/>
<path d="M31.364 55.8468C31.6657 55.8234 31.9429 55.67 32.1217 55.4263C33.1048 54.0897 34.9207 53.7007 36.3457 54.5254C37.7675 55.3461 38.3424 57.1092 37.6822 58.6265C37.5614 58.9028 37.5675 59.2186 37.6985 59.4908C37.8295 59.764 38.0722 59.9651 38.3637 60.0443C39.9125 60.4648 41.4725 60.6781 43 60.6781C44.5275 60.6781 46.0875 60.4648 47.6364 60.0443C47.9278 59.9651 48.1706 59.764 48.3016 59.4908C48.4326 59.2186 48.4387 58.9028 48.3178 58.6265C47.6577 57.1092 48.2325 55.3461 49.6544 54.5254C51.0793 53.6997 52.8953 54.0887 53.8784 55.4263C54.0571 55.67 54.3344 55.8234 54.636 55.8468C54.9346 55.8701 55.2353 55.7614 55.4485 55.5482C57.6738 53.3412 59.2744 50.5594 60.0778 47.5054C60.155 47.2129 60.1011 46.9021 59.9305 46.6533C59.7599 46.4045 59.4897 46.241 59.1901 46.2075C57.5468 46.0196 56.3078 44.6414 56.3078 43.0001C56.3078 41.3589 57.5468 39.9807 59.1901 39.7928C59.4897 39.7593 59.7599 39.5957 59.9305 39.3469C60.1011 39.0981 60.155 38.7873 60.0778 38.4948C59.2744 35.4408 57.6738 32.659 55.4485 30.4521C55.2353 30.2388 54.9346 30.1311 54.636 30.1535C54.3344 30.1768 54.0571 30.3302 53.8784 30.5739C52.8963 31.9105 51.0803 32.2964 49.6544 31.4748C48.2325 30.6542 47.6577 28.8911 48.3178 27.3737C48.4387 27.0975 48.4326 26.7816 48.3016 26.5094C48.1706 26.2362 47.9278 26.0351 47.6364 25.9559C44.5387 25.115 41.4614 25.115 38.3637 25.9559C38.0722 26.0351 37.8295 26.2362 37.6985 26.5094C37.5675 26.7816 37.5614 27.0975 37.6822 27.3737C38.3424 28.8911 37.7675 30.6542 36.3457 31.4748C34.9197 32.2954 33.1028 31.9105 32.1217 30.5739C31.9429 30.3302 31.6657 30.1768 31.364 30.1535C31.0644 30.1321 30.7658 30.2388 30.5515 30.4521C28.3263 32.659 26.7257 35.4408 25.9223 38.4948C25.8451 38.7873 25.8989 39.0981 26.0696 39.3469C26.2402 39.5957 26.5103 39.7593 26.81 39.7928C28.4532 39.9807 29.6923 41.3589 29.6923 43.0001C29.6923 44.6414 28.4532 46.0196 26.81 46.2075C26.5103 46.241 26.2402 46.4045 26.0696 46.6533C25.8989 46.9021 25.8451 47.2129 25.9223 47.5054C26.7257 50.5594 28.3263 53.3412 30.5515 55.5482C30.7658 55.7614 31.0634 55.8691 31.364 55.8468ZM31.7723 43.0001C31.7723 40.717 30.3189 38.7436 28.24 38.0032C28.8981 36.0492 29.934 34.2485 31.2828 32.7088C32.9636 34.1459 35.4032 34.4201 37.3857 33.2765C39.3641 32.1339 40.3462 29.8874 39.9471 27.716C41.9986 27.2996 44.0014 27.2996 46.053 27.716C45.6539 29.8874 46.637 32.1339 48.6144 33.2765C50.5969 34.4201 53.0354 34.1459 54.7173 32.7088C56.066 34.2485 57.102 36.0492 57.7601 38.0032C55.6811 38.7436 54.2278 40.717 54.2278 43.0001C54.2278 45.2832 55.6811 47.2566 57.7601 47.997C57.102 49.9511 56.066 51.7518 54.7173 53.2914C53.0354 51.8533 50.5969 51.5801 48.6144 52.7237C46.636 53.8663 45.6539 56.1129 46.053 58.2843C44.0014 58.7007 41.9986 58.7007 39.9471 58.2843C40.3462 56.1129 39.3641 53.8663 37.3857 52.7237C35.4032 51.5801 32.9636 51.8533 31.2828 53.2914C29.934 51.7518 28.8981 49.9511 28.24 47.997C30.3189 47.2566 31.7723 45.2832 31.7723 43.0001Z" fill="black" stroke="black" stroke-width="0.8"/>
<path d="M11.9808 84.5604C14.6752 84.5604 17.3666 83.5377 19.4131 81.4912C21.4038 79.5016 22.4956 76.8508 22.4874 74.0284C22.4803 71.5576 21.6304 69.2143 20.0753 67.3274L27.1333 60.2693C31.3137 64.1132 36.8865 66.465 43 66.465C49.079 66.465 54.6247 64.1411 58.797 60.3358L65.858 67.3968C62.4426 71.5493 62.6586 77.699 66.5188 81.5593C68.5653 83.6058 71.2567 84.6285 73.9512 84.6285C76.6649 84.6285 79.3827 83.5925 81.4536 81.5217C85.5821 77.3942 85.5984 70.6941 81.4912 66.5869C79.5087 64.6034 76.8701 63.5126 74.0598 63.5126C74.0497 63.5126 74.0385 63.5126 74.0284 63.5126C71.5576 63.5197 69.2143 64.3697 67.3273 65.9248L60.2692 58.8667C64.1131 54.6864 66.465 49.1135 66.465 43.0001C66.465 36.9211 64.1411 31.3754 60.3357 27.203L67.397 20.1418C69.3479 21.7461 71.7384 22.5504 74.1269 22.5504C76.8213 22.5504 79.5127 21.5277 81.5592 19.4812C85.6664 15.374 85.6502 8.67396 81.5216 4.54646C77.3941 0.419976 70.6941 0.401694 66.5869 4.50888C64.5963 6.49849 63.5045 9.14927 63.5126 11.9717C63.5197 14.4425 64.3696 16.7858 65.9248 18.6727L58.8667 25.7308C54.6864 21.8869 49.1135 19.5351 43 19.5351C36.921 19.5351 31.3754 21.859 27.203 25.6643L20.142 18.6033C23.5575 14.4508 23.3414 8.3011 19.4812 4.44083C15.374 0.333647 8.67391 0.350913 4.54641 4.47841C0.417897 8.60591 0.401647 15.306 4.50883 19.4132C6.49133 21.3967 9.12993 22.4875 11.9402 22.4875C11.9503 22.4875 11.9615 22.4875 11.9716 22.4875C14.4424 22.4804 16.7857 21.6304 18.6727 20.0753L25.7308 27.1334C21.8869 31.3137 19.535 36.8866 19.535 43.0001C19.535 49.079 21.8589 54.6247 25.6643 58.7971L18.6032 65.8582C14.4507 62.4436 8.30099 62.6587 4.44079 66.5189C0.3336 70.6261 0.34985 77.3261 4.47837 81.4536C6.54922 83.5245 9.26704 84.5604 11.9808 84.5604ZM74.0345 65.5926C74.0426 65.5926 74.0507 65.5926 74.0588 65.5926C76.3145 65.5926 78.4311 66.4671 80.0205 68.0575C83.3163 71.3543 83.3 76.734 79.983 80.0511C76.6659 83.3671 71.2862 83.3854 67.9895 80.0886C64.6938 76.7919 64.71 71.4122 68.027 68.0951C69.6348 66.4874 71.7686 65.5987 74.0345 65.5926ZM68.0575 5.97951C69.6988 4.33826 71.857 3.51865 74.0192 3.51865C76.1998 3.51865 78.3854 4.35248 80.051 6.01708C83.368 9.33412 83.3843 14.7139 80.0886 18.0106C76.7929 21.3063 71.4131 21.289 68.0951 17.973C66.4873 16.3653 65.5987 14.2315 65.5926 11.9656C65.5855 9.70076 66.4609 7.57505 68.0575 5.97951ZM11.9656 20.4075C11.9574 20.4075 11.9493 20.4075 11.9412 20.4075C9.68547 20.4075 7.56891 19.533 5.97946 17.9426C2.68376 14.6458 2.70001 9.26607 6.01704 5.94904C7.68266 4.28341 9.86727 3.4506 12.0488 3.4506C14.2111 3.4506 16.3693 4.27021 18.0106 5.91146C21.3063 9.20818 21.29 14.5879 17.973 17.905C16.3652 19.5127 14.2314 20.4014 11.9656 20.4075ZM43 21.6151C54.7914 21.6151 64.385 31.2086 64.385 43.0001C64.385 54.7915 54.7914 64.3851 43 64.3851C31.2086 64.3851 21.615 54.7915 21.615 43.0001C21.615 31.2086 31.2086 21.6151 43 21.6151ZM5.91141 67.9895C7.55266 66.3483 9.71087 65.5286 11.8731 65.5286C14.0537 65.5286 16.2393 66.3625 17.9049 68.0271C19.5127 69.6348 20.4013 71.7686 20.4074 74.0345C20.4145 76.2993 19.5391 78.425 17.9425 80.0206C14.6458 83.3163 9.26602 83.299 5.94899 79.983C2.63196 76.666 2.61571 71.2862 5.91141 67.9895Z" fill="black" stroke="black" stroke-width="0.8"/>
</svg>
