<svg width="200" height="200" viewBox="0 0 200 200" fill="none" xmlns="http://www.w3.org/2000/svg">
<mask id="path-1-inside-1_226_4569" fill="white">
<path fill-rule="evenodd" clip-rule="evenodd" d="M33.7571 102.329H19.9199C18.7918 105.346 15.6592 107.132 12.4861 106.564C9.31298 105.988 7 103.229 7 99.9994C7 96.7698 9.31298 94.0109 12.4861 93.4346C15.6592 92.8666 18.792 94.6518 19.9199 97.6705H33.7571V102.329ZM86.8979 52.4721C82.9538 53.5513 79.1554 55.1335 75.6009 57.1623C74.4161 57.852 72.9146 57.6411 71.9652 56.6673L67.6801 52.3828C65.7161 50.4352 62.5429 50.4352 60.5789 52.3828L52.2685 60.6922C50.3208 62.6641 50.3208 65.8369 52.2685 67.8006L56.5455 72.0771C57.5193 73.0346 57.7303 74.5358 57.0405 75.7124C55.0116 79.2666 53.4371 83.0643 52.3497 87.016C52.0007 88.3306 50.7997 89.2476 49.4444 89.2395H43.4389C40.6634 89.2395 38.4071 91.4871 38.4071 94.2624V105.939C38.4071 107.27 38.9347 108.552 39.8842 109.494C40.8256 110.434 42.0998 110.97 43.4388 110.97H49.485C50.8484 110.962 52.0415 111.871 52.3903 113.194C53.4778 117.137 55.0521 120.935 57.0892 124.49C57.7709 125.674 57.568 127.167 56.586 128.124L52.309 132.401V132.409C50.3613 134.373 50.3613 137.546 52.309 139.51L60.6194 147.819C62.5834 149.766 65.7568 149.766 67.7206 147.819L71.9976 143.542H72.0057C72.9552 142.561 74.4566 142.358 75.6415 143.039C79.1961 145.077 82.9943 146.651 86.9384 147.738C88.2613 148.087 89.1702 149.28 89.1621 150.643V156.688C89.1621 158.027 89.6977 159.301 90.6391 160.243C91.5805 161.184 92.8546 161.719 94.1936 161.719H105.872H105.864C107.203 161.719 108.477 161.184 109.426 160.243C110.368 159.301 110.896 158.027 110.896 156.688V150.497C110.888 149.134 111.804 147.94 113.12 147.592C117.071 146.505 120.862 144.931 124.425 142.893C125.601 142.212 127.102 142.415 128.06 143.396L132.296 147.778C133.246 148.736 134.536 149.271 135.876 149.271C137.222 149.271 138.513 148.736 139.463 147.778L147.773 139.47C149.721 137.506 149.721 134.332 147.773 132.361L143.496 128.084C142.514 127.127 142.311 125.634 142.993 124.449C145.03 120.895 146.604 117.097 147.692 113.145C148.041 111.831 149.234 110.922 150.597 110.93H156.644C157.974 110.93 159.257 110.394 160.198 109.453C161.139 108.511 161.675 107.229 161.675 105.899V94.1652C161.675 92.8263 161.139 91.5523 160.198 90.6111C159.257 89.6617 157.974 89.1342 156.644 89.1342H150.492C149.128 89.1423 147.935 88.2254 147.586 86.9109C146.499 82.9673 144.925 79.1694 142.888 75.6154C142.206 74.4306 142.409 72.9294 143.391 71.98L147.773 67.6955C148.731 66.746 149.267 65.4558 149.267 64.1168C149.267 62.7697 148.731 61.4796 147.773 60.53L139.463 52.2207C137.499 50.2732 134.325 50.2732 132.354 52.2207L128.077 56.4971C127.119 57.4789 125.625 57.6818 124.44 57.0002C120.886 54.9635 117.088 53.3892 113.135 52.3019C111.821 51.953 110.912 50.7601 110.92 49.3969V43.4569C110.92 42.118 110.384 40.8441 109.443 39.9029C108.502 38.9535 107.22 38.426 105.889 38.426H94.1536C91.37 38.426 89.1218 40.6817 89.1218 43.4571V49.5026C89.13 50.8658 88.2129 52.0587 86.8982 52.4075L86.8979 52.4721ZM99.9884 68.5472C108.331 68.5472 116.334 71.8662 122.234 77.7573C128.125 83.6565 131.444 91.6576 131.444 99.9994C131.444 108.341 128.125 116.342 122.234 122.242C116.334 128.133 108.331 131.452 99.9884 131.452C91.6455 131.452 83.6435 128.133 77.7435 122.242C71.8517 116.342 68.5323 108.341 68.5323 99.9994C68.5323 91.6576 71.8517 83.6565 77.7435 77.7573C83.6435 71.8662 91.6455 68.5472 99.9884 68.5472ZM31.6542 46.3217C34.8842 46.3136 37.6597 48.6262 38.2279 51.8071C38.8041 54.9879 37.0105 58.1204 33.9834 59.24V75.526H51.854C51.083 77.0435 50.377 78.5772 49.7765 80.1595H31.6542C30.3881 80.1514 29.3574 79.1209 29.3493 77.8549V59.1588C26.3222 58.039 24.5286 54.9067 25.1048 51.7259C25.6729 48.545 28.4485 46.2324 31.6785 46.2404L31.6542 46.3217ZM46.3029 31.7803C46.2542 28.5344 48.5589 25.7267 51.7484 25.1264C54.938 24.5339 58.0949 26.3273 59.223 29.3704H77.9214C79.2036 29.3785 80.2263 30.4172 80.2263 31.6992V49.7948C78.6438 50.4196 77.1099 51.1255 75.5922 51.8721V34.0036H59.223C58.1031 37.0303 54.9704 38.8237 51.7892 38.2476C48.608 37.6796 46.295 34.9044 46.3031 31.6748L46.3029 31.7803ZM93.3167 13.6847C93.3087 11.2017 94.6883 8.92138 96.8878 7.76908C99.0871 6.60869 101.741 6.77097 103.786 8.19105C105.831 9.603 106.911 12.0375 106.602 14.4962C106.293 16.963 104.646 19.0485 102.318 19.9168V33.7524H97.6587V19.9413C95.0536 18.9676 93.3251 16.4844 93.317 13.7093L93.3167 13.6847ZM140.753 29.3704C141.872 26.3437 145.006 24.5584 148.186 25.1345C151.359 25.7024 153.672 28.4696 153.672 31.6992C153.672 34.9208 151.359 37.6878 148.186 38.2557C145.006 38.8319 141.872 37.0467 140.753 34.0198H124.465V51.8883C122.947 51.1174 121.413 50.4114 119.83 49.811V31.6748C119.839 30.4089 120.869 29.3782 122.135 29.3701L140.753 29.3704ZM168.322 46.3462C171.528 46.3705 174.255 48.6832 174.822 51.8397C175.383 54.9962 173.622 58.1041 170.627 59.2402V77.9363C170.619 79.2185 169.58 80.241 168.297 80.241H150.225C149.6 78.6586 148.894 77.125 148.147 75.6075H166.017V59.2402C162.982 58.1205 161.197 54.9881 161.765 51.8073C162.341 48.6265 165.108 46.3138 168.338 46.3219L168.322 46.3462ZM186.314 93.3544C188.798 93.3463 191.079 94.7176 192.231 96.9166C193.392 99.1157 193.229 101.777 191.809 103.822C190.397 105.859 187.962 106.947 185.503 106.638C183.036 106.33 180.95 104.674 180.081 102.345H166.22V97.6713H180.057C181.031 95.0666 183.515 93.3382 186.29 93.3301L186.314 93.3544ZM170.627 140.759C173.654 141.879 175.44 145.011 174.863 148.192C174.295 151.366 171.528 153.677 168.297 153.677C165.076 153.677 162.308 151.366 161.741 148.192C161.164 145.011 162.95 141.879 165.977 140.759V124.474H148.106C148.877 122.956 149.583 121.422 150.184 119.84H168.282C168.898 119.832 169.491 120.075 169.929 120.505C170.368 120.936 170.619 121.527 170.627 122.144V140.841V140.759ZM140.754 170.63H122.055C120.772 170.621 119.75 169.583 119.75 168.301V150.23C121.332 149.604 122.867 148.898 124.384 148.152V166.021H140.672H140.664C141.792 162.994 144.925 161.208 148.098 161.785C151.279 162.353 153.584 165.12 153.584 168.341C153.584 171.571 151.279 174.338 148.098 174.906C144.925 175.482 141.791 173.697 140.664 170.67L140.754 170.63ZM93.3176 186.316C93.3095 188.799 94.6892 191.079 96.8886 192.231C99.088 193.392 101.742 193.229 103.787 191.809C105.832 190.397 106.912 187.962 106.603 185.503C106.294 183.037 104.647 180.951 102.318 180.083V166.224H97.6596V180.058C95.0545 181.032 93.326 183.515 93.3179 186.29L93.3176 186.316ZM46.3038 168.325C46.2956 165.095 48.6086 162.32 51.7898 161.752C54.9711 161.176 58.1039 162.969 59.2237 165.996H75.5116V148.128C77.0292 148.898 78.5631 149.604 80.1457 150.204V168.3C80.1457 169.583 79.115 170.621 77.8408 170.63H59.1424C58.0225 173.656 54.8898 175.45 51.7085 174.874C48.5274 174.305 46.2144 171.53 46.2225 168.3L46.3038 168.325ZM29.3501 140.759V122.062C29.3582 120.78 30.397 119.758 31.6793 119.758H49.777C50.402 121.34 51.108 122.874 51.8546 124.391H33.984V140.677V140.67C37.0111 141.797 38.7884 144.93 38.2205 148.102C37.6442 151.283 34.8848 153.588 31.6549 153.588C28.4329 153.588 25.6656 151.283 25.0892 148.102C24.5211 144.93 26.3065 141.797 29.3256 140.67L29.3501 140.759Z"/>
</mask>
<path fill-rule="evenodd" clip-rule="evenodd" d="M33.7571 102.329H19.9199C18.7918 105.346 15.6592 107.132 12.4861 106.564C9.31298 105.988 7 103.229 7 99.9994C7 96.7698 9.31298 94.0109 12.4861 93.4346C15.6592 92.8666 18.792 94.6518 19.9199 97.6705H33.7571V102.329ZM86.8979 52.4721C82.9538 53.5513 79.1554 55.1335 75.6009 57.1623C74.4161 57.852 72.9146 57.6411 71.9652 56.6673L67.6801 52.3828C65.7161 50.4352 62.5429 50.4352 60.5789 52.3828L52.2685 60.6922C50.3208 62.6641 50.3208 65.8369 52.2685 67.8006L56.5455 72.0771C57.5193 73.0346 57.7303 74.5358 57.0405 75.7124C55.0116 79.2666 53.4371 83.0643 52.3497 87.016C52.0007 88.3306 50.7997 89.2476 49.4444 89.2395H43.4389C40.6634 89.2395 38.4071 91.4871 38.4071 94.2624V105.939C38.4071 107.27 38.9347 108.552 39.8842 109.494C40.8256 110.434 42.0998 110.97 43.4388 110.97H49.485C50.8484 110.962 52.0415 111.871 52.3903 113.194C53.4778 117.137 55.0521 120.935 57.0892 124.49C57.7709 125.674 57.568 127.167 56.586 128.124L52.309 132.401V132.409C50.3613 134.373 50.3613 137.546 52.309 139.51L60.6194 147.819C62.5834 149.766 65.7568 149.766 67.7206 147.819L71.9976 143.542H72.0057C72.9552 142.561 74.4566 142.358 75.6415 143.039C79.1961 145.077 82.9943 146.651 86.9384 147.738C88.2613 148.087 89.1702 149.28 89.1621 150.643V156.688C89.1621 158.027 89.6977 159.301 90.6391 160.243C91.5805 161.184 92.8546 161.719 94.1936 161.719H105.872H105.864C107.203 161.719 108.477 161.184 109.426 160.243C110.368 159.301 110.896 158.027 110.896 156.688V150.497C110.888 149.134 111.804 147.94 113.12 147.592C117.071 146.505 120.862 144.931 124.425 142.893C125.601 142.212 127.102 142.415 128.06 143.396L132.296 147.778C133.246 148.736 134.536 149.271 135.876 149.271C137.222 149.271 138.513 148.736 139.463 147.778L147.773 139.47C149.721 137.506 149.721 134.332 147.773 132.361L143.496 128.084C142.514 127.127 142.311 125.634 142.993 124.449C145.03 120.895 146.604 117.097 147.692 113.145C148.041 111.831 149.234 110.922 150.597 110.93H156.644C157.974 110.93 159.257 110.394 160.198 109.453C161.139 108.511 161.675 107.229 161.675 105.899V94.1652C161.675 92.8263 161.139 91.5523 160.198 90.6111C159.257 89.6617 157.974 89.1342 156.644 89.1342H150.492C149.128 89.1423 147.935 88.2254 147.586 86.9109C146.499 82.9673 144.925 79.1694 142.888 75.6154C142.206 74.4306 142.409 72.9294 143.391 71.98L147.773 67.6955C148.731 66.746 149.267 65.4558 149.267 64.1168C149.267 62.7697 148.731 61.4796 147.773 60.53L139.463 52.2207C137.499 50.2732 134.325 50.2732 132.354 52.2207L128.077 56.4971C127.119 57.4789 125.625 57.6818 124.44 57.0002C120.886 54.9635 117.088 53.3892 113.135 52.3019C111.821 51.953 110.912 50.7601 110.92 49.3969V43.4569C110.92 42.118 110.384 40.8441 109.443 39.9029C108.502 38.9535 107.22 38.426 105.889 38.426H94.1536C91.37 38.426 89.1218 40.6817 89.1218 43.4571V49.5026C89.13 50.8658 88.2129 52.0587 86.8982 52.4075L86.8979 52.4721ZM99.9884 68.5472C108.331 68.5472 116.334 71.8662 122.234 77.7573C128.125 83.6565 131.444 91.6576 131.444 99.9994C131.444 108.341 128.125 116.342 122.234 122.242C116.334 128.133 108.331 131.452 99.9884 131.452C91.6455 131.452 83.6435 128.133 77.7435 122.242C71.8517 116.342 68.5323 108.341 68.5323 99.9994C68.5323 91.6576 71.8517 83.6565 77.7435 77.7573C83.6435 71.8662 91.6455 68.5472 99.9884 68.5472ZM31.6542 46.3217C34.8842 46.3136 37.6597 48.6262 38.2279 51.8071C38.8041 54.9879 37.0105 58.1204 33.9834 59.24V75.526H51.854C51.083 77.0435 50.377 78.5772 49.7765 80.1595H31.6542C30.3881 80.1514 29.3574 79.1209 29.3493 77.8549V59.1588C26.3222 58.039 24.5286 54.9067 25.1048 51.7259C25.6729 48.545 28.4485 46.2324 31.6785 46.2404L31.6542 46.3217ZM46.3029 31.7803C46.2542 28.5344 48.5589 25.7267 51.7484 25.1264C54.938 24.5339 58.0949 26.3273 59.223 29.3704H77.9214C79.2036 29.3785 80.2263 30.4172 80.2263 31.6992V49.7948C78.6438 50.4196 77.1099 51.1255 75.5922 51.8721V34.0036H59.223C58.1031 37.0303 54.9704 38.8237 51.7892 38.2476C48.608 37.6796 46.295 34.9044 46.3031 31.6748L46.3029 31.7803ZM93.3167 13.6847C93.3087 11.2017 94.6883 8.92138 96.8878 7.76908C99.0871 6.60869 101.741 6.77097 103.786 8.19105C105.831 9.603 106.911 12.0375 106.602 14.4962C106.293 16.963 104.646 19.0485 102.318 19.9168V33.7524H97.6587V19.9413C95.0536 18.9676 93.3251 16.4844 93.317 13.7093L93.3167 13.6847ZM140.753 29.3704C141.872 26.3437 145.006 24.5584 148.186 25.1345C151.359 25.7024 153.672 28.4696 153.672 31.6992C153.672 34.9208 151.359 37.6878 148.186 38.2557C145.006 38.8319 141.872 37.0467 140.753 34.0198H124.465V51.8883C122.947 51.1174 121.413 50.4114 119.83 49.811V31.6748C119.839 30.4089 120.869 29.3782 122.135 29.3701L140.753 29.3704ZM168.322 46.3462C171.528 46.3705 174.255 48.6832 174.822 51.8397C175.383 54.9962 173.622 58.1041 170.627 59.2402V77.9363C170.619 79.2185 169.58 80.241 168.297 80.241H150.225C149.6 78.6586 148.894 77.125 148.147 75.6075H166.017V59.2402C162.982 58.1205 161.197 54.9881 161.765 51.8073C162.341 48.6265 165.108 46.3138 168.338 46.3219L168.322 46.3462ZM186.314 93.3544C188.798 93.3463 191.079 94.7176 192.231 96.9166C193.392 99.1157 193.229 101.777 191.809 103.822C190.397 105.859 187.962 106.947 185.503 106.638C183.036 106.33 180.95 104.674 180.081 102.345H166.22V97.6713H180.057C181.031 95.0666 183.515 93.3382 186.29 93.3301L186.314 93.3544ZM170.627 140.759C173.654 141.879 175.44 145.011 174.863 148.192C174.295 151.366 171.528 153.677 168.297 153.677C165.076 153.677 162.308 151.366 161.741 148.192C161.164 145.011 162.95 141.879 165.977 140.759V124.474H148.106C148.877 122.956 149.583 121.422 150.184 119.84H168.282C168.898 119.832 169.491 120.075 169.929 120.505C170.368 120.936 170.619 121.527 170.627 122.144V140.841V140.759ZM140.754 170.63H122.055C120.772 170.621 119.75 169.583 119.75 168.301V150.23C121.332 149.604 122.867 148.898 124.384 148.152V166.021H140.672H140.664C141.792 162.994 144.925 161.208 148.098 161.785C151.279 162.353 153.584 165.12 153.584 168.341C153.584 171.571 151.279 174.338 148.098 174.906C144.925 175.482 141.791 173.697 140.664 170.67L140.754 170.63ZM93.3176 186.316C93.3095 188.799 94.6892 191.079 96.8886 192.231C99.088 193.392 101.742 193.229 103.787 191.809C105.832 190.397 106.912 187.962 106.603 185.503C106.294 183.037 104.647 180.951 102.318 180.083V166.224H97.6596V180.058C95.0545 181.032 93.326 183.515 93.3179 186.29L93.3176 186.316ZM46.3038 168.325C46.2956 165.095 48.6086 162.32 51.7898 161.752C54.9711 161.176 58.1039 162.969 59.2237 165.996H75.5116V148.128C77.0292 148.898 78.5631 149.604 80.1457 150.204V168.3C80.1457 169.583 79.115 170.621 77.8408 170.63H59.1424C58.0225 173.656 54.8898 175.45 51.7085 174.874C48.5274 174.305 46.2144 171.53 46.2225 168.3L46.3038 168.325ZM29.3501 140.759V122.062C29.3582 120.78 30.397 119.758 31.6793 119.758H49.777C50.402 121.34 51.108 122.874 51.8546 124.391H33.984V140.677V140.67C37.0111 141.797 38.7884 144.93 38.2205 148.102C37.6442 151.283 34.8848 153.588 31.6549 153.588C28.4329 153.588 25.6656 151.283 25.0892 148.102C24.5211 144.93 26.3065 141.797 29.3256 140.67L29.3501 140.759Z" stroke="#DD0004" stroke-width="8" mask="url(#path-1-inside-1_226_4569)"/>
</svg>
