<svg width="70" height="95" viewBox="0 0 70 95" fill="none" xmlns="http://www.w3.org/2000/svg">
<path d="M19.5 44.5L30 51L32 35.5L33.5 33.5H36.5L38 38.5V52.5L50.5 45L50 27L35 18.5L19.5 27V44.5Z" fill="#DD0004"/>
<path d="M64.822 49.2544V38.3599C64.822 37.7434 64.3188 37.2419 63.7002 37.2419H51.7248V33.9709H63.7002C64.3188 33.9709 64.822 33.4694 64.822 32.8529V21.9585C67.1995 21.4432 68.986 19.336 68.986 16.8149C68.986 13.9072 66.6132 11.547 63.7001 11.547C60.7824 11.547 58.4142 13.9118 58.4142 16.8149C58.4142 19.336 60.2007 21.4432 62.5782 21.9585V31.735H51.7249V27.2585C51.7249 26.8582 51.5125 26.4902 51.1616 26.2877L38.7892 19.1704L38.6876 7.20891H48.4884C49.0055 9.57824 51.1199 11.3587 53.6497 11.3587C56.5674 11.3587 58.9356 8.99395 58.9356 6.09084C58.9356 3.18315 56.5627 0.822998 53.6497 0.822998C51.1199 0.822998 49.0055 2.60344 48.4884 4.97278H37.5566C37.2566 4.97278 36.9703 5.09239 36.758 5.30403C36.5456 5.51566 36.4302 5.8055 36.4302 6.09995L36.5318 17.8731L35.5623 17.3164C35.2161 17.114 34.7867 17.114 34.4405 17.3164L33.1526 18.0572V6.09094C33.1526 5.47444 32.6494 4.97297 32.0308 4.97297H21.0989C20.5819 2.60363 18.4675 0.823186 15.9377 0.823186C13.02 0.823186 10.6518 3.18793 10.6518 6.09103C10.6518 8.99873 13.0246 11.3589 15.9377 11.3589C18.4675 11.3589 20.5819 9.57843 21.0989 7.2091H30.909V19.3508L18.8462 26.2932C18.4999 26.4957 18.283 26.8637 18.283 27.264V32.1867H7.42961V22.4102C9.80707 21.895 11.5936 19.7878 11.5936 17.2666C11.5936 14.3589 9.22077 11.9988 6.30771 11.9988C3.39004 11.9988 1.02179 14.3635 1.02179 17.2666C1.02179 19.7878 2.80834 21.895 5.18581 22.4102V33.3047C5.18581 33.9212 5.689 34.4226 6.30761 34.4226H18.283V37.6937H6.30761C5.689 37.6937 5.18581 38.1952 5.18581 38.8117V49.7061C2.80834 50.2214 1.02179 52.3285 1.02179 54.8497C1.02179 57.7574 3.39464 60.1175 6.30771 60.1175C9.22538 60.1175 11.5936 57.7528 11.5936 54.8497C11.5936 52.3285 9.80707 50.2214 7.42961 49.7061V39.9296H18.283V45.2066C18.283 45.6069 18.4953 45.9749 18.8462 46.1774L29.5333 52.3286C29.4872 55.4386 29.5056 58.5625 29.5241 61.4563V61.8198C29.3164 61.4379 29.1132 61.0423 28.9055 60.642C27.6636 58.2589 26.3803 55.7929 24.2891 54.2885C22.0316 52.6645 19.5941 52.6966 18.0661 53.2717C17.0551 53.649 16.4134 54.2425 16.2518 54.9418C15.4347 58.466 18.4539 63.7522 20.3605 66.3194C21.5238 67.8836 22.7749 71.0857 23.8737 73.9105C24.7647 76.1971 25.6095 78.3593 26.4173 79.7673C26.9574 80.7058 27.4976 81.4925 27.973 82.1826C29.6811 84.6625 30.9138 86.4567 30.5999 93.3532C30.5722 93.9697 31.0523 94.4941 31.6709 94.5217H31.7217C32.3172 94.5217 32.8158 94.0525 32.8435 93.4544C33.1943 85.808 31.7078 83.6503 29.8243 80.9134C29.3488 80.2233 28.8594 79.5102 28.3655 78.6498C27.6407 77.3893 26.8281 75.3052 25.9649 73.0968C24.7555 69.996 23.5044 66.7847 22.1609 64.9812C19.9588 62.023 17.9969 57.8962 18.4031 55.5912C18.837 55.2645 20.8544 54.5836 22.9642 56.1019C24.6215 57.2934 25.7802 59.5201 26.902 61.6733C27.8207 63.44 28.6886 65.1055 29.8473 66.2925C30.1659 66.6191 30.6506 66.7203 31.0754 66.5501C31.5001 66.3799 31.7771 65.9704 31.7771 65.5103C31.7771 64.236 31.7678 62.8649 31.7586 61.4388C31.7032 52.5594 31.6386 41.5131 33.4252 35.5971C33.6653 34.8748 34.3208 34.2676 34.7732 34.332C35.521 34.447 36.9707 36.5173 37.0814 43.5426C37.1091 45.3046 37.0537 48.8196 37.0029 52.2195C36.966 54.7177 36.9291 57.0778 36.9291 58.5408L36.9198 61.5405C36.9198 62.157 37.4184 62.6631 38.0416 62.6631H38.0462C38.6648 62.6631 39.168 62.1662 39.168 61.5451L39.1773 58.5454C39.1773 57.6621 40.336 56.742 41.6564 56.5717C42.4458 56.4705 43.8261 56.5763 44.3293 58.2923L44.2785 61.9085C44.2693 62.525 44.7679 63.0356 45.3865 63.0448H45.4049C46.0189 63.0448 46.5175 62.5526 46.5267 61.9407L46.5775 58.3475C46.8545 57.5332 47.6901 57.2985 48.4057 57.3629C49.3613 57.4504 50.5155 58.0991 50.6724 59.6173L50.5339 62.4375C50.5062 63.054 50.9817 63.5785 51.6003 63.6107H51.6557C52.2512 63.6107 52.7498 63.146 52.7775 62.5433L52.8791 60.4547C53.4977 60.3857 53.8716 60.5743 54.1209 60.7445C55.0027 61.361 56.503 63.5325 56.6185 71.1466C56.6692 74.5328 54.5411 78.2041 53.2669 80.0904C51.2356 83.0947 51.3049 86.8581 51.3695 90.4926C51.3788 91.1321 51.3926 91.7946 51.3926 92.4432C51.3926 93.0597 51.8958 93.5612 52.5144 93.5612C53.133 93.5612 53.6362 93.0597 53.6362 92.4432C53.6362 91.7761 53.6224 91.1044 53.6131 90.4557C53.5531 87.0144 53.4931 83.7663 55.1273 81.3417C56.8631 78.7699 58.922 74.91 58.8621 71.1098C58.7605 64.448 57.6294 60.4591 55.4043 58.9092C54.8088 58.4905 53.8902 58.0948 52.6483 58.2237C51.9697 56.3006 50.197 55.2746 48.6042 55.1274C47.4455 55.017 46.3929 55.3252 45.6128 55.9371C44.6434 54.7226 43.1199 54.1198 41.3656 54.3407C40.6224 54.4327 39.8699 54.6857 39.2051 55.0676C39.2144 54.4143 39.2236 53.7196 39.2374 53.0156L51.1525 46.1606C51.4988 45.9582 51.7157 45.5901 51.7157 45.1899V39.4666H62.5691V49.2431C60.1916 49.7584 58.4051 51.8655 58.4051 54.3867C58.4051 57.2944 60.7779 59.6545 63.691 59.6545C66.6087 59.6545 68.9769 57.2898 68.9769 54.3867C68.9769 51.8655 67.1904 49.7584 64.8129 49.2431L64.822 49.2544ZM60.658 16.8101C60.658 15.14 62.0198 13.7783 63.7002 13.7783C65.376 13.7783 66.7425 15.1354 66.7425 16.8101C66.7425 18.4802 65.3806 19.8419 63.7002 19.8419C62.0244 19.8419 60.658 18.4848 60.658 16.8101ZM53.6455 3.04895C55.3214 3.04895 56.6878 4.4061 56.6878 6.08079C56.6878 7.75088 55.326 9.11262 53.6455 9.11262C51.9697 9.11262 50.6033 7.75547 50.6033 6.08079C50.6033 4.4107 51.9651 3.04895 53.6455 3.04895ZM15.929 9.10803C14.2532 9.10803 12.8914 7.75087 12.8914 6.07619C12.8914 4.4061 14.2532 3.04436 15.929 3.04436C17.6048 3.04436 18.9712 4.40151 18.9712 6.07619C18.9712 7.74628 17.6094 9.10803 15.929 9.10803ZM3.25636 17.2513C3.25636 15.5812 4.61817 14.2195 6.29859 14.2195C7.97441 14.2195 9.33622 15.5766 9.33622 17.2513C9.33622 18.9214 7.97441 20.2831 6.29859 20.2831C4.62278 20.2831 3.25636 18.926 3.25636 17.2513ZM9.33622 54.8389C9.33622 56.509 7.97441 57.8707 6.29859 57.8707C4.62278 57.8707 3.25636 56.5136 3.25636 54.8389C3.25636 53.1688 4.61817 51.8117 6.29859 51.8117C7.97441 51.8117 9.33622 53.1688 9.33622 54.8389ZM49.472 44.5517L39.2788 50.4176C39.3203 47.6296 39.3526 44.9796 39.3296 43.5074C39.2188 36.3579 37.7969 32.5255 35.1147 32.116C33.3189 31.8446 31.8047 33.3536 31.2922 34.9087C31.2876 34.9179 31.2876 34.9271 31.283 34.9363C30.1658 38.626 29.7365 44.0686 29.5795 49.7692L20.522 44.5566V27.8969L32.4051 21.0603C32.5067 21.0235 32.5944 20.9637 32.6775 20.9039L34.9996 19.5697L49.4768 27.8969V44.5566L49.472 44.5517ZM63.6951 57.4248C62.0193 57.4248 60.6529 56.0677 60.6529 54.393C60.6529 52.7229 62.0147 51.3612 63.6951 51.3612C65.371 51.3612 66.7374 52.7183 66.7374 54.393C66.7374 56.0631 65.3756 57.4248 63.6951 57.4248Z" fill="black" stroke="black" stroke-width="0.3"/>
</svg>
