<svg width="88" height="88" viewBox="0 0 88 88" fill="none" xmlns="http://www.w3.org/2000/svg">
<path d="M40.5778 19.6362C27.3809 19.6362 16.645 30.4092 16.645 43.6506C16.645 56.892 27.3807 67.665 40.5778 67.665C53.775 67.665 64.5107 56.892 64.5107 43.6506C64.5107 30.4092 53.7748 19.6362 40.5778 19.6362ZM40.5778 66.0957C28.2425 66.0957 18.2062 56.0271 18.2062 43.6508C18.2062 31.2745 28.2423 21.2057 40.5778 21.2057C52.9134 21.2057 62.9495 31.2743 62.9495 43.6506C62.9495 56.0269 52.9132 66.0957 40.5778 66.0957Z" fill="black" stroke="black" stroke-width="0.2"/>
<path d="M25.2553 81.6291L28.1065 75.0664C28.2789 74.6697 28.0991 74.2072 27.704 74.0333C27.3085 73.8592 26.8484 74.0413 26.6759 74.4382L23.8247 81.001C23.6523 81.3976 23.8321 81.8602 24.2272 82.034C24.3289 82.0787 24.435 82.1 24.5397 82.1C24.8407 82.1 25.1272 81.924 25.2553 81.6291Z" fill="black"/>
<path d="M25.2553 81.6291L25.1636 81.5893M25.2553 81.6291L28.1065 75.0664C28.2789 74.6697 28.0991 74.2072 27.704 74.0333C27.3085 73.8592 26.8484 74.0413 26.6759 74.4382L23.8247 81.001C23.6523 81.3976 23.8321 81.8602 24.2272 82.034C24.3289 82.0787 24.435 82.1 24.5397 82.1C24.8407 82.1 25.1272 81.924 25.2553 81.6291Z" stroke="black" stroke-width="0.2"/>
<path d="M28.7976 14.3121C29.1988 14.153 29.3954 13.6974 29.2377 13.2945L26.9866 7.54524C26.8287 7.1422 26.3756 6.94392 25.974 7.1025C25.5728 7.2616 25.3762 7.71723 25.5339 8.12008L27.785 13.8694C27.9061 14.1781 28.2001 14.3669 28.5116 14.3669C28.607 14.3669 28.7039 14.3491 28.7976 14.3121Z" fill="black" stroke="black" stroke-width="0.2"/>
<path d="M31.6567 51.5543L28.6888 31.8511L28.6871 31.8396L28.6851 31.8282L28.6669 31.7235L48.9411 35.1744L43.2074 41.3177L43.1968 41.329L43.1866 41.3407L42.7482 41.8407L42.1322 42.543L42.7911 43.2053L54.0407 54.5128L53.289 55.2966L50.9313 57.6069L39.131 46.2786L38.4729 45.6469L37.7835 46.2443L31.6567 51.5543Z" fill="#DD0004" stroke="black" stroke-width="2"/>
<path d="M11.1566 7.20822C8.81406 4.858 5.00271 4.85798 2.66033 7.20821C1.5251 8.34724 0.899902 9.86214 0.899902 11.4729C0.899902 13.0836 1.52509 14.5985 2.66034 15.7374C3.83178 16.9125 5.37005 17.5 6.90847 17.5C8.20108 17.5 9.49358 17.0838 10.5685 16.2539L18.6281 24.3404C14.1045 29.4967 11.3558 36.2572 11.3558 43.6506C11.3558 51.044 14.1045 57.8045 18.6281 62.9608L10.5685 71.0473C8.2145 69.23 4.81594 69.4013 2.6605 71.5639C1.52509 72.7025 0.899902 74.2174 0.899902 75.8282C0.899902 77.4389 1.5251 78.9538 2.66033 80.0928C3.83177 81.268 5.37005 81.8555 6.90847 81.8555C8.44654 81.8555 9.9855 81.2678 11.1566 80.0928C12.2917 78.954 12.917 77.4391 12.917 75.8282C12.917 74.4824 12.4792 73.2044 11.6735 72.1559L19.692 64.1106C24.8186 69.363 31.896 72.6914 39.7357 72.8992V77.4196C38.0316 77.7817 36.7484 79.3009 36.7484 81.1177C36.7484 83.2028 38.4382 84.8997 40.5163 84.8997C42.5945 84.8997 44.2844 83.2028 44.2844 81.1177C44.2844 79.301 43.001 77.7818 41.2969 77.4196V72.8992C56.7572 72.4893 69.2568 59.9473 69.666 44.4352H74.8897C75.2742 47.3904 77.7976 49.6807 80.846 49.6807C84.1596 49.6807 86.8546 46.9753 86.8546 43.6504C86.8546 40.3255 84.1596 37.6204 80.846 37.6204C77.7976 37.6204 75.2742 39.9105 74.8897 42.8659H69.666C69.2568 27.3539 56.7573 14.8117 41.2969 14.4019V11.38C43.001 11.018 44.2844 9.49876 44.2844 7.68195C44.2844 5.59681 42.5945 3.8999 40.5165 3.8999C38.4385 3.8999 36.7484 5.59681 36.7484 7.68195C36.7484 9.4986 38.0316 11.0178 39.7357 11.38V14.4019C31.896 14.6097 24.8186 17.9383 19.692 23.1905L11.6735 15.1451C12.4792 14.0965 12.917 12.8185 12.917 11.4729C12.917 9.86213 12.2917 8.34724 11.1566 7.20822ZM3.76315 14.6264C2.9233 13.7839 2.46109 12.6643 2.46109 11.4729C2.46109 10.2815 2.9233 9.1618 3.76315 8.31935C4.63024 7.44931 5.76908 7.01435 6.9083 7.01435C8.04752 7.01435 9.18652 7.4493 10.0536 8.31934C10.8933 9.16181 11.3557 10.2815 11.3557 11.4729C11.3558 12.6643 10.8935 13.7839 10.0536 14.6264C8.31941 16.3665 5.49753 16.3665 3.76315 14.6264ZM10.0536 78.9819C8.31941 80.722 5.49753 80.722 3.76315 78.9819C2.9233 78.1394 2.46109 77.0198 2.46109 75.8282C2.46109 74.6366 2.9233 73.5171 3.76315 72.6747C4.63024 71.8045 5.7689 71.3697 6.9083 71.3697C8.04751 71.3697 9.18651 71.8048 10.0536 72.6747C10.8933 73.5171 11.3557 74.6368 11.3557 75.8282C11.3557 77.0196 10.8935 78.1394 10.0536 78.9819ZM38.3096 7.68195C38.3096 6.46178 39.2999 5.46939 40.5165 5.46939C41.7331 5.46939 42.7234 6.46178 42.7234 7.68195C42.7234 8.90213 41.733 9.89468 40.5165 9.89468C39.2999 9.89468 38.3096 8.90213 38.3096 7.68195ZM42.7232 81.1178C42.7232 82.338 41.7329 83.3304 40.5163 83.3304C39.2998 83.3304 38.3096 82.338 38.3096 81.1178C38.3096 79.8977 39.2999 78.9051 40.5163 78.9051C41.7327 78.9051 42.7232 79.8977 42.7232 81.1178ZM40.5165 71.3408C25.2985 71.3408 12.917 58.9193 12.917 43.6504C12.917 28.3818 25.2985 15.9602 40.5165 15.9602C55.7346 15.9602 68.1161 28.3818 68.1161 43.6504C68.1159 58.9193 55.7345 71.3408 40.5165 71.3408ZM80.846 48.1112C78.3942 48.1112 76.3987 46.1104 76.3987 43.6504C76.3987 41.1905 78.3941 39.1897 80.846 39.1897C83.298 39.1897 85.2934 41.1907 85.2934 43.6506C85.2934 46.1106 83.298 48.1112 80.846 48.1112Z" fill="black"/>
<path d="M2.66034 15.7374C1.52509 14.5985 0.899902 13.0836 0.899902 11.4729C0.899902 9.86214 1.5251 8.34724 2.66033 7.20821C5.00271 4.85798 8.81406 4.858 11.1566 7.20822C12.2917 8.34724 12.917 9.86213 12.917 11.4729C12.917 12.8185 12.4792 14.0965 11.6735 15.1451L19.692 23.1905C24.8186 17.9383 31.896 14.6097 39.7357 14.4019V11.38C38.0316 11.0178 36.7484 9.4986 36.7484 7.68195C36.7484 5.59681 38.4385 3.8999 40.5165 3.8999C42.5945 3.8999 44.2844 5.59681 44.2844 7.68195C44.2844 9.49876 43.001 11.018 41.2969 11.38V14.4019C56.7573 14.8117 69.2568 27.3539 69.666 42.8659H74.8897C75.2742 39.9105 77.7976 37.6204 80.846 37.6204C84.1596 37.6204 86.8546 40.3255 86.8546 43.6504C86.8546 46.9753 84.1596 49.6807 80.846 49.6807C77.7976 49.6807 75.2742 47.3904 74.8897 44.4352H69.666C69.2568 59.9473 56.7572 72.4893 41.2969 72.8992V77.4196C43.001 77.7818 44.2844 79.301 44.2844 81.1177C44.2844 83.2028 42.5945 84.8997 40.5163 84.8997C38.4382 84.8997 36.7484 83.2028 36.7484 81.1177C36.7484 79.3009 38.0316 77.7817 39.7357 77.4196V72.8992C31.896 72.6914 24.8186 69.363 19.692 64.1106L11.6735 72.1559C12.4792 73.2044 12.917 74.4824 12.917 75.8282C12.917 77.4391 12.2917 78.954 11.1566 80.0928C9.9855 81.2678 8.44654 81.8555 6.90847 81.8555C5.37005 81.8555 3.83177 81.268 2.66033 80.0928M2.66034 15.7374L2.73116 15.6668M2.66034 15.7374C3.83178 16.9125 5.37005 17.5 6.90847 17.5C8.20108 17.5 9.49358 17.0838 10.5685 16.2539L18.6281 24.3404C14.1045 29.4967 11.3558 36.2572 11.3558 43.6506C11.3558 51.044 14.1045 57.8045 18.6281 62.9608L10.5685 71.0473C8.2145 69.23 4.81594 69.4013 2.6605 71.5639C1.52509 72.7025 0.899902 74.2174 0.899902 75.8282C0.899902 77.4389 1.5251 78.9538 2.66033 80.0928M2.66033 80.0928L2.73116 80.0222M10.0536 8.31934C9.18652 7.4493 8.04752 7.01435 6.9083 7.01435C5.76908 7.01435 4.63024 7.44931 3.76315 8.31935C2.9233 9.1618 2.46109 10.2815 2.46109 11.4729C2.46109 12.6643 2.9233 13.7839 3.76315 14.6264C5.49753 16.3665 8.31941 16.3665 10.0536 14.6264C10.8935 13.7839 11.3558 12.6643 11.3557 11.4729C11.3557 10.2815 10.8933 9.16181 10.0536 8.31934ZM10.0536 8.31934L10.1244 8.24875M10.0536 78.9819L10.1244 79.0525M10.0536 78.9819C8.31941 80.722 5.49753 80.722 3.76315 78.9819M10.0536 78.9819C10.8935 78.1394 11.3557 77.0196 11.3557 75.8282C11.3557 74.6368 10.8933 73.5171 10.0536 72.6747C9.18651 71.8048 8.04751 71.3697 6.9083 71.3697C5.7689 71.3697 4.63024 71.8045 3.76315 72.6747M3.76315 78.9819L3.69233 79.0525M3.76315 78.9819C2.9233 78.1394 2.46109 77.0198 2.46109 75.8282C2.46109 74.6366 2.9233 73.5171 3.76315 72.6747M3.76315 72.6747L3.69233 72.6041M38.3096 7.68195C38.3096 6.46178 39.2999 5.46939 40.5165 5.46939C41.7331 5.46939 42.7234 6.46178 42.7234 7.68195C42.7234 8.90213 41.733 9.89468 40.5165 9.89468C39.2999 9.89468 38.3096 8.90213 38.3096 7.68195ZM42.7232 81.1178C42.7232 82.338 41.7329 83.3304 40.5163 83.3304C39.2998 83.3304 38.3096 82.338 38.3096 81.1178C38.3096 79.8977 39.2999 78.9051 40.5163 78.9051C41.7327 78.9051 42.7232 79.8977 42.7232 81.1178ZM40.5165 71.3408C25.2985 71.3408 12.917 58.9193 12.917 43.6504C12.917 28.3818 25.2985 15.9602 40.5165 15.9602C55.7346 15.9602 68.1161 28.3818 68.1161 43.6504C68.1159 58.9193 55.7345 71.3408 40.5165 71.3408ZM80.846 48.1112C78.3942 48.1112 76.3987 46.1104 76.3987 43.6504C76.3987 41.1905 78.3941 39.1897 80.846 39.1897C83.298 39.1897 85.2934 41.1907 85.2934 43.6506C85.2934 46.1106 83.298 48.1112 80.846 48.1112Z" stroke="black" stroke-width="0.2"/>
<path d="M65.7256 20.2767L70.2564 15.7307C70.5613 15.4247 70.5619 14.9281 70.258 14.6214C69.9534 14.3145 69.4589 14.3136 69.1536 14.6198L64.6227 19.1658C64.3177 19.4718 64.3172 19.9684 64.6211 20.2752C64.7735 20.4288 64.9739 20.5059 65.1741 20.5059C65.3736 20.5061 65.5734 20.4296 65.7256 20.2767Z" stroke="black"/>
<path d="M70.6825 58.3148L76.5304 60.9599C76.924 61.1379 77.3892 60.964 77.5696 60.5718C77.7499 60.1788 77.577 59.7155 77.1831 59.5372L71.3352 56.8919C70.9416 56.7139 70.4765 56.8878 70.296 57.2801C70.2057 57.4768 70.2039 57.6915 70.2742 57.8789C70.3441 58.0658 70.4859 58.226 70.6825 58.3148Z" stroke="black"/>
<path d="M62.6852 71.3478L66.7757 76.2937C67.0511 76.6266 67.5453 76.6748 67.8797 76.4017C68.2144 76.1279 68.2628 75.6358 67.9873 75.3025L63.8967 70.3565C63.6214 70.0236 63.1271 69.9755 62.7926 70.2485C62.6251 70.3855 62.5291 70.5776 62.5099 70.7769C62.4906 70.9754 62.5476 71.1817 62.6852 71.3478Z" stroke="black"/>
</svg>
