<svg width="200" height="200" viewBox="0 0 200 200" fill="none" xmlns="http://www.w3.org/2000/svg">
<g clip-path="url(#clip0_226_4529)">
<g clip-path="url(#clip1_226_4529)">
<mask id="path-1-inside-1_226_4529" fill="white">
<path fill-rule="evenodd" clip-rule="evenodd" d="M86.588 6.801L85.918 13.602L79.209 15.205C75.519 16.087 71.752 17.11 70.838 17.478C69.611 17.971 68.09 16.708 65.034 12.661L60.892 7.176L50.446 13.17C44.701 16.466 40 19.742 40 20.448C40 21.155 40.974 24.077 42.165 26.942L44.329 32.151L38.24 38.24L32.151 44.329L26.942 42.165C24.077 40.974 21.155 40 20.448 40C19.742 40 16.466 44.701 13.17 50.446L7.176 60.892L12.661 65.034C16.708 68.09 17.971 69.611 17.478 70.838C17.11 71.752 16.087 75.519 15.205 79.209L13.602 85.918L6.801 86.588L0 87.258V100.129V113L3.25 113.011C5.038 113.017 8.104 113.287 10.065 113.612C13.525 114.184 13.677 114.398 15.219 120.851C16.093 124.508 17.11 128.248 17.478 129.162C17.971 130.389 16.71 131.909 12.67 134.959L7.193 139.094L9.677 143.538C11.043 145.982 12.588 148.246 13.111 148.569C13.634 148.892 19.745 143.49 26.691 136.564L39.321 123.971L37.653 117.062C35.103 106.496 34.634 99.107 35.996 90.941C40.89 61.593 61.923 40.683 91.298 35.963C110.698 32.846 134.054 41.256 147.486 56.195C170.962 82.306 170.132 121.009 145.57 145.57C131.314 159.826 110.096 167.064 91.4 164.048C87.167 163.366 82.06 162.227 80.05 161.518L76.397 160.229L63.601 173.053C56.564 180.106 51.079 186.318 51.412 186.858C51.746 187.398 54.018 188.957 56.462 190.323L60.906 192.807L65.041 187.33C68.091 183.29 69.611 182.029 70.838 182.522C71.752 182.89 75.519 183.913 79.209 184.795L85.918 186.398L86.588 193.199L87.258 200H100H112.742L113.412 193.199L114.082 186.398L120.791 184.795C124.481 183.913 128.248 182.89 129.162 182.522C130.388 182.029 131.907 183.287 134.951 187.319L139.078 192.784L149.155 187.142C154.698 184.039 159.451 180.944 159.718 180.264C159.985 179.585 159.167 176.529 157.901 173.475L155.599 167.921L161.76 161.76L167.921 155.599L173.23 157.8C176.15 159.01 179.056 160 179.688 160C180.319 160 183.534 155.299 186.83 149.554L192.824 139.108L187.339 134.966C183.292 131.91 182.029 130.389 182.522 129.162C182.89 128.248 183.913 124.481 184.795 120.791L186.398 114.082L193.199 113.412L200 112.742V100V87.258L193.199 86.588L186.398 85.918L184.795 79.209C183.913 75.519 182.89 71.752 182.522 70.838C182.029 69.611 183.292 68.09 187.339 65.034L192.824 60.892L186.83 50.446C183.534 44.701 180.319 40 179.688 40C179.056 40 176.15 40.99 173.23 42.2L167.921 44.401L161.76 38.24L155.599 32.079L157.8 26.77C159.01 23.85 160 20.944 160 20.312C160 19.681 155.299 16.466 149.554 13.17L139.108 7.176L134.966 12.661C131.91 16.709 130.389 17.971 129.162 17.477C128.248 17.109 124.481 16.064 120.791 15.154L114.082 13.5L113.412 6.75L112.742 0H100H87.258L86.588 6.801ZM89.324 66.381C79.744 69.51 70.536 78.278 67.054 87.586C64.811 93.58 64.338 103.204 66 109L67 112.487L38.136 141.494C22.26 157.447 8.535 171.613 7.635 172.973C2.837 180.227 8.422 191.863 17.523 193.57C25.118 194.995 25.782 194.486 57.553 162.872L87.606 132.967L90.878 134.107C92.77 134.767 97.447 135.057 101.964 134.796C111.803 134.226 118.904 130.948 125.445 123.955C132.679 116.222 134.507 111.362 134.456 100C134.432 94.713 133.858 89.197 133.16 87.561L131.905 84.621L118.19 98.311C104.607 111.867 104.43 112 99.94 112C96.009 112 94.913 111.495 91.703 108.208C88.557 104.986 88 103.748 88 99.971C88 95.595 88.214 95.312 101.689 81.81L115.379 68.095L112.439 66.912C107.958 65.109 94.187 64.793 89.324 66.381Z"/>
</mask>
<path fill-rule="evenodd" clip-rule="evenodd" d="M86.588 6.801L85.918 13.602L79.209 15.205C75.519 16.087 71.752 17.11 70.838 17.478C69.611 17.971 68.09 16.708 65.034 12.661L60.892 7.176L50.446 13.17C44.701 16.466 40 19.742 40 20.448C40 21.155 40.974 24.077 42.165 26.942L44.329 32.151L38.24 38.24L32.151 44.329L26.942 42.165C24.077 40.974 21.155 40 20.448 40C19.742 40 16.466 44.701 13.17 50.446L7.176 60.892L12.661 65.034C16.708 68.09 17.971 69.611 17.478 70.838C17.11 71.752 16.087 75.519 15.205 79.209L13.602 85.918L6.801 86.588L0 87.258V100.129V113L3.25 113.011C5.038 113.017 8.104 113.287 10.065 113.612C13.525 114.184 13.677 114.398 15.219 120.851C16.093 124.508 17.11 128.248 17.478 129.162C17.971 130.389 16.71 131.909 12.67 134.959L7.193 139.094L9.677 143.538C11.043 145.982 12.588 148.246 13.111 148.569C13.634 148.892 19.745 143.49 26.691 136.564L39.321 123.971L37.653 117.062C35.103 106.496 34.634 99.107 35.996 90.941C40.89 61.593 61.923 40.683 91.298 35.963C110.698 32.846 134.054 41.256 147.486 56.195C170.962 82.306 170.132 121.009 145.57 145.57C131.314 159.826 110.096 167.064 91.4 164.048C87.167 163.366 82.06 162.227 80.05 161.518L76.397 160.229L63.601 173.053C56.564 180.106 51.079 186.318 51.412 186.858C51.746 187.398 54.018 188.957 56.462 190.323L60.906 192.807L65.041 187.33C68.091 183.29 69.611 182.029 70.838 182.522C71.752 182.89 75.519 183.913 79.209 184.795L85.918 186.398L86.588 193.199L87.258 200H100H112.742L113.412 193.199L114.082 186.398L120.791 184.795C124.481 183.913 128.248 182.89 129.162 182.522C130.388 182.029 131.907 183.287 134.951 187.319L139.078 192.784L149.155 187.142C154.698 184.039 159.451 180.944 159.718 180.264C159.985 179.585 159.167 176.529 157.901 173.475L155.599 167.921L161.76 161.76L167.921 155.599L173.23 157.8C176.15 159.01 179.056 160 179.688 160C180.319 160 183.534 155.299 186.83 149.554L192.824 139.108L187.339 134.966C183.292 131.91 182.029 130.389 182.522 129.162C182.89 128.248 183.913 124.481 184.795 120.791L186.398 114.082L193.199 113.412L200 112.742V100V87.258L193.199 86.588L186.398 85.918L184.795 79.209C183.913 75.519 182.89 71.752 182.522 70.838C182.029 69.611 183.292 68.09 187.339 65.034L192.824 60.892L186.83 50.446C183.534 44.701 180.319 40 179.688 40C179.056 40 176.15 40.99 173.23 42.2L167.921 44.401L161.76 38.24L155.599 32.079L157.8 26.77C159.01 23.85 160 20.944 160 20.312C160 19.681 155.299 16.466 149.554 13.17L139.108 7.176L134.966 12.661C131.91 16.709 130.389 17.971 129.162 17.477C128.248 17.109 124.481 16.064 120.791 15.154L114.082 13.5L113.412 6.75L112.742 0H100H87.258L86.588 6.801ZM89.324 66.381C79.744 69.51 70.536 78.278 67.054 87.586C64.811 93.58 64.338 103.204 66 109L67 112.487L38.136 141.494C22.26 157.447 8.535 171.613 7.635 172.973C2.837 180.227 8.422 191.863 17.523 193.57C25.118 194.995 25.782 194.486 57.553 162.872L87.606 132.967L90.878 134.107C92.77 134.767 97.447 135.057 101.964 134.796C111.803 134.226 118.904 130.948 125.445 123.955C132.679 116.222 134.507 111.362 134.456 100C134.432 94.713 133.858 89.197 133.16 87.561L131.905 84.621L118.19 98.311C104.607 111.867 104.43 112 99.94 112C96.009 112 94.913 111.495 91.703 108.208C88.557 104.986 88 103.748 88 99.971C88 95.595 88.214 95.312 101.689 81.81L115.379 68.095L112.439 66.912C107.958 65.109 94.187 64.793 89.324 66.381Z" stroke="#DD0004" stroke-width="10" mask="url(#path-1-inside-1_226_4529)"/>
</g>
</g>
<defs>
<clipPath id="clip0_226_4529">
<rect width="200" height="200" fill="white"/>
</clipPath>
<clipPath id="clip1_226_4529">
<rect width="200" height="200" fill="white"/>
</clipPath>
</defs>
</svg>
