<svg width="80" height="81" viewBox="0 0 80 81" fill="none" xmlns="http://www.w3.org/2000/svg">
<g clip-path="url(#clip0_3009_1559)">
<path fill-rule="evenodd" clip-rule="evenodd" d="M9.99394 2.50732C5.8821 2.50732 2.49902 5.92625 2.49902 10.0574V70.3351C2.49902 74.4663 5.8821 77.8607 9.99394 77.8607H52.5958C52.0152 76.8382 51.5222 75.7595 51.1268 74.6349H9.99394C8.56566 74.6349 5.70596 71.7701 5.70596 70.3351V25.1133H74.2966V48.4626C75.401 48.7044 76.4712 49.0374 77.4989 49.4534V10.0574C77.4989 5.92625 74.1204 2.50732 70.0086 2.50732H9.99394ZM9.99394 5.73804H21.5768L14.4576 21.8826H5.70596V10.0574C5.70596 8.62243 8.56566 5.73804 9.99394 5.73804ZM25.4019 5.73804H42.1401L35.0065 21.8826H18.2631L25.4019 5.73804ZM66.1085 5.73804H70.0086C71.4369 5.73804 74.2966 8.62243 74.2966 10.0574V21.8826H58.9697L66.1085 5.73804ZM45.6797 5.73804H62.4178L55.2842 21.8826H38.5409L45.6797 5.73804Z" fill="black"/>
<mask id="path-2-inside-1_3009_1559" fill="white">
<path fill-rule="evenodd" clip-rule="evenodd" d="M39.6751 60.674C46.8593 60.674 52.6833 54.8322 52.6833 47.6258C52.6833 40.4195 46.8593 34.5776 39.6751 34.5776C32.4909 34.5776 26.667 40.4195 26.667 47.6258C26.667 54.8322 32.4909 60.674 39.6751 60.674ZM36.9528 42.417C36.8792 42.4312 36.8084 42.4594 36.7436 42.5003C36.6462 42.5616 36.5652 42.6499 36.509 42.7563C36.4527 42.8626 36.4231 42.9833 36.4231 43.1061V52.146C36.4231 52.2687 36.4527 52.3892 36.5089 52.4954C36.5651 52.6017 36.6459 52.6899 36.7432 52.7513C36.8405 52.8127 36.951 52.845 37.0634 52.8451C37.1758 52.8452 37.2862 52.8131 37.3836 52.7518L44.5586 48.2312C44.6558 48.1698 44.7366 48.0815 44.7927 47.9753C44.8489 47.8691 44.8784 47.7487 44.8784 47.6261C44.8784 47.5034 44.8489 47.383 44.7927 47.2768C44.7366 47.1706 44.6558 47.0823 44.5586 47.0209L37.3836 42.5003C37.2534 42.4182 37.1009 42.3888 36.9528 42.417Z"/>
</mask>
<path fill-rule="evenodd" clip-rule="evenodd" d="M39.6751 60.674C46.8593 60.674 52.6833 54.8322 52.6833 47.6258C52.6833 40.4195 46.8593 34.5776 39.6751 34.5776C32.4909 34.5776 26.667 40.4195 26.667 47.6258C26.667 54.8322 32.4909 60.674 39.6751 60.674ZM36.9528 42.417C36.8792 42.4312 36.8084 42.4594 36.7436 42.5003C36.6462 42.5616 36.5652 42.6499 36.509 42.7563C36.4527 42.8626 36.4231 42.9833 36.4231 43.1061V52.146C36.4231 52.2687 36.4527 52.3892 36.5089 52.4954C36.5651 52.6017 36.6459 52.6899 36.7432 52.7513C36.8405 52.8127 36.951 52.845 37.0634 52.8451C37.1758 52.8452 37.2862 52.8131 37.3836 52.7518L44.5586 48.2312C44.6558 48.1698 44.7366 48.0815 44.7927 47.9753C44.8489 47.8691 44.8784 47.7487 44.8784 47.6261C44.8784 47.5034 44.8489 47.383 44.7927 47.2768C44.7366 47.1706 44.6558 47.0823 44.5586 47.0209L37.3836 42.5003C37.2534 42.4182 37.1009 42.3888 36.9528 42.417Z" fill="#DD0004"/>
<path d="M36.7436 42.5003L37.8091 44.1929L37.8109 44.1917L36.7436 42.5003ZM36.9528 42.417L36.5779 40.4525L36.5737 40.4533L36.9528 42.417ZM36.509 42.7563L34.7412 41.8208L34.7412 41.8208L36.509 42.7563ZM36.4231 43.1061L38.4231 43.1061L38.4231 43.1057L36.4231 43.1061ZM36.4231 52.146L34.4231 52.146L34.4231 52.1463L36.4231 52.146ZM36.5089 52.4954L38.2769 51.5604L38.2768 51.5603L36.5089 52.4954ZM36.7432 52.7513L35.6762 54.4429L35.6763 54.4429L36.7432 52.7513ZM37.0634 52.8451L37.0651 50.8451L37.0634 52.8451ZM37.3836 52.7518L38.4477 54.4453L38.4498 54.444L37.3836 52.7518ZM44.5586 48.2312L45.6247 49.9234L45.6267 49.9221L44.5586 48.2312ZM44.7927 47.9753L43.0244 47.0409L43.0244 47.041L44.7927 47.9753ZM44.7927 47.2768L43.0244 48.2111L43.0244 48.2112L44.7927 47.2768ZM44.5586 47.0209L45.6267 45.33L45.6247 45.3287L44.5586 47.0209ZM37.3836 42.5003L38.4498 40.8081L38.4497 40.8081L37.3836 42.5003ZM50.6833 47.6258C50.6833 53.7334 45.749 58.674 39.6751 58.674V62.674C47.9697 62.674 54.6833 55.9309 54.6833 47.6258H50.6833ZM39.6751 36.5776C45.749 36.5776 50.6833 41.5183 50.6833 47.6258H54.6833C54.6833 39.3208 47.9697 32.5776 39.6751 32.5776V36.5776ZM28.667 47.6258C28.667 41.5183 33.6013 36.5776 39.6751 36.5776V32.5776C31.3806 32.5776 24.667 39.3208 24.667 47.6258H28.667ZM39.6751 58.674C33.6013 58.674 28.667 53.7334 28.667 47.6258H24.667C24.667 55.9309 31.3806 62.674 39.6751 62.674V58.674ZM37.8109 44.1917C37.6696 44.2808 37.5077 44.3468 37.3319 44.3808L36.5737 40.4533C36.2507 40.5156 35.9471 40.638 35.6764 40.8088L37.8109 44.1917ZM38.2767 43.6918C38.177 43.8801 38.0218 44.059 37.8091 44.1929L35.6782 40.8077C35.2705 41.0643 34.9535 41.4197 34.7412 41.8208L38.2767 43.6918ZM38.4231 43.1057C38.4231 43.302 38.3763 43.5035 38.2767 43.6917L34.7412 41.8208C34.5291 42.2217 34.423 42.6646 34.4231 43.1065L38.4231 43.1057ZM38.4231 52.146V43.1061H34.4231V52.146H38.4231ZM38.2768 51.5603C38.3763 51.7483 38.4231 51.9496 38.4231 52.1457L34.4231 52.1463C34.4232 52.5877 34.5291 53.03 34.7409 53.4305L38.2768 51.5603ZM37.8102 51.0597C38.0222 51.1934 38.1772 51.3719 38.2769 51.5604L34.7409 53.4305C34.953 53.8314 35.2696 54.1864 35.6762 54.4429L37.8102 51.0597ZM37.0651 50.8451C37.339 50.8454 37.5965 50.9249 37.8101 51.0596L35.6763 54.4429C36.0846 54.7004 36.5629 54.8447 37.0616 54.8451L37.0651 50.8451ZM36.3195 51.0584C36.5333 50.9241 36.7911 50.8449 37.0651 50.8451L37.0616 54.8451C37.5605 54.8456 38.0391 54.702 38.4477 54.4453L36.3195 51.0584ZM43.4924 46.5391L36.3175 51.0597L38.4498 54.444L45.6247 49.9234L43.4924 46.5391ZM43.0244 47.041C43.1243 46.8519 43.2793 46.6737 43.4905 46.5403L45.6267 49.9221C46.0324 49.6659 46.349 49.3111 46.5611 48.9097L43.0244 47.041ZM42.8784 47.6261C42.8784 47.4302 42.925 47.229 43.0244 47.0409L46.561 48.9097C46.7727 48.5092 46.8784 48.0671 46.8784 47.6261H42.8784ZM43.0244 48.2112C42.925 48.0231 42.8784 47.8219 42.8784 47.6261H46.8784C46.8784 47.185 46.7727 46.7429 46.561 46.3424L43.0244 48.2112ZM43.4905 48.7118C43.2793 48.5784 43.1243 48.4002 43.0244 48.2111L46.5611 46.3424C46.3489 45.941 46.0324 45.5862 45.6267 45.33L43.4905 48.7118ZM36.3175 44.1924L43.4924 48.713L45.6247 45.3287L38.4498 40.8081L36.3175 44.1924ZM37.3278 44.3816C36.9671 44.4504 36.606 44.3742 36.3175 44.1924L38.4497 40.8081C37.9008 40.4623 37.2348 40.3271 36.5779 40.4525L37.3278 44.3816Z" fill="black" mask="url(#path-2-inside-1_3009_1559)"/>
<path d="M72.0486 67.2476C73.0006 67.2503 73.8856 67.6197 74.5531 68.2892C75.2213 68.9595 75.5916 69.8494 75.5915 70.8014C75.5942 71.7562 75.2206 72.644 74.5531 73.3135C73.8849 73.9838 73.0005 74.358 72.0486 74.3552C71.0995 74.3552 70.2117 73.9831 69.5442 73.3135C68.876 72.6433 68.5084 71.7561 68.5058 70.8014C68.5051 68.9075 70.1592 67.2483 72.0486 67.2476Z" fill="#DD0004"/>
<path d="M64.5424 63.2561C66.0527 61.7411 67.9333 60.7398 69.9797 60.3355C71.0591 60.1228 72.0546 60.9846 72.0546 62.0885L72.0546 62.0912C72.0546 62.9394 71.4559 63.663 70.6267 63.8326C69.2794 64.109 68.0384 64.7751 67.0469 65.7696C66.0486 66.771 65.3873 68.0116 65.1131 69.3619C64.944 70.1936 64.2226 70.7955 63.377 70.7955L63.3757 70.7955C62.2751 70.7955 61.4153 69.7962 61.6288 68.7135C62.0324 66.663 63.0312 64.7719 64.5424 63.2561Z" fill="black"/>
<path d="M59.5426 58.2317C62.4249 55.3405 66.1213 53.5726 70.1164 53.1381C71.1576 53.0253 72.0625 53.8604 72.0618 54.9103L72.0618 54.9117C72.0618 55.8186 71.3806 56.5758 70.4819 56.6757C67.2942 57.032 64.343 58.441 62.0423 60.7488C59.7465 63.0517 58.3348 66.0107 57.9796 69.1973C57.878 70.1063 57.1286 70.8019 56.2169 70.8026C55.1696 70.8026 54.3377 69.8956 54.4495 68.8518C54.8791 64.8479 56.6494 61.1338 59.5426 58.2317Z" fill="black"/>
</g>
<defs>
<clipPath id="clip0_3009_1559">
<rect width="80" height="80.8989" fill="white"/>
</clipPath>
</defs>
</svg>
