<svg width="88" height="88" viewBox="0 0 88 88" fill="none" xmlns="http://www.w3.org/2000/svg">
<circle cx="42.4622" cy="44" r="10.0625" fill="#DD0004"/>
<path d="M42.1677 6.49959C35.7944 6.52712 29.3877 8.17017 23.5922 11.5174C5.66525 21.8685 -0.487424 44.828 9.8605 62.7519C20.2084 80.6757 43.1594 86.8252 61.0855 76.4749C75.3499 68.238 82.5827 51.6489 78.8926 35.5971V35.594C78.7427 34.9362 78.088 34.5231 77.427 34.67C77.1088 34.7434 76.8335 34.9392 76.6591 35.2146C76.4877 35.493 76.4326 35.8265 76.5061 36.1447C79.9574 51.1587 73.2078 66.6465 59.8645 74.3509C43.085 84.0408 21.6615 78.3101 11.9739 61.5309C2.28705 44.7514 8.02991 23.3279 24.8127 13.6372C38.1558 5.93288 54.9478 7.83908 66.2255 18.3368C66.4642 18.5602 66.7793 18.6795 67.1067 18.6673C67.431 18.6551 67.7401 18.5143 67.9603 18.2726C68.4162 17.78 68.3887 17.0059 67.8961 16.5469C61.8685 10.9354 54.3539 7.61911 46.5673 6.73792C45.1078 6.57269 43.6394 6.49347 42.1677 6.49959ZM75.9499 16.4402C75.7234 16.4341 75.5001 16.4892 75.3043 16.6024L58.611 26.2438C58.2683 26.4396 58.0449 26.7915 58.0051 27.1831L57.3167 33.9328L51.9684 37.02C50.3253 34.7497 47.9816 33.2107 45.4115 32.5222C42.4711 31.7359 39.2309 32.0664 36.3943 33.7063C30.7217 36.9833 28.7635 44.2681 32.0404 49.9414C35.3143 55.6141 42.6116 57.5692 48.2841 54.2954C53.5988 51.2265 55.6518 44.6328 53.1979 39.1467L58.5401 36.0595L64.7329 38.8438C65.0939 39.0029 65.507 38.9815 65.8466 38.7826L82.5525 29.1412C82.9502 28.9117 83.1858 28.4803 83.1613 28.0213C83.1399 27.5593 82.8615 27.1524 82.4423 26.9657L76.482 24.2823L77.1429 17.7866H77.1398C77.201 17.1624 76.7849 16.5933 76.1699 16.4679C76.0995 16.4495 76.0233 16.4402 75.9499 16.4402ZM42.1834 19.2215C37.9641 19.249 33.7451 20.3474 29.954 22.5382C18.1132 29.3736 14.0409 44.55 20.8758 56.3908C27.7112 68.2286 42.8876 72.2891 54.7284 65.4534C62.815 60.7843 67.5977 51.9575 67.0862 42.6341L67.0832 42.631C67.0434 41.9579 66.4651 41.4439 65.792 41.4837C65.1189 41.5204 64.6018 42.0925 64.6354 42.7657C65.0974 51.1734 60.7986 59.1261 53.5042 63.3362C42.8109 69.5106 29.1708 65.8512 22.9962 55.1579C16.8218 44.4646 20.475 30.8332 31.1721 24.6585C38.4664 20.4484 47.5051 20.6932 54.5546 25.298V25.3041C54.8269 25.4816 55.1604 25.5428 55.4786 25.4755C55.7968 25.4082 56.0753 25.2154 56.2527 24.9431C56.6168 24.3771 56.4577 23.6213 55.8917 23.2542C51.9814 20.6994 47.5231 19.3561 43.0255 19.2338C42.744 19.2246 42.4625 19.2246 42.1811 19.2246L42.1834 19.2215ZM74.4663 19.916L74.0227 24.2853L59.933 32.4212L60.3705 28.0489L74.4663 19.916ZM75.2465 26.4087L79.2517 28.2109L65.1683 36.35L61.157 34.5478L75.2465 26.4087ZM42.3213 34.5478C43.1566 34.5447 43.9858 34.6549 44.7874 34.8691C46.7456 35.3953 48.5356 36.5519 49.8328 38.2531L41.7243 42.9344V42.9375C41.1399 43.2771 40.9441 44.0267 41.2837 44.6111C41.4459 44.8926 41.7121 45.0976 42.0241 45.1833C42.3393 45.2659 42.6728 45.2231 42.9543 45.064L51.0597 40.3826C52.8649 44.7029 51.2249 49.7663 47.0545 52.1749C42.5262 54.7879 36.774 53.2489 34.1609 48.7236C31.548 44.1953 33.0931 38.4368 37.6215 35.8238C39.1085 34.967 40.724 34.557 42.3181 34.554L42.3213 34.5478Z" fill="black"/>
<path d="M59.1895 27.1752L76.0312 17.8125L75.6875 24.125L58.5036 33.6916L59.1895 27.1752Z" fill="#DD0004"/>
<path d="M76.1192 25.0625L58.9945 34.7688L65.2343 37.75L81.943 27.4891L76.1192 25.0625Z" fill="#DD0004"/>
</svg>
