<svg width="200" height="200" viewBox="0 0 200 200" fill="none" xmlns="http://www.w3.org/2000/svg">
<path d="M115.25 125C115.25 133.422 108.423 140.25 100 140.25C91.5777 140.25 84.75 133.422 84.75 125C84.75 116.577 91.5776 109.75 100 109.75C108.423 109.75 115.25 116.577 115.25 125Z" stroke="#DD0004" stroke-width="3.5"/>
<mask id="path-2-inside-1_226_4582" fill="white">
<path d="M185.72 113.706C180.593 113.706 176.262 117.152 174.895 121.851H149.679V115.556C149.679 113.448 147.957 111.723 145.851 111.723H132.85L142.044 102.516C143.532 101.025 143.532 98.5858 142.044 97.0949L137.18 92.2244L155.184 74.1924C156.87 75.1187 158.74 75.5896 160.613 75.5896C163.501 75.5896 166.391 74.4891 168.59 72.2861C172.988 67.8818 172.988 60.7142 168.59 56.3099C166.46 54.1756 163.627 53 160.613 53C157.6 53 154.767 54.1756 152.637 56.3092C150.506 58.4429 149.332 61.28 149.332 64.2979C149.332 66.233 149.82 68.0908 150.728 69.7391L132.729 87.7663L128.213 83.2435C126.724 81.7526 124.289 81.7526 122.8 83.2435L113.607 92.4503V79.4298C113.607 77.3214 111.884 75.5965 109.78 75.5965H90.2206C88.1153 75.5965 86.3929 77.3214 86.3929 79.4298V92.4503L77.2001 83.2435C75.7115 81.7526 73.2757 81.7526 71.7872 83.2435L67.2711 87.7663L49.2719 69.7391C50.1797 68.0908 50.6675 66.2327 50.6675 64.2979C50.6675 61.2807 49.4938 58.4436 47.3634 56.3099C45.2331 54.1756 42.4003 53 39.3867 53C36.3733 53 33.5405 54.1756 31.4108 56.3099C27.0125 60.7142 27.0125 67.8818 31.4108 72.2861C33.6095 74.4891 36.4979 75.5906 39.3867 75.5896C41.26 75.5896 43.13 75.1184 44.8153 74.1922L62.8195 92.2244L57.9567 97.0949C56.4681 98.5858 56.4681 101.025 57.9567 102.516L67.1496 111.723H54.1489C52.0437 111.723 50.3213 113.448 50.3213 115.556V121.851H25.1048C23.738 117.152 19.4066 113.706 14.2799 113.706C8.06017 113.706 3 118.774 3 125.003C3 131.232 8.06017 136.3 14.2799 136.3C19.4066 136.3 23.738 132.855 25.1048 128.155H50.3213V135.145C50.3213 137.253 52.0437 138.979 54.1489 138.979H67.1496L57.9567 148.185C56.4681 149.677 56.4681 152.116 57.9567 153.606L62.4727 158.129L44.8158 175.813C40.5327 173.458 35.0364 174.089 31.4108 177.72C27.0125 182.124 27.0125 189.291 31.4108 193.696C33.6095 195.899 36.4979 197 39.3867 197C42.275 197 45.1639 195.899 47.3628 193.696C49.4938 191.563 50.6675 188.725 50.6675 185.708C50.6675 183.773 50.1795 181.916 49.2716 180.267L66.9243 162.587L71.7872 167.457C73.2757 168.949 75.7115 168.949 77.2001 167.457L86.3929 158.251V171.271C86.3929 173.38 88.1153 175.105 90.2206 175.105H109.78C111.884 175.105 113.607 173.38 113.607 171.271V158.251L122.8 167.457C124.289 168.949 126.724 168.949 128.213 167.457L133.076 162.587L150.728 180.267C149.82 181.916 149.332 183.773 149.332 185.708C149.332 188.725 150.506 191.563 152.637 193.696C154.836 195.899 157.725 197 160.613 197C163.501 197 166.391 195.899 168.59 193.696C172.988 189.291 172.988 182.124 168.59 177.72C164.965 174.089 159.469 173.458 155.184 175.813L137.527 158.129L142.044 153.606C143.532 152.116 143.532 149.677 142.044 148.185L132.85 138.979H145.851C147.957 138.979 149.679 137.253 149.679 135.145V128.155H174.895C176.262 132.855 180.593 136.3 185.72 136.3C191.94 136.3 197 131.232 197 125.003C197 118.774 191.94 113.706 185.72 113.706ZM157.089 60.768C158.03 59.8252 159.283 59.3057 160.613 59.3057C161.944 59.3057 163.196 59.8252 164.137 60.768C166.081 62.7146 166.081 65.8814 164.137 67.8278C162.193 69.7738 159.031 69.7744 157.088 67.8271C156.147 66.885 155.629 65.6312 155.629 64.2979C155.629 62.9648 156.147 61.711 157.089 60.768ZM42.9112 67.8278C40.9669 69.7738 37.8065 69.7738 35.8621 67.8278C33.9194 65.8814 33.9194 62.7146 35.8631 60.768C36.8037 59.8252 38.0557 59.3057 39.3867 59.3057C40.718 59.3057 41.9698 59.8252 42.9106 60.768L42.9112 60.769C43.8528 61.711 44.3716 62.9648 44.3716 64.2979C44.3716 65.6312 43.8528 66.885 42.9112 67.8278ZM14.2799 129.994C11.5315 129.994 9.29584 127.755 9.29584 125.003C9.29584 122.251 11.5315 120.012 14.2799 120.012C17.0282 120.012 19.2649 122.251 19.2649 125.003C19.2649 127.755 17.0282 129.994 14.2799 129.994ZM42.9112 189.238C40.9669 191.184 37.8065 191.184 35.8621 189.238C33.9194 187.292 33.9194 184.124 35.8621 182.178C36.8344 181.205 38.1103 180.719 39.3867 180.719C40.6634 180.719 41.94 181.205 42.9112 182.178C43.8528 183.122 44.3716 184.375 44.3716 185.708C44.3716 187.041 43.8528 188.295 42.9112 189.238ZM100 149.629C86.612 149.629 75.7588 138.759 75.7588 125.351C75.7588 111.943 86.612 101.073 100 101.073C113.388 101.073 124.241 111.943 124.241 125.351C124.241 138.759 113.388 149.629 100 149.629ZM157.088 182.178C158.061 181.205 159.337 180.719 160.613 180.719C161.89 180.719 163.165 181.205 164.137 182.178C166.081 184.124 166.081 187.292 164.137 189.238C162.193 191.184 159.033 191.184 157.088 189.238C156.147 188.295 155.629 187.041 155.629 185.708C155.629 184.375 156.147 183.122 157.088 182.178ZM185.72 129.994C182.972 129.994 180.735 127.755 180.735 125.003C180.735 122.251 182.972 120.012 185.72 120.012C188.469 120.012 190.704 122.251 190.704 125.003C190.704 127.755 188.469 129.994 185.72 129.994Z"/>
</mask>
<path d="M185.72 113.706C180.593 113.706 176.262 117.152 174.895 121.851H149.679V115.556C149.679 113.448 147.957 111.723 145.851 111.723H132.85L142.044 102.516C143.532 101.025 143.532 98.5858 142.044 97.0949L137.18 92.2244L155.184 74.1924C156.87 75.1187 158.74 75.5896 160.613 75.5896C163.501 75.5896 166.391 74.4891 168.59 72.2861C172.988 67.8818 172.988 60.7142 168.59 56.3099C166.46 54.1756 163.627 53 160.613 53C157.6 53 154.767 54.1756 152.637 56.3092C150.506 58.4429 149.332 61.28 149.332 64.2979C149.332 66.233 149.82 68.0908 150.728 69.7391L132.729 87.7663L128.213 83.2435C126.724 81.7526 124.289 81.7526 122.8 83.2435L113.607 92.4503V79.4298C113.607 77.3214 111.884 75.5965 109.78 75.5965H90.2206C88.1153 75.5965 86.3929 77.3214 86.3929 79.4298V92.4503L77.2001 83.2435C75.7115 81.7526 73.2757 81.7526 71.7872 83.2435L67.2711 87.7663L49.2719 69.7391C50.1797 68.0908 50.6675 66.2327 50.6675 64.2979C50.6675 61.2807 49.4938 58.4436 47.3634 56.3099C45.2331 54.1756 42.4003 53 39.3867 53C36.3733 53 33.5405 54.1756 31.4108 56.3099C27.0125 60.7142 27.0125 67.8818 31.4108 72.2861C33.6095 74.4891 36.4979 75.5906 39.3867 75.5896C41.26 75.5896 43.13 75.1184 44.8153 74.1922L62.8195 92.2244L57.9567 97.0949C56.4681 98.5858 56.4681 101.025 57.9567 102.516L67.1496 111.723H54.1489C52.0437 111.723 50.3213 113.448 50.3213 115.556V121.851H25.1048C23.738 117.152 19.4066 113.706 14.2799 113.706C8.06017 113.706 3 118.774 3 125.003C3 131.232 8.06017 136.3 14.2799 136.3C19.4066 136.3 23.738 132.855 25.1048 128.155H50.3213V135.145C50.3213 137.253 52.0437 138.979 54.1489 138.979H67.1496L57.9567 148.185C56.4681 149.677 56.4681 152.116 57.9567 153.606L62.4727 158.129L44.8158 175.813C40.5327 173.458 35.0364 174.089 31.4108 177.72C27.0125 182.124 27.0125 189.291 31.4108 193.696C33.6095 195.899 36.4979 197 39.3867 197C42.275 197 45.1639 195.899 47.3628 193.696C49.4938 191.563 50.6675 188.725 50.6675 185.708C50.6675 183.773 50.1795 181.916 49.2716 180.267L66.9243 162.587L71.7872 167.457C73.2757 168.949 75.7115 168.949 77.2001 167.457L86.3929 158.251V171.271C86.3929 173.38 88.1153 175.105 90.2206 175.105H109.78C111.884 175.105 113.607 173.38 113.607 171.271V158.251L122.8 167.457C124.289 168.949 126.724 168.949 128.213 167.457L133.076 162.587L150.728 180.267C149.82 181.916 149.332 183.773 149.332 185.708C149.332 188.725 150.506 191.563 152.637 193.696C154.836 195.899 157.725 197 160.613 197C163.501 197 166.391 195.899 168.59 193.696C172.988 189.291 172.988 182.124 168.59 177.72C164.965 174.089 159.469 173.458 155.184 175.813L137.527 158.129L142.044 153.606C143.532 152.116 143.532 149.677 142.044 148.185L132.85 138.979H145.851C147.957 138.979 149.679 137.253 149.679 135.145V128.155H174.895C176.262 132.855 180.593 136.3 185.72 136.3C191.94 136.3 197 131.232 197 125.003C197 118.774 191.94 113.706 185.72 113.706ZM157.089 60.768C158.03 59.8252 159.283 59.3057 160.613 59.3057C161.944 59.3057 163.196 59.8252 164.137 60.768C166.081 62.7146 166.081 65.8814 164.137 67.8278C162.193 69.7738 159.031 69.7744 157.088 67.8271C156.147 66.885 155.629 65.6312 155.629 64.2979C155.629 62.9648 156.147 61.711 157.089 60.768ZM42.9112 67.8278C40.9669 69.7738 37.8065 69.7738 35.8621 67.8278C33.9194 65.8814 33.9194 62.7146 35.8631 60.768C36.8037 59.8252 38.0557 59.3057 39.3867 59.3057C40.718 59.3057 41.9698 59.8252 42.9106 60.768L42.9112 60.769C43.8528 61.711 44.3716 62.9648 44.3716 64.2979C44.3716 65.6312 43.8528 66.885 42.9112 67.8278ZM14.2799 129.994C11.5315 129.994 9.29584 127.755 9.29584 125.003C9.29584 122.251 11.5315 120.012 14.2799 120.012C17.0282 120.012 19.2649 122.251 19.2649 125.003C19.2649 127.755 17.0282 129.994 14.2799 129.994ZM42.9112 189.238C40.9669 191.184 37.8065 191.184 35.8621 189.238C33.9194 187.292 33.9194 184.124 35.8621 182.178C36.8344 181.205 38.1103 180.719 39.3867 180.719C40.6634 180.719 41.94 181.205 42.9112 182.178C43.8528 183.122 44.3716 184.375 44.3716 185.708C44.3716 187.041 43.8528 188.295 42.9112 189.238ZM100 149.629C86.612 149.629 75.7588 138.759 75.7588 125.351C75.7588 111.943 86.612 101.073 100 101.073C113.388 101.073 124.241 111.943 124.241 125.351C124.241 138.759 113.388 149.629 100 149.629ZM157.088 182.178C158.061 181.205 159.337 180.719 160.613 180.719C161.89 180.719 163.165 181.205 164.137 182.178C166.081 184.124 166.081 187.292 164.137 189.238C162.193 191.184 159.033 191.184 157.088 189.238C156.147 188.295 155.629 187.041 155.629 185.708C155.629 184.375 156.147 183.122 157.088 182.178ZM185.72 129.994C182.972 129.994 180.735 127.755 180.735 125.003C180.735 122.251 182.972 120.012 185.72 120.012C188.469 120.012 190.704 122.251 190.704 125.003C190.704 127.755 188.469 129.994 185.72 129.994Z" stroke="#DD0004" stroke-width="7" mask="url(#path-2-inside-1_226_4582)"/>
<path d="M135.236 14.5C135.209 14.5493 135.148 14.6384 135.017 14.7682C134.717 15.0653 134.182 15.4359 133.336 15.8412C131.653 16.6479 129.105 17.4214 125.815 18.0882C119.265 19.416 110.137 20.25 99.9999 20.25C89.863 20.25 80.735 19.416 74.1847 18.0882C70.8951 17.4214 68.3472 16.6479 66.6639 15.8412C65.8182 15.4359 65.2832 15.0653 64.9833 14.7682C64.8521 14.6384 64.7914 14.5493 64.7644 14.5C64.7914 14.4507 64.8521 14.3617 64.9833 14.2318C65.2832 13.9347 65.8182 13.5641 66.6639 13.1588C68.3472 12.3521 70.8951 11.5786 74.1847 10.9118C80.735 9.58404 89.863 8.75 99.9999 8.75C110.137 8.75 119.265 9.58404 125.815 10.9118C129.105 11.5786 131.653 12.3521 133.336 13.1588C134.182 13.5641 134.717 13.9347 135.017 14.2318C135.148 14.3617 135.209 14.4507 135.236 14.5ZM64.7445 14.4538C64.7448 14.4538 64.7459 14.4569 64.7471 14.463C64.7448 14.4569 64.7442 14.4538 64.7445 14.4538ZM64.7445 14.5462C64.7442 14.5462 64.7448 14.5432 64.7471 14.537C64.7459 14.5431 64.7448 14.5462 64.7445 14.5462ZM135.253 14.537C135.255 14.5432 135.256 14.5463 135.255 14.5462C135.255 14.5462 135.254 14.5431 135.253 14.537ZM135.253 14.463C135.254 14.4569 135.255 14.4538 135.256 14.4538C135.256 14.4538 135.255 14.4568 135.253 14.463Z" stroke="#DD0004" stroke-width="3.5"/>
<path d="M112.747 41.887L112.747 41.887C109.068 43.2918 106.638 46.8211 106.638 50.7589V64.1818C106.638 67.4933 103.953 70.1781 100.641 70.1781H98.4951C95.1832 70.1781 92.4985 67.4935 92.4985 64.1818V50.7589C92.4985 46.821 90.0683 43.2918 86.3897 41.887L86.3896 41.887L66.6073 34.3339L66.6073 34.3339C64.2845 33.4471 62.75 31.2184 62.75 28.7318C62.75 24.8818 66.3337 22.0474 70.1531 22.9033C77.3874 24.5249 87.9085 25.5325 99.5673 25.5387L99.5691 25.5387C111.228 25.5325 121.749 24.525 128.983 22.9033C132.803 22.0474 136.386 24.8818 136.386 28.7318C136.386 31.2185 134.852 33.4471 132.529 34.3339L132.529 34.3339L112.747 41.887Z" stroke="#DD0004" stroke-width="3.5"/>
</svg>
