<svg width="86" height="85" viewBox="0 0 86 85" fill="none" xmlns="http://www.w3.org/2000/svg">
<path d="M35.6751 29.3033L39.5822 25.3962L42.0242 24.4194H44.4661L48.8616 25.3962L51.3036 29.3033V34.1872L49.8384 38.5827L53.2571 41.0247L55.6991 42.4898L56.6759 46.3969L57.1642 59.5835L55.6991 60.5602H30.7912L29.8145 56.6531V50.7924L30.7912 46.3969L32.7448 42.4898L36.6519 37.6059L35.1867 33.6988L35.6751 29.3033Z" fill="#DD0004"/>
<path d="M21.2664 9.37488C28.8418 4.31249 37.9388 1.98892 47.0337 2.79333C56.1285 3.59774 64.6689 7.48128 71.2243 13.7935L66.0226 13.43C65.8484 13.4174 65.6734 13.4391 65.5077 13.4937C65.342 13.5484 65.1887 13.635 65.0567 13.7485C64.9247 13.8621 64.8166 14.0004 64.7385 14.1555C64.6604 14.3106 64.6139 14.4795 64.6016 14.6525C64.5893 14.8255 64.6115 14.9992 64.667 15.1637C64.7224 15.3281 64.8099 15.4801 64.9245 15.6109C65.0392 15.7417 65.1787 15.8488 65.3351 15.926C65.4914 16.0032 65.6616 16.049 65.8358 16.0608L73.6857 16.6094C73.7001 16.6103 73.7144 16.6103 73.7288 16.6109L73.7372 16.612C73.7515 16.6126 73.7658 16.6126 73.7797 16.6126C73.8659 16.6126 73.9526 16.6041 74.0371 16.5874C74.0668 16.5816 74.0941 16.57 74.1231 16.5623C74.1756 16.5498 74.2273 16.5343 74.278 16.5156C74.3114 16.5021 74.3415 16.4831 74.3735 16.467C74.416 16.4475 74.4575 16.4257 74.4977 16.4018C74.5294 16.3815 74.5571 16.3563 74.5869 16.3335C74.6231 16.3075 74.658 16.2798 74.6915 16.2503C74.719 16.2245 74.7419 16.1947 74.7672 16.1665C74.7978 16.1345 74.8268 16.1009 74.854 16.0659C74.8765 16.0352 74.8939 16.0013 74.9136 15.9687C74.9377 15.9313 74.9599 15.8928 74.9801 15.8531C74.9968 15.818 75.008 15.7803 75.0215 15.7434C75.0381 15.702 75.0525 15.6598 75.0647 15.617C75.0746 15.578 75.0787 15.5371 75.085 15.4968C75.0908 15.4599 75.101 15.4246 75.1037 15.3867C75.1043 15.3781 75.1024 15.37 75.1029 15.3613C75.1033 15.3527 75.106 15.3446 75.1063 15.3358L75.1095 15.2324C75.193 15.0642 75.2392 14.8801 75.2451 14.6926C75.2511 14.5052 75.2167 14.3186 75.1441 14.1454L75.3559 7.48317C75.3614 7.31009 75.3326 7.13762 75.271 6.97561C75.2094 6.8136 75.1163 6.66522 74.997 6.53894C74.8777 6.41267 74.7345 6.31097 74.5756 6.23966C74.4167 6.16834 74.2452 6.12881 74.0709 6.12331C73.8966 6.11781 73.7229 6.14646 73.5598 6.20761C73.3967 6.26877 73.2473 6.36123 73.1201 6.47973C72.993 6.59823 72.8906 6.74044 72.8188 6.89825C72.7469 7.05605 72.7071 7.22635 72.7016 7.39943L72.5733 11.4364C65.56 4.89332 56.5172 0.909615 46.9261 0.137822C37.335 -0.633971 27.7643 1.85191 19.7818 7.18824C19.4914 7.38441 19.2911 7.68687 19.2247 8.0294C19.1583 8.37193 19.2313 8.72663 19.4277 9.01584C19.624 9.30505 19.9278 9.50521 20.2724 9.57249C20.6171 9.63977 20.9744 9.56875 21.2664 9.37488Z" fill="black"/>
<path d="M81.5902 23.4569C81.4332 23.1442 81.1577 22.9062 80.8241 22.795C80.4906 22.6839 80.1263 22.7088 79.8111 22.8642C79.496 23.0196 79.2559 23.2928 79.1435 23.6239C79.031 23.955 79.0555 24.3168 79.2114 24.63C82.2916 30.8138 83.6912 37.6896 83.2715 44.5759C82.8517 51.4623 80.6273 58.1203 76.8185 63.8899L75.9875 59.392C75.956 59.2217 75.8911 59.0592 75.7963 58.9138C75.7016 58.7684 75.5789 58.6429 75.4354 58.5446C75.2918 58.4463 75.1302 58.377 74.9596 58.3407C74.7891 58.3044 74.6131 58.3019 74.4416 58.3331C74.27 58.3644 74.1064 58.429 73.96 58.523C73.8136 58.6171 73.6873 58.7389 73.5883 58.8815C73.4893 59.0241 73.4195 59.1846 73.383 59.354C73.3464 59.5233 73.3439 59.6981 73.3754 59.8685L74.7213 67.1539C74.7231 67.1634 74.7271 67.1719 74.729 67.1814C74.7306 67.1888 74.73 67.196 74.7317 67.2035C74.7387 67.2345 74.7511 67.2626 74.7601 67.2926C74.7714 67.3301 74.7813 67.3682 74.7957 67.4041C74.8104 67.4406 74.8291 67.4744 74.8467 67.5091C74.8635 67.542 74.8787 67.5757 74.898 67.6068C74.9195 67.6414 74.9447 67.6726 74.9691 67.7048C74.9898 67.7321 75.0089 67.7607 75.0315 67.7862C75.0593 67.8175 75.0906 67.8448 75.1211 67.8732C75.145 67.8955 75.1673 67.9193 75.1927 67.9397C75.2256 67.9662 75.2617 67.9881 75.2969 68.0113C75.3238 68.0289 75.3491 68.0486 75.3772 68.0643C75.4144 68.0851 75.4542 68.1007 75.4933 68.1179C75.5225 68.1307 75.5504 68.1461 75.5806 68.1568C75.6242 68.1709 75.6685 68.1827 75.7133 68.1923C75.7418 68.1992 75.7692 68.2092 75.7983 68.2143C75.8701 68.2266 75.9428 68.233 76.0156 68.2334L76.0258 68.2343L76.0278 68.2341C76.108 68.234 76.1881 68.2268 76.267 68.2124C76.2751 68.2109 76.2823 68.2073 76.2903 68.2057C76.2994 68.2038 76.3084 68.2047 76.3175 68.2027L83.6344 66.5756C83.9775 66.4986 84.2757 66.2895 84.4637 65.9943C84.6517 65.6991 84.7142 65.3419 84.6373 65.0011C84.5605 64.6602 84.3507 64.3636 84.0539 64.1762C83.7571 63.9888 83.3976 63.9259 83.0542 64.0014L79.3858 64.8172C83.2971 58.6907 85.5544 51.6675 85.9405 44.4236C86.3265 37.1797 84.8284 29.9591 81.5902 23.4569Z" fill="black"/>
<path d="M69.9077 75.2641C70.1835 75.0466 70.3611 74.7292 70.4012 74.3818C70.4414 74.0343 70.341 73.6852 70.122 73.4113C69.903 73.1374 69.5835 72.9611 69.2336 72.9212C68.8837 72.8813 68.5322 72.981 68.2564 73.1985C61.2318 78.7705 52.5002 81.79 43.5101 81.7562C35.362 81.747 27.4116 79.2632 20.7256 74.6383L25.4469 73.778C25.6184 73.7468 25.782 73.6823 25.9283 73.5882C26.0747 73.4942 26.201 73.3725 26.3 73.23C26.399 73.0875 26.4688 72.927 26.5054 72.7577C26.5419 72.5884 26.5445 72.4136 26.5131 72.2433C26.4816 72.073 26.4167 71.9106 26.322 71.7652C26.2273 71.6198 26.1047 71.4944 25.9612 71.3961C25.8177 71.2977 25.6561 71.2285 25.4857 71.1922C25.3152 71.1558 25.1392 71.1532 24.9677 71.1845L17.0596 72.6255C17.0519 72.6269 17.0451 72.6303 17.0374 72.6318C17.0279 72.6337 17.0185 72.633 17.009 72.6351C16.9693 72.644 16.9337 72.6604 16.8957 72.6726C16.8567 72.685 16.8168 72.6953 16.7797 72.7109C16.7379 72.73 16.6971 72.7512 16.6576 72.7744C16.6214 72.7944 16.5844 72.8126 16.5506 72.8355C16.5149 72.8612 16.4806 72.8887 16.4477 72.9179C16.4158 72.9446 16.3829 72.9699 16.3538 72.9993C16.3238 73.0297 16.2984 73.0634 16.2715 73.0964C16.2448 73.1293 16.217 73.1609 16.1935 73.1961C16.1705 73.2307 16.1525 73.2677 16.1328 73.3043C16.1123 73.3423 16.0907 73.3794 16.074 73.4194C16.0581 73.4575 16.0476 73.4974 16.0353 73.5369C16.0212 73.5781 16.0092 73.62 15.9993 73.6624C15.9908 73.7041 15.9883 73.7469 15.984 73.7895C15.9783 73.8326 15.9747 73.8759 15.9734 73.9193C15.9733 73.9628 15.9797 74.0066 15.9841 74.0505C15.9877 74.0873 15.9862 74.1235 15.993 74.1604C15.9948 74.17 15.9988 74.1785 16.0007 74.1879C16.0023 74.1953 16.0018 74.2026 16.0034 74.21L17.7692 82.044C17.835 82.3363 17.999 82.5976 18.2343 82.785C18.4696 82.9724 18.7621 83.0746 19.0636 83.0749C19.1616 83.0748 19.2594 83.0642 19.3551 83.0433C19.6986 82.9668 19.9975 82.7579 20.1861 82.4626C20.3746 82.1672 20.4374 81.8097 20.3607 81.4684L19.3278 76.8859C26.4356 81.7655 34.8693 84.3838 43.5101 84.3935C53.1002 84.4293 62.4145 81.2081 69.9077 75.2641Z" fill="black"/>
<path d="M12.5556 27.2409C12.7271 27.2097 12.8908 27.1452 13.0372 27.0512C13.1836 26.9571 13.31 26.8354 13.409 26.6928C13.508 26.5503 13.5778 26.3898 13.6144 26.2204C13.651 26.0511 13.6536 25.8763 13.6221 25.7059L12.0668 17.2886C12.0651 17.2797 12.0611 17.2719 12.0593 17.2631C12.0576 17.255 12.0582 17.2471 12.0564 17.239C12.0487 17.2049 12.034 17.1745 12.0238 17.1416C12.0113 17.0963 11.9964 17.0518 11.9792 17.0081C11.9625 16.9695 11.9411 16.9345 11.921 16.8981C11.9006 16.8582 11.8781 16.8194 11.8537 16.7817C11.8304 16.7483 11.8033 16.7188 11.7772 16.6878C11.7491 16.6524 11.7193 16.6185 11.6877 16.5862C11.6615 16.5608 11.6323 16.5395 11.6042 16.5164C11.5667 16.4841 11.5275 16.454 11.4867 16.426C11.4614 16.4095 11.434 16.397 11.4076 16.3823C11.3595 16.3541 11.3096 16.3291 11.2583 16.3072C11.235 16.2978 11.2105 16.292 11.1866 16.284C11.1296 16.2635 11.0712 16.247 11.0119 16.2346C10.9863 16.2297 10.96 16.2288 10.934 16.2253C10.8753 16.2164 10.8162 16.2116 10.7569 16.2107C10.7184 16.2107 10.6794 16.2169 10.6405 16.2203C10.6006 16.224 10.5612 16.2227 10.5211 16.2301C10.5133 16.2315 10.5065 16.235 10.4988 16.2365C10.4894 16.2384 10.48 16.2377 10.4706 16.2397L2.01645 18.1192C1.69757 18.1901 1.41622 18.3754 1.22625 18.6394C1.03628 18.9035 0.95101 19.2278 0.986767 19.5504C1.02252 19.873 1.17679 20.1712 1.42006 20.3879C1.66332 20.6046 1.9785 20.7246 2.30529 20.7249C2.4033 20.7249 2.50102 20.7143 2.59674 20.6934L7.64374 19.5714C3.25416 26.4362 0.954664 34.4142 1.02173 42.5459C1.08879 50.6777 3.51955 58.6171 8.02177 65.4097C8.21655 65.6997 8.51905 65.9013 8.86311 65.9705C9.20718 66.0396 9.56481 65.9706 9.85781 65.7786C10.1508 65.5866 10.3553 65.2872 10.4266 64.9459C10.498 64.6045 10.4303 64.249 10.2384 63.9571C5.99596 57.5562 3.71633 50.0696 3.6764 42.4067C3.63648 34.7437 5.83798 27.2341 10.0135 20.79L11.0099 26.1824C11.0413 26.3528 11.1062 26.5153 11.2009 26.6607C11.2955 26.8062 11.4182 26.9316 11.5617 27.03C11.7053 27.1283 11.867 27.1975 12.0375 27.2337C12.208 27.2699 12.3841 27.2724 12.5556 27.2409Z" fill="black"/>
<path d="M28.8835 59.3392C28.8842 60.0384 29.1642 60.7088 29.6621 61.2033C30.16 61.6977 30.835 61.9758 31.5391 61.9765H55.4396C56.1437 61.9758 56.8187 61.6977 57.3166 61.2033C57.8145 60.7088 58.0945 60.0384 58.0952 59.3392V47.8995C58.0937 46.2781 57.6808 44.6833 56.8948 43.2621C56.1088 41.841 54.975 40.6394 53.598 39.7683C53.0583 40.4891 52.4426 41.1506 51.7614 41.7416C52.874 42.3463 53.8025 43.237 54.4496 44.3204C55.0967 45.4037 55.4386 46.6399 55.4396 47.8995L55.4412 59.3392H31.5391V47.8995C31.5401 46.6399 31.882 45.4037 32.5291 44.3204C33.1762 43.237 34.1047 42.3463 35.2173 41.7416C34.5361 41.1506 33.9204 40.4891 33.3807 39.7683C32.0037 40.6394 30.8698 41.841 30.0838 43.2621C29.2978 44.6833 28.885 46.2781 28.8835 47.8995V59.3392Z" fill="black"/>
<path d="M33.5308 32.3069C33.5308 34.2629 34.1148 36.175 35.2091 37.8014C36.3033 39.4278 37.8587 40.6954 39.6783 41.4439C41.498 42.1925 43.5004 42.3883 45.4321 42.0067C47.3639 41.6251 49.1384 40.6832 50.5311 39.3001C51.9238 37.917 52.8723 36.1547 53.2565 34.2363C53.6408 32.3178 53.4436 30.3293 52.6898 28.5222C51.9361 26.715 50.6597 25.1705 49.022 24.0837C47.3843 22.997 45.4589 22.417 43.4893 22.417C40.8491 22.4199 38.3178 23.4628 36.4508 25.3169C34.5838 27.171 33.5337 29.6848 33.5308 32.3069ZM43.4893 25.0543C44.9337 25.0543 46.3457 25.4797 47.5466 26.2766C48.7476 27.0735 49.6836 28.2062 50.2364 29.5314C50.7891 30.8567 50.9337 32.3149 50.6519 33.7218C50.3702 35.1286 49.6746 36.4209 48.6533 37.4352C47.6319 38.4495 46.3307 39.1403 44.9141 39.4201C43.4974 39.6999 42.029 39.5563 40.6946 39.0074C39.3602 38.4585 38.2196 37.5289 37.4171 36.3362C36.6147 35.1435 36.1864 33.7413 36.1864 32.3069C36.1886 30.384 36.9587 28.5406 38.3278 27.1809C39.6969 25.8213 41.5531 25.0565 43.4893 25.0543Z" fill="black"/>
<path d="M55.5407 68.495C54.9592 68.7577 54.363 69.0043 53.7694 69.227C53.6061 69.2881 53.4564 69.3806 53.3291 69.4992C53.2018 69.6177 53.0992 69.7601 53.0273 69.918C52.9554 70.076 52.9156 70.2465 52.9101 70.4197C52.9045 70.593 52.9335 70.7657 52.9952 70.9278C53.057 71.09 53.1503 71.2384 53.2698 71.3647C53.3894 71.491 53.5329 71.5927 53.692 71.6639C53.8512 71.7351 54.0229 71.7744 54.1974 71.7796C54.3719 71.7849 54.5457 71.7559 54.7089 71.6944C55.3566 71.451 56.0065 71.1818 56.6409 70.8953C56.9614 70.7504 57.2109 70.485 57.3343 70.1575C57.4578 69.8299 57.4452 69.4671 57.2993 69.1488C57.1534 68.8305 56.8862 68.5828 56.5564 68.4602C56.2266 68.3376 55.8613 68.3501 55.5407 68.495Z" fill="black"/>
<path d="M48.8573 70.5923C48.2306 70.7082 47.5937 70.8048 46.9648 70.8788C46.6287 70.9185 46.3205 71.084 46.1032 71.3417C45.8859 71.5994 45.7759 71.9298 45.7957 72.2653C45.8154 72.6008 45.9634 72.9162 46.2094 73.147C46.4555 73.3778 46.7809 73.5066 47.1194 73.5071C47.1721 73.507 47.2248 73.504 47.2773 73.4981C47.9648 73.417 48.6602 73.3114 49.3448 73.1845C49.5164 73.153 49.68 73.0881 49.8263 72.9936C49.9726 72.8992 50.0988 72.777 50.1975 72.6341C50.2962 72.4912 50.3656 72.3304 50.4017 72.1609C50.4378 71.9913 50.4399 71.8164 50.4079 71.646C50.3758 71.4757 50.3103 71.3133 50.215 71.1681C50.1197 71.0229 49.9965 70.8978 49.8525 70.7999C49.7085 70.7021 49.5465 70.6334 49.3757 70.5977C49.2049 70.5621 49.0288 70.5603 48.8573 70.5923Z" fill="black"/>
<path d="M61.592 16.2996C61.0247 15.9075 60.4354 15.5283 59.8396 15.1716C59.6902 15.0821 59.5246 15.0228 59.3522 14.997C59.1798 14.9711 59.0039 14.9792 58.8346 15.0209C58.6654 15.0625 58.506 15.1369 58.3657 15.2397C58.2254 15.3425 58.1068 15.4717 58.0167 15.62C57.9267 15.7683 57.867 15.9328 57.8409 16.104C57.8149 16.2753 57.8231 16.4499 57.865 16.618C57.9069 16.7861 57.9818 16.9444 58.0853 17.0837C58.1888 17.2231 58.319 17.3408 58.4683 17.4303C59.0149 17.7573 59.5559 18.1057 60.0756 18.4643C60.2187 18.5637 60.3801 18.634 60.5506 18.6713C60.7211 18.7086 60.8974 18.7121 61.0693 18.6817C61.2412 18.6513 61.4053 18.5875 61.5523 18.4939C61.6994 18.4004 61.8264 18.279 61.9261 18.1367C62.0258 17.9943 62.0963 17.8339 62.1335 17.6644C62.1706 17.495 62.1738 17.32 62.1428 17.1493C62.1117 16.9787 62.0471 16.8158 61.9526 16.67C61.8581 16.5242 61.7356 16.3983 61.592 16.2996Z" fill="black"/>
<path d="M61.5207 64.8637C61.0228 65.2558 60.5045 65.6363 59.9796 65.9956C59.6897 66.1942 59.4911 66.499 59.4275 66.843C59.3639 67.1871 59.4406 67.5421 59.6405 67.83C59.8405 68.1179 60.1475 68.3151 60.4939 68.3783C60.8403 68.4414 61.1978 68.3653 61.4877 68.1667C62.0602 67.7746 62.6258 67.3587 63.1695 66.9318C63.3062 66.8243 63.4203 66.6911 63.5052 66.5398C63.5901 66.3885 63.6442 66.2221 63.6643 66.0501C63.6844 65.878 63.6703 65.7037 63.6226 65.5371C63.5749 65.3705 63.4946 65.2149 63.3864 65.0791C63.2781 64.9433 63.144 64.83 62.9916 64.7457C62.8393 64.6614 62.6717 64.6077 62.4985 64.5877C62.3252 64.5677 62.1497 64.5818 61.982 64.6291C61.8142 64.6765 61.6575 64.7561 61.5207 64.8637Z" fill="black"/>
<path d="M28.5635 66.9955C28.015 66.6684 27.473 66.3213 26.953 65.964C26.6634 65.7665 26.3068 65.6911 25.9613 65.7542C25.6158 65.8173 25.3096 66.0138 25.1097 66.3006C24.9097 66.5875 24.8324 66.9414 24.8947 67.2847C24.9569 67.6281 25.1536 67.9329 25.4417 68.1325C26.0087 68.5221 26.599 68.9 27.1962 69.2568C27.4981 69.4362 27.8594 69.4893 28.2007 69.4044C28.542 69.3195 28.8354 69.1036 29.0166 68.804C29.1977 68.5045 29.2517 68.1458 29.1668 67.8067C29.0819 67.4676 28.8649 67.1758 28.5635 66.9955Z" fill="black"/>
<path d="M25.5461 16.19C24.9723 16.5815 24.4057 16.9955 23.862 17.4204C23.5854 17.6369 23.4066 17.9536 23.3651 18.301C23.3235 18.6483 23.4227 18.9978 23.6406 19.2726C23.8586 19.5473 24.1775 19.7248 24.5272 19.7661C24.877 19.8073 25.2289 19.7089 25.5056 19.4924C26.0038 19.1022 26.5231 18.723 27.0496 18.3637C27.1938 18.2659 27.3171 18.1407 27.4125 17.9955C27.5079 17.8502 27.5735 17.6877 27.6056 17.5173C27.6376 17.3468 27.6355 17.1717 27.5994 17.0021C27.5632 16.8324 27.4937 16.6715 27.3948 16.5285C27.296 16.3856 27.1697 16.2634 27.0232 16.169C26.8767 16.0746 26.7129 16.0098 26.5412 15.9784C26.3694 15.947 26.1932 15.9495 26.0224 15.9858C25.8517 16.0221 25.6898 16.0915 25.5461 16.19Z" fill="black"/>
<path d="M33.1509 69.2059C32.9878 69.1441 32.8142 69.1148 32.6397 69.1197C32.4653 69.1246 32.2935 69.1636 32.1343 69.2344C31.9751 69.3053 31.8314 69.4066 31.7117 69.5327C31.5919 69.6587 31.4983 69.8069 31.4363 69.9689C31.3742 70.1309 31.345 70.3034 31.3501 70.4766C31.3553 70.6499 31.3948 70.8204 31.4664 70.9784C31.5379 71.1365 31.6402 71.279 31.7672 71.3977C31.8943 71.5165 32.0437 71.6093 32.2069 71.6706C32.8523 71.9147 33.5178 72.1413 34.1846 72.3441C34.5213 72.4466 34.8852 72.412 35.1962 72.2481C35.5072 72.0841 35.7399 71.8041 35.8431 71.4698C35.9463 71.1354 35.9115 70.774 35.7464 70.4652C35.5813 70.1563 35.2993 69.9252 34.9627 69.8227C34.3516 69.6367 33.7422 69.4293 33.1509 69.2059Z" fill="black"/>
<path d="M39.9526 70.8716C39.7795 70.8508 39.604 70.8641 39.4361 70.9106C39.2681 70.9572 39.1111 71.0362 38.9739 71.143C38.6968 71.3588 38.5173 71.675 38.475 72.0222C38.4327 72.3694 38.531 72.719 38.7483 72.9942C38.9656 73.2694 39.2841 73.4476 39.6336 73.4896C40.3241 73.5727 41.0243 73.6338 41.7151 73.6718C41.7401 73.6731 41.7647 73.6737 41.7894 73.6737C42.1353 73.6737 42.4675 73.5396 42.7154 73.2999C42.9632 73.0603 43.1072 72.7341 43.1165 72.3907C43.1258 72.0473 42.9999 71.7138 42.7654 71.4612C42.5309 71.2087 42.2064 71.057 41.861 71.0384C41.2282 71.0036 40.5861 70.9476 39.9526 70.8716Z" fill="black"/>
<path d="M65.8675 19.8402C65.6177 19.5937 65.2795 19.4559 64.9273 19.457C64.5751 19.4582 64.2378 19.5982 63.9896 19.8463C63.7414 20.0945 63.6026 20.4303 63.6037 20.7801C63.6049 21.1299 63.7459 21.4648 63.9957 21.7113C64.4467 22.1562 64.8885 22.6224 65.3093 23.0956C65.4245 23.2259 65.5644 23.3323 65.721 23.4088C65.8776 23.4853 66.0479 23.5304 66.2221 23.5415C66.3963 23.5526 66.571 23.5294 66.7362 23.4733C66.9014 23.4173 67.0538 23.3294 67.1847 23.2148C67.3157 23.1001 67.4226 22.961 67.4993 22.8053C67.576 22.6496 67.6211 22.4804 67.6319 22.3074C67.6427 22.1343 67.619 21.9609 67.5622 21.797C67.5055 21.6331 67.4167 21.4819 67.301 21.352C66.8423 20.835 66.36 20.3264 65.8675 19.8402Z" fill="black"/>
<path d="M37.9385 13.8124C38.02 13.8124 38.1012 13.8051 38.1813 13.7905C38.8086 13.6753 39.4456 13.58 40.0745 13.5072C40.2478 13.4874 40.4156 13.4338 40.568 13.3496C40.7205 13.2653 40.8548 13.152 40.9631 13.0162C41.0715 12.8804 41.1518 12.7247 41.1996 12.558C41.2473 12.3913 41.2614 12.2169 41.2412 12.0448C41.2211 11.8727 41.1669 11.7062 41.0819 11.5549C40.9968 11.4036 40.8826 11.2704 40.7457 11.1629C40.6088 11.0555 40.4519 10.9759 40.284 10.9287C40.1161 10.8815 39.9405 10.8677 39.7672 10.888C39.0799 10.9672 38.3843 11.0715 37.699 11.197C37.3734 11.2567 37.082 11.435 36.8819 11.697C36.6818 11.959 36.5876 12.2858 36.6176 12.6132C36.6475 12.9407 36.7997 13.2452 37.044 13.4671C37.2884 13.6889 37.6074 13.8121 37.9385 13.8124Z" fill="black"/>
<path d="M53.8845 15.2102C54.2135 15.3353 54.579 15.3255 54.9006 15.183C55.2223 15.0404 55.4738 14.7768 55.5997 14.4501C55.7257 14.1235 55.7158 13.7605 55.5723 13.441C55.4287 13.1216 55.1633 12.8718 54.8343 12.7468C54.1899 12.5021 53.5247 12.2742 52.8575 12.0694C52.5212 11.9668 52.1575 12.0009 51.8465 12.1643C51.5355 12.3278 51.3025 12.6071 51.1987 12.941C51.0949 13.275 51.1288 13.6361 51.293 13.9452C51.4572 14.2543 51.7382 14.4861 52.0743 14.5895C52.6857 14.7769 53.2949 14.9855 53.8845 15.2102Z" fill="black"/>
<path d="M17.541 59.2776C17.7769 59.2774 18.0084 59.2148 18.2118 59.0963C18.4153 58.9777 18.5832 58.8075 18.6984 58.6031C18.8136 58.3987 18.872 58.1676 18.8674 57.9334C18.8628 57.6992 18.7955 57.4704 18.6724 57.2707C18.3368 56.7266 18.0179 56.169 17.7242 55.614C17.5597 55.3054 17.2788 55.0742 16.9429 54.971C16.6071 54.8678 16.2438 54.9011 15.9326 55.0636C15.6214 55.226 15.3878 55.5043 15.283 55.8376C15.1781 56.1708 15.2106 56.5317 15.3733 56.8412C15.6942 57.4471 16.042 58.0549 16.4071 58.6472C16.5258 58.84 16.6925 58.9993 16.8911 59.1097C17.0896 59.22 17.3134 59.2779 17.541 59.2776Z" fill="black"/>
<path d="M32.3323 12.6759C31.6859 12.9173 31.0356 13.1845 30.3986 13.4704C30.2394 13.5416 30.096 13.6432 29.9764 13.7695C29.8568 13.8958 29.7635 14.0443 29.7017 14.2064C29.64 14.3686 29.6111 14.5412 29.6166 14.7145C29.6221 14.8878 29.662 15.0583 29.7339 15.2162C29.8059 15.3742 29.9085 15.5165 30.0358 15.635C30.1632 15.7536 30.3129 15.846 30.4763 15.907C30.6397 15.968 30.8136 15.9965 30.988 15.9907C31.1625 15.9849 31.3341 15.945 31.493 15.8733C32.0775 15.6106 32.674 15.366 33.2666 15.1445C33.4298 15.0835 33.5793 14.9913 33.7066 14.873C33.8339 14.7547 33.9366 14.6126 34.0086 14.4549C34.0806 14.2972 34.1207 14.127 34.1265 13.9539C34.1322 13.7808 34.1036 13.6083 34.0423 13.4462C33.981 13.2842 33.8881 13.1357 33.7689 13.0092C33.6498 12.8828 33.5068 12.7809 33.348 12.7093C33.1892 12.6378 33.0178 12.598 32.8435 12.5923C32.6692 12.5865 32.4955 12.6149 32.3323 12.6759Z" fill="black"/>
<path d="M70.6063 25.8023C70.516 25.6537 70.3969 25.5242 70.256 25.4213C70.1152 25.3184 69.9552 25.2442 69.7854 25.2029C69.6155 25.1616 69.4391 25.154 69.2663 25.1806C69.0935 25.2072 68.9277 25.2674 68.7784 25.3578C68.6291 25.4482 68.4993 25.567 68.3963 25.7073C68.2934 25.8477 68.2194 26.0069 68.1785 26.1758C68.1377 26.3446 68.1309 26.5198 68.1584 26.6913C68.186 26.8628 68.2474 27.0272 68.3391 27.1751C68.6704 27.7153 68.9881 28.2728 69.2831 28.833C69.3639 28.9865 69.4743 29.1227 69.6081 29.2337C69.7419 29.3448 69.8964 29.4286 70.0628 29.4804C70.2292 29.5322 70.4042 29.5509 70.5779 29.5355C70.7516 29.5201 70.9205 29.4709 71.0751 29.3906C71.2296 29.3104 71.3667 29.2007 71.4786 29.0678C71.5904 28.935 71.6748 28.7815 71.727 28.6163C71.7791 28.451 71.7979 28.2772 71.7824 28.1047C71.7669 27.9322 71.7173 27.7644 71.6365 27.611C71.3146 26.9999 70.9681 26.3915 70.6063 25.8023Z" fill="black"/>
<path d="M21.7092 61.3432C21.4755 61.0817 21.1467 60.9231 20.7953 60.9023C20.4438 60.8814 20.0984 61 19.835 61.232C19.5716 61.464 19.4117 61.7904 19.3905 62.1394C19.3693 62.4884 19.4886 62.8315 19.722 63.0932C20.182 63.6083 20.665 64.115 21.1578 64.6005C21.408 64.8467 21.7464 64.984 22.0986 64.9824C22.4508 64.9808 22.7879 64.8403 23.0357 64.5918C23.2836 64.3434 23.4219 64.0073 23.4203 63.6575C23.4186 63.3078 23.2772 62.973 23.027 62.7268C22.5747 62.2819 22.1313 61.8164 21.7092 61.3432Z" fill="black"/>
<path d="M66.4578 59.9212C66.0685 60.419 65.6565 60.9109 65.2331 61.3835C64.9999 61.6449 64.8806 61.9876 64.9016 62.3363C64.9225 62.685 65.0818 63.0112 65.3447 63.2434C65.6075 63.4755 65.9524 63.5946 66.3035 63.5744C66.6547 63.5543 66.9835 63.3967 67.2177 63.1361C67.6796 62.6203 68.1296 62.0834 68.5546 61.5399C68.7707 61.2638 68.8676 60.9137 68.8238 60.5667C68.78 60.2196 68.5992 59.9041 68.3212 59.6894C68.1835 59.5832 68.0261 59.5048 67.858 59.459C67.6898 59.4131 67.5142 59.4006 67.3412 59.4221C66.9917 59.4656 66.674 59.6451 66.4578 59.9212Z" fill="black"/>
<path d="M71.2391 33.5135C71.4303 34.1174 71.6034 34.7336 71.7532 35.3453C71.7944 35.5136 71.8686 35.6721 71.9715 35.8119C72.0744 35.9517 72.204 36.07 72.353 36.16C72.5019 36.2501 72.6673 36.3101 72.8396 36.3367C73.0119 36.3633 73.1878 36.3559 73.3572 36.315C73.5266 36.274 73.6863 36.2004 73.8271 36.0982C73.9678 35.996 74.0869 35.8672 74.1776 35.7193C74.2683 35.5714 74.3287 35.4072 74.3555 35.2361C74.3823 35.065 74.3748 34.8903 74.3336 34.722C74.1699 34.0543 73.9812 33.3815 73.7722 32.7215C73.6664 32.3879 73.4315 32.1097 73.1193 31.9481C72.807 31.7865 72.4428 31.7547 72.1069 31.8597C71.771 31.9647 71.4908 32.1979 71.3281 32.5081C71.1653 32.8182 71.1333 33.1799 71.2391 33.5135Z" fill="black"/>
<path d="M47.087 13.5291C47.1413 13.5355 47.196 13.5387 47.2507 13.5387C47.5886 13.5383 47.9137 13.4098 48.1596 13.1796C48.4055 12.9495 48.5538 12.6348 48.5743 12.2998C48.5947 11.9648 48.4858 11.6347 48.2697 11.3766C48.0536 11.1186 47.7466 10.9521 47.4112 10.9111C46.7242 10.8274 46.0247 10.7643 45.3313 10.7244C44.9796 10.7041 44.6343 10.8235 44.3712 11.0561C44.1082 11.2887 43.949 11.6156 43.9286 11.9648C43.9082 12.314 44.0284 12.657 44.2626 12.9182C44.4968 13.1794 44.826 13.3376 45.1776 13.3578C45.814 13.3939 46.4565 13.4518 47.087 13.5291Z" fill="black"/>
<path d="M12.693 34.5289C12.5248 35.1972 12.3769 35.8804 12.2534 36.5584C12.2223 36.7288 12.2252 36.9036 12.2622 37.0728C12.2991 37.2421 12.3692 37.4024 12.4686 37.5447C12.5679 37.6871 12.6945 37.8085 12.8412 37.9022C12.9878 37.9959 13.1516 38.06 13.3232 38.0908C13.4018 38.1051 13.4816 38.1123 13.5615 38.112C13.8723 38.1116 14.173 38.0029 14.4115 37.8049C14.6499 37.6069 14.8108 37.3321 14.8663 37.0284C14.9797 36.4064 15.1152 35.7806 15.2695 35.1676C15.3527 34.829 15.2976 34.4715 15.1161 34.1732C14.9346 33.8749 14.6416 33.66 14.3011 33.5756C13.9607 33.4912 13.6004 33.5441 13.299 33.7227C12.9977 33.9014 12.7798 34.1912 12.693 34.5289Z" fill="black"/>
<path d="M15.1833 31.0443C15.3423 31.1155 15.5139 31.1549 15.6883 31.1602C15.8627 31.1655 16.0364 31.1365 16.1995 31.0749C16.3626 31.0134 16.5118 30.9204 16.6387 30.8015C16.7655 30.6825 16.8675 30.5399 16.9387 30.3817C17.198 29.8074 17.481 29.2331 17.7796 28.6748C17.8617 28.5218 17.9127 28.3542 17.9296 28.1816C17.9465 28.0091 17.9289 27.8349 17.8779 27.669C17.8269 27.5032 17.7435 27.349 17.6324 27.2152C17.5213 27.0814 17.3847 26.9707 17.2305 26.8894C17.0762 26.8082 16.9074 26.7579 16.7335 26.7415C16.5597 26.7251 16.3843 26.7429 16.2175 26.7939C16.0506 26.8449 15.8955 26.9281 15.761 27.0388C15.6266 27.1494 15.5154 27.2852 15.4339 27.4386C15.1081 28.0477 14.7995 28.6748 14.5158 29.3013C14.3716 29.6203 14.361 29.9832 14.4862 30.31C14.6113 30.6369 14.8621 30.901 15.1833 31.0443Z" fill="black"/>
<path d="M13.226 45.5007C13.4 45.4894 13.57 45.4442 13.7265 45.3677C13.8829 45.2911 14.0226 45.1848 14.1376 45.0546C14.2526 44.9244 14.3407 44.773 14.3968 44.6091C14.4529 44.4451 14.476 44.2718 14.4646 44.099C14.4235 43.4712 14.4027 42.8312 14.4027 42.197L14.403 42.0804C14.4044 41.9072 14.3714 41.7355 14.3059 41.575C14.2404 41.4144 14.1437 41.2683 14.0213 41.1449C13.8989 41.0215 13.7533 40.9232 13.5927 40.8557C13.4321 40.7882 13.2597 40.7528 13.0853 40.7515H13.0749C12.7246 40.7516 12.3885 40.8891 12.1399 41.1342C11.8913 41.3793 11.7502 41.712 11.7474 42.0598L11.7471 42.197C11.7471 42.8885 11.7698 43.5858 11.8149 44.2702C11.8366 44.6042 11.9855 44.9175 12.2313 45.1465C12.4771 45.3754 12.8014 45.503 13.1384 45.5033C13.1673 45.5033 13.1968 45.5026 13.226 45.5007Z" fill="black"/>
<path d="M14.8935 52.5932C15.2292 52.4875 15.5089 52.2537 15.671 51.9433C15.8331 51.6329 15.8645 51.2712 15.7581 50.9378C15.5656 50.3351 15.3914 49.719 15.2401 49.1066C15.1554 48.7678 14.9389 48.4761 14.638 48.2955C14.3371 48.1149 13.9764 48.0603 13.6349 48.1435C13.2935 48.2266 12.9992 48.4409 12.8166 48.7393C12.634 49.0377 12.5781 49.3958 12.6609 49.7351C12.826 50.404 13.0162 51.0769 13.2263 51.7349C13.3116 52.0019 13.4802 52.235 13.7077 52.4005C13.9352 52.566 14.2098 52.6554 14.4919 52.6557C14.6282 52.6557 14.7637 52.6346 14.8935 52.5932Z" fill="black"/>
<path d="M71.5759 56.8964C71.9004 56.2867 72.2077 55.6589 72.4897 55.0318C72.5622 54.8735 72.6024 54.7025 72.608 54.5287C72.6137 54.3548 72.5847 54.1816 72.5226 54.019C72.4606 53.8564 72.3668 53.7075 72.2466 53.5811C72.1264 53.4546 71.9822 53.353 71.8223 53.2821C71.6624 53.2112 71.49 53.1724 71.3149 53.1679C71.1398 53.1635 70.9656 53.1934 70.8023 53.2561C70.639 53.3188 70.4897 53.413 70.3632 53.5332C70.2366 53.6534 70.1352 53.7972 70.0649 53.9565C69.8065 54.5315 69.5248 55.1065 69.2276 55.6653C69.1458 55.8185 69.0952 55.9862 69.0788 56.1588C69.0623 56.3314 69.0803 56.5055 69.1317 56.6711C69.1831 56.8368 69.2669 56.9908 69.3782 57.1243C69.4896 57.2578 69.6264 57.3682 69.7808 57.4491C69.9351 57.53 70.1041 57.5799 70.2779 57.5959C70.4517 57.612 70.627 57.5938 70.7937 57.5425C70.9605 57.4911 71.1154 57.4076 71.2496 57.2968C71.3838 57.1859 71.4947 57.0499 71.5759 56.8964Z" fill="black"/>
<path d="M73.0136 50.802C73.3101 50.8017 73.5979 50.703 73.8313 50.5214C74.0647 50.3398 74.2303 50.0859 74.3015 49.8001C74.4675 49.1344 74.614 48.4512 74.7366 47.7694C74.7985 47.4251 74.7201 47.0705 74.5188 46.7836C74.3174 46.4967 74.0096 46.301 73.6629 46.2395C73.3162 46.1781 72.9592 46.2559 72.6703 46.4558C72.3814 46.6558 72.1843 46.9615 72.1224 47.3058C72.01 47.9303 71.8761 48.5562 71.7237 49.1666C71.6752 49.3609 71.672 49.5637 71.7141 49.7595C71.7563 49.9553 71.8429 50.139 71.9672 50.2966C72.0915 50.4542 72.2503 50.5816 72.4317 50.6692C72.613 50.7568 72.812 50.8022 73.0136 50.802Z" fill="black"/>
<path d="M18.6934 24.6514C18.9708 24.8669 19.323 24.9642 19.6726 24.9218C20.0221 24.8794 20.3404 24.7009 20.5574 24.4254C20.9487 23.9283 21.362 23.4371 21.7864 22.9651C22.0209 22.7042 22.1415 22.3614 22.1215 22.0122C22.1016 21.663 21.9428 21.336 21.68 21.103C21.4173 20.8701 21.0721 20.7504 20.7205 20.7702C20.3689 20.79 20.0396 20.9477 19.805 21.2086C19.3428 21.7231 18.8922 22.2588 18.4652 22.8003C18.2483 23.0758 18.1506 23.4256 18.1934 23.7728C18.2361 24.1199 18.416 24.436 18.6934 24.6514Z" fill="black"/>
<path d="M75.2316 42.1968C75.2316 41.5291 75.2102 40.8537 75.1683 40.1899C75.1574 40.017 75.1124 39.848 75.0357 39.6925C74.959 39.537 74.8523 39.3979 74.7215 39.2834C74.5908 39.1688 74.4385 39.081 74.2736 39.0248C74.1086 38.9687 73.9342 38.9454 73.7601 38.9562C73.5861 38.967 73.4159 39.0118 73.2593 39.0879C73.1027 39.164 72.9627 39.2701 72.8474 39.3999C72.732 39.5298 72.6436 39.681 72.587 39.8448C72.5305 40.0086 72.507 40.1819 72.5179 40.3547C72.5565 40.9638 72.5759 41.5838 72.5759 42.1968V42.2605C72.5766 42.432 72.6116 42.6017 72.679 42.7596C72.7464 42.9175 72.8447 43.0605 72.9683 43.1802C73.0919 43.2999 73.2383 43.3941 73.3989 43.457C73.5595 43.52 73.7311 43.5506 73.9038 43.547C74.2591 43.5398 74.5975 43.3943 74.8459 43.1417C75.0942 42.8892 75.2327 42.5498 75.2316 42.1968Z" fill="black"/>
</svg>
