<svg width="90" height="92" viewBox="0 0 90 92" fill="none" xmlns="http://www.w3.org/2000/svg">
<path d="M50 34.5V27L65 16.5L64 14L65 10.5L67 8L71.5 2.5H78.5L84 5L87.5 11.5L87 19.5L82 24.5L75 25.5L70.5 24.5L68 25.5H65.5L64 29H60.5L59 32L56 34.5H50Z" fill="#DD0004"/>
<path fill-rule="evenodd" clip-rule="evenodd" d="M41.1419 46.742V38.52C40.2496 38.6729 39.3352 38.639 38.4567 38.4202C37.5781 38.2014 36.7546 37.8026 36.0382 37.249C35.3218 36.6954 34.7282 35.9991 34.2948 35.2042C33.8615 34.4093 33.598 33.533 33.5209 32.631C33.4437 31.7289 33.5548 30.8207 33.8469 29.9637C34.139 29.1068 34.6059 28.3199 35.218 27.6527C35.83 26.9856 36.5739 26.4528 37.4026 26.0881C38.2312 25.7234 39.1266 25.5347 40.0319 25.534C40.4041 25.5358 40.7754 25.5693 41.1419 25.634V16.112H32.1699C32.1829 16.278 32.1899 16.442 32.1899 16.605C32.1686 18.3256 31.4702 19.9686 30.2459 21.1778C29.0217 22.387 27.3702 23.0651 25.6494 23.0651C23.9286 23.0651 22.2772 22.387 21.0529 21.1778C19.8286 19.9686 19.1302 18.3256 19.1089 16.605C19.1089 16.442 19.1159 16.278 19.1289 16.112H10.5119V27.4C10.5118 27.6301 10.4535 27.8563 10.3424 28.0578C10.2312 28.2592 10.0709 28.4293 9.87635 28.552C9.6818 28.6748 9.45932 28.7464 9.22967 28.76C9.00001 28.7736 8.77064 28.7289 8.56292 28.63C8.0462 28.3845 7.48087 28.2584 6.90881 28.261C6.33674 28.2637 5.7726 28.3949 5.25814 28.6451C4.74369 28.8954 4.29212 29.2581 3.93686 29.7065C3.5816 30.1549 3.33175 30.6774 3.20583 31.2355C3.07991 31.7935 3.08113 32.3727 3.20941 32.9302C3.33769 33.4877 3.58974 34.0092 3.94689 34.4561C4.30404 34.903 4.75715 35.2638 5.27265 35.5119C5.78815 35.7599 6.35285 35.8888 6.92492 35.889C7.20834 35.8904 7.49104 35.8605 7.76792 35.8C8.02784 35.7406 8.28062 35.6534 8.52192 35.54C8.72978 35.4326 8.96176 35.3805 9.19556 35.3887C9.42937 35.3969 9.65715 35.465 9.857 35.5867C10.0569 35.7083 10.2221 35.8793 10.3368 36.0832C10.4515 36.2871 10.5118 36.517 10.5119 36.751V46.743H21.3709C21.6185 46.7429 21.8615 46.8104 22.0735 46.9382C22.2856 47.066 22.4588 47.2493 22.5743 47.4683C22.6899 47.6872 22.7435 47.9336 22.7293 48.1808C22.7151 48.428 22.6337 48.6666 22.4939 48.871C22.1334 49.4041 21.9139 50.0199 21.8557 50.6609C21.7976 51.3018 21.9028 51.9471 22.1614 52.5364C22.4201 53.1257 22.8238 53.6399 23.335 54.031C23.8461 54.4221 24.448 54.6773 25.0844 54.7729C25.7209 54.8684 26.3712 54.8012 26.9746 54.5775C27.5781 54.3537 28.115 53.9808 28.5353 53.4934C28.9557 53.0061 29.2457 52.4202 29.3783 51.7904C29.511 51.1606 29.4819 50.5075 29.2939 49.892C29.1899 49.5529 29.038 49.2303 28.8429 48.934C28.688 48.732 28.5928 48.4908 28.5679 48.2375C28.543 47.9842 28.5894 47.729 28.702 47.5007C28.8146 47.2724 28.9888 47.0802 29.2049 46.9458C29.421 46.8114 29.6704 46.7401 29.9249 46.74L41.1419 46.742ZM41.1419 80.099H29.8719C29.614 80.0987 29.3613 80.1716 29.1432 80.3093C28.9251 80.4469 28.7505 80.6436 28.6397 80.8765C28.5289 81.1094 28.4865 81.3689 28.5173 81.625C28.5482 81.881 28.651 82.1231 28.8139 82.323C29.0181 82.6229 29.178 82.9506 29.2889 83.296C29.4682 83.8672 29.5105 84.4725 29.4124 85.0631C29.3142 85.6536 29.0785 86.2128 28.7242 86.6953C28.3699 87.1779 27.907 87.5702 27.3729 87.8407C26.8388 88.1111 26.2486 88.252 25.6499 88.252C25.0513 88.252 24.461 88.1111 23.927 87.8407C23.3929 87.5702 22.93 87.1779 22.5756 86.6953C22.2213 86.2128 21.9856 85.6536 21.8875 85.0631C21.7894 84.4725 21.8317 83.8672 22.0109 83.296C22.1307 82.9226 22.3078 82.57 22.5359 82.251C22.6814 82.0476 22.7679 81.808 22.786 81.5585C22.8042 81.3091 22.7532 81.0595 22.6386 80.8372C22.5241 80.6149 22.3505 80.4285 22.1369 80.2984C21.9233 80.1683 21.678 80.0997 21.4279 80.1H10.5119V72.738C10.6909 72.753 10.8699 72.761 11.0479 72.761C12.7686 72.7397 14.4115 72.0413 15.6207 70.817C16.83 69.5927 17.508 67.9413 17.508 66.2205C17.508 64.4997 16.83 62.8483 15.6207 61.624C14.4115 60.3997 12.7686 59.7013 11.0479 59.68C10.8699 59.68 10.6909 59.687 10.5119 59.703V49.469H19.2999C19.0618 50.4325 19.0461 51.4376 19.254 52.4081C19.4619 53.3786 19.8879 54.2891 20.4998 55.0706C21.1116 55.852 21.8933 56.484 22.7856 56.9186C23.6779 57.3533 24.6574 57.5791 25.6499 57.5791C26.6424 57.5791 27.6219 57.3533 28.5142 56.9186C29.4065 56.484 30.1882 55.852 30.8001 55.0706C31.412 54.2891 31.838 53.3786 32.0458 52.4081C32.2537 51.4376 32.238 50.4325 31.9999 49.469H41.1409V61.469C41.1412 61.7044 41.2025 61.9356 41.3187 62.1403C41.435 62.345 41.6022 62.5161 41.8042 62.6369C42.0062 62.7577 42.236 62.8242 42.4713 62.8298C42.7066 62.8354 42.9394 62.78 43.1469 62.669C43.3524 62.5878 43.5645 62.5245 43.7809 62.48C44.0381 62.4287 44.2997 62.4036 44.5619 62.405C45.5732 62.405 46.543 62.8067 47.2581 63.5218C47.9732 64.2369 48.3749 65.2067 48.3749 66.218C48.3749 67.2293 47.9732 68.1991 47.2581 68.9142C46.543 69.6293 45.5732 70.031 44.5619 70.031C44.2997 70.0324 44.0381 70.0072 43.7809 69.956C43.5276 69.9041 43.2803 69.8264 43.0429 69.724C42.8362 69.6337 42.6103 69.5964 42.3856 69.6154C42.1608 69.6344 41.9444 69.7092 41.7558 69.8329C41.5672 69.9565 41.4124 70.1253 41.3054 70.3238C41.1983 70.5224 41.1425 70.7445 41.1429 70.97H41.1369V80.1L41.1419 80.099ZM43.8699 49.469V59.718C44.1001 59.6929 44.3314 59.6802 44.5629 59.68C46.2836 59.7013 47.9265 60.3997 49.1357 61.624C50.345 62.8483 51.023 64.4997 51.023 66.2205C51.023 67.9413 50.345 69.5927 49.1357 70.817C47.9265 72.0413 46.2836 72.7397 44.5629 72.761C44.3314 72.7604 44.1001 72.7474 43.8699 72.722V80.1H52.8699C52.8366 79.8293 52.8199 79.5568 52.8199 79.284C52.8412 77.5633 53.5396 75.9204 54.7639 74.7112C55.9882 73.502 57.6396 72.8239 59.3604 72.8239C61.0812 72.8239 62.7327 73.502 63.9569 74.7112C65.1812 75.9204 65.8796 77.5633 65.9009 79.284C65.9005 79.5569 65.8821 79.8295 65.8459 80.1H74.4999V70.893H74.5059C74.5059 70.6635 74.5641 70.4378 74.675 70.2369C74.7858 70.036 74.9458 69.8665 75.1399 69.7441C75.3341 69.6218 75.556 69.5507 75.7851 69.5373C76.0142 69.524 76.2429 69.569 76.4499 69.668C76.9985 69.9262 77.6007 70.0499 78.2067 70.0287C78.8126 70.0075 79.4047 69.842 79.9339 69.5461C80.4631 69.2502 80.9141 68.8323 81.2494 68.3272C81.5847 67.822 81.7947 67.2442 81.8619 66.6416C81.9291 66.0391 81.8516 65.4292 81.6359 64.8625C81.4202 64.2959 81.0724 63.7889 80.6214 63.3837C80.1705 62.9784 79.6293 62.6866 79.043 62.5324C78.4566 62.3781 77.8419 62.366 77.2499 62.497C77.0095 62.5506 76.775 62.628 76.5499 62.728C76.3425 62.8487 76.1069 62.9125 75.8669 62.9131C75.6269 62.9136 75.391 62.8508 75.183 62.731C74.9751 62.6111 74.8024 62.4386 74.6825 62.2307C74.5625 62.0228 74.4996 61.787 74.4999 61.547V49.469H64.2279C64.0014 49.4687 63.7786 49.412 63.5795 49.3041C63.3804 49.1961 63.2113 49.0404 63.0874 48.8508C62.9635 48.6612 62.8887 48.4438 62.8697 48.2181C62.8508 47.9924 62.8883 47.7656 62.9789 47.558C63.1715 46.9815 63.2235 46.3673 63.1304 45.7666C63.0373 45.1659 62.8018 44.5962 62.4437 44.1051C62.0856 43.6139 61.6152 43.2155 61.0718 42.9432C60.5284 42.6709 59.9277 42.5325 59.3199 42.5396C58.7121 42.5466 58.1148 42.699 57.5779 42.984C57.0409 43.2689 56.58 43.6781 56.2334 44.1775C55.8869 44.6769 55.6648 45.2519 55.5857 45.8546C55.5067 46.4573 55.5729 47.0701 55.7789 47.642C55.8533 47.8475 55.877 48.0678 55.8482 48.2844C55.8194 48.501 55.7389 48.7075 55.6134 48.8864C55.488 49.0653 55.3213 49.2113 55.1275 49.3122C54.9337 49.4131 54.7184 49.4659 54.4999 49.466L43.8699 49.469ZM43.8699 14.749V27.526C43.8697 27.7707 43.8036 28.0108 43.6787 28.2211C43.5537 28.4315 43.3745 28.6044 43.1598 28.7217C42.945 28.839 42.7027 28.8963 42.4582 28.8878C42.2136 28.8792 41.9759 28.805 41.7699 28.673C41.1853 28.378 40.5345 28.2386 39.8804 28.2684C39.2262 28.2981 38.5907 28.4959 38.0353 28.8428C37.4799 29.1897 37.0232 29.6738 36.7094 30.2486C36.3956 30.8233 36.2352 31.4693 36.2437 32.124C36.2523 32.7788 36.4294 33.4204 36.7581 33.9867C37.0868 34.5531 37.5559 35.0252 38.1202 35.3575C38.6844 35.6898 39.3248 35.871 39.9795 35.8837C40.6342 35.8964 41.2812 35.7401 41.8579 35.43C42.0649 35.3173 42.2976 35.2603 42.5332 35.2647C42.7688 35.2691 42.9992 35.3346 43.2018 35.455C43.4044 35.5753 43.5723 35.7462 43.6889 35.951C43.8055 36.1558 43.8668 36.3874 43.8669 36.623V46.742H52.8309C52.8229 46.607 52.8189 46.471 52.8189 46.335C52.8402 44.6144 53.5386 42.9714 54.7629 41.7622C55.9872 40.553 57.6386 39.8749 59.3594 39.8749C61.0802 39.8749 62.7317 40.553 63.9559 41.7622C65.1802 42.9714 65.8786 44.6144 65.8999 46.335C65.8999 46.471 65.8949 46.607 65.8869 46.742H75.8599C76.2217 46.742 76.5686 46.8857 76.8244 47.1415C77.0802 47.3973 77.2239 47.7442 77.2239 48.106V59.739C77.5113 59.6999 77.8009 59.6802 78.0909 59.68C79.8116 59.7013 81.4545 60.3997 82.6637 61.624C83.873 62.8483 84.551 64.4997 84.551 66.2205C84.551 67.9413 83.873 69.5927 82.6637 70.817C81.4545 72.0413 79.8116 72.7397 78.0909 72.761C77.8009 72.7605 77.5112 72.7404 77.2239 72.701V81.463C77.2239 81.8247 77.0802 82.1717 76.8244 82.4275C76.5686 82.6833 76.2217 82.827 75.8599 82.827H64.0599C63.8248 82.8261 63.5938 82.7645 63.3895 82.6481C63.1852 82.5317 63.0144 82.3645 62.8936 82.1627C62.7729 81.9609 62.7064 81.7314 62.7005 81.4963C62.6946 81.2612 62.7495 81.0286 62.8599 80.821C62.9601 80.5915 63.0375 80.3527 63.0909 80.108C63.0979 80.075 63.1069 80.042 63.1159 80.008C63.1597 79.7682 63.1812 79.5248 63.1799 79.281C63.1799 78.7803 63.0813 78.2844 62.8897 77.8218C62.6981 77.3592 62.4172 76.9389 62.0631 76.5848C61.7091 76.2307 61.2887 75.9499 60.8261 75.7582C60.3635 75.5666 59.8676 75.468 59.3669 75.468C58.8662 75.468 58.3704 75.5666 57.9078 75.7582C57.4451 75.9499 57.0248 76.2307 56.6707 76.5848C56.3167 76.9389 56.0358 77.3592 55.8442 77.8218C55.6525 78.2844 55.5539 78.7803 55.5539 79.281C55.5538 79.5584 55.5837 79.835 55.6429 80.106C55.702 80.3765 55.7905 80.6397 55.9069 80.891C56.0026 81.0984 56.0445 81.3265 56.0288 81.5543C56.0132 81.7821 55.9404 82.0024 55.8173 82.1947C55.6942 82.3871 55.5247 82.5453 55.3243 82.6549C55.124 82.7646 54.8993 82.822 54.6709 82.822H31.9789C32.231 83.7892 32.2581 84.8014 32.0581 85.7807C31.8581 86.76 31.4363 87.6805 30.8252 88.4714C30.214 89.2623 29.4297 89.9027 28.5324 90.3432C27.6352 90.7838 26.649 91.0129 25.6494 91.0129C24.6499 91.0129 23.6636 90.7838 22.7664 90.3432C21.8692 89.9027 21.0849 89.2623 20.4737 88.4714C19.8625 87.6805 19.4407 86.76 19.2407 85.7807C19.0407 84.8014 19.0678 83.7892 19.3199 82.822H9.14892C8.78717 82.822 8.44023 82.6783 8.18443 82.4225C7.92863 82.1667 7.78492 81.8197 7.78492 81.458V71.038C7.78492 70.6762 7.92863 70.3293 8.18443 70.0735C8.44023 69.8177 8.78717 69.674 9.14892 69.674C9.34502 69.6735 9.53886 69.7158 9.71692 69.798C9.91613 69.8722 10.1212 69.9298 10.3299 69.97C10.5668 70.0129 10.8072 70.034 11.0479 70.033C12.0592 70.033 13.029 69.6313 13.7441 68.9162C14.4592 68.2011 14.8609 67.2313 14.8609 66.22C14.8609 65.2087 14.4592 64.2389 13.7441 63.5238C13.029 62.8087 12.0592 62.407 11.0479 62.407C10.8068 62.4059 10.5661 62.4273 10.3289 62.471C10.0948 62.5158 9.86541 62.5828 9.64392 62.671C9.43731 62.7516 9.21415 62.7805 8.99382 62.7553C8.77349 62.73 8.56266 62.6513 8.37965 62.5261C8.19664 62.4008 8.04698 62.2328 7.94368 62.0365C7.84039 61.8403 7.78657 61.6218 7.78692 61.4V38.556C7.50192 38.5951 7.21459 38.6148 6.92692 38.615C5.20628 38.5937 3.56333 37.8953 2.35411 36.671C1.14488 35.4467 0.466797 33.7953 0.466797 32.0745C0.466797 30.3537 1.14488 28.7023 2.35411 27.478C3.56333 26.2537 5.20628 25.5553 6.92692 25.534C7.21459 25.5342 7.50192 25.5539 7.78692 25.593V14.749C7.78692 14.3872 7.93063 14.0403 8.18643 13.7845C8.44223 13.5287 8.78917 13.385 9.15092 13.385H20.8159C21.0469 13.3848 21.2741 13.4433 21.4763 13.555C21.6785 13.6667 21.8489 13.8279 21.9717 14.0235C22.0945 14.2192 22.1655 14.4428 22.1781 14.6734C22.1908 14.9041 22.1446 15.1341 22.0439 15.342C21.9027 15.748 21.8323 16.1752 21.8359 16.605C21.8277 17.111 21.9203 17.6136 22.1083 18.0834C22.2962 18.5533 22.5758 18.981 22.9308 19.3417C23.2857 19.7025 23.7089 19.9889 24.1756 20.1845C24.6424 20.38 25.1434 20.4807 25.6494 20.4807C26.1555 20.4807 26.6565 20.38 27.1232 20.1845C27.59 19.9889 28.0131 19.7025 28.3681 19.3417C28.723 18.981 29.0026 18.5533 29.1906 18.0834C29.3785 17.6136 29.4711 17.111 29.4629 16.605C29.4666 16.1363 29.3828 15.671 29.2159 15.233C29.1375 15.0275 29.1102 14.8061 29.1364 14.5877C29.1625 14.3693 29.2412 14.1606 29.3659 13.9794C29.4905 13.7982 29.6573 13.65 29.8519 13.5475C30.0464 13.445 30.263 13.3913 30.4829 13.391V13.385H42.5059C42.8677 13.385 43.2146 13.5287 43.4704 13.7845C43.7262 14.0403 43.8699 14.3872 43.8699 14.749ZM65.7879 17.4L51.1999 27.753L50.3619 32.7L55.3129 33.54L57.9999 31.64L59.1529 28.566C59.2386 28.2602 59.4284 27.9938 59.6894 27.8129C59.9505 27.632 60.2665 27.5478 60.5829 27.575L63.0609 27.789L64.0119 25.218C64.1233 24.9149 64.3386 24.6612 64.6195 24.5021C64.9004 24.3429 65.2287 24.2887 65.5459 24.349L67.6879 24.762L69.8539 23.224C70.0675 23.0508 70.3286 22.9462 70.6027 22.9241C70.8769 22.902 71.1513 22.9633 71.3899 23.1C72.166 23.5451 72.9971 23.8867 73.8619 24.116C75.2878 24.4956 76.7783 24.5665 78.2338 24.324C79.6892 24.0814 81.0762 23.5311 82.3019 22.7096C83.5277 21.8882 84.564 20.8146 85.3416 19.5606C86.1193 18.3066 86.6203 16.901 86.8113 15.4379C87.0022 13.9747 86.8787 12.4877 86.449 11.0761C86.0192 9.66454 85.2932 8.36093 84.3193 7.25241C83.3454 6.14389 82.1462 5.25598 80.8017 4.64803C79.4572 4.04007 77.9985 3.72607 76.5229 3.727C75.8647 3.72542 75.2078 3.78569 74.5609 3.907C72.1967 4.36438 70.0652 5.62976 68.5315 7.48629C66.9979 9.34283 66.1577 11.6749 66.1549 14.083C66.1542 14.7393 66.2151 15.3941 66.3369 16.039C66.3847 16.2941 66.3583 16.5576 66.261 16.7983C66.1637 17.0389 65.9996 17.2467 65.7879 17.397V17.4ZM49.2089 25.832C49.0509 25.9345 48.9159 26.0688 48.8126 26.2263C48.7093 26.3839 48.6399 26.5612 48.6089 26.747L47.4499 33.6C47.3907 33.956 47.4752 34.3211 47.6851 34.6147C47.8949 34.9084 48.2129 35.1067 48.5689 35.166L55.4159 36.327C55.5916 36.3566 55.7715 36.3512 55.9451 36.3112C56.1188 36.2712 56.2828 36.1974 56.4279 36.094L59.9099 33.623C60.1315 33.4655 60.3005 33.2449 60.3949 32.99L61.3709 30.39L63.8569 30.605C64.1554 30.6315 64.4544 30.5588 64.7075 30.3983C64.9605 30.2378 65.1537 29.9983 65.2569 29.717L66.1679 27.253L67.7449 27.553C67.9252 27.5878 68.1108 27.5857 68.2902 27.5466C68.4697 27.5076 68.6394 27.4326 68.7889 27.326L70.8179 25.885C73.4438 27.1635 76.4208 27.5304 79.2785 26.9277C82.1362 26.325 84.7115 24.7871 86.5974 22.557C88.4833 20.327 89.5722 17.532 89.6919 14.6139C89.8116 11.6958 88.9554 8.82099 87.2585 6.44394C85.5616 4.06689 83.121 2.32317 80.3222 1.4884C77.5235 0.653631 74.5264 0.775427 71.8046 1.83454C69.0829 2.89365 66.7917 4.82966 65.2934 7.33655C63.795 9.84345 63.1748 12.7782 63.5309 15.677L49.2089 25.832ZM76.3349 9.03199C75.6874 9.67906 75.2843 10.5306 75.1942 11.4416C75.1041 12.3525 75.3326 13.2665 75.8409 14.0279C76.3491 14.7893 77.1056 15.3509 77.9814 15.617C78.8573 15.8832 79.7983 15.8375 80.6442 15.4876C81.4902 15.1378 82.1886 14.5055 82.6206 13.6984C83.0526 12.8913 83.1914 11.9595 83.0134 11.0615C82.8354 10.1636 82.3516 9.35516 81.6444 8.77394C80.9372 8.19272 80.0503 7.87468 79.1349 7.87399C78.6149 7.8729 78.0998 7.97464 77.6193 8.17338C77.1387 8.37212 76.7023 8.66392 76.3349 9.03199ZM79.1349 10.601C79.4187 10.6012 79.6937 10.6997 79.913 10.8799C80.1323 11.06 80.2824 11.3106 80.3377 11.589C80.3929 11.8673 80.35 12.1563 80.2162 12.4065C80.0824 12.6568 79.866 12.853 79.6038 12.9616C79.3416 13.0702 79.0498 13.0846 78.7782 13.0022C78.5066 12.9199 78.272 12.746 78.1142 12.5101C77.9565 12.2742 77.8853 11.9908 77.913 11.7084C77.9407 11.4259 78.0654 11.1618 78.2659 10.961C78.3793 10.8466 78.5142 10.7559 78.6628 10.6939C78.8115 10.632 78.9709 10.6 79.1319 10.6L79.1349 10.601Z" fill="black" stroke="black" stroke-width="0.1"/>
</svg>
