<svg width="88" height="88" viewBox="0 0 88 88" fill="none" xmlns="http://www.w3.org/2000/svg">
<mask id="path-1-outside-1_4_342" maskUnits="userSpaceOnUse" x="5.08243" y="5.0836" width="78" height="78" fill="black">
<rect fill="white" x="5.08243" y="5.0836" width="78" height="78"/>
<path d="M44.0024 6.08379C43.783 6.0807 43.5728 6.16725 43.4182 6.3218C43.2637 6.47635 43.1771 6.68654 43.174 6.90292V21.4029L42.1076 20.3364L42.1107 20.3395C41.953 20.1819 41.7429 20.0953 41.5234 20.0953C41.307 20.0953 41.0968 20.1819 40.9423 20.3395C40.6239 20.661 40.6239 21.1803 40.9423 21.5018L43.4182 23.9808V23.9777C43.7397 24.2992 44.259 24.2992 44.5805 23.9777L47.0564 21.4987V21.5018C47.3748 21.1803 47.3748 20.661 47.0564 20.3395C46.9018 20.1819 46.6916 20.0953 46.4722 20.0953C46.2527 20.0953 46.0425 20.1819 45.888 20.3395L44.8246 21.409V6.90277C44.8215 6.45147 44.4569 6.08379 44.0024 6.08379ZM9.25925 8.43611C9.03979 8.43611 8.8296 8.52575 8.67505 8.6803C8.35358 9.00177 8.35358 9.52107 8.67505 9.84257L18.9249 20.0956H17.4196C17.2001 20.0925 16.9899 20.179 16.8323 20.3336C16.6777 20.4881 16.5912 20.6983 16.5912 20.9178C16.5912 21.1372 16.6777 21.3474 16.8323 21.502C16.9868 21.6596 17.197 21.7462 17.4196 21.7462H20.9186H20.9156C21.373 21.7431 21.7378 21.3721 21.7378 20.9177V17.4248C21.7378 17.2054 21.6512 16.9952 21.4998 16.8406C21.3452 16.6861 21.135 16.5964 20.9156 16.5964C20.6961 16.5964 20.4859 16.683 20.3314 16.8375C20.1737 16.9921 20.0872 17.2054 20.0903 17.4248V18.9271L9.84362 8.68041H9.84053C9.68907 8.52586 9.47872 8.43611 9.25925 8.43611ZM78.7369 8.4392C78.5205 8.4392 78.3103 8.52575 78.1558 8.6803L67.9028 18.9333V17.4249C67.9059 17.2054 67.8193 16.9952 67.6648 16.8407C67.5102 16.683 67.3001 16.5965 67.0806 16.5965C66.8611 16.5965 66.6509 16.6831 66.4964 16.8376C66.3387 16.9922 66.2522 17.2054 66.2522 17.4249V20.9178C66.2522 21.1373 66.3388 21.3475 66.4964 21.502C66.6509 21.6597 66.8611 21.7462 67.0806 21.7462H70.5735C70.793 21.7462 71.0063 21.6597 71.1608 21.502C71.3154 21.3475 71.4019 21.1373 71.4019 20.9178C71.4019 20.6984 71.3154 20.4882 71.1577 20.3336C71.0032 20.1791 70.793 20.0925 70.5735 20.0956H69.0651L79.3181 9.84262C79.6365 9.52115 79.6365 9.00185 79.3181 8.68034C79.1636 8.52579 78.9533 8.4392 78.7369 8.4392ZM38.5068 15.731C38.4017 15.7093 38.2904 15.7093 38.1853 15.731C36.306 16.1142 34.4977 16.6861 32.7698 17.4156C29.3171 18.8746 26.2105 20.9888 23.5985 23.5977C20.9896 26.2065 18.8754 29.3161 17.4164 32.7689C16.6869 34.4937 16.1213 36.3051 15.738 38.1845C15.6452 38.6296 15.9327 39.0654 16.3778 39.1582C16.5911 39.2015 16.8167 39.1582 16.9991 39.0376C17.1815 38.9171 17.3082 38.7285 17.3515 38.5152C17.7131 36.7441 18.2448 35.0378 18.9341 33.4089C20.3096 30.154 22.3095 27.2237 24.77 24.763C27.2305 22.3024 30.1608 20.3088 33.4158 18.9333C35.0417 18.244 36.7449 17.7154 38.5161 17.3538V17.3507C38.7293 17.3074 38.9179 17.1807 39.0385 16.9983C39.159 16.8159 39.2023 16.5903 39.159 16.377C39.0941 16.0493 38.8375 15.7928 38.5068 15.731ZM49.4925 15.731C49.1617 15.7928 48.9052 16.0493 48.8402 16.377C48.7939 16.5934 48.8372 16.8159 48.9608 16.9983C49.0813 17.1807 49.2699 17.3074 49.4832 17.3507C51.2544 17.7123 52.9606 18.244 54.5896 18.9302C57.8445 20.3057 60.7748 22.2994 63.2354 24.7599C65.6961 27.2204 67.6896 30.1538 69.0651 33.4058C69.7544 35.0317 70.283 36.741 70.6447 38.5121L70.6478 38.5152C70.691 38.7285 70.8178 38.9171 71.0001 39.0376C71.1825 39.1613 71.4051 39.2045 71.6214 39.1582C71.8378 39.1149 72.0264 38.9882 72.1469 38.8058C72.2675 38.6234 72.3107 38.4009 72.2675 38.1845C71.8842 36.3051 71.3124 34.4938 70.5828 32.7689C69.1238 29.3162 67.0096 26.2097 64.4007 23.5977C61.7919 20.9888 58.6823 18.8745 55.2295 17.4156C53.5047 16.6861 51.6933 16.1143 49.8139 15.731C49.7057 15.7093 49.5976 15.7093 49.4925 15.731ZM40.7019 26.6891L40.705 26.6922C40.4855 26.6891 40.2753 26.7756 40.1208 26.9302C39.9662 27.0847 39.8766 27.2949 39.8766 27.5144V31.8202C39.3326 32.0057 38.807 32.222 38.3001 32.4724L35.2585 29.4277C35.104 29.2731 34.8938 29.1866 34.6743 29.1866C34.4548 29.1866 34.2446 29.2731 34.0901 29.4277L29.4288 34.089C29.2743 34.2435 29.1877 34.4537 29.1877 34.6732C29.1877 34.8926 29.2743 35.1028 29.4288 35.2574L32.4704 38.299C32.2201 38.8059 32.0037 39.3314 31.8213 39.8755H27.5124V39.8786C27.058 39.8786 26.6902 40.2495 26.6933 40.7039V47.294C26.6902 47.7484 27.058 48.1193 27.5124 48.1224H31.8213C32.0068 48.6664 32.2201 49.1919 32.4704 49.6988L29.4288 52.7405C29.2743 52.895 29.1877 53.1052 29.1877 53.3247C29.1877 53.5441 29.2743 53.7543 29.4288 53.9089L34.0901 58.5702C34.2446 58.7247 34.4548 58.8113 34.6743 58.8113C34.8938 58.8113 35.104 58.7247 35.2585 58.5702L38.3001 55.5285C38.8071 55.7789 39.3326 55.9953 39.8766 56.1808V60.4897V60.4866C39.8797 60.941 40.2506 61.3088 40.705 61.3057H47.2951C47.7495 61.3088 48.1204 60.941 48.1204 60.4866V56.1777C48.6645 55.9922 49.19 55.7758 49.6969 55.5254L52.7416 58.5702C52.8961 58.7247 53.1063 58.8113 53.3258 58.8113C53.5453 58.8113 53.7555 58.7247 53.91 58.5702L58.5713 53.9089C58.7258 53.7543 58.8124 53.5441 58.8124 53.3247C58.8124 53.1052 58.7258 52.895 58.5713 52.7405L55.5297 49.6988C55.78 49.1919 55.9964 48.6664 56.1788 48.1224H60.4877H60.4846C60.7041 48.1224 60.9143 48.0328 61.0688 47.8782C61.2234 47.7237 61.3099 47.5135 61.3068 47.294V40.7039C61.3099 40.4875 61.2234 40.2773 61.0688 40.1197C60.9143 39.9651 60.7041 39.8786 60.4846 39.8786H56.1757C55.9902 39.3346 55.7769 38.8091 55.5266 38.3022L58.5713 35.2574C58.7258 35.1029 58.8124 34.8927 58.8124 34.6732C58.8124 34.4538 58.7258 34.2436 58.5713 34.089L53.91 29.4277C53.7555 29.2732 53.5453 29.1866 53.3258 29.1866C53.1063 29.1866 52.8961 29.2732 52.7416 29.4277L49.7 32.4694C49.193 32.219 48.6675 32.0026 48.1235 31.8172V27.5113L48.1204 27.5144C48.1204 27.295 48.0339 27.0848 47.8793 26.9302C47.7217 26.7757 47.5115 26.6891 47.2951 26.6922L40.7019 26.6891ZM41.5241 28.3397H46.4729V32.3611C46.4729 32.732 46.7171 33.0597 47.0757 33.1586C47.9257 33.3997 48.7356 33.7397 49.4929 34.1631C49.8143 34.3424 50.2162 34.2868 50.4758 34.024L53.3227 31.1771L56.8218 34.6762L53.9749 37.5231C53.7122 37.7828 53.6565 38.1846 53.8358 38.5061C54.2593 39.2634 54.5993 40.0733 54.8404 40.9233C54.9393 41.2818 55.2669 41.526 55.6379 41.526H59.6593V46.4748H55.6379V46.4717C55.2669 46.4717 54.9424 46.7128 54.8404 47.0683C54.5993 47.9183 54.2593 48.7313 53.8358 49.4886V49.4917C53.6565 49.8132 53.7122 50.215 53.9749 50.4746L56.8218 53.3215L53.3227 56.8206L50.4758 53.9737V53.9768C50.2162 53.7141 49.8143 53.6554 49.4929 53.8346C48.7356 54.2581 47.9257 54.5981 47.0757 54.8361V54.8392C46.7202 54.9381 46.4729 55.2627 46.4729 55.6305V59.6581H41.5241V55.6305C41.5241 55.2627 41.283 54.9412 40.9307 54.8392C40.0806 54.5981 39.2676 54.2612 38.5104 53.8377L38.5073 53.8346C38.1858 53.6554 37.7809 53.7141 37.5212 53.9768L34.6743 56.8237L31.1752 53.3246L34.0221 50.4777V50.4746C34.2849 50.215 34.3436 49.8132 34.1643 49.4917C33.7408 48.7344 33.4008 47.9214 33.1598 47.0714V47.0683C33.0578 46.7159 32.7363 46.4748 32.3684 46.4717H28.3409V41.523H32.3684V41.526C32.7363 41.526 33.0608 41.2788 33.1598 40.9233C33.4009 40.0733 33.7378 39.2634 34.1612 38.5061H34.1643C34.3436 38.1846 34.2849 37.7828 34.0221 37.5231L31.1752 34.6762L34.6743 31.1771L37.5212 34.024C37.7809 34.2868 38.1858 34.3424 38.5073 34.1631C39.2646 33.7397 40.0775 33.3996 40.9276 33.1586H40.9307C41.283 33.0566 41.5272 32.732 41.5241 32.3611L41.5241 28.3397ZM44.0031 36.5772C39.9168 36.5772 36.5785 39.9062 36.5785 43.9926C36.5785 48.079 39.9137 51.4173 44.0031 51.4173C48.0895 51.4173 51.4186 48.0821 51.4186 43.9926C51.4186 39.9062 48.0895 36.5772 44.0031 36.5772ZM44.0031 38.2247C47.1993 38.2247 49.7711 40.7964 49.7711 43.9926C49.7711 47.1888 47.1993 49.7667 44.0031 49.7667C40.807 49.7667 38.229 47.1888 38.229 43.9926C38.229 40.7964 40.807 38.2247 44.0031 38.2247ZM20.9191 40.7006C20.7027 40.7006 20.4925 40.7872 20.338 40.9417C20.1834 41.0963 20.0969 41.3065 20.0969 41.5259C20.0969 41.7454 20.1834 41.9556 20.338 42.1101L21.4044 43.1735H6.91082C6.69136 43.1735 6.48117 43.26 6.32662 43.4146C6.17207 43.566 6.08551 43.7762 6.08243 43.9957C6.08243 44.2152 6.16898 44.4254 6.32353 44.583C6.48118 44.7376 6.69136 44.8241 6.91083 44.8241H21.4076L20.3381 45.8906V45.8875C20.1835 46.042 20.097 46.2522 20.097 46.4717C20.097 46.6911 20.1835 46.9013 20.3381 47.0559C20.6595 47.3743 21.1788 47.3743 21.5003 47.0559L23.9763 44.58C24.2977 44.2585 24.2977 43.7392 23.9763 43.4177L21.5003 40.9418C21.3458 40.7872 21.1386 40.7006 20.9191 40.7006ZM67.0808 40.7006C66.8613 40.7006 66.6542 40.7872 66.4997 40.9417L64.0207 43.4176C63.7023 43.7391 63.7023 44.2584 64.0207 44.5799L66.4997 47.0558C66.8211 47.3742 67.3373 47.3742 67.6588 47.0558C67.8133 46.9013 67.903 46.6911 67.903 46.4716C67.903 46.2522 67.8133 46.042 67.6588 45.8874L66.5954 44.821H81.0953V44.8241C81.3148 44.821 81.5219 44.7344 81.6765 44.5799C81.831 44.4253 81.9176 44.2151 81.9176 43.9957C81.9145 43.5413 81.5497 43.1765 81.0953 43.1734H66.5986L67.6588 42.1101C67.8133 41.9555 67.9029 41.7453 67.9029 41.5258C67.9029 41.3064 67.8133 41.0962 67.6588 40.9416C67.5042 40.7871 67.2972 40.7006 67.0808 40.7006ZM46.6152 41.3281C46.4174 41.3404 46.2288 41.427 46.0897 41.5692L43.1748 44.4841L42.5906 43.8998C42.2692 43.5784 41.7499 43.5784 41.4284 43.8998C41.2738 44.0544 41.1873 44.2646 41.1873 44.481C41.1873 44.7004 41.2738 44.9106 41.4284 45.0652L42.5906 46.2274C42.7452 46.382 42.9554 46.4716 43.1748 46.4716C43.3943 46.4716 43.6045 46.382 43.759 46.2274L47.2581 42.7284V42.7315C47.5796 42.41 47.5796 41.8907 47.2581 41.5692C47.0881 41.3992 46.8532 41.3095 46.6152 41.3281ZM16.6998 48.8393C16.5947 48.8177 16.4834 48.8177 16.3783 48.8393C15.9332 48.9321 15.6488 49.3679 15.7385 49.813C16.1218 51.6924 16.6874 53.5038 17.4169 55.2286C18.8759 58.6813 20.9901 61.7878 23.599 64.3999C26.2079 67.0087 29.3175 69.123 32.7703 70.582C34.4951 71.3115 36.3065 71.8771 38.1858 72.2604C38.6309 72.3531 39.0668 72.0657 39.1595 71.6206C39.2028 71.4073 39.1595 71.1816 39.039 70.9993C38.9184 70.8169 38.7299 70.6902 38.5166 70.6469C36.7454 70.2852 35.0423 69.7536 33.4164 69.0643C30.1615 67.6887 27.2343 65.6889 24.7705 63.2284C22.31 60.7679 20.3102 57.8376 18.9346 54.5825C18.2453 52.9566 17.7136 51.2535 17.352 49.4823C17.284 49.1577 17.0274 48.9012 16.6998 48.8393ZM71.3 48.8393C70.9724 48.9012 70.7127 49.1577 70.6478 49.4823C70.2862 51.2535 69.7545 52.9566 69.0683 54.5825C67.6928 57.8374 65.6991 60.7646 63.2386 63.2283C60.7781 65.6888 57.8447 67.6887 54.5927 69.0642C52.9668 69.7535 51.2575 70.2852 49.4863 70.6469H49.4833C49.27 70.6901 49.0814 70.8169 48.9609 70.9992C48.8403 71.1816 48.797 71.4072 48.8403 71.6205C48.9331 72.0656 49.3689 72.3531 49.814 72.2604C51.6934 71.8771 53.5048 71.3114 55.2296 70.5819C58.6823 69.1229 61.7888 67.0087 64.4008 64.3998C67.0097 61.791 69.124 58.6814 70.5829 55.2286C71.3124 53.5038 71.8842 51.6924 72.2676 49.813C72.3108 49.5966 72.2676 49.3741 72.147 49.1917C72.0234 49.0093 71.8348 48.8826 71.6215 48.8393C71.5164 48.8177 71.4051 48.8177 71.3 48.8393ZM43.9999 63.7816C43.7835 63.7816 43.5733 63.8682 43.4188 64.0227L40.9429 66.4986C40.6245 66.8201 40.6245 67.3394 40.9429 67.6609C41.0974 67.8155 41.3076 67.902 41.5271 67.902C41.7465 67.902 41.9567 67.8155 42.1113 67.6609L43.1777 66.5976V81.088H43.1746C43.1746 81.3075 43.2612 81.5177 43.4157 81.6753C43.5734 81.8299 43.7836 81.9164 44.003 81.9164C44.2225 81.9133 44.4296 81.8268 44.5842 81.6722C44.7387 81.5177 44.8253 81.3075 44.8253 81.088V66.5944L45.8886 67.6609C46.0432 67.8154 46.2534 67.902 46.4728 67.902C46.6923 67.902 46.9025 67.8154 47.057 67.6609C47.3754 67.3394 47.3754 66.8201 47.057 66.4986L44.5811 64.0227C44.4266 63.8681 44.2163 63.7816 43.9999 63.7816ZM17.4231 66.2545H17.4262C17.2067 66.2545 16.9934 66.341 16.8389 66.4956C16.6843 66.6501 16.5978 66.8634 16.5978 67.0829C16.5978 67.5372 16.9687 67.9051 17.4262 67.902H18.9346L8.68162 78.155V78.1581C8.36325 78.4765 8.36325 78.9958 8.68162 79.3172C9.00309 79.6356 9.52239 79.6356 9.84073 79.3172L20.0937 69.0642V70.5726H20.0968C20.0937 70.7921 20.1803 71.0023 20.3348 71.1568C20.4894 71.3114 20.6996 71.401 20.9159 71.401C21.1354 71.401 21.3487 71.3145 21.5032 71.1599C21.6578 71.0054 21.7443 70.7921 21.7443 70.5726V67.0797V67.0828C21.7443 66.8633 21.6578 66.65 21.5032 66.4955C21.3487 66.3409 21.1354 66.2544 20.9159 66.2544L17.4231 66.2545ZM67.0745 66.2545H67.0776C66.8582 66.2545 66.6449 66.341 66.4903 66.4956C66.3358 66.6501 66.2492 66.8634 66.2492 67.0829V70.5758V70.5727C66.2492 70.7921 66.3358 71.0054 66.4903 71.16C66.6449 71.3145 66.8581 71.4011 67.0776 71.4011C67.294 71.4011 67.5042 71.3115 67.6587 71.1569C67.8133 71.0024 67.8998 70.7922 67.8968 70.5727V69.0643L78.1497 79.3173C78.4712 79.6357 78.9905 79.6357 79.312 79.3173C79.6304 78.9958 79.6304 78.4765 79.312 78.1582L69.059 67.9052H70.5737V67.9021C71.0281 67.9021 71.3928 67.5343 71.3959 67.0829C71.3959 66.8635 71.3094 66.6533 71.1579 66.4987C71.0034 66.3442 70.7932 66.2545 70.5737 66.2545L67.0745 66.2545Z"/>
</mask>
<path d="M44.0024 6.08379C43.783 6.0807 43.5728 6.16725 43.4182 6.3218C43.2637 6.47635 43.1771 6.68654 43.174 6.90292V21.4029L42.1076 20.3364L42.1107 20.3395C41.953 20.1819 41.7429 20.0953 41.5234 20.0953C41.307 20.0953 41.0968 20.1819 40.9423 20.3395C40.6239 20.661 40.6239 21.1803 40.9423 21.5018L43.4182 23.9808V23.9777C43.7397 24.2992 44.259 24.2992 44.5805 23.9777L47.0564 21.4987V21.5018C47.3748 21.1803 47.3748 20.661 47.0564 20.3395C46.9018 20.1819 46.6916 20.0953 46.4722 20.0953C46.2527 20.0953 46.0425 20.1819 45.888 20.3395L44.8246 21.409V6.90277C44.8215 6.45147 44.4569 6.08379 44.0024 6.08379ZM9.25925 8.43611C9.03979 8.43611 8.8296 8.52575 8.67505 8.6803C8.35358 9.00177 8.35358 9.52107 8.67505 9.84257L18.9249 20.0956H17.4196C17.2001 20.0925 16.9899 20.179 16.8323 20.3336C16.6777 20.4881 16.5912 20.6983 16.5912 20.9178C16.5912 21.1372 16.6777 21.3474 16.8323 21.502C16.9868 21.6596 17.197 21.7462 17.4196 21.7462H20.9186H20.9156C21.373 21.7431 21.7378 21.3721 21.7378 20.9177V17.4248C21.7378 17.2054 21.6512 16.9952 21.4998 16.8406C21.3452 16.6861 21.135 16.5964 20.9156 16.5964C20.6961 16.5964 20.4859 16.683 20.3314 16.8375C20.1737 16.9921 20.0872 17.2054 20.0903 17.4248V18.9271L9.84362 8.68041H9.84053C9.68907 8.52586 9.47872 8.43611 9.25925 8.43611ZM78.7369 8.4392C78.5205 8.4392 78.3103 8.52575 78.1558 8.6803L67.9028 18.9333V17.4249C67.9059 17.2054 67.8193 16.9952 67.6648 16.8407C67.5102 16.683 67.3001 16.5965 67.0806 16.5965C66.8611 16.5965 66.6509 16.6831 66.4964 16.8376C66.3387 16.9922 66.2522 17.2054 66.2522 17.4249V20.9178C66.2522 21.1373 66.3388 21.3475 66.4964 21.502C66.6509 21.6597 66.8611 21.7462 67.0806 21.7462H70.5735C70.793 21.7462 71.0063 21.6597 71.1608 21.502C71.3154 21.3475 71.4019 21.1373 71.4019 20.9178C71.4019 20.6984 71.3154 20.4882 71.1577 20.3336C71.0032 20.1791 70.793 20.0925 70.5735 20.0956H69.0651L79.3181 9.84262C79.6365 9.52115 79.6365 9.00185 79.3181 8.68034C79.1636 8.52579 78.9533 8.4392 78.7369 8.4392ZM38.5068 15.731C38.4017 15.7093 38.2904 15.7093 38.1853 15.731C36.306 16.1142 34.4977 16.6861 32.7698 17.4156C29.3171 18.8746 26.2105 20.9888 23.5985 23.5977C20.9896 26.2065 18.8754 29.3161 17.4164 32.7689C16.6869 34.4937 16.1213 36.3051 15.738 38.1845C15.6452 38.6296 15.9327 39.0654 16.3778 39.1582C16.5911 39.2015 16.8167 39.1582 16.9991 39.0376C17.1815 38.9171 17.3082 38.7285 17.3515 38.5152C17.7131 36.7441 18.2448 35.0378 18.9341 33.4089C20.3096 30.154 22.3095 27.2237 24.77 24.763C27.2305 22.3024 30.1608 20.3088 33.4158 18.9333C35.0417 18.244 36.7449 17.7154 38.5161 17.3538V17.3507C38.7293 17.3074 38.9179 17.1807 39.0385 16.9983C39.159 16.8159 39.2023 16.5903 39.159 16.377C39.0941 16.0493 38.8375 15.7928 38.5068 15.731ZM49.4925 15.731C49.1617 15.7928 48.9052 16.0493 48.8402 16.377C48.7939 16.5934 48.8372 16.8159 48.9608 16.9983C49.0813 17.1807 49.2699 17.3074 49.4832 17.3507C51.2544 17.7123 52.9606 18.244 54.5896 18.9302C57.8445 20.3057 60.7748 22.2994 63.2354 24.7599C65.6961 27.2204 67.6896 30.1538 69.0651 33.4058C69.7544 35.0317 70.283 36.741 70.6447 38.5121L70.6478 38.5152C70.691 38.7285 70.8178 38.9171 71.0001 39.0376C71.1825 39.1613 71.4051 39.2045 71.6214 39.1582C71.8378 39.1149 72.0264 38.9882 72.1469 38.8058C72.2675 38.6234 72.3107 38.4009 72.2675 38.1845C71.8842 36.3051 71.3124 34.4938 70.5828 32.7689C69.1238 29.3162 67.0096 26.2097 64.4007 23.5977C61.7919 20.9888 58.6823 18.8745 55.2295 17.4156C53.5047 16.6861 51.6933 16.1143 49.8139 15.731C49.7057 15.7093 49.5976 15.7093 49.4925 15.731ZM40.7019 26.6891L40.705 26.6922C40.4855 26.6891 40.2753 26.7756 40.1208 26.9302C39.9662 27.0847 39.8766 27.2949 39.8766 27.5144V31.8202C39.3326 32.0057 38.807 32.222 38.3001 32.4724L35.2585 29.4277C35.104 29.2731 34.8938 29.1866 34.6743 29.1866C34.4548 29.1866 34.2446 29.2731 34.0901 29.4277L29.4288 34.089C29.2743 34.2435 29.1877 34.4537 29.1877 34.6732C29.1877 34.8926 29.2743 35.1028 29.4288 35.2574L32.4704 38.299C32.2201 38.8059 32.0037 39.3314 31.8213 39.8755H27.5124V39.8786C27.058 39.8786 26.6902 40.2495 26.6933 40.7039V47.294C26.6902 47.7484 27.058 48.1193 27.5124 48.1224H31.8213C32.0068 48.6664 32.2201 49.1919 32.4704 49.6988L29.4288 52.7405C29.2743 52.895 29.1877 53.1052 29.1877 53.3247C29.1877 53.5441 29.2743 53.7543 29.4288 53.9089L34.0901 58.5702C34.2446 58.7247 34.4548 58.8113 34.6743 58.8113C34.8938 58.8113 35.104 58.7247 35.2585 58.5702L38.3001 55.5285C38.8071 55.7789 39.3326 55.9953 39.8766 56.1808V60.4897V60.4866C39.8797 60.941 40.2506 61.3088 40.705 61.3057H47.2951C47.7495 61.3088 48.1204 60.941 48.1204 60.4866V56.1777C48.6645 55.9922 49.19 55.7758 49.6969 55.5254L52.7416 58.5702C52.8961 58.7247 53.1063 58.8113 53.3258 58.8113C53.5453 58.8113 53.7555 58.7247 53.91 58.5702L58.5713 53.9089C58.7258 53.7543 58.8124 53.5441 58.8124 53.3247C58.8124 53.1052 58.7258 52.895 58.5713 52.7405L55.5297 49.6988C55.78 49.1919 55.9964 48.6664 56.1788 48.1224H60.4877H60.4846C60.7041 48.1224 60.9143 48.0328 61.0688 47.8782C61.2234 47.7237 61.3099 47.5135 61.3068 47.294V40.7039C61.3099 40.4875 61.2234 40.2773 61.0688 40.1197C60.9143 39.9651 60.7041 39.8786 60.4846 39.8786H56.1757C55.9902 39.3346 55.7769 38.8091 55.5266 38.3022L58.5713 35.2574C58.7258 35.1029 58.8124 34.8927 58.8124 34.6732C58.8124 34.4538 58.7258 34.2436 58.5713 34.089L53.91 29.4277C53.7555 29.2732 53.5453 29.1866 53.3258 29.1866C53.1063 29.1866 52.8961 29.2732 52.7416 29.4277L49.7 32.4694C49.193 32.219 48.6675 32.0026 48.1235 31.8172V27.5113L48.1204 27.5144C48.1204 27.295 48.0339 27.0848 47.8793 26.9302C47.7217 26.7757 47.5115 26.6891 47.2951 26.6922L40.7019 26.6891ZM41.5241 28.3397H46.4729V32.3611C46.4729 32.732 46.7171 33.0597 47.0757 33.1586C47.9257 33.3997 48.7356 33.7397 49.4929 34.1631C49.8143 34.3424 50.2162 34.2868 50.4758 34.024L53.3227 31.1771L56.8218 34.6762L53.9749 37.5231C53.7122 37.7828 53.6565 38.1846 53.8358 38.5061C54.2593 39.2634 54.5993 40.0733 54.8404 40.9233C54.9393 41.2818 55.2669 41.526 55.6379 41.526H59.6593V46.4748H55.6379V46.4717C55.2669 46.4717 54.9424 46.7128 54.8404 47.0683C54.5993 47.9183 54.2593 48.7313 53.8358 49.4886V49.4917C53.6565 49.8132 53.7122 50.215 53.9749 50.4746L56.8218 53.3215L53.3227 56.8206L50.4758 53.9737V53.9768C50.2162 53.7141 49.8143 53.6554 49.4929 53.8346C48.7356 54.2581 47.9257 54.5981 47.0757 54.8361V54.8392C46.7202 54.9381 46.4729 55.2627 46.4729 55.6305V59.6581H41.5241V55.6305C41.5241 55.2627 41.283 54.9412 40.9307 54.8392C40.0806 54.5981 39.2676 54.2612 38.5104 53.8377L38.5073 53.8346C38.1858 53.6554 37.7809 53.7141 37.5212 53.9768L34.6743 56.8237L31.1752 53.3246L34.0221 50.4777V50.4746C34.2849 50.215 34.3436 49.8132 34.1643 49.4917C33.7408 48.7344 33.4008 47.9214 33.1598 47.0714V47.0683C33.0578 46.7159 32.7363 46.4748 32.3684 46.4717H28.3409V41.523H32.3684V41.526C32.7363 41.526 33.0608 41.2788 33.1598 40.9233C33.4009 40.0733 33.7378 39.2634 34.1612 38.5061H34.1643C34.3436 38.1846 34.2849 37.7828 34.0221 37.5231L31.1752 34.6762L34.6743 31.1771L37.5212 34.024C37.7809 34.2868 38.1858 34.3424 38.5073 34.1631C39.2646 33.7397 40.0775 33.3996 40.9276 33.1586H40.9307C41.283 33.0566 41.5272 32.732 41.5241 32.3611L41.5241 28.3397ZM44.0031 36.5772C39.9168 36.5772 36.5785 39.9062 36.5785 43.9926C36.5785 48.079 39.9137 51.4173 44.0031 51.4173C48.0895 51.4173 51.4186 48.0821 51.4186 43.9926C51.4186 39.9062 48.0895 36.5772 44.0031 36.5772ZM44.0031 38.2247C47.1993 38.2247 49.7711 40.7964 49.7711 43.9926C49.7711 47.1888 47.1993 49.7667 44.0031 49.7667C40.807 49.7667 38.229 47.1888 38.229 43.9926C38.229 40.7964 40.807 38.2247 44.0031 38.2247ZM20.9191 40.7006C20.7027 40.7006 20.4925 40.7872 20.338 40.9417C20.1834 41.0963 20.0969 41.3065 20.0969 41.5259C20.0969 41.7454 20.1834 41.9556 20.338 42.1101L21.4044 43.1735H6.91082C6.69136 43.1735 6.48117 43.26 6.32662 43.4146C6.17207 43.566 6.08551 43.7762 6.08243 43.9957C6.08243 44.2152 6.16898 44.4254 6.32353 44.583C6.48118 44.7376 6.69136 44.8241 6.91083 44.8241H21.4076L20.3381 45.8906V45.8875C20.1835 46.042 20.097 46.2522 20.097 46.4717C20.097 46.6911 20.1835 46.9013 20.3381 47.0559C20.6595 47.3743 21.1788 47.3743 21.5003 47.0559L23.9763 44.58C24.2977 44.2585 24.2977 43.7392 23.9763 43.4177L21.5003 40.9418C21.3458 40.7872 21.1386 40.7006 20.9191 40.7006ZM67.0808 40.7006C66.8613 40.7006 66.6542 40.7872 66.4997 40.9417L64.0207 43.4176C63.7023 43.7391 63.7023 44.2584 64.0207 44.5799L66.4997 47.0558C66.8211 47.3742 67.3373 47.3742 67.6588 47.0558C67.8133 46.9013 67.903 46.6911 67.903 46.4716C67.903 46.2522 67.8133 46.042 67.6588 45.8874L66.5954 44.821H81.0953V44.8241C81.3148 44.821 81.5219 44.7344 81.6765 44.5799C81.831 44.4253 81.9176 44.2151 81.9176 43.9957C81.9145 43.5413 81.5497 43.1765 81.0953 43.1734H66.5986L67.6588 42.1101C67.8133 41.9555 67.9029 41.7453 67.9029 41.5258C67.9029 41.3064 67.8133 41.0962 67.6588 40.9416C67.5042 40.7871 67.2972 40.7006 67.0808 40.7006ZM46.6152 41.3281C46.4174 41.3404 46.2288 41.427 46.0897 41.5692L43.1748 44.4841L42.5906 43.8998C42.2692 43.5784 41.7499 43.5784 41.4284 43.8998C41.2738 44.0544 41.1873 44.2646 41.1873 44.481C41.1873 44.7004 41.2738 44.9106 41.4284 45.0652L42.5906 46.2274C42.7452 46.382 42.9554 46.4716 43.1748 46.4716C43.3943 46.4716 43.6045 46.382 43.759 46.2274L47.2581 42.7284V42.7315C47.5796 42.41 47.5796 41.8907 47.2581 41.5692C47.0881 41.3992 46.8532 41.3095 46.6152 41.3281ZM16.6998 48.8393C16.5947 48.8177 16.4834 48.8177 16.3783 48.8393C15.9332 48.9321 15.6488 49.3679 15.7385 49.813C16.1218 51.6924 16.6874 53.5038 17.4169 55.2286C18.8759 58.6813 20.9901 61.7878 23.599 64.3999C26.2079 67.0087 29.3175 69.123 32.7703 70.582C34.4951 71.3115 36.3065 71.8771 38.1858 72.2604C38.6309 72.3531 39.0668 72.0657 39.1595 71.6206C39.2028 71.4073 39.1595 71.1816 39.039 70.9993C38.9184 70.8169 38.7299 70.6902 38.5166 70.6469C36.7454 70.2852 35.0423 69.7536 33.4164 69.0643C30.1615 67.6887 27.2343 65.6889 24.7705 63.2284C22.31 60.7679 20.3102 57.8376 18.9346 54.5825C18.2453 52.9566 17.7136 51.2535 17.352 49.4823C17.284 49.1577 17.0274 48.9012 16.6998 48.8393ZM71.3 48.8393C70.9724 48.9012 70.7127 49.1577 70.6478 49.4823C70.2862 51.2535 69.7545 52.9566 69.0683 54.5825C67.6928 57.8374 65.6991 60.7646 63.2386 63.2283C60.7781 65.6888 57.8447 67.6887 54.5927 69.0642C52.9668 69.7535 51.2575 70.2852 49.4863 70.6469H49.4833C49.27 70.6901 49.0814 70.8169 48.9609 70.9992C48.8403 71.1816 48.797 71.4072 48.8403 71.6205C48.9331 72.0656 49.3689 72.3531 49.814 72.2604C51.6934 71.8771 53.5048 71.3114 55.2296 70.5819C58.6823 69.1229 61.7888 67.0087 64.4008 64.3998C67.0097 61.791 69.124 58.6814 70.5829 55.2286C71.3124 53.5038 71.8842 51.6924 72.2676 49.813C72.3108 49.5966 72.2676 49.3741 72.147 49.1917C72.0234 49.0093 71.8348 48.8826 71.6215 48.8393C71.5164 48.8177 71.4051 48.8177 71.3 48.8393ZM43.9999 63.7816C43.7835 63.7816 43.5733 63.8682 43.4188 64.0227L40.9429 66.4986C40.6245 66.8201 40.6245 67.3394 40.9429 67.6609C41.0974 67.8155 41.3076 67.902 41.5271 67.902C41.7465 67.902 41.9567 67.8155 42.1113 67.6609L43.1777 66.5976V81.088H43.1746C43.1746 81.3075 43.2612 81.5177 43.4157 81.6753C43.5734 81.8299 43.7836 81.9164 44.003 81.9164C44.2225 81.9133 44.4296 81.8268 44.5842 81.6722C44.7387 81.5177 44.8253 81.3075 44.8253 81.088V66.5944L45.8886 67.6609C46.0432 67.8154 46.2534 67.902 46.4728 67.902C46.6923 67.902 46.9025 67.8154 47.057 67.6609C47.3754 67.3394 47.3754 66.8201 47.057 66.4986L44.5811 64.0227C44.4266 63.8681 44.2163 63.7816 43.9999 63.7816ZM17.4231 66.2545H17.4262C17.2067 66.2545 16.9934 66.341 16.8389 66.4956C16.6843 66.6501 16.5978 66.8634 16.5978 67.0829C16.5978 67.5372 16.9687 67.9051 17.4262 67.902H18.9346L8.68162 78.155V78.1581C8.36325 78.4765 8.36325 78.9958 8.68162 79.3172C9.00309 79.6356 9.52239 79.6356 9.84073 79.3172L20.0937 69.0642V70.5726H20.0968C20.0937 70.7921 20.1803 71.0023 20.3348 71.1568C20.4894 71.3114 20.6996 71.401 20.9159 71.401C21.1354 71.401 21.3487 71.3145 21.5032 71.1599C21.6578 71.0054 21.7443 70.7921 21.7443 70.5726V67.0797V67.0828C21.7443 66.8633 21.6578 66.65 21.5032 66.4955C21.3487 66.3409 21.1354 66.2544 20.9159 66.2544L17.4231 66.2545ZM67.0745 66.2545H67.0776C66.8582 66.2545 66.6449 66.341 66.4903 66.4956C66.3358 66.6501 66.2492 66.8634 66.2492 67.0829V70.5758V70.5727C66.2492 70.7921 66.3358 71.0054 66.4903 71.16C66.6449 71.3145 66.8581 71.4011 67.0776 71.4011C67.294 71.4011 67.5042 71.3115 67.6587 71.1569C67.8133 71.0024 67.8998 70.7922 67.8968 70.5727V69.0643L78.1497 79.3173C78.4712 79.6357 78.9905 79.6357 79.312 79.3173C79.6304 78.9958 79.6304 78.4765 79.312 78.1582L69.059 67.9052H70.5737V67.9021C71.0281 67.9021 71.3928 67.5343 71.3959 67.0829C71.3959 66.8635 71.3094 66.6533 71.1579 66.4987C71.0034 66.3442 70.7932 66.2545 70.5737 66.2545L67.0745 66.2545Z" fill="black"/>
<path d="M38.4068 15.7279V15.731H38.6068V15.7279H38.4068ZM49.4187 15.7986L49.4217 15.8017L49.5632 15.6602L49.5601 15.6572L49.4187 15.7986ZM67.0777 40.8006H67.0808V40.6006H67.0777V40.8006ZM46.6121 41.4281H46.6152V41.2281H46.6121V41.4281ZM16.6967 48.9393H16.6998V48.7393H16.6967V48.9393ZM71.297 48.9393H71.3V48.7393H71.297V48.9393ZM43.9968 63.8816H43.9999V63.6816H43.9968V63.8816ZM44.0024 6.08379L43.9996 6.28379H44.0024V6.08379ZM43.174 6.90292L42.974 6.90007V6.90292H43.174ZM43.174 21.4029L43.0326 21.5443L43.374 21.8857V21.4029H43.174ZM40.9423 20.3395L41.0844 20.4802L41.0851 20.4795L40.9423 20.3395ZM40.9423 21.5018L40.8001 21.6425L40.8007 21.6431L40.9423 21.5018ZM43.4182 23.9808L43.2767 24.1221L43.6182 24.464V23.9808H43.4182ZM43.4182 23.9777L43.5596 23.8363L43.2182 23.4948V23.9777H43.4182ZM44.5805 23.9777L44.7219 24.1191L44.722 24.119L44.5805 23.9777ZM47.0564 21.4987H47.2564V21.0154L46.9149 21.3573L47.0564 21.4987ZM47.0564 21.5018H46.8564V21.9879L47.1985 21.6425L47.0564 21.5018ZM47.0564 20.3395L46.9136 20.4795L46.9143 20.4802L47.0564 20.3395ZM45.888 20.3395L46.0298 20.4805L46.0308 20.4795L45.888 20.3395ZM44.8246 21.409H44.6246V21.8939L44.9664 21.55L44.8246 21.409ZM44.8246 6.90277L45.0246 6.90277L45.0246 6.9014L44.8246 6.90277ZM8.67505 9.84257L8.81649 9.70117L8.81648 9.70116L8.67505 9.84257ZM18.9249 20.0956V20.2956H19.4076L19.0663 19.9542L18.9249 20.0956ZM17.4196 20.0956L17.4167 20.2956H17.4196V20.0956ZM16.8323 20.3336L16.6922 20.1907L16.6908 20.1921L16.8323 20.3336ZM16.8323 21.502L16.9751 21.362L16.9737 21.3606L16.8323 21.502ZM20.9156 21.7462L20.9142 21.5462L20.9156 21.9462V21.7462ZM21.4998 16.8406L21.6426 16.7006L21.6412 16.6992L21.4998 16.8406ZM20.3314 16.8375L20.4714 16.9804L20.4728 16.979L20.3314 16.8375ZM20.0903 17.4248H20.2903L20.2903 17.422L20.0903 17.4248ZM20.0903 18.9271L19.9489 19.0685L20.2903 19.4099V18.9271H20.0903ZM9.84362 8.68041L9.98504 8.53899L9.92646 8.48041H9.84362V8.68041ZM9.84053 8.68041L9.69769 8.8204L9.7565 8.88041H9.84053V8.68041ZM78.1558 8.6803L78.0144 8.53888L78.0144 8.53888L78.1558 8.6803ZM67.9028 18.9333H67.7028V19.4161L68.0442 19.0747L67.9028 18.9333ZM67.9028 17.4249L67.7028 17.4221V17.4249H67.9028ZM67.6648 16.8407L67.522 16.9807L67.5234 16.9821L67.6648 16.8407ZM66.4964 16.8376L66.6364 16.9804L66.6378 16.979L66.4964 16.8376ZM66.4964 21.502L66.6392 21.362L66.6364 21.3592L66.4964 21.502ZM71.1608 21.502L71.0194 21.3606L71.018 21.362L71.1608 21.502ZM71.1577 20.3336L71.0163 20.475L71.0177 20.4764L71.1577 20.3336ZM70.5735 20.0956V20.2956L70.5763 20.2956L70.5735 20.0956ZM69.0651 20.0956L68.9237 19.9542L68.5823 20.2956H69.0651V20.0956ZM79.3181 9.84262L79.4595 9.98404L79.4602 9.98335L79.3181 9.84262ZM79.3181 8.68034L79.4602 8.53962L79.4595 8.53892L79.3181 8.68034ZM38.5068 15.731L38.4665 15.9269L38.47 15.9275L38.5068 15.731ZM38.1853 15.731L38.2253 15.9269L38.2257 15.9268L38.1853 15.731ZM32.7698 17.4156L32.692 17.2313L32.6919 17.2313L32.7698 17.4156ZM23.5985 23.5977L23.4572 23.4562L23.4571 23.4562L23.5985 23.5977ZM17.4164 32.7689L17.6006 32.8468L17.6006 32.8468L17.4164 32.7689ZM15.738 38.1845L15.9338 38.2253L15.9339 38.2245L15.738 38.1845ZM16.3778 39.1582L16.337 39.354L16.338 39.3542L16.3778 39.1582ZM17.3515 38.5152L17.1555 38.4752L17.1555 38.4755L17.3515 38.5152ZM18.9341 33.4089L19.1183 33.4868L19.1183 33.4867L18.9341 33.4089ZM33.4158 18.9333L33.4937 19.1175L33.4939 19.1174L33.4158 18.9333ZM38.5161 17.3538L38.5561 17.5497L38.7161 17.5171V17.3538H38.5161ZM38.5161 17.3507L38.4763 17.1547L38.3161 17.1872V17.3507H38.5161ZM39.0385 16.9983L39.2053 17.1086L39.2053 17.1086L39.0385 16.9983ZM39.159 16.377L38.9628 16.4159L38.963 16.4168L39.159 16.377ZM49.4925 15.731L49.5292 15.9276L49.5328 15.9268L49.4925 15.731ZM48.8402 16.377L49.0358 16.4189L49.0364 16.4159L48.8402 16.377ZM48.9608 16.9983L49.1277 16.888L49.1263 16.8861L48.9608 16.9983ZM49.4832 17.3507L49.5232 17.1547L49.523 17.1547L49.4832 17.3507ZM54.5896 18.9302L54.6674 18.746L54.6672 18.7459L54.5896 18.9302ZM69.0651 33.4058L68.8809 33.4837L68.881 33.4838L69.0651 33.4058ZM70.6447 38.5121L70.4487 38.5522L70.4607 38.6111L70.5032 38.6536L70.6447 38.5121ZM70.6478 38.5152L70.8438 38.4755L70.8318 38.4164L70.7892 38.3738L70.6478 38.5152ZM71.0001 39.0376L71.1124 38.8721L71.1104 38.8708L71.0001 39.0376ZM71.6214 39.1582L71.5822 38.962L71.5795 38.9626L71.6214 39.1582ZM72.2675 38.1845L72.4636 38.1453L72.4634 38.1445L72.2675 38.1845ZM70.5828 32.7689L70.3986 32.8468L70.3986 32.8468L70.5828 32.7689ZM64.4007 23.5977L64.5423 23.4563L64.5422 23.4563L64.4007 23.5977ZM55.2295 17.4156L55.1516 17.5998L55.1516 17.5998L55.2295 17.4156ZM49.8139 15.731L49.8539 15.535L49.8532 15.5348L49.8139 15.731ZM40.7019 26.6891L40.702 26.4891L40.2188 26.4888L40.5605 26.8305L40.7019 26.6891ZM40.705 26.6922L40.7022 26.8921L41.1947 26.8991L40.8464 26.5507L40.705 26.6922ZM39.8766 31.8202L39.9411 32.0095L40.0766 31.9633V31.8202H39.8766ZM38.3001 32.4724L38.1586 32.6138L38.2601 32.7153L38.3887 32.6517L38.3001 32.4724ZM35.2585 29.4277L35.4 29.2863L35.3999 29.2863L35.2585 29.4277ZM29.4288 35.2574L29.5702 35.116L29.5702 35.116L29.4288 35.2574ZM32.4704 38.299L32.6498 38.3876L32.7133 38.259L32.6119 38.1576L32.4704 38.299ZM31.8213 39.8755V40.0755H31.9652L32.011 39.939L31.8213 39.8755ZM27.5124 39.8755V39.6755H27.3124V39.8755H27.5124ZM27.5124 39.8786V40.0786H27.7124V39.8786H27.5124ZM26.6933 40.7039H26.8933L26.8932 40.7025L26.6933 40.7039ZM26.6933 47.294L26.8933 47.2953V47.294H26.6933ZM27.5124 48.1224L27.5111 48.3224H27.5124V48.1224ZM31.8213 48.1224L32.0106 48.0579L31.9644 47.9224H31.8213V48.1224ZM32.4704 49.6988L32.6119 49.8403L32.7133 49.7389L32.6498 49.6103L32.4704 49.6988ZM29.4288 52.7405L29.5702 52.8819L29.5702 52.8819L29.4288 52.7405ZM29.4288 53.9089L29.5702 53.7675L29.5702 53.7675L29.4288 53.9089ZM34.0901 58.5702L33.9487 58.7116L33.9487 58.7116L34.0901 58.5702ZM35.2585 58.5702L35.3999 58.7116L35.3999 58.7116L35.2585 58.5702ZM38.3001 55.5285L38.3887 55.3492L38.2601 55.2857L38.1587 55.3871L38.3001 55.5285ZM39.8766 56.1808H40.0766V56.0376L39.9411 55.9915L39.8766 56.1808ZM39.8766 60.4866L40.0766 60.4852L39.6766 60.4866H39.8766ZM40.705 61.3057V61.1057L40.7036 61.1057L40.705 61.3057ZM47.2951 61.3057L47.2965 61.1057H47.2951V61.3057ZM48.1204 56.1777L48.0559 55.9884L47.9204 56.0345V56.1777H48.1204ZM49.6969 55.5254L49.8383 55.384L49.7369 55.2826L49.6083 55.3461L49.6969 55.5254ZM52.7416 58.5702L52.6002 58.7116L52.6002 58.7116L52.7416 58.5702ZM58.5713 52.7405L58.7127 52.5991L58.7127 52.5991L58.5713 52.7405ZM55.5297 49.6988L55.3503 49.6103L55.2868 49.7389L55.3882 49.8403L55.5297 49.6988ZM56.1788 48.1224V47.9224H56.0349L55.9891 48.0588L56.1788 48.1224ZM61.3068 47.294L61.1068 47.294L61.1068 47.2968L61.3068 47.294ZM61.3068 40.7039L61.1068 40.7011V40.7039H61.3068ZM61.0688 40.1197L61.2116 39.9797L61.2102 39.9783L61.0688 40.1197ZM56.1757 39.8786L55.9864 39.9431L56.0326 40.0786H56.1757V39.8786ZM55.5266 38.3022L55.3851 38.1607L55.2837 38.2621L55.3472 38.3907L55.5266 38.3022ZM58.5713 35.2574L58.7127 35.3989L58.7127 35.3989L58.5713 35.2574ZM58.5713 34.089L58.7127 33.9476L58.7127 33.9476L58.5713 34.089ZM53.91 29.4277L53.7686 29.5692L53.7686 29.5692L53.91 29.4277ZM52.7416 29.4277L52.883 29.5692L52.883 29.5692L52.7416 29.4277ZM49.7 32.4694L49.6114 32.6487L49.74 32.7122L49.8414 32.6108L49.7 32.4694ZM48.1235 31.8172H47.9235V31.9603L48.059 32.0065L48.1235 31.8172ZM48.1235 27.5113H48.3235V27.0285L47.9821 27.3699L48.1235 27.5113ZM48.1204 27.5144H47.9204V27.9973L48.2618 27.6558L48.1204 27.5144ZM47.8793 26.9302L48.0207 26.7888L48.0193 26.7874L47.8793 26.9302ZM47.2951 26.6922L47.295 26.8922L47.298 26.8922L47.2951 26.6922ZM41.5241 28.3397V28.1397H41.3241L41.3241 28.3397L41.5241 28.3397ZM46.4729 28.3397H46.6729V28.1397H46.4729V28.3397ZM47.0757 33.1586L47.1302 32.9661L47.1288 32.9658L47.0757 33.1586ZM49.4929 34.1631L49.3953 34.3377L49.3955 34.3378L49.4929 34.1631ZM50.4758 34.024L50.3344 33.8826L50.3336 33.8834L50.4758 34.024ZM53.3227 31.1771L53.4641 31.0357L53.3227 30.8943L53.1813 31.0357L53.3227 31.1771ZM56.8218 34.6762L56.9632 34.8176L57.1046 34.6762L56.9632 34.5348L56.8218 34.6762ZM53.9749 37.5231L54.1155 37.6654L54.1163 37.6645L53.9749 37.5231ZM53.8358 38.5061L53.6611 38.6035L53.6613 38.6037L53.8358 38.5061ZM54.8404 40.9233L55.0332 40.8701L55.0328 40.8687L54.8404 40.9233ZM59.6593 41.526H59.8593V41.326H59.6593V41.526ZM59.6593 46.4748V46.6748H59.8593V46.4748H59.6593ZM55.6379 46.4748H55.4379V46.6748H55.6379V46.4748ZM55.6379 46.4717H55.8379V46.2717H55.6379V46.4717ZM54.8404 47.0683L54.6481 47.0131L54.648 47.0137L54.8404 47.0683ZM53.8358 49.4886L53.6613 49.391L53.6358 49.4365V49.4886H53.8358ZM53.8358 49.4917L54.0105 49.5891L54.0358 49.5437V49.4917H53.8358ZM53.9749 50.4746L54.1163 50.3332L54.1155 50.3324L53.9749 50.4746ZM56.8218 53.3215L56.9632 53.463L57.1046 53.3215L56.9632 53.1801L56.8218 53.3215ZM53.3227 56.8206L53.1813 56.962L53.3227 57.1035L53.4641 56.962L53.3227 56.8206ZM50.4758 53.9737L50.6172 53.8323L50.2758 53.4909V53.9737H50.4758ZM50.4758 53.9768L50.3336 54.1174L50.6758 54.4637V53.9768H50.4758ZM49.4929 53.8346L49.3955 53.66L49.3953 53.6601L49.4929 53.8346ZM47.0757 54.8361L47.0217 54.6435L46.8757 54.6844V54.8361H47.0757ZM47.0757 54.8392L47.1293 55.0319L47.2757 54.9911V54.8392H47.0757ZM46.4729 59.6581V59.8581H46.6729V59.6581H46.4729ZM41.5241 59.6581H41.3241V59.8581H41.5241V59.6581ZM40.9307 54.8392L40.9863 54.6471L40.9852 54.6468L40.9307 54.8392ZM38.5104 53.8377L38.3689 53.9791L38.3885 53.9988L38.4127 54.0123L38.5104 53.8377ZM38.5073 53.8346L38.6487 53.6932L38.629 53.6735L38.6047 53.66L38.5073 53.8346ZM37.5212 53.9768L37.6626 54.1182L37.6635 54.1174L37.5212 53.9768ZM34.6743 56.8237L34.5329 56.9651L34.6743 57.1066L34.8158 56.9651L34.6743 56.8237ZM31.1752 53.3246L31.0338 53.1832L30.8924 53.3246L31.0338 53.466L31.1752 53.3246ZM34.0221 50.4777L34.1636 50.6192L34.2221 50.5606V50.4777H34.0221ZM34.0221 50.4746L33.8816 50.3324L33.8221 50.3911V50.4746H34.0221ZM34.1643 49.4917L34.339 49.3943L34.3389 49.3941L34.1643 49.4917ZM33.1598 47.0714H32.9598V47.0992L32.9673 47.126L33.1598 47.0714ZM33.1598 47.0683H33.3598V47.0399L33.3519 47.0127L33.1598 47.0683ZM32.3684 46.4717L32.3701 46.2717H32.3684V46.4717ZM28.3409 46.4717H28.1409V46.6717H28.3409V46.4717ZM28.3409 41.523V41.323H28.1409V41.523H28.3409ZM32.3684 41.523H32.5684V41.323H32.3684V41.523ZM32.3684 41.526H32.1684V41.726H32.3684V41.526ZM33.1598 40.9233L32.9673 40.8687L32.9671 40.8697L33.1598 40.9233ZM34.1612 38.5061V38.3061H34.0439L33.9867 38.4085L34.1612 38.5061ZM34.1643 38.5061V38.7061H34.2818L34.339 38.6035L34.1643 38.5061ZM34.0221 37.5231L33.8807 37.6645L33.8816 37.6654L34.0221 37.5231ZM31.1752 34.6762L31.0338 34.5348L30.8924 34.6762L31.0338 34.8177L31.1752 34.6762ZM34.6743 31.1771L34.8158 31.0357L34.6743 30.8943L34.5329 31.0357L34.6743 31.1771ZM37.5212 34.024L37.6635 33.8835L37.6626 33.8826L37.5212 34.024ZM38.5073 34.1631L38.6047 34.3378L38.6049 34.3377L38.5073 34.1631ZM40.9276 33.1586V32.9586H40.8998L40.873 32.9662L40.9276 33.1586ZM40.9307 33.1586V33.3586H40.959L40.9863 33.3507L40.9307 33.1586ZM41.5241 32.3611L41.3241 32.3611L41.3241 32.3628L41.5241 32.3611ZM20.338 40.9417L20.1966 40.8003L20.1966 40.8003L20.338 40.9417ZM20.338 42.1101L20.1966 42.2515L20.1968 42.2517L20.338 42.1101ZM21.4044 43.1735V43.3735H21.8883L21.5456 43.0319L21.4044 43.1735ZM6.32662 43.4146L6.46661 43.5574L6.46804 43.556L6.32662 43.4146ZM6.08243 43.9957L5.88243 43.9929V43.9957H6.08243ZM6.32353 44.583L6.18069 44.723L6.18352 44.7258L6.32353 44.583ZM21.4076 44.8241L21.5488 44.9657L21.8914 44.6241H21.4076V44.8241ZM20.3381 45.8906H20.1381V46.3724L20.4793 46.0322L20.3381 45.8906ZM20.3381 45.8875H20.5381V45.4046L20.1966 45.746L20.3381 45.8875ZM20.3381 47.0559L20.1966 47.1973L20.1973 47.198L20.3381 47.0559ZM21.5003 47.0559L21.6411 47.198L21.6418 47.1973L21.5003 47.0559ZM23.9763 43.4177L24.1177 43.2763L24.1177 43.2763L23.9763 43.4177ZM21.5003 40.9418L21.6418 40.8003L21.6418 40.8003L21.5003 40.9418ZM66.4997 40.9417L66.641 41.0832L66.6411 41.0831L66.4997 40.9417ZM64.0207 43.4176L63.8793 43.2761L63.8786 43.2769L64.0207 43.4176ZM64.0207 44.5799L63.8785 44.7206L63.8793 44.7214L64.0207 44.5799ZM66.4997 47.0558L66.3583 47.1973L66.3589 47.1979L66.4997 47.0558ZM67.6588 47.0558L67.7995 47.1979L67.8002 47.1972L67.6588 47.0558ZM67.6588 45.8874L67.5171 46.0286L67.5174 46.0288L67.6588 45.8874ZM66.5954 44.821V44.621H66.1136L66.4538 44.9622L66.5954 44.821ZM81.0953 44.821H81.2953V44.621H81.0953V44.821ZM81.0953 44.8241H80.8953V45.0269L81.0982 45.024L81.0953 44.8241ZM81.6765 44.5799L81.8179 44.7213L81.8179 44.7213L81.6765 44.5799ZM81.9176 43.9957H82.1176L82.1176 43.9943L81.9176 43.9957ZM81.0953 43.1734L81.0967 42.9734H81.0953V43.1734ZM66.5986 43.1734L66.4569 43.0322L66.1167 43.3734H66.5986V43.1734ZM67.6588 42.1101L67.5173 41.9686L67.5171 41.9688L67.6588 42.1101ZM46.6152 41.3281L46.6277 41.5277L46.6307 41.5275L46.6152 41.3281ZM46.0897 41.5692L46.2311 41.7106L46.2327 41.709L46.0897 41.5692ZM43.1748 44.4841L43.0334 44.6255L43.1748 44.7669L43.3163 44.6255L43.1748 44.4841ZM41.4284 43.8998L41.2869 43.7584L41.2869 43.7584L41.4284 43.8998ZM47.2581 42.7284H47.4581V42.2455L47.1167 42.5869L47.2581 42.7284ZM47.2581 42.7315H47.0581V43.2143L47.3996 42.8729L47.2581 42.7315ZM47.2581 41.5692L47.3996 41.4278L47.3996 41.4278L47.2581 41.5692ZM16.6998 48.8393L16.6594 49.0353L16.6627 49.0359L16.6998 48.8393ZM16.3783 48.8393L16.338 48.6434L16.3375 48.6435L16.3783 48.8393ZM15.7385 49.813L15.5424 49.8525L15.5425 49.853L15.7385 49.813ZM17.4169 55.2286L17.6011 55.1508L17.6011 55.1507L17.4169 55.2286ZM23.599 64.3999L23.4575 64.5412L23.4576 64.5413L23.599 64.3999ZM32.7703 70.582L32.8482 70.3978L32.8481 70.3977L32.7703 70.582ZM38.1858 72.2604L38.2266 72.0646L38.2258 72.0644L38.1858 72.2604ZM39.1595 71.6206L39.3553 71.6614L39.3555 71.6603L39.1595 71.6206ZM38.5166 70.6469L38.4766 70.8428L38.4768 70.8429L38.5166 70.6469ZM33.4164 69.0643L33.4944 68.8801L33.4942 68.88L33.4164 69.0643ZM24.7705 63.2284L24.6291 63.3698L24.6292 63.3699L24.7705 63.2284ZM18.9346 54.5825L19.1189 54.5047L19.1188 54.5045L18.9346 54.5825ZM17.352 49.4823L17.548 49.4423L17.5478 49.4413L17.352 49.4823ZM71.3 48.8393L71.3371 49.0359L71.3404 49.0352L71.3 48.8393ZM70.6478 49.4823L70.8438 49.5223L70.8439 49.5215L70.6478 49.4823ZM69.0683 54.5825L69.2525 54.6604L69.2526 54.6603L69.0683 54.5825ZM63.2386 63.2283L63.38 63.3698L63.3801 63.3697L63.2386 63.2283ZM54.5927 69.0642L54.5148 68.88L54.5147 68.8801L54.5927 69.0642ZM49.4863 70.6469V70.8469H49.5066L49.5264 70.8428L49.4863 70.6469ZM49.4833 70.6469V70.4469H49.4632L49.4435 70.4508L49.4833 70.6469ZM48.9609 70.9992L48.794 70.8889L48.794 70.8889L48.9609 70.9992ZM48.8403 71.6205L48.6443 71.6603L48.6445 71.6613L48.8403 71.6205ZM49.814 72.2604L49.7741 72.0644L49.7732 72.0646L49.814 72.2604ZM55.2296 70.5819L55.1517 70.3977L55.1517 70.3977L55.2296 70.5819ZM64.4008 64.3998L64.5422 64.5413L64.5423 64.5413L64.4008 64.3998ZM70.5829 55.2286L70.3987 55.1507L70.3987 55.1507L70.5829 55.2286ZM72.2676 49.813L72.4635 49.853L72.4637 49.8522L72.2676 49.813ZM72.147 49.1917L72.3139 49.0814L72.3125 49.0795L72.147 49.1917ZM71.6215 48.8393L71.5812 49.0352L71.5818 49.0353L71.6215 48.8393ZM43.4188 64.0227L43.2774 63.8813L43.2774 63.8813L43.4188 64.0227ZM40.9429 66.4986L40.8014 66.3572L40.8008 66.3579L40.9429 66.4986ZM40.9429 67.6609L40.8007 67.8016L40.8014 67.8023L40.9429 67.6609ZM42.1113 67.6609L41.9701 67.5193L41.9699 67.5195L42.1113 67.6609ZM43.1777 66.5976H43.3777V66.1157L43.0365 66.4559L43.1777 66.5976ZM43.1777 81.088V81.288H43.3777V81.088H43.1777ZM43.1746 81.088V80.888H42.9746V81.088H43.1746ZM43.4157 81.6753L43.2729 81.8153L43.2757 81.8181L43.4157 81.6753ZM44.003 81.9164V82.1164L44.0059 82.1164L44.003 81.9164ZM44.5842 81.6722L44.7256 81.8136L44.7256 81.8136L44.5842 81.6722ZM44.8253 66.5944L44.9669 66.4532L44.6253 66.1106V66.5944H44.8253ZM45.8886 67.6609L45.747 67.8021L45.7472 67.8023L45.8886 67.6609ZM47.057 67.6609L47.1985 67.8023L47.1991 67.8016L47.057 67.6609ZM47.057 66.4986L47.1991 66.3578L47.1985 66.3572L47.057 66.4986ZM17.4231 66.2545L17.4231 66.0545L17.4231 66.4545V66.2545ZM17.4262 67.902L17.4262 67.702L17.4249 67.702L17.4262 67.902ZM18.9346 67.902L19.076 68.0434L19.4174 67.702H18.9346V67.902ZM8.68162 78.155L8.5402 78.0136L8.48162 78.0722V78.155H8.68162ZM8.68162 78.1581L8.82304 78.2995L8.88162 78.2409V78.1581H8.68162ZM8.68162 79.3172L8.53952 79.458L8.54088 79.4593L8.68162 79.3172ZM9.84073 79.3172L9.69931 79.1758L9.6993 79.1758L9.84073 79.3172ZM20.0937 69.0642H20.2937V68.5814L19.9523 68.9228L20.0937 69.0642ZM20.0937 70.5726H19.8937V70.7726H20.0937V70.5726ZM20.0968 70.5726L20.2968 70.5754L20.2996 70.3726H20.0968V70.5726ZM20.9159 66.2544L20.9159 66.0544L20.9159 66.0544L20.9159 66.2544ZM67.0745 66.2545V66.0545L67.0745 66.4545L67.0745 66.2545ZM66.4903 66.4956L66.3489 66.3541L66.3489 66.3541L66.4903 66.4956ZM66.4903 71.16L66.6317 71.0186L66.6317 71.0186L66.4903 71.16ZM67.6587 71.1569L67.8002 71.2983L67.8002 71.2983L67.6587 71.1569ZM67.8968 70.5727H67.6967L67.6968 70.5755L67.8968 70.5727ZM67.8968 69.0643L68.0382 68.9229L67.6968 68.5815V69.0643H67.8968ZM78.1497 79.3173L78.0083 79.4587L78.009 79.4594L78.1497 79.3173ZM79.312 79.3173L79.4527 79.4594L79.4541 79.458L79.312 79.3173ZM79.312 78.1582L79.1706 78.2996L79.1706 78.2996L79.312 78.1582ZM69.059 67.9052V67.7052H68.5762L68.9176 68.0466L69.059 67.9052ZM70.5737 67.9052V68.1052H70.7737V67.9052H70.5737ZM70.5737 67.9021V67.7021H70.3737V67.9021H70.5737ZM71.3959 67.0829L71.5959 67.0843V67.0829H71.3959ZM71.1579 66.4987L71.3008 66.3587L71.2993 66.3573L71.1579 66.4987ZM70.5737 66.2545L70.5737 66.4545H70.5737V66.2545ZM44.0053 5.88381C43.7311 5.87995 43.4691 5.98808 43.2768 6.18038L43.5596 6.46322C43.6765 6.34641 43.8348 6.28145 43.9996 6.28377L44.0053 5.88381ZM43.2768 6.18038C43.0847 6.37253 42.9779 6.63278 42.9741 6.90007L43.374 6.90577C43.3764 6.74031 43.4427 6.58016 43.5596 6.46322L43.2768 6.18038ZM42.974 6.90292V21.4029H43.374V6.90292H42.974ZM43.3155 21.2614L42.249 20.195L41.9662 20.4778L43.0326 21.5443L43.3155 21.2614ZM41.9662 20.4778L41.9693 20.4809L42.2521 20.1981L42.249 20.195L41.9662 20.4778ZM42.2521 20.1981C42.057 20.003 41.796 19.8953 41.5234 19.8953V20.2953C41.6897 20.2953 41.849 20.3607 41.9693 20.4809L42.2521 20.1981ZM41.5234 19.8953C41.2538 19.8953 40.992 20.0031 40.7995 20.1995L41.0851 20.4795C41.2017 20.3606 41.3602 20.2953 41.5234 20.2953V19.8953ZM40.8002 20.1988C40.4046 20.5982 40.4046 21.243 40.8001 21.6425L41.0844 21.361C40.8432 21.1175 40.8432 20.7238 41.0844 20.4802L40.8002 20.1988ZM40.8007 21.6431L43.2767 24.1221L43.5597 23.8394L41.0838 21.3604L40.8007 21.6431ZM43.6182 23.9808V23.9777H43.2182V23.9808H43.6182ZM43.2768 24.1191C43.6763 24.5187 44.3223 24.5187 44.7219 24.1191L44.439 23.8363C44.1956 24.0796 43.803 24.0796 43.5596 23.8363L43.2768 24.1191ZM44.722 24.119L47.1979 21.64L46.9149 21.3573L44.4389 23.8364L44.722 24.119ZM46.8564 21.4987V21.5018H47.2564V21.4987H46.8564ZM47.1985 21.6425C47.5941 21.2431 47.594 20.5982 47.1985 20.1988L46.9143 20.4802C47.1555 20.7238 47.1555 21.1175 46.9143 21.361L47.1985 21.6425ZM47.1992 20.1995C47.0064 20.0028 46.7445 19.8953 46.4722 19.8953V20.2953C46.6388 20.2953 46.7973 20.3609 46.9136 20.4795L47.1992 20.1995ZM46.4722 19.8953C46.1999 19.8953 45.938 20.0028 45.7452 20.1995L46.0308 20.4795C46.1471 20.3609 46.3055 20.2953 46.4722 20.2953V19.8953ZM45.7461 20.1985L44.6828 21.268L44.9664 21.55L46.0298 20.4805L45.7461 20.1985ZM45.0246 21.409V6.90277H44.6246V21.409H45.0246ZM45.0246 6.9014C45.0208 6.34145 44.568 5.88379 44.0024 5.88379V6.28379C44.3457 6.28379 44.6223 6.5615 44.6246 6.90414L45.0246 6.9014ZM9.25925 8.23611C8.98528 8.23611 8.72463 8.34787 8.53363 8.53888L8.81647 8.82172C8.93456 8.70363 9.09431 8.63611 9.25925 8.63611V8.23611ZM8.53363 8.53888C8.13405 8.93846 8.13406 9.58438 8.53362 9.98399L8.81648 9.70116C8.5731 9.45775 8.57311 9.06508 8.81647 8.82172L8.53363 8.53888ZM8.5336 9.98397L18.7834 20.237L19.0663 19.9542L8.81649 9.70117L8.5336 9.98397ZM18.9249 19.8956H17.4196V20.2956H18.9249V19.8956ZM17.4224 19.8956C17.1479 19.8917 16.8868 20 16.6922 20.1907L16.9723 20.4764C17.093 20.358 17.2523 20.2932 17.4167 20.2955L17.4224 19.8956ZM16.6908 20.1921C16.4985 20.3845 16.3912 20.6457 16.3912 20.9178H16.7912C16.7912 20.7509 16.8569 20.5917 16.9737 20.475L16.6908 20.1921ZM16.3912 20.9178C16.3912 21.1898 16.4985 21.451 16.6908 21.6434L16.9737 21.3606C16.8569 21.2438 16.7912 21.0846 16.7912 20.9178H16.3912ZM16.6894 21.642C16.8825 21.8389 17.1446 21.9462 17.4196 21.9462V21.5462C17.2494 21.5462 17.0911 21.4803 16.9751 21.362L16.6894 21.642ZM17.4196 21.9462H20.9186V21.5462H17.4196V21.9462ZM20.9186 21.5462H20.9156V21.9462H20.9186V21.5462ZM20.9169 21.9462C21.485 21.9423 21.9378 21.4814 21.9378 20.9177H21.5378C21.5378 21.2629 21.2611 21.5438 20.9142 21.5462L20.9169 21.9462ZM21.9378 20.9177V17.4248H21.5378V20.9177H21.9378ZM21.9378 17.4248C21.9378 17.153 21.8307 16.8925 21.6426 16.7006L21.3569 16.9806C21.4718 17.0978 21.5378 17.2578 21.5378 17.4248H21.9378ZM21.6412 16.6992C21.4502 16.5082 21.1896 16.3964 20.9156 16.3964V16.7964C21.0805 16.7964 21.2403 16.864 21.3584 16.982L21.6412 16.6992ZM20.9156 16.3964C20.6435 16.3964 20.3823 16.5038 20.19 16.6961L20.4728 16.979C20.5895 16.8622 20.7487 16.7964 20.9156 16.7964V16.3964ZM20.1914 16.6947C19.9942 16.888 19.8864 17.1541 19.8903 17.4277L20.2903 17.422C20.2879 17.2566 20.3533 17.0962 20.4714 16.9804L20.1914 16.6947ZM19.8903 17.4248V18.9271H20.2903V17.4248H19.8903ZM20.2317 18.7856L9.98504 8.53899L9.7022 8.82183L19.9489 19.0685L20.2317 18.7856ZM9.84362 8.48041H9.84053V8.88041H9.84362V8.48041ZM9.98337 8.54042C9.79461 8.34781 9.53292 8.23611 9.25925 8.23611V8.63611C9.42453 8.63611 9.58352 8.70391 9.69769 8.8204L9.98337 8.54042ZM78.7369 8.2392C78.4675 8.2392 78.2065 8.3468 78.0144 8.53888L78.2972 8.82173C78.4142 8.70471 78.5735 8.6392 78.7369 8.6392V8.2392ZM78.0144 8.53888L67.7614 18.7919L68.0442 19.0747L78.2972 8.82173L78.0144 8.53888ZM68.1028 18.9333V17.4249H67.7028V18.9333H68.1028ZM68.1028 17.4277C68.1066 17.1536 67.9985 16.8916 67.8062 16.6993L67.5234 16.9821C67.6402 17.0989 67.7051 17.2573 67.7028 17.4221L68.1028 17.4277ZM67.8076 16.7007C67.6148 16.504 67.3529 16.3965 67.0806 16.3965V16.7965C67.2472 16.7965 67.4057 16.8621 67.522 16.9807L67.8076 16.7007ZM67.0806 16.3965C66.8085 16.3965 66.5473 16.5038 66.355 16.6962L66.6378 16.979C66.7545 16.8623 66.9137 16.7965 67.0806 16.7965V16.3965ZM66.3564 16.6948C66.1592 16.8881 66.0522 17.1534 66.0522 17.4249H66.4522C66.4522 17.2575 66.5183 17.0962 66.6364 16.9804L66.3564 16.6948ZM66.0522 17.4249V20.9178H66.4522V17.4249H66.0522ZM66.0522 20.9178C66.0522 21.1901 66.1597 21.452 66.3564 21.6448L66.6364 21.3592C66.5178 21.2429 66.4522 21.0845 66.4522 20.9178H66.0522ZM66.3536 21.642C66.5464 21.8387 66.8083 21.9462 67.0806 21.9462V21.5462C66.9139 21.5462 66.7555 21.4806 66.6392 21.362L66.3536 21.642ZM67.0806 21.9462H70.5735V21.5462H67.0806V21.9462ZM70.5735 21.9462C70.845 21.9462 71.1103 21.8392 71.3036 21.642L71.018 21.362C70.9022 21.4801 70.7409 21.5462 70.5735 21.5462V21.9462ZM71.3022 21.6434C71.4946 21.4511 71.6019 21.1899 71.6019 20.9178H71.2019C71.2019 21.0847 71.1361 21.2439 71.0194 21.3606L71.3022 21.6434ZM71.6019 20.9178C71.6019 20.6455 71.4944 20.3836 71.2977 20.1908L71.0177 20.4764C71.1363 20.5927 71.2019 20.7512 71.2019 20.9178H71.6019ZM71.2991 20.1922C71.1069 19.9999 70.8448 19.8918 70.5707 19.8956L70.5763 20.2956C70.7411 20.2933 70.8995 20.3582 71.0163 20.475L71.2991 20.1922ZM70.5735 19.8956H69.0651V20.2956H70.5735V19.8956ZM69.2065 20.237L79.4595 9.98404L79.1767 9.7012L68.9237 19.9542L69.2065 20.237ZM79.4602 9.98335C79.8558 9.58393 79.8558 8.93906 79.4602 8.53962L79.176 8.82107C79.4172 9.06464 79.4172 9.45836 79.176 9.70188L79.4602 9.98335ZM79.4595 8.53892C79.2674 8.34684 79.0063 8.2392 78.7369 8.2392V8.6392C78.9003 8.6392 79.0597 8.70474 79.1767 8.82177L79.4595 8.53892ZM38.5471 15.5351C38.4154 15.5079 38.2767 15.5079 38.145 15.5351L38.2257 15.9268C38.3041 15.9107 38.388 15.9107 38.4665 15.9268L38.5471 15.5351ZM38.1454 15.535C36.2524 15.9211 34.4315 16.4969 32.692 17.2313L32.8476 17.5998C34.5639 16.8752 36.3595 16.3074 38.2253 15.9269L38.1454 15.535ZM32.6919 17.2313C29.215 18.7006 26.087 20.8295 23.4572 23.4562L23.7398 23.7392C26.334 21.1481 29.4191 19.0486 32.8476 17.5998L32.6919 17.2313ZM23.4571 23.4562C20.8303 26.083 18.7013 29.2142 17.2322 32.6911L17.6006 32.8468C19.0494 29.4181 21.149 26.33 23.7399 23.7391L23.4571 23.4562ZM17.2322 32.691C16.4976 34.428 15.928 36.252 15.542 38.1445L15.9339 38.2245C16.3146 36.3582 16.8763 34.5595 17.6006 32.8468L17.2322 32.691ZM15.5422 38.1437C15.4268 38.6976 15.7845 39.2389 16.337 39.354L16.4186 38.9624C16.0809 38.892 15.8637 38.5616 15.9338 38.2253L15.5422 38.1437ZM16.338 39.3542C16.603 39.408 16.8826 39.3544 17.1094 39.2045L16.8888 38.8708C16.7509 38.962 16.5792 38.995 16.4176 38.9622L16.338 39.3542ZM17.1094 39.2045C17.3362 39.0546 17.4937 38.8202 17.5475 38.555L17.1555 38.4755C17.1228 38.6368 17.0268 38.7796 16.8888 38.8708L17.1094 39.2045ZM17.5475 38.5553C17.9064 36.7971 18.4342 35.1036 19.1183 33.4868L18.7499 33.3309C18.0555 34.9721 17.5198 36.691 17.1555 38.4752L17.5475 38.5553ZM19.1183 33.4867C20.4836 30.2562 22.4687 27.3473 24.9114 24.9044L24.6286 24.6216C22.1503 27.1 20.1357 30.0518 18.7499 33.331L19.1183 33.4867ZM24.9114 24.9044C27.354 22.4617 30.2628 20.4828 33.4937 19.1175L33.338 18.7491C30.0588 20.1348 27.107 22.143 24.6286 24.6216L24.9114 24.9044ZM33.4939 19.1174C35.1074 18.4334 36.7977 17.9087 38.5561 17.5497L38.4761 17.1578C36.692 17.5221 34.9761 18.0546 33.3378 18.7492L33.4939 19.1174ZM38.7161 17.3538V17.3507H38.3161V17.3538H38.7161ZM38.5558 17.5467C38.821 17.4929 39.0554 17.3354 39.2053 17.1086L38.8716 16.888C38.7804 17.026 38.6376 17.1219 38.4763 17.1547L38.5558 17.5467ZM39.2053 17.1086C39.3552 16.8818 39.4088 16.6022 39.355 16.3372L38.963 16.4168C38.9958 16.5784 38.9628 16.75 38.8716 16.888L39.2053 17.1086ZM39.3552 16.3381C39.2745 15.9309 38.9553 15.6113 38.5435 15.5344L38.47 15.9275C38.7198 15.9742 38.9137 16.1678 38.9628 16.4159L39.3552 16.3381ZM49.4557 15.5344C49.0439 15.6113 48.7247 15.9309 48.6441 16.3381L49.0364 16.4159C49.0856 16.1678 49.2795 15.9742 49.5292 15.9275L49.4557 15.5344ZM48.6447 16.3351C48.5869 16.6046 48.6409 16.8829 48.7953 17.1105L49.1263 16.8861C49.0334 16.749 49.0008 16.5821 49.0358 16.4189L48.6447 16.3351ZM48.7939 17.1086C48.9439 17.3354 49.1782 17.4929 49.4434 17.5467L49.523 17.1547C49.3616 17.1219 49.2188 17.026 49.1276 16.888L48.7939 17.1086ZM49.4432 17.5466C51.2013 17.9056 52.895 18.4333 54.5119 19.1145L54.6672 18.7459C53.0262 18.0546 51.3074 17.519 49.5232 17.1547L49.4432 17.5466ZM54.5117 19.1144C57.7424 20.4797 60.6512 22.4588 63.094 24.9013L63.3768 24.6185C60.8983 22.1401 57.9465 20.1317 54.6674 18.746L54.5117 19.1144ZM63.094 24.9013C65.5367 27.3439 67.5156 30.2558 68.8809 33.4837L69.2493 33.3278C67.8636 30.0518 65.8554 27.0969 63.3768 24.6185L63.094 24.9013ZM68.881 33.4838C69.565 35.0972 70.0897 36.7937 70.4487 38.5522L70.8406 38.4721C70.4764 36.6882 69.9439 34.9662 69.2493 33.3277L68.881 33.4838ZM70.5032 38.6536L70.5063 38.6567L70.7892 38.3738L70.7861 38.3707L70.5032 38.6536ZM70.4517 38.555C70.5056 38.8202 70.6631 39.0546 70.8898 39.2045L71.1104 38.8708C70.9725 38.7796 70.8765 38.6368 70.8438 38.4755L70.4517 38.555ZM70.8879 39.2032C71.1156 39.3575 71.3938 39.4115 71.6633 39.3537L71.5795 38.9626C71.4163 38.9976 71.2495 38.965 71.1124 38.8721L70.8879 39.2032ZM71.6607 39.3543C71.929 39.3006 72.1636 39.1432 72.3138 38.9161L71.9801 38.6955C71.8891 38.8332 71.7466 38.9292 71.5822 38.9621L71.6607 39.3543ZM72.3138 38.9161C72.4637 38.6893 72.5171 38.4129 72.4636 38.1453L72.0713 38.2237C72.1044 38.3888 72.0713 38.5575 71.9801 38.6955L72.3138 38.9161ZM72.4634 38.1445C72.0774 36.2517 71.5015 34.4276 70.767 32.691L70.3986 32.8468C71.1232 34.5599 71.691 36.3586 72.0715 38.2245L72.4634 38.1445ZM70.7671 32.6911C69.2978 29.2142 67.1689 26.0862 64.5423 23.4563L64.2592 23.739C66.8503 26.3332 68.9498 29.4183 70.3986 32.8468L70.7671 32.6911ZM64.5422 23.4563C61.9154 20.8295 58.7843 18.7005 55.3073 17.2314L55.1516 17.5998C58.5803 19.0485 61.6684 21.1482 64.2593 23.7391L64.5422 23.4563ZM55.3074 17.2314C53.5708 16.4969 51.7468 15.9211 49.8539 15.535L49.774 15.9269C51.6398 16.3075 53.4385 16.8753 55.1516 17.5998L55.3074 17.2314ZM49.8532 15.5348C49.7195 15.5081 49.5842 15.5079 49.4521 15.5351L49.5328 15.9268C49.6109 15.9108 49.692 15.9105 49.7747 15.9271L49.8532 15.5348ZM40.5605 26.8305L40.5636 26.8336L40.8464 26.5507L40.8433 26.5476L40.5605 26.8305ZM40.7078 26.4922C40.4337 26.4883 40.1716 26.5964 39.9793 26.7887L40.2622 27.0716C40.379 26.9548 40.5374 26.8898 40.7022 26.8921L40.7078 26.4922ZM39.9793 26.7887C39.7883 26.9797 39.6766 27.2404 39.6766 27.5144H40.0766C40.0766 27.3494 40.1441 27.1897 40.2622 27.0716L39.9793 26.7887ZM39.6766 27.5144V31.8202H40.0766V27.5144H39.6766ZM39.812 31.6309C39.2603 31.819 38.7267 32.0387 38.2116 32.2931L38.3887 32.6517C38.8874 32.4054 39.4048 32.1923 39.9411 32.0095L39.812 31.6309ZM38.4416 32.3311L35.4 29.2863L35.117 29.569L38.1586 32.6138L38.4416 32.3311ZM35.3999 29.2863C35.2076 29.0939 34.9464 28.9866 34.6743 28.9866V29.3866C34.8412 29.3866 35.0003 29.4524 35.1171 29.5691L35.3999 29.2863ZM34.6743 28.9866C34.4022 28.9866 34.141 29.0939 33.9487 29.2863L34.2315 29.5691C34.3483 29.4524 34.5074 29.3866 34.6743 29.3866V28.9866ZM33.9487 29.2863L29.2874 33.9476L29.5702 34.2304L34.2315 29.5691L33.9487 29.2863ZM29.2874 33.9476C29.095 34.1399 28.9877 34.4011 28.9877 34.6732H29.3877C29.3877 34.5063 29.4535 34.3471 29.5702 34.2304L29.2874 33.9476ZM28.9877 34.6732C28.9877 34.9453 29.095 35.2064 29.2874 35.3988L29.5702 35.116C29.4535 34.9992 29.3877 34.84 29.3877 34.6732H28.9877ZM29.2874 35.3988L32.329 38.4404L32.6119 38.1576L29.5702 35.116L29.2874 35.3988ZM32.2911 38.2104C32.0367 38.7256 31.8169 39.2594 31.6317 39.8119L32.011 39.939C32.1905 39.4034 32.4034 38.8863 32.6498 38.3876L32.2911 38.2104ZM31.8213 39.6755H27.5124V40.0755H31.8213V39.6755ZM27.3124 39.8755V39.8786H27.7124V39.8755H27.3124ZM27.5124 39.6786C26.9469 39.6786 26.4894 40.14 26.4933 40.7052L26.8932 40.7025C26.8909 40.3589 27.1692 40.0786 27.5124 40.0786V39.6786ZM26.4933 40.7039V47.294H26.8933V40.7039H26.4933ZM26.4933 47.2926C26.4894 47.8581 26.9468 48.3186 27.5111 48.3224L27.5138 47.9224C27.1692 47.9201 26.8909 47.6387 26.8932 47.2953L26.4933 47.2926ZM27.5124 48.3224H31.8213V47.9224H27.5124V48.3224ZM31.632 48.1869C31.8199 48.7381 32.0364 49.2717 32.2911 49.7874L32.6498 49.6103C32.4037 49.1122 32.1937 48.5948 32.0106 48.0579L31.632 48.1869ZM32.329 49.5574L29.2874 52.5991L29.5702 52.8819L32.6119 49.8403L32.329 49.5574ZM29.2874 52.5991C29.095 52.7914 28.9877 53.0526 28.9877 53.3247H29.3877C29.3877 53.1578 29.4535 52.9986 29.5702 52.8819L29.2874 52.5991ZM28.9877 53.3247C28.9877 53.5968 29.095 53.858 29.2874 54.0503L29.5702 53.7675C29.4535 53.6507 29.3877 53.4915 29.3877 53.3247H28.9877ZM29.2874 54.0503L33.9487 58.7116L34.2315 58.4288L29.5702 53.7675L29.2874 54.0503ZM33.9487 58.7116C34.141 58.904 34.4022 59.0113 34.6743 59.0113V58.6113C34.5074 58.6113 34.3483 58.5455 34.2315 58.4288L33.9487 58.7116ZM34.6743 59.0113C34.9464 59.0113 35.2076 58.904 35.3999 58.7116L35.1171 58.4288C35.0003 58.5455 34.8412 58.6113 34.6743 58.6113V59.0113ZM35.3999 58.7116L38.4416 55.67L38.1587 55.3871L35.1171 58.4288L35.3999 58.7116ZM38.2116 55.7079C38.7267 55.9623 39.2603 56.1819 39.812 56.3701L39.9411 55.9915C39.4048 55.8086 38.8874 55.5955 38.3887 55.3492L38.2116 55.7079ZM39.6766 56.1808V60.4897H40.0766V56.1808H39.6766ZM40.0766 60.4897V60.4866H39.6766V60.4897H40.0766ZM39.6766 60.4879C39.6804 61.0522 40.1409 61.5096 40.7064 61.5057L40.7036 61.1057C40.3603 61.1081 40.0789 60.8298 40.0766 60.4852L39.6766 60.4879ZM40.705 61.5057H47.2951V61.1057H40.705V61.5057ZM47.2937 61.5057C47.8589 61.5096 48.3204 61.0522 48.3204 60.4866H47.9204C47.9204 60.8298 47.64 61.1081 47.2965 61.1057L47.2937 61.5057ZM48.3204 60.4866V56.1777H47.9204V60.4866H48.3204ZM48.185 56.367C48.7367 56.1789 49.2703 55.9592 49.7854 55.7048L49.6083 55.3461C49.1096 55.5925 48.5922 55.8055 48.0559 55.9884L48.185 56.367ZM49.5555 55.6669L52.6002 58.7116L52.883 58.4287L49.8383 55.384L49.5555 55.6669ZM52.6002 58.7116C52.7925 58.904 53.0537 59.0113 53.3258 59.0113V58.6113C53.1589 58.6113 52.9997 58.5455 52.883 58.4287L52.6002 58.7116ZM53.3258 59.0113C53.5979 59.0113 53.8591 58.904 54.0514 58.7116L53.7686 58.4287C53.6519 58.5455 53.4927 58.6113 53.3258 58.6113V59.0113ZM54.0514 58.7116L58.7127 54.0503L58.4299 53.7675L53.7686 58.4287L54.0514 58.7116ZM58.7127 54.0503C58.9051 53.8579 59.0124 53.5968 59.0124 53.3247H58.6124C58.6124 53.4915 58.5466 53.6507 58.4299 53.7675L58.7127 54.0503ZM59.0124 53.3247C59.0124 53.0526 58.9051 52.7914 58.7127 52.5991L58.4299 52.8819C58.5466 52.9986 58.6124 53.1578 58.6124 53.3247H59.0124ZM58.7127 52.5991L55.6711 49.5574L55.3882 49.8403L58.4299 52.8819L58.7127 52.5991ZM55.709 49.7874C55.9634 49.2723 56.1832 48.7384 56.3684 48.186L55.9891 48.0588C55.8096 48.5944 55.5967 49.1116 55.3503 49.6103L55.709 49.7874ZM56.1788 48.3224H60.4877V47.9224H56.1788V48.3224ZM60.4877 47.9224H60.4846V48.3224H60.4877V47.9224ZM60.4846 48.3224C60.7586 48.3224 61.0192 48.2106 61.2102 48.0196L60.9274 47.7368C60.8093 47.8549 60.6495 47.9224 60.4846 47.9224V48.3224ZM61.2102 48.0196C61.4025 47.8273 61.5107 47.5653 61.5068 47.2912L61.1068 47.2968C61.1092 47.4616 61.0442 47.62 60.9274 47.7368L61.2102 48.0196ZM61.5068 47.294V40.7039H61.1068V47.294H61.5068ZM61.5068 40.7068C61.5107 40.435 61.402 40.1739 61.2116 39.9797L60.926 40.2597C61.0447 40.3808 61.1091 40.5401 61.1068 40.7011L61.5068 40.7068ZM61.2102 39.9783C61.0179 39.7859 60.7567 39.6786 60.4846 39.6786V40.0786C60.6514 40.0786 60.8106 40.1444 60.9274 40.2611L61.2102 39.9783ZM60.4846 39.6786H56.1757V40.0786H60.4846V39.6786ZM56.365 39.8141C56.1771 39.2629 55.9606 38.7293 55.7059 38.2136L55.3472 38.3907C55.5933 38.8888 55.8033 39.4062 55.9864 39.9431L56.365 39.8141ZM55.668 38.4436L58.7127 35.3989L58.4299 35.116L55.3851 38.1607L55.668 38.4436ZM58.7127 35.3989C58.9051 35.2065 59.0124 34.9453 59.0124 34.6732H58.6124C58.6124 34.8401 58.5466 34.9993 58.4299 35.116L58.7127 35.3989ZM59.0124 34.6732C59.0124 34.4012 58.9051 34.14 58.7127 33.9476L58.4299 34.2304C58.5466 34.3472 58.6124 34.5064 58.6124 34.6732H59.0124ZM58.7127 33.9476L54.0514 29.2863L53.7686 29.5692L58.4299 34.2304L58.7127 33.9476ZM54.0514 29.2863C53.8591 29.094 53.5979 28.9866 53.3258 28.9866V29.3866C53.4926 29.3866 53.6518 29.4524 53.7686 29.5692L54.0514 29.2863ZM53.3258 28.9866C53.0537 28.9866 52.7925 29.094 52.6002 29.2863L52.883 29.5692C52.9997 29.4524 53.1589 29.3866 53.3258 29.3866V28.9866ZM52.6002 29.2863L49.5585 32.3279L49.8414 32.6108L52.883 29.5692L52.6002 29.2863ZM49.7885 32.2901C49.2734 32.0356 48.7398 31.816 48.188 31.6279L48.059 32.0065C48.5952 32.1893 49.1127 32.4024 49.6114 32.6487L49.7885 32.2901ZM48.3235 31.8172V27.5113H47.9235V31.8172H48.3235ZM47.9821 27.3699L47.979 27.373L48.2618 27.6558L48.2649 27.6528L47.9821 27.3699ZM48.3204 27.5144C48.3204 27.2424 48.2131 26.9812 48.0207 26.7888L47.7379 27.0716C47.8546 27.1884 47.9204 27.3476 47.9204 27.5144H48.3204ZM48.0193 26.7874C47.8251 26.597 47.5641 26.4883 47.2923 26.4922L47.298 26.8922C47.4589 26.8899 47.6182 26.9543 47.7393 27.073L48.0193 26.7874ZM47.2952 26.4922L40.702 26.4891L40.7018 26.8891L47.295 26.8922L47.2952 26.4922ZM41.5241 28.5397H46.4729V28.1397H41.5241V28.5397ZM46.2729 28.3397V32.3611H46.6729V28.3397H46.2729ZM46.2729 32.3611C46.2729 32.8201 46.5754 33.228 47.0225 33.3514L47.1288 32.9658C46.8588 32.8913 46.6729 32.6439 46.6729 32.3611H46.2729ZM47.0211 33.351C47.8557 33.5877 48.6512 33.9216 49.3953 34.3377L49.5905 33.9886C48.82 33.5577 47.9957 33.2116 47.1302 32.9662L47.0211 33.351ZM49.3955 34.3378C49.7949 34.5606 50.2949 34.4916 50.6181 34.1646L50.3336 33.8834C50.1374 34.0819 49.8337 34.1242 49.5903 33.9885L49.3955 34.3378ZM50.6172 34.1655L53.4641 31.3186L53.1813 31.0357L50.3344 33.8826L50.6172 34.1655ZM53.1813 31.3186L56.6804 34.8176L56.9632 34.5348L53.4641 31.0357L53.1813 31.3186ZM56.6804 34.5348L53.8335 37.3817L54.1163 37.6645L56.9632 34.8176L56.6804 34.5348ZM53.8343 37.3809C53.5073 37.704 53.4384 38.204 53.6611 38.6035L54.0105 38.4087C53.8747 38.1652 53.917 37.8615 54.1155 37.6654L53.8343 37.3809ZM53.6613 38.6037C54.0773 39.3478 54.4113 40.1433 54.648 40.9779L55.0328 40.8687C54.7873 40.0033 54.4412 39.179 54.0104 38.4085L53.6613 38.6037ZM54.6476 40.9765C54.7709 41.4236 55.1788 41.726 55.6379 41.726V41.326C55.3551 41.326 55.1077 41.1401 55.0332 40.8701L54.6476 40.9765ZM55.6379 41.726H59.6593V41.326H55.6379V41.726ZM59.4593 41.526V46.4748H59.8593V41.526H59.4593ZM59.6593 46.2748H55.6379V46.6748H59.6593V46.2748ZM55.8379 46.4748V46.4717H55.4379V46.4748H55.8379ZM55.6379 46.2717C55.1792 46.2717 54.7751 46.5705 54.6481 47.0131L55.0326 47.1235C55.1096 46.8551 55.3547 46.6717 55.6379 46.6717V46.2717ZM54.648 47.0137C54.4112 47.8485 54.0772 48.6471 53.6613 49.391L54.0104 49.5862C54.4413 48.8155 54.7874 47.9881 55.0328 47.1229L54.648 47.0137ZM53.6358 49.4886V49.4917H54.0358V49.4886H53.6358ZM53.6611 49.3943C53.4384 49.7938 53.5073 50.2937 53.8343 50.6169L54.1155 50.3324C53.917 50.1363 53.8747 49.8325 54.0105 49.5891L53.6611 49.3943ZM53.8335 50.6161L56.6804 53.463L56.9632 53.1801L54.1163 50.3332L53.8335 50.6161ZM56.6804 53.1801L53.1813 56.6792L53.4641 56.962L56.9632 53.463L56.6804 53.1801ZM53.4641 56.6792L50.6172 53.8323L50.3344 54.1152L53.1813 56.962L53.4641 56.6792ZM50.2758 53.9737V53.9768H50.6758V53.9737H50.2758ZM50.6181 53.8362C50.2959 53.5103 49.7962 53.4365 49.3955 53.66L49.5903 54.0093C49.8325 53.8742 50.1364 53.9179 50.3336 54.1174L50.6181 53.8362ZM49.3953 53.6601C48.6511 54.0762 47.8559 54.41 47.0217 54.6435L47.1296 55.0287C47.9955 54.7863 48.82 54.4401 49.5905 54.0092L49.3953 53.6601ZM46.8757 54.8361V54.8392H47.2757V54.8361H46.8757ZM47.022 54.6465C46.5805 54.7694 46.2729 55.1724 46.2729 55.6305H46.6729C46.6729 55.3529 46.8599 55.1068 47.1293 55.0319L47.022 54.6465ZM46.2729 55.6305V59.6581H46.6729V55.6305H46.2729ZM46.4729 59.4581H41.5241V59.8581H46.4729V59.4581ZM41.7241 59.6581V55.6305H41.3241V59.6581H41.7241ZM41.7241 55.6305C41.7241 55.174 41.4245 54.7739 40.9863 54.6471L40.875 55.0313C41.1416 55.1085 41.3241 55.3514 41.3241 55.6305H41.7241ZM40.9852 54.6468C40.15 54.4099 39.3515 54.0789 38.608 53.6632L38.4127 54.0123C39.1838 54.4434 40.0112 54.7863 40.8761 55.0316L40.9852 54.6468ZM38.6518 53.6963L38.6487 53.6932L38.3658 53.9761L38.3689 53.9791L38.6518 53.6963ZM38.6047 53.66C38.2041 53.4366 37.7013 53.5101 37.379 53.8362L37.6635 54.1174C37.8605 53.9181 38.1675 53.8741 38.4099 54.0093L38.6047 53.66ZM37.3798 53.8354L34.5329 56.6823L34.8158 56.9651L37.6626 54.1182L37.3798 53.8354ZM34.8158 56.6823L31.3167 53.1832L31.0338 53.466L34.5329 56.9651L34.8158 56.6823ZM31.3167 53.466L34.1636 50.6192L33.8807 50.3363L31.0338 53.1832L31.3167 53.466ZM34.2221 50.4777V50.4746H33.8221V50.4777H34.2221ZM34.1627 50.6169C34.4887 50.2948 34.5625 49.795 34.339 49.3943L33.9896 49.5891C34.1247 49.8313 34.081 50.1352 33.8816 50.3324L34.1627 50.6169ZM34.3389 49.3941C33.9229 48.6501 33.5889 47.8516 33.3522 47.0168L32.9673 47.126C33.2128 47.9912 33.5588 48.8186 33.9898 49.5893L34.3389 49.3941ZM33.3598 47.0714V47.0683H32.9598V47.0714H33.3598ZM33.3519 47.0127C33.225 46.5743 32.8252 46.2756 32.3701 46.2717L32.3668 46.6717C32.6473 46.6741 32.8905 46.8576 32.9676 47.1239L33.3519 47.0127ZM32.3684 46.2717H28.3409V46.6717H32.3684V46.2717ZM28.5409 46.4717V41.523H28.1409V46.4717H28.5409ZM28.3409 41.723H32.3684V41.323H28.3409V41.723ZM32.1684 41.523V41.526H32.5684V41.523H32.1684ZM32.3684 41.726C32.8265 41.726 33.2296 41.4185 33.3524 40.9769L32.9671 40.8697C32.8921 41.139 32.646 41.326 32.3684 41.326V41.726ZM33.3522 40.9779C33.589 40.1428 33.9199 39.3474 34.3358 38.6037L33.9867 38.4085C33.5556 39.1793 33.2127 40.0037 32.9673 40.8687L33.3522 40.9779ZM34.1612 38.7061H34.1643V38.3061H34.1612V38.7061ZM34.339 38.6035C34.5625 38.2027 34.4887 37.703 34.1627 37.3809L33.8816 37.6654C34.0811 37.8625 34.1247 38.1665 33.9897 38.4087L34.339 38.6035ZM34.1636 37.3817L31.3167 34.5348L31.0338 34.8177L33.8807 37.6645L34.1636 37.3817ZM31.3167 34.8177L34.8158 31.3186L34.5329 31.0357L31.0338 34.5348L31.3167 34.8177ZM34.5329 31.3186L37.3798 34.1655L37.6626 33.8826L34.8158 31.0357L34.5329 31.3186ZM37.379 34.1646C37.7023 34.4918 38.2054 34.5605 38.6047 34.3378L38.4099 33.9885C38.1662 34.1243 37.8594 34.0818 37.6635 33.8835L37.379 34.1646ZM38.6049 34.3377C39.3488 33.9217 40.1474 33.5877 40.9821 33.351L40.873 32.9662C40.0077 33.2116 39.1803 33.5576 38.4097 33.9886L38.6049 34.3377ZM40.9276 33.3586H40.9307V32.9586H40.9276V33.3586ZM40.9863 33.3507C41.4245 33.2238 41.728 32.8203 41.7241 32.3594L41.3241 32.3628C41.3265 32.6437 41.1416 32.8893 40.875 32.9665L40.9863 33.3507ZM41.7241 32.3611L41.7241 28.3397L41.3241 28.3397L41.3241 32.3611L41.7241 32.3611ZM44.0031 36.3772C39.8066 36.3772 36.3785 39.7954 36.3785 43.9926H36.7785C36.7785 40.017 40.0269 36.7772 44.0031 36.7772V36.3772ZM36.3785 43.9926C36.3785 48.1894 39.8032 51.6173 44.0031 51.6173V51.2173C40.0242 51.2173 36.7785 47.9686 36.7785 43.9926H36.3785ZM44.0031 51.6173C48.2003 51.6173 51.6186 48.1923 51.6186 43.9926H51.2186C51.2186 47.9719 47.9788 51.2173 44.0031 51.2173V51.6173ZM51.6186 43.9926C51.6186 39.7957 48.2 36.3772 44.0031 36.3772V36.7772C47.9791 36.7772 51.2186 40.0167 51.2186 43.9926H51.6186ZM44.0031 38.4247C47.0889 38.4247 49.5711 40.9069 49.5711 43.9926H49.9711C49.9711 40.686 47.3098 38.0247 44.0031 38.0247V38.4247ZM49.5711 43.9926C49.5711 47.0786 47.0886 49.5667 44.0031 49.5667V49.9667C47.3101 49.9667 49.9711 47.299 49.9711 43.9926H49.5711ZM44.0031 49.5667C40.9174 49.5667 38.429 47.0783 38.429 43.9926H38.029C38.029 47.2992 40.6965 49.9667 44.0031 49.9667V49.5667ZM38.429 43.9926C38.429 40.9072 40.9172 38.4247 44.0031 38.4247V38.0247C40.6968 38.0247 38.029 40.6857 38.029 43.9926H38.429ZM20.9191 40.5006C20.6497 40.5006 20.3887 40.6082 20.1966 40.8003L20.4794 41.0831C20.5964 40.9661 20.7557 40.9006 20.9191 40.9006V40.5006ZM20.1966 40.8003C20.0042 40.9926 19.8969 41.2538 19.8969 41.5259H20.2969C20.2969 41.3591 20.3627 41.1999 20.4794 41.0831L20.1966 40.8003ZM19.8969 41.5259C19.8969 41.798 20.0042 42.0592 20.1966 42.2515L20.4794 41.9687C20.3627 41.852 20.2969 41.6928 20.2969 41.5259H19.8969ZM20.1968 42.2517L21.2632 43.3151L21.5456 43.0319L20.4792 41.9685L20.1968 42.2517ZM21.4044 42.9735H6.91082V43.3735H21.4044V42.9735ZM6.91082 42.9735C6.63875 42.9735 6.37756 43.0808 6.1852 43.2732L6.46804 43.556C6.58478 43.4393 6.74397 43.3735 6.91082 43.3735V42.9735ZM6.18663 43.2717C5.99259 43.4619 5.88624 43.7232 5.88245 43.9929L6.28241 43.9985C6.28479 43.8292 6.35155 43.6702 6.46661 43.5574L6.18663 43.2717ZM5.88243 43.9957C5.88243 44.2681 5.98993 44.5284 6.18072 44.723L6.46635 44.443C6.34803 44.3223 6.28243 44.1622 6.28243 43.9957H5.88243ZM6.18352 44.7258C6.37812 44.9166 6.63841 45.0241 6.91083 45.0241V44.6241C6.74432 44.6241 6.58423 44.5585 6.46354 44.4402L6.18352 44.7258ZM6.91083 45.0241H21.4076V44.6241H6.91083V45.0241ZM21.2664 44.6825L20.1969 45.7489L20.4793 46.0322L21.5488 44.9657L21.2664 44.6825ZM20.5381 45.8906V45.8875H20.1381V45.8906H20.5381ZM20.1966 45.746C20.0043 45.9384 19.897 46.1996 19.897 46.4717H20.297C20.297 46.3048 20.3628 46.1456 20.4795 46.0289L20.1966 45.746ZM19.897 46.4717C19.897 46.7437 20.0043 47.0049 20.1966 47.1973L20.4795 46.9145C20.3628 46.7977 20.297 46.6385 20.297 46.4717H19.897ZM20.1973 47.198C20.5968 47.5936 21.2416 47.5935 21.6411 47.198L21.3596 46.9138C21.116 47.155 20.7223 47.155 20.4788 46.9138L20.1973 47.198ZM21.6418 47.1973L24.1177 44.7214L23.8348 44.4385L21.3589 46.9145L21.6418 47.1973ZM24.1177 44.7214C24.5173 44.3218 24.5173 43.6759 24.1177 43.2763L23.8348 43.5591C24.0782 43.8025 24.0782 44.1952 23.8348 44.4385L24.1177 44.7214ZM24.1177 43.2763L21.6418 40.8003L21.3589 41.0832L23.8348 43.5591L24.1177 43.2763ZM21.6418 40.8003C21.45 40.6085 21.192 40.5006 20.9191 40.5006V40.9006C21.0852 40.9006 21.2416 40.9659 21.3589 41.0832L21.6418 40.8003ZM67.0808 40.5006C66.8079 40.5006 66.5501 40.6085 66.3582 40.8003L66.6411 41.0831C66.7584 40.9658 66.9147 40.9006 67.0808 40.9006V40.5006ZM66.3583 40.8002L63.8793 43.2761L64.162 43.5591L66.641 41.0832L66.3583 40.8002ZM63.8786 43.2769C63.483 43.6763 63.483 44.3212 63.8785 44.7206L64.1628 44.4392C63.9216 44.1956 63.9216 43.8019 64.1628 43.5584L63.8786 43.2769ZM63.8793 44.7214L66.3583 47.1973L66.641 46.9143L64.162 44.4384L63.8793 44.7214ZM66.3589 47.1979C66.7583 47.5935 67.4001 47.5935 67.7995 47.1979L67.518 46.9137C67.2746 47.1549 66.8839 47.1549 66.6404 46.9137L66.3589 47.1979ZM67.8002 47.1972C67.9912 47.0062 68.103 46.7456 68.103 46.4716H67.703C67.703 46.6366 67.6354 46.7963 67.5174 46.9144L67.8002 47.1972ZM68.103 46.4716C68.103 46.1976 67.9912 45.937 67.8002 45.746L67.5174 46.0288C67.6354 46.1469 67.703 46.3067 67.703 46.4716H68.103ZM67.8004 45.7462L66.737 44.6798L66.4538 44.9622L67.5171 46.0286L67.8004 45.7462ZM66.5954 45.021H81.0953V44.621H66.5954V45.021ZM80.8953 44.821V44.8241H81.2953V44.821H80.8953ZM81.0982 45.024C81.369 45.0202 81.626 44.9132 81.8179 44.7213L81.5351 44.4384C81.4178 44.5557 81.2606 44.6217 81.0925 44.6241L81.0982 45.024ZM81.8179 44.7213C82.0103 44.5289 82.1176 44.2677 82.1176 43.9957H81.7176C81.7176 44.1625 81.6518 44.3217 81.535 44.4384L81.8179 44.7213ZM82.1176 43.9943C82.1137 43.4305 81.6605 42.9772 81.0967 42.9734L81.094 43.3734C81.439 43.3758 81.7152 43.652 81.7176 43.997L82.1176 43.9943ZM81.0953 42.9734H66.5986V43.3734H81.0953V42.9734ZM66.7402 43.3146L67.8004 42.2513L67.5171 41.9688L66.4569 43.0322L66.7402 43.3146ZM67.8002 42.2515C67.9912 42.0605 68.1029 41.7998 68.1029 41.5258H67.7029C67.7029 41.6908 67.6354 41.8505 67.5173 41.9686L67.8002 42.2515ZM68.1029 41.5258C68.1029 41.2519 67.9912 40.9912 67.8002 40.8002L67.5173 41.0831C67.6354 41.2012 67.7029 41.3609 67.7029 41.5258H68.1029ZM67.8002 40.8002C67.6086 40.6087 67.3509 40.5006 67.0808 40.5006V40.9006C67.2434 40.9006 67.3998 40.9655 67.5173 41.0831L67.8002 40.8002ZM46.6027 41.1285C46.3553 41.1439 46.1203 41.2519 45.9467 41.4293L46.2327 41.709C46.3373 41.6021 46.4795 41.537 46.6277 41.5277L46.6027 41.1285ZM45.9483 41.4278L43.0334 44.3426L43.3163 44.6255L46.2311 41.7106L45.9483 41.4278ZM43.3163 44.3426L42.7321 43.7584L42.4492 44.0413L43.0334 44.6255L43.3163 44.3426ZM42.7321 43.7584C42.3325 43.3588 41.6866 43.3589 41.2869 43.7584L41.5698 44.0413C41.8132 43.7979 42.2059 43.7979 42.4492 44.0413L42.7321 43.7584ZM41.2869 43.7584C41.0949 43.9505 40.9873 44.2116 40.9873 44.481H41.3873C41.3873 44.3176 41.4528 44.1583 41.5698 44.0413L41.2869 43.7584ZM40.9873 44.481C40.9873 44.753 41.0946 45.0142 41.2869 45.2066L41.5698 44.9238C41.453 44.807 41.3873 44.6478 41.3873 44.481H40.9873ZM41.2869 45.2066L42.4492 46.3689L42.7321 46.086L41.5698 44.9238L41.2869 45.2066ZM42.4492 46.3689C42.6402 46.5599 42.9009 46.6716 43.1748 46.6716V46.2716C43.0099 46.2716 42.8502 46.2041 42.7321 46.086L42.4492 46.3689ZM43.1748 46.6716C43.4488 46.6716 43.7095 46.5599 43.9005 46.3689L43.6176 46.086C43.4995 46.2041 43.3398 46.2716 43.1748 46.2716V46.6716ZM43.9005 46.3689L47.3996 42.8698L47.1167 42.5869L43.6176 46.086L43.9005 46.3689ZM47.0581 42.7284V42.7315H47.4581V42.7284H47.0581ZM47.3996 42.8729C47.7991 42.4733 47.7991 41.8274 47.3996 41.4278L47.1167 41.7106C47.3601 41.954 47.3601 42.3467 47.1167 42.59L47.3996 42.8729ZM47.3996 41.4278C47.1896 41.2178 46.8978 41.1055 46.5996 41.1287L46.6307 41.5275C46.8086 41.5136 46.9867 41.5806 47.1167 41.7106L47.3996 41.4278ZM16.7401 48.6434C16.6084 48.6163 16.4697 48.6163 16.338 48.6434L16.4186 49.0352C16.4971 49.0191 16.581 49.0191 16.6594 49.0352L16.7401 48.6434ZM16.3375 48.6435C15.7837 48.7589 15.4313 49.3007 15.5424 49.8525L15.9345 49.7736C15.8664 49.4351 16.0827 49.1052 16.4191 49.0351L16.3375 48.6435ZM15.5425 49.853C15.9285 51.7455 16.4981 53.5696 17.2327 55.3065L17.6011 55.1507C16.8767 53.438 16.315 51.6393 15.9344 49.7731L15.5425 49.853ZM17.2327 55.3064C18.7019 58.7834 20.8308 61.9113 23.4575 64.5412L23.7405 64.2585C21.1495 61.6643 19.0499 58.5793 17.6011 55.1508L17.2327 55.3064ZM23.4576 64.5413C26.0844 67.1681 29.2155 69.2971 32.6924 70.7662L32.8481 70.3977C29.4194 68.949 26.3313 66.8494 23.7404 64.2584L23.4576 64.5413ZM32.6924 70.7662C34.4293 71.5008 36.2534 72.0704 38.1458 72.4564L38.2258 72.0644C36.3595 71.6838 34.5609 71.1221 32.8482 70.3978L32.6924 70.7662ZM38.145 72.4562C38.699 72.5716 39.2402 72.2139 39.3553 71.6614L38.9637 71.5798C38.8934 71.9174 38.5629 72.1347 38.2266 72.0646L38.145 72.4562ZM39.3555 71.6603C39.4093 71.3954 39.3557 71.1157 39.2058 70.889L38.8721 71.1095C38.9633 71.2475 38.9963 71.4192 38.9635 71.5808L39.3555 71.6603ZM39.2058 70.889C39.0559 70.6622 38.8216 70.5047 38.5564 70.4509L38.4768 70.8429C38.6382 70.8756 38.7809 70.9716 38.8721 71.1095L39.2058 70.889ZM38.5566 70.4509C36.7985 70.0919 35.1081 69.5643 33.4944 68.8801L33.3383 69.2484C34.9764 69.9429 36.6923 70.4785 38.4766 70.8428L38.5566 70.4509ZM33.4942 68.88C30.2638 67.5148 27.3579 65.5297 24.9119 63.0869L24.6292 63.3699C27.1106 65.848 30.0592 67.8626 33.3385 69.2485L33.4942 68.88ZM24.912 63.0869C22.4692 60.6442 20.4841 57.7354 19.1189 54.5047L18.7504 54.6604C20.1362 57.9398 22.1509 60.8915 24.6291 63.3698L24.912 63.0869ZM19.1188 54.5045C18.4347 52.8908 17.9069 51.2004 17.548 49.4423L17.1561 49.5223C17.5204 51.3066 18.056 53.0225 18.7505 54.6606L19.1188 54.5045ZM17.5478 49.4413C17.4635 49.0391 17.1455 48.7199 16.7369 48.6428L16.6627 49.0359C16.9093 49.0824 17.1045 49.2764 17.1563 49.5233L17.5478 49.4413ZM71.263 48.6428C70.8556 48.7197 70.5327 49.0381 70.4517 49.4431L70.8439 49.5215C70.8928 49.2773 71.0892 49.0827 71.3371 49.0359L71.263 48.6428ZM70.4519 49.4423C70.0929 51.2004 69.5652 52.8909 68.884 54.5047L69.2526 54.6603C69.9439 53.0223 70.4795 51.3065 70.8438 49.5223L70.4519 49.4423ZM68.8841 54.5046C67.5188 57.7353 65.5398 60.6411 63.0971 63.087L63.3801 63.3697C65.8584 60.8881 67.8668 57.9395 69.2525 54.6604L68.8841 54.5046ZM63.0972 63.0869C60.6545 65.5296 57.7425 67.5148 54.5148 68.88L54.6707 69.2484C57.9469 67.8626 60.9017 65.8481 63.38 63.3698L63.0972 63.0869ZM54.5147 68.8801C52.9011 69.5642 51.2046 70.0919 49.4463 70.4509L49.5264 70.8428C51.3105 70.4785 53.0325 69.9429 54.6708 69.2484L54.5147 68.8801ZM49.4863 70.4469H49.4833V70.8469H49.4863V70.4469ZM49.4435 70.4508C49.1783 70.5047 48.9439 70.6621 48.794 70.8889L49.1277 71.1095C49.2189 70.9716 49.3617 70.8756 49.523 70.8429L49.4435 70.4508ZM48.794 70.8889C48.6441 71.1157 48.5906 71.3954 48.6443 71.6603L49.0363 71.5808C49.0035 71.4191 49.0365 71.2475 49.1277 71.1095L48.794 70.8889ZM48.6445 71.6613C48.7596 72.2139 49.3008 72.5716 49.8548 72.4562L49.7732 72.0646C49.4369 72.1346 49.1065 71.9174 49.0361 71.5797L48.6445 71.6613ZM49.854 72.4563C51.7465 72.0704 53.5705 71.5008 55.3075 70.7661L55.1517 70.3977C53.439 71.1221 51.6403 71.6838 49.7741 72.0644L49.854 72.4563ZM55.3074 70.7662C58.7843 69.2969 61.9123 67.168 64.5422 64.5413L64.2595 64.2583C61.6653 66.8494 58.5802 68.9489 55.1517 70.3977L55.3074 70.7662ZM64.5423 64.5413C67.1691 61.9145 69.298 58.7833 70.7672 55.3064L70.3987 55.1507C68.95 58.5794 66.8503 61.6675 64.2594 64.2584L64.5423 64.5413ZM70.7671 55.3065C71.5016 53.5699 72.0775 51.7459 72.4635 49.853L72.0716 49.773C71.691 51.6389 71.1233 53.4376 70.3987 55.1507L70.7671 55.3065ZM72.4637 49.8522C72.5172 49.5846 72.4637 49.3082 72.3138 49.0814L71.9802 49.302C72.0714 49.44 72.1045 49.6087 72.0714 49.7738L72.4637 49.8522ZM72.3125 49.0795C72.1601 48.8546 71.9268 48.6972 71.6613 48.6433L71.5818 49.0353C71.7428 49.068 71.8866 49.1641 71.9815 49.3039L72.3125 49.0795ZM71.6619 48.6434C71.5302 48.6163 71.3914 48.6163 71.2597 48.6434L71.3404 49.0352C71.4189 49.0191 71.5027 49.0191 71.5812 49.0352L71.6619 48.6434ZM43.9999 63.5816C43.7305 63.5816 43.4695 63.6892 43.2774 63.8813L43.5602 64.1642C43.6772 64.0471 43.8365 63.9816 43.9999 63.9816V63.5816ZM43.2774 63.8813L40.8014 66.3572L41.0843 66.6401L43.5602 64.1641L43.2774 63.8813ZM40.8008 66.3579C40.4052 66.7573 40.4052 67.4022 40.8008 67.8016L41.085 67.5202C40.8438 67.2766 40.8438 66.8829 41.085 66.6394L40.8008 66.3579ZM40.8014 67.8023C40.9938 67.9947 41.255 68.102 41.5271 68.102V67.702C41.3602 67.702 41.201 67.6362 41.0843 67.5195L40.8014 67.8023ZM41.5271 68.102C41.7991 68.102 42.0603 67.9947 42.2527 67.8023L41.9699 67.5195C41.8531 67.6362 41.6939 67.702 41.5271 67.702V68.102ZM42.2525 67.8025L43.3189 66.7392L43.0365 66.4559L41.9701 67.5193L42.2525 67.8025ZM42.9777 66.5976V81.088H43.3777V66.5976H42.9777ZM43.1777 80.888H43.1746V81.288H43.1777V80.888ZM42.9746 81.088C42.9746 81.3604 43.0821 81.6207 43.2729 81.8153L43.5586 81.5353C43.4402 81.4146 43.3746 81.2545 43.3746 81.088H42.9746ZM43.2757 81.8181C43.4703 82.0089 43.7306 82.1164 44.003 82.1164V81.7164C43.8365 81.7164 43.6764 81.6508 43.5557 81.5325L43.2757 81.8181ZM44.0059 82.1164C44.2767 82.1126 44.5337 82.0055 44.7256 81.8136L44.4427 81.5308C44.3255 81.648 44.1683 81.7141 44.0002 81.7164L44.0059 82.1164ZM44.7256 81.8136C44.9179 81.6213 45.0253 81.3601 45.0253 81.088H44.6253C44.6253 81.2549 44.5595 81.4141 44.4427 81.5308L44.7256 81.8136ZM45.0253 81.088V66.5944H44.6253V81.088H45.0253ZM44.6836 66.7356L45.747 67.8021L46.0302 67.5196L44.9669 66.4532L44.6836 66.7356ZM45.7472 67.8023C45.9396 67.9946 46.2008 68.102 46.4728 68.102V67.702C46.306 67.702 46.1468 67.6362 46.03 67.5194L45.7472 67.8023ZM46.4728 68.102C46.7449 68.102 47.0061 67.9946 47.1985 67.8023L46.9156 67.5194C46.7989 67.6362 46.6397 67.702 46.4728 67.702V68.102ZM47.1991 67.8016C47.5947 67.4022 47.5947 66.7573 47.1991 66.3578L46.9149 66.6393C47.1561 66.8829 47.1561 67.2766 46.9149 67.5201L47.1991 67.8016ZM47.1985 66.3572L44.7225 63.8812L44.4397 64.1641L46.9156 66.64L47.1985 66.3572ZM44.7225 63.8812C44.5304 63.6891 44.2692 63.5816 43.9999 63.5816V63.9816C44.1633 63.9816 44.3227 64.0471 44.4397 64.1641L44.7225 63.8812ZM17.4231 66.4545H17.4262V66.0545H17.4231V66.4545ZM17.4262 66.0545C17.1549 66.0545 16.8904 66.1612 16.6975 66.3541L16.9803 66.637C17.0965 66.5208 17.2586 66.4545 17.4262 66.4545V66.0545ZM16.6975 66.3541C16.5046 66.5471 16.3978 66.8116 16.3978 67.0829H16.7978C16.7978 66.9152 16.8641 66.7532 16.9803 66.637L16.6975 66.3541ZM16.3978 67.0829C16.3978 67.6489 16.8598 68.1059 17.4276 68.102L17.4249 67.702C17.0777 67.7044 16.7978 67.4256 16.7978 67.0829H16.3978ZM17.4262 68.102H18.9346V67.702H17.4262V68.102ZM18.7932 67.7606L8.5402 78.0136L8.82304 78.2964L19.076 68.0434L18.7932 67.7606ZM8.48162 78.155V78.1581H8.88162V78.155H8.48162ZM8.5402 78.0167C8.14335 78.4135 8.14431 79.0589 8.53953 79.458L8.82372 79.1765C8.58218 78.9326 8.58314 78.5394 8.82304 78.2995L8.5402 78.0167ZM8.54088 79.4593C8.93992 79.8545 9.58533 79.8555 9.98216 79.4586L9.6993 79.1758C9.45944 79.4157 9.06626 79.4167 8.82236 79.1751L8.54088 79.4593ZM9.98215 79.4586L20.2351 69.2056L19.9523 68.9228L9.69931 79.1758L9.98215 79.4586ZM19.8937 69.0642V70.5726H20.2937V69.0642H19.8937ZM20.0937 70.7726H20.0968V70.3726H20.0937V70.7726ZM19.8968 70.5698C19.893 70.8439 20.0011 71.1059 20.1934 71.2982L20.4762 71.0154C20.3594 70.8986 20.2945 70.7402 20.2968 70.5754L19.8968 70.5698ZM20.1934 71.2982C20.3841 71.489 20.6446 71.601 20.9159 71.601V71.201C20.7545 71.201 20.5946 71.1338 20.4762 71.0154L20.1934 71.2982ZM20.9159 71.601C21.1872 71.601 21.4517 71.4943 21.6447 71.3013L21.3618 71.0185C21.2456 71.1347 21.0836 71.201 20.9159 71.201V71.601ZM21.6447 71.3013C21.8376 71.1084 21.9443 70.8439 21.9443 70.5726H21.5443C21.5443 70.7403 21.478 70.9023 21.3618 71.0185L21.6447 71.3013ZM21.9443 70.5726V67.0797H21.5443V70.5726H21.9443ZM21.5443 67.0797V67.0828H21.9443V67.0797H21.5443ZM21.9443 67.0828C21.9443 66.8115 21.8376 66.547 21.6447 66.3541L21.3618 66.6369C21.478 66.7531 21.5443 66.9151 21.5443 67.0828H21.9443ZM21.6447 66.3541C21.4517 66.1611 21.1872 66.0544 20.9159 66.0544V66.4544C21.0836 66.4544 21.2456 66.5207 21.3618 66.6369L21.6447 66.3541ZM20.9159 66.0544L17.4231 66.0545L17.4231 66.4545L20.9159 66.4544L20.9159 66.0544ZM67.0745 66.4545H67.0776V66.0545H67.0745V66.4545ZM67.0776 66.0545C66.8063 66.0545 66.5418 66.1612 66.3489 66.3541L66.6317 66.637C66.7479 66.5208 66.91 66.4545 67.0776 66.4545V66.0545ZM66.3489 66.3541C66.156 66.5471 66.0492 66.8116 66.0492 67.0829H66.4492C66.4492 66.9152 66.5156 66.7532 66.6317 66.637L66.3489 66.3541ZM66.0492 67.0829V70.5758H66.4492V67.0829H66.0492ZM66.4492 70.5758V70.5727H66.0492V70.5758H66.4492ZM66.0492 70.5727C66.0492 70.844 66.156 71.1085 66.3489 71.3014L66.6317 71.0186C66.5156 70.9024 66.4492 70.7403 66.4492 70.5727H66.0492ZM66.3489 71.3014C66.5418 71.4943 66.8063 71.6011 67.0776 71.6011V71.2011C66.91 71.2011 66.7479 71.1347 66.6317 71.0186L66.3489 71.3014ZM67.0776 71.6011C67.3489 71.6011 67.6094 71.489 67.8002 71.2983L67.5173 71.0155C67.3989 71.1339 67.2391 71.2011 67.0776 71.2011V71.6011ZM67.8002 71.2983C67.9925 71.106 68.1006 70.844 68.0967 70.5699L67.6968 70.5755C67.6991 70.7403 67.6341 70.8987 67.5173 71.0155L67.8002 71.2983ZM68.0968 70.5727V69.0643H67.6968V70.5727H68.0968ZM67.7553 69.2057L78.0083 79.4587L78.2912 79.1759L68.0382 68.9229L67.7553 69.2057ZM78.009 79.4594C78.4084 79.855 79.0533 79.855 79.4527 79.4594L79.1713 79.1752C78.9277 79.4164 78.534 79.4164 78.2905 79.1752L78.009 79.4594ZM79.4541 79.458C79.8493 79.059 79.8503 78.4136 79.4534 78.0167L79.1706 78.2996C79.4105 78.5395 79.4115 78.9326 79.1699 79.1765L79.4541 79.458ZM79.4534 78.0168L69.2004 67.7638L68.9176 68.0466L79.1706 78.2996L79.4534 78.0168ZM69.059 68.1052H70.5737V67.7052H69.059V68.1052ZM70.7737 67.9052V67.9021H70.3737V67.9052H70.7737ZM70.5737 68.1021C71.1393 68.1021 71.5921 67.6443 71.5959 67.0843L71.1959 67.0816C71.1936 67.4243 70.9169 67.7021 70.5737 67.7021V68.1021ZM71.5959 67.0829C71.5959 66.8111 71.4888 66.5506 71.3007 66.3587L71.0151 66.6387C71.1299 66.7559 71.1959 66.9159 71.1959 67.0829H71.5959ZM71.2993 66.3573C71.1083 66.1663 70.8477 66.0545 70.5737 66.0545V66.4545C70.7386 66.4545 70.8984 66.5221 71.0165 66.6402L71.2993 66.3573ZM70.5737 66.0545L67.0745 66.0545L67.0745 66.4545L70.5737 66.4545L70.5737 66.0545Z" fill="black" mask="url(#path-1-outside-1_4_342)"/>
<circle cx="44" cy="44" r="5.875" fill="#DD0004"/>
<path d="M40.6518 44.0893L42.1442 45.2832C42.5591 45.6151 43.161 45.5647 43.5148 45.1684L47.3482 40.875" stroke="black"/>
</svg>
