<svg width="95" height="95" viewBox="0 0 95 95" fill="none" xmlns="http://www.w3.org/2000/svg">
<circle cx="67.5" cy="50.5" r="14.5" fill="#DD0004"/>
<path fill-rule="evenodd" clip-rule="evenodd" d="M26.923 12.8479V12.8517C32.8887 12.8517 38.1477 16.7532 39.8753 22.4618C41.603 28.1704 39.3876 34.333 34.4275 37.641H39.3233H39.3196C41.7429 37.641 44.1246 38.2912 46.2077 39.5274C47.5422 37.5162 48.1358 35.1042 47.8863 32.7036C47.8485 32.3633 47.9657 32.0231 48.2076 31.7811C48.4458 31.5392 48.7823 31.4144 49.1263 31.4447C53.5874 31.9135 57.848 29.475 59.7007 25.3883C59.8254 25.0556 60.0976 24.8023 60.4341 24.7002C60.7743 24.5982 61.1411 24.6624 61.4246 24.8704C65.0803 27.5054 70.0102 27.5054 73.6655 24.8704C73.9453 24.6738 74.2931 24.6095 74.622 24.7002C74.9509 24.7872 75.2231 25.0178 75.363 25.324C77.1965 29.441 81.4685 31.9097 85.9518 31.4484C86.2883 31.4106 86.6286 31.5278 86.8705 31.7698C87.1162 32.0079 87.2372 32.3444 87.207 32.6884C86.9764 34.8736 87.4452 37.0777 88.5453 38.9792V38.9868C89.6303 40.8695 91.2824 42.3666 93.2634 43.2626C93.5961 43.3873 93.8494 43.6558 93.9515 43.996C94.0535 44.3325 93.993 44.6992 93.7851 44.9865C91.15 48.6422 91.15 53.572 93.7851 57.2273H93.7813C93.9779 57.5033 94.0422 57.8549 93.9552 58.1838C93.8645 58.5089 93.6377 58.7811 93.3277 58.9248C89.2144 60.7583 86.7457 65.0303 87.207 69.5107C87.2448 69.851 87.1238 70.1912 86.8856 70.4332C86.6437 70.6789 86.3072 70.7999 85.967 70.7696C84.9538 70.6638 83.9255 70.7054 82.9237 70.8982V92.8665H82.9199C82.9199 93.2748 82.7006 93.6491 82.349 93.8495C81.9937 94.0498 81.5589 94.046 81.2111 93.8381L67.5445 85.6533L53.9573 93.7889H53.9611C53.6133 94.0347 53.1597 94.0687 52.7816 93.8759C52.4035 93.6793 52.1653 93.2899 52.1653 92.8665V70.8942C51.8326 70.83 52.0292 70.8942 51.7154 70.8942H2.13418C1.50661 70.8942 1 70.3876 1 69.7601V51.1752H1.00378V51.1638C1.03024 47.5686 2.46683 44.1283 5.00357 41.584C7.52522 39.0511 10.9541 37.6334 14.5306 37.641H19.4264H19.4226C14.4625 34.3368 12.2471 28.1707 13.9748 22.4618C15.7026 16.7533 20.961 12.8517 26.923 12.8479ZM25.7888 2.1304V2.13418C25.7888 1.50661 26.2992 1 26.923 1C27.5506 1 28.0572 1.50659 28.0572 2.13418V6.83716C28.0572 7.46095 27.5506 7.97134 26.923 7.97134C26.2992 7.97134 25.7888 7.46098 25.7888 6.83716V2.1304ZM2.6783 27.5132H7.38131C8.00889 27.5132 8.5155 27.0066 8.5155 26.379C8.5155 25.7552 8.0089 25.2448 7.38131 25.2448H2.6783C2.05073 25.2448 1.54412 25.7552 1.54412 26.379C1.54412 27.0066 2.05071 27.5132 2.6783 27.5132ZM8.97666 10.0355L12.3035 13.3623C12.7496 13.7933 13.4566 13.7858 13.8951 13.3472C14.3299 12.9125 14.3374 12.2055 13.9065 11.7594L10.5796 8.43257H10.5834C10.1373 8.00537 9.4303 8.00916 8.99179 8.4477C8.55324 8.88623 8.54946 9.5932 8.97666 10.0355ZM51.1677 25.2447H46.4684C45.8409 25.2447 45.3343 25.755 45.3343 26.3788C45.3343 27.0064 45.8408 27.513 46.4684 27.513H51.1715C51.7952 27.513 52.3056 27.0064 52.3056 26.3788C52.3056 25.755 51.7953 25.2447 51.1715 25.2447H51.1677ZM43.2625 8.43279L39.9357 11.7596H39.9432C39.5047 12.202 39.5085 12.9165 39.947 13.355C40.3893 13.7973 41.1038 13.8011 41.5461 13.3625L44.873 10.0357H44.8692C45.3002 9.59337 45.2964 8.88642 44.8579 8.4479C44.4194 8.00936 43.7124 8.00558 43.2663 8.43278L43.2625 8.43279ZM68.6184 40.9261H68.6259C68.4747 40.4573 68.04 40.1398 67.5485 40.1398C67.057 40.136 66.6222 40.4535 66.471 40.9186L64.5127 46.99L58.2106 46.9787H58.2068C57.704 46.9447 57.2352 47.2471 57.0613 47.7234C56.8912 48.196 57.0537 48.7291 57.462 49.0278L62.6339 52.7705L60.6491 58.8382H60.6528L60.6491 58.8344C60.5016 59.2994 60.668 59.806 61.0611 60.0933C61.4581 60.3807 61.9911 60.3807 62.3881 60.0971L67.5447 56.3355L72.6333 60.048V60.0442C73.0189 60.3731 73.5747 60.4033 73.9943 60.1236C74.4177 59.84 74.5992 59.3145 74.4441 58.8344L72.4594 52.7667L77.6312 49.0278V49.024C78.0243 48.7367 78.1869 48.2263 78.0395 47.7613C77.8882 47.2963 77.4535 46.9825 76.9658 46.9787L70.5804 46.9901L68.6221 40.9262L68.6184 40.9261ZM68.6751 48.4683L67.5371 44.9449L66.3992 48.4683H66.4067C66.2593 48.9371 65.8245 49.2546 65.333 49.2546L61.6281 49.2471L64.6261 51.4171C65.0269 51.7044 65.1932 52.2186 65.042 52.6836L63.8889 56.207L66.8642 54.037H66.8604C67.2574 53.7345 67.8056 53.7307 68.21 54.0218L71.2043 56.207L70.0663 52.7251H70.0625C69.8886 52.2487 70.0512 51.7156 70.4633 51.417L73.4651 49.2469L69.8131 49.2545V49.2507C69.3027 49.2772 68.8377 48.9558 68.6827 48.4682L68.6751 48.4683ZM67.5447 34.556C63.1555 34.556 58.9478 36.2988 55.8399 39.4026C52.7361 42.5064 50.9933 46.7179 50.9933 51.1073C50.9933 55.4965 52.7361 59.708 55.8399 62.812C58.9437 65.9158 63.1553 67.6586 67.5447 67.6586C71.9339 67.6586 76.1454 65.9158 79.2495 62.812C82.3533 59.7083 84.0961 55.4967 84.0961 51.1073C84.0961 46.7181 82.3533 42.5104 79.2495 39.4065C76.1457 36.3027 71.9341 34.556 67.5447 34.556ZM67.5447 36.8243C63.7566 36.8243 60.1235 38.329 57.4465 41.0093C54.7661 43.6859 53.2615 47.319 53.2615 51.1075C53.2615 54.8956 54.7661 58.5287 57.4465 61.2095C60.1231 63.8861 63.7562 65.3908 67.5447 65.3908C71.3328 65.3908 74.9659 63.8861 77.6429 61.2095C80.3233 58.5292 81.8279 54.8961 81.8279 51.1075C81.8279 47.3194 80.3233 43.6863 77.6467 41.0093C74.9663 38.329 71.3333 36.8243 67.5447 36.8243ZM44.7371 41.2929C43.0813 40.3742 41.2137 39.8979 39.3196 39.9092H14.5309C8.26649 39.9092 3.3371 44.9638 3.26452 51.1755H3.2683V68.63L13.3965 68.6263V53.4964C13.3965 52.8727 13.9031 52.3623 14.5307 52.3623C15.1545 52.3623 15.6649 52.8726 15.6649 53.4964V68.6263H38.1889L38.1851 53.4964C38.1851 52.8727 38.6955 52.3623 39.3193 52.3623C39.9468 52.3623 40.4535 52.8726 40.4535 53.4964V68.6263H47.9389C48.0146 64.4714 45.6102 60.6682 41.8258 58.9519C41.4931 58.8271 41.2398 58.5587 41.1378 58.2185C41.0357 57.882 41.1 57.5153 41.3079 57.228C43.943 53.5723 43.943 48.6425 41.3079 44.9871C41.1113 44.7112 41.0508 44.3596 41.1378 44.0307C41.2247 43.7055 41.4553 43.4333 41.7653 43.2897C42.8617 42.802 43.8714 42.1247 44.7371 41.2929ZM51.7727 68.5465C51.8369 68.5465 51.8974 68.5579 51.9541 68.5692C53.576 68.796 55.1336 69.3329 56.5475 70.1494H56.555C58.4831 71.2609 60.086 72.8639 61.1976 74.7957C65.1293 72.535 69.9646 72.535 73.8924 74.7957C76.1608 70.8677 80.3496 68.4444 84.8859 68.4482C84.8821 63.9116 87.3054 59.7228 91.2334 57.4548C88.9764 53.5269 88.9764 48.6916 91.2334 44.76C89.3053 43.6486 87.7024 42.0456 86.5871 40.1138H86.5833L86.5871 40.1175C85.4719 38.1857 84.8859 35.9968 84.8859 33.7663C80.3492 33.7701 76.1604 31.3505 73.8924 27.4188C69.9644 29.6795 65.1291 29.6795 61.1976 27.4188C58.9331 31.3505 54.7404 33.7701 50.2041 33.7663C50.2079 38.3029 47.7884 42.4955 43.8566 44.7597C46.1173 48.6914 46.1173 53.5267 43.8566 57.4544C47.7884 59.7228 50.2079 63.9116 50.2041 68.4478C50.7296 68.4478 51.2509 68.4785 51.7727 68.5465ZM54.4266 71.605V90.8703L66.955 83.3697L66.9663 83.3659C67.3293 83.1504 67.7867 83.1542 68.1459 83.3811L80.6559 90.8703V71.605C78.3195 72.6409 76.4481 74.5009 75.3896 76.8259C75.2649 77.1586 74.9965 77.4118 74.6562 77.5139C74.316 77.616 73.953 77.5555 73.6657 77.3438C70.01 74.7125 65.0801 74.7125 61.4248 77.3438C61.1488 77.5404 60.7972 77.6047 60.4683 77.5177C60.1394 77.427 59.871 77.2001 59.7273 76.8901C58.8351 74.8789 57.3267 73.2041 55.4213 72.1078V72.104C55.1 71.9225 54.7711 71.7524 54.4346 71.605L54.4266 71.605ZM26.9232 15.1167C22.3714 15.1167 18.262 17.8613 16.5191 22.0691C14.7763 26.2768 15.7404 31.1234 18.9613 34.3448C22.1823 37.562 27.0252 38.526 31.2333 36.7832C35.4413 35.0404 38.1857 30.9347 38.1857 26.3792C38.1857 23.3926 36.9985 20.5307 34.8891 18.4174C32.7758 16.3041 29.9099 15.1167 26.9232 15.1167Z" fill="black"/>
<path d="M67.5371 34.556H67.5447M67.5447 34.556C63.1555 34.556 58.9478 36.2988 55.8399 39.4026C52.7361 42.5064 50.9933 46.7179 50.9933 51.1073C50.9933 55.4965 52.7361 59.708 55.8399 62.812C58.9437 65.9158 63.1553 67.6586 67.5447 67.6586C71.9339 67.6586 76.1454 65.9158 79.2495 62.812C82.3533 59.7083 84.0961 55.4967 84.0961 51.1073C84.0961 46.7181 82.3533 42.5104 79.2495 39.4065C76.1457 36.3027 71.9341 34.556 67.5447 34.556ZM67.5371 36.8243H67.5447M67.5447 36.8243C63.7566 36.8243 60.1235 38.329 57.4465 41.0093C54.7661 43.6859 53.2615 47.319 53.2615 51.1075C53.2615 54.8956 54.7661 58.5287 57.4465 61.2095C60.1231 63.8861 63.7562 65.3908 67.5447 65.3908C71.3328 65.3908 74.9659 63.8861 77.6429 61.2095C80.3233 58.5292 81.8279 54.8961 81.8279 51.1075C81.8279 47.3194 80.3233 43.6863 77.6467 41.0093C74.9663 38.329 71.3333 36.8243 67.5447 36.8243ZM44.7296 41.2929H44.7371M44.7371 41.2929C43.0813 40.3742 41.2137 39.8979 39.3196 39.9092H14.5309C8.26649 39.9092 3.3371 44.9638 3.26452 51.1755H3.2683V68.63L13.3965 68.6262V53.4964C13.3965 52.8727 13.9031 52.3623 14.5307 52.3623C15.1545 52.3623 15.6649 52.8726 15.6649 53.4964V68.6262H38.1889L38.1851 53.4964C38.1851 52.8727 38.6955 52.3623 39.3193 52.3623C39.9468 52.3623 40.4535 52.8726 40.4535 53.4964V68.6262H47.9389C48.0146 64.4714 45.6102 60.6682 41.8258 58.9519C41.4931 58.8271 41.2398 58.5587 41.1378 58.2185C41.0357 57.882 41.1 57.5153 41.3079 57.228C43.943 53.5723 43.943 48.6425 41.3079 44.9871C41.1113 44.7112 41.0508 44.3596 41.1378 44.0307C41.2247 43.7055 41.4553 43.4333 41.7653 43.2897C42.8617 42.802 43.8714 42.1247 44.7371 41.2929ZM51.7651 68.5465H51.7727M51.7727 68.5465C51.8369 68.5465 51.8974 68.5579 51.9541 68.5692C53.576 68.796 55.1336 69.3329 56.5475 70.1494H56.555C58.4831 71.2609 60.086 72.8639 61.1976 74.7957C65.1293 72.535 69.9646 72.535 73.8924 74.7957C76.1608 70.8677 80.3496 68.4444 84.8859 68.4482C84.8821 63.9116 87.3054 59.7228 91.2334 57.4548C88.9764 53.5269 88.9764 48.6916 91.2334 44.76C89.3053 43.6486 87.7024 42.0456 86.5871 40.1138H86.5833L86.5871 40.1176C85.4719 38.1857 84.8859 35.9968 84.8859 33.7663C80.3492 33.7701 76.1604 31.3505 73.8924 27.4188C69.9644 29.6795 65.1291 29.6795 61.1976 27.4188C58.9331 31.3505 54.7404 33.7701 50.2041 33.7663C50.2079 38.3029 47.7884 42.4955 43.8566 44.7597C46.1173 48.6914 46.1173 53.5267 43.8566 57.4545C47.7884 59.7228 50.2079 63.9116 50.2041 68.4478C50.7296 68.4478 51.2509 68.4785 51.7727 68.5465ZM26.923 12.848V12.8517C32.8887 12.8517 38.1477 16.7532 39.8753 22.4618C41.603 28.1704 39.3876 34.333 34.4275 37.641H39.3233H39.3196C41.7429 37.641 44.1246 38.2912 46.2077 39.5274C47.5422 37.5162 48.1358 35.1042 47.8863 32.7036C47.8485 32.3633 47.9657 32.0231 48.2076 31.7811C48.4458 31.5392 48.7823 31.4144 49.1263 31.4447C53.5874 31.9135 57.848 29.475 59.7007 25.3883C59.8254 25.0556 60.0976 24.8023 60.4341 24.7002C60.7743 24.5982 61.1411 24.6624 61.4246 24.8704C65.0803 27.5054 70.0102 27.5054 73.6655 24.8704C73.9453 24.6738 74.2931 24.6095 74.622 24.7002C74.9509 24.7872 75.2231 25.0178 75.363 25.324C77.1965 29.441 81.4685 31.9097 85.9518 31.4484C86.2883 31.4106 86.6286 31.5278 86.8705 31.7698C87.1162 32.0079 87.2372 32.3444 87.207 32.6884C86.9764 34.8736 87.4452 37.0777 88.5453 38.9792V38.9868C89.6303 40.8695 91.2824 42.3666 93.2634 43.2626C93.5961 43.3873 93.8494 43.6558 93.9515 43.996C94.0535 44.3325 93.993 44.6992 93.7851 44.9865C91.15 48.6422 91.15 53.572 93.7851 57.2273H93.7813C93.9779 57.5033 94.0422 57.8549 93.9552 58.1838C93.8645 58.5089 93.6377 58.7811 93.3277 58.9248C89.2144 60.7583 86.7457 65.0303 87.207 69.5107C87.2448 69.851 87.1238 70.1912 86.8856 70.4332C86.6437 70.6789 86.3072 70.7999 85.967 70.7696C84.9538 70.6638 83.9255 70.7054 82.9237 70.8982V92.8665H82.9199C82.9199 93.2748 82.7006 93.6491 82.349 93.8495C81.9937 94.0498 81.5589 94.046 81.2111 93.8381L67.5445 85.6533L53.9573 93.789H53.9611C53.6133 94.0347 53.1597 94.0687 52.7816 93.8759C52.4035 93.6793 52.1653 93.2899 52.1653 92.8665V70.8942C51.8326 70.83 52.0292 70.8942 51.7154 70.8942H2.13418C1.50661 70.8942 1 70.3876 1 69.7601V51.1752H1.00378V51.1638C1.03024 47.5686 2.46683 44.1283 5.00357 41.584C7.52522 39.0511 10.9541 37.6334 14.5306 37.641H19.4264H19.4226C14.4625 34.3368 12.2471 28.1707 13.9748 22.4618C15.7026 16.7533 20.961 12.8517 26.923 12.848ZM25.7888 2.1304V2.13418C25.7888 1.50661 26.2992 1 26.923 1C27.5506 1 28.0572 1.50659 28.0572 2.13418V6.83716C28.0572 7.46095 27.5506 7.97134 26.923 7.97134C26.2992 7.97134 25.7888 7.46098 25.7888 6.83716V2.1304ZM2.6783 27.5132H7.38131C8.00889 27.5132 8.5155 27.0066 8.5155 26.379C8.5155 25.7552 8.0089 25.2448 7.38131 25.2448H2.6783C2.05073 25.2448 1.54412 25.7552 1.54412 26.379C1.54412 27.0066 2.05071 27.5132 2.6783 27.5132ZM8.97666 10.0355L12.3035 13.3623C12.7496 13.7933 13.4566 13.7858 13.8951 13.3472C14.3299 12.9125 14.3374 12.2055 13.9065 11.7594L10.5796 8.43257H10.5834C10.1373 8.00537 9.4303 8.00916 8.99179 8.4477C8.55324 8.88623 8.54946 9.5932 8.97666 10.0355ZM51.1677 25.2447H46.4684C45.8409 25.2447 45.3343 25.755 45.3343 26.3788C45.3343 27.0064 45.8408 27.513 46.4684 27.513H51.1714C51.7952 27.513 52.3056 27.0064 52.3056 26.3788C52.3056 25.755 51.7953 25.2447 51.1714 25.2447H51.1677ZM43.2625 8.43279L39.9357 11.7596H39.9432C39.5047 12.202 39.5085 12.9165 39.947 13.355C40.3893 13.7973 41.1038 13.8011 41.5461 13.3625L44.873 10.0357H44.8692C45.3002 9.59337 45.2964 8.88642 44.8579 8.4479C44.4194 8.00936 43.7124 8.00558 43.2663 8.43278L43.2625 8.43279ZM68.6184 40.9261H68.6259C68.4747 40.4573 68.04 40.1398 67.5485 40.1398C67.057 40.136 66.6222 40.4535 66.471 40.9186L64.5127 46.99L58.2106 46.9787H58.2068C57.704 46.9447 57.2352 47.2471 57.0613 47.7235C56.8912 48.196 57.0537 48.7291 57.462 49.0278L62.6339 52.7705L60.6491 58.8382H60.6528L60.6491 58.8344C60.5016 59.2994 60.668 59.806 61.0611 60.0933C61.4581 60.3807 61.9911 60.3807 62.3881 60.0971L67.5447 56.3355L72.6333 60.048V60.0442C73.0189 60.3731 73.5747 60.4033 73.9943 60.1236C74.4177 59.84 74.5991 59.3145 74.4441 58.8344L72.4593 52.7667L77.6312 49.0278V49.024C78.0243 48.7367 78.1869 48.2263 78.0395 47.7613C77.8882 47.2963 77.4535 46.9825 76.9658 46.9787L70.5804 46.9901L68.6221 40.9262L68.6184 40.9261ZM68.6751 48.4683L67.5371 44.9449L66.3992 48.4683H66.4067C66.2593 48.9371 65.8245 49.2546 65.333 49.2546L61.6281 49.2471L64.6261 51.4171C65.0269 51.7044 65.1932 52.2186 65.042 52.6836L63.8889 56.207L66.8642 54.037H66.8604C67.2574 53.7345 67.8056 53.7307 68.21 54.0218L71.2043 56.207L70.0663 52.7251H70.0625C69.8886 52.2487 70.0512 51.7156 70.4633 51.417L73.4651 49.2469L69.8131 49.2545V49.2507C69.3027 49.2772 68.8377 48.9558 68.6827 48.4682L68.6751 48.4683ZM54.4266 71.605V90.8703L66.955 83.3697L66.9663 83.3659C67.3293 83.1504 67.7867 83.1542 68.1459 83.3811L80.6559 90.8703V71.605C78.3195 72.6409 76.4481 74.5009 75.3896 76.8259C75.2649 77.1586 74.9965 77.4118 74.6562 77.5139C74.316 77.616 73.953 77.5555 73.6657 77.3438C70.01 74.7125 65.0801 74.7125 61.4248 77.3438C61.1488 77.5404 60.7972 77.6047 60.4683 77.5177C60.1394 77.427 59.871 77.2001 59.7273 76.8901C58.8351 74.8789 57.3267 73.2041 55.4213 72.1078V72.104C55.1 71.9225 54.7711 71.7524 54.4346 71.605L54.4266 71.605ZM26.9232 15.1167C22.3714 15.1167 18.262 17.8613 16.5191 22.0691C14.7763 26.2768 15.7404 31.1234 18.9613 34.3448C22.1823 37.562 27.0252 38.526 31.2333 36.7832C35.4413 35.0404 38.1857 30.9347 38.1857 26.3792C38.1857 23.3926 36.9985 20.5307 34.8891 18.4174C32.7758 16.3041 29.9099 15.1167 26.9232 15.1167Z" stroke="black" stroke-width="0.5"/>
</svg>
