<svg width="88" height="88" viewBox="0 0 88 88" fill="none" xmlns="http://www.w3.org/2000/svg">
<path d="M72.3491 21.5302C73.2553 18.1997 71.244 14.7676 67.8654 13.8685C64.6218 13.0163 64.0494 13.032 62.9603 9.02913C62.054 5.69082 58.58 3.71286 55.1854 4.60412C53.4364 5.06538 51.5205 5.82373 49.7 4.0334C48.2691 2.62615 46.9096 1 44 1C41.0904 1 39.6594 2.6887 38.3 4.0334C36.5113 5.79246 34.6113 5.08102 32.8146 4.60412C29.4359 3.71286 25.9539 5.68301 25.0397 9.02913C23.9426 13.0554 23.41 13.0007 20.1346 13.8685C16.756 14.7598 14.7447 18.1997 15.651 21.5224C16.748 25.5643 16.2313 25.791 13.8543 28.1364C11.3819 30.5756 11.3819 34.5394 13.8543 36.9786C16.8514 39.9417 16.5254 40.3717 15.651 43.5927C14.7447 46.9232 16.756 50.3553 20.1346 51.2544C21.8836 51.7156 23.9347 52.0127 24.5945 54.4598C25.0635 56.2032 25.2702 57.4541 26.582 58.7988L15.7225 77.351C15.1899 78.2579 16.0484 79.3446 17.066 79.0709L26.8363 76.491L29.4518 86.1306C29.7301 87.1392 31.1054 87.319 31.638 86.4121L44 65.2956L56.362 86.4121C56.8867 87.319 58.2699 87.1392 58.5482 86.1306L61.1637 76.491L70.934 79.0709C71.9595 79.3446 72.8022 78.2579 72.2775 77.351L61.4181 58.7988C62.7298 57.4462 62.9285 56.2032 63.4055 54.4598C64.0733 52.0049 66.2118 51.6922 67.8654 51.2544C71.244 50.3631 73.2553 46.9232 72.3491 43.6005C71.4507 40.3013 71.1804 39.9104 74.1457 36.9864C76.6181 34.5472 76.6181 30.5835 74.1457 28.1442C71.7687 25.7988 71.2599 25.533 72.3491 21.5302ZM69.5984 42.5685L70.0436 44.2103C70.608 46.2899 69.352 48.4399 67.2453 48.9949L65.5838 49.4328C63.3976 50.0113 61.6804 51.7 61.1001 53.8578C60.6231 55.6246 60.3766 57.4541 58.0394 58.1968C56.6641 58.6346 55.6783 58.2202 54.144 57.8137C51.9657 57.2352 49.6126 57.8606 48.0147 59.432C46.8619 60.5656 45.908 61.7774 44 61.7774C41.0745 61.7774 40.7406 59.2366 37.9104 58.0717C34.3728 56.641 32.5046 59.0099 29.9527 58.189C27.5995 57.4306 27.3531 55.5152 26.8999 53.8499C26.3117 51.7 24.5945 50.0035 22.4162 49.4249L20.7547 48.9871C18.648 48.4321 17.392 46.2821 17.9564 44.2025L18.4016 42.5685C18.9899 40.4186 18.3539 38.1044 16.7639 36.533L15.5476 35.329C13.9974 33.8045 13.9974 31.3262 15.5476 29.8017L16.7639 28.6055C18.3618 27.0341 18.9899 24.7199 18.4095 22.57L17.9644 20.9282C17.3999 18.8486 18.656 16.6986 20.7627 16.1435L22.4242 15.7057C24.6104 15.1272 26.3276 13.4385 26.9079 11.2807L27.3531 9.64675C27.9175 7.55933 30.0958 6.32409 32.2025 6.88698L33.864 7.32479C36.0502 7.90333 38.3954 7.2857 39.9933 5.70646C41.2653 4.45557 42.092 3.36105 44.008 3.36105C45.9239 3.36105 46.7745 4.47121 48.0226 5.70646C49.6205 7.2857 51.9657 7.90333 54.1519 7.32479L55.8134 6.88698C57.9201 6.3319 60.0904 7.55933 60.6628 9.64675L61.108 11.2885C61.6963 13.4385 63.4135 15.135 65.5917 15.7136L67.2532 16.1514C69.3599 16.7064 70.616 18.8564 70.0516 20.936L69.6064 22.57C69.0181 24.7199 69.6541 27.0341 71.244 28.6055L72.4604 29.8095C74.0106 31.334 74.0106 33.8123 72.4604 35.3368L71.244 36.533C69.6461 38.1044 69.0181 40.4186 69.6064 42.5685H69.5984ZM60.6231 73.9267C59.9871 73.7625 59.3272 74.1299 59.1603 74.7554L56.9741 82.7845L45.8841 63.8414C49.2787 62.8016 49.8511 59.1115 53.5159 60.0809C55.3682 60.5735 57.1172 61.2224 59.4544 60.1669L68.7637 76.0766L60.6151 73.9267H60.6231ZM28.2673 74.0439C27.679 73.7078 27.9652 73.7703 19.2125 76.0766L28.5217 60.1669C32.6238 62.0198 34.6033 58.6033 37.6719 60.6126C39.0234 61.496 39.6753 63.1065 42.092 63.8414L31.0021 82.7845C28.6728 74.2159 28.8635 74.3801 28.2673 74.0361V74.0439Z" fill="black"/>
<path d="M57.6667 31.9058C57.6667 39.5243 51.5406 45.6871 44 45.6871C36.4594 45.6871 30.3333 39.5243 30.3333 31.9058C30.3333 24.2873 36.4594 18.1246 44 18.1246C51.5406 18.1246 57.6667 24.2873 57.6667 31.9058Z" fill="#DD0004" stroke="black" stroke-width="2"/>
<path d="M50.3252 26.883C49.5016 26.0731 48.1713 26.0731 47.3478 26.883L42.6648 31.5027L40.6474 29.5139C39.8238 28.704 38.4935 28.704 37.67 29.5139L37.1437 30.0315C36.3299 30.8366 36.3299 32.1448 37.1437 32.9499C41.4368 37.1863 41.5148 37.5361 42.6648 37.5361C43.2301 37.5361 43.7564 37.3204 44.1559 36.9275L50.8563 30.319C51.6701 29.5139 51.6701 28.2056 50.8563 27.4005L50.33 26.883H50.3252ZM49.8184 29.3078L43.118 35.9163C42.8743 36.1559 42.4504 36.1559 42.2116 35.9163L38.1768 31.9388C37.9282 31.6944 37.9282 31.2966 38.1768 31.0474C39.3609 29.8781 38.9711 29.8973 42.1483 33.0314C42.4211 33.2998 42.9085 33.2998 43.1813 33.0314L48.3808 27.8989C48.6245 27.6593 49.0484 27.6593 49.2872 27.8989L49.8135 28.4165C50.062 28.6609 50.062 29.0586 49.8135 29.3078H49.8184Z" fill="black"/>
</svg>
