<svg width="88" height="88" viewBox="0 0 88 88" fill="none" xmlns="http://www.w3.org/2000/svg">
<rect x="11.6489" y="33.0163" width="15.7261" height="14.4095" fill="#DD0004"/>
<rect x="32.5441" y="33.0163" width="15.7261" height="14.4095" fill="#DD0004"/>
<rect x="60.5409" y="50.25" width="15.7261" height="6.5" fill="#DD0004"/>
<rect x="60.5409" y="61.0101" width="5.70914" height="6.5" fill="#DD0004"/>
<rect x="70.5578" y="61.0101" width="5.70914" height="6.5" fill="#DD0004"/>
<path d="M68.0949 27.1124C68.2927 26.9146 68.4039 26.6427 68.4039 26.3708V16.1618C68.4039 15.5809 67.9343 15.1112 67.3534 15.1112H12.6995C12.1186 15.1112 11.6489 15.5809 11.6489 16.1618V26.3708C11.6489 26.9517 12.1186 27.4213 12.6995 27.4213H67.3534C67.6253 27.4213 67.8972 27.3101 68.0949 27.1124ZM66.3028 25.3202H13.75V17.2124H66.3028V25.3202Z" fill="black"/>
<path d="M48.5064 72.3509L48.5168 72.3871H48.5545H50.0624C51.9383 72.3871 53.4854 73.9222 53.4854 75.7977C53.4854 77.6735 51.9505 79.2084 50.0747 79.2084H29.9905C28.1147 79.2084 26.5798 77.6735 26.5798 75.7977C26.5798 73.922 28.1147 72.3871 29.9905 72.3871H31.4983H31.536L31.5464 72.3509L33.1284 66.8509L33.1468 66.7871H33.0803H11.5624C8.20341 66.7871 5.46968 64.0532 5.46968 60.7067V56.9741V12.1551C5.46968 8.78379 8.20347 6.05 11.5747 6.05H68.4904C71.8493 6.05 74.5831 8.78373 74.5831 12.1551V32.9472C74.5831 33.5005 74.1358 33.9477 73.5826 33.9477C73.0293 33.9477 72.582 33.5005 72.582 32.9472V12.1551C72.582 9.89046 70.7429 8.05112 68.4904 8.05112H11.5747C9.31004 8.05112 7.4708 9.89036 7.4708 12.1551V55.9236V55.9736H7.5208H50.8286C51.3819 55.9736 51.8292 56.4209 51.8292 56.9741C51.8292 57.5274 51.3819 57.9747 50.8286 57.9747H7.5208H7.4708V58.0247V60.7067C7.4708 62.9593 9.31024 64.7859 11.5624 64.7859H50.8286C51.3819 64.7859 51.8292 65.2332 51.8292 65.7865C51.8292 66.3398 51.3819 66.7871 50.8286 66.7871H46.9725H46.9061L46.9244 66.8509L48.5064 72.3509ZM35.268 66.7994H35.2304L35.2199 66.8356L33.6379 72.3232L33.6195 72.3871H33.686H46.3545H46.4209L46.4025 72.3232L44.8205 66.8356L44.8101 66.7994H44.7725H35.268ZM29.9781 77.2073H50.0624C50.8312 77.2073 51.4719 76.5796 51.4719 75.7977C51.4719 75.0162 50.8439 74.3882 50.0624 74.3882H29.9781C29.1965 74.3882 28.5685 75.0162 28.5685 75.7977C28.5685 76.5793 29.1965 77.2073 29.9781 77.2073Z" fill="black" stroke="white" stroke-width="0.1"/>
<path d="M82.5179 40.2641V40.3141H82.5303V76.4405C82.5303 78.3778 80.9462 79.95 79.0084 79.95H58.1455C56.1955 79.95 54.6236 78.3779 54.6236 76.4405V40.2641C54.6236 38.3267 56.2077 36.7545 58.1455 36.7545H78.996C80.9461 36.7545 82.5179 38.3266 82.5179 40.2641ZM56.6747 45.677H56.6247V45.727V70.9652V71.0152H56.6747H80.4668H80.5168V70.9652V45.727V45.677H80.4668H56.6747ZM80.4792 43.6759H80.5292V43.6259V40.2641C80.5292 39.4325 79.8388 38.7557 79.0084 38.7557H58.1455C57.3024 38.7557 56.6247 39.4328 56.6247 40.2641V43.6259V43.6759H56.6747H80.4792ZM56.6747 73.0163H56.6247V73.0663V76.4281C56.6247 77.2596 57.3151 77.9365 58.1455 77.9365H78.996C79.8391 77.9365 80.5168 77.2594 80.5168 76.4281V73.0663V73.0163H80.4668H56.6747Z" fill="black" stroke="white" stroke-width="0.1"/>
<path d="M64.6219 40.2152H71.3208C71.874 40.2152 72.3213 40.6624 72.3213 41.2157C72.3213 41.769 71.874 42.2163 71.3208 42.2163H64.6219C64.0686 42.2163 63.6213 41.769 63.6213 41.2157C63.6213 40.6624 64.0686 40.2152 64.6219 40.2152Z" fill="black" stroke="white" stroke-width="0.1"/>
<path d="M68.6786 76.1939L68.6786 76.1939L68.6776 76.195C68.502 76.3705 68.2307 76.477 67.9837 76.477C67.8425 76.477 67.7251 76.4537 67.5947 76.4065C67.461 76.3456 67.3586 76.2875 67.2798 76.1974L67.2799 76.1972L67.2763 76.1939C67.0897 76.0189 66.9831 75.7483 66.9831 75.4888C66.9831 75.229 67.0774 74.9712 67.2757 74.7842C67.3721 74.6999 67.4666 74.6294 67.5958 74.5705C67.9599 74.4182 68.4076 74.5126 68.6776 74.7825L68.6775 74.7826L68.6787 74.7837C68.8653 74.9586 68.9719 75.2292 68.9719 75.4888C68.9719 75.7488 68.8774 76.0068 68.6786 76.1939Z" fill="black" stroke="white" stroke-width="0.1"/>
<path d="M35.7506 61.3865C35.7506 60.8332 36.1978 60.386 36.7511 60.386H45.5758C46.1291 60.386 46.5764 60.8332 46.5764 61.3865C46.5764 61.9398 46.1291 62.3871 45.5758 62.3871H36.7511C36.1978 62.3871 35.7506 61.9398 35.7506 61.3865Z" fill="black" stroke="white" stroke-width="0.1"/>
<path d="M26.0478 45.3747H26.0978V45.3247V33.7933V33.7433H26.0478H13.75H13.7V33.7933V45.3247V45.3747H13.75H26.0478ZM11.6989 32.7427C11.6989 32.1894 12.1462 31.7421 12.6995 31.7421H27.0983C27.6516 31.7421 28.0989 32.1894 28.0989 32.7427V46.3753C28.0989 46.9286 27.6516 47.3758 27.0983 47.3758H12.6995C12.1462 47.3758 11.6989 46.9286 11.6989 46.3753V32.7427Z" fill="black" stroke="white" stroke-width="0.1"/>
<path d="M46.1691 45.3747H46.2191V45.3247V33.7933V33.7433H46.1691H33.8714H33.8214V33.7933V45.3247V45.3747H33.8714H46.1691ZM31.8202 32.7427C31.8202 32.1894 32.2675 31.7421 32.8208 31.7421H47.2197C47.7729 31.7421 48.2202 32.1894 48.2202 32.7427V46.3753C48.2202 46.9286 47.7729 47.3758 47.2197 47.3758H32.8208C32.2675 47.3758 31.8202 46.9286 31.8202 46.3753V32.7427Z" fill="black" stroke="white" stroke-width="0.1"/>
<path d="M75.6219 55.4792H75.6719V55.4292V51.227V51.177H75.6219H61.5197H61.4697V51.227V55.4292V55.4792H61.5197H75.6219ZM60.4691 49.1759H76.6725C77.2258 49.1759 77.673 49.6231 77.673 50.1764V56.4798C77.673 57.0331 77.2258 57.4803 76.6725 57.4803H60.4691C59.9158 57.4803 59.4685 57.0331 59.4685 56.4798V50.1764C59.4685 49.6231 59.9158 49.1759 60.4691 49.1759Z" fill="black" stroke="white" stroke-width="0.1"/>
<path d="M65.1657 66.7387H65.2157V66.6887V61.8314V61.7814H65.1657H61.5197H61.4697V61.8314V66.6887V66.7387H61.5197H65.1657ZM60.4691 59.7803H66.2163C66.7696 59.7803 67.2169 60.2276 67.2169 60.7809V67.7393C67.2169 68.2926 66.7696 68.7399 66.2163 68.7399H60.4691C59.9158 68.7399 59.4685 68.2926 59.4685 67.7393V60.7809C59.4685 60.2276 59.9158 59.7803 60.4691 59.7803Z" fill="black" stroke="white" stroke-width="0.1"/>
<path d="M75.6219 66.7387H75.6719V66.6887V61.8314V61.7814H75.6219H71.9758H71.9258V61.8314V66.6887V66.7387H71.9758H75.6219ZM70.9253 59.7803H76.6724C77.2257 59.7803 77.673 60.2276 77.673 60.7809V67.7393C77.673 68.2926 77.2257 68.7399 76.6724 68.7399H70.9253C70.372 68.7399 69.9247 68.2926 69.9247 67.7393V60.7809C69.9247 60.2276 70.372 59.7803 70.9253 59.7803Z" fill="black" stroke="white" stroke-width="0.1"/>
<path d="M12.75 16.75H67.2669V26H12.75V16.75Z" fill="#DD0004"/>
</svg>
