<svg width="96" height="94" viewBox="0 0 96 94" fill="none" xmlns="http://www.w3.org/2000/svg">
<path d="M43.5 34L35 36L41 45L39 53L45.5 49.5V48H51.5V49.5L58 53L56 43.5L62 36L53 34L48 26L43.5 34Z" fill="#DD0004"/>
<path d="M63.6566 93H43.7593V85.4802L38.4052 80.1412V70.8618H13.1689V48.0018L5.06263 52.2128L7.30351 43.2944L0.926758 35.7746L9.48425 34.0451L13.1689 28.0293V0.95813H83.1027V28.0293L86.7874 34.0451L95.3449 35.7746L88.9681 43.2944L91.209 52.2128L83.1027 48.0018V70.8618H68.9956V80.1562L63.6566 85.4953V93ZM46.0152 90.7441H61.4007V84.5628L66.7397 79.2238V64.7558L63.3408 62.1991V68.4104H61.0848V61.0711H57.6709V68.4104H55.4149V61.0711H52.001V68.4104H49.745V48.6635H46.3461V71.8093H44.0751V65.5378L40.6161 68.1096V79.2238L46.0152 84.5628V90.7441ZM68.9956 68.6059H80.8468V48.0018L72.7405 52.2128L74.9814 43.2944L68.6046 35.7746L77.1621 34.0451L80.8468 28.0293V15.381H15.4249V28.0744L19.1095 34.0902L27.667 35.8197L21.2903 43.3395L23.5312 52.2579L15.4249 48.0469V68.651H38.4052V66.9816L44.0902 62.7104V51.2954L36.9765 54.9951L39.6686 44.2719L31.8781 35.0828L42.2704 32.9923L48.1358 23.352L54.0012 32.9923L64.3935 35.0828L56.6031 44.2719L59.2951 54.9951L52.001 51.2052V58.8152H62.5286L68.9505 63.6278L68.9956 68.6059ZM52.001 48.6635L55.8812 50.6788L54.1516 43.6854L60.1674 36.5416L52.5574 35.0377L48.0456 27.7134L43.5337 35.0377L35.9237 36.5416L41.9395 43.6854L40.1799 50.6788L43.8796 48.7537V46.4076H51.7904L52.001 48.6635ZM81.9747 44.8735L87.795 47.8814L86.5016 42.7078L91.1639 37.2184L85.3737 36.0453L81.9747 30.4206L78.5758 36.0002L72.8006 37.1733L77.4629 42.6627L76.1544 47.8363L81.9747 44.8735ZM5.10774 37.2335L9.76999 42.7229L8.4766 47.8965L14.2969 44.8886L20.1172 47.8965L18.8087 42.7229L23.471 37.2335L17.6958 36.0604L14.2969 30.4206L10.898 36.0604L5.10774 37.2335ZM15.4249 13.0499H80.8468V3.18398H15.4249V13.0499ZM34.8108 9.24491H31.2615V6.98898H34.8108V9.24491ZM29.4567 9.24491H25.8924V6.98898H29.4567V9.24491ZM24.0726 9.24491H20.5383V6.98898H24.0726V9.24491Z" fill="black" stroke="black" stroke-width="0.5"/>
</svg>
