<svg width="88" height="88" viewBox="0 0 88 88" fill="none" xmlns="http://www.w3.org/2000/svg">
<path d="M32.375 78.75V62.5L28.125 61.375H25.5L22.875 62.5L22.25 77.25L24.625 81.125H30.625L32.375 78.75Z" fill="#DD0004"/>
<circle cx="44" cy="50.125" r="8.5625" fill="#DD0004"/>
<path d="M25.4062 60.0386H25.8541C26.302 41.6399 31.4777 37.3324 34.9115 34.4942C35.4092 34.0768 35.8737 33.7095 36.2552 33.3255C33.601 33.3255 32.4398 30.2201 34.1816 28.4503C34.6959 27.9327 35.4092 27.6155 36.1889 27.6155H36.869C36.0728 25.0611 34.53 21.8722 32.9873 18.9004C32.6389 18.2158 33.1366 17.4311 33.8665 17.4311H53.0596C53.7895 17.4311 54.3535 18.2325 53.889 19.0005C52.5619 21.3546 51.5334 23.2913 50.7704 24.9275C50.2893 25.946 49.9243 26.8308 49.6423 27.6155C50.8533 27.6155 51.7989 27.4987 52.761 28.4503C54.5526 30.2535 53.2587 33.3255 50.7704 33.3255H50.4054C50.7372 33.6093 51.1021 33.8931 51.5003 34.1936C55.1995 37.0486 60.989 41.5398 61.1217 61.9253C62.2995 62.4261 63.2285 63.4279 63.6432 64.6634C72.8831 56.8665 76.2838 44.161 72.2527 32.7745L70.4943 33.4423C69.6815 33.7929 68.9848 33.1084 69.0843 32.3905L70.6602 21.8555C70.7763 21.1209 71.6389 20.7369 72.2527 21.2044L80.8955 27.8827C81.5092 28.3501 81.3765 29.3352 80.63 29.6023L78.8882 30.2535C82.8861 41.4396 81.1775 53.8946 74.2434 63.5614C78.0422 64.2961 78.8219 68.9876 73.5135 71.7757L54.0715 81.9935C53.0098 82.5445 51.8818 82.6948 50.7206 82.4276L36.7529 79.1553L33.4352 79.0384C32.9707 80.6913 31.4777 81.8767 29.7359 81.8767L25.4892 81.8934C23.7142 81.8934 22.1714 80.6746 21.7401 78.9716H10.0451C9.49765 78.9716 9.04975 78.5208 9.04975 77.9699V63.6282C9.04975 63.0773 9.49765 62.6265 10.0451 62.6265H21.7899C22.3207 61.1072 23.7639 60.0386 25.4062 60.0386ZM27.8448 60.0386H29.6529C30.9303 60.0386 32.0749 60.6564 32.7882 61.6581H34.0821C34.2978 61.6581 34.4968 61.7249 34.6627 61.8418L39.3407 59.1705C33.12 56.2821 31.5938 48.001 36.4709 43.0925C38.0468 41.5231 40.137 40.4712 42.4594 40.2375V37.7832C42.4594 37.2323 42.9073 36.7815 43.4547 36.7815C44.0022 36.7815 44.4501 37.2323 44.4501 37.7832V40.2375C49.4598 40.7384 53.3416 44.9958 53.3416 50.1381C53.3416 54.5958 50.4054 58.4358 46.2748 59.6713L50.7206 61.6414H55.5147C56.0622 61.6414 56.51 62.0922 56.51 62.6432C56.51 63.1941 56.0622 63.6449 55.5147 63.6449H54.9507C55.8299 64.1959 56.6096 64.847 57.1736 65.5983H61.8184C61.6525 64.6467 60.8729 63.8119 59.9605 63.6282C59.4794 63.5447 59.1311 63.144 59.1311 62.6432C59.1311 36.9818 50.3556 37.4493 47.7346 33.3088H38.7601C36.3548 37.5996 28.4088 37.082 27.8448 60.0386ZM33.5181 64.7802L33.5679 77.0516L37.1178 77.2019L51.1519 80.5076C51.8652 80.6746 52.4956 80.5911 53.1425 80.2572L72.5845 70.0394C77.1962 67.6185 75.4378 64.2126 70.9422 65.9489L55.0668 72.0763C54.8512 72.1597 54.6023 72.1597 54.3701 72.0763L42.7746 67.7688C42.2603 67.5851 41.9949 67.0008 42.194 66.4832C42.3765 65.9656 42.9571 65.6985 43.4713 65.8988L54.3038 69.9225C54.6355 69.8056 54.9507 69.7055 55.2825 69.5719C55.4484 69.4216 55.5977 69.2714 55.7138 69.1044C56.4105 68.1862 56.029 67.2512 55.3488 66.5166C54.0549 65.0807 51.8818 64.4296 50.0736 63.5614L43.3386 60.5729C42.476 60.1889 41.5802 60.2223 40.7508 60.6898L33.5181 64.7802ZM21.6074 76.9681L21.5576 64.63H11.0404V76.9681H21.6074ZM29.6529 62.0254L25.4062 62.0421C24.3777 62.0421 23.5317 62.9103 23.5483 63.9287L23.598 77.9532C23.598 79.0551 24.4441 79.8899 25.4726 79.8732L29.7193 79.8565C30.7312 79.8565 31.5606 79.0384 31.5772 77.9699V77.9532L31.5275 63.8787C31.5275 62.8769 30.698 62.0254 29.6529 62.0254ZM58.0362 67.6018L58.0528 68.3197C58.5007 68.086 58.9486 67.8522 59.3965 67.6018H58.0362ZM65.0366 66.0658L70.2289 64.0623C70.7432 63.862 71.2242 63.7284 71.7053 63.6282C72.3191 62.8435 72.9163 62.0254 73.4637 61.1573C79.502 51.8744 80.6632 40.321 76.6653 30.0364C76.4497 29.4854 76.7483 28.9011 77.2957 28.7174L78.2413 28.3501L72.3523 23.8089L71.274 30.9881L72.4518 30.5373C72.9661 30.3536 73.5301 30.6041 73.7291 31.1049C77.0137 39.4695 76.5492 48.7356 72.402 56.7496C70.5275 60.4226 67.9894 63.5447 65.0366 66.0658ZM9.64694 46.9826L14.5904 52.5423L16.9626 45.6803L15.7184 45.8974C15.1378 45.9975 14.607 45.5801 14.5572 44.9958C13.3628 30.7042 22.2212 17.331 35.9566 12.9734C45.744 9.86796 56.3607 11.8881 64.3731 18.316C65.4514 19.1842 67.0605 18.2993 66.8946 16.9136C66.8448 16.5129 66.6623 16.1456 66.314 15.8617C64.7049 14.5428 62.6479 13.2238 60.8065 12.2554C44.2344 3.57367 23.7971 10.0349 15.1544 26.714C12.1187 32.5742 10.8579 39.1523 11.4717 45.697C11.5215 46.2146 11.1565 46.6821 10.6589 46.7822L9.64694 46.9826ZM14.242 55.1468L7.02593 47.0494C6.41215 46.4149 6.7771 45.48 7.54018 45.3297L9.44788 44.9958C8.30326 28.4503 18.5385 13.1236 34.4305 8.09821C44.6325 4.85924 55.664 6.34516 64.7381 12.2888C65.4348 12.7396 67.0439 13.8749 67.6079 14.3758C70.0796 16.5629 68.7193 20.3362 65.7334 20.6701C63.9916 20.8704 63.1953 19.9188 62.0009 19.0339C57.8371 15.9953 52.7444 14.1254 47.7014 13.6746C34.4968 12.5059 22.2212 20.5532 17.9247 33.2754C16.7801 36.6646 16.299 40.2041 16.4649 43.7603L18.2897 43.4431C19.0196 43.3095 19.6499 44.0274 19.4011 44.762L15.9175 54.8296C15.6686 55.5141 14.7397 55.7144 14.242 55.1468ZM45.8103 45.7137C46.3578 45.7137 46.8057 46.1645 46.8057 46.7154C46.8057 47.2664 46.3578 47.7172 45.8103 47.7172H43.4713C42.8741 47.7172 42.3599 47.8508 42.0115 48.0678C40.9333 48.7189 42.6253 48.9861 43.6206 49.1196C45.4454 49.3868 47.2701 49.6372 47.2701 51.8076C47.2701 53.2769 45.8435 54.1784 44.4501 54.4289V54.6459H42.4594V54.5124H40.8835C40.3361 54.5124 39.8882 54.0616 39.8882 53.5106C39.8882 52.9596 40.3361 52.5089 40.8835 52.5089H43.4713C44.0519 52.5089 44.5828 52.3753 44.9311 52.1583C46.0094 51.5071 44.3173 51.24 43.322 51.1064C41.4973 50.8393 39.6559 50.5722 39.6559 48.4184C39.6559 46.9492 41.0826 46.0643 42.476 45.7972L42.4926 45.5467L44.4832 45.6135V45.7137H45.8103ZM49.0451 44.5116C45.9596 41.4062 40.9664 41.4062 37.8809 44.5116C34.7954 47.617 34.7954 52.6424 37.8809 55.7478C40.9664 58.8532 45.9596 58.8532 49.0451 55.7478C52.1306 52.6424 52.1306 47.6003 49.0451 44.5116ZM38.926 27.6155H47.5521C48.3318 25.1613 49.9077 22.1059 51.3675 19.4346H35.5087C36.8358 22.0892 38.2459 25.1613 38.926 27.6155ZM50.7538 29.619H36.1723C35.4424 29.619 35.0443 30.5206 35.5751 31.0548C35.7244 31.2051 35.94 31.3053 36.1723 31.3053H50.7538C51.4837 31.3053 51.8818 30.4037 51.351 29.8528C51.1851 29.7192 50.986 29.619 50.7538 29.619Z" fill="black"/>
</svg>
