<svg width="84" height="84" viewBox="0 0 84 84" fill="none" xmlns="http://www.w3.org/2000/svg">
<circle cx="30" cy="43" r="14" fill="#DD0004"/>
<mask id="path-2-inside-1_373_290" fill="white">
<path fill-rule="evenodd" clip-rule="evenodd" d="M61.4752 74.5956H48.0968C48.4388 78.0063 51.3329 80.6037 54.786 80.6037C58.2428 80.6037 61.1332 78.0064 61.4752 74.5956ZM49.9241 64.8379L47.6551 67.0485C47.0484 67.654 46.0885 67.727 45.3973 67.2272L42.9481 65.4434V67.9823C42.9518 69.7187 44.3712 71.1268 46.1217 71.1304H63.4417C65.1884 71.1195 66.6006 69.7151 66.6042 67.9823V64.8379L49.9241 64.8379ZM34.3796 13.4763C35.1923 13.5274 35.8579 14.1329 35.9829 14.9318L36.6412 19.1341C38.5093 19.6558 40.3111 20.3927 42.0064 21.3301L45.3749 18.8934V18.8897C46.0699 18.3134 47.0922 18.3571 47.7284 18.9955L54.0645 25.2698C54.6713 25.8754 54.7485 26.8275 54.2447 27.5206L51.711 30.9496V30.9459C52.6524 32.613 53.3916 34.3859 53.9137 36.2243L57.9992 36.859C58.9223 36.9138 59.6357 37.6725 59.6283 38.5845V47.467C59.6247 48.3133 59.0032 49.0356 58.1611 49.1669L53.9247 49.8198C53.3805 51.6584 52.6193 53.4276 51.6558 55.0873L54.1233 58.4287C54.7006 59.1181 54.6565 60.1286 54.0203 60.7633L53.3988 61.3798H67.02C69.083 54.3212 73.4959 48.1201 77.0743 41.9735V41.9772C80.4869 36.0677 81.4062 29.0565 79.63 22.4756C77.8538 15.8986 73.5292 10.2805 67.5941 6.85519C62.192 3.76546 55.8416 2.73309 49.7262 3.95513C43.6144 5.17352 38.1573 8.56235 34.3803 13.4832L34.3796 13.4763ZM39.3588 65.9576H39.3625C38.4726 66.3223 37.5642 66.6324 36.6412 66.8914L36.0087 70.9624C35.9462 71.8707 35.185 72.5748 34.2693 72.5785H25.3149C24.4581 72.5785 23.7263 71.962 23.5939 71.123L22.9357 66.9206H22.932C21.0823 66.3954 19.2987 65.6621 17.6146 64.7319L14.2461 67.1687V67.1723C13.5548 67.7523 12.5288 67.7086 11.8926 67.0665L5.56748 60.7922H5.5638C4.96071 60.1903 4.88716 59.2382 5.39464 58.5525L7.91732 55.0871C6.98327 53.4163 6.24416 51.6471 5.71462 49.8123L1.6291 49.1849C0.713435 49.1229 0.00367149 48.3678 0 47.4558V38.5842C0.00367713 37.716 0.65825 36.9865 1.52611 36.8771L5.75143 36.2241C6.28097 34.3855 7.02016 32.6164 7.95413 30.9457L5.49763 27.6043C4.9166 26.9185 4.96073 25.9044 5.6006 25.2697L11.8816 18.9954C12.4883 18.3898 13.4518 18.3169 14.1394 18.8276L17.5962 21.33C19.2768 20.3998 21.064 19.6666 22.9136 19.145L23.5535 15.0923C23.6197 14.184 24.3772 13.4763 25.2966 13.4763H30.1433C34.1553 7.16186 40.4734 2.63896 47.7759 0.84411C55.0755 -0.947008 62.7941 0.136432 69.3068 3.86454C76.0511 7.74216 80.9718 14.1079 82.9939 21.575C85.0127 29.0421 83.9684 37.0021 80.0851 43.7025C79.1437 45.271 78.4193 46.504 77.6655 47.737C74.6169 52.7345 71.4728 57.8963 70.1342 63.306V67.9753C70.1305 71.0285 68.016 73.6842 65.0226 74.3991C64.7395 79.7797 60.2568 84 54.8216 84C49.3901 84 44.9076 79.7795 44.6242 74.3991C41.6309 73.6805 39.5237 71.0285 39.52 67.9753V65.9106L39.3987 65.9654L39.3588 65.9576ZM34.6996 63.8199C34.0082 63.9731 33.4823 64.5349 33.372 65.228L32.78 69.0946H26.8042L26.2195 65.3593C26.1533 64.6078 25.6127 63.984 24.8736 63.8089C22.612 63.2799 20.4497 62.3935 18.4712 61.1861C17.8682 60.8104 17.0959 60.8395 16.5222 61.259L13.3413 63.5571L9.05718 59.373L11.3372 56.2724C11.7968 55.7033 11.8446 54.9045 11.4585 54.2843C10.2193 52.3145 9.31833 50.1549 8.78512 47.897C8.61964 47.2112 8.05333 46.6968 7.35465 46.5875L3.46768 45.9819L3.464 40.0615L7.22963 39.4742C7.98349 39.4122 8.61236 38.876 8.78511 38.1464C9.32569 35.8774 10.2377 33.7142 11.4843 31.7407C11.83 31.1571 11.8006 30.4276 11.4108 29.873L9.05725 26.6702L13.2752 22.4861L16.401 24.7478C16.9746 25.2074 17.7837 25.2512 18.4051 24.8573C20.402 23.6352 22.5863 22.7452 24.8736 22.2162C25.565 22.0521 26.0909 21.494 26.2012 20.7973L26.8043 16.9415L32.7801 16.9379L33.3648 20.6732C33.4236 21.4247 33.9642 22.0522 34.6997 22.2236C36.9797 22.7526 39.153 23.6462 41.1387 24.8683C41.7418 25.2403 42.514 25.2148 43.0877 24.8026L46.2686 22.4971L50.4792 26.6703L48.1992 29.771C47.7543 30.34 47.7138 31.1279 48.0963 31.7408C49.3356 33.7107 50.2328 35.8665 50.7623 38.1281C50.9205 38.8103 51.4831 39.3283 52.1818 39.434L56.0688 40.0396V45.96L52.3031 46.5473L52.3068 46.5509C51.553 46.6202 50.9278 47.1638 50.7623 47.897C50.2365 50.1587 49.3356 52.3145 48.0963 54.2843C47.7212 54.8825 47.7506 55.6486 48.1735 56.2176L50.4792 59.373L46.2612 63.5571L43.1355 61.2954C42.5581 60.8431 41.7565 60.7993 41.1313 61.186L40.6312 61.4851C40.4436 61.5508 40.2635 61.6493 40.1053 61.7733C39.4287 62.1454 38.73 62.4773 38.0165 62.7728C36.9391 63.2178 35.8285 63.568 34.6922 63.827L34.6996 63.8199ZM29.7682 27.3887C33.9494 27.385 37.9614 29.0265 40.9182 31.9557C43.8785 34.8849 45.5444 38.8611 45.5481 43.0088C45.5481 47.1563 43.8933 51.1361 40.9367 54.0692C37.9838 57.0021 33.9755 58.6509 29.7942 58.6546C25.613 58.6546 21.6047 57.0094 18.6442 54.0766C15.6876 51.1474 14.0291 47.1676 14.0291 43.0199C14.0254 38.8796 15.6839 34.9034 18.6332 31.9706C21.5861 29.0414 25.5908 27.3923 29.7682 27.3887ZM54.771 12.8188C54.2856 12.8553 53.8076 12.6875 53.4509 12.3592C53.0942 12.0309 52.8919 11.5712 52.8919 11.0897C52.8919 10.6045 53.0942 10.1449 53.4509 9.81657C53.8076 9.48827 54.2857 9.32046 54.771 9.35694C60.0149 9.35694 65.0455 11.4216 68.7528 15.0986C72.4601 18.7756 74.5409 23.7658 74.5409 28.9681C74.4748 29.8728 73.7135 30.5768 72.7942 30.5768C71.8785 30.5768 71.1173 29.8728 71.0511 28.9681C71.0437 24.6892 69.3301 20.589 66.2852 17.5612C63.2366 14.5371 59.1033 12.8299 54.7897 12.819L54.771 12.8188ZM32.3571 37.8646C31.32 36.8322 29.7535 36.5222 28.3966 37.0803C27.036 37.6347 26.1497 38.9516 26.1497 40.4107C26.1497 41.8699 27.036 43.1832 28.3966 43.7412C29.7535 44.2993 31.3201 43.9893 32.3571 42.9569C33.7655 41.5452 33.7655 39.2763 32.3571 37.8646ZM38.6159 51.4819C36.3102 53.864 33.122 55.21 29.7902 55.21C26.4622 55.21 23.2739 53.864 20.9646 51.4819C21.7442 49.1728 23.3732 47.2431 25.5208 46.0758C28.0508 47.9508 31.5222 47.9508 34.0523 46.0758C36.2036 47.2431 37.8363 49.1728 38.6159 51.4819ZM36.2624 43.3582C37.2773 41.1694 37.0972 38.6197 35.7844 36.5914C34.4752 34.5632 32.2136 33.3376 29.7866 33.3376C27.3595 33.3376 25.0979 34.5632 23.7888 36.5914C22.476 38.6197 22.2958 41.1694 23.3107 43.3582C21.3691 44.5328 19.7658 46.1852 18.6588 48.1551C16.9231 44.3978 17.2357 40.0241 19.4899 36.5436C21.7405 33.0672 25.6201 30.9624 29.787 30.9624C33.954 30.9624 37.8368 33.0672 40.087 36.5436C42.3375 40.0237 42.6501 44.3975 40.9144 48.1551C39.8111 46.1852 38.2077 44.5291 36.2624 43.3582Z"/>
</mask>
<path fill-rule="evenodd" clip-rule="evenodd" d="M61.4752 74.5956H48.0968C48.4388 78.0063 51.3329 80.6037 54.786 80.6037C58.2428 80.6037 61.1332 78.0064 61.4752 74.5956ZM49.9241 64.8379L47.6551 67.0485C47.0484 67.654 46.0885 67.727 45.3973 67.2272L42.9481 65.4434V67.9823C42.9518 69.7187 44.3712 71.1268 46.1217 71.1304H63.4417C65.1884 71.1195 66.6006 69.7151 66.6042 67.9823V64.8379L49.9241 64.8379ZM34.3796 13.4763C35.1923 13.5274 35.8579 14.1329 35.9829 14.9318L36.6412 19.1341C38.5093 19.6558 40.3111 20.3927 42.0064 21.3301L45.3749 18.8934V18.8897C46.0699 18.3134 47.0922 18.3571 47.7284 18.9955L54.0645 25.2698C54.6713 25.8754 54.7485 26.8275 54.2447 27.5206L51.711 30.9496V30.9459C52.6524 32.613 53.3916 34.3859 53.9137 36.2243L57.9992 36.859C58.9223 36.9138 59.6357 37.6725 59.6283 38.5845V47.467C59.6247 48.3133 59.0032 49.0356 58.1611 49.1669L53.9247 49.8198C53.3805 51.6584 52.6193 53.4276 51.6558 55.0873L54.1233 58.4287C54.7006 59.1181 54.6565 60.1286 54.0203 60.7633L53.3988 61.3798H67.02C69.083 54.3212 73.4959 48.1201 77.0743 41.9735V41.9772C80.4869 36.0677 81.4062 29.0565 79.63 22.4756C77.8538 15.8986 73.5292 10.2805 67.5941 6.85519C62.192 3.76546 55.8416 2.73309 49.7262 3.95513C43.6144 5.17352 38.1573 8.56235 34.3803 13.4832L34.3796 13.4763ZM39.3588 65.9576H39.3625C38.4726 66.3223 37.5642 66.6324 36.6412 66.8914L36.0087 70.9624C35.9462 71.8707 35.185 72.5748 34.2693 72.5785H25.3149C24.4581 72.5785 23.7263 71.962 23.5939 71.123L22.9357 66.9206H22.932C21.0823 66.3954 19.2987 65.6621 17.6146 64.7319L14.2461 67.1687V67.1723C13.5548 67.7523 12.5288 67.7086 11.8926 67.0665L5.56748 60.7922H5.5638C4.96071 60.1903 4.88716 59.2382 5.39464 58.5525L7.91732 55.0871C6.98327 53.4163 6.24416 51.6471 5.71462 49.8123L1.6291 49.1849C0.713435 49.1229 0.00367149 48.3678 0 47.4558V38.5842C0.00367713 37.716 0.65825 36.9865 1.52611 36.8771L5.75143 36.2241C6.28097 34.3855 7.02016 32.6164 7.95413 30.9457L5.49763 27.6043C4.9166 26.9185 4.96073 25.9044 5.6006 25.2697L11.8816 18.9954C12.4883 18.3898 13.4518 18.3169 14.1394 18.8276L17.5962 21.33C19.2768 20.3998 21.064 19.6666 22.9136 19.145L23.5535 15.0923C23.6197 14.184 24.3772 13.4763 25.2966 13.4763H30.1433C34.1553 7.16186 40.4734 2.63896 47.7759 0.84411C55.0755 -0.947008 62.7941 0.136432 69.3068 3.86454C76.0511 7.74216 80.9718 14.1079 82.9939 21.575C85.0127 29.0421 83.9684 37.0021 80.0851 43.7025C79.1437 45.271 78.4193 46.504 77.6655 47.737C74.6169 52.7345 71.4728 57.8963 70.1342 63.306V67.9753C70.1305 71.0285 68.016 73.6842 65.0226 74.3991C64.7395 79.7797 60.2568 84 54.8216 84C49.3901 84 44.9076 79.7795 44.6242 74.3991C41.6309 73.6805 39.5237 71.0285 39.52 67.9753V65.9106L39.3987 65.9654L39.3588 65.9576ZM34.6996 63.8199C34.0082 63.9731 33.4823 64.5349 33.372 65.228L32.78 69.0946H26.8042L26.2195 65.3593C26.1533 64.6078 25.6127 63.984 24.8736 63.8089C22.612 63.2799 20.4497 62.3935 18.4712 61.1861C17.8682 60.8104 17.0959 60.8395 16.5222 61.259L13.3413 63.5571L9.05718 59.373L11.3372 56.2724C11.7968 55.7033 11.8446 54.9045 11.4585 54.2843C10.2193 52.3145 9.31833 50.1549 8.78512 47.897C8.61964 47.2112 8.05333 46.6968 7.35465 46.5875L3.46768 45.9819L3.464 40.0615L7.22963 39.4742C7.98349 39.4122 8.61236 38.876 8.78511 38.1464C9.32569 35.8774 10.2377 33.7142 11.4843 31.7407C11.83 31.1571 11.8006 30.4276 11.4108 29.873L9.05725 26.6702L13.2752 22.4861L16.401 24.7478C16.9746 25.2074 17.7837 25.2512 18.4051 24.8573C20.402 23.6352 22.5863 22.7452 24.8736 22.2162C25.565 22.0521 26.0909 21.494 26.2012 20.7973L26.8043 16.9415L32.7801 16.9379L33.3648 20.6732C33.4236 21.4247 33.9642 22.0522 34.6997 22.2236C36.9797 22.7526 39.153 23.6462 41.1387 24.8683C41.7418 25.2403 42.514 25.2148 43.0877 24.8026L46.2686 22.4971L50.4792 26.6703L48.1992 29.771C47.7543 30.34 47.7138 31.1279 48.0963 31.7408C49.3356 33.7107 50.2328 35.8665 50.7623 38.1281C50.9205 38.8103 51.4831 39.3283 52.1818 39.434L56.0688 40.0396V45.96L52.3031 46.5473L52.3068 46.5509C51.553 46.6202 50.9278 47.1638 50.7623 47.897C50.2365 50.1587 49.3356 52.3145 48.0963 54.2843C47.7212 54.8825 47.7506 55.6486 48.1735 56.2176L50.4792 59.373L46.2612 63.5571L43.1355 61.2954C42.5581 60.8431 41.7565 60.7993 41.1313 61.186L40.6312 61.4851C40.4436 61.5508 40.2635 61.6493 40.1053 61.7733C39.4287 62.1454 38.73 62.4773 38.0165 62.7728C36.9391 63.2178 35.8285 63.568 34.6922 63.827L34.6996 63.8199ZM29.7682 27.3887C33.9494 27.385 37.9614 29.0265 40.9182 31.9557C43.8785 34.8849 45.5444 38.8611 45.5481 43.0088C45.5481 47.1563 43.8933 51.1361 40.9367 54.0692C37.9838 57.0021 33.9755 58.6509 29.7942 58.6546C25.613 58.6546 21.6047 57.0094 18.6442 54.0766C15.6876 51.1474 14.0291 47.1676 14.0291 43.0199C14.0254 38.8796 15.6839 34.9034 18.6332 31.9706C21.5861 29.0414 25.5908 27.3923 29.7682 27.3887ZM54.771 12.8188C54.2856 12.8553 53.8076 12.6875 53.4509 12.3592C53.0942 12.0309 52.8919 11.5712 52.8919 11.0897C52.8919 10.6045 53.0942 10.1449 53.4509 9.81657C53.8076 9.48827 54.2857 9.32046 54.771 9.35694C60.0149 9.35694 65.0455 11.4216 68.7528 15.0986C72.4601 18.7756 74.5409 23.7658 74.5409 28.9681C74.4748 29.8728 73.7135 30.5768 72.7942 30.5768C71.8785 30.5768 71.1173 29.8728 71.0511 28.9681C71.0437 24.6892 69.3301 20.589 66.2852 17.5612C63.2366 14.5371 59.1033 12.8299 54.7897 12.819L54.771 12.8188ZM32.3571 37.8646C31.32 36.8322 29.7535 36.5222 28.3966 37.0803C27.036 37.6347 26.1497 38.9516 26.1497 40.4107C26.1497 41.8699 27.036 43.1832 28.3966 43.7412C29.7535 44.2993 31.3201 43.9893 32.3571 42.9569C33.7655 41.5452 33.7655 39.2763 32.3571 37.8646ZM38.6159 51.4819C36.3102 53.864 33.122 55.21 29.7902 55.21C26.4622 55.21 23.2739 53.864 20.9646 51.4819C21.7442 49.1728 23.3732 47.2431 25.5208 46.0758C28.0508 47.9508 31.5222 47.9508 34.0523 46.0758C36.2036 47.2431 37.8363 49.1728 38.6159 51.4819ZM36.2624 43.3582C37.2773 41.1694 37.0972 38.6197 35.7844 36.5914C34.4752 34.5632 32.2136 33.3376 29.7866 33.3376C27.3595 33.3376 25.0979 34.5632 23.7888 36.5914C22.476 38.6197 22.2958 41.1694 23.3107 43.3582C21.3691 44.5328 19.7658 46.1852 18.6588 48.1551C16.9231 44.3978 17.2357 40.0241 19.4899 36.5436C21.7405 33.0672 25.6201 30.9624 29.787 30.9624C33.954 30.9624 37.8368 33.0672 40.087 36.5436C42.3375 40.0237 42.6501 44.3975 40.9144 48.1551C39.8111 46.1852 38.2077 44.5291 36.2624 43.3582Z" fill="black" stroke="white" stroke-width="0.8" mask="url(#path-2-inside-1_373_290)"/>
</svg>
