<svg width="88" height="88" viewBox="0 0 88 88" fill="none" xmlns="http://www.w3.org/2000/svg">
<rect width="88" height="88" fill="white"/>
<circle cx="71.5" cy="57.5" r="10.5" fill="#DD0004"/>
<path d="M54.6771 24.4V31.4135C54.6771 31.712 54.7971 32.0007 55.0078 32.2148C55.2218 32.4289 55.5103 32.5489 55.8119 32.5489H63.8297C64.1312 32.5489 64.4198 32.4289 64.6337 32.2148C64.8477 32.0039 64.9644 31.712 64.9644 31.4135C64.9644 29.7688 66.297 28.4356 67.9407 28.4356C69.5845 28.4356 70.9169 29.7689 70.9169 31.4135C70.9169 31.712 71.0369 32.0007 71.2476 32.2148C71.4616 32.4289 71.7502 32.5489 72.0517 32.5489H80.0695C80.6985 32.5489 81.2043 32.0396 81.2043 31.4135C81.1978 24.6757 78.5198 18.2167 73.7603 13.4515C69.0008 8.68928 62.5455 6.0098 55.8118 6C55.1861 6 54.6771 6.5093 54.6771 7.13541V14.1489C52.2747 14.6809 50.5628 16.8122 50.5628 19.2744C50.5628 21.7366 52.2747 23.8679 54.6771 24.3967L54.6771 24.4ZM55.8119 16.2966V16.2998C56.4376 16.2998 56.9466 15.7905 56.9466 15.1644V8.30015C62.6787 8.58887 68.0967 10.9959 72.1553 15.0574C76.2112 19.1156 78.6201 24.5396 78.9087 30.2747H73.063C72.5281 27.8709 70.398 26.1614 67.9405 26.1614C65.4829 26.1614 63.3529 27.8709 62.8179 30.2747H56.9464V23.3845C56.9464 22.7584 56.4374 22.2491 55.8116 22.2491C54.1678 22.2491 52.8354 20.9158 52.8354 19.2744C52.8354 17.6296 54.1682 16.2966 55.8119 16.2966ZM71.6007 45.0803C71.0722 45.0803 70.547 45.116 70.0218 45.1841C70.3882 43.4648 70.5697 41.7098 70.56 39.9516C70.56 39.3255 70.0542 38.8162 69.4253 38.8162H62.9183C62.3931 36.5583 60.383 34.9591 58.0648 34.9591C55.7499 34.9591 53.7398 36.5584 53.2145 38.8162H47.8488V32.4385C47.8488 32.1368 47.7289 31.8481 47.5149 31.6372C47.3042 31.4231 47.0156 31.3031 46.7141 31.3031C45.2357 31.2771 44.0491 30.0703 44.0491 28.5911C44.0491 27.1119 45.2357 25.9051 46.7141 25.8792C47.3398 25.8792 47.8489 25.3699 47.8489 24.7438V17.2307C47.8456 16.6046 47.3398 16.0985 46.7141 16.0953C41.5753 16.1018 36.5758 17.7659 32.4583 20.8412C28.3408 23.9165 25.3223 28.2374 23.8538 33.1652C22.437 33.0776 21.0169 33.1328 19.6131 33.3242C19.1527 33.3858 18.7798 33.7232 18.6664 34.1708L17.8267 37.5219C16.4131 37.9112 15.0547 38.4756 13.7805 39.199L10.8172 37.4278C10.4216 37.191 9.91914 37.217 9.55279 37.4959C7.9739 38.6897 6.56674 40.0976 5.3704 41.6742C5.09157 42.044 5.0624 42.5436 5.30232 42.9425L7.07251 45.9107C6.34952 47.1824 5.78537 48.5416 5.39959 49.956L2.05043 50.7994C1.60302 50.913 1.26583 51.286 1.20426 51.7466C0.931914 53.706 0.931914 55.6978 1.20426 57.6572C1.26586 58.1178 1.60304 58.4909 2.05043 58.6044L5.39959 59.4478C5.78865 60.8622 6.34951 62.2214 7.07575 63.4963L5.30232 66.4613C5.0624 66.8571 5.09157 67.3566 5.3704 67.7264C6.56674 69.303 7.97058 70.7076 9.54955 71.9047C9.91915 72.1836 10.4185 72.2096 10.814 71.9728L13.7805 70.2048C15.0547 70.9282 16.4164 71.4927 17.8299 71.8787L18.6696 75.2298C18.7831 75.6807 19.1592 76.0181 19.6195 76.0797C21.5778 76.3457 23.562 76.3457 25.5202 76.0797C25.9806 76.018 26.3535 75.6807 26.4669 75.233L27.3098 71.8787C28.7234 71.4927 30.0818 70.9282 31.3528 70.2048L32.5588 70.9282L32.5621 70.925C32.9965 73.1763 34.9645 74.8048 37.2567 74.8113H41.3741V76.6604V76.6571C41.3741 79.6092 43.7636 82 46.7139 82C49.6611 82 52.0537 79.6092 52.0537 76.6571V74.8113H56.1712C58.551 74.8145 60.5708 73.066 60.9144 70.7109C61.2581 68.3525 59.8186 66.1012 57.5361 65.4264C58.2332 64.1191 59.0405 62.8734 59.9482 61.7055C60.9825 64.5635 63.0315 66.9446 65.7063 68.3914C68.3811 69.8382 71.4935 70.2535 74.4502 69.5527C77.4102 68.8553 80.0072 67.0938 81.7547 64.6024C83.499 62.1143 84.2673 59.0682 83.9173 56.0479C83.5639 53.0245 82.1146 50.2379 79.8452 48.2169C77.5757 46.1959 74.6386 45.0771 71.6007 45.0803ZM31.0451 58.6982C31.2201 58.9091 31.3952 59.1167 31.5671 59.3243C29.8974 62.5813 26.6001 64.6801 22.9427 64.8164C19.2888 64.9526 15.8456 63.1003 13.939 59.9796C12.0293 56.8557 11.958 52.9434 13.7477 49.7517C15.5341 46.5595 18.9059 44.584 22.5663 44.5807C22.8159 44.5807 23.0559 44.5905 23.2958 44.6067C24.4759 50.8351 27.9288 54.9683 31.0444 58.6988L31.0451 58.6982ZM30.7598 67.918C29.3299 68.8068 27.7608 69.4589 26.1203 69.8384C25.7053 69.9357 25.3811 70.2569 25.2774 70.6689L24.4571 73.9194C23.2024 74.0427 21.9379 74.0427 20.68 73.9194L19.863 70.6689C19.7592 70.2569 19.435 69.9357 19.0201 69.8384C17.3763 69.4589 15.8071 68.8068 14.3708 67.918C14.0109 67.6909 13.5538 67.6877 13.1906 67.9083L10.3214 69.6243C9.8383 69.2253 9.36822 68.8003 8.92078 68.3527C8.47336 67.9051 8.04863 67.4379 7.6499 66.9513L9.36498 64.0772L9.36823 64.0804C9.58545 63.7171 9.58221 63.2597 9.3585 62.8996C8.46693 61.4657 7.81846 59.8956 7.43592 58.2509C7.33865 57.8357 7.02093 57.5113 6.60593 57.4075L3.36052 56.59H3.36376C3.23732 55.3346 3.23732 54.0662 3.36376 52.8107L6.60917 51.99C7.02092 51.8862 7.3419 51.5618 7.43916 51.1466C7.81849 49.5051 8.47017 47.9383 9.35851 46.5077C9.58546 46.1444 9.58869 45.687 9.36823 45.3237L7.64991 42.4495C8.04869 41.9629 8.47342 41.4958 8.92079 41.0481C9.3682 40.6005 9.8351 40.1755 10.3214 39.7765L13.1907 41.4958C13.557 41.7164 14.0109 41.7099 14.374 41.4861C15.8071 40.5973 17.3763 39.9452 19.0168 39.5624C19.4318 39.4683 19.7593 39.1472 19.863 38.732L20.68 35.4815H20.6768C21.5489 35.4004 22.4275 35.3744 23.3029 35.4101C23.0144 36.9056 22.8685 38.427 22.8685 39.9484C22.8685 40.7691 22.9074 41.5542 22.9755 42.3133C22.8393 42.3133 22.7031 42.3068 22.567 42.3068V42.31C18.1771 42.31 14.1144 44.6392 11.8942 48.4282C9.67006 52.2172 9.62142 56.8981 11.758 60.7356C13.8978 64.5733 17.9051 66.99 22.2947 67.0873C26.6846 67.1879 30.7987 64.9528 33.1069 61.2157C34.1638 62.5295 35.0943 63.9374 35.8887 65.4264C34.433 65.8643 33.2723 66.9673 32.7568 68.3946L31.9398 67.9048V67.908C31.5734 67.6875 31.1195 67.6907 30.7564 67.9178L30.7598 67.918ZM49.7814 76.6569C49.7814 78.3535 48.4068 79.729 46.7111 79.729C45.0154 79.729 43.6408 78.3535 43.6408 76.6569V74.8111H49.7814V76.6569ZM58.6847 70.0165C58.6847 71.4049 57.5596 72.5338 56.172 72.5371H37.2575C35.8666 72.5371 34.7383 71.4082 34.7383 70.0165C34.7383 68.6248 35.8666 67.4959 37.2575 67.4959H56.172C57.5597 67.4991 58.6847 68.628 58.6847 70.0165ZM55.1151 65.2251H38.3178C37.1085 62.7857 35.5911 60.5116 33.7983 58.4614L33.7756 58.4323C33.4449 58.0332 33.1142 57.6375 32.7867 57.2417C29.5997 53.4203 26.3219 49.4951 25.4012 43.4287L25.3947 43.3897V43.393C25.2261 42.2511 25.1418 41.1027 25.145 39.9511C25.1515 34.4267 27.2719 29.1128 31.0716 25.1033C34.8714 21.0939 40.0654 18.6932 45.5798 18.3948V23.7376C43.3232 24.2599 41.7249 26.2712 41.7249 28.5907C41.7249 30.9069 43.3233 32.9181 45.5798 33.4437V39.9511C45.5798 40.5772 46.0856 41.0865 46.7146 41.0865H54.2234C54.8491 41.0865 55.3581 40.5772 55.3581 39.9511C55.3841 38.4719 56.5902 37.2846 58.0685 37.2846C59.5469 37.2846 60.753 38.4719 60.7789 39.9511C60.7789 40.5772 61.2879 41.0865 61.9137 41.0865H68.2618C68.1969 42.6696 67.957 44.2365 67.542 45.7644C65.1104 46.611 63.003 48.1941 61.5084 50.2929C60.0138 52.3918 59.213 54.9027 59.2098 57.4783C59.2098 57.9455 59.2389 58.4126 59.2908 58.8797C57.6341 60.8099 56.2302 62.9412 55.1117 65.2249L55.1151 65.2251ZM71.6044 67.6095V67.6127C67.5096 67.6127 63.8168 65.144 62.2505 61.3583C60.6813 57.5726 61.5469 53.2127 64.4453 50.3157C67.3406 47.4188 71.6948 46.5527 75.4784 48.1196C79.2619 49.6864 81.7291 53.3813 81.7291 57.4789C81.7259 63.0747 77.1934 67.6096 71.6008 67.613L71.6044 67.6095ZM78.0076 52.5898V52.593C78.2215 52.8039 78.3415 53.0926 78.3415 53.3943C78.3415 53.696 78.2215 53.9847 78.0076 54.1988L69.8471 62.3703V62.3671C69.6364 62.5812 69.3479 62.7012 69.0463 62.7012C68.7448 62.7012 68.4563 62.5812 68.2423 62.3671L65.2011 59.3242C64.7959 58.8765 64.8121 58.1888 65.24 57.7606C65.6648 57.3324 66.3521 57.3162 66.8027 57.7184L69.043 59.96L76.4027 52.5929C76.8436 52.1517 77.5601 52.1517 78.0043 52.5929L78.0076 52.5898Z" fill="black"/>
</svg>
