<svg width="80" height="80" viewBox="0 0 80 80" fill="none" xmlns="http://www.w3.org/2000/svg">
<circle cx="40" cy="40" r="12" fill="#DD0004"/>
<path d="M61.7738 20.7016C62.2011 21.1275 62.7585 21.3371 63.326 21.3371C63.8835 21.3371 64.4509 21.1275 64.8782 20.7016L73.5373 12.0697L74.5654 13.0946C75.0962 13.6237 75.8739 13.8067 76.5883 13.5638C77.3026 13.3209 77.8 12.7119 77.8968 11.9632L79.0317 3.17554C79.1118 2.5666 78.9082 1.97767 78.4742 1.54169C78.037 1.10578 77.4461 0.90613 76.8352 0.985992L68.0197 2.11734C67.2687 2.21383 66.6511 2.71629 66.4141 3.42169C66.1704 4.13379 66.354 4.90911 66.8848 5.4382L67.9129 6.46306L59.2538 15.0949C58.8432 15.5042 58.6162 16.0499 58.6162 16.6422C58.6162 17.2245 58.8432 17.7735 59.2538 18.1895L61.7738 20.7016ZM70.5098 7.31471C70.9905 6.83554 70.9905 6.05354 70.5098 5.57769L69.3315 4.40308L76.4916 3.49134L75.577 10.6289L74.3987 9.4543C74.1717 9.21805 73.8579 9.09825 73.5275 9.09825C73.197 9.09825 72.8899 9.22802 72.6563 9.4543L63.3161 18.7616L61.1697 16.622L70.5098 7.31471ZM79.2552 76.8207L78.1203 68.033C78.0235 67.2843 77.5195 66.6687 76.8118 66.4325C76.0975 66.1895 75.3197 66.3726 74.789 66.9016L73.7609 67.9265L65.1017 59.2947C64.2472 58.4428 62.8619 58.4428 62.0074 59.2947L59.4704 61.8237C59.0598 62.233 58.8328 62.7787 58.8328 63.361C58.8328 63.9433 59.0598 64.4923 59.4704 64.9083L68.1295 73.5401L67.1014 74.565C66.5706 75.0941 66.387 75.8693 66.6307 76.5815C66.8744 77.2936 67.4853 77.7894 68.2363 77.8858L77.0518 79.0172C77.1386 79.0272 77.2254 79.0338 77.3055 79.0338C77.8196 79.0338 78.3169 78.8342 78.6908 78.4615C79.1348 78.0189 79.3354 77.4264 79.2552 76.8207ZM69.5784 75.5762L70.7567 74.4016C71.2374 73.9224 71.2374 73.1404 70.7567 72.6646L61.4165 63.3539L63.5629 61.2143L72.9031 70.525C73.3838 71.0042 74.1682 71.0042 74.6456 70.525L75.8239 69.3504L76.7385 76.488L69.5784 75.5762ZM18.2253 59.5205C17.8147 59.1112 17.2673 58.885 16.6831 58.885C16.099 58.885 15.5482 59.1113 15.1309 59.5205L6.47182 68.1523L5.44371 67.1275C4.91296 66.5984 4.13523 66.4154 3.42083 66.6583C2.70649 66.9012 2.20909 67.5102 2.11235 68.2588L0.977433 77.0465C0.897319 77.6555 1.10094 78.2444 1.53489 78.6804C1.90875 79.0531 2.39943 79.2527 2.92019 79.2527C3.00698 79.2527 3.08709 79.2428 3.17389 79.2361L11.9894 78.1048C12.7404 78.0083 13.358 77.5058 13.595 76.8004C13.8387 76.0883 13.6551 75.313 13.1243 74.7839L12.0962 73.759L20.7553 65.1272C21.6099 64.2754 21.6099 62.8944 20.7553 62.0426L18.2253 59.5205ZM9.4893 72.9074C9.00862 73.3865 9.00862 74.1685 9.4893 74.6444L10.6676 75.819L3.50749 76.7308L4.42211 69.5932L5.60044 70.7678C6.08112 71.247 6.86559 71.247 7.34294 70.7678L16.6831 61.457L18.8295 63.5966L9.4893 72.9074ZM3.1737 13.7999C3.88805 14.0429 4.66582 13.8598 5.19658 13.3308L6.22468 12.3059L14.8838 20.9377C15.3111 21.3636 15.8685 21.5733 16.426 21.5733C16.9834 21.5733 17.5509 21.3636 17.9782 20.9377L20.5152 18.4087C21.3697 17.5569 21.3697 16.1759 20.5152 15.3241L11.8561 6.69227L12.8842 5.66741C13.4149 5.13834 13.5985 4.36306 13.3548 3.65091C13.1111 2.93881 12.5003 2.44298 11.7492 2.34655L2.93031 1.21189C2.32946 1.13535 1.72865 1.34166 1.30137 1.76758C0.864086 2.20349 0.663806 2.79245 0.74392 3.40143L1.87884 12.1891C1.96229 12.9378 2.46939 13.5571 3.1737 13.7999ZM10.4207 4.64594L9.24234 5.82056C9.00534 6.04683 8.88517 6.35962 8.88517 6.68902C8.88517 7.0118 9.01535 7.32458 9.24234 7.55748L18.5825 16.8682L16.4362 19.0078L7.0994 9.69708C6.85571 9.45417 6.54194 9.34103 6.22819 9.34103C5.91441 9.34103 5.60063 9.46415 5.35698 9.69708L4.17865 10.8717L3.26403 3.73412L10.4207 4.64594ZM59.9672 53.6172C59.9672 53.2944 59.837 52.9816 59.61 52.7487L57.5772 50.7223C58.622 48.9853 59.3997 47.1251 59.8871 45.1586H62.7545C63.4355 45.1586 63.9829 44.6096 63.9829 43.9341V36.2841C63.9829 35.6052 63.4321 35.0595 62.7545 35.0595H59.8871C59.3897 33.0963 58.6219 31.2362 57.5772 29.4959L59.61 27.4694C60.0907 26.9903 60.0907 26.2083 59.61 25.7324L54.1856 20.3251C53.9587 20.0889 53.6449 19.9691 53.3144 19.9691C52.9906 19.9691 52.6769 20.0988 52.4432 20.3251L50.4103 22.3516C48.6678 21.31 46.8019 20.5348 44.8291 20.049V17.1906C44.8291 16.5117 44.2784 15.966 43.6007 15.966H35.9265C35.2455 15.966 34.6981 16.5151 34.6981 17.1906V20.049C32.7286 20.5448 30.8626 21.3101 29.1169 22.3516L27.084 20.3251C26.6033 19.846 25.8188 19.846 25.3415 20.3251L19.9171 25.7324C19.6801 25.9587 19.5599 26.2715 19.5599 26.6009C19.5599 26.9237 19.6901 27.2364 19.9171 27.4694L21.95 29.4958C20.9051 31.2328 20.1274 33.0929 19.64 35.0594H16.7726C16.0917 35.0594 15.5442 35.6085 15.5442 36.284V43.934C15.5442 44.6129 16.095 45.1586 16.7726 45.1586H19.64C20.1374 47.1218 20.9052 48.9819 21.95 50.7222L19.9171 52.7486C19.4364 53.2278 19.4364 54.0098 19.9171 54.4857L25.3415 59.893C25.5685 60.1192 25.8823 60.249 26.2127 60.249C26.5365 60.249 26.8503 60.1192 27.0839 59.893L29.1168 57.8665C30.8593 58.908 32.7253 59.6833 34.698 60.1691V63.0275C34.698 63.7063 35.2488 64.2521 35.9264 64.2521H43.6006C44.2816 64.2521 44.8291 63.703 44.8291 63.0275V60.1691C46.7985 59.6733 48.6645 58.908 50.4103 57.8665L52.4431 59.893C52.9238 60.3721 53.7083 60.3721 54.1856 59.893L59.61 54.4857C59.837 54.2527 59.9672 53.9399 59.9672 53.6172ZM53.3044 57.2875L51.4484 55.4373C51.0312 55.0214 50.3836 54.9582 49.8962 55.281C47.9001 56.612 45.7037 57.5137 43.357 57.9829C42.7828 58.0961 42.3622 58.5985 42.3622 59.1909V61.7997H37.1481V59.1909C37.1481 58.6086 36.7309 58.1028 36.1533 57.9829C33.8067 57.5138 31.6102 56.6087 29.6141 55.281C29.1267 54.9582 28.4725 55.0214 28.0619 55.4373L26.2059 57.2875L22.5174 53.6105L24.3733 51.7604C24.7906 51.3445 24.854 50.6989 24.5302 50.2131C23.195 48.2233 22.2904 46.0338 21.8197 43.6945C21.7062 43.1221 21.2022 42.7028 20.608 42.7028H17.9909V37.5052H20.608C21.1921 37.5052 21.6995 37.0892 21.8197 36.5135C22.2904 34.1743 23.1983 31.9848 24.5302 29.9949C24.854 29.5091 24.7906 28.8569 24.3733 28.4476L22.5174 26.5975L26.2059 22.9205L28.0619 24.7707C28.4792 25.1866 29.1268 25.2498 29.6141 24.9271C31.6102 23.5961 33.8067 22.6943 36.1533 22.2251C36.7275 22.112 37.1481 21.6095 37.1481 21.0172V18.4084H42.3622V21.0172C42.3622 21.5995 42.7795 22.1052 43.357 22.2251C45.7037 22.6943 47.9101 23.5994 49.8962 24.9271C50.3836 25.2498 51.0378 25.1866 51.4484 24.7707L53.3044 22.9205L56.993 26.5975L55.137 28.4476C54.7197 28.8636 54.6563 29.5091 54.9801 29.9949C56.3153 31.9848 57.2199 34.1743 57.6906 36.5135C57.8041 37.0859 58.3082 37.5052 58.9024 37.5052H61.5194V42.7028H58.9024C58.3182 42.7028 57.8109 43.1188 57.6906 43.6945C57.22 46.0338 56.312 48.2233 54.9801 50.2131C54.6563 50.6989 54.7197 51.3511 55.137 51.7604L56.993 53.6105L53.3044 57.2875ZM39.7556 26.9403C32.4753 26.9403 26.5435 32.85 26.5435 40.1107C26.5435 47.3681 32.4719 53.2812 39.7556 53.2812C47.0359 53.2812 52.9643 47.3682 52.9643 40.1107C52.9643 32.8533 47.0459 26.9403 39.7556 26.9403ZM39.7556 50.8185C33.8338 50.8185 29.014 46.0102 29.014 40.1107C29.014 34.2077 33.8374 29.403 39.7556 29.403C45.6773 29.403 50.5075 34.2079 50.5075 40.1107C50.5075 46.0136 45.684 50.8185 39.7556 50.8185ZM43.7646 42.5962C43.7646 44.3165 42.5863 45.7674 40.9907 46.1866V47.2048C40.9907 47.8836 40.4399 48.4293 39.7623 48.4293C39.0813 48.4293 38.5338 47.8803 38.5338 47.2048V46.2398C37.6192 46.0568 36.7981 45.5344 36.2406 44.7723C35.84 44.2233 35.9602 43.4513 36.521 43.0587C37.0718 42.6594 37.8462 42.7791 38.2401 43.3382C38.4771 43.6676 38.8576 43.8673 39.2615 43.8673H40.046C40.7436 43.8673 41.3111 43.3016 41.3111 42.6061C41.3111 41.9106 40.7436 41.3449 40.046 41.3449H39.4752C37.4189 41.3449 35.7532 39.6745 35.7532 37.6347C35.7532 35.9144 36.9315 34.4635 38.5271 34.0443V33.0261C38.5271 32.3472 39.0779 31.8015 39.7555 31.8015C40.4365 31.8015 40.9839 32.3506 40.9839 33.0261V33.991C41.8986 34.1741 42.7197 34.6965 43.2772 35.4585C43.6778 36.0076 43.5576 36.7796 42.9968 37.1722C42.446 37.5715 41.6716 37.4517 41.2777 36.8927C41.0407 36.5633 40.6602 36.3636 40.2563 36.3636H39.4718C38.7742 36.3636 38.2067 36.9293 38.2067 37.6248C38.2067 38.3202 38.7741 38.886 39.4718 38.886H40.0293C42.0922 38.886 43.7646 40.5464 43.7646 42.5962Z" fill="black"/>
</svg>
