<svg width="88" height="88" viewBox="0 0 88 88" fill="none" xmlns="http://www.w3.org/2000/svg">
<rect width="88" height="88" fill="white"/>
<circle cx="21" cy="43" r="3" fill="#DD0004"/>
<circle cx="21" cy="66" r="3" fill="#DD0004"/>
<circle cx="29" cy="43" r="3" fill="#DD0004"/>
<circle cx="29" cy="66" r="3" fill="#DD0004"/>
<circle cx="13" cy="43" r="3" fill="#DD0004"/>
<circle cx="13" cy="66" r="3" fill="#DD0004"/>
<circle cx="21" cy="19" r="3" fill="#DD0004"/>
<circle cx="29" cy="19" r="3" fill="#DD0004"/>
<path fill-rule="evenodd" clip-rule="evenodd" d="M10.8752 10.0041H64.0671C68.9826 10.0566 72.9429 14.0554 72.9429 18.9747C72.9429 23.8901 68.9826 27.8924 64.0671 27.9417H59.7604V33.7457H64.0671C68.6816 33.7597 72.537 37.2618 72.9954 41.8553C73.9155 42.2961 74.8846 42.639 75.8782 42.8734C78.803 43.5416 81.8642 43.3037 84.6525 42.1947C85.1668 42.0022 85.737 42.2611 85.9295 42.7719C85.94 42.8034 85.9505 42.8349 85.961 42.8664C87.7418 49.5136 86.4893 57.8403 82.41 64.9005C78.6946 71.5022 72.5725 76.4137 65.3198 78.6044C65.1274 78.6603 64.9244 78.6568 64.739 78.5974C62.2586 77.8627 59.8935 76.7957 57.707 75.4207H10.8758C5.95686 75.3717 2 71.3694 2 66.4537C2 61.5348 5.95686 57.536 10.8758 57.4832H15.179V51.6791H10.8758C5.95686 51.6301 2 47.6278 2 42.7121C2 37.7932 5.95686 33.7909 10.8758 33.7416H15.179V27.9375H10.8758C5.95686 27.8885 2 23.8863 2 18.967C2 14.0515 5.95686 10.0493 10.8758 10L10.8752 10.0041ZM55.831 59.9771L60.0747 64.2209L60.0712 64.2174C60.0957 64.2419 60.1167 64.2628 60.1412 64.2838C61.0438 65.1165 62.4432 65.085 63.3109 64.2174L74.2509 53.2773C74.6392 52.889 74.6392 52.2593 74.2509 51.871C73.8626 51.4826 73.2328 51.4826 72.8445 51.871L61.9081 62.8074C61.8521 62.8634 61.7751 62.8949 61.6946 62.8949C61.6282 62.8949 61.5617 62.8704 61.5057 62.8319L61.4847 62.8074L57.241 58.5637C56.8527 58.1753 56.2195 58.1753 55.8311 58.5637C55.4393 58.9555 55.4391 59.5853 55.831 59.9771ZM57.7762 27.9381H17.1687V33.7421H57.7726V27.9381H57.7762ZM17.1687 51.6792V57.4833H44.5272C43.985 55.5871 43.6211 53.6454 43.4427 51.6792H17.1687ZM65.0388 73.6533C67.9251 72.6457 70.5909 71.0889 72.8859 69.0667C75.3489 66.8906 77.378 64.2737 78.8754 61.3525C80.0649 59.04 80.9326 56.5735 81.4538 54.0265C81.8736 51.9904 82.0276 49.9053 81.9156 47.8271C79.1658 48.233 76.36 48.0371 73.6976 47.2534C70.7833 46.3788 68.1139 44.8429 65.8888 42.7683H64.1851C61.9635 44.8429 59.2907 46.3787 56.3799 47.2534C53.714 48.0371 50.9082 48.233 48.1619 47.8271C48.0464 49.9053 48.2039 51.9903 48.6237 54.0265C49.1414 56.5735 50.0091 59.04 51.2021 61.3525C52.696 64.2737 54.7286 66.8906 57.1881 69.0667C59.4831 71.0889 62.149 72.6457 65.0388 73.6533ZM74.1947 70.5571C76.8431 68.2201 79.0261 65.4073 80.639 62.2621C81.9125 59.7852 82.8395 57.1473 83.3958 54.4185C83.9346 51.8366 84.071 49.1846 83.7981 46.5608C83.7666 46.2984 83.6372 46.057 83.4308 45.8926C83.2244 45.7247 82.962 45.6512 82.6996 45.6792C82.6716 45.6792 82.6436 45.6862 82.6121 45.6932C79.8377 46.2634 76.969 46.1445 74.2507 45.3503C71.5148 44.5247 69.0134 43.0553 66.9633 41.0611C66.7779 40.8827 66.533 40.7847 66.2741 40.7847H63.7971C63.5173 40.7847 63.2479 40.9037 63.0589 41.1101C61.0193 43.0797 58.5388 44.5351 55.8205 45.3538C53.1057 46.148 50.2334 46.2669 47.4591 45.6967C47.2037 45.6442 46.9343 45.7002 46.7139 45.8436C46.4935 45.9905 46.3431 46.2179 46.2906 46.4768C46.2836 46.5258 46.2766 46.5713 46.2731 46.6168C46.0107 49.2232 46.1472 51.8541 46.6859 54.415C47.2387 57.1438 48.1658 59.7852 49.4427 62.2586C51.0521 65.4038 53.2387 68.2166 55.887 70.5571C58.4654 72.8206 61.4742 74.5489 64.7313 75.637C64.9342 75.7035 65.1546 75.7035 65.3575 75.637C68.6146 74.549 71.6198 72.8242 74.1947 70.5571ZM54.9209 73.4329C53.637 72.3938 52.4405 71.2463 51.3454 70.0078H45.2265C44.6913 69.9903 44.2645 69.5495 44.2645 69.0142C44.2645 68.4755 44.6913 68.0346 45.2265 68.0171H49.7291C48.9804 67.0166 48.2912 65.9705 47.6685 64.8894H45.2265C44.6912 64.872 44.2644 64.4346 44.2644 63.8958C44.2644 63.3571 44.6912 62.9198 45.2265 62.9022H46.6049C46.0626 61.7862 45.5799 60.6422 45.1635 59.4772H10.8746C7.01923 59.4772 3.89503 62.6014 3.89503 66.4568C3.89503 70.3122 7.01923 73.4364 10.8746 73.4364L54.9209 73.4329ZM43.3307 49.6953C43.2712 47.3933 43.5371 45.0913 44.1144 42.8627C44.2578 42.3309 44.8001 42.0161 45.3319 42.1595C45.3773 42.17 45.4228 42.1875 45.4648 42.205C48.2427 43.3001 51.2899 43.5275 54.2006 42.8627C55.677 42.5094 57.0869 41.9321 58.3849 41.1449H45.2273C44.692 41.1274 44.2652 40.6866 44.2652 40.1478C44.2652 39.6125 44.692 39.1718 45.2273 39.1542H61.0234C61.3277 38.8708 61.6181 38.5805 61.891 38.2831V38.2866C62.0799 38.0837 62.3423 37.9682 62.6187 37.9682V37.9612H67.4606C67.772 37.9612 68.0624 38.1081 68.2513 38.3565C68.9895 39.1402 69.8011 39.8539 70.6792 40.4802C69.7136 37.6498 67.0582 35.7431 64.067 35.7292H10.8751C7.01977 35.7292 3.89557 38.8533 3.89557 42.7087C3.89557 46.5641 7.01977 49.6918 10.8751 49.6918L43.3307 49.6953ZM49.3831 63.899C52.7942 69.9724 58.3922 74.5237 65.0359 76.6195C71.6796 74.5203 77.2737 69.9723 80.6851 63.899C84.292 57.6576 85.5481 50.3912 84.2816 44.412C81.4163 45.3462 78.3481 45.4826 75.4128 44.8039C72.2152 44.0132 69.3079 42.3339 67.0304 39.9549H63.0386C62.7342 40.2698 62.4123 40.5741 62.0765 40.875C62.0625 40.889 62.045 40.903 62.031 40.9169C59.9284 42.7992 57.399 44.1321 54.6596 44.8038C51.7209 45.4825 48.6527 45.346 45.7874 44.4119C44.5559 50.2335 45.7139 57.2722 49.104 63.3982L49.1145 63.4192C49.2019 63.5801 49.2929 63.7376 49.3839 63.895L49.3831 63.899ZM29.4627 62.6745C27.6575 62.671 26.1006 63.948 25.7473 65.7217C25.394 67.4919 26.3421 69.2656 28.0143 69.9584C29.6831 70.6511 31.6073 70.0669 32.6114 68.566C33.6154 67.0616 33.4195 65.0604 32.1425 63.7835C31.4323 63.0698 30.4668 62.671 29.4627 62.6745ZM30.7327 65.1899C30.1275 64.5812 29.1793 64.4902 28.4657 64.966C27.752 65.4418 27.4756 66.355 27.8045 67.1491C28.1333 67.9398 28.9765 68.3911 29.8161 68.2231C30.6558 68.0552 31.261 67.317 31.261 66.4598C31.261 65.9805 31.072 65.5258 30.7327 65.1899ZM21.308 62.6745C19.4993 62.671 17.9459 63.948 17.5926 65.7217C17.2392 67.4919 18.1873 69.2656 19.8561 69.9584C21.5248 70.6512 23.4491 70.0669 24.4531 68.566C25.4572 67.0616 25.2613 65.0604 23.9843 63.7835C23.2741 63.0698 22.3121 62.671 21.308 62.6745ZM22.578 65.1899C21.9727 64.5812 21.0211 64.4902 20.3074 64.966C19.5972 65.4418 19.3208 66.355 19.6497 67.1491C19.975 67.9398 20.8182 68.3911 21.6578 68.2231C22.501 68.0552 23.1062 67.317 23.1062 66.4598C23.1062 65.9805 22.9173 65.5258 22.578 65.1899ZM13.1498 62.6745C11.3446 62.671 9.78769 63.948 9.43437 65.7217C9.08452 67.4919 10.0291 69.2656 11.7014 69.9584C13.3702 70.6511 15.2943 70.0669 16.2984 68.566C17.3025 67.0616 17.1066 65.0604 15.8296 63.7835C15.1194 63.0698 14.1538 62.671 13.1498 62.6745ZM14.4198 65.1899C13.8145 64.5812 12.8664 64.4902 12.1528 64.966C11.4391 65.4418 11.1627 66.355 11.4915 67.1491C11.8204 67.9398 12.6636 68.3911 13.5032 68.2231C14.3428 68.0552 14.9481 67.317 14.9481 66.4598C14.9481 65.9805 14.7591 65.5258 14.4198 65.1899ZM29.4636 38.9231C27.6584 38.9231 26.1015 40.2001 25.7482 41.9703C25.3949 43.7441 26.3429 45.5178 28.0152 46.2105C29.684 46.8998 31.6082 46.319 32.6122 44.8146C33.6163 43.3137 33.4204 41.3126 32.1434 40.0322C31.4332 39.322 30.4677 38.9231 29.4636 38.9231ZM30.7336 41.4386C30.1284 40.8333 29.1802 40.7389 28.4666 41.2182C27.7529 41.694 27.4765 42.6071 27.8054 43.3978C28.1342 44.1919 28.9774 44.6397 29.817 44.4718C30.6567 44.3039 31.2619 43.5657 31.2619 42.7085C31.2619 42.2327 31.0729 41.7744 30.7336 41.4386ZM21.3089 38.9231C19.5002 38.9231 17.9468 40.2001 17.5935 41.9703C17.2401 43.7441 18.1882 45.5178 19.857 46.2105C21.5258 46.8998 23.45 46.319 24.454 44.8146C25.4581 43.3137 25.2622 41.3126 23.9852 40.0322C23.275 39.322 22.313 38.9231 21.3089 38.9231ZM22.5789 41.4386C21.9736 40.8333 21.022 40.7389 20.3083 41.2182C19.5981 41.694 19.3217 42.6071 19.6506 43.3978C19.9759 44.1919 20.8191 44.6397 21.6587 44.4718C22.5019 44.3039 23.1071 43.5657 23.1071 42.7085C23.1071 42.2327 22.9182 41.7744 22.5789 41.4386ZM13.1507 38.9231C11.342 38.9231 9.78509 40.2001 9.43177 41.9703C9.07842 43.7441 10.0265 45.5213 11.6988 46.214C13.3676 46.9067 15.2952 46.3225 16.2993 44.8181C17.3034 43.3137 17.1075 41.3126 15.827 40.0321C15.1203 39.3219 14.1547 38.9231 13.1507 38.9231ZM14.4207 41.4386C13.8154 40.8333 12.8673 40.7389 12.1537 41.2182C11.44 41.694 11.1635 42.6071 11.4924 43.3978C11.8213 44.1919 12.6644 44.6397 13.5041 44.4718C14.3437 44.3039 14.949 43.5657 14.949 42.7085C14.949 42.2327 14.76 41.7744 14.4207 41.4386ZM45.2319 17.3965L63.6477 17.4C63.9136 17.407 64.176 17.3056 64.3684 17.1201C64.5608 16.9312 64.6728 16.6723 64.6728 16.4029C64.6728 16.137 64.5608 15.8782 64.3684 15.6892C64.176 15.5038 63.9136 15.4024 63.6477 15.4093H45.2283C44.6931 15.4268 44.2663 15.8677 44.2663 16.403C44.2663 16.9417 44.6931 17.3826 45.2283 17.4L45.2319 17.3965ZM45.2319 22.5184H63.6477C63.9136 22.5289 64.176 22.4274 64.3684 22.2385C64.5608 22.0531 64.6728 21.7942 64.6728 21.5248C64.6728 21.2554 64.5608 21 64.3684 20.8111C64.176 20.6257 63.9136 20.5242 63.6477 20.5312H45.2283C44.6931 20.5487 44.2663 20.9895 44.2663 21.5248C44.2663 22.0636 44.6931 22.5045 45.2283 22.5184L45.2319 22.5184ZM29.4645 15.182C27.6593 15.182 26.1024 16.459 25.7491 18.2292C25.3958 20.003 26.3438 21.7766 28.0161 22.4694C29.6849 23.1586 31.6091 22.5744 32.6131 21.0735C33.6172 19.5726 33.4213 17.5714 32.1443 16.291C31.4341 15.5808 30.4686 15.182 29.4645 15.182ZM30.7345 17.6974C30.1292 17.0922 29.1811 16.9977 28.4675 17.477C27.7538 17.9528 27.4774 18.866 27.8063 19.6566C28.1351 20.4508 28.9783 20.8986 29.8179 20.7307C30.6576 20.5627 31.2628 19.8246 31.2628 18.9674C31.2628 18.4916 31.0738 18.0333 30.7345 17.6974ZM21.3098 15.182C19.5011 15.182 17.9477 16.459 17.5944 18.2292C17.241 20.003 18.1891 21.7766 19.8579 22.4694C21.5267 23.1586 23.4508 22.5744 24.4549 21.0735C25.459 19.5726 25.2631 17.5714 23.9861 16.291C23.2759 15.5808 22.3139 15.182 21.3098 15.182ZM22.5798 17.6974C21.9745 17.0922 21.0229 16.9977 20.3092 17.477C19.599 17.9528 19.3226 18.866 19.6515 19.6566C19.9768 20.4508 20.82 20.8986 21.6596 20.7307C22.5028 20.5627 23.108 19.8246 23.108 18.9674C23.108 18.4916 22.9191 18.0333 22.5798 17.6974ZM13.1516 15.182C11.3463 15.182 9.78948 16.459 9.43616 18.2292C9.08631 20.003 10.0309 21.7766 11.7032 22.4694C13.372 23.1586 15.2961 22.5744 16.3002 21.0735C17.3043 19.5726 17.1084 17.5714 15.8314 16.291C15.1212 15.5808 14.1556 15.182 13.1516 15.182ZM14.4215 17.6974C13.8163 17.0922 12.8682 16.9977 12.1546 17.477C11.4408 17.9528 11.1644 18.866 11.4933 19.6566C11.8222 20.4508 12.6653 20.8986 13.505 20.7307C14.3446 20.5627 14.9499 19.8246 14.9499 18.9674C14.9499 18.4916 14.7609 18.0333 14.4215 17.6974ZM64.0695 11.9844H10.8777C7.02227 11.9844 3.89808 15.1086 3.89808 18.9639C3.89808 22.8193 7.02227 25.947 10.8777 25.947H64.0695C67.9249 25.947 71.0491 22.8193 71.0491 18.9639C71.0491 15.1086 67.9249 11.9844 64.0695 11.9844Z" fill="black"/>
<circle cx="13" cy="19" r="2" fill="#DD0004"/>
</svg>
