<svg width="86" height="79" viewBox="0 0 86 79" fill="none" xmlns="http://www.w3.org/2000/svg">
<rect x="10" y="44" width="8" height="16" fill="#DD0004"/>
<rect x="31" y="36" width="8" height="24" fill="#DD0004"/>
<rect x="51" y="24" width="8" height="36" fill="#DD0004"/>
<path fill-rule="evenodd" clip-rule="evenodd" d="M61.0966 58.8791V22.9546C61.0966 22.1639 60.4561 21.5234 59.6653 21.5234H51.4357C50.6449 21.5234 50.0044 22.1639 50.0044 22.9546V58.8791H40.3434V35.4067C40.3434 34.6159 39.7029 33.9755 38.9121 33.9755H30.6824C29.8917 33.9755 29.2512 34.6159 29.2512 35.4067V58.8791H19.5902V43.7084C19.5902 42.9176 18.9497 42.2771 18.1589 42.2771H9.92923C9.13847 42.2771 8.49798 42.9176 8.49798 43.7084V58.8791H1.55646C0.765697 58.8791 0.125214 59.5196 0.125214 60.3104V76.9129C0.125214 77.7036 0.765697 78.3441 1.55646 78.3441H84.5688C85.3595 78.3441 86 77.7036 86 76.9129V2.20224C86 1.41148 85.3595 0.770996 84.5688 0.770996H67.9663C67.1755 0.770996 66.535 1.41148 66.535 2.20224V58.8796L61.0966 58.8791ZM69.3978 13.2222H76.2678C77.0586 13.2222 77.6991 13.8626 77.6991 14.6534C77.6991 15.4442 77.0586 16.0846 76.2678 16.0846H69.3978V33.975H76.2678C77.0586 33.975 77.6991 34.6155 77.6991 35.4062C77.6991 36.197 77.0586 36.8375 76.2678 36.8375H69.3978V54.7278H76.2678C77.0586 54.7278 77.6991 55.3683 77.6991 56.1591C77.6991 56.9498 77.0586 57.5903 76.2678 57.5903H69.3978V60.3098C69.3978 61.1005 68.7573 61.741 67.9666 61.741H56.9462V68.611C56.9462 69.4017 56.3057 70.0422 55.515 70.0422C54.7242 70.0422 54.0837 69.4017 54.0837 68.611V61.741H36.1934V68.611C36.1934 69.4017 35.5529 70.0422 34.7621 70.0422C33.9713 70.0422 33.3309 69.4017 33.3309 68.611V61.741H15.4405V68.611C15.4405 69.4017 14.8 70.0422 14.0093 70.0422C13.2185 70.0422 12.578 69.4017 12.578 68.611V61.741H2.98844V75.481H83.1382V3.63193H69.3983L69.3978 13.2222ZM16.7279 45.1392V58.8791H11.3608V45.1392H16.7279ZM37.4808 36.8379V58.8787H32.1136V36.8379H37.4808ZM58.2336 24.3859V58.8787H52.8664V24.3859H58.2336Z" fill="black"/>
<path fill-rule="evenodd" clip-rule="evenodd" d="M49.4561 13.1187L39.1658 18.5681C38.1281 17.4982 36.6718 16.8328 35.0652 16.8328C31.9058 16.8328 29.3438 19.3947 29.3438 22.547C29.3438 22.8512 29.3689 23.1481 29.4154 23.438L18.6167 28.8159C17.5719 27.424 15.9116 26.5259 14.0438 26.5259C10.8879 26.5259 8.32599 29.0878 8.32599 32.2437C8.32599 35.3996 10.8879 37.9616 14.0438 37.9616C17.1997 37.9616 19.7617 35.3996 19.7617 32.2437C19.7617 31.979 19.7438 31.7213 19.708 31.4673L30.5571 26.0679C31.6054 27.4061 33.2335 28.2684 35.0655 28.2684C38.2178 28.2684 40.7798 25.7065 40.7798 22.547C40.7798 22.0318 40.7118 21.5308 40.583 21.0585L50.5729 15.7665C51.6177 17.1334 53.2636 18.0136 55.1171 18.0136C58.2694 18.0136 60.8313 15.4516 60.8313 12.2993C60.8313 9.13984 58.2694 6.57788 55.1171 6.57788C51.9576 6.57788 49.3956 9.13984 49.3956 12.2993C49.3956 12.5748 49.4167 12.8503 49.4561 13.1187ZM14.0436 29.3886C15.618 29.3886 16.899 30.666 16.899 32.244C16.899 33.8184 15.618 35.0993 14.0436 35.0993C12.4692 35.0993 11.1883 33.8184 11.1883 32.244C11.1883 30.666 12.4692 29.3886 14.0436 29.3886ZM35.0649 19.6955C36.6393 19.6955 37.9166 20.9729 37.9166 22.5473C37.9166 24.1253 36.6393 25.4062 35.0649 25.4062C33.4869 25.4062 32.2059 24.1253 32.2059 22.5473C32.2059 20.9729 33.4869 19.6955 35.0649 19.6955ZM55.117 9.44092C56.6914 9.44092 57.9687 10.7219 57.9687 12.2998C57.9687 13.8743 56.6914 15.1516 55.117 15.1516C53.539 15.1516 52.258 13.8743 52.258 12.2998C52.258 10.7219 53.539 9.44092 55.117 9.44092Z" fill="black"/>
</svg>
