<svg width="88" height="88" viewBox="0 0 88 88" fill="none" xmlns="http://www.w3.org/2000/svg">
<circle cx="43.5" cy="54.5" r="3.5" fill="#DD0004"/>
<path d="M31 30.5L29.5 40H34.5V37.5V32.5L37.5 28L42.5 26.5L47.5 27L51 31.5L52.5 36V40H58L57 31.5L51 23L42 20.5L34.5 23.5L31 30.5Z" fill="#DD0004"/>
<mask id="path-3-outside-1_9_219" maskUnits="userSpaceOnUse" x="1.22168" y="1.15283" width="85" height="86" fill="black">
<rect fill="white" x="1.22168" y="1.15283" width="85" height="86"/>
<path d="M84.9993 39.5437C84.9993 44.5915 80.9082 48.6865 75.8605 48.6945H69.916C69.4757 48.6945 69.1154 48.3343 69.1154 47.8939C69.1154 47.4496 69.4757 47.0933 69.916 47.0933H75.8605C79.9154 46.9412 83.1258 43.6068 83.1258 39.5517C83.1258 35.4928 79.9154 32.1623 75.8605 32.0101H72.4259C71.8054 32.0181 71.229 31.6979 70.9087 31.1655C70.5805 30.6251 70.5524 29.9566 70.8447 29.3921C72.9262 25.3171 72.73 20.4495 70.3323 16.5509C67.9346 12.648 63.6793 10.2822 59.104 10.2982C56.4821 10.2942 53.9202 11.0788 51.7465 12.5479C51.1021 12.9882 50.2974 13.1283 49.537 12.9321C48.7524 12.728 48.0878 12.2076 47.7036 11.4911C46.4226 9.15345 44.5332 7.19595 42.2395 5.83497C39.9458 4.47399 37.3279 3.75348 34.658 3.75348H34.4018C30.4628 3.75748 26.6881 5.32259 23.9021 8.10471C21.1161 10.8868 19.5469 14.6655 19.5429 18.6003V19.9373C19.5309 22.6913 17.2932 24.921 14.5352 24.921C8.55479 25.1051 3.79878 30.0087 3.79878 35.9976C3.79878 41.982 8.55428 46.8857 14.5352 47.0702H16.949C17.3893 47.0702 17.7496 47.4304 17.7496 47.8707C17.7496 48.3151 17.3893 48.6713 16.949 48.6713H14.5352C7.67811 48.4752 2.22168 42.859 2.22168 35.9981C2.22168 29.1371 7.6777 23.5207 14.5352 23.3208C15.4399 23.3208 16.3045 22.9606 16.945 22.3241C17.5815 21.6836 17.9418 20.8189 17.9418 19.9143V18.6014C17.9458 14.2381 19.683 10.0591 22.7693 6.97239C25.8556 3.89012 30.0387 2.15684 34.4024 2.15285H34.6585C37.6087 2.14884 40.5068 2.94143 43.0488 4.44257C45.5907 5.94774 47.6802 8.10526 49.1012 10.6912C49.2813 11.0195 49.5895 11.2597 49.9538 11.3437C50.2741 11.4358 50.6143 11.3798 50.8825 11.1836C53.3203 9.53436 56.1944 8.65778 59.1366 8.66578C67.1306 8.62174 73.6831 14.9865 73.8757 22.9806C73.9398 25.4585 73.3834 27.9123 72.2546 30.122C72.2145 30.186 72.2145 30.2661 72.2546 30.3341C72.2866 30.3862 72.3426 30.4142 72.4027 30.4102H75.8413C78.2671 30.4062 80.5968 31.3669 82.3141 33.0802C84.0313 34.7935 84.996 37.1192 85 39.545L84.9993 39.5437ZM55.2812 15.9025C54.8489 15.9786 54.5567 16.3829 54.6208 16.8192C54.6528 17.0314 54.7649 17.2195 54.937 17.3476C55.1091 17.4717 55.3253 17.5237 55.5374 17.4917C55.5374 17.4917 59.7526 16.8632 62.4105 19.233C64.0037 20.65 64.7802 22.9037 64.6121 25.9139C64.6041 26.126 64.6801 26.3342 64.8242 26.4903C64.9683 26.6464 65.1685 26.7385 65.3806 26.7465C65.809 26.7425 66.1572 26.4063 66.1812 25.9779C66.3414 22.4553 65.4127 19.7853 63.4472 18.0241C60.2648 15.1659 55.4855 15.8705 55.2812 15.9025ZM64.9644 43.4747V64.2343C64.9644 65.3671 64.5121 66.456 63.7114 67.2565C62.9108 68.057 61.8261 68.5055 60.6932 68.5055H26.1516C23.7939 68.5055 21.8805 66.592 21.8805 64.2343V43.4747C21.8805 41.1169 23.7939 39.2035 26.1516 39.2035H29.0659V34.2078C29.0659 26.2739 35.4986 19.8407 43.433 19.8407C51.3674 19.8407 57.8001 26.2734 57.8001 34.2078V39.2235H60.7143C63.0561 39.2355 64.9534 41.1329 64.9654 43.4746L64.9644 43.4747ZM30.6227 39.2236H34.0052V34.5281C34.0052 29.3443 38.2083 25.1452 43.3881 25.1452C48.5719 25.1452 52.771 29.3444 52.771 34.5281V39.2236H56.2415V34.2079C56.2415 27.1347 50.5053 21.3984 43.4321 21.3984C36.3589 21.3984 30.6226 27.1347 30.6226 34.2079L30.6227 39.2236ZM43.4322 26.7584C39.141 26.7624 35.6624 30.237 35.6503 34.5281V39.2236H51.2144V34.5281C51.2024 30.237 47.7234 26.7624 43.4322 26.7584ZM63.3627 43.4743C63.3627 42.0092 62.1779 40.8244 60.7128 40.8244H26.1507C24.6856 40.8244 23.5008 42.0092 23.5008 43.4743V64.2339C23.5008 65.699 24.6856 66.8878 26.1507 66.8919H60.7128C62.1779 66.8879 63.3627 65.699 63.3627 64.2339V43.4743ZM50.4128 77.0352H48.2793C48.0191 77.0352 47.8069 76.823 47.8069 76.5628V71.5471C47.8069 71.1068 47.4507 70.7465 47.0063 70.7465C46.566 70.7465 46.2057 71.1068 46.2057 71.5471V76.5628C46.2057 77.7077 47.1344 78.6363 48.2792 78.6363H50.4128C51.2254 78.5843 52.018 78.8725 52.6104 79.4289C53.2028 79.9893 53.5351 80.7619 53.5351 81.5745C53.5351 82.3871 53.2028 83.1637 52.6104 83.7202C52.0179 84.2766 51.2253 84.5648 50.4128 84.5168H36.4504C35.6378 84.5648 34.8453 84.2766 34.2528 83.7202C33.6604 83.1638 33.3282 82.3872 33.3282 81.5745C33.3282 80.7619 33.6604 79.9893 34.2528 79.4289C34.8453 78.8725 35.6379 78.5843 36.4504 78.6363H38.584C39.7288 78.6363 40.6575 77.7076 40.6575 76.5628V71.5471C40.6575 71.1068 40.2972 70.7465 39.8569 70.7465C39.4126 70.7465 39.0563 71.1068 39.0563 71.5471V76.5628C39.0563 76.6869 39.0043 76.807 38.9162 76.895C38.8281 76.9831 38.708 77.0352 38.5839 77.0352H36.4504C35.2095 76.9751 33.9926 77.4234 33.092 78.2841C32.1913 79.1408 31.6829 80.3297 31.6829 81.5745C31.6829 82.8194 32.1913 84.0083 33.092 84.8689C33.9926 85.7256 35.2095 86.1779 36.4504 86.1179H50.4127C51.6536 86.1779 52.8705 85.7256 53.7712 84.8689C54.6719 84.0083 55.1802 82.8194 55.1802 81.5745C55.1802 80.3297 54.6719 79.1407 53.7712 78.2841C52.8705 77.4235 51.6537 76.9752 50.4128 77.0352ZM38.0952 81.5705C38.0952 82.0109 38.4515 82.3711 38.8958 82.3711H47.9265C48.3668 82.3711 48.7271 82.0109 48.7271 81.5705C48.7271 81.1302 48.3668 80.7699 47.9265 80.7699H38.9158C38.6996 80.7659 38.4915 80.85 38.3394 80.9981C38.1833 81.1502 38.0952 81.3544 38.0952 81.5705ZM44.2118 77.8358V73.0322C44.2118 72.5879 43.8515 72.2316 43.4112 72.2316C42.9669 72.2316 42.6106 72.5879 42.6106 73.0322V77.8358C42.6106 78.2761 42.9669 78.6364 43.4112 78.6364C43.8515 78.6364 44.2118 78.2761 44.2118 77.8358ZM48.2348 54.543C48.2348 56.4964 47.058 58.2578 45.2525 59.0024C43.4472 59.7469 41.3696 59.3306 39.9887 57.9456C38.6116 56.5646 38.2033 54.4831 38.9599 52.6818C39.7125 50.8804 41.4777 49.7116 43.4312 49.7196C46.0933 49.7236 48.2508 51.8812 48.2548 54.5431L48.2348 54.543ZM46.6336 54.543C46.6336 53.2461 45.853 52.0812 44.6561 51.5849C43.4592 51.0885 42.0822 51.3647 41.1656 52.2774C40.2529 53.194 39.9767 54.5711 40.4731 55.7679C40.9695 56.9648 42.1343 57.7454 43.4313 57.7454C45.2006 57.7454 46.6336 56.3124 46.6336 54.543Z"/>
</mask>
<path d="M84.9993 39.5437C84.9993 44.5915 80.9082 48.6865 75.8605 48.6945H69.916C69.4757 48.6945 69.1154 48.3343 69.1154 47.8939C69.1154 47.4496 69.4757 47.0933 69.916 47.0933H75.8605C79.9154 46.9412 83.1258 43.6068 83.1258 39.5517C83.1258 35.4928 79.9154 32.1623 75.8605 32.0101H72.4259C71.8054 32.0181 71.229 31.6979 70.9087 31.1655C70.5805 30.6251 70.5524 29.9566 70.8447 29.3921C72.9262 25.3171 72.73 20.4495 70.3323 16.5509C67.9346 12.648 63.6793 10.2822 59.104 10.2982C56.4821 10.2942 53.9202 11.0788 51.7465 12.5479C51.1021 12.9882 50.2974 13.1283 49.537 12.9321C48.7524 12.728 48.0878 12.2076 47.7036 11.4911C46.4226 9.15345 44.5332 7.19595 42.2395 5.83497C39.9458 4.47399 37.3279 3.75348 34.658 3.75348H34.4018C30.4628 3.75748 26.6881 5.32259 23.9021 8.10471C21.1161 10.8868 19.5469 14.6655 19.5429 18.6003V19.9373C19.5309 22.6913 17.2932 24.921 14.5352 24.921C8.55479 25.1051 3.79878 30.0087 3.79878 35.9976C3.79878 41.982 8.55428 46.8857 14.5352 47.0702H16.949C17.3893 47.0702 17.7496 47.4304 17.7496 47.8707C17.7496 48.3151 17.3893 48.6713 16.949 48.6713H14.5352C7.67811 48.4752 2.22168 42.859 2.22168 35.9981C2.22168 29.1371 7.6777 23.5207 14.5352 23.3208C15.4399 23.3208 16.3045 22.9606 16.945 22.3241C17.5815 21.6836 17.9418 20.8189 17.9418 19.9143V18.6014C17.9458 14.2381 19.683 10.0591 22.7693 6.97239C25.8556 3.89012 30.0387 2.15684 34.4024 2.15285H34.6585C37.6087 2.14884 40.5068 2.94143 43.0488 4.44257C45.5907 5.94774 47.6802 8.10526 49.1012 10.6912C49.2813 11.0195 49.5895 11.2597 49.9538 11.3437C50.2741 11.4358 50.6143 11.3798 50.8825 11.1836C53.3203 9.53436 56.1944 8.65778 59.1366 8.66578C67.1306 8.62174 73.6831 14.9865 73.8757 22.9806C73.9398 25.4585 73.3834 27.9123 72.2546 30.122C72.2145 30.186 72.2145 30.2661 72.2546 30.3341C72.2866 30.3862 72.3426 30.4142 72.4027 30.4102H75.8413C78.2671 30.4062 80.5968 31.3669 82.3141 33.0802C84.0313 34.7935 84.996 37.1192 85 39.545L84.9993 39.5437ZM55.2812 15.9025C54.8489 15.9786 54.5567 16.3829 54.6208 16.8192C54.6528 17.0314 54.7649 17.2195 54.937 17.3476C55.1091 17.4717 55.3253 17.5237 55.5374 17.4917C55.5374 17.4917 59.7526 16.8632 62.4105 19.233C64.0037 20.65 64.7802 22.9037 64.6121 25.9139C64.6041 26.126 64.6801 26.3342 64.8242 26.4903C64.9683 26.6464 65.1685 26.7385 65.3806 26.7465C65.809 26.7425 66.1572 26.4063 66.1812 25.9779C66.3414 22.4553 65.4127 19.7853 63.4472 18.0241C60.2648 15.1659 55.4855 15.8705 55.2812 15.9025ZM64.9644 43.4747V64.2343C64.9644 65.3671 64.5121 66.456 63.7114 67.2565C62.9108 68.057 61.8261 68.5055 60.6932 68.5055H26.1516C23.7939 68.5055 21.8805 66.592 21.8805 64.2343V43.4747C21.8805 41.1169 23.7939 39.2035 26.1516 39.2035H29.0659V34.2078C29.0659 26.2739 35.4986 19.8407 43.433 19.8407C51.3674 19.8407 57.8001 26.2734 57.8001 34.2078V39.2235H60.7143C63.0561 39.2355 64.9534 41.1329 64.9654 43.4746L64.9644 43.4747ZM30.6227 39.2236H34.0052V34.5281C34.0052 29.3443 38.2083 25.1452 43.3881 25.1452C48.5719 25.1452 52.771 29.3444 52.771 34.5281V39.2236H56.2415V34.2079C56.2415 27.1347 50.5053 21.3984 43.4321 21.3984C36.3589 21.3984 30.6226 27.1347 30.6226 34.2079L30.6227 39.2236ZM43.4322 26.7584C39.141 26.7624 35.6624 30.237 35.6503 34.5281V39.2236H51.2144V34.5281C51.2024 30.237 47.7234 26.7624 43.4322 26.7584ZM63.3627 43.4743C63.3627 42.0092 62.1779 40.8244 60.7128 40.8244H26.1507C24.6856 40.8244 23.5008 42.0092 23.5008 43.4743V64.2339C23.5008 65.699 24.6856 66.8878 26.1507 66.8919H60.7128C62.1779 66.8879 63.3627 65.699 63.3627 64.2339V43.4743ZM50.4128 77.0352H48.2793C48.0191 77.0352 47.8069 76.823 47.8069 76.5628V71.5471C47.8069 71.1068 47.4507 70.7465 47.0063 70.7465C46.566 70.7465 46.2057 71.1068 46.2057 71.5471V76.5628C46.2057 77.7077 47.1344 78.6363 48.2792 78.6363H50.4128C51.2254 78.5843 52.018 78.8725 52.6104 79.4289C53.2028 79.9893 53.5351 80.7619 53.5351 81.5745C53.5351 82.3871 53.2028 83.1637 52.6104 83.7202C52.0179 84.2766 51.2253 84.5648 50.4128 84.5168H36.4504C35.6378 84.5648 34.8453 84.2766 34.2528 83.7202C33.6604 83.1638 33.3282 82.3872 33.3282 81.5745C33.3282 80.7619 33.6604 79.9893 34.2528 79.4289C34.8453 78.8725 35.6379 78.5843 36.4504 78.6363H38.584C39.7288 78.6363 40.6575 77.7076 40.6575 76.5628V71.5471C40.6575 71.1068 40.2972 70.7465 39.8569 70.7465C39.4126 70.7465 39.0563 71.1068 39.0563 71.5471V76.5628C39.0563 76.6869 39.0043 76.807 38.9162 76.895C38.8281 76.9831 38.708 77.0352 38.5839 77.0352H36.4504C35.2095 76.9751 33.9926 77.4234 33.092 78.2841C32.1913 79.1408 31.6829 80.3297 31.6829 81.5745C31.6829 82.8194 32.1913 84.0083 33.092 84.8689C33.9926 85.7256 35.2095 86.1779 36.4504 86.1179H50.4127C51.6536 86.1779 52.8705 85.7256 53.7712 84.8689C54.6719 84.0083 55.1802 82.8194 55.1802 81.5745C55.1802 80.3297 54.6719 79.1407 53.7712 78.2841C52.8705 77.4235 51.6537 76.9752 50.4128 77.0352ZM38.0952 81.5705C38.0952 82.0109 38.4515 82.3711 38.8958 82.3711H47.9265C48.3668 82.3711 48.7271 82.0109 48.7271 81.5705C48.7271 81.1302 48.3668 80.7699 47.9265 80.7699H38.9158C38.6996 80.7659 38.4915 80.85 38.3394 80.9981C38.1833 81.1502 38.0952 81.3544 38.0952 81.5705ZM44.2118 77.8358V73.0322C44.2118 72.5879 43.8515 72.2316 43.4112 72.2316C42.9669 72.2316 42.6106 72.5879 42.6106 73.0322V77.8358C42.6106 78.2761 42.9669 78.6364 43.4112 78.6364C43.8515 78.6364 44.2118 78.2761 44.2118 77.8358ZM48.2348 54.543C48.2348 56.4964 47.058 58.2578 45.2525 59.0024C43.4472 59.7469 41.3696 59.3306 39.9887 57.9456C38.6116 56.5646 38.2033 54.4831 38.9599 52.6818C39.7125 50.8804 41.4777 49.7116 43.4312 49.7196C46.0933 49.7236 48.2508 51.8812 48.2548 54.5431L48.2348 54.543ZM46.6336 54.543C46.6336 53.2461 45.853 52.0812 44.6561 51.5849C43.4592 51.0885 42.0822 51.3647 41.1656 52.2774C40.2529 53.194 39.9767 54.5711 40.4731 55.7679C40.9695 56.9648 42.1343 57.7454 43.4313 57.7454C45.2006 57.7454 46.6336 56.3124 46.6336 54.543Z" fill="black"/>
<path d="M84.9993 39.5437C84.9993 44.5915 80.9082 48.6865 75.8605 48.6945H69.916C69.4757 48.6945 69.1154 48.3343 69.1154 47.8939C69.1154 47.4496 69.4757 47.0933 69.916 47.0933H75.8605C79.9154 46.9412 83.1258 43.6068 83.1258 39.5517C83.1258 35.4928 79.9154 32.1623 75.8605 32.0101H72.4259C71.8054 32.0181 71.229 31.6979 70.9087 31.1655C70.5805 30.6251 70.5524 29.9566 70.8447 29.3921C72.9262 25.3171 72.73 20.4495 70.3323 16.5509C67.9346 12.648 63.6793 10.2822 59.104 10.2982C56.4821 10.2942 53.9202 11.0788 51.7465 12.5479C51.1021 12.9882 50.2974 13.1283 49.537 12.9321C48.7524 12.728 48.0878 12.2076 47.7036 11.4911C46.4226 9.15345 44.5332 7.19595 42.2395 5.83497C39.9458 4.47399 37.3279 3.75348 34.658 3.75348H34.4018C30.4628 3.75748 26.6881 5.32259 23.9021 8.10471C21.1161 10.8868 19.5469 14.6655 19.5429 18.6003V19.9373C19.5309 22.6913 17.2932 24.921 14.5352 24.921C8.55479 25.1051 3.79878 30.0087 3.79878 35.9976C3.79878 41.982 8.55428 46.8857 14.5352 47.0702H16.949C17.3893 47.0702 17.7496 47.4304 17.7496 47.8707C17.7496 48.3151 17.3893 48.6713 16.949 48.6713H14.5352C7.67811 48.4752 2.22168 42.859 2.22168 35.9981C2.22168 29.1371 7.6777 23.5207 14.5352 23.3208C15.4399 23.3208 16.3045 22.9606 16.945 22.3241C17.5815 21.6836 17.9418 20.8189 17.9418 19.9143V18.6014C17.9458 14.2381 19.683 10.0591 22.7693 6.97239C25.8556 3.89012 30.0387 2.15684 34.4024 2.15285H34.6585C37.6087 2.14884 40.5068 2.94143 43.0488 4.44257C45.5907 5.94774 47.6802 8.10526 49.1012 10.6912C49.2813 11.0195 49.5895 11.2597 49.9538 11.3437C50.2741 11.4358 50.6143 11.3798 50.8825 11.1836C53.3203 9.53436 56.1944 8.65778 59.1366 8.66578C67.1306 8.62174 73.6831 14.9865 73.8757 22.9806C73.9398 25.4585 73.3834 27.9123 72.2546 30.122C72.2145 30.186 72.2145 30.2661 72.2546 30.3341C72.2866 30.3862 72.3426 30.4142 72.4027 30.4102H75.8413C78.2671 30.4062 80.5968 31.3669 82.3141 33.0802C84.0313 34.7935 84.996 37.1192 85 39.545L84.9993 39.5437ZM55.2812 15.9025C54.8489 15.9786 54.5567 16.3829 54.6208 16.8192C54.6528 17.0314 54.7649 17.2195 54.937 17.3476C55.1091 17.4717 55.3253 17.5237 55.5374 17.4917C55.5374 17.4917 59.7526 16.8632 62.4105 19.233C64.0037 20.65 64.7802 22.9037 64.6121 25.9139C64.6041 26.126 64.6801 26.3342 64.8242 26.4903C64.9683 26.6464 65.1685 26.7385 65.3806 26.7465C65.809 26.7425 66.1572 26.4063 66.1812 25.9779C66.3414 22.4553 65.4127 19.7853 63.4472 18.0241C60.2648 15.1659 55.4855 15.8705 55.2812 15.9025ZM64.9644 43.4747V64.2343C64.9644 65.3671 64.5121 66.456 63.7114 67.2565C62.9108 68.057 61.8261 68.5055 60.6932 68.5055H26.1516C23.7939 68.5055 21.8805 66.592 21.8805 64.2343V43.4747C21.8805 41.1169 23.7939 39.2035 26.1516 39.2035H29.0659V34.2078C29.0659 26.2739 35.4986 19.8407 43.433 19.8407C51.3674 19.8407 57.8001 26.2734 57.8001 34.2078V39.2235H60.7143C63.0561 39.2355 64.9534 41.1329 64.9654 43.4746L64.9644 43.4747ZM30.6227 39.2236H34.0052V34.5281C34.0052 29.3443 38.2083 25.1452 43.3881 25.1452C48.5719 25.1452 52.771 29.3444 52.771 34.5281V39.2236H56.2415V34.2079C56.2415 27.1347 50.5053 21.3984 43.4321 21.3984C36.3589 21.3984 30.6226 27.1347 30.6226 34.2079L30.6227 39.2236ZM43.4322 26.7584C39.141 26.7624 35.6624 30.237 35.6503 34.5281V39.2236H51.2144V34.5281C51.2024 30.237 47.7234 26.7624 43.4322 26.7584ZM63.3627 43.4743C63.3627 42.0092 62.1779 40.8244 60.7128 40.8244H26.1507C24.6856 40.8244 23.5008 42.0092 23.5008 43.4743V64.2339C23.5008 65.699 24.6856 66.8878 26.1507 66.8919H60.7128C62.1779 66.8879 63.3627 65.699 63.3627 64.2339V43.4743ZM50.4128 77.0352H48.2793C48.0191 77.0352 47.8069 76.823 47.8069 76.5628V71.5471C47.8069 71.1068 47.4507 70.7465 47.0063 70.7465C46.566 70.7465 46.2057 71.1068 46.2057 71.5471V76.5628C46.2057 77.7077 47.1344 78.6363 48.2792 78.6363H50.4128C51.2254 78.5843 52.018 78.8725 52.6104 79.4289C53.2028 79.9893 53.5351 80.7619 53.5351 81.5745C53.5351 82.3871 53.2028 83.1637 52.6104 83.7202C52.0179 84.2766 51.2253 84.5648 50.4128 84.5168H36.4504C35.6378 84.5648 34.8453 84.2766 34.2528 83.7202C33.6604 83.1638 33.3282 82.3872 33.3282 81.5745C33.3282 80.7619 33.6604 79.9893 34.2528 79.4289C34.8453 78.8725 35.6379 78.5843 36.4504 78.6363H38.584C39.7288 78.6363 40.6575 77.7076 40.6575 76.5628V71.5471C40.6575 71.1068 40.2972 70.7465 39.8569 70.7465C39.4126 70.7465 39.0563 71.1068 39.0563 71.5471V76.5628C39.0563 76.6869 39.0043 76.807 38.9162 76.895C38.8281 76.9831 38.708 77.0352 38.5839 77.0352H36.4504C35.2095 76.9751 33.9926 77.4234 33.092 78.2841C32.1913 79.1408 31.6829 80.3297 31.6829 81.5745C31.6829 82.8194 32.1913 84.0083 33.092 84.8689C33.9926 85.7256 35.2095 86.1779 36.4504 86.1179H50.4127C51.6536 86.1779 52.8705 85.7256 53.7712 84.8689C54.6719 84.0083 55.1802 82.8194 55.1802 81.5745C55.1802 80.3297 54.6719 79.1407 53.7712 78.2841C52.8705 77.4235 51.6537 76.9752 50.4128 77.0352ZM38.0952 81.5705C38.0952 82.0109 38.4515 82.3711 38.8958 82.3711H47.9265C48.3668 82.3711 48.7271 82.0109 48.7271 81.5705C48.7271 81.1302 48.3668 80.7699 47.9265 80.7699H38.9158C38.6996 80.7659 38.4915 80.85 38.3394 80.9981C38.1833 81.1502 38.0952 81.3544 38.0952 81.5705ZM44.2118 77.8358V73.0322C44.2118 72.5879 43.8515 72.2316 43.4112 72.2316C42.9669 72.2316 42.6106 72.5879 42.6106 73.0322V77.8358C42.6106 78.2761 42.9669 78.6364 43.4112 78.6364C43.8515 78.6364 44.2118 78.2761 44.2118 77.8358ZM48.2348 54.543C48.2348 56.4964 47.058 58.2578 45.2525 59.0024C43.4472 59.7469 41.3696 59.3306 39.9887 57.9456C38.6116 56.5646 38.2033 54.4831 38.9599 52.6818C39.7125 50.8804 41.4777 49.7116 43.4312 49.7196C46.0933 49.7236 48.2508 51.8812 48.2548 54.5431L48.2348 54.543ZM46.6336 54.543C46.6336 53.2461 45.853 52.0812 44.6561 51.5849C43.4592 51.0885 42.0822 51.3647 41.1656 52.2774C40.2529 53.194 39.9767 54.5711 40.4731 55.7679C40.9695 56.9648 42.1343 57.7454 43.4313 57.7454C45.2006 57.7454 46.6336 56.3124 46.6336 54.543Z" stroke="black" stroke-width="0.452207" mask="url(#path-3-outside-1_9_219)"/>
</svg>
