<svg width="88" height="88" viewBox="0 0 88 88" fill="none" xmlns="http://www.w3.org/2000/svg">
<rect width="88" height="88" fill="white"/>
<rect x="30" y="43" width="4" height="9" fill="#DD0004"/>
<circle cx="32" cy="41" r="4" fill="#DD0004"/>
<path fill-rule="evenodd" clip-rule="evenodd" d="M40.3104 22.8448V17.1173C40.3104 16.2783 40.1243 15.4766 39.7928 14.7492C39.441 13.9745 38.9166 13.2708 38.2671 12.6721C37.5803 12.0394 36.7549 11.532 35.8347 11.1835C34.945 10.8452 33.9605 10.6591 32.9219 10.6591H30.6485C29.6099 10.6591 28.6255 10.8452 27.7357 11.1835C26.8155 11.5319 25.9901 12.0428 25.3033 12.6721C24.6504 13.2709 24.1294 13.9745 23.7776 14.7492C23.4461 15.4799 23.26 16.2783 23.26 17.1173V22.8448H40.3104ZM46.1969 22.8448H42.6718V17.1173C42.6718 15.9434 42.4079 14.8101 41.9343 13.7681C41.4471 12.7025 40.7367 11.7383 39.8639 10.9366C38.9572 10.1044 37.8747 9.4345 36.667 8.97445C35.51 8.53466 34.2447 8.29447 32.9254 8.29447H30.652C29.3293 8.29447 28.0673 8.53804 26.9104 8.97445C25.7027 9.43116 24.6167 10.1044 23.7134 10.9366C22.8373 11.7417 22.1302 12.7025 21.6431 13.7681C21.1661 14.8101 20.9056 15.94 20.9056 17.1173V22.8448H17.3805V17.1173C17.3805 15.4393 17.7425 13.8426 18.3954 12.3879C19.0788 10.8656 20.0869 9.49547 21.3318 8.34856C22.5565 7.222 24.0146 6.31195 25.6181 5.69628C27.1642 5.10087 28.8658 4.77272 30.652 4.77272H32.9254C34.7116 4.77272 36.4099 5.10088 37.9593 5.69628C39.5663 6.31537 41.021 7.222 42.2456 8.34856C43.4939 9.49538 44.4987 10.8655 45.182 12.3879C45.8349 13.8426 46.1969 15.4393 46.1969 17.1173L46.1969 22.8448ZM33.879 39.2963C33.3445 38.7617 32.6036 38.4302 31.7849 38.4302C30.9662 38.4302 30.2287 38.7617 29.6908 39.2963C29.1563 39.8308 28.8248 40.5717 28.8248 41.3904C28.8248 41.864 28.9364 42.3106 29.1326 42.7063H29.1292L29.1326 42.7097C29.3288 43.1021 29.6096 43.4472 29.9547 43.7179C30.2659 43.931 30.4689 44.2862 30.4689 44.6922V50.3993C30.4689 50.7613 30.6178 51.0894 30.8579 51.3296C31.0981 51.5698 31.4263 51.7187 31.7883 51.7187C32.1502 51.7187 32.4784 51.5698 32.7186 51.3296C32.9588 51.0894 33.1076 50.7613 33.1076 50.3993V44.6922H33.111C33.111 44.337 33.2734 43.9818 33.5779 43.7518C33.9398 43.4777 34.2375 43.1191 34.4439 42.7064H34.4473C34.6435 42.314 34.7518 41.8674 34.7518 41.3905C34.7518 40.5718 34.4202 39.8343 33.8857 39.2964L33.879 39.2963ZM31.7883 36.0655C33.2565 36.0655 34.5894 36.6609 35.5502 37.625C36.5144 38.5892 37.1098 39.9187 37.1098 41.387C37.1098 42.2328 36.9102 43.0345 36.555 43.7484L36.5516 43.7518H36.555C36.281 44.3066 35.9122 44.8038 35.4691 45.2267V50.3925C35.4691 51.4075 35.0564 52.3243 34.3899 52.9941C33.7234 53.6605 32.8033 54.0733 31.7884 54.0733C30.7734 54.0733 29.8566 53.6605 29.1868 52.9941C28.5204 52.3276 28.1076 51.4075 28.1076 50.3925V45.2233C27.6679 44.8004 27.2991 44.3031 27.0217 43.7483H27.0183C26.6631 43.0345 26.4635 42.2293 26.4635 41.3835C26.4635 39.9153 27.0589 38.5824 28.0231 37.6216C28.9873 36.6574 30.3167 36.062 31.785 36.062L31.7883 36.0655ZM57.8581 76.0865C59.7729 76.5432 61.275 76.9052 63.43 77.8761C65.5883 76.9018 67.0904 76.5432 69.0052 76.0832C69.5938 75.9411 70.223 75.7922 71.0147 75.5858C71.8198 75.3761 72.7231 75.0987 73.6365 74.7266C74.5194 74.368 75.3956 73.9248 76.167 73.3767C77.5709 72.3822 78.6805 71.0695 79.4417 69.5743C80.2164 68.0587 80.6291 66.357 80.6291 64.6147C80.6291 62.338 79.9255 60.5754 79.1372 58.5964C78.941 58.1024 78.738 57.595 78.5452 57.0842C77.9937 55.6159 77.6013 54.168 77.4525 52.6896C77.3002 51.1842 77.4017 49.6551 77.8415 48.0583C78.1967 46.7693 78.7177 45.751 79.2556 44.6989C79.3503 44.5163 79.4417 44.3336 79.5296 44.1577C79.1541 43.8633 78.4877 43.3356 77.7299 42.6759C76.7251 41.8031 75.6527 40.8998 75.0979 40.5142C74.3807 40.7476 73.5586 40.9066 72.723 41.0115C71.5017 41.1637 70.2128 41.1942 69.208 41.1468C66.7215 41.0284 65.2432 40.1759 63.4197 38.9986C61.5996 40.1793 60.1213 41.0318 57.6314 41.1468C57.4554 41.157 57.266 41.1603 57.0732 41.1637C57.0393 41.1671 57.0055 41.1671 56.9717 41.1671C56.948 41.1671 56.9243 41.1671 56.8972 41.1637C56.038 41.1705 55.0569 41.1265 54.1131 41.0081C53.2775 40.9032 52.452 40.7442 51.7382 40.5108C51.1834 40.8998 50.111 41.8031 49.1028 42.6759C48.3416 43.3356 47.6786 43.8634 47.3064 44.1509C47.3944 44.3268 47.4891 44.5095 47.5838 44.6956C48.1184 45.7476 48.6428 46.7659 48.9979 48.0549C49.4411 49.6551 49.5392 51.1808 49.387 52.6863C49.2381 54.1646 48.8457 55.6126 48.2943 57.0808C48.1014 57.595 47.9018 58.0991 47.7022 58.593C46.914 60.5721 46.2103 62.338 46.2103 64.6114C46.2103 64.9869 46.2306 65.3624 46.2678 65.7345V65.7413C46.4065 67.0877 46.7922 68.3868 47.3978 69.5709C48.1623 71.0662 49.272 72.3788 50.6725 73.3734C51.4472 73.9214 52.32 74.3646 53.203 74.7232C54.1198 75.0953 55.0197 75.3727 55.8248 75.5825C56.6164 75.7888 57.2524 75.9411 57.8444 76.0832L57.8581 76.0865ZM43.8593 64.6754H15.7023C13.5236 64.6754 11.5412 63.7824 10.1068 62.3479C8.66898 60.9101 7.77929 58.9311 7.77929 56.7525V33.1353C7.77929 30.9566 8.67236 28.9742 10.1068 27.5398C11.5446 26.102 13.5236 25.2123 15.7023 25.2123H47.8717C50.0504 25.2123 52.0328 26.1054 53.4672 27.5398C54.905 28.9776 55.7947 30.9566 55.7947 33.1353V38.7815C55.3414 38.7578 54.8711 38.7206 54.4076 38.6631C53.5551 38.5582 52.7398 38.3891 52.1309 38.1421C51.779 38 51.4069 38.0271 51.0247 38.2098C50.3988 38.5041 48.9069 39.7355 47.5706 40.8959C46.7654 41.5962 45.9738 42.3506 45.4495 42.8682C45.0266 43.0475 44.7289 43.467 44.7289 43.9575H44.7323C44.7323 44.1233 44.7661 44.2958 44.8439 44.4548C45.101 45.0096 45.2972 45.3885 45.4901 45.7674C45.9772 46.7214 46.4509 47.6517 46.7384 48.6835C47.097 49.9826 47.1782 51.2276 47.053 52.459C46.9244 53.7174 46.5828 54.9725 46.099 56.2649C45.9061 56.7825 45.7133 57.2628 45.5272 57.7331C44.6477 59.9456 43.8594 61.9178 43.8594 64.6175V64.6818L43.8593 64.6754ZM63.4398 80.3527H63.4229C63.2572 80.3527 63.088 80.3155 62.9256 80.2411C60.6929 79.1821 59.2213 78.8303 57.3132 78.3771C56.6603 78.2214 55.96 78.0523 55.2462 77.8662C54.3328 77.626 53.3212 77.3182 52.3266 76.9122C51.2982 76.4927 50.263 75.9649 49.3157 75.2951C47.5904 74.0738 46.2304 72.4669 45.3001 70.6434C44.725 69.5135 44.3089 68.299 44.0788 67.0405H15.7018C12.8702 67.0405 10.2991 65.8835 8.43511 64.0195C6.57111 62.1555 5.41406 59.5843 5.41406 56.7528V33.1356C5.41406 30.304 6.57102 27.7329 8.43511 25.8689C10.1469 24.1571 12.4541 23.0407 15.0151 22.8716V17.1205C15.0151 15.1042 15.4515 13.1793 16.2432 11.4235C17.0585 9.6068 18.2527 7.97958 19.7344 6.61624C21.1687 5.2969 22.8806 4.23122 24.7784 3.50045C26.6019 2.80017 28.5877 2.41113 30.6513 2.41113H32.9247C34.9883 2.41113 36.9742 2.80018 38.7975 3.50045C40.6954 4.23118 42.4072 5.29681 43.8416 6.61624C45.3233 7.9762 46.5175 9.6068 47.3328 11.4235C48.1244 13.1793 48.5609 15.1076 48.5609 17.1205V22.8716C51.1184 23.0407 53.4257 24.1571 55.1409 25.8689C57.0049 27.7329 58.1619 30.304 58.1619 33.1356V38.731C59.8601 38.5078 61.0476 37.7331 62.5937 36.7249L62.7865 36.5998C63.1958 36.3325 63.7101 36.3562 64.0923 36.6133L64.2649 36.7249C65.9936 37.8549 67.2758 38.6904 69.3259 38.7886C70.1987 38.8292 71.3354 38.8021 72.4451 38.6634C73.2976 38.5585 74.1129 38.3894 74.7218 38.1424C75.0736 38.0003 75.4424 38.0274 75.8213 38.2033C76.4404 38.4908 77.9356 39.7256 79.2787 40.8928C80.6725 42.1005 82.0224 43.4775 82.0359 43.5112C82.0968 43.6567 82.1238 43.8089 82.1238 43.9578H82.1272C82.1272 44.1743 82.0697 44.3773 81.9682 44.5532C81.7314 45.0539 81.5487 45.4125 81.3694 45.7677C80.8823 46.7217 80.4086 47.652 80.1211 48.6838C79.7625 49.9829 79.6813 51.2278 79.8065 52.4593C79.935 53.7177 80.2767 54.9728 80.7605 56.2651C80.9533 56.7827 81.1462 57.2631 81.3322 57.7334C82.2118 59.9459 83.0001 61.9181 83.0001 64.6178C83.0001 66.7355 82.496 68.8025 81.5555 70.6496C80.6252 72.4731 79.2652 74.08 77.5399 75.3013C76.5926 75.9745 75.5574 76.5022 74.529 76.9184C73.5344 77.3243 72.5262 77.6322 71.6094 77.8724C70.9024 78.0585 70.2055 78.2242 69.556 78.3799C67.6446 78.8366 66.1797 79.1884 63.9435 80.2472C63.7811 80.3251 63.612 80.3589 63.4462 80.3589L63.4398 80.3527ZM56.8802 59.3917C56.3592 58.9992 56.2577 58.2584 56.6502 57.7408C57.0426 57.2198 57.7835 57.1183 58.301 57.5108L62.5907 60.7483L68.3451 53.6373C68.7545 53.1332 69.4953 53.0554 69.9995 53.4681C70.5035 53.8775 70.5813 54.6183 70.1686 55.1225L63.7409 63.0624L63.7273 63.0827C63.3349 63.6037 62.594 63.7052 62.0765 63.3127L56.8768 59.3885L56.8802 59.3917Z" fill="black"/>
</svg>
