<svg width="88" height="88" viewBox="0 0 88 88" fill="none" xmlns="http://www.w3.org/2000/svg">
<path d="M49.0182 36.763V29.9004C49.0182 26.7717 47.7961 23.8161 45.5625 21.5937C43.3288 19.3714 40.3845 18.138 37.2559 18.138C30.7692 18.138 25.4932 23.4138 25.4932 29.9007V36.7558C21.9021 38.1998 19.5331 41.6442 19.5331 45.5851V52.1582C19.5331 61.8713 27.4073 69.8017 37.0822 69.8508H37.4206C47.0962 69.8019 54.9697 61.86 54.9697 52.1582V45.5851C54.9697 41.5992 52.4954 38.181 49.0096 36.767L49.0182 36.763ZM37.2556 20.3787C39.7863 20.3787 42.1741 21.3714 43.9829 23.1802C45.7841 24.9814 46.7844 27.3693 46.7844 29.9V36.1685C46.3519 36.1121 45.9195 36.0632 45.4645 36.0632H29.0503C28.6066 36.0632 28.1742 36.1008 27.7417 36.1609V29.9037C27.7417 24.658 32.0172 20.3825 37.2629 20.3825L37.2556 20.3787ZM52.7331 52.1462C52.7331 60.6258 45.8592 67.5601 37.4173 67.5977H37.0901C28.6482 67.5601 21.7744 60.6297 21.7744 52.1462V45.5731C21.7744 42.3467 23.8425 39.5453 26.9336 38.6126C27.618 38.4096 28.3212 38.3043 29.0432 38.3043H45.4573C49.4734 38.3043 52.7261 41.5683 52.7261 45.5731V52.1462L52.7331 52.1462Z" fill="black"/>
<path d="M42.4828 50.4923C42.4828 49.9057 42.385 49.3379 42.2045 48.7889C41.4712 46.6794 39.4895 45.2654 37.2672 45.2654C35.0448 45.2654 33.0518 46.6794 32.3298 48.7889C32.138 49.3379 32.0516 49.9058 32.0516 50.4923C32.0516 52.0717 32.7735 53.5533 33.9656 54.5347L33.3489 57.4527L32.9653 59.2802C32.8977 59.6073 32.9766 59.9533 33.1872 60.2127C33.3978 60.4722 33.7174 60.6264 34.0634 60.6264H40.4861C40.8245 60.6264 41.1404 60.4722 41.3622 60.2127C41.5728 59.9533 41.6593 59.6073 41.5841 59.2802L40.5838 54.5346C41.7871 53.5532 42.5091 52.0716 42.5091 50.4922L42.4828 50.4923ZM38.7487 53.0719C38.3238 53.3126 38.1132 53.8052 38.211 54.2753L39.0759 58.3966H35.4283L36.2932 54.2753C36.391 53.8052 36.1766 53.3126 35.7555 53.0719C34.8417 52.5417 34.2626 51.5528 34.2626 50.4923C34.2626 50.1539 34.319 49.8267 34.4281 49.5184C34.8417 48.3151 35.9698 47.5067 37.2483 47.5067C38.5268 47.5067 39.655 48.3151 40.0686 49.5184C40.1739 49.8268 40.2341 50.1539 40.2341 50.4923C40.2341 51.5528 39.6663 52.5417 38.7412 53.0719H38.7487Z" fill="black"/>
<path d="M73.7612 19.7443L64.6048 28.9007L61.2655 25.5615C60.8331 25.1291 60.1186 25.1291 59.6787 25.5615C59.235 25.9939 59.235 26.7084 59.6787 27.1483L63.8076 31.2772C64.0295 31.4991 64.319 31.6044 64.5973 31.6044C64.8755 31.6044 65.1764 31.4991 65.3869 31.2772L75.3407 21.3234C75.7845 20.891 75.7845 20.1765 75.3407 19.7366C74.9083 19.2929 74.1938 19.2929 73.7539 19.7366L73.7612 19.7443Z" fill="black"/>
<path d="M67.5117 10.9187C62.0441 10.9187 57.2797 13.942 54.7758 18.4093C48.0862 15.2506 42.4905 11.0541 38.1508 5.89484C37.9403 5.6429 37.6206 5.5 37.2935 5.5H37.2747C36.9362 5.5 36.6204 5.66546 36.4098 5.92492C27.9189 16.7056 18.0328 22.4325 7.01909 22.9446C6.4212 22.9747 5.95113 23.4635 5.95113 24.0615V44.9799C5.545 51.5454 6.94381 57.6108 10.0988 63.0103C12.6107 67.3122 16.2395 71.2041 20.8795 74.5506C28.7236 80.2212 36.6651 82.3759 37.0039 82.4624C37.1017 82.4925 37.1957 82.5 37.2935 82.5C37.3912 82.5 37.4853 82.4887 37.583 82.4624C37.8989 82.3759 45.4271 80.3453 53.0721 74.7424C57.577 71.4295 61.1794 67.5714 63.7594 63.2397C66.9934 57.821 68.6404 51.6879 68.6404 45.0061V40.05C76.1686 39.4709 82.1175 33.1761 82.1175 25.5121C82.1175 17.4649 75.5707 10.9183 67.5237 10.9183L67.5117 10.9187ZM51.8012 72.8932C45.3146 77.6688 38.7304 79.786 37.2941 80.2109C35.8125 79.7672 28.8408 77.5448 22.1439 72.6939C12.2016 65.4928 7.51255 56.2047 8.19699 45.0851V45.0174L8.19323 25.106C19.0904 24.2787 28.871 18.6457 37.325 8.35777C41.7433 13.3064 47.2971 17.3487 53.8441 20.44C53.2574 22.0193 52.919 23.7228 52.919 25.5127C52.919 33.1839 58.8679 39.4827 66.3961 40.0506V45.0067C66.3961 56.3747 61.4851 65.7605 51.8023 72.8861L51.8012 72.8932ZM67.5117 37.8614C60.6979 37.8614 55.1628 32.3149 55.1628 25.5125C55.1628 18.7063 60.7093 13.1636 67.5117 13.1636C74.3179 13.1636 79.8606 18.7101 79.8606 25.5125C79.8606 32.3187 74.3141 37.8614 67.5117 37.8614Z" fill="black"/>
<path d="M81.1764 25.5041C81.1764 33.1226 75.0503 39.2853 67.5097 39.2853C59.9691 39.2853 53.843 33.1226 53.843 25.5041C53.843 17.8856 59.9691 11.7228 67.5097 11.7228C75.0503 11.7228 81.1764 17.8856 81.1764 25.5041Z" fill="#DD0004" stroke="black" stroke-width="2"/>
<path d="M60.2597 25.375L64.3352 28.807C64.7207 29.1316 65.2874 29.1187 65.6577 28.7769L74.7597 20.375" stroke="black" stroke-width="2"/>
</svg>
