<svg width="88" height="88" viewBox="0 0 88 88" fill="none" xmlns="http://www.w3.org/2000/svg">
<circle cx="44" cy="51" r="3" fill="#DD0004"/>
<mask id="path-2-outside-1_9_334" maskUnits="userSpaceOnUse" x="3" y="3" width="82" height="82" fill="black">
<rect fill="white" x="3" y="3" width="82" height="82"/>
<path d="M59.6736 53.4578V42.1964C59.6736 41.0361 58.7306 40.0932 57.5704 40.0932H55.3168V33.6165C55.3168 27.4641 50.4015 22.6462 44.1256 22.6462C37.8497 22.6462 32.9345 27.4645 32.9345 33.6165V40.0932H30.6808C29.5205 40.0932 28.5777 41.0362 28.5777 42.1964V53.4543C28.5777 61.1749 34.2452 65.6016 44.1258 65.6016C54.0064 65.6016 59.6739 61.1746 59.6739 53.4569L59.6736 53.4578ZM34.3347 33.6194C34.3347 28.2528 38.6347 24.0495 44.1255 24.0495C49.6163 24.0495 53.9162 28.2526 53.9162 33.6194V40.0962H51.8566V32.6866C51.8566 28.4735 47.9277 25.9524 44.126 25.9524C40.3275 25.9524 36.3954 28.4702 36.3954 32.6866V40.0962L34.3357 40.0928L34.3347 33.6194ZM37.7954 40.0928V32.6832C37.7954 29.3463 41.0121 27.3534 44.125 27.3534C47.2347 27.3534 50.4546 29.3462 50.4546 32.6832V40.0928H37.7954ZM29.9779 53.4573V42.196C29.9779 41.8081 30.2922 41.4938 30.6801 41.4938H57.57C57.9579 41.4938 58.2722 41.8081 58.2722 42.196V53.4539C58.2722 57.0752 56.9113 59.8403 54.2296 61.6727C51.8121 63.3245 48.318 64.1972 44.1247 64.1972C39.9314 64.1972 36.4375 63.3245 34.0198 61.6727C31.3382 59.8438 29.9779 57.0786 29.9779 53.4573ZM45.877 56.7308V53.4907C46.8801 52.8855 47.5053 51.7921 47.5053 50.5984C47.5053 48.7326 45.9873 47.218 44.1249 47.218C42.2591 47.218 40.7444 48.736 40.7444 50.5984C40.7444 51.7954 41.3697 52.8855 42.3727 53.4907V56.7308C42.3727 57.6971 43.1585 58.4829 44.1249 58.4829C45.0912 58.4829 45.877 57.6971 45.877 56.7308ZM43.7738 56.7308V53.0627C43.7738 52.7819 43.6066 52.5277 43.3492 52.4174C42.6169 52.1064 42.1455 51.3909 42.1455 50.5951C42.1455 49.5017 43.0349 48.6156 44.125 48.6156C45.2183 48.6156 46.1044 49.5051 46.1044 50.5951C46.1044 51.3909 45.633 52.1064 44.9007 52.4174C44.6433 52.5277 44.4761 52.7818 44.4761 53.0627V56.7308C44.4761 56.9247 44.3189 57.0819 44.125 57.0819C43.9311 57.0819 43.7738 56.9247 43.7738 56.7308ZM84.2491 44.1247C84.2491 54.4736 80.3203 64.3003 73.1846 71.7902C73.0475 71.9339 72.8603 72.0075 72.6764 72.0075C72.5025 72.0075 72.3287 71.944 72.1916 71.8136C71.9107 71.5461 71.9007 71.1014 72.1682 70.8239C79.0562 63.5948 82.8483 54.1125 82.8483 44.1248C82.8483 36.0498 80.3873 28.3122 75.7329 21.7485C75.5089 21.4342 75.5824 20.9961 75.9001 20.7721C76.2144 20.5481 76.6524 20.6217 76.8764 20.9393C81.698 27.7404 84.2491 35.7583 84.2491 44.1247ZM16.0775 70.8237C16.345 71.1046 16.335 71.5493 16.0541 71.8134C15.917 71.9438 15.7432 72.0074 15.5693 72.0074C15.3854 72.0074 15.1981 71.9338 15.0611 71.79C7.92898 64.3001 4 54.4734 4 44.1246C4 35.7587 6.55127 27.7401 11.3729 20.9393C11.5969 20.625 12.0349 20.5481 12.3492 20.7721C12.6635 20.9962 12.7404 21.4342 12.5164 21.7485C7.86196 28.3122 5.401 36.0494 5.401 44.1248C5.401 54.1124 9.19259 63.5949 16.0775 70.8237ZM67.4769 75.8961C67.701 76.2105 67.6274 76.6485 67.3097 76.8725C60.5087 81.6974 52.4909 84.2487 44.1245 84.2487C35.7581 84.2487 27.7401 81.6974 20.9393 76.8758C20.625 76.6518 20.5481 76.2138 20.7721 75.8995C20.9961 75.5852 21.4341 75.5083 21.7484 75.7323C28.3121 80.3867 36.0494 82.8477 44.1248 82.8477C52.2001 82.8477 59.9374 80.3867 66.5011 75.7323C66.8154 75.5083 67.2529 75.5818 67.4769 75.8961ZM16.4353 16.0542C16.1678 15.7733 16.1779 15.3286 16.4587 15.0645C23.9486 7.92906 33.7753 4 44.1242 4C54.4731 4 64.2998 7.9288 71.7897 15.0645C72.0706 15.332 72.0806 15.7767 71.8131 16.0542C71.676 16.1979 71.4887 16.2715 71.3048 16.2715C71.131 16.2715 70.9571 16.208 70.82 16.0776C63.5943 9.19288 54.1112 5.40086 44.1235 5.40086C34.1359 5.40086 24.6533 9.19262 17.4245 16.0776C17.1436 16.3451 16.6994 16.335 16.4353 16.0542ZM13.0649 50.4374C12.988 50.0596 13.2321 49.6884 13.6133 49.6115C13.9911 49.5346 14.3622 49.7787 14.4391 50.1599C17.0238 62.9432 27.4561 72.5961 40.4029 74.184C40.7874 74.2308 41.0616 74.5819 41.0148 74.9664C40.9713 75.3208 40.6704 75.5816 40.3193 75.5816C40.2892 75.5816 40.2625 75.5783 40.2324 75.575C33.5918 74.7624 27.4825 71.917 22.564 67.3461C17.6654 62.7987 14.3826 56.9506 13.0649 50.4374ZM47.2376 74.9631C47.1908 74.5786 47.4649 74.2309 47.8495 74.1807C60.7928 72.5958 71.2256 62.939 73.8132 50.1566C73.8901 49.7788 74.2613 49.5313 74.6391 49.6082C75.017 49.6851 75.2644 50.0563 75.1875 50.4341C73.87 56.9477 70.5866 62.7928 65.6912 67.3398C60.7726 71.9106 54.6601 74.7562 48.0228 75.5687C47.9927 75.572 47.9659 75.5754 47.9358 75.5754C47.5814 75.5787 47.281 75.3209 47.2376 74.9631ZM13.1719 43.3849H13.1385C12.7506 43.3682 12.453 43.0405 12.4697 42.6527C12.8108 35.1728 15.8134 28.0307 20.9226 22.5438C26.005 17.0836 32.8627 13.5757 40.2328 12.6769C40.6173 12.6301 40.965 12.9043 41.0152 13.2888C41.062 13.6733 40.7878 14.0211 40.4033 14.0712C25.7043 15.8668 14.5465 27.9142 13.8712 42.7168C13.8544 43.0913 13.543 43.3849 13.1719 43.3849ZM75.1102 43.3849H75.0767C74.7056 43.3849 74.3946 43.0907 74.3779 42.7162C73.7025 27.9136 62.5448 15.8665 47.8458 14.0638C47.4612 14.017 47.1871 13.6659 47.2339 13.2814C47.2807 12.8968 47.6284 12.6227 48.0163 12.6695C55.3858 13.5723 62.2436 17.0764 67.3265 22.5364C72.4357 28.0268 75.435 35.1691 75.7793 42.6452C75.7961 43.0365 75.4985 43.3675 75.1106 43.3842L75.1102 43.3849Z"/>
</mask>
<path d="M59.6736 53.4578V42.1964C59.6736 41.0361 58.7306 40.0932 57.5704 40.0932H55.3168V33.6165C55.3168 27.4641 50.4015 22.6462 44.1256 22.6462C37.8497 22.6462 32.9345 27.4645 32.9345 33.6165V40.0932H30.6808C29.5205 40.0932 28.5777 41.0362 28.5777 42.1964V53.4543C28.5777 61.1749 34.2452 65.6016 44.1258 65.6016C54.0064 65.6016 59.6739 61.1746 59.6739 53.4569L59.6736 53.4578ZM34.3347 33.6194C34.3347 28.2528 38.6347 24.0495 44.1255 24.0495C49.6163 24.0495 53.9162 28.2526 53.9162 33.6194V40.0962H51.8566V32.6866C51.8566 28.4735 47.9277 25.9524 44.126 25.9524C40.3275 25.9524 36.3954 28.4702 36.3954 32.6866V40.0962L34.3357 40.0928L34.3347 33.6194ZM37.7954 40.0928V32.6832C37.7954 29.3463 41.0121 27.3534 44.125 27.3534C47.2347 27.3534 50.4546 29.3462 50.4546 32.6832V40.0928H37.7954ZM29.9779 53.4573V42.196C29.9779 41.8081 30.2922 41.4938 30.6801 41.4938H57.57C57.9579 41.4938 58.2722 41.8081 58.2722 42.196V53.4539C58.2722 57.0752 56.9113 59.8403 54.2296 61.6727C51.8121 63.3245 48.318 64.1972 44.1247 64.1972C39.9314 64.1972 36.4375 63.3245 34.0198 61.6727C31.3382 59.8438 29.9779 57.0786 29.9779 53.4573ZM45.877 56.7308V53.4907C46.8801 52.8855 47.5053 51.7921 47.5053 50.5984C47.5053 48.7326 45.9873 47.218 44.1249 47.218C42.2591 47.218 40.7444 48.736 40.7444 50.5984C40.7444 51.7954 41.3697 52.8855 42.3727 53.4907V56.7308C42.3727 57.6971 43.1585 58.4829 44.1249 58.4829C45.0912 58.4829 45.877 57.6971 45.877 56.7308ZM43.7738 56.7308V53.0627C43.7738 52.7819 43.6066 52.5277 43.3492 52.4174C42.6169 52.1064 42.1455 51.3909 42.1455 50.5951C42.1455 49.5017 43.0349 48.6156 44.125 48.6156C45.2183 48.6156 46.1044 49.5051 46.1044 50.5951C46.1044 51.3909 45.633 52.1064 44.9007 52.4174C44.6433 52.5277 44.4761 52.7818 44.4761 53.0627V56.7308C44.4761 56.9247 44.3189 57.0819 44.125 57.0819C43.9311 57.0819 43.7738 56.9247 43.7738 56.7308ZM84.2491 44.1247C84.2491 54.4736 80.3203 64.3003 73.1846 71.7902C73.0475 71.9339 72.8603 72.0075 72.6764 72.0075C72.5025 72.0075 72.3287 71.944 72.1916 71.8136C71.9107 71.5461 71.9007 71.1014 72.1682 70.8239C79.0562 63.5948 82.8483 54.1125 82.8483 44.1248C82.8483 36.0498 80.3873 28.3122 75.7329 21.7485C75.5089 21.4342 75.5824 20.9961 75.9001 20.7721C76.2144 20.5481 76.6524 20.6217 76.8764 20.9393C81.698 27.7404 84.2491 35.7583 84.2491 44.1247ZM16.0775 70.8237C16.345 71.1046 16.335 71.5493 16.0541 71.8134C15.917 71.9438 15.7432 72.0074 15.5693 72.0074C15.3854 72.0074 15.1981 71.9338 15.0611 71.79C7.92898 64.3001 4 54.4734 4 44.1246C4 35.7587 6.55127 27.7401 11.3729 20.9393C11.5969 20.625 12.0349 20.5481 12.3492 20.7721C12.6635 20.9962 12.7404 21.4342 12.5164 21.7485C7.86196 28.3122 5.401 36.0494 5.401 44.1248C5.401 54.1124 9.19259 63.5949 16.0775 70.8237ZM67.4769 75.8961C67.701 76.2105 67.6274 76.6485 67.3097 76.8725C60.5087 81.6974 52.4909 84.2487 44.1245 84.2487C35.7581 84.2487 27.7401 81.6974 20.9393 76.8758C20.625 76.6518 20.5481 76.2138 20.7721 75.8995C20.9961 75.5852 21.4341 75.5083 21.7484 75.7323C28.3121 80.3867 36.0494 82.8477 44.1248 82.8477C52.2001 82.8477 59.9374 80.3867 66.5011 75.7323C66.8154 75.5083 67.2529 75.5818 67.4769 75.8961ZM16.4353 16.0542C16.1678 15.7733 16.1779 15.3286 16.4587 15.0645C23.9486 7.92906 33.7753 4 44.1242 4C54.4731 4 64.2998 7.9288 71.7897 15.0645C72.0706 15.332 72.0806 15.7767 71.8131 16.0542C71.676 16.1979 71.4887 16.2715 71.3048 16.2715C71.131 16.2715 70.9571 16.208 70.82 16.0776C63.5943 9.19288 54.1112 5.40086 44.1235 5.40086C34.1359 5.40086 24.6533 9.19262 17.4245 16.0776C17.1436 16.3451 16.6994 16.335 16.4353 16.0542ZM13.0649 50.4374C12.988 50.0596 13.2321 49.6884 13.6133 49.6115C13.9911 49.5346 14.3622 49.7787 14.4391 50.1599C17.0238 62.9432 27.4561 72.5961 40.4029 74.184C40.7874 74.2308 41.0616 74.5819 41.0148 74.9664C40.9713 75.3208 40.6704 75.5816 40.3193 75.5816C40.2892 75.5816 40.2625 75.5783 40.2324 75.575C33.5918 74.7624 27.4825 71.917 22.564 67.3461C17.6654 62.7987 14.3826 56.9506 13.0649 50.4374ZM47.2376 74.9631C47.1908 74.5786 47.4649 74.2309 47.8495 74.1807C60.7928 72.5958 71.2256 62.939 73.8132 50.1566C73.8901 49.7788 74.2613 49.5313 74.6391 49.6082C75.017 49.6851 75.2644 50.0563 75.1875 50.4341C73.87 56.9477 70.5866 62.7928 65.6912 67.3398C60.7726 71.9106 54.6601 74.7562 48.0228 75.5687C47.9927 75.572 47.9659 75.5754 47.9358 75.5754C47.5814 75.5787 47.281 75.3209 47.2376 74.9631ZM13.1719 43.3849H13.1385C12.7506 43.3682 12.453 43.0405 12.4697 42.6527C12.8108 35.1728 15.8134 28.0307 20.9226 22.5438C26.005 17.0836 32.8627 13.5757 40.2328 12.6769C40.6173 12.6301 40.965 12.9043 41.0152 13.2888C41.062 13.6733 40.7878 14.0211 40.4033 14.0712C25.7043 15.8668 14.5465 27.9142 13.8712 42.7168C13.8544 43.0913 13.543 43.3849 13.1719 43.3849ZM75.1102 43.3849H75.0767C74.7056 43.3849 74.3946 43.0907 74.3779 42.7162C73.7025 27.9136 62.5448 15.8665 47.8458 14.0638C47.4612 14.017 47.1871 13.6659 47.2339 13.2814C47.2807 12.8968 47.6284 12.6227 48.0163 12.6695C55.3858 13.5723 62.2436 17.0764 67.3265 22.5364C72.4357 28.0268 75.435 35.1691 75.7793 42.6452C75.7961 43.0365 75.4985 43.3675 75.1106 43.3842L75.1102 43.3849Z" fill="black"/>
<path d="M59.6736 53.4578V42.1964C59.6736 41.0361 58.7306 40.0932 57.5704 40.0932H55.3168V33.6165C55.3168 27.4641 50.4015 22.6462 44.1256 22.6462C37.8497 22.6462 32.9345 27.4645 32.9345 33.6165V40.0932H30.6808C29.5205 40.0932 28.5777 41.0362 28.5777 42.1964V53.4543C28.5777 61.1749 34.2452 65.6016 44.1258 65.6016C54.0064 65.6016 59.6739 61.1746 59.6739 53.4569L59.6736 53.4578ZM34.3347 33.6194C34.3347 28.2528 38.6347 24.0495 44.1255 24.0495C49.6163 24.0495 53.9162 28.2526 53.9162 33.6194V40.0962H51.8566V32.6866C51.8566 28.4735 47.9277 25.9524 44.126 25.9524C40.3275 25.9524 36.3954 28.4702 36.3954 32.6866V40.0962L34.3357 40.0928L34.3347 33.6194ZM37.7954 40.0928V32.6832C37.7954 29.3463 41.0121 27.3534 44.125 27.3534C47.2347 27.3534 50.4546 29.3462 50.4546 32.6832V40.0928H37.7954ZM29.9779 53.4573V42.196C29.9779 41.8081 30.2922 41.4938 30.6801 41.4938H57.57C57.9579 41.4938 58.2722 41.8081 58.2722 42.196V53.4539C58.2722 57.0752 56.9113 59.8403 54.2296 61.6727C51.8121 63.3245 48.318 64.1972 44.1247 64.1972C39.9314 64.1972 36.4375 63.3245 34.0198 61.6727C31.3382 59.8438 29.9779 57.0786 29.9779 53.4573ZM45.877 56.7308V53.4907C46.8801 52.8855 47.5053 51.7921 47.5053 50.5984C47.5053 48.7326 45.9873 47.218 44.1249 47.218C42.2591 47.218 40.7444 48.736 40.7444 50.5984C40.7444 51.7954 41.3697 52.8855 42.3727 53.4907V56.7308C42.3727 57.6971 43.1585 58.4829 44.1249 58.4829C45.0912 58.4829 45.877 57.6971 45.877 56.7308ZM43.7738 56.7308V53.0627C43.7738 52.7819 43.6066 52.5277 43.3492 52.4174C42.6169 52.1064 42.1455 51.3909 42.1455 50.5951C42.1455 49.5017 43.0349 48.6156 44.125 48.6156C45.2183 48.6156 46.1044 49.5051 46.1044 50.5951C46.1044 51.3909 45.633 52.1064 44.9007 52.4174C44.6433 52.5277 44.4761 52.7818 44.4761 53.0627V56.7308C44.4761 56.9247 44.3189 57.0819 44.125 57.0819C43.9311 57.0819 43.7738 56.9247 43.7738 56.7308ZM84.2491 44.1247C84.2491 54.4736 80.3203 64.3003 73.1846 71.7902C73.0475 71.9339 72.8603 72.0075 72.6764 72.0075C72.5025 72.0075 72.3287 71.944 72.1916 71.8136C71.9107 71.5461 71.9007 71.1014 72.1682 70.8239C79.0562 63.5948 82.8483 54.1125 82.8483 44.1248C82.8483 36.0498 80.3873 28.3122 75.7329 21.7485C75.5089 21.4342 75.5824 20.9961 75.9001 20.7721C76.2144 20.5481 76.6524 20.6217 76.8764 20.9393C81.698 27.7404 84.2491 35.7583 84.2491 44.1247ZM16.0775 70.8237C16.345 71.1046 16.335 71.5493 16.0541 71.8134C15.917 71.9438 15.7432 72.0074 15.5693 72.0074C15.3854 72.0074 15.1981 71.9338 15.0611 71.79C7.92898 64.3001 4 54.4734 4 44.1246C4 35.7587 6.55127 27.7401 11.3729 20.9393C11.5969 20.625 12.0349 20.5481 12.3492 20.7721C12.6635 20.9962 12.7404 21.4342 12.5164 21.7485C7.86196 28.3122 5.401 36.0494 5.401 44.1248C5.401 54.1124 9.19259 63.5949 16.0775 70.8237ZM67.4769 75.8961C67.701 76.2105 67.6274 76.6485 67.3097 76.8725C60.5087 81.6974 52.4909 84.2487 44.1245 84.2487C35.7581 84.2487 27.7401 81.6974 20.9393 76.8758C20.625 76.6518 20.5481 76.2138 20.7721 75.8995C20.9961 75.5852 21.4341 75.5083 21.7484 75.7323C28.3121 80.3867 36.0494 82.8477 44.1248 82.8477C52.2001 82.8477 59.9374 80.3867 66.5011 75.7323C66.8154 75.5083 67.2529 75.5818 67.4769 75.8961ZM16.4353 16.0542C16.1678 15.7733 16.1779 15.3286 16.4587 15.0645C23.9486 7.92906 33.7753 4 44.1242 4C54.4731 4 64.2998 7.9288 71.7897 15.0645C72.0706 15.332 72.0806 15.7767 71.8131 16.0542C71.676 16.1979 71.4887 16.2715 71.3048 16.2715C71.131 16.2715 70.9571 16.208 70.82 16.0776C63.5943 9.19288 54.1112 5.40086 44.1235 5.40086C34.1359 5.40086 24.6533 9.19262 17.4245 16.0776C17.1436 16.3451 16.6994 16.335 16.4353 16.0542ZM13.0649 50.4374C12.988 50.0596 13.2321 49.6884 13.6133 49.6115C13.9911 49.5346 14.3622 49.7787 14.4391 50.1599C17.0238 62.9432 27.4561 72.5961 40.4029 74.184C40.7874 74.2308 41.0616 74.5819 41.0148 74.9664C40.9713 75.3208 40.6704 75.5816 40.3193 75.5816C40.2892 75.5816 40.2625 75.5783 40.2324 75.575C33.5918 74.7624 27.4825 71.917 22.564 67.3461C17.6654 62.7987 14.3826 56.9506 13.0649 50.4374ZM47.2376 74.9631C47.1908 74.5786 47.4649 74.2309 47.8495 74.1807C60.7928 72.5958 71.2256 62.939 73.8132 50.1566C73.8901 49.7788 74.2613 49.5313 74.6391 49.6082C75.017 49.6851 75.2644 50.0563 75.1875 50.4341C73.87 56.9477 70.5866 62.7928 65.6912 67.3398C60.7726 71.9106 54.6601 74.7562 48.0228 75.5687C47.9927 75.572 47.9659 75.5754 47.9358 75.5754C47.5814 75.5787 47.281 75.3209 47.2376 74.9631ZM13.1719 43.3849H13.1385C12.7506 43.3682 12.453 43.0405 12.4697 42.6527C12.8108 35.1728 15.8134 28.0307 20.9226 22.5438C26.005 17.0836 32.8627 13.5757 40.2328 12.6769C40.6173 12.6301 40.965 12.9043 41.0152 13.2888C41.062 13.6733 40.7878 14.0211 40.4033 14.0712C25.7043 15.8668 14.5465 27.9142 13.8712 42.7168C13.8544 43.0913 13.543 43.3849 13.1719 43.3849ZM75.1102 43.3849H75.0767C74.7056 43.3849 74.3946 43.0907 74.3779 42.7162C73.7025 27.9136 62.5448 15.8665 47.8458 14.0638C47.4612 14.017 47.1871 13.6659 47.2339 13.2814C47.2807 12.8968 47.6284 12.6227 48.0163 12.6695C55.3858 13.5723 62.2436 17.0764 67.3265 22.5364C72.4357 28.0268 75.435 35.1691 75.7793 42.6452C75.7961 43.0365 75.4985 43.3675 75.1106 43.3842L75.1102 43.3849Z" stroke="black" stroke-width="0.6" mask="url(#path-2-outside-1_9_334)"/>
<circle cx="44" cy="49" r="5" fill="#DD0004"/>
<rect x="42" y="51" width="5" height="10" rx="2.5" fill="#DD0004"/>
</svg>
