<svg width="67" height="87" viewBox="0 0 67 87" fill="none" xmlns="http://www.w3.org/2000/svg">
<path d="M47.5 60.5L52.5 57.5L54 59L57 60.5L61.5 61L65 60.5V63.5V74L59.5 81L52.5 85L49.5 84L42.5 77.5L39.5 71.5V60.5L42.5 61L47.5 60.5Z" fill="#DD0004"/>
<path fill-rule="evenodd" clip-rule="evenodd" d="M41.807 78.9112H7.7969C6.24998 78.9076 4.99844 77.651 4.99493 76.0977V74.8375H3.74339C2.19647 74.8339 0.94493 73.5773 0.94142 72.024V3.22952C0.94142 1.67623 2.19296 0.41954 3.73988 0.416016H53.8618C55.4087 0.416016 56.6602 1.67623 56.6638 3.22952V19.7718L60.4185 23.5349V23.5385C60.6083 23.7255 60.7138 23.9797 60.7138 24.248V60.1702C62.0462 60.2867 63.3821 59.9655 64.5212 59.2524C64.8271 59.0547 65.2173 59.0406 65.5372 59.2171C65.8572 59.3936 66.054 59.729 66.054 60.0961V68.7696C66.054 68.8049 66.054 68.8437 66.0505 68.879C65.8958 78.1772 61.1813 80.9417 53.545 85.4177C52.652 85.9402 53.3481 85.5307 53.545 85.4177L52.7329 85.8943V85.8907C52.4165 86.0778 52.0228 86.0743 51.7099 85.8837L50.9118 85.4142C51.1614 85.5589 51.7907 85.9331 50.9118 85.4142C47.0693 83.162 43.9649 81.344 41.8101 78.9082L41.807 78.9112ZM46.6375 71.9499L49.4465 74.7704C49.4746 74.7987 49.5027 74.8234 49.5308 74.8445C50.2094 75.4482 51.2429 75.4164 51.8828 74.7704L58.0035 68.621C58.3938 68.2291 58.3938 67.5937 58.0035 67.2019C57.6133 66.8101 56.9805 66.8101 56.5903 67.2019L50.663 73.1536L48.0474 70.5273C47.6536 70.1354 47.0208 70.1354 46.6306 70.5308C46.2404 70.9226 46.2439 71.558 46.6341 71.9499H46.6375ZM34.7971 36.0168H46.9264C47.4783 36.0168 47.9248 35.5649 47.9248 35.0107C47.9248 34.4565 47.4784 34.0081 46.9264 34.0081H34.7971C34.2451 34.0081 33.7986 34.4565 33.7986 35.0107C33.7986 35.5649 34.2451 36.0168 34.7971 36.0168ZM34.7971 32.4973H46.9264C47.4783 32.4973 47.9248 32.0455 47.9248 31.4912C47.9248 30.937 47.4784 30.4887 46.9264 30.4887H34.7971C34.2451 30.4887 33.7986 30.937 33.7986 31.4912C33.7986 32.0455 34.2451 32.4973 34.7971 32.4973ZM34.7971 28.9778H40.8616C41.1323 28.9849 41.3959 28.8825 41.5893 28.6954C41.7826 28.5048 41.8916 28.2436 41.8916 27.9718C41.8916 27.7035 41.7826 27.4423 41.5893 27.2516C41.3959 27.0645 41.1323 26.9622 40.8616 26.9692H34.7971C34.5299 26.9622 34.2662 27.0645 34.0729 27.2516C33.8795 27.4423 33.767 27.7035 33.767 27.9718C33.767 28.2436 33.8795 28.5048 34.0729 28.6954C34.2662 28.8825 34.5299 28.9849 34.7971 28.9778ZM58.7173 59.8095V25.2501H41.0089C40.4569 25.2501 40.0104 24.8017 40.0104 24.2475V6.49785H7.79312C7.35015 6.49785 6.99156 6.85792 6.98804 7.30271V76.0972C6.99156 76.542 7.35015 76.902 7.79312 76.902H40.3443C39.6271 75.6665 39.1138 74.3215 38.8291 72.9165H12.7219C12.4512 72.9271 12.1875 72.8247 11.9941 72.6341C11.8008 72.447 11.6918 72.1858 11.6918 71.9139C11.6918 71.6421 11.8008 71.3844 11.9941 71.1938C12.1875 71.0067 12.4512 70.9043 12.7219 70.9114H38.5159C38.4807 70.5796 38.4561 70.2442 38.435 69.8912L34.7753 69.8947C34.2233 69.8912 33.7768 69.4429 33.7768 68.8886V55.2057C33.7768 54.9409 33.8823 54.6867 34.0686 54.4996C34.2584 54.309 34.5116 54.2031 34.7752 54.2031H40.6428C40.91 54.2031 41.1631 54.309 41.3529 54.4961C41.5393 54.6832 41.6447 54.9409 41.6447 55.2057V59.996C42.2494 60.1443 42.8717 60.2078 43.494 60.1867V46.6067C43.494 46.0525 43.9369 45.6041 44.4889 45.6006H50.3565H50.353C50.9049 45.6006 51.3549 46.0489 51.3549 46.6032V56.5999L51.5553 56.4199H51.5518C51.935 56.0704 52.5151 56.0704 52.8948 56.4199C54.5577 57.9732 56.5475 59.131 58.7167 59.8088L58.7173 59.8095ZM38.3935 67.8864V60.0954C38.3935 59.7848 38.5376 59.4918 38.7802 59.3012C39.0263 59.1105 39.3462 59.047 39.6451 59.1247V56.2088H35.7743V67.8864L38.3935 67.8864ZM45.4915 59.8766C46.8626 59.4988 48.1669 58.9023 49.3587 58.1186V47.6094H45.4915V59.8799V59.8766ZM50.9126 85.4098C50.7755 85.3321 50.8176 85.3533 50.9126 85.4098V85.4098ZM51.9145 83.6836C51.1024 83.207 51.5946 83.4929 51.9145 83.6836V83.6836ZM51.9145 83.6836C52.122 83.8036 52.2556 83.8848 51.9145 83.6836L52.2274 83.8671L52.5403 83.6836C59.5856 79.5569 63.9307 77.0082 64.0648 68.8357V68.7686V61.7049C62.3844 62.2768 60.5738 62.3474 58.8546 61.9097C56.4148 61.2919 54.1507 60.1199 52.2312 58.4854C50.3117 60.1199 48.0441 61.2919 45.6042 61.9097C43.885 62.3474 42.0745 62.2768 40.394 61.7049V68.7686C40.4995 76.9903 44.8514 79.5464 51.9145 83.6836ZM53.5423 85.4133C53.5985 85.3816 53.6126 85.371 53.5423 85.4133V85.4133ZM52.5403 83.6871C52.8321 83.5141 53.2786 83.2529 52.5403 83.6871V83.6871ZM22.6189 15.2071C19.4935 15.2071 16.8041 17.424 16.1924 20.5023C15.5842 23.5805 17.2259 26.6623 20.1123 27.8625C22.9987 29.0627 26.3279 28.0496 28.0646 25.4408C29.8014 22.8286 29.4604 19.3514 27.2525 17.1345C26.0256 15.899 24.3556 15.2036 22.6189 15.2071ZM25.8392 18.5501C24.3029 17.0075 21.8947 16.7709 20.0877 17.9817C18.2806 19.1961 17.5775 21.5189 18.4107 23.5345C19.2404 25.5503 21.3744 26.6975 23.5049 26.2703C25.6389 25.8467 27.1716 23.9687 27.1716 21.7871C27.1752 20.5728 26.6935 19.4079 25.8392 18.5501ZM23.4978 13.3432L23.3009 11.9241H21.9333L21.7294 13.3927C21.6732 13.8092 21.3638 14.1446 20.9525 14.2328C20.0701 14.427 19.2333 14.7765 18.474 15.2636C18.1224 15.4895 17.6689 15.4683 17.3349 15.2177L16.1642 14.3316L15.1974 15.3024L16.0869 16.485C16.3541 16.838 16.3541 17.3287 16.0904 17.6852C15.6263 18.43 15.2923 19.2526 15.1025 20.1139C15.0111 20.5446 14.6489 20.8658 14.2095 20.9011L12.8032 21.0988V22.472L14.2622 22.6767H14.2658C14.6806 22.7332 15.0146 23.0474 15.1025 23.4569C15.2958 24.3429 15.6439 25.1866 16.129 25.9491C16.354 26.2986 16.3364 26.7575 16.0833 27.0893L15.1939 28.2719L16.1641 29.2391L17.3419 28.346C17.697 28.0777 18.1821 28.0777 18.5372 28.346C18.8993 28.5719 19.279 28.7696 19.6727 28.932C20.0911 29.105 20.52 29.2391 20.9594 29.3344C21.3883 29.4297 21.7083 29.7933 21.7434 30.2346L21.9403 31.6466H23.3078L23.5117 30.1781C23.568 29.7616 23.8809 29.4262 24.2887 29.338C25.1711 29.1438 26.0079 28.7943 26.7672 28.3072C27.1188 28.0813 27.5723 28.0989 27.9062 28.3531L29.084 29.2462L30.0508 28.2754L29.1613 27.0929C28.8941 26.7363 28.8906 26.2492 29.1543 25.8926C29.6219 25.1443 29.9558 24.3217 30.1422 23.4604C30.2336 23.0297 30.5992 22.712 31.0352 22.6732L32.4414 22.4755V21.0988L30.9789 20.8941H30.9825C30.5676 20.8376 30.2301 20.5234 30.1422 20.1139C30.0473 19.6727 29.9137 19.242 29.7414 18.8219C29.5692 18.4053 29.3618 18.0029 29.1192 17.6217C28.8942 17.2722 28.9118 16.8168 29.1614 16.4815L30.0508 15.2989L29.084 14.3281L27.9063 15.2213H27.9098C27.5547 15.486 27.0661 15.486 26.711 15.2213C25.9692 14.7553 25.1501 14.4199 24.2923 14.2293C23.8634 14.1375 23.5434 13.7739 23.5083 13.3326L23.4978 13.3432ZM25.1818 10.9745C25.1396 10.6851 24.9989 10.4168 24.7775 10.2226C24.556 10.032 24.2747 9.9261 23.9794 9.9261H21.2548C20.9595 9.92257 20.6783 10.032 20.4568 10.2226C20.4111 10.265 20.3689 10.3073 20.3337 10.3532C20.1826 10.5297 20.0841 10.7451 20.0525 10.9745L19.8451 12.4571L19.8486 12.4607C19.5287 12.556 19.2158 12.669 18.9099 12.796C18.604 12.9231 18.3017 13.0678 18.0099 13.2267L16.8146 12.323C16.3329 11.9559 15.6544 12.0018 15.2291 12.4324L13.299 14.3704C12.8701 14.7976 12.8244 15.4789 13.19 15.9625L14.09 17.1627C13.9318 17.4557 13.7877 17.7593 13.6611 18.0664C13.5346 18.3735 13.4221 18.6877 13.3271 19.0089L11.8506 19.2172L11.8471 19.2137C11.2494 19.2984 10.8065 19.8138 10.8029 20.4174V23.1604C10.8064 23.7675 11.2494 24.2794 11.8471 24.3641L13.3236 24.5724H13.3271C13.517 25.2113 13.7736 25.8291 14.09 26.4151L13.19 27.6153C12.8244 28.0989 12.8701 28.7803 13.299 29.2109L15.2291 31.1418C15.658 31.569 16.333 31.6149 16.8146 31.2513L18.0099 30.3476V30.344C18.3017 30.5064 18.604 30.6476 18.9099 30.7747C19.2157 30.9053 19.5286 31.0148 19.8486 31.1101L20.056 32.5927L20.0525 32.5962C20.0947 32.8857 20.2388 33.1504 20.4603 33.3446C20.6783 33.5387 20.963 33.6446 21.2548 33.6446H23.9829C24.2782 33.6446 24.5595 33.5387 24.781 33.3446C24.8267 33.3057 24.8689 33.2599 24.904 33.214C25.0552 33.0375 25.1536 32.8221 25.1853 32.5927L25.3927 31.1101H25.3892C26.0255 30.9194 26.6442 30.6653 27.2279 30.3476L28.4232 31.2513C28.9048 31.6184 29.5798 31.5725 30.0087 31.1418L31.9387 29.2038C32.3676 28.7732 32.4133 28.0954 32.0477 27.6118L31.1477 26.4116C31.4641 25.8256 31.7172 25.2078 31.9071 24.5653L33.3836 24.357V24.3606C33.9813 24.2723 34.4242 23.7604 34.4278 23.1533V20.414C34.4243 19.8103 33.9813 19.2985 33.3836 19.2103L31.9071 19.002C31.8122 18.6843 31.6997 18.3701 31.5731 18.0629C31.4466 17.7558 31.3024 17.4522 31.1442 17.1592L32.0442 15.959C32.22 15.726 32.3079 15.4366 32.2868 15.1436C32.2657 14.8506 32.1426 14.5752 31.9352 14.367L30.0052 12.429C29.7978 12.2207 29.5271 12.0971 29.2353 12.076C28.947 12.0548 28.6587 12.1395 28.4267 12.3195L27.2314 13.2232C26.6478 12.9055 26.0291 12.6478 25.3927 12.4572L25.1818 10.9745ZM18.1118 44.1649L27.8786 39.3922L37.1036 46.4983L37.1071 46.4948C37.4833 46.7842 38.0106 46.7666 38.3657 46.4524L49.3871 37.8178C49.809 37.4754 49.8758 36.8541 49.5418 36.4269C49.2078 35.9962 48.5925 35.915 48.1601 36.2434L37.7048 44.4332L28.649 37.4577L28.6525 37.4612C28.3502 37.1964 27.9213 37.1399 27.5592 37.3165L17.2371 42.3574H17.2406C16.7414 42.601 16.534 43.2011 16.7765 43.7024C17.0191 44.2001 17.6161 44.4084 18.1118 44.1649ZM25.0693 48.3586C24.8021 48.3586 24.5489 48.4645 24.3626 48.6516C24.1728 48.8422 24.0673 49.0964 24.0673 49.3611V68.8893C24.0673 69.4435 24.5173 69.8954 25.0693 69.8954H30.9368H30.9333C31.4853 69.8918 31.9318 69.4435 31.9353 68.8893V49.3647C31.9353 49.0965 31.8298 48.8423 31.64 48.6517C31.4501 48.4646 31.197 48.3587 30.9298 48.3587L25.0693 48.3586ZM29.9348 50.3637H26.0641V67.8874H29.9313V50.3673L29.9348 50.3637ZM15.3557 54.0739C14.8038 54.0739 14.3538 54.5257 14.3538 55.0764V68.8896C14.3538 69.4438 14.8038 69.8921 15.3557 69.8957H21.2233H21.2198C21.7717 69.8957 22.2182 69.4438 22.2182 68.8896V55.0764C22.2182 54.8117 22.1128 54.5575 21.9264 54.3669C21.7401 54.1798 21.4835 54.0739 21.2198 54.0739L15.3557 54.0739ZM20.2249 56.079L16.3542 56.0825V67.8867H20.2214V56.0789L20.2249 56.079ZM4.99151 72.8292V7.30341C4.99503 5.75013 6.24656 4.49344 7.79348 4.48991H41.0089C41.3007 4.48991 41.5784 4.61699 41.7683 4.83939L54.6635 17.7705V3.2299C54.6635 2.7851 54.3049 2.42504 53.8619 2.42504H3.74C3.29703 2.42504 2.93844 2.78511 2.93844 3.2299V72.0243C2.93844 72.4691 3.29704 72.8292 3.74 72.8292L4.99151 72.8292ZM57.304 23.2456L42.0076 7.9107V23.2456H57.304Z" fill="black"/>
<path d="M53.545 85.4177C61.1813 80.9417 65.8958 78.1772 66.0505 68.879C66.054 68.8437 66.054 68.8049 66.054 68.7696V60.0961C66.054 59.729 65.8572 59.3936 65.5372 59.2171C65.2173 59.0406 64.8271 59.0547 64.5212 59.2524C63.3821 59.9655 62.0462 60.2867 60.7138 60.1702V24.248C60.7138 23.9797 60.6083 23.7255 60.4185 23.5385V23.5349L56.6638 19.7718V3.22952C56.6602 1.67623 55.4087 0.416016 53.8618 0.416016H3.73988C2.19296 0.41954 0.94142 1.67623 0.94142 3.22952V72.024C0.94493 73.5773 2.19647 74.8339 3.74339 74.8375H4.99493V76.0977C4.99844 77.651 6.24998 78.9076 7.7969 78.9112H41.807L41.8101 78.9082C43.9649 81.344 47.0693 83.162 50.9118 85.4142M53.545 85.4177C52.652 85.9402 53.3481 85.5307 53.545 85.4177ZM53.545 85.4177L52.7329 85.8943V85.8907C52.4165 86.0778 52.0228 86.0743 51.7099 85.8837L50.9118 85.4142M50.9118 85.4142C51.1614 85.5589 51.7907 85.9331 50.9118 85.4142ZM51.9145 83.6836C51.1024 83.207 51.5946 83.4929 51.9145 83.6836ZM51.9145 83.6836C52.122 83.8036 52.2556 83.8848 51.9145 83.6836ZM51.9145 83.6836L52.2274 83.8671L52.5403 83.6836C59.5856 79.5569 63.9307 77.0082 64.0648 68.8357V68.7686V61.7049C62.3844 62.2768 60.5738 62.3474 58.8546 61.9097C56.4148 61.2919 54.1507 60.1199 52.2312 58.4854C50.3117 60.1199 48.0441 61.2919 45.6042 61.9097C43.885 62.3474 42.0745 62.2768 40.394 61.7049V68.7686C40.4995 76.9903 44.8514 79.5464 51.9145 83.6836ZM25.8392 18.5536V18.5501M25.8392 18.5501C24.3029 17.0075 21.8947 16.7709 20.0877 17.9817C18.2806 19.1961 17.5775 21.5189 18.4107 23.5346C19.2404 25.5503 21.3744 26.6975 23.5049 26.2703C25.6389 25.8467 27.1716 23.9687 27.1716 21.7871C27.1752 20.5728 26.6935 19.4079 25.8392 18.5501ZM46.6375 71.9499L49.4465 74.7704C49.4746 74.7987 49.5027 74.8234 49.5308 74.8445C50.2094 75.4482 51.2429 75.4164 51.8828 74.7704L58.0035 68.621C58.3938 68.2291 58.3938 67.5937 58.0035 67.2019C57.6133 66.8101 56.9805 66.8101 56.5903 67.2019L50.663 73.1536L48.0474 70.5273C47.6536 70.1354 47.0208 70.1354 46.6306 70.5308C46.2404 70.9226 46.2439 71.558 46.6341 71.9499H46.6375ZM34.7971 36.0168H46.9264C47.4783 36.0168 47.9248 35.5649 47.9248 35.0107C47.9248 34.4565 47.4784 34.0081 46.9264 34.0081H34.7971C34.2451 34.0081 33.7986 34.4565 33.7986 35.0107C33.7986 35.5649 34.2451 36.0168 34.7971 36.0168ZM34.7971 32.4973H46.9264C47.4783 32.4973 47.9248 32.0455 47.9248 31.4912C47.9248 30.937 47.4784 30.4887 46.9264 30.4887H34.7971C34.2451 30.4887 33.7986 30.937 33.7986 31.4912C33.7986 32.0455 34.2451 32.4973 34.7971 32.4973ZM34.7971 28.9778H40.8616C41.1323 28.9849 41.3959 28.8825 41.5893 28.6954C41.7826 28.5048 41.8916 28.2436 41.8916 27.9718C41.8916 27.7035 41.7826 27.4423 41.5893 27.2516C41.3959 27.0645 41.1323 26.9622 40.8616 26.9692H34.7971C34.5299 26.9622 34.2662 27.0645 34.0729 27.2516C33.8795 27.4423 33.767 27.7035 33.767 27.9718C33.767 28.2436 33.8795 28.5048 34.0729 28.6954C34.2662 28.8825 34.5299 28.9849 34.7971 28.9778ZM58.7173 59.8095V25.2501H41.0089C40.4569 25.2501 40.0104 24.8017 40.0104 24.2475V6.49785H7.79312C7.35015 6.49785 6.99156 6.85792 6.98804 7.30271V76.0972C6.99156 76.542 7.35015 76.902 7.79312 76.902H40.3443C39.6271 75.6665 39.1138 74.3215 38.8291 72.9165H12.7219C12.4512 72.9271 12.1875 72.8247 11.9941 72.6341C11.8008 72.447 11.6918 72.1858 11.6918 71.9139C11.6918 71.6421 11.8008 71.3844 11.9941 71.1938C12.1875 71.0067 12.4512 70.9043 12.7219 70.9114H38.5159C38.4807 70.5796 38.4561 70.2442 38.435 69.8912L34.7753 69.8947C34.2233 69.8912 33.7768 69.4429 33.7768 68.8886V55.2057C33.7768 54.9409 33.8823 54.6867 34.0686 54.4996C34.2584 54.309 34.5116 54.2031 34.7752 54.2031H40.6428C40.91 54.2031 41.1631 54.309 41.3529 54.4961C41.5393 54.6832 41.6447 54.9409 41.6447 55.2057V59.996C42.2494 60.1443 42.8717 60.2078 43.494 60.1867V46.6067C43.494 46.0525 43.9369 45.6041 44.4889 45.6006H50.3565H50.353C50.9049 45.6006 51.3549 46.0489 51.3549 46.6032V56.5999L51.5553 56.4199H51.5518C51.935 56.0704 52.5151 56.0704 52.8948 56.4199C54.5577 57.9732 56.5475 59.131 58.7167 59.8088L58.7173 59.8095ZM38.3935 67.8864V60.0954C38.3935 59.7848 38.5376 59.4918 38.7802 59.3012C39.0263 59.1105 39.3462 59.047 39.6451 59.1247V56.2088H35.7743V67.8864L38.3935 67.8864ZM45.4915 59.8766C46.8626 59.4988 48.1669 58.9023 49.3587 58.1186V47.6094H45.4915V59.8799V59.8766ZM50.9126 85.4098C50.7755 85.3321 50.8176 85.3533 50.9126 85.4098ZM53.5423 85.4133C53.5985 85.3816 53.6126 85.371 53.5423 85.4133ZM52.5403 83.6871C52.8321 83.5141 53.2786 83.2529 52.5403 83.6871ZM22.6189 15.2071C19.4935 15.2071 16.8041 17.424 16.1924 20.5023C15.5842 23.5805 17.2259 26.6623 20.1123 27.8625C22.9987 29.0627 26.3279 28.0496 28.0646 25.4408C29.8014 22.8286 29.4604 19.3514 27.2525 17.1345C26.0256 15.899 24.3556 15.2036 22.6189 15.2071ZM23.4978 13.3432L23.3009 11.9241H21.9333L21.7294 13.3927C21.6732 13.8092 21.3638 14.1446 20.9525 14.2328C20.0701 14.427 19.2333 14.7765 18.474 15.2636C18.1224 15.4895 17.6689 15.4683 17.3349 15.2177L16.1642 14.3316L15.1974 15.3024L16.0869 16.485C16.3541 16.838 16.3541 17.3287 16.0904 17.6852C15.6263 18.43 15.2923 19.2526 15.1025 20.1139C15.0111 20.5446 14.6489 20.8658 14.2095 20.9011L12.8032 21.0988V22.472L14.2622 22.6767H14.2658C14.6806 22.7332 15.0146 23.0474 15.1025 23.4569C15.2958 24.3429 15.6439 25.1866 16.129 25.9491C16.354 26.2986 16.3364 26.7575 16.0833 27.0893L15.1939 28.2719L16.1641 29.2391L17.3419 28.346C17.697 28.0777 18.1821 28.0777 18.5372 28.346C18.8993 28.5719 19.279 28.7696 19.6727 28.932C20.0911 29.105 20.52 29.2391 20.9594 29.3344C21.3883 29.4297 21.7083 29.7933 21.7434 30.2346L21.9403 31.6466H23.3078L23.5117 30.1781C23.568 29.7616 23.8809 29.4262 24.2887 29.338C25.1711 29.1438 26.0079 28.7943 26.7672 28.3072C27.1188 28.0813 27.5723 28.0989 27.9063 28.3531L29.084 29.2462L30.0508 28.2754L29.1613 27.0929C28.8941 26.7363 28.8906 26.2492 29.1543 25.8926C29.6219 25.1443 29.9558 24.3217 30.1422 23.4604C30.2336 23.0297 30.5992 22.712 31.0352 22.6732L32.4414 22.4755V21.0988L30.9789 20.8941H30.9825C30.5676 20.8376 30.2301 20.5234 30.1422 20.1139C30.0473 19.6727 29.9137 19.242 29.7414 18.8219C29.5692 18.4053 29.3618 18.0029 29.1192 17.6217C28.8942 17.2722 28.9118 16.8168 29.1614 16.4815L30.0508 15.2989L29.084 14.3281L27.9063 15.2213H27.9098C27.5547 15.486 27.0661 15.486 26.711 15.2213C25.9692 14.7553 25.1501 14.4199 24.2923 14.2293C23.8634 14.1375 23.5434 13.7739 23.5083 13.3326L23.4978 13.3432ZM25.1818 10.9745C25.1396 10.6851 24.9989 10.4168 24.7775 10.2226C24.556 10.032 24.2747 9.9261 23.9794 9.9261H21.2548C20.9595 9.92257 20.6783 10.032 20.4568 10.2226C20.4111 10.265 20.3689 10.3073 20.3337 10.3532C20.1826 10.5297 20.0841 10.7451 20.0525 10.9745L19.8451 12.4571L19.8486 12.4607C19.5287 12.556 19.2158 12.669 18.9099 12.796C18.604 12.9231 18.3017 13.0678 18.0099 13.2267L16.8146 12.323C16.3329 11.9559 15.6544 12.0018 15.2291 12.4324L13.299 14.3704C12.8701 14.7976 12.8244 15.4789 13.19 15.9625L14.09 17.1627C13.9318 17.4557 13.7877 17.7593 13.6611 18.0664C13.5346 18.3735 13.4221 18.6877 13.3271 19.0089L11.8506 19.2172L11.8471 19.2137C11.2494 19.2984 10.8065 19.8138 10.8029 20.4174V23.1603C10.8064 23.7675 11.2494 24.2794 11.8471 24.3641L13.3236 24.5724H13.3271C13.517 25.2113 13.7736 25.8291 14.09 26.4151L13.19 27.6153C12.8244 28.0989 12.8701 28.7803 13.299 29.2109L15.2291 31.1418C15.658 31.569 16.333 31.6149 16.8146 31.2513L18.0099 30.3476V30.344C18.3017 30.5064 18.604 30.6476 18.9099 30.7747C19.2157 30.9053 19.5286 31.0148 19.8486 31.1101L20.056 32.5927L20.0525 32.5962C20.0947 32.8857 20.2388 33.1504 20.4603 33.3446C20.6783 33.5387 20.963 33.6446 21.2548 33.6446H23.9829C24.2782 33.6446 24.5595 33.5387 24.781 33.3446C24.8267 33.3057 24.8689 33.2599 24.904 33.214C25.0552 33.0375 25.1536 32.8221 25.1853 32.5927L25.3927 31.1101H25.3892C26.0255 30.9194 26.6442 30.6653 27.2279 30.3476L28.4232 31.2513C28.9048 31.6184 29.5798 31.5725 30.0087 31.1418L31.9387 29.2038C32.3676 28.7732 32.4133 28.0954 32.0477 27.6118L31.1477 26.4116C31.4641 25.8256 31.7172 25.2078 31.9071 24.5653L33.3836 24.357V24.3606C33.9813 24.2723 34.4242 23.7604 34.4278 23.1533V20.414C34.4243 19.8103 33.9813 19.2985 33.3836 19.2103L31.9071 19.002C31.8122 18.6843 31.6997 18.3701 31.5731 18.0629C31.4466 17.7558 31.3024 17.4522 31.1442 17.1592L32.0442 15.959C32.22 15.726 32.3079 15.4366 32.2868 15.1436C32.2657 14.8506 32.1426 14.5752 31.9352 14.367L30.0052 12.429C29.7978 12.2207 29.5271 12.0971 29.2353 12.076C28.947 12.0548 28.6587 12.1395 28.4267 12.3195L27.2314 13.2232C26.6478 12.9055 26.0291 12.6478 25.3927 12.4572L25.1818 10.9745ZM18.1118 44.1649L27.8786 39.3922L37.1036 46.4983L37.1071 46.4948C37.4833 46.7842 38.0106 46.7666 38.3657 46.4524L49.3871 37.8178C49.809 37.4754 49.8758 36.8541 49.5418 36.4269C49.2078 35.9962 48.5925 35.915 48.1601 36.2434L37.7048 44.4332L28.649 37.4577L28.6525 37.4612C28.3502 37.1964 27.9213 37.1399 27.5592 37.3165L17.2371 42.3574H17.2406C16.7414 42.601 16.534 43.2011 16.7765 43.7024C17.0191 44.2001 17.6161 44.4084 18.1118 44.1649ZM25.0693 48.3586C24.8021 48.3586 24.5489 48.4645 24.3626 48.6516C24.1728 48.8422 24.0673 49.0964 24.0673 49.3611V68.8893C24.0673 69.4435 24.5173 69.8954 25.0693 69.8954H30.9368H30.9333C31.4853 69.8918 31.9318 69.4435 31.9353 68.8893V49.3648C31.9353 49.0965 31.8298 48.8423 31.64 48.6517C31.4501 48.4646 31.197 48.3587 30.9298 48.3587L25.0693 48.3586ZM29.9348 50.3637H26.0641V67.8874H29.9313V50.3673L29.9348 50.3637ZM15.3557 54.0739C14.8038 54.0739 14.3538 54.5257 14.3538 55.0764V68.8896C14.3538 69.4438 14.8038 69.8921 15.3557 69.8957H21.2233H21.2198C21.7717 69.8957 22.2182 69.4438 22.2182 68.8896V55.0764C22.2182 54.8117 22.1128 54.5575 21.9264 54.3669C21.7401 54.1798 21.4835 54.0739 21.2198 54.0739L15.3557 54.0739ZM20.2249 56.079L16.3542 56.0825V67.8867H20.2214V56.0789L20.2249 56.079ZM4.99151 72.8292V7.30341C4.99503 5.75013 6.24656 4.49344 7.79348 4.48991H41.0089C41.3007 4.48991 41.5784 4.61699 41.7683 4.83939L54.6635 17.7705V3.2299C54.6635 2.7851 54.3049 2.42504 53.8619 2.42504H3.74C3.29703 2.42504 2.93844 2.78511 2.93844 3.2299V72.0243C2.93844 72.4691 3.29704 72.8292 3.74 72.8292L4.99151 72.8292ZM57.304 23.2456L42.0076 7.9107V23.2456H57.304Z" stroke="black" stroke-width="0.3"/>
</svg>
