<svg width="88" height="88" viewBox="0 0 88 88" fill="none" xmlns="http://www.w3.org/2000/svg">
<circle cx="54.0625" cy="56.25" r="12.5625" fill="#DD0004"/>
<mask id="path-2-outside-1_3_138" maskUnits="userSpaceOnUse" x="3.4368" y="0.967926" width="81" height="86" fill="black">
<rect fill="white" x="3.4368" y="0.967926" width="81" height="86"/>
<path d="M56.2189 1.96793C55.5588 1.96793 54.8988 2.22406 54.4128 2.73961L44.3546 13.3266C43.7964 13.9144 43.7044 14.7583 43.9802 15.4086C44.2594 16.0587 44.9358 16.5677 45.7437 16.5677H49.1226V34.8945L49.1259 34.8912C49.1259 35.1112 49.2146 35.3181 49.3689 35.4725C49.5232 35.6268 49.7334 35.7122 49.9501 35.7122C50.4033 35.7089 50.7678 35.3444 50.7711 34.8912V15.7473C50.7678 15.2942 50.4033 14.9297 49.9501 14.9264H45.7469C45.5926 14.9264 45.5335 14.8607 45.4875 14.7557C45.4415 14.6506 45.435 14.5685 45.54 14.4568L55.5983 3.86981C55.9431 3.50859 56.4849 3.50859 56.8297 3.86981L66.8913 14.4568C66.9997 14.5685 66.9898 14.6539 66.9438 14.7557C66.8979 14.8607 66.842 14.9264 66.6844 14.9264H62.4812H62.4878C62.0346 14.9297 61.6701 15.2942 61.6701 15.7473V36.5666C61.6701 37.0165 62.0346 37.381 62.4878 37.3843C62.7045 37.3843 62.9147 37.2989 63.069 37.1446C63.2233 36.9902 63.312 36.7834 63.312 36.5666V16.5653H66.691C67.502 16.5653 68.1785 16.0563 68.4576 15.4061C68.7368 14.7559 68.6415 13.9121 68.0833 13.3242L58.0284 2.74054C57.5391 2.22499 56.8789 1.96793 56.2189 1.96793ZM33.1895 22.498C31.6856 22.498 30.4444 23.7393 30.4444 25.2432V56.9581H25.9521V37.0324C25.9521 35.5284 24.7141 34.2872 23.2069 34.2872H14.508C13.004 34.2872 11.7694 35.5252 11.7694 37.0324V56.9581H7.50707C5.82251 56.9581 4.4368 58.3372 4.4368 60.0218C4.4368 61.7063 5.82251 63.0855 7.50707 63.0855L32.923 63.0888C33.3761 63.0888 33.7439 62.721 33.7439 62.2678C33.7439 61.8147 33.3761 61.4502 32.923 61.4502H7.51043C6.70591 61.4502 6.08529 60.8263 6.08529 60.025C6.08529 59.2238 6.70592 58.6032 7.51043 58.6032H32.0109C32.2309 58.6032 32.4378 58.5145 32.5921 58.3602C32.7464 58.2059 32.8318 57.9957 32.8318 57.779C32.8285 57.3586 32.5067 57.0106 32.0897 56.9711V25.2437C32.0897 24.6264 32.5724 24.1437 33.1898 24.1437H41.8853C42.5027 24.1437 42.9854 24.6264 42.9854 25.2437V37.5574H42.9887C42.9887 37.7774 43.0741 37.9843 43.2284 38.1386C43.3827 38.293 43.5896 38.3816 43.8096 38.3816C44.0264 38.3816 44.2365 38.2963 44.3909 38.1419C44.5452 37.9876 44.6339 37.7774 44.6306 37.5574V25.2437C44.6306 23.7397 43.3926 22.4985 41.8854 22.4985L33.1895 22.498ZM14.5114 35.9315H23.2103C23.8277 35.9315 24.3104 36.4142 24.3104 37.0315V56.9572H13.4115V37.0315C13.4115 36.4142 13.894 35.9315 14.5114 35.9315ZM53.9853 37.5471C49.1418 37.5471 44.3011 39.3925 40.6107 43.0802C33.2322 50.4587 33.2255 62.4477 40.6074 69.826C47.2866 76.5051 57.7422 77.1356 65.1373 71.7273L67.0353 73.622L66.5657 74.0916C65.7612 74.8961 65.7612 76.226 66.5657 77.0305L73.9772 84.4387C76.1017 86.5632 79.5693 86.5632 81.694 84.4387L81.9698 84.1628C84.0944 82.0383 84.0944 78.5706 81.9698 76.446L74.5617 69.0379C73.7571 68.2333 72.4272 68.2333 71.6227 69.0379L71.1531 69.5074L69.2551 67.6094C74.6668 60.2144 74.033 49.7626 67.3539 43.0829C63.6629 39.392 58.823 37.5498 53.9793 37.5498L53.9853 37.5471ZM53.9853 39.1758C58.4052 39.1758 62.8221 40.8669 66.1973 44.2426C72.4463 50.4883 72.9126 60.303 67.5995 67.0845C67.5929 67.0878 67.5896 67.0911 67.5863 67.0943C67.5404 67.1436 67.4977 67.1994 67.4648 67.2552C67.0741 67.7412 66.6537 68.2141 66.2006 68.664C65.7507 69.1139 65.2811 69.5342 64.7984 69.9249H64.7951C64.7327 69.9611 64.6769 70.0038 64.6244 70.053C64.6178 70.0629 64.6112 70.0694 64.6014 70.0793C57.8204 75.3793 48.0088 74.9097 41.7662 68.6673C35.0149 61.9159 35.0149 50.9911 41.7662 44.2391C45.1419 40.8634 49.5618 39.1756 53.9816 39.1789L53.9853 39.1758ZM53.9853 42.4399C50.3962 42.4399 46.807 43.8059 44.0716 46.538C38.6042 52.0054 38.6042 60.8944 44.0716 66.3653C49.5391 71.8328 58.4314 71.8328 63.9023 66.3653C69.3698 60.8979 69.3665 52.0089 63.899 46.5414C61.1637 43.806 57.5745 42.4399 53.9853 42.4399ZM53.9853 44.0686C57.1508 44.0686 60.3197 45.277 62.7397 47.6971C67.58 52.5374 67.58 60.3589 62.7397 65.1993C57.8995 70.0395 50.0746 70.0395 45.2342 65.1993C40.394 60.359 40.394 52.5376 45.2342 47.6971C47.6544 45.277 50.8199 44.0686 53.9853 44.0686ZM68.2266 68.8935L69.9966 70.6635L68.1971 72.463L66.4304 70.693C66.7489 70.4139 67.0576 70.1282 67.3597 69.8261C67.6618 69.5241 67.9508 69.2154 68.2266 68.8968V68.8935ZM73.0931 70.0625C73.2015 70.0625 73.3131 70.1052 73.4018 70.1939L80.8099 77.602C82.3073 79.0994 82.3073 81.4998 80.8099 82.9973L80.5341 83.2731C79.0368 84.7704 76.6363 84.7704 75.1389 83.2731L67.7307 75.865C67.5534 75.6876 67.5534 75.4249 67.7307 75.2509L71.7402 71.2415L71.7369 71.2447C71.7435 71.2382 71.7533 71.2283 71.7599 71.2218L72.7845 70.2005C72.8731 70.1119 72.9815 70.0692 73.0931 70.0692L73.0931 70.0625Z"/>
</mask>
<path d="M56.2189 1.96793C55.5588 1.96793 54.8988 2.22406 54.4128 2.73961L44.3546 13.3266C43.7964 13.9144 43.7044 14.7583 43.9802 15.4086C44.2594 16.0587 44.9358 16.5677 45.7437 16.5677H49.1226V34.8945L49.1259 34.8912C49.1259 35.1112 49.2146 35.3181 49.3689 35.4725C49.5232 35.6268 49.7334 35.7122 49.9501 35.7122C50.4033 35.7089 50.7678 35.3444 50.7711 34.8912V15.7473C50.7678 15.2942 50.4033 14.9297 49.9501 14.9264H45.7469C45.5926 14.9264 45.5335 14.8607 45.4875 14.7557C45.4415 14.6506 45.435 14.5685 45.54 14.4568L55.5983 3.86981C55.9431 3.50859 56.4849 3.50859 56.8297 3.86981L66.8913 14.4568C66.9997 14.5685 66.9898 14.6539 66.9438 14.7557C66.8979 14.8607 66.842 14.9264 66.6844 14.9264H62.4812H62.4878C62.0346 14.9297 61.6701 15.2942 61.6701 15.7473V36.5666C61.6701 37.0165 62.0346 37.381 62.4878 37.3843C62.7045 37.3843 62.9147 37.2989 63.069 37.1446C63.2233 36.9902 63.312 36.7834 63.312 36.5666V16.5653H66.691C67.502 16.5653 68.1785 16.0563 68.4576 15.4061C68.7368 14.7559 68.6415 13.9121 68.0833 13.3242L58.0284 2.74054C57.5391 2.22499 56.8789 1.96793 56.2189 1.96793ZM33.1895 22.498C31.6856 22.498 30.4444 23.7393 30.4444 25.2432V56.9581H25.9521V37.0324C25.9521 35.5284 24.7141 34.2872 23.2069 34.2872H14.508C13.004 34.2872 11.7694 35.5252 11.7694 37.0324V56.9581H7.50707C5.82251 56.9581 4.4368 58.3372 4.4368 60.0218C4.4368 61.7063 5.82251 63.0855 7.50707 63.0855L32.923 63.0888C33.3761 63.0888 33.7439 62.721 33.7439 62.2678C33.7439 61.8147 33.3761 61.4502 32.923 61.4502H7.51043C6.70591 61.4502 6.08529 60.8263 6.08529 60.025C6.08529 59.2238 6.70592 58.6032 7.51043 58.6032H32.0109C32.2309 58.6032 32.4378 58.5145 32.5921 58.3602C32.7464 58.2059 32.8318 57.9957 32.8318 57.779C32.8285 57.3586 32.5067 57.0106 32.0897 56.9711V25.2437C32.0897 24.6264 32.5724 24.1437 33.1898 24.1437H41.8853C42.5027 24.1437 42.9854 24.6264 42.9854 25.2437V37.5574H42.9887C42.9887 37.7774 43.0741 37.9843 43.2284 38.1386C43.3827 38.293 43.5896 38.3816 43.8096 38.3816C44.0264 38.3816 44.2365 38.2963 44.3909 38.1419C44.5452 37.9876 44.6339 37.7774 44.6306 37.5574V25.2437C44.6306 23.7397 43.3926 22.4985 41.8854 22.4985L33.1895 22.498ZM14.5114 35.9315H23.2103C23.8277 35.9315 24.3104 36.4142 24.3104 37.0315V56.9572H13.4115V37.0315C13.4115 36.4142 13.894 35.9315 14.5114 35.9315ZM53.9853 37.5471C49.1418 37.5471 44.3011 39.3925 40.6107 43.0802C33.2322 50.4587 33.2255 62.4477 40.6074 69.826C47.2866 76.5051 57.7422 77.1356 65.1373 71.7273L67.0353 73.622L66.5657 74.0916C65.7612 74.8961 65.7612 76.226 66.5657 77.0305L73.9772 84.4387C76.1017 86.5632 79.5693 86.5632 81.694 84.4387L81.9698 84.1628C84.0944 82.0383 84.0944 78.5706 81.9698 76.446L74.5617 69.0379C73.7571 68.2333 72.4272 68.2333 71.6227 69.0379L71.1531 69.5074L69.2551 67.6094C74.6668 60.2144 74.033 49.7626 67.3539 43.0829C63.6629 39.392 58.823 37.5498 53.9793 37.5498L53.9853 37.5471ZM53.9853 39.1758C58.4052 39.1758 62.8221 40.8669 66.1973 44.2426C72.4463 50.4883 72.9126 60.303 67.5995 67.0845C67.5929 67.0878 67.5896 67.0911 67.5863 67.0943C67.5404 67.1436 67.4977 67.1994 67.4648 67.2552C67.0741 67.7412 66.6537 68.2141 66.2006 68.664C65.7507 69.1139 65.2811 69.5342 64.7984 69.9249H64.7951C64.7327 69.9611 64.6769 70.0038 64.6244 70.053C64.6178 70.0629 64.6112 70.0694 64.6014 70.0793C57.8204 75.3793 48.0088 74.9097 41.7662 68.6673C35.0149 61.9159 35.0149 50.9911 41.7662 44.2391C45.1419 40.8634 49.5618 39.1756 53.9816 39.1789L53.9853 39.1758ZM53.9853 42.4399C50.3962 42.4399 46.807 43.8059 44.0716 46.538C38.6042 52.0054 38.6042 60.8944 44.0716 66.3653C49.5391 71.8328 58.4314 71.8328 63.9023 66.3653C69.3698 60.8979 69.3665 52.0089 63.899 46.5414C61.1637 43.806 57.5745 42.4399 53.9853 42.4399ZM53.9853 44.0686C57.1508 44.0686 60.3197 45.277 62.7397 47.6971C67.58 52.5374 67.58 60.3589 62.7397 65.1993C57.8995 70.0395 50.0746 70.0395 45.2342 65.1993C40.394 60.359 40.394 52.5376 45.2342 47.6971C47.6544 45.277 50.8199 44.0686 53.9853 44.0686ZM68.2266 68.8935L69.9966 70.6635L68.1971 72.463L66.4304 70.693C66.7489 70.4139 67.0576 70.1282 67.3597 69.8261C67.6618 69.5241 67.9508 69.2154 68.2266 68.8968V68.8935ZM73.0931 70.0625C73.2015 70.0625 73.3131 70.1052 73.4018 70.1939L80.8099 77.602C82.3073 79.0994 82.3073 81.4998 80.8099 82.9973L80.5341 83.2731C79.0368 84.7704 76.6363 84.7704 75.1389 83.2731L67.7307 75.865C67.5534 75.6876 67.5534 75.4249 67.7307 75.2509L71.7402 71.2415L71.7369 71.2447C71.7435 71.2382 71.7533 71.2283 71.7599 71.2218L72.7845 70.2005C72.8731 70.1119 72.9815 70.0692 73.0931 70.0692L73.0931 70.0625Z" fill="black"/>
<path d="M56.2189 1.96793C55.5588 1.96793 54.8988 2.22406 54.4128 2.73961L44.3546 13.3266C43.7964 13.9144 43.7044 14.7583 43.9802 15.4086C44.2594 16.0587 44.9358 16.5677 45.7437 16.5677H49.1226V34.8945L49.1259 34.8912C49.1259 35.1112 49.2146 35.3181 49.3689 35.4725C49.5232 35.6268 49.7334 35.7122 49.9501 35.7122C50.4033 35.7089 50.7678 35.3444 50.7711 34.8912V15.7473C50.7678 15.2942 50.4033 14.9297 49.9501 14.9264H45.7469C45.5926 14.9264 45.5335 14.8607 45.4875 14.7557C45.4415 14.6506 45.435 14.5685 45.54 14.4568L55.5983 3.86981C55.9431 3.50859 56.4849 3.50859 56.8297 3.86981L66.8913 14.4568C66.9997 14.5685 66.9898 14.6539 66.9438 14.7557C66.8979 14.8607 66.842 14.9264 66.6844 14.9264H62.4812H62.4878C62.0346 14.9297 61.6701 15.2942 61.6701 15.7473V36.5666C61.6701 37.0165 62.0346 37.381 62.4878 37.3843C62.7045 37.3843 62.9147 37.2989 63.069 37.1446C63.2233 36.9902 63.312 36.7834 63.312 36.5666V16.5653H66.691C67.502 16.5653 68.1785 16.0563 68.4576 15.4061C68.7368 14.7559 68.6415 13.9121 68.0833 13.3242L58.0284 2.74054C57.5391 2.22499 56.8789 1.96793 56.2189 1.96793ZM33.1895 22.498C31.6856 22.498 30.4444 23.7393 30.4444 25.2432V56.9581H25.9521V37.0324C25.9521 35.5284 24.7141 34.2872 23.2069 34.2872H14.508C13.004 34.2872 11.7694 35.5252 11.7694 37.0324V56.9581H7.50707C5.82251 56.9581 4.4368 58.3372 4.4368 60.0218C4.4368 61.7063 5.82251 63.0855 7.50707 63.0855L32.923 63.0888C33.3761 63.0888 33.7439 62.721 33.7439 62.2678C33.7439 61.8147 33.3761 61.4502 32.923 61.4502H7.51043C6.70591 61.4502 6.08529 60.8263 6.08529 60.025C6.08529 59.2238 6.70592 58.6032 7.51043 58.6032H32.0109C32.2309 58.6032 32.4378 58.5145 32.5921 58.3602C32.7464 58.2059 32.8318 57.9957 32.8318 57.779C32.8285 57.3586 32.5067 57.0106 32.0897 56.9711V25.2437C32.0897 24.6264 32.5724 24.1437 33.1898 24.1437H41.8853C42.5027 24.1437 42.9854 24.6264 42.9854 25.2437V37.5574H42.9887C42.9887 37.7774 43.0741 37.9843 43.2284 38.1386C43.3827 38.293 43.5896 38.3816 43.8096 38.3816C44.0264 38.3816 44.2365 38.2963 44.3909 38.1419C44.5452 37.9876 44.6339 37.7774 44.6306 37.5574V25.2437C44.6306 23.7397 43.3926 22.4985 41.8854 22.4985L33.1895 22.498ZM14.5114 35.9315H23.2103C23.8277 35.9315 24.3104 36.4142 24.3104 37.0315V56.9572H13.4115V37.0315C13.4115 36.4142 13.894 35.9315 14.5114 35.9315ZM53.9853 37.5471C49.1418 37.5471 44.3011 39.3925 40.6107 43.0802C33.2322 50.4587 33.2255 62.4477 40.6074 69.826C47.2866 76.5051 57.7422 77.1356 65.1373 71.7273L67.0353 73.622L66.5657 74.0916C65.7612 74.8961 65.7612 76.226 66.5657 77.0305L73.9772 84.4387C76.1017 86.5632 79.5693 86.5632 81.694 84.4387L81.9698 84.1628C84.0944 82.0383 84.0944 78.5706 81.9698 76.446L74.5617 69.0379C73.7571 68.2333 72.4272 68.2333 71.6227 69.0379L71.1531 69.5074L69.2551 67.6094C74.6668 60.2144 74.033 49.7626 67.3539 43.0829C63.6629 39.392 58.823 37.5498 53.9793 37.5498L53.9853 37.5471ZM53.9853 39.1758C58.4052 39.1758 62.8221 40.8669 66.1973 44.2426C72.4463 50.4883 72.9126 60.303 67.5995 67.0845C67.5929 67.0878 67.5896 67.0911 67.5863 67.0943C67.5404 67.1436 67.4977 67.1994 67.4648 67.2552C67.0741 67.7412 66.6537 68.2141 66.2006 68.664C65.7507 69.1139 65.2811 69.5342 64.7984 69.9249H64.7951C64.7327 69.9611 64.6769 70.0038 64.6244 70.053C64.6178 70.0629 64.6112 70.0694 64.6014 70.0793C57.8204 75.3793 48.0088 74.9097 41.7662 68.6673C35.0149 61.9159 35.0149 50.9911 41.7662 44.2391C45.1419 40.8634 49.5618 39.1756 53.9816 39.1789L53.9853 39.1758ZM53.9853 42.4399C50.3962 42.4399 46.807 43.8059 44.0716 46.538C38.6042 52.0054 38.6042 60.8944 44.0716 66.3653C49.5391 71.8328 58.4314 71.8328 63.9023 66.3653C69.3698 60.8979 69.3665 52.0089 63.899 46.5414C61.1637 43.806 57.5745 42.4399 53.9853 42.4399ZM53.9853 44.0686C57.1508 44.0686 60.3197 45.277 62.7397 47.6971C67.58 52.5374 67.58 60.3589 62.7397 65.1993C57.8995 70.0395 50.0746 70.0395 45.2342 65.1993C40.394 60.359 40.394 52.5376 45.2342 47.6971C47.6544 45.277 50.8199 44.0686 53.9853 44.0686ZM68.2266 68.8935L69.9966 70.6635L68.1971 72.463L66.4304 70.693C66.7489 70.4139 67.0576 70.1282 67.3597 69.8261C67.6618 69.5241 67.9508 69.2154 68.2266 68.8968V68.8935ZM73.0931 70.0625C73.2015 70.0625 73.3131 70.1052 73.4018 70.1939L80.8099 77.602C82.3073 79.0994 82.3073 81.4998 80.8099 82.9973L80.5341 83.2731C79.0368 84.7704 76.6363 84.7704 75.1389 83.2731L67.7307 75.865C67.5534 75.6876 67.5534 75.4249 67.7307 75.2509L71.7402 71.2415L71.7369 71.2447C71.7435 71.2382 71.7533 71.2283 71.7599 71.2218L72.7845 70.2005C72.8731 70.1119 72.9815 70.0692 73.0931 70.0692L73.0931 70.0625Z" stroke="black" stroke-width="0.4" mask="url(#path-2-outside-1_3_138)"/>
</svg>
