<svg width="97" height="100" viewBox="0 0 97 100" fill="none" xmlns="http://www.w3.org/2000/svg">
<circle cx="82.5" cy="71.5" r="13.5" fill="#DD0004"/>
<path d="M42.8645 70.3879V66.4224C38.6621 67.2414 34.7398 64.0302 34.7398 59.7414C34.7398 55.4526 38.6621 52.2414 42.8645 53.0603V49.2672H20.581C21.5508 57.0043 26.8307 63.944 31.3779 70.3879H42.8645ZM75.6647 72.3276C75.1691 71.6595 75.3199 70.7112 75.9664 70.2155C76.6345 69.7198 77.5828 69.8707 78.0784 70.5172L79.9318 73.0388L85.5134 66.1207C86.0307 65.4741 86.9789 65.3664 87.6254 65.8836C88.2719 66.4009 88.3797 67.3491 87.8625 67.9957L81.0524 76.444C80.449 77.1983 79.2637 77.1983 78.6603 76.4009L75.6647 72.3276ZM81.7852 56.056C90.19 56.056 97 62.8664 97 71.2716C97 79.6767 90.19 86.4871 81.7852 86.4871C73.3804 86.4871 66.5703 79.6767 66.5703 71.2716C66.5703 62.8879 73.3804 56.056 81.7852 56.056ZM90.427 62.6509C85.6643 57.8879 77.9276 57.8879 73.1648 62.6509C68.4021 67.4138 68.4021 75.1509 73.1648 79.9138C77.9276 84.6767 85.6643 84.6767 90.427 79.9138C95.1897 75.1509 95.1897 67.4138 90.427 62.6509ZM27.8436 70.625L27.822 70.5819C23.0162 63.8147 17.8871 56.5517 17.4346 47.9526C16.788 32.4784 29.0504 19.7629 44.373 19.7629C59.5017 19.7629 71.7209 32.2845 71.333 47.2845C71.1175 56.1422 65.8807 63.6638 60.9887 70.6465C65.0402 71.8965 65.9022 77.4138 63.0791 80.2371C66.2686 83.4483 64.7601 90.0862 59.2 90.0862H55.7734L54.4803 94.0302C53.5106 97.0043 51.6141 100 48.5108 100H40.2784C37.1751 100 35.2786 97.0043 34.3088 94.0302L33.0158 90.0862H29.5677C24.0076 90.0862 22.499 83.4267 25.6885 80.2371C22.8223 77.3922 23.7274 71.8319 27.8436 70.625ZM57.4974 70.3879C62.0016 63.9655 67.2384 56.9397 68.1866 49.2672H45.8816V55.2586C45.8816 56.4224 44.5885 57.1552 43.5756 56.5302C41.0973 54.9784 37.7569 56.7241 37.7569 59.7414C37.7569 62.2845 40.1922 64.0948 42.6059 63.3836C43.5326 63.125 43.6619 62.7155 44.373 62.7155C45.2135 62.7155 45.8816 63.3836 45.8816 64.2241V70.3879H57.4974ZM59.2 78.7284C61.4412 78.7284 62.1093 76.4655 61.5059 74.9138C61.1826 74.0733 60.4068 73.4052 59.2 73.4052C49.3297 73.4052 39.4379 73.4052 29.5461 73.4052C27.3048 73.4052 26.6367 75.6681 27.2402 77.2198C27.5634 78.0603 28.3393 78.7284 29.5461 78.7284H59.2ZM52.5839 90.0862H36.1406L37.132 93.0819C37.6492 94.6552 38.7483 96.9828 40.2353 96.9828H48.4677C49.9762 96.9828 51.0538 94.6552 51.571 93.0819L52.5839 90.0862ZM59.2 81.7457H29.5461C27.3048 81.7457 26.6367 84.0086 27.2402 85.5603C27.5634 86.4009 28.3393 87.069 29.5461 87.069H59.2C61.4412 87.069 62.1093 84.806 61.5059 83.2543C61.1826 82.3922 60.4068 81.7457 59.2 81.7457ZM42.218 1.50862C42.218 0.668103 42.886 0 43.7265 0C44.567 0 45.2351 0.668103 45.2351 1.50862V10.5603C45.2351 11.4009 44.567 12.069 43.7265 12.069C42.886 12.069 42.218 11.4009 42.218 10.5603V1.50862ZM85.9229 42.1983C86.7634 42.1983 87.4315 42.8664 87.4315 43.7069C87.4315 44.5474 86.7634 45.2155 85.9229 45.2155H76.8716C76.0311 45.2155 75.363 44.5474 75.363 43.7069C75.363 42.8879 76.0311 42.1983 76.8716 42.1983H85.9229ZM72.4968 12.8017C73.0786 12.2198 74.0484 12.2198 74.6303 12.8017C75.2122 13.3836 75.2122 14.3319 74.6303 14.9353L68.2297 21.3362C67.6479 21.9181 66.6996 21.9181 66.0962 21.3362C65.5143 20.7543 65.5143 19.806 66.0962 19.2026L72.4968 12.8017ZM1.50855 45.2155C0.689625 45.2155 0 44.5474 0 43.7069C0 42.8879 0.668074 42.1983 1.50855 42.1983H10.5599C11.4004 42.1983 12.0684 42.8664 12.0684 43.7069C12.0684 44.5474 11.4004 45.2155 10.5599 45.2155H1.50855ZM12.8012 14.9353C12.2193 14.3534 12.2193 13.3836 12.8012 12.8017C13.383 12.2198 14.3528 12.2198 14.9347 12.8017L21.3353 19.2026C21.9171 19.806 21.9171 20.7543 21.3353 21.3362C20.7534 21.9181 19.7836 21.9181 19.2017 21.3362L12.8012 14.9353ZM45.8816 46.25H68.3375C68.0789 33.7716 58.2733 23.5991 45.8816 22.8233V28.5991C49.8038 28.2543 53.2519 31.4009 53.2519 35.3879C53.2519 39.375 49.8254 42.5215 45.8816 42.1767V46.25ZM27.4341 29.806C23.2102 34.0302 20.5594 39.8276 20.4301 46.25H42.886V40.2802C42.886 39.2457 43.9851 38.4914 44.9765 38.9009C47.4332 39.9353 50.2564 38.1466 50.2564 35.4095C50.2564 33.0172 48.0367 31.2069 45.7092 31.681C45.0842 31.8103 44.8902 32.0259 44.4161 32.0259C43.5756 32.0259 42.9076 31.3578 42.9076 30.5172V22.8448C36.8518 23.2112 31.4426 25.7974 27.4341 29.806Z" fill="black"/>
</svg>
