<svg width="86" height="87" viewBox="0 0 86 87" fill="none" xmlns="http://www.w3.org/2000/svg">
<path d="M27.5 23L33 17.5V25V36.5L34.5 40L39.5 44.5H45L51.5 41L53 36.5L53.5 26V17.5L60 23.5L57 26L59 30.5H62.5V38.5H59.5L57.5 42.5L60 45L54 50.5L51.5 48.5L48 50.5L47 53H39.5V49.5L35 48.5L33 49.5L27.5 45L29.5 42.5L27.5 39H24.5V30.5H27.5L29.5 26.5L27.5 23Z" fill="#DD0004"/>
<path d="M55.541 52.2197H54.4514L61.6812 44.9899L59.0963 42.4037C59.5297 41.555 59.8952 40.6703 60.1901 39.7593H63.8479V28.6834H60.1887C59.8938 27.7724 59.5269 26.8877 59.0949 26.039L61.6798 23.4528L53.8491 15.6221L53.5625 15.9087C52.2611 10.0592 48.8497 4.80091 43.8836 1.25246L43.0806 0.676514L42.2762 1.25108C37.31 4.79814 33.8986 10.0564 32.5972 15.9073L32.3106 15.6207L24.4799 23.4514L27.0648 26.0376C26.6314 26.8863 26.2659 27.771 25.971 28.682H22.3132V39.7579H25.9724C26.2673 40.6689 26.6342 41.5536 27.0662 42.4023L24.4813 44.9885L31.7097 52.2197H30.6201C25.2774 52.2197 20.9287 56.5684 20.9287 61.9111V72.987H23.6977C23.6977 69.17 26.8031 66.0646 30.6201 66.0646H32.0046H33.3891H36.1581V78.525H38.9271V66.0646H41.6961V86.8319H44.465V66.0646H47.234V78.525H50.003V66.0646H52.772H54.1565H55.541C59.358 66.0646 62.4634 69.17 62.4634 72.987H65.2324V61.9111C65.2324 56.5684 60.8837 52.2197 55.541 52.2197ZM34.7736 21.2113C34.7736 14.5366 37.861 8.21645 43.0806 4.10866C48.3001 8.21645 51.3875 14.5353 51.3875 21.2113V34.2213C51.3875 38.8026 47.6618 42.5283 43.0806 42.5283C38.4993 42.5283 34.7736 38.8026 34.7736 34.2213V21.2113ZM32.0046 63.2956H30.6201C27.9107 63.2956 25.4574 64.4129 23.6977 66.21V61.9111C23.6977 58.0941 26.8031 54.9887 30.6201 54.9887H32.0046V63.2956ZM51.3875 63.2956H34.7736V50.3603L34.8982 50.2357C35.7469 50.6691 36.6316 51.0346 37.5426 51.3295V54.9887H48.6185V51.3295C49.5295 51.0346 50.4142 50.6677 51.2629 50.2357L51.3875 50.3603V63.2956ZM53.8491 48.9052L51.7253 46.7842L50.8019 47.3297C49.5849 48.0496 48.2682 48.5937 46.8879 48.9495L45.8495 49.2181V52.2197H40.3116V49.2181L39.2732 48.9495C37.8929 48.5937 36.5762 48.0496 35.3593 47.3297L34.4358 46.7842L32.312 48.9052L28.3966 44.9899L30.5177 42.8661L29.9722 41.9426C29.2523 40.7257 28.7082 39.409 28.3523 38.0287L28.0838 36.9903H25.0822V31.4523H28.0838L28.3523 30.414C28.7082 29.0336 29.2523 27.717 29.9722 26.5L30.5177 25.5766L28.3966 23.4528L32.0476 19.8019C32.0199 20.2684 32.0046 20.7392 32.0046 21.2113V34.2213C32.0046 40.3283 36.9736 45.2972 43.0806 45.2972C49.1875 45.2972 54.1565 40.3283 54.1565 34.2213V21.2113C54.1565 20.7392 54.1412 20.2698 54.1136 19.8019L57.7645 23.4528L55.6434 25.5766L56.1889 26.5C56.9088 27.717 57.4529 29.0336 57.8088 30.414L58.0773 31.4523H61.0789V36.9903H58.0773L57.8088 38.0287C57.4529 39.409 56.9088 40.7257 56.1889 41.9426L55.6434 42.8661L57.7645 44.9899L53.8491 48.9052ZM62.4634 66.21C60.7037 64.4129 58.2504 63.2956 55.541 63.2956H54.1565V54.9887H55.541C59.358 54.9887 62.4634 58.0941 62.4634 61.9111V66.21Z" fill="black"/>
<path d="M50.0034 81.2941H47.2344V84.063H50.0034V81.2941Z" fill="black"/>
<path d="M38.9272 81.2941H36.1582V84.063H38.9272V81.2941Z" fill="black"/>
<path d="M55.541 70.218H52.772V78.525H55.541V70.218Z" fill="black"/>
<path d="M33.3891 70.218H30.6201V78.525H33.3891V70.218Z" fill="black"/>
<path d="M43.0807 31.4523C46.8977 31.4523 50.0031 28.3469 50.0031 24.5299C50.0031 20.7128 46.8977 17.6074 43.0807 17.6074C39.2636 17.6074 36.1582 20.7128 36.1582 24.5299C36.1582 28.3469 39.2636 31.4523 43.0807 31.4523ZM43.0807 20.3764C45.3706 20.3764 47.2341 22.2399 47.2341 24.5299C47.2341 26.8198 45.3706 28.6833 43.0807 28.6833C40.7907 28.6833 38.9272 26.8198 38.9272 24.5299C38.9272 22.2399 40.7907 20.3764 43.0807 20.3764Z" fill="black"/>
<path d="M2.9306 43.9128C2.9306 27.7461 12.4393 13.4859 26.9723 7.15042L25.279 9.97202L27.6534 11.3967L32.8536 2.72975L22.5405 1.0116L22.0864 3.7432L26.2537 4.43821C10.4955 11.1211 0.161621 26.4848 0.161621 43.9128C0.161621 56.0977 5.377 67.7551 14.4676 75.8945L16.3145 73.8316C7.80816 66.2155 2.9306 55.3113 2.9306 43.9128Z" fill="black"/>
<path d="M74.0722 73.5713C81.6814 65.6133 85.9996 54.9859 85.9996 43.9128C85.9996 25.0629 73.9255 8.6055 55.9562 2.96094L55.1255 5.60254C71.936 10.8844 83.2306 26.2799 83.2306 43.9128C83.2306 54.5526 78.9789 64.7576 71.4957 72.263L72.127 69.1049L69.412 68.5608L67.6344 77.4506L77.9197 75.7366L77.4656 73.0051L74.0722 73.5713Z" fill="black"/>
</svg>
