<svg width="200" height="200" viewBox="0 0 200 200" fill="none" xmlns="http://www.w3.org/2000/svg">
<path d="M178.429 172.641H175.695V161.762C175.695 161.047 175.417 160.356 174.911 159.851C174.405 159.346 173.713 159.068 172.996 159.068H168.339C169.562 154.993 171.182 151.043 173.156 147.271C176.556 140.207 180.083 132.898 179.779 124.478V124.47C179.231 110.139 172.203 96.8353 160.661 88.2799C159.412 84.8782 157.514 81.7373 155.084 79.0344C153.355 60.1564 141.957 43.5258 124.966 35.0716C107.974 26.6093 87.8013 27.5272 71.6522 37.5051C55.504 47.4746 45.6845 65.0812 45.6845 84.0265C45.6845 96.3451 51.6578 104.117 57.9938 112.344C64.8867 121.312 71.9991 130.582 72.6909 147.346L69.3077 147.355C67.8144 147.355 66.6079 148.559 66.6079 150.049V157.922C66.6079 162.722 69.8477 166.915 74.4963 168.144V173.676C74.5047 179.503 79.2377 184.227 85.076 184.235H86.6368V187.915H86.6452C86.6452 190.331 87.5986 192.638 89.3114 194.339C91.0156 196.048 93.3358 197 95.7487 197H105.249C108.834 196.975 112.074 194.87 113.55 191.611H178.43C179.147 191.611 179.83 191.325 180.336 190.82C180.843 190.314 181.13 189.632 181.13 188.917V175.335C181.13 174.619 180.843 173.937 180.336 173.432C179.83 172.927 179.146 172.641 178.429 172.641ZM170.304 172.641H111.643V164.448H170.296L170.304 172.641ZM156.873 92.1869C167.419 99.7313 173.89 111.722 174.388 124.663C174.641 131.753 171.409 138.455 168.296 144.938H168.288C165.909 149.409 164.061 154.15 162.795 159.059H153.211C154.485 151.801 158.611 145.351 164.677 141.141C165.9 140.282 166.195 138.606 165.343 137.385C164.491 136.164 162.812 135.861 161.589 136.712C154.072 141.932 149.052 150.024 147.736 159.059H119.338C119.414 151.287 124.518 145.637 134.921 141.839C136.11 141.41 136.844 140.197 136.667 138.943C136.406 137.006 137.578 132.232 147.272 121.344H147.281C149.027 119.829 150.597 118.119 151.98 116.267C152.824 115.122 152.638 113.53 151.558 112.613C150.478 111.695 148.867 111.771 147.88 112.781C146.294 114.423 144.834 115.989 143.493 117.496H143.484C139.232 121.066 133.723 122.784 128.189 122.262C122.688 119.037 115.862 119.062 110.387 122.338C109.931 122.22 109.535 121.942 109.265 121.555C108.725 120.797 108.041 118.793 109.121 113.749C122.595 107.257 129.994 100.656 131.631 93.6419C131.648 93.5998 131.656 93.5577 131.673 93.5071H141.215C141.932 93.5071 142.616 93.2293 143.122 92.7241C143.628 92.2189 143.915 91.5284 143.915 90.8127V78.6792C149.382 79.7317 153.229 83.6808 155.896 90.9138C156.081 91.4274 156.427 91.8737 156.874 92.1852L156.873 92.1869ZM133.048 127.542C133.984 127.441 134.912 127.298 135.832 127.096C133.52 130.144 131.968 133.698 131.301 137.47C130.652 137.731 130.036 138 129.42 138.287V138.278C130.204 134.565 131.419 130.961 133.048 127.542ZM77.5593 98.7376C75.931 96.1611 74.7498 93.3235 74.0749 90.3512C73.8218 89.2566 72.9275 88.4314 71.8137 88.2798L64.6425 87.2946V81.392L71.8137 80.4069C72.9274 80.2469 73.8301 79.4217 74.0749 78.3271C74.7498 75.3632 75.931 72.5256 77.5593 69.9491C78.1583 68.9976 78.1077 67.7767 77.4243 66.8841L73.0457 61.1246L77.2304 56.9482L83.0013 61.3098C83.904 61.9918 85.1189 62.0423 86.0723 61.4445C88.654 59.8194 91.4972 58.6405 94.4754 57.9669C95.5721 57.7227 96.3989 56.8218 96.5508 55.7103L97.5379 48.5531H103.452L104.439 55.7103L104.448 55.7018C104.6 56.8133 105.426 57.7143 106.523 57.9669C109.501 58.6405 112.345 59.8194 114.926 61.4445C115.871 62.0423 117.095 61.9918 117.989 61.3098L123.76 56.9482L127.944 61.1246L123.566 66.8841H123.574C122.891 67.7766 122.84 68.9975 123.439 69.9406C125.068 72.5172 126.249 75.3548 126.924 78.3271C127.168 79.4217 128.071 80.2469 129.185 80.3985L136.356 81.3836V87.2862L130.282 88.1198H129.269L129.278 88.1282C127.801 88.1282 126.603 89.3071 126.578 90.7807C126.569 91.328 126.493 91.8837 126.358 92.4226C126.164 93.0204 125.962 93.6098 125.726 94.1993C123.456 99.0829 116.622 104.295 105.638 109.448L105.646 109.44C104.904 109.785 104.364 110.442 104.17 111.233C103.351 114.121 103.047 117.136 103.267 120.133H97.5467L96.5596 112.976H96.5512C96.3993 111.865 95.5725 110.964 94.4757 110.711C91.4975 110.038 88.6543 108.859 86.0726 107.234C85.1277 106.636 83.9044 106.686 83.01 107.368L77.2391 111.73L73.0545 107.553L77.4331 101.794L77.4247 101.802C78.108 100.901 78.1583 99.6892 77.5593 98.7376ZM62.2718 109.069C56.2733 101.264 51.0845 94.5192 51.0845 84.028C51.0845 67.5246 59.3526 52.1149 73.1213 42.9709C86.8902 33.8266 104.32 32.1595 119.584 38.5251C134.837 44.8991 145.89 58.4641 149.029 74.6653C146.582 73.6044 143.941 73.0487 141.275 73.015C140.55 73.0066 139.849 73.2844 139.335 73.7896C138.812 74.2949 138.516 74.9853 138.516 75.7094V76.2399L131.716 75.3053L131.725 75.3137C131.058 73.015 130.139 70.792 128.974 68.6954L133.674 62.4982C134.484 61.4204 134.383 59.9132 133.429 58.9618L125.92 51.4677C124.967 50.5162 123.457 50.4152 122.377 51.2235L116.176 55.922C114.075 54.7601 111.848 53.8423 109.544 53.1771L108.49 45.4895C108.304 44.1591 107.165 43.1656 105.815 43.1656H95.1849C93.8434 43.1656 92.6961 44.1592 92.5188 45.4895L91.4557 53.1855C89.144 53.8507 86.925 54.7685 84.8244 55.9304L78.6233 51.232C77.5434 50.4236 76.0332 50.5247 75.0799 51.4761L67.571 58.9702C66.6176 59.9217 66.5164 61.4288 67.3263 62.5066L72.0257 68.6954C70.8698 70.7921 69.9502 73.015 69.2838 75.3137L61.5725 76.3746C60.2395 76.5599 59.244 77.6966 59.244 79.0439V89.6534C59.244 91.0006 60.2396 92.1372 61.5809 92.3226L69.2922 93.3835C69.9587 95.6822 70.8783 97.9053 72.0341 99.9934L67.3347 106.182V106.191C66.5164 107.26 66.6261 108.767 67.5794 109.727L75.0883 117.221C76.0417 118.173 77.5518 118.274 78.6233 117.465L84.8244 112.767H84.8328C86.9336 113.929 89.1525 114.847 91.4557 115.512L92.5188 123.208C92.7044 124.538 93.8434 125.532 95.1933 125.532H105.562C106.929 126.913 108.751 127.746 110.683 127.872C111.325 127.94 111.966 127.78 112.489 127.409C116.505 124.648 121.786 124.563 125.887 127.199C126.249 127.435 126.671 127.578 127.11 127.611H127.127C125.237 132.133 123.971 136.89 123.372 141.749C121.39 143.138 119.618 144.814 118.116 146.708C117.947 146.927 117.787 147.138 117.627 147.374H78.0825C77.3906 128.74 69.3671 118.308 62.2718 109.069ZM72.0079 157.923V152.753H114.909C114.267 154.799 113.938 156.93 113.938 159.077H108.944C107.451 159.077 106.244 160.281 106.244 161.771V163.118L77.1964 163.11C75.8212 163.11 74.4966 162.563 73.5265 161.594C72.5478 160.618 71.9995 159.295 72.0079 157.923ZM79.8963 173.677V168.507H106.244L106.253 172.642H103.519C102.81 172.642 102.119 172.928 101.612 173.433C101.106 173.938 100.819 174.62 100.819 175.336V178.856H85.0844C82.2244 178.856 79.8963 176.54 79.8963 173.677ZM105.248 191.612H95.7486C93.7069 191.612 92.0617 189.962 92.0617 187.924V184.245H100.836V188.91L100.828 188.918C100.828 190.4 102.034 191.612 103.519 191.612L105.248 191.612ZM175.73 186.223H106.218V178.03H175.73V186.223ZM140.775 103.512C138.574 106.383 135.317 108.261 131.723 108.733C131.605 108.741 131.478 108.749 131.36 108.749C129.943 108.749 128.77 107.646 128.677 106.232C128.584 104.817 129.605 103.571 131.014 103.386C133.191 103.108 135.157 101.971 136.49 100.228C137.409 99.0831 139.08 98.881 140.244 99.7735C141.417 100.666 141.644 102.333 140.775 103.512ZM100.499 105.364C109.02 105.364 116.698 100.245 119.963 92.389C123.219 84.533 121.422 75.4898 115.398 69.4775C109.374 63.4654 100.313 61.6635 92.4415 64.9137C84.5699 68.1723 79.4319 75.8431 79.4319 84.339C79.4488 95.9504 88.873 105.348 100.499 105.364ZM100.499 68.7112C106.835 68.7112 112.547 72.517 114.977 78.3608C117.398 84.2043 116.056 90.9236 111.576 95.3947C107.097 99.8658 100.364 101.205 94.5088 98.788C88.6538 96.363 84.8317 90.6626 84.8317 84.339C84.8486 75.7168 91.8512 68.7196 100.499 68.7112ZM98.1788 18.9477V5.69446C98.1788 4.20408 99.3853 3 100.879 3C102.364 3 103.578 4.20408 103.578 5.69446V18.9477C103.578 20.4381 102.364 21.6422 100.879 21.6422C99.3853 21.6422 98.1788 20.4381 98.1788 18.9477ZM43.1376 30.374C42.083 29.3215 42.083 27.6207 43.1376 26.5681C44.1923 25.5156 45.8964 25.5156 46.951 26.5681L56.3414 35.9399C56.8644 36.4367 57.1597 37.1271 57.1682 37.8513C57.1766 38.5754 56.8897 39.2658 56.3751 39.7795C55.8604 40.2931 55.1686 40.5794 54.4431 40.571C53.7175 40.5626 53.0257 40.2678 52.5279 39.7458L43.1376 30.374ZM37.6791 83.9679C37.6791 84.6836 37.3923 85.3656 36.886 85.8708C36.3798 86.376 35.6964 86.6623 34.9793 86.6623H21.6998C20.2065 86.6623 19 85.4582 19 83.9679C19 82.4775 20.2065 81.2734 21.6998 81.2734H34.9793C35.6964 81.2734 36.3798 81.5597 36.886 82.0649C37.3923 82.5701 37.6791 83.2521 37.6791 83.9679ZM55.8182 128.409C56.8728 129.462 56.8728 131.171 55.8182 132.223L46.4195 141.604C45.3649 142.622 43.6776 142.606 42.6398 141.57C41.5936 140.534 41.5768 138.85 42.6061 137.789L51.9964 128.418H51.9879C53.0425 127.365 54.7551 127.365 55.8097 128.409L55.8182 128.409ZM145.19 40.2659C144.135 39.2134 144.135 37.5126 145.19 36.46L154.58 27.0882C155.635 26.0694 157.322 26.0778 158.36 27.1219C159.406 28.1576 159.423 29.8416 158.394 30.8942L149.003 40.2659H149.012C147.949 41.3185 146.245 41.3184 145.19 40.2659ZM182 84.7158C182 85.4315 181.722 86.1136 181.215 86.6188C180.709 87.124 180.017 87.4103 179.3 87.4103H166.021C164.536 87.4103 163.321 86.2062 163.321 84.7158C163.321 83.2255 164.536 82.0214 166.021 82.0214H179.3C180.017 82.0214 180.709 82.3076 181.215 82.8129C181.722 83.3181 182 84.0001 182 84.7158Z" fill="#DD0004"/>
</svg>
