<svg width="83" height="83" viewBox="0 0 83 83" fill="none" xmlns="http://www.w3.org/2000/svg">
<g clip-path="url(#clip0_194_82)">
<path d="M77.8125 38.9307V36.3125C77.8125 16.2895 61.523 0 41.5 0C21.477 0 5.1875 16.2895 5.1875 36.3125V38.9307C2.0446 41.2994 0 45.051 0 49.2812C0 56.4326 5.81736 62.25 12.9688 62.25H15.5625V36.3125H12.9688C11.4513 36.3125 10.0003 36.5879 8.64583 37.069V36.3125C8.64583 18.1968 23.3843 3.45833 41.5 3.45833C59.6157 3.45833 74.3542 18.1968 74.3542 36.3125V37.069C72.9997 36.5879 71.5487 36.3125 70.0312 36.3125H67.4375V62.25H70.0312C70.9193 62.25 71.7868 62.1595 72.625 61.9886V72.625C72.625 74.5323 71.074 76.0833 69.1667 76.0833H49.8272C49.111 74.0749 47.2096 72.625 44.9583 72.625H39.7708C36.9103 72.625 34.5833 74.9519 34.5833 77.8125C34.5833 80.673 36.9103 83 39.7708 83H44.9583C47.2096 83 49.1112 81.5501 49.8272 79.5417H69.1667C72.9805 79.5417 76.0833 76.4388 76.0833 72.625V60.7427C80.1921 58.5644 83 54.247 83 49.2812C83 45.051 80.9554 41.2994 77.8125 38.9307ZM12.1042 39.8097V58.7528C7.26368 58.3146 3.45833 54.234 3.45833 49.2812C3.45833 44.3285 7.26368 40.2479 12.1042 39.8097ZM44.9583 79.5417H39.7708C38.8176 79.5417 38.0417 78.7657 38.0417 77.8125C38.0417 76.8593 38.8176 76.0833 39.7708 76.0833H44.9583C45.9116 76.0833 46.6875 76.8593 46.6875 77.8125C46.6875 78.7657 45.9116 79.5417 44.9583 79.5417ZM70.8958 58.7528V39.8097C75.7363 40.2479 79.5417 44.3285 79.5417 49.2812C79.5417 54.234 75.7363 58.3146 70.8958 58.7528Z" fill="black"/>
<path d="M25.5 21.0001L27 18.5001L29 17.0001L31.5 18.5001H33.5C34.3 18.5001 35.5 18.1667 36 18C36.5 17.6667 37.6 16.8 38 16C38.5 14.9999 39 14.5001 39 13.0001C39 11.8001 39.6667 12.1667 40 12.5001H42L43.5 13.0001V15.0001C43.5 16.0001 44.5 17.0001 45 17.5001C45.5 18.0001 46.5 18.0001 47.5 18.0001C48.3 18.0001 49.1667 18.6667 49.5 19.0001C50 18.8334 51 18.4001 51 18.0001C51 17.5001 53.5 17.0001 54.5 17.0001C55.3 17.0001 55.5 17.6667 55.5 18.0001L56.5 18.5001C56.8333 19.0001 57 20.8001 55 24.0001C55.5 24.8334 56.5 26.7001 56.5 27.5001C56.5 28.5001 57.5 28.0001 58.5 29.0001C59.5 30.0001 60.5 29.0001 61.5 30.0001C62.5 31.0001 61.5 31.0001 61.5 32.0001C61.5 33.0001 62 34.0001 61.5 34.5001C61 35.0001 60.5 35.5001 56.5 38.5001C54.5 41.5001 56.5 39.5001 56.5 42.0001C56.5 43.5001 57.5 44.0001 56.5 46.5001C56 47.5001 54 48.0001 53.5 47.5001C53 47.0001 51.5 46.5001 47.5 47.5001C45 48.5001 45 48.0001 44.5 49.5001C44 51.0001 44 51.5001 41.5 53.0001H39C38 53.0001 39 51.5001 39 50.5001C39 49.5001 37.5 48.5001 36.5 48.0001C35.5 47.5001 34.5 46.5001 33.5 46.5001H32.5C31.3333 47.3334 28.8 49.0001 28 49.0001C27 49.0001 25.5 47.5001 25.5 46.5001C25.5 45.5001 26.5 45.0001 26.5 44.0001C26.5 43.2001 26.8333 41.3334 27 40.5001L25.5 36.0001L21 35.5001V31.0001L26.5 29.0001L27 24.0001L25.5 21.0001Z" fill="#DD0004"/>
<path d="M63.9793 37.0259V28.6824L58.7386 27.8094C58.3764 26.5699 57.88 25.3743 57.2543 24.2362L60.3454 19.9091L54.447 14.009L50.1181 17.1009C48.98 16.4752 47.7844 15.9787 46.545 15.6157L45.6719 10.375H37.3292L36.4562 15.6157C35.2167 15.9787 34.0212 16.4752 32.883 17.1009L28.5542 14.009L22.6558 19.9091L25.7468 24.2362C25.1212 25.3743 24.6247 26.5699 24.2617 27.8094L19.021 28.6824V37.0259L24.2617 37.899C24.6247 39.1384 25.1212 40.3332 25.7468 41.4721L22.6558 45.7993L28.5542 51.6985L32.8822 48.6075C34.0212 49.2331 35.2167 49.7296 36.4562 50.0926L37.3292 55.3333H45.6719L46.545 50.0926C47.7844 49.7296 48.98 49.2331 50.119 48.6075L54.447 51.6985L60.3454 45.7993L57.2543 41.4721C57.88 40.3332 58.3764 39.1376 58.7386 37.899L63.9793 37.0259ZM55.9085 34.8645L55.656 36.0052C55.2947 37.6415 54.6479 39.1984 53.7344 40.6312L53.107 41.6157L55.8283 45.4261L54.0721 47.1814L50.2634 44.461L49.2789 45.0884C47.8461 46.0011 46.2883 46.6478 44.6503 47.01L43.5105 47.2633L42.7422 51.875H40.259L39.4907 47.2633L38.3509 47.01C36.7129 46.6478 35.1551 46.0011 33.7223 45.0884L32.7378 44.461L28.9291 47.1814L27.1729 45.4261L29.8941 41.6157L29.2668 40.6312C28.3541 39.1992 27.7065 37.6423 27.3443 36.0043L27.091 34.8645L22.4793 34.0962V31.6122L27.091 30.8438L27.3443 29.704C27.7074 28.0652 28.3541 26.5083 29.2668 25.0771L29.8941 24.0927L27.1729 20.2822L28.9291 18.5261L32.7378 21.2473L33.7223 20.62C35.1551 19.7073 36.7129 19.0605 38.3509 18.6983L39.4907 18.445L40.259 13.8333H42.7422L43.5105 18.445L44.6503 18.6983C46.2883 19.0605 47.8461 19.7073 49.2789 20.62L50.2634 21.2473L54.0721 18.5261L55.8283 20.2822L53.107 24.0927L53.7344 25.0771C54.6479 26.5091 55.2938 28.0652 55.656 29.7032L55.9085 30.8438L60.521 31.6122V34.0962L55.9085 34.8645Z" fill="black"/>
<path d="M41.5 23.0051C36.0693 23.0051 31.6519 27.4235 31.6519 32.8541C31.6519 38.2848 36.0693 42.7031 41.5 42.7031C46.9307 42.7031 51.349 38.2848 51.349 32.8541C51.349 27.4235 46.9307 23.0051 41.5 23.0051ZM41.5 39.2448C37.9767 39.2448 35.1102 36.3783 35.1102 32.8541C35.1102 29.3299 37.9767 26.4635 41.5 26.4635C45.0242 26.4635 47.8907 29.3299 47.8907 32.8541C47.8907 36.3783 45.0242 39.2448 41.5 39.2448Z" fill="black"/>
</g>
<defs>
<clipPath id="clip0_194_82">
<rect width="83" height="83" fill="white"/>
</clipPath>
</defs>
</svg>
