<svg width="88" height="88" viewBox="0 0 88 88" fill="none" xmlns="http://www.w3.org/2000/svg">
<g clip-path="url(#clip0_3004_1492)">
<path fill-rule="evenodd" clip-rule="evenodd" d="M39.9703 30.6148C39.8327 30.6148 39.693 30.5888 39.5589 30.5315C38.8855 30.2451 38.2278 29.9103 37.6045 29.5371C35.945 28.5427 33.6791 29.1085 32.0704 29.7576C31.5454 29.9692 30.9433 29.7281 30.7254 29.2179C30.5073 28.7076 30.756 28.1228 31.2806 27.9111C34.2241 26.7223 36.7847 26.6963 38.6851 27.8365C39.2262 28.161 39.7976 28.4507 40.3828 28.6989C40.9035 28.9193 41.1411 29.5094 40.9137 30.0144C40.7448 30.391 40.3669 30.6148 39.9703 30.6148ZM19.3259 50.4261C19.0626 50.4261 18.7993 50.329 18.5982 50.1346L17.3322 48.9042C16.1445 47.7502 15.1447 45.4993 17.1268 41.3274C17.3649 40.8259 17.9766 40.6072 18.4924 40.8381C19.0083 41.069 19.2336 41.6642 18.9953 42.1638C18.3242 43.5765 17.4048 46.1484 18.7875 47.4916L20.0535 48.7203C20.4552 49.1107 20.4552 49.7442 20.0535 50.1347C19.8526 50.329 19.5892 50.4261 19.3259 50.4261ZM24.7679 55.714C24.5045 55.714 24.2411 55.615 24.0401 55.4207L23.978 55.3599C23.5763 54.9695 23.5763 54.3379 23.978 53.9473C24.3798 53.5568 25.0314 53.5569 25.4333 53.9473L25.4952 54.0064C25.8972 54.3968 25.8972 55.0302 25.4952 55.4207C25.2945 55.615 25.0311 55.714 24.7679 55.714ZM30.2096 61C29.9463 61 29.6828 60.9029 29.4819 60.7068L29.4199 60.646C29.0181 60.2556 29.018 59.6239 29.4199 59.2334C29.8217 58.8429 30.4732 58.8429 30.8751 59.2334L30.9372 59.2941C31.339 59.6845 31.3389 60.3163 30.9372 60.7068C30.7362 60.9029 30.4729 61 30.2096 61Z" fill="black"/>
<path fill-rule="evenodd" clip-rule="evenodd" d="M62.5034 62C61.6066 62 60.7787 61.6682 60.1863 61.0581C59.8199 60.6811 59.8199 60.0692 60.1863 59.6921C60.5525 59.315 61.1464 59.315 61.5129 59.6921C61.7956 59.9837 62.2227 60.1145 62.7145 60.0575C63.2756 59.9938 63.8562 59.6921 64.3075 59.2278C65.1875 58.3211 65.3945 57.0038 64.7597 56.3502L57.2747 48.6471C56.9084 48.27 56.9084 47.6599 57.2747 47.2829C57.641 46.9057 58.2351 46.9057 58.6013 47.2829L66.0864 54.9859C67.4636 56.4037 67.2606 58.9178 65.634 60.5921C64.8755 61.3732 63.9112 61.8643 62.9192 61.9766C62.7794 61.9933 62.6404 62 62.5034 62Z" fill="black"/>
<path fill-rule="evenodd" clip-rule="evenodd" d="M60.9729 71C60.0009 71 59.0795 70.6866 58.3943 70.0446L43.3066 55.9084C42.8978 55.5253 42.8978 54.9054 43.3066 54.5223C43.7155 54.1391 44.3786 54.1391 44.7873 54.5223L59.875 68.6567C60.5837 69.3209 62.0123 69.1046 62.9945 68.1834C63.9767 67.2637 64.2076 65.9253 63.4991 65.2612L47.9294 50.6753C47.5206 50.2921 47.5206 49.6705 47.9294 49.2874C48.3381 48.9042 49.0013 48.9042 49.4101 49.2874L64.98 63.8749C66.5174 65.3157 66.291 67.8701 64.4754 69.5712C63.4689 70.5147 62.1818 71 60.9729 71Z" fill="black"/>
<path fill-rule="evenodd" clip-rule="evenodd" d="M54.0016 73C53.0352 73 52.1191 72.6985 51.4377 72.0804L44.305 65.6125C43.8983 65.2437 43.8983 64.6454 44.305 64.2766C44.7116 63.9078 45.3707 63.9078 45.7772 64.2766L52.9099 70.7446C53.6147 71.3838 55.0351 71.1756 56.0115 70.2905C56.9883 69.4039 57.2181 68.1154 56.5135 67.4777C56.107 67.109 56.107 66.5107 56.5135 66.1419C56.9201 65.7731 57.5792 65.7731 57.9859 66.1419C59.5145 67.5285 59.2893 69.9873 57.4841 71.6248C56.4834 72.5329 55.2037 73 54.0016 73Z" fill="black"/>
<path fill-rule="evenodd" clip-rule="evenodd" d="M47.3219 77C46.3895 77 45.5288 76.6361 44.9125 75.9674L40.2857 70.9472C39.9048 70.5338 39.9048 69.8631 40.2857 69.4498C40.6665 69.0363 41.2842 69.0363 41.6651 69.4498L46.292 74.4698C46.5862 74.7895 47.03 74.9328 47.5417 74.8703C48.125 74.8005 48.7288 74.4698 49.1981 73.9608C49.6672 73.4499 49.9731 72.7958 50.0371 72.1619C50.0931 71.6069 49.9623 71.1255 49.668 70.8076C49.2872 70.3942 49.2872 69.7235 49.6682 69.31C50.0491 68.8967 50.6667 68.8967 51.0477 69.31C51.7579 70.08 52.0964 71.2045 51.9762 72.3933C51.8631 73.5124 51.3662 74.6002 50.5775 75.4565C49.7887 76.3128 48.7862 76.8512 47.7543 76.9743C47.6091 76.9927 47.4646 77 47.3219 77Z" fill="black"/>
<path fill-rule="evenodd" clip-rule="evenodd" d="M31.997 29.4848C31.7135 29.4848 31.4319 29.3706 31.2335 29.1457L25.4221 22.5951C25.0619 22.1889 25.1116 21.5795 25.5328 21.232C25.9543 20.8845 26.5878 20.9331 26.9478 21.3395L32.7593 27.89C33.1194 28.2962 33.0698 28.9056 32.6484 29.2532C32.4595 29.4092 32.2275 29.4849 31.997 29.4848ZM18.6845 42C18.457 42 18.228 41.9261 18.0399 41.7751L11.3584 36.3711C10.9339 36.0286 10.8786 35.4175 11.2348 35.0097C11.5911 34.5999 12.2242 34.5463 12.6488 34.8905L19.3302 40.2927C19.7548 40.6369 19.81 41.2463 19.4538 41.6559C19.2553 41.8825 18.9709 42.0001 18.6845 42Z" fill="black"/>
<path fill-rule="evenodd" clip-rule="evenodd" d="M26.1256 46.8229C25.6423 46.8229 25.1592 46.9907 24.7913 47.3279L20.5388 51.2277C20.1848 51.5525 19.9897 51.9862 19.9897 52.4502C19.9897 52.9141 20.1848 53.3479 20.5388 53.6724C20.893 53.9971 21.3666 54.1761 21.8728 54.1761C22.379 54.176 22.8527 53.9972 23.207 53.6724L27.4595 49.7743C28.1949 49.0997 28.1949 48.0025 27.4595 47.3279C27.0918 46.9923 26.6085 46.8229 26.1256 46.8229ZM21.8728 56C20.8353 56 19.8618 55.6327 19.1319 54.963C18.402 54.2932 18 53.4018 18 52.4502C18 51.4985 18.402 50.6072 19.1319 49.9374L23.3846 46.0391C24.896 44.6536 27.3552 44.6536 28.8665 46.0391C30.3778 47.4246 30.3778 49.6793 28.8665 51.0647L24.6139 54.963C23.8841 55.6327 22.9105 56.0001 21.8728 56Z" fill="black"/>
<path d="M26.1256 46.8229C25.6423 46.8229 25.1592 46.9907 24.7913 47.3279L20.5388 51.2277C20.1848 51.5525 19.9897 51.9862 19.9897 52.4502C19.9897 52.9141 20.1848 53.3479 20.5388 53.6724C20.893 53.9971 21.3666 54.1761 21.8728 54.1761C22.379 54.176 22.8527 53.9972 23.207 53.6724L27.4595 49.7743C28.1949 49.0997 28.1949 48.0025 27.4595 47.3279C27.0918 46.9923 26.6085 46.8229 26.1256 46.8229Z" fill="#DD0004"/>
<path fill-rule="evenodd" clip-rule="evenodd" d="M34.2329 48.9336C33.7407 48.9336 33.28 49.1234 32.9355 49.4678L25.4701 56.9367C24.7549 57.6523 24.7549 58.8165 25.4701 59.5322C25.8144 59.8766 26.275 60.0647 26.7671 60.0647C27.2594 60.0647 27.72 59.8766 28.0643 59.5322L35.5298 52.0632C36.2451 51.3477 36.2451 50.1834 35.5298 49.4678C35.1855 49.1234 34.725 48.9336 34.2329 48.9336ZM26.7671 62C25.7583 62 24.8118 61.6103 24.1021 60.8997C22.6326 59.4297 22.6326 57.0375 24.1021 55.5676L31.5677 48.1003C32.2773 47.3897 33.2239 47 34.2328 47C35.2416 47 36.1882 47.3897 36.8979 48.1003C38.3674 49.5703 38.3674 51.9625 36.8979 53.4324L29.4323 60.8997C28.7226 61.6103 27.7761 62.0001 26.7671 62Z" fill="black"/>
<path d="M34.2329 48.9336C33.7407 48.9336 33.28 49.1234 32.9355 49.4678L25.4701 56.9367C24.7549 57.6523 24.7549 58.8165 25.4701 59.5322C25.8144 59.8766 26.275 60.0647 26.7671 60.0647C27.2594 60.0647 27.72 59.8766 28.0643 59.5322L35.5298 52.0632C36.2451 51.3477 36.2451 50.1834 35.5298 49.4678C35.1855 49.1234 34.725 48.9336 34.2329 48.9336Z" fill="#DD0004"/>
<path fill-rule="evenodd" clip-rule="evenodd" d="M38.0061 55.052C37.5077 55.052 37.0097 55.2409 36.6303 55.6202L30.6182 61.6307C30.2531 61.9957 30.052 62.4836 30.052 63.0055C30.052 63.5273 30.2531 64.0171 30.6184 64.3822C30.9836 64.7472 31.4723 64.9484 31.9942 64.9484C32.5161 64.9484 33.0047 64.7472 33.3698 64.3822L39.3818 58.3716C40.1404 57.6129 40.1404 56.3789 39.3818 55.6202C39.0025 55.2408 38.5043 55.052 38.0061 55.052ZM31.9941 67C30.9242 67 29.9202 66.5851 29.1674 65.8318C28.4148 65.0802 28 64.0758 28 63.0055C28 61.9369 28.4147 60.9326 29.1674 60.1793L35.1792 54.1687C36.7379 52.6104 39.2742 52.6104 40.8328 54.1687C41.5856 54.9221 42 55.9265 42 56.995C42 58.0653 41.5856 59.0698 40.8328 59.8213L34.8209 65.8318C34.068 66.5851 33.0643 67 31.9941 67Z" fill="black"/>
<path d="M38.0061 55.052C37.5077 55.052 37.0097 55.2409 36.6303 55.6202L30.6182 61.6307C30.2531 61.9957 30.052 62.4836 30.052 63.0055C30.052 63.5273 30.2531 64.0171 30.6184 64.3822C30.9836 64.7472 31.4723 64.9484 31.9942 64.9484C32.5161 64.9484 33.0047 64.7472 33.3698 64.3822L39.3818 58.3716C40.1404 57.6129 40.1404 56.3789 39.3818 55.6202C39.0025 55.2408 38.5043 55.052 38.0061 55.052Z" fill="#DD0004"/>
<path fill-rule="evenodd" clip-rule="evenodd" d="M39.0396 64.0329C38.5456 64.0329 38.0516 64.2218 37.6756 64.5978L35.5977 66.6745C35.2356 67.0365 35.0362 67.5203 35.0362 68.0394C35.0362 68.5567 35.2356 69.0406 35.5977 69.4026C35.9599 69.7645 36.4443 69.9641 36.9619 69.9641C37.4794 69.9641 37.964 69.7645 38.3261 69.4026L40.4038 67.3243C41.1559 66.5738 41.1559 65.3501 40.4038 64.5978C40.0278 64.2218 39.5336 64.0329 39.0396 64.0329ZM36.9619 72C35.9469 72 34.9318 71.6133 34.1591 70.8417C32.6137 69.2949 32.6137 66.7821 34.1589 65.2371L36.2368 63.1588C37.7823 61.6137 40.2971 61.6137 41.8426 63.1588C42.589 63.9057 43 64.8999 43 65.9611C43 67.0223 42.589 68.0164 41.8426 68.7634L39.7648 70.8417C38.9919 71.6133 37.9769 72 36.9619 72Z" fill="black"/>
<path d="M39.0396 64.0329C38.5456 64.0329 38.0516 64.2218 37.6756 64.5978L35.5977 66.6745C35.2356 67.0365 35.0362 67.5203 35.0362 68.0394C35.0362 68.5567 35.2356 69.0406 35.5977 69.4026C35.9599 69.7645 36.4443 69.9641 36.9619 69.9641C37.4794 69.9641 37.964 69.7645 38.3261 69.4026L40.4038 67.3243C41.1559 66.5738 41.1559 65.3501 40.4038 64.5978C40.0278 64.2218 39.5336 64.0329 39.0396 64.0329Z" fill="#DD0004"/>
<mask id="path-11-inside-1_3004_1492" fill="white">
<path fill-rule="evenodd" clip-rule="evenodd" d="M79.2729 36.9616L60.4635 18.5448L66.761 12.3797L85.5702 30.7947L79.2729 36.9616ZM78.561 39.0527C78.7575 39.2444 79.015 39.3402 79.2729 39.3402C79.5304 39.3402 79.788 39.2444 79.9845 39.0527L87.7054 31.493C87.8944 31.3082 88.0003 31.0567 88.0003 30.7949C88.0003 30.5348 87.8945 30.2832 87.7054 30.0985L67.4728 10.2888C67.0798 9.90375 66.4422 9.90375 66.0491 10.2887L58.3281 17.8485C58.1393 18.0333 58.0333 18.2831 58.0333 18.545C58.0333 18.8067 58.1393 19.0566 58.3281 19.2414L58.9398 19.8404C58.741 20.0755 58.53 20.2895 58.3435 20.3927L45.4489 27.5298C37.9379 28.9038 34.5693 30.9263 34.1944 34.2767C34.0571 35.5035 34.2228 38.0189 34.5884 40.2554C35.3454 44.8899 36.4187 45.4398 36.823 45.647L36.8233 45.6471C37.4253 45.9551 38.1158 45.8576 38.6707 45.3836L38.724 45.3391C40.713 43.6451 44.0419 40.8097 42.3396 37.2455C42.2627 37.0842 42.251 36.9951 42.2473 36.9675C42.2465 36.9611 42.246 36.958 42.2454 36.958C42.3331 36.8297 42.9495 36.5593 44.2374 36.5679C45.3366 36.5765 46.2663 36.7818 46.5708 36.9135L57.2713 49.4868C58.0413 50.3903 59.0647 50.866 60.2382 50.866C60.2841 50.866 60.3303 50.866 60.3764 50.8644C65.11 50.7155 71.7446 42.7451 75.2781 38.0053C75.4396 37.7897 76.4632 37.9163 76.7997 37.959C77.0497 37.9907 77.2862 38.0206 77.5082 38.0218L78.561 39.0527Z"/>
</mask>
<path fill-rule="evenodd" clip-rule="evenodd" d="M79.2729 36.9616L60.4635 18.5448L66.761 12.3797L85.5702 30.7947L79.2729 36.9616ZM78.561 39.0527C78.7575 39.2444 79.015 39.3402 79.2729 39.3402C79.5304 39.3402 79.788 39.2444 79.9845 39.0527L87.7054 31.493C87.8944 31.3082 88.0003 31.0567 88.0003 30.7949C88.0003 30.5348 87.8945 30.2832 87.7054 30.0985L67.4728 10.2888C67.0798 9.90375 66.4422 9.90375 66.0491 10.2887L58.3281 17.8485C58.1393 18.0333 58.0333 18.2831 58.0333 18.545C58.0333 18.8067 58.1393 19.0566 58.3281 19.2414L58.9398 19.8404C58.741 20.0755 58.53 20.2895 58.3435 20.3927L45.4489 27.5298C37.9379 28.9038 34.5693 30.9263 34.1944 34.2767C34.0571 35.5035 34.2228 38.0189 34.5884 40.2554C35.3454 44.8899 36.4187 45.4398 36.823 45.647L36.8233 45.6471C37.4253 45.9551 38.1158 45.8576 38.6707 45.3836L38.724 45.3391C40.713 43.6451 44.0419 40.8097 42.3396 37.2455C42.2627 37.0842 42.251 36.9951 42.2473 36.9675C42.2465 36.9611 42.246 36.958 42.2454 36.958C42.3331 36.8297 42.9495 36.5593 44.2374 36.5679C45.3366 36.5765 46.2663 36.7818 46.5708 36.9135L57.2713 49.4868C58.0413 50.3903 59.0647 50.866 60.2382 50.866C60.2841 50.866 60.3303 50.866 60.3764 50.8644C65.11 50.7155 71.7446 42.7451 75.2781 38.0053C75.4396 37.7897 76.4632 37.9163 76.7997 37.959C77.0497 37.9907 77.2862 38.0206 77.5082 38.0218L78.561 39.0527Z" fill="#DD0004"/>
<path d="M60.4635 18.5448L59.0644 17.1156L57.6047 18.5446L59.0643 19.9738L60.4635 18.5448ZM79.2729 36.9616L77.8736 38.3907L79.273 39.7608L80.6722 38.3905L79.2729 36.9616ZM66.761 12.3797L68.1601 10.9506L66.761 9.5808L65.3618 10.9505L66.761 12.3797ZM85.5702 30.7947L86.9695 32.2236L88.4289 30.7945L86.9694 29.3656L85.5702 30.7947ZM78.561 39.0527L77.1618 40.4817L77.1642 40.4841L78.561 39.0527ZM79.9845 39.0527L81.3813 40.4841L81.3837 40.4818L79.9845 39.0527ZM87.7054 31.493L86.3069 30.0633L86.3062 30.0639L87.7054 31.493ZM87.7054 30.0985L86.3062 31.5275L86.3073 31.5286L87.7054 30.0985ZM67.4728 10.2888L66.0731 11.7174L66.0736 11.7179L67.4728 10.2888ZM66.0491 10.2887L67.4483 11.7178L67.4485 11.7177L66.0491 10.2887ZM58.3281 17.8485L56.9288 16.4195L56.9288 16.4195L58.3281 17.8485ZM58.3281 19.2414L56.9288 20.6704L56.9288 20.6704L58.3281 19.2414ZM58.9398 19.8404L60.467 21.1317L61.6674 19.712L60.339 18.4113L58.9398 19.8404ZM58.3435 20.3927L59.312 22.1425L59.3121 22.1425L58.3435 20.3927ZM45.4489 27.5298L45.8088 29.4971L46.1309 29.4382L46.4175 29.2796L45.4489 27.5298ZM34.1944 34.2767L36.182 34.4992L36.182 34.4991L34.1944 34.2767ZM34.5884 40.2554L36.5622 39.9329L36.5622 39.9327L34.5884 40.2554ZM36.823 45.647L37.7361 43.8675L37.7351 43.867L36.823 45.647ZM36.8233 45.6471L35.9102 47.4265L35.9124 47.4276L36.8233 45.6471ZM38.6707 45.3836L37.3901 43.8473L37.3808 43.8551L37.3717 43.8629L38.6707 45.3836ZM38.724 45.3391L40.0047 46.8753L40.0128 46.8686L40.0208 46.8617L38.724 45.3391ZM42.3396 37.2455L40.534 38.1056L40.5348 38.1074L42.3396 37.2455ZM42.2473 36.9675L40.2646 37.2297L40.2646 37.2299L42.2473 36.9675ZM42.2454 36.958L40.594 35.8297L38.4565 38.958H42.2454V36.958ZM44.2374 36.5679L44.253 34.568L44.2507 34.5679L44.2374 36.5679ZM46.5708 36.9135L48.0939 35.6173L47.7922 35.2629L47.3651 35.078L46.5708 36.9135ZM57.2713 49.4868L55.7482 50.7831L55.7492 50.7842L57.2713 49.4868ZM60.3764 50.8644L60.3135 48.8653L60.305 48.8656L60.3764 50.8644ZM75.2781 38.0053L73.6775 36.8061L73.6747 36.8099L75.2781 38.0053ZM76.7997 37.959L76.5478 39.9431L76.5481 39.9431L76.7997 37.959ZM77.5082 38.0218L78.9074 36.5928L78.3289 36.0263L77.5193 36.0218L77.5082 38.0218ZM59.0643 19.9738L77.8736 38.3907L80.6721 35.5326L61.8627 17.1157L59.0643 19.9738ZM65.3618 10.9505L59.0644 17.1156L61.8626 19.9739L68.1601 13.8089L65.3618 10.9505ZM86.9694 29.3656L68.1601 10.9506L65.3618 13.8088L84.171 32.2238L86.9694 29.3656ZM80.6722 38.3905L86.9695 32.2236L84.1709 29.3658L77.8735 35.5327L80.6722 38.3905ZM79.2729 37.3402C79.5075 37.3402 79.7601 37.4284 79.9579 37.6213L77.1642 40.4841C77.7548 41.0605 78.5226 41.3402 79.2729 41.3402V37.3402ZM78.5877 37.6213C78.7853 37.4284 79.0378 37.3402 79.2729 37.3402V41.3402C80.023 41.3402 80.7907 41.0604 81.3813 40.4841L78.5877 37.6213ZM86.3062 30.0639L78.5853 37.6236L81.3837 40.4818L89.1047 32.9221L86.3062 30.0639ZM86.0003 30.7949C86.0003 30.5151 86.1137 30.2523 86.3069 30.0633L89.104 32.9227C89.6751 32.3641 90.0003 31.5982 90.0003 30.7949H86.0003ZM86.3073 31.5286C86.1148 31.3403 86.0003 31.0777 86.0003 30.7949H90.0003C90.0003 29.9919 89.6742 29.2262 89.1036 28.6683L86.3073 31.5286ZM66.0736 11.7179L86.3062 31.5275L89.1046 28.6694L68.872 8.85973L66.0736 11.7179ZM67.4485 11.7177C67.0641 12.094 66.4578 12.0943 66.0731 11.7174L68.8725 8.86023C67.7018 7.7132 65.8204 7.71348 64.6498 8.85975L67.4485 11.7177ZM59.7273 19.2776L67.4483 11.7178L64.6499 8.85964L56.9288 16.4195L59.7273 19.2776ZM60.0333 18.545C60.0333 18.8287 59.9171 19.0917 59.7273 19.2775L56.9288 16.4195C56.3616 16.9749 56.0333 17.7374 56.0333 18.545H60.0333ZM59.7274 17.8124C59.9172 17.9983 60.0333 18.2612 60.0333 18.545H56.0333C56.0333 19.3523 56.3615 20.1149 56.9288 20.6704L59.7274 17.8124ZM60.339 18.4113L59.7273 17.8124L56.9288 20.6704L57.5405 21.2694L60.339 18.4113ZM57.4125 18.5491C57.3785 18.5893 57.348 18.6239 57.321 18.653C57.2938 18.6824 57.2735 18.7027 57.2601 18.7154C57.2461 18.7287 57.2457 18.728 57.2585 18.718C57.2654 18.7126 57.278 18.7031 57.2962 18.6908C57.3143 18.6786 57.3406 18.6619 57.3749 18.6429L59.3121 22.1425C59.8484 21.8456 60.2623 21.3739 60.467 21.1317L57.4125 18.5491ZM57.375 18.6428L44.4804 25.7799L46.4175 29.2796L59.312 22.1425L57.375 18.6428ZM45.089 25.5624C41.2648 26.262 38.2587 27.1625 36.117 28.4469C33.8821 29.7871 32.4787 31.6246 32.2068 34.0544L36.182 34.4991C36.285 33.5784 36.7534 32.7294 38.1742 31.8773C39.6883 30.9693 42.122 30.1716 45.8088 29.4971L45.089 25.5624ZM32.2069 34.0542C32.0389 35.5549 32.2397 38.2847 32.6146 40.578L36.5622 39.9327C36.2059 37.753 36.0754 35.4521 36.182 34.4992L32.2069 34.0542ZM32.6145 40.5778C33.01 42.9989 33.5163 44.5528 34.0906 45.5843C34.3866 46.1161 34.7124 46.5305 35.0683 46.8523C35.4362 47.1849 35.7677 47.3535 35.911 47.4269L37.7351 43.867C37.6762 43.8369 37.722 43.859 37.7512 43.8854C37.7685 43.901 37.7028 43.8494 37.5854 43.6385C37.3327 43.1847 36.9238 42.1464 36.5622 39.9329L32.6145 40.5778ZM35.91 47.4264L35.9102 47.4265L37.7363 43.8677L37.7361 43.8675L35.91 47.4264ZM35.9124 47.4276C37.3038 48.1394 38.8591 47.853 39.9697 46.9043L37.3717 43.8629C37.3562 43.8761 37.3911 43.8416 37.483 43.8285C37.5797 43.8147 37.6727 43.8351 37.7342 43.8666L35.9124 47.4276ZM39.9513 46.9198L40.0047 46.8753L37.4434 43.8029L37.3901 43.8473L39.9513 46.9198ZM40.0208 46.8617C40.9767 46.0476 42.5477 44.7287 43.6041 43.0663C44.7205 41.3092 45.3783 38.9673 44.1443 36.3835L40.5348 38.1074C41.0031 39.0879 40.8476 39.9458 40.228 40.921C39.5482 41.9909 38.4603 42.9366 37.4272 43.8165L40.0208 46.8617ZM44.1452 36.3854C44.1515 36.3985 44.1704 36.441 44.1902 36.5108C44.2001 36.5458 44.2091 36.5839 44.2169 36.6245C44.2207 36.6446 44.2238 36.6631 44.2263 36.6794C44.2287 36.6951 44.2303 36.7076 44.23 36.7051L40.2646 37.2299C40.2913 37.432 40.354 37.7278 40.534 38.1056L44.1452 36.3854ZM44.23 36.7053C44.23 36.7049 44.2296 36.7022 44.2292 36.6994C44.2288 36.6964 44.2281 36.6907 44.2271 36.6838C44.2259 36.6751 44.2209 36.6395 44.2126 36.5949C44.2094 36.5776 44.184 36.4312 44.1186 36.2566C44.0897 36.1794 44.0021 35.9539 43.8116 35.7141C43.6217 35.475 43.1061 34.958 42.2454 34.958V38.958C41.3848 38.958 40.8694 38.4411 40.6796 38.2022C40.4893 37.9626 40.4019 37.7374 40.3731 37.6606C40.3079 37.4868 40.2829 37.3415 40.28 37.3259C40.2682 37.2627 40.2606 37.1997 40.2646 37.2297L44.23 36.7053ZM43.8967 38.0863C43.7989 38.2294 43.7011 38.3305 43.6347 38.3926C43.5653 38.4576 43.5036 38.5048 43.4591 38.5363C43.3722 38.5978 43.3052 38.6317 43.277 38.6452C43.2196 38.6727 43.2139 38.6677 43.2822 38.6504C43.413 38.6173 43.7155 38.5645 44.2241 38.5678L44.2507 34.5679C43.4714 34.5628 42.8217 34.6408 42.3004 34.7728C42.0427 34.838 41.7859 34.9241 41.548 35.0382C41.4122 35.1033 40.934 35.3322 40.594 35.8297L43.8967 38.0863ZM44.2218 38.5678C44.6558 38.5712 45.0566 38.6138 45.3691 38.6666C45.5248 38.6929 45.6479 38.7199 45.7333 38.7419C45.835 38.7681 45.8371 38.7753 45.7765 38.749L47.3651 35.078C46.723 34.8002 45.4979 34.5777 44.253 34.568L44.2218 38.5678ZM45.0477 38.2098L55.7482 50.7831L58.7944 48.1906L48.0939 35.6173L45.0477 38.2098ZM55.7492 50.7842C56.8941 52.1275 58.4711 52.866 60.2382 52.866V48.866C59.6583 48.866 59.1885 48.6531 58.7934 48.1895L55.7492 50.7842ZM60.2382 52.866C60.2783 52.866 60.3601 52.8662 60.4478 52.8631L60.305 48.8656C60.3052 48.8656 60.3009 48.8658 60.2893 48.8659C60.2766 48.866 60.2625 48.866 60.2382 48.866V52.866ZM60.4393 52.8634C62.1333 52.8101 63.7924 52.0783 65.2675 51.1532C66.7711 50.2102 68.2661 48.9497 69.6677 47.594C72.4728 44.8811 75.089 41.6052 76.8816 39.2006L73.6747 36.8099C71.9337 39.1452 69.4659 42.2244 66.8869 44.7188C65.5965 45.9669 64.3244 47.0231 63.1422 47.7645C61.9316 48.5238 60.9863 48.8442 60.3135 48.8653L60.4393 52.8634ZM76.8788 39.2044C76.7235 39.4117 76.5539 39.5491 76.423 39.6358C76.2925 39.7223 76.1767 39.7743 76.0985 39.8046C75.9499 39.8622 75.8421 39.8778 75.8206 39.8808C75.7757 39.8873 75.7957 39.8807 75.9102 39.8843C76.1227 39.891 76.3771 39.9214 76.5478 39.9431L77.0516 35.975C76.8858 35.9539 76.4602 35.8997 76.0364 35.8863C75.8327 35.8799 75.5455 35.8794 75.2527 35.9214C75.1073 35.9422 74.8904 35.9829 74.6537 36.0747C74.4422 36.1566 74.016 36.3543 73.6775 36.8061L76.8788 39.2044ZM76.5481 39.9431C76.7711 39.9714 77.132 40.0198 77.4971 40.0218L77.5193 36.0218C77.4404 36.0214 77.3282 36.01 77.0513 35.9749L76.5481 39.9431ZM79.9603 37.6237L78.9074 36.5928L76.109 39.4508L77.1618 40.4817L79.9603 37.6237Z" fill="black" mask="url(#path-11-inside-1_3004_1492)"/>
<path fill-rule="evenodd" clip-rule="evenodd" d="M2.43132 30.048L9.27189 36.6518L26.5687 19.9515L19.7281 13.3477L2.43132 30.048ZM9.27189 39C9.01414 39 8.75637 38.9054 8.55975 38.7147L0.29495 30.7351C0.106021 30.5527 0 30.3063 0 30.0481C0 29.7897 0.106021 29.5433 0.29495 29.361L19.0162 11.2848C19.4095 10.905 20.0471 10.905 20.4403 11.2849L28.705 19.2646C29.0983 19.6443 29.0983 20.2605 28.705 20.6403L9.98382 38.7148C9.78718 38.9055 9.52953 39 9.27189 39Z" fill="black"/>
<path fill-rule="evenodd" clip-rule="evenodd" d="M9.50009 30.1278C9.40464 30.1278 9.30919 30.1629 9.23654 30.2368C9.09124 30.3808 9.09124 30.6173 9.23654 30.7632C9.33156 30.8574 9.4425 30.8722 9.50009 30.8722C9.5578 30.8721 9.66863 30.8574 9.76353 30.7632C9.90883 30.6173 9.90894 30.3808 9.76364 30.2368C9.69099 30.163 9.59554 30.1278 9.50009 30.1278ZM9.50009 33C8.83206 33 8.20383 32.7396 7.73137 32.2667C6.7562 31.2933 6.7562 29.7067 7.73142 28.7315C8.70659 27.7562 10.2935 27.7562 11.2688 28.7315C12.2437 29.7067 12.2438 31.2933 11.2689 32.2667C10.7964 32.7396 10.1683 33 9.50009 33Z" fill="black"/>
<path fill-rule="evenodd" clip-rule="evenodd" d="M78.5001 29.0389C78.3819 29.0389 78.2638 29.0849 78.1739 29.1752C77.9941 29.3541 77.9941 29.6464 78.1739 29.8271C78.3538 30.0058 78.6464 30.0058 78.8261 29.8271C79.0058 29.6463 79.0058 29.3541 78.8261 29.1752C78.7362 29.0849 78.6181 29.0389 78.5001 29.0389ZM78.5001 32C77.8595 32 77.219 31.7574 76.7314 31.2686C75.7562 30.2945 75.7562 28.7077 76.7314 27.7319C77.7067 26.756 79.2936 26.756 80.2686 27.7319C81.2438 28.7077 81.2438 30.2946 80.2686 31.2686C79.781 31.7574 79.1405 32 78.5001 32Z" fill="black"/>
<path d="M9.5 32C10.3284 32 11 31.3284 11 30.5C11 29.6716 10.3284 29 9.5 29C8.67157 29 8 29.6716 8 30.5C8 31.3284 8.67157 32 9.5 32Z" fill="#DD0004"/>
<path d="M78.5 31C79.3284 31 80 30.5523 80 30C80 29.4477 79.3284 29 78.5 29C77.6716 29 77 29.4477 77 30C77 30.5523 77.6716 31 78.5 31Z" fill="#DD0004"/>
</g>
<defs>
<clipPath id="clip0_3004_1492">
<rect width="88" height="88" fill="white"/>
</clipPath>
</defs>
</svg>
