<svg width="88" height="88" viewBox="0 0 88 88" fill="none" xmlns="http://www.w3.org/2000/svg">
<mask id="path-1-inside-1_4_529" fill="white">
<path fill-rule="evenodd" clip-rule="evenodd" d="M62.45 6.26131V10.9107C63.3995 10.3421 64.4826 10.035 65.5892 10.0206C67.1342 10.0397 68.6095 10.6669 69.6952 11.7662C70.781 12.8655 71.3899 14.3484 71.3899 15.8936C71.3899 17.4387 70.781 18.9216 69.6952 20.0209C68.6095 21.1202 67.1342 21.7474 65.5892 21.7665C64.4826 21.7517 63.3997 21.4446 62.45 20.8764V25.5636H68.7311C69.0922 25.5638 69.4384 25.7074 69.6937 25.9627C69.949 26.218 70.0926 26.5642 70.0928 26.9253C70.0928 29.6136 68.9642 29.8467 68.9642 31.4307C68.9642 32.2661 69.2961 33.0674 69.8868 33.6581C70.4776 34.2488 71.2788 34.5807 72.1142 34.5807C72.9496 34.5807 73.7509 34.2488 74.3416 33.6581C74.9323 33.0674 75.2642 32.2661 75.2642 31.4307C75.2642 29.8467 74.1365 29.6136 74.1365 26.9253C74.1365 26.7463 74.1718 26.5691 74.2403 26.4038C74.3089 26.2385 74.4093 26.0883 74.536 25.9618C74.6626 25.8353 74.8129 25.7351 74.9784 25.6667C75.1438 25.5984 75.321 25.5634 75.5 25.5636H81.7523C81.4239 20.5522 79.2849 15.8311 75.7337 12.2799C72.1825 8.72872 67.4614 6.58967 62.45 6.26131ZM20.942 43.3485H27.2105C27.3893 43.3485 27.5663 43.3837 27.7315 43.4522C27.8966 43.5206 28.0467 43.6209 28.173 43.7474C28.2994 43.8739 28.3996 44.024 28.468 44.1892C28.5363 44.3544 28.5714 44.5314 28.5713 44.7102V46.6722C30.1583 47.0873 31.6809 47.718 33.0965 48.5469L34.4843 47.1591C34.6107 47.0327 34.7607 46.9323 34.9259 46.8639C35.091 46.7955 35.2681 46.7602 35.4468 46.7602C35.6256 46.7602 35.8027 46.7955 35.9678 46.8639C36.133 46.9323 36.283 47.0327 36.4094 47.1591L40.841 51.5907C40.9675 51.7171 41.0678 51.8671 41.1362 52.0323C41.2047 52.1975 41.2399 52.3745 41.2399 52.5533C41.2399 52.732 41.2047 52.9091 41.1362 53.0742C41.0678 53.2394 40.9675 53.3894 40.841 53.5158L39.4532 54.9036C40.2823 56.319 40.9128 57.8416 41.327 59.4288H43.2899C43.4687 59.4287 43.6457 59.4638 43.8109 59.5321C43.9761 59.6005 44.1263 59.7007 44.2527 59.8271C44.3792 59.9534 44.4795 60.1035 44.5479 60.2686C44.6164 60.4338 44.6516 60.6108 44.6516 60.7896V67.0581C44.6516 67.2369 44.6164 67.4139 44.5479 67.5791C44.4795 67.7442 44.3792 67.8943 44.2527 68.0207C44.1263 68.147 43.9761 68.2473 43.8109 68.3156C43.6457 68.3839 43.4687 68.419 43.2899 68.4189H41.327C40.9128 70.0061 40.2823 71.5288 39.4532 72.9441L40.841 74.3301C40.9675 74.4565 41.0678 74.6065 41.1362 74.7717C41.2047 74.9369 41.2399 75.1139 41.2399 75.2927C41.2399 75.4714 41.2047 75.6485 41.1362 75.8136C41.0678 75.9788 40.9675 76.1288 40.841 76.2552L40.0868 77.0094C40.7546 77.4023 41.517 77.6055 42.2918 77.5971H53.2601C54.3751 77.5931 55.4433 77.1484 56.2318 76.3601C57.0203 75.5718 57.4651 74.5037 57.4694 73.3887V69.1812H47.7935C47.6118 69.1859 47.431 69.1541 47.2617 69.0878C47.0925 69.0215 46.9383 68.922 46.8081 68.7951C46.6779 68.6683 46.5745 68.5166 46.5038 68.3491C46.4332 68.1817 46.3968 68.0017 46.3968 67.82C46.3968 67.6382 46.4332 67.4583 46.5038 67.2908C46.5745 67.1233 46.6779 66.9717 46.8081 66.8448C46.9383 66.7179 47.0925 66.6184 47.2617 66.5521C47.431 66.4858 47.6118 66.454 47.7935 66.4587H57.5216C58.31 56.3562 67.733 52.7454 68.4557 41.5701H63.8072C64.377 42.5195 64.6851 43.603 64.7 44.7102C64.7 46.2677 64.0813 47.7614 62.98 48.8627C61.8787 49.964 60.385 50.5827 58.8275 50.5827C57.27 50.5827 55.7763 49.964 54.675 48.8627C53.5737 47.7614 52.955 46.2677 52.955 44.7102C52.9695 43.6037 53.2762 42.5207 53.8442 41.571H47.7962C47.6161 41.5717 47.4376 41.5367 47.2711 41.4679C47.1046 41.3991 46.9534 41.2979 46.8263 41.1702C46.6992 41.0426 46.5987 40.8909 46.5307 40.7241C46.4627 40.5573 46.4285 40.3787 46.43 40.1985C46.4301 40.1383 46.434 40.0782 46.4417 40.0185V32.5485C46.4417 32.1876 46.5851 31.8415 46.8403 31.5863C47.0955 31.3311 47.4416 31.1877 47.8025 31.1877C50.4908 31.1877 50.7248 32.3154 52.3088 32.3154C53.1442 32.3154 53.9454 31.9835 54.5362 31.3928C55.1269 30.8021 55.4588 30.0008 55.4588 29.1654C55.4588 28.33 55.1269 27.5288 54.5362 26.938C53.9454 26.3473 53.1442 26.0154 52.3088 26.0154C50.7248 26.0154 50.4908 27.1431 47.8025 27.1431C47.6237 27.1431 47.4467 27.1079 47.2815 27.0394C47.1164 26.971 46.9663 26.8707 46.84 26.7442C46.7136 26.6178 46.6134 26.4676 46.545 26.3024C46.4767 26.1372 46.4416 25.9602 46.4417 25.7814V19.5525C41.2012 19.8981 36.2883 22.2236 32.6989 26.0575C29.1096 29.8913 27.1124 34.9467 27.1124 40.1985C27.1033 40.5535 26.9559 40.8908 26.7016 41.1387C26.4473 41.3865 26.1062 41.5252 25.7512 41.5252C25.3961 41.5252 25.055 41.3865 24.8007 41.1387C24.5465 40.8908 24.399 40.5535 24.3899 40.1985C24.3899 37.1237 24.9955 34.0791 26.1722 31.2383C27.3489 28.3976 29.0736 25.8165 31.2479 23.6423C33.4221 21.4682 36.0033 19.7436 38.8441 18.567C41.6848 17.3904 44.7295 16.7849 47.8043 16.785C48.1654 16.785 48.5118 16.9285 48.7672 17.1838C49.0225 17.4392 49.166 17.7856 49.166 18.1467V24.1911C50.1177 23.623 51.2023 23.3156 52.3106 23.3001C53.8556 23.3192 55.3309 23.9464 56.4166 25.0457C57.5024 26.145 58.1113 27.6279 58.1113 29.1731C58.1113 30.7182 57.5024 32.2011 56.4166 33.3004C55.3309 34.3997 53.8556 35.0269 52.3106 35.046C51.2022 35.0302 50.1176 34.7226 49.166 34.1541V38.8494H55.4408V38.8548C55.8004 38.8548 56.1452 38.9976 56.3995 39.2517C56.6539 39.5059 56.7969 39.8507 56.7971 40.2102C56.7971 42.9102 55.6748 43.1271 55.6748 44.7102C55.6748 45.5456 56.0067 46.3469 56.5974 46.9376C57.1882 47.5283 57.9894 47.8602 58.8248 47.8602C59.6602 47.8602 60.4615 47.5283 61.0522 46.9376C61.6429 46.3469 61.9748 45.5456 61.9748 44.7102C61.9748 43.1487 60.8471 42.8472 60.8471 40.2102C60.8471 40.0314 60.8823 39.8544 60.9508 39.6892C61.0192 39.5241 61.1195 39.374 61.246 39.2477C61.3724 39.1213 61.5226 39.0211 61.6878 38.9527C61.853 38.8844 62.03 38.8493 62.2088 38.8494H69.8588V38.8548C70.2184 38.8548 70.5632 38.9976 70.8175 39.2517C71.0719 39.5059 71.2149 39.8507 71.2151 40.2102C71.2151 54.0306 60.1946 57.4785 60.1946 67.8213V73.3914C60.1903 75.0026 59.6266 76.5624 58.5998 77.804C57.573 79.0457 56.1469 79.8923 54.5651 80.199C53.8586 82.6614 51.1001 84.5001 47.8043 84.5001C44.8775 84.5001 41.8274 82.9431 41.048 80.2125C39.9943 80.0245 38.9977 79.5975 38.1347 78.9642L36.4094 80.6895C36.283 80.816 36.133 80.9163 35.9678 80.9847C35.8027 81.0532 35.6256 81.0884 35.4468 81.0884C35.2681 81.0884 35.091 81.0532 34.9259 80.9847C34.7607 80.9163 34.6107 80.816 34.4843 80.6895L33.0965 79.3017C31.6811 80.1309 30.1584 80.7617 28.5713 81.1764V83.1393C28.5713 83.318 28.5361 83.495 28.4677 83.6601C28.3993 83.8252 28.2991 83.9752 28.1727 84.1015C28.0464 84.2279 27.8964 84.3281 27.7313 84.3965C27.5662 84.4649 27.3892 84.5001 27.2105 84.5001H20.942C20.7633 84.5001 20.5863 84.4649 20.4212 84.3965C20.2561 84.3281 20.1061 84.2279 19.9798 84.1015C19.8534 83.9752 19.7532 83.8252 19.6848 83.6601C19.6164 83.495 19.5812 83.318 19.5812 83.1393V81.1755C17.994 80.761 16.4713 80.1302 15.056 79.3008L13.67 80.6886C13.5436 80.8151 13.3936 80.9154 13.2284 80.9838C13.0633 81.0523 12.8862 81.0875 12.7075 81.0875C12.5287 81.0875 12.3516 81.0523 12.1865 80.9838C12.0213 80.9154 11.8713 80.8151 11.7449 80.6886L7.3115 76.257C7.18504 76.1306 7.08473 75.9806 7.01628 75.8154C6.94784 75.6503 6.91261 75.4732 6.91261 75.2945C6.91261 75.1157 6.94784 74.9387 7.01628 74.7735C7.08473 74.6083 7.18504 74.4583 7.3115 74.3319L8.6993 72.9441C7.86992 71.5288 7.23911 70.0061 6.8246 68.4189H4.8617C4.68292 68.419 4.50587 68.3839 4.34067 68.3156C4.17546 68.2473 4.02534 68.147 3.89889 68.0207C3.77243 67.8943 3.67211 67.7442 3.60367 67.5791C3.53523 67.4139 3.5 67.2369 3.5 67.0581V60.7896C3.5 60.4287 3.64337 60.0826 3.89857 59.8274C4.15377 59.5722 4.49989 59.4288 4.8608 59.4288H6.8246C7.23966 57.8418 7.87044 56.3192 8.6993 54.9036L7.3115 53.5158C7.18504 53.3894 7.08473 53.2394 7.01628 53.0742C6.94784 52.9091 6.91261 52.732 6.91261 52.5533C6.91261 52.3745 6.94784 52.1975 7.01628 52.0323C7.08473 51.8671 7.18504 51.7171 7.3115 51.5907L11.7431 47.1591C11.8695 47.0327 12.0195 46.9323 12.1847 46.8639C12.3498 46.7955 12.5269 46.7602 12.7057 46.7602C12.8844 46.7602 13.0615 46.7955 13.2266 46.8639C13.3918 46.9323 13.5418 47.0327 13.6682 47.1591L15.056 48.5469C16.4715 47.7179 17.9941 47.0871 19.5812 46.6722V44.7102C19.5811 44.5314 19.6162 44.3544 19.6845 44.1892C19.7529 44.024 19.8531 43.8739 19.9795 43.7474C20.1058 43.6209 20.2559 43.5206 20.421 43.4522C20.5862 43.3837 20.7632 43.3485 20.942 43.3485ZM25.8488 46.0701H22.3037V47.7558C22.3039 48.0719 22.1937 48.3782 21.9923 48.6218C21.7909 48.8655 21.5108 49.0312 21.2003 49.0905C19.2246 49.4719 17.3456 50.2465 15.6752 51.3684C15.4129 51.5632 15.0893 51.6572 14.7635 51.6332C14.4377 51.6092 14.1314 51.4689 13.9004 51.2379L12.7088 50.0454L10.1987 52.5501L11.3912 53.7417C11.6142 53.9651 11.7526 54.2591 11.7828 54.5733C11.813 54.8875 11.7331 55.2025 11.5568 55.4643C10.4277 57.126 9.64638 58.999 9.26 60.9705C9.21636 61.2975 9.05539 61.5976 8.80706 61.8148C8.55872 62.032 8.23993 62.1516 7.91 62.1513H6.2234V65.6964H7.91C8.22612 65.6963 8.53239 65.8064 8.77603 66.0078C9.01967 66.2092 9.18542 66.4893 9.2447 66.7998C9.62606 68.7756 10.4007 70.6545 11.5226 72.3249C11.7172 72.5873 11.8111 72.9108 11.7871 73.2366C11.7631 73.5623 11.623 73.8686 11.3921 74.0997L10.1996 75.2913L12.707 77.7987L13.8986 76.6062C14.122 76.3832 14.416 76.2448 14.7302 76.2146C15.0444 76.1844 15.3594 76.2643 15.6212 76.4406C17.2811 77.5699 19.1522 78.3521 21.122 78.7401C21.4492 78.7836 21.7494 78.9444 21.9668 79.1928C22.1842 79.4411 22.304 79.7601 22.3037 80.0901V81.7758H25.8488V80.0901C25.849 79.774 25.9594 79.4678 26.1609 79.2242C26.3625 78.9806 26.6426 78.8148 26.9531 78.7554C28.9294 78.3746 30.809 77.6002 32.48 76.4784C32.7424 76.2838 33.0659 76.19 33.3916 76.2139C33.7174 76.2379 34.0237 76.3781 34.2548 76.6089L35.45 77.8014L37.9574 75.294L36.7649 74.1024C36.5418 73.8791 36.4032 73.5851 36.373 73.2708C36.3428 72.9566 36.4228 72.6416 36.5993 72.3798C37.7286 70.7202 38.51 68.8489 38.8961 66.879C38.9397 66.5519 39.1007 66.2518 39.349 66.0344C39.5973 65.817 39.9161 65.6973 40.2461 65.6973H41.93V62.1513H40.2434C39.9272 62.1511 39.6211 62.0407 39.3775 61.8392C39.1339 61.6376 38.9681 61.3575 38.9087 61.047C38.5274 59.0707 37.7528 57.1912 36.6308 55.5201C36.436 55.2578 36.3421 54.9343 36.366 54.6084C36.39 54.2826 36.5303 53.9763 36.7613 53.7453L37.9538 52.5501L35.45 50.0463L34.2584 51.2388C34.0351 51.462 33.7411 51.6005 33.4268 51.6307C33.1126 51.6609 32.7976 51.5809 32.5358 51.4044C30.876 50.2755 29.0048 49.4942 27.035 49.1076C26.7079 49.064 26.4077 48.9031 26.1904 48.6547C25.973 48.4064 25.8532 48.0876 25.8533 47.7576V46.0701H25.8488ZM24.0758 55.5291C22.4154 55.5291 20.7923 56.0215 19.4117 56.944C18.0311 57.8664 16.9551 59.1776 16.3196 60.7116C15.6842 62.2456 15.518 63.9336 15.8419 65.5621C16.1658 67.1906 16.9654 68.6865 18.1395 69.8606C19.3136 71.0347 20.8095 71.8343 22.438 72.1582C24.0665 72.4821 25.7545 72.3159 27.2885 71.6805C28.8225 71.0451 30.1337 69.969 31.0562 68.5884C31.9786 67.2079 32.471 65.5847 32.471 63.9243C32.4711 62.8218 32.2541 61.7301 31.8322 60.7115C31.4103 59.6929 30.792 58.7673 30.0124 57.9877C29.2328 57.2082 28.3073 56.5898 27.2886 56.1679C26.27 55.7461 25.1783 55.529 24.0758 55.5291ZM16.2152 56.0628C14.6606 57.6176 13.6019 59.5984 13.173 61.7548C12.7441 63.9112 12.9643 66.1464 13.8057 68.1777C14.6472 70.209 16.072 71.9451 17.9002 73.1666C19.7283 74.3881 21.8776 75.0401 24.0763 75.0401C26.2749 75.0401 28.4242 74.3881 30.2523 73.1666C32.0805 71.9451 33.5053 70.209 34.3468 68.1777C35.1882 66.1464 35.4084 63.9112 34.9795 61.7548C34.5506 59.5984 33.4919 57.6176 31.9373 56.0628C30.905 55.0304 29.6795 54.2115 28.3307 53.6528C26.9818 53.0941 25.5362 52.8065 24.0763 52.8065C22.6163 52.8065 21.1707 53.0941 19.8218 53.6528C18.473 54.2115 17.2475 55.0304 16.2152 56.0628ZM38.2832 9.91621C38.2331 9.74246 38.2181 9.56046 38.2392 9.38086C38.2603 9.20126 38.317 9.02767 38.406 8.87024C38.495 8.71282 38.6145 8.57472 38.7574 8.46403C38.9004 8.35334 39.0641 8.27229 39.2388 8.2256C39.4135 8.17892 39.5957 8.16755 39.7749 8.19215C39.9541 8.21676 40.1265 8.27685 40.2821 8.36891C40.4378 8.46096 40.5735 8.58314 40.6814 8.72828C40.7892 8.87343 40.8671 9.03862 40.9103 9.21421L41.8472 12.7125C41.9323 13.0582 41.8785 13.4235 41.6973 13.73C41.516 14.0364 41.2218 14.2596 40.8778 14.3515C40.5339 14.4434 40.1675 14.3968 39.8576 14.2216C39.5476 14.0464 39.3188 13.7566 39.2201 13.4145L38.2832 9.91621ZM24.4169 18.7362L26.9783 21.2976C27.1035 21.4294 27.2538 21.5348 27.4203 21.6076C27.5869 21.6803 27.7663 21.719 27.9481 21.7214C28.1298 21.7237 28.3102 21.6896 28.4786 21.6211C28.647 21.5527 28.7999 21.4512 28.9284 21.3226C29.057 21.1941 29.1585 21.0412 29.2269 20.8728C29.2954 20.7044 29.3295 20.524 29.3272 20.3423C29.3248 20.1606 29.2861 19.9811 29.2133 19.8146C29.1406 19.648 29.0352 19.4977 28.9034 19.3725L26.342 16.8102C26.2168 16.6784 26.0665 16.573 25.9 16.5003C25.7334 16.4275 25.554 16.3888 25.3722 16.3865C25.1905 16.3841 25.0101 16.4182 24.8417 16.4867C24.6733 16.5552 24.5204 16.6567 24.3919 16.7852C24.2633 16.9137 24.1618 17.0667 24.0934 17.235C24.0249 17.4034 23.9908 17.5838 23.9931 17.7655C23.9955 17.9473 24.0342 18.1267 24.107 18.2933C24.1797 18.4598 24.2851 18.6101 24.4169 18.7353V18.7362ZM16.82 33.3036L20.3192 34.2414C20.6649 34.3266 21.0302 34.2727 21.3367 34.0915C21.6431 33.9102 21.8663 33.616 21.9582 33.272C22.0501 32.9281 22.0035 32.5618 21.8283 32.2518C21.6531 31.9418 21.3633 31.713 21.0212 31.6143L17.522 30.6801C17.1763 30.595 16.811 30.6488 16.5045 30.8301C16.1981 31.0113 15.9749 31.3055 15.883 31.6495C15.7911 31.9935 15.8377 32.3598 16.0129 32.6697C16.1881 32.9797 16.4779 33.2086 16.82 33.3072V33.3036ZM44.1368 80.3214C45.7901 82.287 49.9121 82.2303 51.4898 80.3214H44.1368ZM59.7248 12.51V4.86001C59.7248 4.67936 59.7607 4.50052 59.8306 4.33392C59.9004 4.16733 60.0028 4.01632 60.1317 3.88972C60.2605 3.76312 60.4133 3.66346 60.5811 3.59657C60.7489 3.52967 60.9284 3.49688 61.109 3.50011V3.50551C64.183 3.50598 67.2269 4.11228 70.0664 5.28976C72.906 6.46724 75.4857 8.1928 77.6581 10.3678C79.8304 12.5428 81.5528 15.1246 82.7268 17.9657C83.9008 20.8067 84.5033 23.8513 84.5 26.9253C84.5 27.2863 84.3567 27.6325 84.1015 27.8879C83.8463 28.1432 83.5002 28.2868 83.1392 28.287H77.093C77.6616 29.2382 77.9693 30.3226 77.9849 31.4307C77.9945 32.2081 77.8497 32.9796 77.5589 33.7006C77.2681 34.4216 76.837 35.0776 76.2907 35.6308C75.7444 36.1839 75.0937 36.623 74.3764 36.9227C73.6591 37.2225 72.8894 37.3768 72.1119 37.3768C71.3345 37.3768 70.5648 37.2225 69.8475 36.9227C69.1302 36.623 68.4795 36.1839 67.9332 35.6308C67.3869 35.0776 66.9558 34.4216 66.665 33.7006C66.3742 32.9796 66.2294 32.2081 66.239 31.4307C66.2546 30.3226 66.5623 29.2382 67.1309 28.287H61.0865C60.7254 28.2868 60.3792 28.1432 60.1239 27.8879C59.8686 27.6326 59.725 27.2864 59.7248 26.9253V19.2753H59.7302C59.7304 18.9158 59.8734 18.571 60.1278 18.3168C60.3821 18.0627 60.7269 17.9199 61.0865 17.9199C63.7865 17.9199 64.0025 19.0422 65.5865 19.0422C66.4219 19.0422 67.2232 18.7103 67.8139 18.1196C68.4046 17.5289 68.7365 16.7276 68.7365 15.8922C68.7365 15.0568 68.4046 14.2556 67.8139 13.6648C67.2232 13.0741 66.4219 12.7422 65.5865 12.7422C64.0259 12.7422 63.7244 13.8708 61.0865 13.8708C60.7255 13.8708 60.3793 13.7275 60.124 13.4723C59.8686 13.2171 59.725 12.871 59.7248 12.51Z"/>
</mask>
<path fill-rule="evenodd" clip-rule="evenodd" d="M62.45 6.26131V10.9107C63.3995 10.3421 64.4826 10.035 65.5892 10.0206C67.1342 10.0397 68.6095 10.6669 69.6952 11.7662C70.781 12.8655 71.3899 14.3484 71.3899 15.8936C71.3899 17.4387 70.781 18.9216 69.6952 20.0209C68.6095 21.1202 67.1342 21.7474 65.5892 21.7665C64.4826 21.7517 63.3997 21.4446 62.45 20.8764V25.5636H68.7311C69.0922 25.5638 69.4384 25.7074 69.6937 25.9627C69.949 26.218 70.0926 26.5642 70.0928 26.9253C70.0928 29.6136 68.9642 29.8467 68.9642 31.4307C68.9642 32.2661 69.2961 33.0674 69.8868 33.6581C70.4776 34.2488 71.2788 34.5807 72.1142 34.5807C72.9496 34.5807 73.7509 34.2488 74.3416 33.6581C74.9323 33.0674 75.2642 32.2661 75.2642 31.4307C75.2642 29.8467 74.1365 29.6136 74.1365 26.9253C74.1365 26.7463 74.1718 26.5691 74.2403 26.4038C74.3089 26.2385 74.4093 26.0883 74.536 25.9618C74.6626 25.8353 74.8129 25.7351 74.9784 25.6667C75.1438 25.5984 75.321 25.5634 75.5 25.5636H81.7523C81.4239 20.5522 79.2849 15.8311 75.7337 12.2799C72.1825 8.72872 67.4614 6.58967 62.45 6.26131ZM20.942 43.3485H27.2105C27.3893 43.3485 27.5663 43.3837 27.7315 43.4522C27.8966 43.5206 28.0467 43.6209 28.173 43.7474C28.2994 43.8739 28.3996 44.024 28.468 44.1892C28.5363 44.3544 28.5714 44.5314 28.5713 44.7102V46.6722C30.1583 47.0873 31.6809 47.718 33.0965 48.5469L34.4843 47.1591C34.6107 47.0327 34.7607 46.9323 34.9259 46.8639C35.091 46.7955 35.2681 46.7602 35.4468 46.7602C35.6256 46.7602 35.8027 46.7955 35.9678 46.8639C36.133 46.9323 36.283 47.0327 36.4094 47.1591L40.841 51.5907C40.9675 51.7171 41.0678 51.8671 41.1362 52.0323C41.2047 52.1975 41.2399 52.3745 41.2399 52.5533C41.2399 52.732 41.2047 52.9091 41.1362 53.0742C41.0678 53.2394 40.9675 53.3894 40.841 53.5158L39.4532 54.9036C40.2823 56.319 40.9128 57.8416 41.327 59.4288H43.2899C43.4687 59.4287 43.6457 59.4638 43.8109 59.5321C43.9761 59.6005 44.1263 59.7007 44.2527 59.8271C44.3792 59.9534 44.4795 60.1035 44.5479 60.2686C44.6164 60.4338 44.6516 60.6108 44.6516 60.7896V67.0581C44.6516 67.2369 44.6164 67.4139 44.5479 67.5791C44.4795 67.7442 44.3792 67.8943 44.2527 68.0207C44.1263 68.147 43.9761 68.2473 43.8109 68.3156C43.6457 68.3839 43.4687 68.419 43.2899 68.4189H41.327C40.9128 70.0061 40.2823 71.5288 39.4532 72.9441L40.841 74.3301C40.9675 74.4565 41.0678 74.6065 41.1362 74.7717C41.2047 74.9369 41.2399 75.1139 41.2399 75.2927C41.2399 75.4714 41.2047 75.6485 41.1362 75.8136C41.0678 75.9788 40.9675 76.1288 40.841 76.2552L40.0868 77.0094C40.7546 77.4023 41.517 77.6055 42.2918 77.5971H53.2601C54.3751 77.5931 55.4433 77.1484 56.2318 76.3601C57.0203 75.5718 57.4651 74.5037 57.4694 73.3887V69.1812H47.7935C47.6118 69.1859 47.431 69.1541 47.2617 69.0878C47.0925 69.0215 46.9383 68.922 46.8081 68.7951C46.6779 68.6683 46.5745 68.5166 46.5038 68.3491C46.4332 68.1817 46.3968 68.0017 46.3968 67.82C46.3968 67.6382 46.4332 67.4583 46.5038 67.2908C46.5745 67.1233 46.6779 66.9717 46.8081 66.8448C46.9383 66.7179 47.0925 66.6184 47.2617 66.5521C47.431 66.4858 47.6118 66.454 47.7935 66.4587H57.5216C58.31 56.3562 67.733 52.7454 68.4557 41.5701H63.8072C64.377 42.5195 64.6851 43.603 64.7 44.7102C64.7 46.2677 64.0813 47.7614 62.98 48.8627C61.8787 49.964 60.385 50.5827 58.8275 50.5827C57.27 50.5827 55.7763 49.964 54.675 48.8627C53.5737 47.7614 52.955 46.2677 52.955 44.7102C52.9695 43.6037 53.2762 42.5207 53.8442 41.571H47.7962C47.6161 41.5717 47.4376 41.5367 47.2711 41.4679C47.1046 41.3991 46.9534 41.2979 46.8263 41.1702C46.6992 41.0426 46.5987 40.8909 46.5307 40.7241C46.4627 40.5573 46.4285 40.3787 46.43 40.1985C46.4301 40.1383 46.434 40.0782 46.4417 40.0185V32.5485C46.4417 32.1876 46.5851 31.8415 46.8403 31.5863C47.0955 31.3311 47.4416 31.1877 47.8025 31.1877C50.4908 31.1877 50.7248 32.3154 52.3088 32.3154C53.1442 32.3154 53.9454 31.9835 54.5362 31.3928C55.1269 30.8021 55.4588 30.0008 55.4588 29.1654C55.4588 28.33 55.1269 27.5288 54.5362 26.938C53.9454 26.3473 53.1442 26.0154 52.3088 26.0154C50.7248 26.0154 50.4908 27.1431 47.8025 27.1431C47.6237 27.1431 47.4467 27.1079 47.2815 27.0394C47.1164 26.971 46.9663 26.8707 46.84 26.7442C46.7136 26.6178 46.6134 26.4676 46.545 26.3024C46.4767 26.1372 46.4416 25.9602 46.4417 25.7814V19.5525C41.2012 19.8981 36.2883 22.2236 32.6989 26.0575C29.1096 29.8913 27.1124 34.9467 27.1124 40.1985C27.1033 40.5535 26.9559 40.8908 26.7016 41.1387C26.4473 41.3865 26.1062 41.5252 25.7512 41.5252C25.3961 41.5252 25.055 41.3865 24.8007 41.1387C24.5465 40.8908 24.399 40.5535 24.3899 40.1985C24.3899 37.1237 24.9955 34.0791 26.1722 31.2383C27.3489 28.3976 29.0736 25.8165 31.2479 23.6423C33.4221 21.4682 36.0033 19.7436 38.8441 18.567C41.6848 17.3904 44.7295 16.7849 47.8043 16.785C48.1654 16.785 48.5118 16.9285 48.7672 17.1838C49.0225 17.4392 49.166 17.7856 49.166 18.1467V24.1911C50.1177 23.623 51.2023 23.3156 52.3106 23.3001C53.8556 23.3192 55.3309 23.9464 56.4166 25.0457C57.5024 26.145 58.1113 27.6279 58.1113 29.1731C58.1113 30.7182 57.5024 32.2011 56.4166 33.3004C55.3309 34.3997 53.8556 35.0269 52.3106 35.046C51.2022 35.0302 50.1176 34.7226 49.166 34.1541V38.8494H55.4408V38.8548C55.8004 38.8548 56.1452 38.9976 56.3995 39.2517C56.6539 39.5059 56.7969 39.8507 56.7971 40.2102C56.7971 42.9102 55.6748 43.1271 55.6748 44.7102C55.6748 45.5456 56.0067 46.3469 56.5974 46.9376C57.1882 47.5283 57.9894 47.8602 58.8248 47.8602C59.6602 47.8602 60.4615 47.5283 61.0522 46.9376C61.6429 46.3469 61.9748 45.5456 61.9748 44.7102C61.9748 43.1487 60.8471 42.8472 60.8471 40.2102C60.8471 40.0314 60.8823 39.8544 60.9508 39.6892C61.0192 39.5241 61.1195 39.374 61.246 39.2477C61.3724 39.1213 61.5226 39.0211 61.6878 38.9527C61.853 38.8844 62.03 38.8493 62.2088 38.8494H69.8588V38.8548C70.2184 38.8548 70.5632 38.9976 70.8175 39.2517C71.0719 39.5059 71.2149 39.8507 71.2151 40.2102C71.2151 54.0306 60.1946 57.4785 60.1946 67.8213V73.3914C60.1903 75.0026 59.6266 76.5624 58.5998 77.804C57.573 79.0457 56.1469 79.8923 54.5651 80.199C53.8586 82.6614 51.1001 84.5001 47.8043 84.5001C44.8775 84.5001 41.8274 82.9431 41.048 80.2125C39.9943 80.0245 38.9977 79.5975 38.1347 78.9642L36.4094 80.6895C36.283 80.816 36.133 80.9163 35.9678 80.9847C35.8027 81.0532 35.6256 81.0884 35.4468 81.0884C35.2681 81.0884 35.091 81.0532 34.9259 80.9847C34.7607 80.9163 34.6107 80.816 34.4843 80.6895L33.0965 79.3017C31.6811 80.1309 30.1584 80.7617 28.5713 81.1764V83.1393C28.5713 83.318 28.5361 83.495 28.4677 83.6601C28.3993 83.8252 28.2991 83.9752 28.1727 84.1015C28.0464 84.2279 27.8964 84.3281 27.7313 84.3965C27.5662 84.4649 27.3892 84.5001 27.2105 84.5001H20.942C20.7633 84.5001 20.5863 84.4649 20.4212 84.3965C20.2561 84.3281 20.1061 84.2279 19.9798 84.1015C19.8534 83.9752 19.7532 83.8252 19.6848 83.6601C19.6164 83.495 19.5812 83.318 19.5812 83.1393V81.1755C17.994 80.761 16.4713 80.1302 15.056 79.3008L13.67 80.6886C13.5436 80.8151 13.3936 80.9154 13.2284 80.9838C13.0633 81.0523 12.8862 81.0875 12.7075 81.0875C12.5287 81.0875 12.3516 81.0523 12.1865 80.9838C12.0213 80.9154 11.8713 80.8151 11.7449 80.6886L7.3115 76.257C7.18504 76.1306 7.08473 75.9806 7.01628 75.8154C6.94784 75.6503 6.91261 75.4732 6.91261 75.2945C6.91261 75.1157 6.94784 74.9387 7.01628 74.7735C7.08473 74.6083 7.18504 74.4583 7.3115 74.3319L8.6993 72.9441C7.86992 71.5288 7.23911 70.0061 6.8246 68.4189H4.8617C4.68292 68.419 4.50587 68.3839 4.34067 68.3156C4.17546 68.2473 4.02534 68.147 3.89889 68.0207C3.77243 67.8943 3.67211 67.7442 3.60367 67.5791C3.53523 67.4139 3.5 67.2369 3.5 67.0581V60.7896C3.5 60.4287 3.64337 60.0826 3.89857 59.8274C4.15377 59.5722 4.49989 59.4288 4.8608 59.4288H6.8246C7.23966 57.8418 7.87044 56.3192 8.6993 54.9036L7.3115 53.5158C7.18504 53.3894 7.08473 53.2394 7.01628 53.0742C6.94784 52.9091 6.91261 52.732 6.91261 52.5533C6.91261 52.3745 6.94784 52.1975 7.01628 52.0323C7.08473 51.8671 7.18504 51.7171 7.3115 51.5907L11.7431 47.1591C11.8695 47.0327 12.0195 46.9323 12.1847 46.8639C12.3498 46.7955 12.5269 46.7602 12.7057 46.7602C12.8844 46.7602 13.0615 46.7955 13.2266 46.8639C13.3918 46.9323 13.5418 47.0327 13.6682 47.1591L15.056 48.5469C16.4715 47.7179 17.9941 47.0871 19.5812 46.6722V44.7102C19.5811 44.5314 19.6162 44.3544 19.6845 44.1892C19.7529 44.024 19.8531 43.8739 19.9795 43.7474C20.1058 43.6209 20.2559 43.5206 20.421 43.4522C20.5862 43.3837 20.7632 43.3485 20.942 43.3485ZM25.8488 46.0701H22.3037V47.7558C22.3039 48.0719 22.1937 48.3782 21.9923 48.6218C21.7909 48.8655 21.5108 49.0312 21.2003 49.0905C19.2246 49.4719 17.3456 50.2465 15.6752 51.3684C15.4129 51.5632 15.0893 51.6572 14.7635 51.6332C14.4377 51.6092 14.1314 51.4689 13.9004 51.2379L12.7088 50.0454L10.1987 52.5501L11.3912 53.7417C11.6142 53.9651 11.7526 54.2591 11.7828 54.5733C11.813 54.8875 11.7331 55.2025 11.5568 55.4643C10.4277 57.126 9.64638 58.999 9.26 60.9705C9.21636 61.2975 9.05539 61.5976 8.80706 61.8148C8.55872 62.032 8.23993 62.1516 7.91 62.1513H6.2234V65.6964H7.91C8.22612 65.6963 8.53239 65.8064 8.77603 66.0078C9.01967 66.2092 9.18542 66.4893 9.2447 66.7998C9.62606 68.7756 10.4007 70.6545 11.5226 72.3249C11.7172 72.5873 11.8111 72.9108 11.7871 73.2366C11.7631 73.5623 11.623 73.8686 11.3921 74.0997L10.1996 75.2913L12.707 77.7987L13.8986 76.6062C14.122 76.3832 14.416 76.2448 14.7302 76.2146C15.0444 76.1844 15.3594 76.2643 15.6212 76.4406C17.2811 77.5699 19.1522 78.3521 21.122 78.7401C21.4492 78.7836 21.7494 78.9444 21.9668 79.1928C22.1842 79.4411 22.304 79.7601 22.3037 80.0901V81.7758H25.8488V80.0901C25.849 79.774 25.9594 79.4678 26.1609 79.2242C26.3625 78.9806 26.6426 78.8148 26.9531 78.7554C28.9294 78.3746 30.809 77.6002 32.48 76.4784C32.7424 76.2838 33.0659 76.19 33.3916 76.2139C33.7174 76.2379 34.0237 76.3781 34.2548 76.6089L35.45 77.8014L37.9574 75.294L36.7649 74.1024C36.5418 73.8791 36.4032 73.5851 36.373 73.2708C36.3428 72.9566 36.4228 72.6416 36.5993 72.3798C37.7286 70.7202 38.51 68.8489 38.8961 66.879C38.9397 66.5519 39.1007 66.2518 39.349 66.0344C39.5973 65.817 39.9161 65.6973 40.2461 65.6973H41.93V62.1513H40.2434C39.9272 62.1511 39.6211 62.0407 39.3775 61.8392C39.1339 61.6376 38.9681 61.3575 38.9087 61.047C38.5274 59.0707 37.7528 57.1912 36.6308 55.5201C36.436 55.2578 36.3421 54.9343 36.366 54.6084C36.39 54.2826 36.5303 53.9763 36.7613 53.7453L37.9538 52.5501L35.45 50.0463L34.2584 51.2388C34.0351 51.462 33.7411 51.6005 33.4268 51.6307C33.1126 51.6609 32.7976 51.5809 32.5358 51.4044C30.876 50.2755 29.0048 49.4942 27.035 49.1076C26.7079 49.064 26.4077 48.9031 26.1904 48.6547C25.973 48.4064 25.8532 48.0876 25.8533 47.7576V46.0701H25.8488ZM24.0758 55.5291C22.4154 55.5291 20.7923 56.0215 19.4117 56.944C18.0311 57.8664 16.9551 59.1776 16.3196 60.7116C15.6842 62.2456 15.518 63.9336 15.8419 65.5621C16.1658 67.1906 16.9654 68.6865 18.1395 69.8606C19.3136 71.0347 20.8095 71.8343 22.438 72.1582C24.0665 72.4821 25.7545 72.3159 27.2885 71.6805C28.8225 71.0451 30.1337 69.969 31.0562 68.5884C31.9786 67.2079 32.471 65.5847 32.471 63.9243C32.4711 62.8218 32.2541 61.7301 31.8322 60.7115C31.4103 59.6929 30.792 58.7673 30.0124 57.9877C29.2328 57.2082 28.3073 56.5898 27.2886 56.1679C26.27 55.7461 25.1783 55.529 24.0758 55.5291ZM16.2152 56.0628C14.6606 57.6176 13.6019 59.5984 13.173 61.7548C12.7441 63.9112 12.9643 66.1464 13.8057 68.1777C14.6472 70.209 16.072 71.9451 17.9002 73.1666C19.7283 74.3881 21.8776 75.0401 24.0763 75.0401C26.2749 75.0401 28.4242 74.3881 30.2523 73.1666C32.0805 71.9451 33.5053 70.209 34.3468 68.1777C35.1882 66.1464 35.4084 63.9112 34.9795 61.7548C34.5506 59.5984 33.4919 57.6176 31.9373 56.0628C30.905 55.0304 29.6795 54.2115 28.3307 53.6528C26.9818 53.0941 25.5362 52.8065 24.0763 52.8065C22.6163 52.8065 21.1707 53.0941 19.8218 53.6528C18.473 54.2115 17.2475 55.0304 16.2152 56.0628ZM38.2832 9.91621C38.2331 9.74246 38.2181 9.56046 38.2392 9.38086C38.2603 9.20126 38.317 9.02767 38.406 8.87024C38.495 8.71282 38.6145 8.57472 38.7574 8.46403C38.9004 8.35334 39.0641 8.27229 39.2388 8.2256C39.4135 8.17892 39.5957 8.16755 39.7749 8.19215C39.9541 8.21676 40.1265 8.27685 40.2821 8.36891C40.4378 8.46096 40.5735 8.58314 40.6814 8.72828C40.7892 8.87343 40.8671 9.03862 40.9103 9.21421L41.8472 12.7125C41.9323 13.0582 41.8785 13.4235 41.6973 13.73C41.516 14.0364 41.2218 14.2596 40.8778 14.3515C40.5339 14.4434 40.1675 14.3968 39.8576 14.2216C39.5476 14.0464 39.3188 13.7566 39.2201 13.4145L38.2832 9.91621ZM24.4169 18.7362L26.9783 21.2976C27.1035 21.4294 27.2538 21.5348 27.4203 21.6076C27.5869 21.6803 27.7663 21.719 27.9481 21.7214C28.1298 21.7237 28.3102 21.6896 28.4786 21.6211C28.647 21.5527 28.7999 21.4512 28.9284 21.3226C29.057 21.1941 29.1585 21.0412 29.2269 20.8728C29.2954 20.7044 29.3295 20.524 29.3272 20.3423C29.3248 20.1606 29.2861 19.9811 29.2133 19.8146C29.1406 19.648 29.0352 19.4977 28.9034 19.3725L26.342 16.8102C26.2168 16.6784 26.0665 16.573 25.9 16.5003C25.7334 16.4275 25.554 16.3888 25.3722 16.3865C25.1905 16.3841 25.0101 16.4182 24.8417 16.4867C24.6733 16.5552 24.5204 16.6567 24.3919 16.7852C24.2633 16.9137 24.1618 17.0667 24.0934 17.235C24.0249 17.4034 23.9908 17.5838 23.9931 17.7655C23.9955 17.9473 24.0342 18.1267 24.107 18.2933C24.1797 18.4598 24.2851 18.6101 24.4169 18.7353V18.7362ZM16.82 33.3036L20.3192 34.2414C20.6649 34.3266 21.0302 34.2727 21.3367 34.0915C21.6431 33.9102 21.8663 33.616 21.9582 33.272C22.0501 32.9281 22.0035 32.5618 21.8283 32.2518C21.6531 31.9418 21.3633 31.713 21.0212 31.6143L17.522 30.6801C17.1763 30.595 16.811 30.6488 16.5045 30.8301C16.1981 31.0113 15.9749 31.3055 15.883 31.6495C15.7911 31.9935 15.8377 32.3598 16.0129 32.6697C16.1881 32.9797 16.4779 33.2086 16.82 33.3072V33.3036ZM44.1368 80.3214C45.7901 82.287 49.9121 82.2303 51.4898 80.3214H44.1368ZM59.7248 12.51V4.86001C59.7248 4.67936 59.7607 4.50052 59.8306 4.33392C59.9004 4.16733 60.0028 4.01632 60.1317 3.88972C60.2605 3.76312 60.4133 3.66346 60.5811 3.59657C60.7489 3.52967 60.9284 3.49688 61.109 3.50011V3.50551C64.183 3.50598 67.2269 4.11228 70.0664 5.28976C72.906 6.46724 75.4857 8.1928 77.6581 10.3678C79.8304 12.5428 81.5528 15.1246 82.7268 17.9657C83.9008 20.8067 84.5033 23.8513 84.5 26.9253C84.5 27.2863 84.3567 27.6325 84.1015 27.8879C83.8463 28.1432 83.5002 28.2868 83.1392 28.287H77.093C77.6616 29.2382 77.9693 30.3226 77.9849 31.4307C77.9945 32.2081 77.8497 32.9796 77.5589 33.7006C77.2681 34.4216 76.837 35.0776 76.2907 35.6308C75.7444 36.1839 75.0937 36.623 74.3764 36.9227C73.6591 37.2225 72.8894 37.3768 72.1119 37.3768C71.3345 37.3768 70.5648 37.2225 69.8475 36.9227C69.1302 36.623 68.4795 36.1839 67.9332 35.6308C67.3869 35.0776 66.9558 34.4216 66.665 33.7006C66.3742 32.9796 66.2294 32.2081 66.239 31.4307C66.2546 30.3226 66.5623 29.2382 67.1309 28.287H61.0865C60.7254 28.2868 60.3792 28.1432 60.1239 27.8879C59.8686 27.6326 59.725 27.2864 59.7248 26.9253V19.2753H59.7302C59.7304 18.9158 59.8734 18.571 60.1278 18.3168C60.3821 18.0627 60.7269 17.9199 61.0865 17.9199C63.7865 17.9199 64.0025 19.0422 65.5865 19.0422C66.4219 19.0422 67.2232 18.7103 67.8139 18.1196C68.4046 17.5289 68.7365 16.7276 68.7365 15.8922C68.7365 15.0568 68.4046 14.2556 67.8139 13.6648C67.2232 13.0741 66.4219 12.7422 65.5865 12.7422C64.0259 12.7422 63.7244 13.8708 61.0865 13.8708C60.7255 13.8708 60.3793 13.7275 60.124 13.4723C59.8686 13.2171 59.725 12.871 59.7248 12.51Z" fill="black" stroke="white" stroke-width="0.6" mask="url(#path-1-inside-1_4_529)"/>
<circle cx="23.9375" cy="63.8125" r="8.6875" fill="#DD0004"/>
</svg>
