<svg width="88" height="88" viewBox="0 0 88 88" fill="none" xmlns="http://www.w3.org/2000/svg">
<rect width="88" height="88" fill="white"/>
<path d="M39.5 48.5L41 51.5L44 52.5L47 51L49.5 47L51.5 42.5L52 39.5L50 35.5L44 33L40.5 33.5L37 37L35.5 41L37.5 46.5L39.5 48.5Z" fill="#DD0004"/>
<path d="M44.0001 24.6138C33.3012 24.6138 24.6072 33.3067 24.6072 43.992C24.6072 54.6909 33.3012 63.3866 44.0001 63.3866C54.699 63.3866 63.393 54.6909 63.393 43.992C63.393 33.3075 54.699 24.6138 44.0001 24.6138ZM44.0001 26.2804C53.7978 26.2804 61.7263 34.2099 61.7263 43.992C61.7263 53.7898 53.7978 61.7199 44.0001 61.7199C34.2023 61.7199 26.2738 53.7898 26.2738 43.992C26.2738 34.2091 34.2023 26.2804 44.0001 26.2804Z" fill="black"/>
<path d="M44.0001 8.14404C43.7791 8.14404 43.5671 8.23184 43.4108 8.38812C43.2545 8.5444 43.1667 8.75636 43.1667 8.97738V20.4194C43.1667 20.6404 43.2545 20.8524 43.4108 21.0087C43.5671 21.165 43.7791 21.2528 44.0001 21.2528C44.2211 21.2528 44.4331 21.165 44.5893 21.0087C44.7456 20.8524 44.8334 20.6404 44.8334 20.4194V8.97738C44.8334 8.75636 44.7456 8.5444 44.5893 8.38812C44.4331 8.23184 44.2211 8.14404 44.0001 8.14404Z" fill="black"/>
<path d="M40.7528 17.1737C40.5966 17.33 40.5088 17.5419 40.5088 17.7629C40.5088 17.9839 40.5966 18.1958 40.7528 18.3521L43.4107 21.0083C43.567 21.1646 43.7789 21.2523 43.9999 21.2523C44.2208 21.2523 44.4328 21.1646 44.5891 21.0083L47.2469 18.3521C47.4032 18.1958 47.491 17.9839 47.491 17.7629C47.491 17.5419 47.4032 17.33 47.2469 17.1737C47.0907 17.0175 46.8787 16.9297 46.6578 16.9297C46.4368 16.9297 46.2248 17.0175 46.0686 17.1737L43.9999 19.2408L41.9312 17.1737C41.7749 17.0175 41.563 16.9297 41.342 16.9297C41.121 16.9297 40.9091 17.0175 40.7528 17.1737Z" fill="black"/>
<path d="M44 4C42.4055 4 41.0947 5.31074 41.0947 6.90527C41.0947 8.4998 42.4055 9.81217 44 9.81217C45.5945 9.81217 46.9053 8.4998 46.9053 6.90527C46.9053 5.31074 45.5945 4 44 4ZM44 5.66667C44.6871 5.66667 45.2386 6.21814 45.2386 6.90527C45.2386 7.59241 44.6871 8.14551 44 8.14551C43.3129 8.14551 42.7614 7.59241 42.7614 6.90527C42.7614 6.21814 43.3129 5.66667 44 5.66667Z" fill="black"/>
<path d="M44.0001 66.7456C43.7791 66.7456 43.5671 66.8334 43.4108 66.9897C43.2545 67.146 43.1667 67.3579 43.1667 67.5789V79.0226C43.1667 79.2436 43.2545 79.4556 43.4108 79.6119C43.5671 79.7682 43.7791 79.856 44.0001 79.856C44.2211 79.856 44.4331 79.7682 44.5893 79.6119C44.7456 79.4556 44.8334 79.2436 44.8334 79.0226V67.5789C44.8334 67.3579 44.7456 67.146 44.5893 66.9897C44.4331 66.8334 44.2211 66.7456 44.0001 66.7456Z" fill="black"/>
<path d="M43.9999 66.7456C43.7789 66.7456 43.5669 66.8335 43.4107 66.9897L40.7528 69.6476C40.5966 69.8039 40.5088 70.0158 40.5088 70.2368C40.5088 70.4578 40.5966 70.6697 40.7528 70.826C40.9091 70.9823 41.121 71.07 41.342 71.07C41.563 71.07 41.7749 70.9823 41.9312 70.826L43.9999 68.7573L46.0686 70.826C46.2248 70.9823 46.4368 71.07 46.6578 71.07C46.8787 71.07 47.0907 70.9823 47.2469 70.826C47.4032 70.6697 47.491 70.4578 47.491 70.2368C47.491 70.0158 47.4032 69.8039 47.2469 69.6476L44.5891 66.9897C44.4328 66.8335 44.2209 66.7456 43.9999 66.7456Z" fill="black"/>
<path d="M44 78.188C42.4055 78.188 41.0947 79.5004 41.0947 81.0949C41.0947 82.6894 42.4055 84.0002 44 84.0002C45.5945 84.0002 46.9053 82.6894 46.9053 81.0949C46.9053 79.5004 45.5945 78.188 44 78.188ZM44 79.8547C44.6871 79.8547 45.2386 80.4078 45.2386 81.0949C45.2386 81.782 44.6871 82.3335 44 82.3335C43.3129 82.3335 42.7614 81.782 42.7614 81.0949C42.7614 80.4078 43.3129 79.8547 44 79.8547Z" fill="black"/>
<path d="M68.7655 18.4009C68.5445 18.4009 68.3326 18.4887 68.1763 18.645L60.0839 26.7375C59.9276 26.8937 59.8398 27.1057 59.8398 27.3267C59.8398 27.5476 59.9276 27.7596 60.0839 27.9159C60.2401 28.0721 60.4521 28.1599 60.673 28.1599C60.894 28.1599 61.106 28.0721 61.2622 27.9159L69.3547 19.8234C69.5109 19.6671 69.5987 19.4552 69.5987 19.2342C69.5987 19.0132 69.5109 18.8013 69.3547 18.645C69.1984 18.4887 68.9865 18.4009 68.7655 18.4009Z" fill="black"/>
<path d="M60.6732 22.7354C60.4522 22.7354 60.2402 22.8231 60.0839 22.9794C59.9276 23.1357 59.8398 23.3477 59.8398 23.5687V27.3268C59.8399 27.5478 59.9277 27.7598 60.0839 27.9161C60.2402 28.0723 60.4522 28.1601 60.6732 28.1602H64.4313C64.6523 28.1602 64.8643 28.0724 65.0206 27.9161C65.1769 27.7598 65.2646 27.5478 65.2646 27.3268C65.2646 27.1058 65.1769 26.8938 65.0206 26.7376C64.8643 26.5813 64.6523 26.4935 64.4313 26.4935H61.5065V23.5687C61.5065 23.3477 61.4187 23.1357 61.2624 22.9794C61.1062 22.8231 60.8942 22.7354 60.6732 22.7354Z" fill="black"/>
<path d="M70.2304 14.8706C69.485 14.8706 68.7401 15.1516 68.1764 15.7153C67.0489 16.8428 67.0489 18.6976 68.1764 19.825C69.3033 20.952 71.1573 20.9522 72.2845 19.825C73.412 18.6976 73.4126 16.843 72.2862 15.7153H72.2845C71.7208 15.1516 70.9759 14.8706 70.2304 14.8706ZM70.2304 16.5291C70.5471 16.5291 70.8632 16.6508 71.1061 16.8937C71.5913 17.3794 71.592 18.1608 71.1061 18.6466C70.6202 19.1325 69.8397 19.132 69.3548 18.6466C68.8689 18.1608 68.8689 17.3796 69.3548 16.8937C69.5977 16.6508 69.9138 16.5291 70.2304 16.5291Z" fill="black"/>
<path d="M26.7374 60.0839L18.6466 68.1747C18.4904 68.331 18.4026 68.5429 18.4026 68.7639C18.4026 68.9849 18.4904 69.1968 18.6466 69.3531C18.8029 69.5093 19.0148 69.5971 19.2358 69.5971C19.4568 69.5971 19.6687 69.5093 19.825 69.3531L27.9158 61.2622C28.0721 61.106 28.1598 60.894 28.1598 60.673C28.1598 60.4521 28.0721 60.2401 27.9158 60.0839C27.7595 59.9276 27.5476 59.8398 27.3266 59.8398C27.1056 59.8398 26.8937 59.9276 26.7374 60.0839Z" fill="black"/>
<path d="M23.5687 59.8398C23.3477 59.8398 23.1357 59.9276 22.9794 60.0839C22.8231 60.2402 22.7354 60.4522 22.7354 60.6732C22.7354 60.8942 22.8231 61.1062 22.9794 61.2624C23.1357 61.4187 23.3477 61.5065 23.5687 61.5065H26.4935V64.4313C26.4935 64.6523 26.5813 64.8643 26.7376 65.0206C26.8938 65.1769 27.1058 65.2646 27.3268 65.2646C27.5478 65.2646 27.7598 65.1769 27.9161 65.0206C28.0724 64.8643 28.1602 64.6523 28.1602 64.4313V60.6732C28.1601 60.4522 28.0723 60.2402 27.9161 60.0839C27.7598 59.9277 27.5478 59.8399 27.3268 59.8398H23.5687Z" fill="black"/>
<path d="M17.7711 67.3301C17.0257 67.3301 16.2792 67.6111 15.7155 68.1748C14.588 69.3023 14.588 71.157 15.7155 72.2845C16.8429 73.412 18.6977 73.412 19.8252 72.2845C20.9526 71.157 20.9526 69.3023 19.8252 68.1748C19.2614 67.6111 18.5166 67.3301 17.7711 67.3301ZM17.7711 68.9886C18.0878 68.9886 18.4039 69.1103 18.6468 69.3532C19.1327 69.8391 19.1327 70.6203 18.6468 71.1061C18.1609 71.592 17.3797 71.592 16.8939 71.1061C16.408 70.6203 16.408 69.8391 16.8939 69.3532C17.1368 69.1103 17.4545 68.9886 17.7711 68.9886Z" fill="black"/>
<path d="M67.5806 43.1665C67.3596 43.1665 67.1477 43.2543 66.9914 43.4106C66.8351 43.5669 66.7473 43.7788 66.7473 43.9998C66.7473 44.2209 66.8351 44.4328 66.9914 44.5891C67.1477 44.7454 67.3596 44.8332 67.5806 44.8332H79.0227C79.2437 44.8332 79.4557 44.7454 79.612 44.5891C79.7682 44.4328 79.856 44.2209 79.856 43.9998C79.856 43.7788 79.7682 43.5669 79.612 43.4106C79.4557 43.2543 79.2437 43.1665 79.0227 43.1665H67.5806Z" fill="black"/>
<path d="M70.2367 40.5088C70.0157 40.5088 69.8038 40.5966 69.6475 40.7529L66.9913 43.4108C66.8351 43.5671 66.7473 43.779 66.7473 44C66.7473 44.221 66.8351 44.4329 66.9913 44.5892L69.6475 47.2471C69.8038 47.4033 70.0158 47.4911 70.2367 47.4911C70.4577 47.4911 70.6697 47.4033 70.8259 47.2471C70.9822 47.0908 71.0699 46.8789 71.0699 46.6579C71.0699 46.4369 70.9822 46.225 70.8259 46.0687L68.7589 44L70.8259 41.9313C70.9822 41.775 71.0699 41.5631 71.0699 41.3421C71.0699 41.1211 70.9822 40.9092 70.8259 40.7529C70.6697 40.5966 70.4577 40.5088 70.2367 40.5088Z" fill="black"/>
<path d="M81.0946 41.0947C79.5001 41.0947 78.1877 42.4055 78.1877 44C78.1877 45.5945 79.5001 46.9053 81.0946 46.9053C82.6892 46.9053 83.9999 45.5945 83.9999 44C83.9999 42.4055 82.6892 41.0947 81.0946 41.0947ZM81.0946 42.7614C81.7818 42.7614 82.3333 43.3129 82.3333 44C82.3333 44.6871 81.7818 45.2386 81.0946 45.2386C80.4075 45.2386 79.8544 44.6871 79.8544 44C79.8544 43.3129 80.4075 42.7614 81.0946 42.7614Z" fill="black"/>
<path d="M8.97713 43.1665C8.75612 43.1665 8.54416 43.2543 8.38788 43.4106C8.2316 43.5669 8.1438 43.7788 8.1438 43.9998C8.1438 44.2209 8.2316 44.4328 8.38788 44.5891C8.54416 44.7454 8.75612 44.8332 8.97713 44.8332H20.4208C20.6418 44.8332 20.8538 44.7454 21.0101 44.5891C21.1664 44.4328 21.2542 44.2209 21.2542 43.9998C21.2542 43.7788 21.1664 43.5669 21.0101 43.4106C20.8538 43.2543 20.6418 43.1665 20.4208 43.1665H8.97713Z" fill="black"/>
<path d="M17.7629 40.5088C17.5419 40.5088 17.33 40.5966 17.1737 40.7529C17.0175 40.9092 16.9297 41.1211 16.9297 41.3421C16.9297 41.5631 17.0175 41.775 17.1737 41.9313L19.2424 44L17.1737 46.0687C17.0175 46.225 16.9297 46.4369 16.9297 46.6579C16.9297 46.8789 17.0175 47.0908 17.1737 47.2471C17.33 47.4033 17.5419 47.4911 17.7629 47.4911C17.9839 47.4911 18.1958 47.4033 18.3521 47.2471L21.01 44.5892C21.1662 44.4329 21.2539 44.221 21.2539 44C21.2539 43.779 21.1662 43.5671 21.01 43.4108L18.3521 40.7529C18.1958 40.5966 17.9839 40.5088 17.7629 40.5088Z" fill="black"/>
<path d="M6.90527 41.0947C5.31074 41.0947 4 42.4055 4 44C4 45.5945 5.31074 46.9053 6.90527 46.9053C8.4998 46.9053 9.81217 45.5945 9.81217 44C9.81217 42.4055 8.4998 41.0947 6.90527 41.0947ZM6.90527 42.7614C7.59241 42.7614 8.14551 43.3129 8.14551 44C8.14551 44.6871 7.59241 45.2386 6.90527 45.2386C6.21814 45.2386 5.66667 44.6871 5.66667 44C5.66667 43.3129 6.21814 42.7614 6.90527 42.7614Z" fill="black"/>
<path d="M60.673 59.8398C60.452 59.8399 60.2401 59.9277 60.0839 60.084C59.9276 60.2403 59.8398 60.4522 59.8398 60.6732C59.8398 60.8942 59.9276 61.1061 60.0839 61.2624L68.1763 69.3548C68.3326 69.5111 68.5445 69.5988 68.7655 69.5988C68.9865 69.5988 69.1984 69.5111 69.3547 69.3548C69.5109 69.1985 69.5987 68.9866 69.5987 68.7656C69.5987 68.5446 69.5109 68.3327 69.3547 68.1764L61.2622 60.084C61.106 59.9277 60.8941 59.8399 60.673 59.8398Z" fill="black"/>
<path d="M60.6732 59.8398C60.4522 59.8399 60.2402 59.9277 60.0839 60.0839C59.9277 60.2402 59.8399 60.4522 59.8398 60.6732V64.4313C59.8398 64.6523 59.9276 64.8643 60.0839 65.0206C60.2402 65.1769 60.4522 65.2646 60.6732 65.2646C60.8942 65.2646 61.1062 65.1769 61.2624 65.0206C61.4187 64.8643 61.5065 64.6523 61.5065 64.4313V61.5065H64.4313C64.6523 61.5065 64.8643 61.4187 65.0206 61.2624C65.1769 61.1062 65.2646 60.8942 65.2646 60.6732C65.2646 60.4522 65.1769 60.2402 65.0206 60.0839C64.8643 59.9276 64.6523 59.8398 64.4313 59.8398H60.6732Z" fill="black"/>
<path d="M70.229 67.3301C69.4835 67.3301 68.7387 67.6111 68.1749 68.1748C67.0475 69.3023 67.0475 71.157 68.1749 72.2845C69.3024 73.412 71.1572 73.412 72.2846 72.2845C73.4121 71.157 73.4121 69.3023 72.2846 68.1748C71.7209 67.6111 70.9745 67.3301 70.229 67.3301ZM70.229 68.9886C70.5456 68.9886 70.8633 69.1103 71.1063 69.3532C71.5921 69.8391 71.5921 70.6203 71.1063 71.1061C70.6204 71.592 69.8392 71.592 69.3533 71.1061C68.8675 70.6203 68.8675 69.8391 69.3533 69.3532C69.5963 69.1103 69.9124 68.9886 70.229 68.9886Z" fill="black"/>
<path d="M19.2358 18.4009C19.0148 18.4009 18.8029 18.4887 18.6466 18.645C18.4904 18.8013 18.4026 19.0132 18.4026 19.2342C18.4026 19.4552 18.4904 19.6671 18.6466 19.8234L26.7374 27.9159C26.8937 28.0721 27.1056 28.1599 27.3266 28.1599C27.5476 28.1599 27.7595 28.0721 27.9158 27.9159C28.0721 27.7596 28.1598 27.5476 28.1598 27.3267C28.1598 27.1057 28.0721 26.8937 27.9158 26.7375L19.825 18.645C19.6687 18.4887 19.4568 18.4009 19.2358 18.4009Z" fill="black"/>
<path d="M27.3268 22.7354C27.1058 22.7354 26.8938 22.8231 26.7376 22.9794C26.5813 23.1357 26.4935 23.3477 26.4935 23.5687V26.4935H23.5687C23.3477 26.4935 23.1357 26.5813 22.9794 26.7376C22.8231 26.8938 22.7354 27.1058 22.7354 27.3268C22.7354 27.5478 22.8231 27.7598 22.9794 27.9161C23.1357 28.0724 23.3477 28.1602 23.5687 28.1602H27.3268C27.5478 28.1601 27.7598 28.0723 27.9161 27.9161C28.0723 27.7598 28.1601 27.5478 28.1602 27.3268V23.5687C28.1602 23.3477 28.0724 23.1357 27.9161 22.9794C27.7598 22.8231 27.5478 22.7354 27.3268 22.7354Z" fill="black"/>
<path d="M17.7711 14.8706C17.0257 14.8706 16.2792 15.1516 15.7155 15.7153C14.588 16.8428 14.588 18.6976 15.7155 19.825C16.8429 20.9525 18.6977 20.9525 19.8252 19.825C20.9526 18.6976 20.9526 16.8428 19.8252 15.7153C19.2614 15.1516 18.5166 14.8706 17.7711 14.8706ZM17.7711 16.5291C18.0878 16.5291 18.4039 16.6508 18.6468 16.8937C19.1327 17.3796 19.1327 18.1608 18.6468 18.6466C18.1609 19.1325 17.3797 19.1325 16.8939 18.6466C16.408 18.1608 16.408 17.3796 16.8939 16.8937C17.1368 16.6508 17.4545 16.5291 17.7711 16.5291Z" fill="black"/>
<path d="M46.7459 53.2181H40.9017C40.4676 53.2181 40.1067 52.8856 40.0709 52.4531C39.9234 50.6506 39.0701 48.9281 37.6684 47.6015C35.8626 45.8923 34.8684 43.5823 34.8684 41.0948C34.8684 38.6223 35.8534 36.3206 37.6409 34.6148C39.4284 32.9098 41.7734 32.0373 44.2534 32.1498C48.9409 32.369 52.6859 36.219 52.7776 40.9156C52.8267 43.429 51.8109 45.8623 49.9909 47.5906C48.5817 48.9281 47.7242 50.6565 47.5767 52.454C47.5409 52.8856 47.1792 53.2181 46.7459 53.2181ZM41.6351 51.5515H46.0126C46.3476 49.6256 47.3342 47.814 48.8426 46.3815C50.3234 44.9748 51.1509 42.994 51.1101 40.9473C51.0367 37.189 47.9251 33.989 44.1742 33.814C42.1534 33.7131 40.2451 34.4323 38.7909 35.8198C37.3359 37.2081 36.5342 39.0815 36.5342 41.094C36.5342 43.1181 37.3434 44.999 38.8134 46.389C40.3176 47.8131 41.3017 49.6231 41.6351 51.5515Z" fill="black"/>
<path d="M46.7407 57.2693H40.9057C39.329 57.2693 38.0474 55.9868 38.0474 54.4101C38.0474 52.8334 39.3299 51.5518 40.9057 51.5518H46.7407C48.3174 51.5518 49.599 52.8334 49.599 54.4101C49.599 55.9868 48.3174 57.2693 46.7407 57.2693ZM40.9057 53.2184C40.2482 53.2184 39.714 53.7534 39.714 54.4101C39.714 55.0676 40.249 55.6026 40.9057 55.6026H46.7407C47.3982 55.6026 47.9324 55.0676 47.9324 54.4101C47.9324 53.7534 47.3974 53.2184 46.7407 53.2184H40.9057Z" fill="black"/>
<path d="M43.8232 59.7975C42.2465 59.7975 40.9648 58.5159 40.9648 56.9392V56.4359C40.9648 55.975 41.3382 55.6025 41.7982 55.6025H45.8482C46.3082 55.6025 46.6815 55.975 46.6815 56.4359V56.9392C46.6815 58.5159 45.399 59.7975 43.8232 59.7975ZM42.6773 57.2692C42.8207 57.7667 43.2798 58.1309 43.8232 58.1309C44.3665 58.1309 44.8257 57.7659 44.969 57.2692H42.6773Z" fill="black"/>
<path d="M43.8233 30.4199C43.3633 30.4199 42.99 30.0474 42.99 29.5866V28.3299C42.99 27.8691 43.3633 27.4966 43.8233 27.4966C44.2833 27.4966 44.6567 27.8691 44.6567 28.3299V29.5866C44.6567 30.0474 44.2833 30.4199 43.8233 30.4199Z" fill="black"/>
<path d="M52.4234 33.9815C52.2101 33.9815 51.9967 33.8998 51.8342 33.7373C51.5084 33.4115 51.5084 32.8848 51.8342 32.559L52.7226 31.6706C53.0484 31.3448 53.5751 31.3448 53.9009 31.6706C54.2267 31.9965 54.2267 32.5231 53.9009 32.849L53.0126 33.7373C52.8492 33.9006 52.6359 33.9815 52.4234 33.9815Z" fill="black"/>
<path d="M34.335 52.0699C34.1217 52.0699 33.9083 51.9882 33.7458 51.8257C33.42 51.4999 33.42 50.9732 33.7458 50.6474L34.6342 49.759C34.96 49.4332 35.4867 49.4332 35.8125 49.759C36.1383 50.0849 36.1383 50.6115 35.8125 50.9374L34.9242 51.8257C34.7617 51.989 34.5483 52.0699 34.335 52.0699Z" fill="black"/>
<path d="M57.2419 42.5822H55.9852C55.5252 42.5822 55.1519 42.2097 55.1519 41.7489C55.1519 41.288 55.5252 40.9155 55.9852 40.9155H57.2419C57.7019 40.9155 58.0752 41.288 58.0752 41.7489C58.0752 42.2097 57.7027 42.5822 57.2419 42.5822Z" fill="black"/>
<path d="M31.6618 42.5822H30.4051C29.9451 42.5822 29.5718 42.2097 29.5718 41.7489C29.5718 41.288 29.9451 40.9155 30.4051 40.9155H31.6618C32.1218 40.9155 32.4951 41.288 32.4951 41.7489C32.4951 42.2097 32.1218 42.5822 31.6618 42.5822Z" fill="black"/>
<path d="M53.3117 52.0699C53.0984 52.0699 52.8851 51.9882 52.7226 51.8257L51.8342 50.9374C51.5084 50.6115 51.5084 50.0849 51.8342 49.759C52.1601 49.4332 52.6867 49.4332 53.0126 49.759L53.9009 50.6474C54.2267 50.9732 54.2267 51.4999 53.9009 51.8257C53.7384 51.989 53.5251 52.0699 53.3117 52.0699Z" fill="black"/>
<path d="M35.2233 33.9815C35.01 33.9815 34.7967 33.8998 34.6342 33.7373L33.7458 32.849C33.42 32.5231 33.42 31.9965 33.7458 31.6706C34.0708 31.3448 34.5983 31.3448 34.9242 31.6706L35.8133 32.559C36.1392 32.8848 36.1392 33.4115 35.8133 33.7373C35.6508 33.9006 35.4367 33.9815 35.2233 33.9815Z" fill="black"/>
</svg>
