<svg width="83" height="83" viewBox="0 0 83 83" fill="none" xmlns="http://www.w3.org/2000/svg">
<path d="M46.5 36L42 42L37.5 36V32.5H36V26H33L30 19.5L28 13L31.5 7L37.5 2H44L50 5L53.5 9L55 15L52 23.5L48 27V32.5H45.5L46.5 36Z" fill="#DD0004"/>
<path d="M76.0312 70.909V50.675C76.0312 42.6388 69.477 36.1 61.4219 36.1C58.6859 36.1 56.132 36.8685 53.9405 38.1789L47.6293 35.5567C47.1339 35.35 46.8125 34.869 46.8125 34.3337V33.45H49.4688V27.563C53.5262 24.8878 56.1094 20.0052 56.1094 14.9C56.1094 6.86383 49.5551 0.324951 41.5 0.324951C33.4449 0.324951 26.8906 6.86383 26.8906 14.9C26.8906 20.0052 29.4738 24.8878 33.5312 27.563V33.45H36.1875V34.3337C36.1875 34.869 35.8661 35.35 35.3694 35.5567L29.5203 37.9894C27.5029 36.7969 25.1601 36.1 22.6513 36.1C19.0361 36.1 15.6374 37.5058 13.0795 40.0551L12.9187 40.2154C9.39656 41.2648 6.96875 44.4899 6.96875 48.1879V53.325C6.96875 58.9191 10.8509 63.7169 16.2656 64.9426V66.1337C16.2656 66.669 15.9442 67.15 15.4475 67.3567L7.27555 70.754C3.05477 72.5083 0.328125 76.5893 0.328125 81.15V82.475H40.1719H42.8281H82.6719V81.15C82.6719 76.7046 80.0701 72.7322 76.0312 70.909ZM73.375 50.675V69.7775L67.5512 67.3567C67.0558 67.15 66.7344 66.669 66.7344 66.1337V64.8736C69.222 62.4873 70.7188 59.1536 70.7188 55.5443V49.7196L61.4219 46.6284L52.125 49.7196V55.5443C52.125 59.1536 53.6218 62.486 56.1094 64.8736V66.1337C56.1094 66.669 55.788 67.15 55.2912 67.3567L49.4688 69.7775V50.675C49.4688 44.099 54.8317 38.75 61.4219 38.75C68.012 38.75 73.375 44.099 73.375 50.675ZM65.9136 71.875H56.9302L55.9646 69.9471L56.3139 69.8027C57.5942 69.2713 58.4788 68.1332 58.7059 66.8029C59.4284 67.211 60.192 67.5621 61.0035 67.8324L61.4219 67.9715L61.8416 67.8324C62.6517 67.5634 63.4154 67.211 64.1392 66.8029C64.365 68.1332 65.2509 69.2713 66.5298 69.8027L66.8791 69.9484L65.9136 71.875ZM64.5855 74.525L61.9292 79.825H60.9145L58.2583 74.525H64.5855ZM61.4219 65.1678C57.4322 63.6494 54.7812 59.8373 54.7812 55.5443V51.629L61.4219 49.4202L68.0625 51.629V55.5443C68.0625 59.8373 65.4116 63.6494 61.4219 65.1678ZM36.1875 30.8V28.15H46.8125V30.8H36.1875ZM40.7297 17.55H42.2703L41.6063 25.5H41.3937L40.7297 17.55ZM29.5469 14.9C29.5469 8.32398 34.9098 2.97495 41.5 2.97495C48.0902 2.97495 53.4531 8.32398 53.4531 14.9C53.4531 19.1691 51.1621 23.3747 47.7369 25.5H44.2718L44.9359 17.55H46.8125C49.0092 17.55 50.7969 15.7665 50.7969 13.575C50.7969 11.3834 49.0092 9.59995 46.8125 9.59995H46.6C44.5441 9.59995 42.8002 11.2006 42.6289 13.245L42.4921 14.9H40.5092L40.3711 13.245C40.1998 11.2006 38.4559 9.59995 36.4 9.59995H36.1875C33.9908 9.59995 32.2031 11.3834 32.2031 13.575C32.2031 15.7665 33.9908 17.55 36.1875 17.55H38.0641L38.7282 25.5H35.2631C31.8379 23.3747 29.5469 19.1691 29.5469 14.9ZM45.1563 14.9L45.2759 13.465C45.3343 12.7826 45.9147 12.25 46.6 12.25H46.8125C47.5443 12.25 48.1406 12.8436 48.1406 13.575C48.1406 14.3064 47.5443 14.9 46.8125 14.9H45.1563ZM37.8437 14.9H36.1875C35.4557 14.9 34.8594 14.3064 34.8594 13.575C34.8594 12.8436 35.4557 12.25 36.1875 12.25H36.4C37.0853 12.25 37.667 12.7826 37.7241 13.465L37.8437 14.9ZM44.1562 33.45V34.3337C44.1562 35.0545 44.3581 35.7356 44.7048 36.3292L41.5 39.5264L38.2952 36.3292C38.6419 35.7356 38.8438 35.0545 38.8438 34.3337V33.45H44.1562ZM36.2685 38.053L41.5 43.2735L46.7315 38.053L51.4782 40.0259C49.2323 42.1141 47.6452 44.8913 47.0648 48.0236H36.0852C35.708 44.8171 34.202 41.9565 31.9734 39.8378L36.2685 38.053ZM9.625 53.325V48.1879C9.625 45.5803 11.3954 43.3172 13.9321 42.6852L14.2894 42.5978L14.9574 41.93C17.012 39.8802 19.7453 38.75 22.6513 38.75C28.6504 38.75 33.5312 43.6193 33.5312 49.6044V53.325C33.5312 56.3354 32.0677 59.0291 29.7833 60.7344C30.4859 59.1324 30.875 57.3755 30.875 55.5457V49.35H27.9916C25.9237 49.35 23.9794 48.547 22.5171 47.0882L21.5781 46.1514L20.6391 47.0882C19.1769 48.547 17.2325 49.35 15.1646 49.35H12.2812V55.5457C12.2812 57.3755 12.6704 59.1324 13.373 60.7344C11.0886 59.0304 9.625 56.3367 9.625 53.325ZM26.8096 69.853L27.5215 70.1485L26.1442 74.9595L23.6009 73.0555L26.8096 69.853ZM24.7829 68.1292L21.5781 71.3264L18.3734 68.1292C18.6111 67.7224 18.7798 67.2772 18.8608 66.8029C19.5833 67.211 20.347 67.5621 21.1584 67.8324L21.5781 67.9715L21.9978 67.8324C22.808 67.5634 23.5716 67.211 24.2955 66.8029C24.3765 67.2772 24.5452 67.7224 24.7829 68.1292ZM28.2188 55.5457C28.2188 59.8373 25.5678 63.6494 21.5781 65.1691C17.5884 63.6507 14.9375 59.8386 14.9375 55.5457V52H15.1646C17.5194 52 19.7546 51.2235 21.5781 49.7938C23.4016 51.2235 25.6369 52 27.9916 52H28.2188V55.5457ZM19.5567 73.0569L17.0134 74.9609L15.6348 70.1498L16.3466 69.8543L19.5567 73.0569ZM3.08664 79.825C3.53953 76.8874 5.48523 74.3686 8.29688 73.2L13.1671 71.1754L15.5192 79.3904L21.5781 74.8562L27.637 79.3904L29.9891 71.1754L34.8594 73.2C37.671 74.3686 39.6167 76.8874 40.0696 79.825H3.08664ZM35.882 70.754L27.7087 67.3567C27.212 67.15 26.8906 66.669 26.8906 66.1337V64.9426C32.3054 63.7169 36.1875 58.9178 36.1875 53.325V50.675H46.8125V70.909C44.4843 71.9598 42.6462 73.7273 41.5 75.891C40.302 73.6292 38.3603 71.7835 35.882 70.754ZM48.1406 73.2L53.5063 70.9687L57.9448 79.825H42.9304C43.3833 76.8874 45.329 74.3686 48.1406 73.2ZM64.8989 79.825L69.3375 70.9687L74.7031 73.2C77.5148 74.3686 79.4605 76.8874 79.9134 79.825H64.8989Z" fill="black"/>
<path d="M66.7344 13.575H58.7656V16.225H66.7344V13.575Z" fill="black"/>
<path d="M62.6913 1.16703L55.7896 5.14124L57.1174 7.4364L64.0191 3.4622L62.6913 1.16703Z" fill="black"/>
<path d="M20.3101 1.1664L18.9819 3.4613L25.8829 7.4363L27.211 5.1414L20.3101 1.1664Z" fill="black"/>
<path d="M24.2344 13.575H16.2656V16.225H24.2344V13.575Z" fill="black"/>
<path d="M25.8824 22.3644L18.9814 26.3394L20.3096 28.6343L27.2105 24.6593L25.8824 22.3644Z" fill="black"/>
<path d="M57.1162 22.3677L55.7881 24.6626L62.689 28.6376L64.0171 26.3427L57.1162 22.3677Z" fill="black"/>
</svg>
