<svg width="99" height="90" viewBox="0 0 99 90" fill="none" xmlns="http://www.w3.org/2000/svg">
<path d="M43 49L45.5 52.5L47.5 54L49.5 53.5H52L54 52.5L55 50.5L57 49L56.5 46.5L57.5 45.5L58 44V42L57 40.5L56.5 38L58 35.5L61.5 31L63.5 26.5V22.5V17L59.5 12L55 8.5L49.5 7.5L44.5 8.5L38.5 12L35.5 17L35 22.5L36.5 29.5L41 34.5L42 39V40L41 43L42 45L43 49Z" fill="#DD0004"/>
<path d="M94.7583 64.1551C93.3096 64.1551 92.0951 65.1128 91.6792 66.4185H86.0659L83.7278 63.2926C83.5461 63.0496 83.2544 62.9019 82.9484 62.9019H75.284C75.5756 62.0823 75.829 61.2484 76.0394 60.4002H80.7825C82.303 60.4002 83.5461 59.1661 83.5461 57.646V54.7584H90.8902C91.3062 56.064 92.5206 57.0218 93.9694 57.0218C95.7576 57.0218 97.2111 55.5732 97.2111 53.7911C97.2111 52.009 95.7576 50.5605 93.9694 50.5605C92.5206 50.5605 91.3062 51.5182 90.8902 52.8239H83.5461V49.9363C83.5461 48.4209 82.3078 47.1821 80.7825 47.1821H76.0394C75.829 46.3339 75.5756 45.5 75.284 44.6804H82.9484C83.2544 44.6804 83.5413 44.5374 83.7278 44.2896L86.0659 41.1638H91.6792C92.0951 42.4694 93.3096 43.4272 94.7583 43.4272C96.5465 43.4272 98 41.9786 98 40.1965C98 38.4144 96.5465 36.9659 94.7583 36.9659C93.3096 36.9659 92.0951 37.9236 91.6792 39.2293H85.5781C85.2721 39.2293 84.9853 39.3723 84.7988 39.62L82.4607 42.7459H74.5188C74.0598 41.7214 73.5387 40.7207 72.9554 39.7535L76.3119 36.4084C76.8331 35.889 77.12 35.1981 77.12 34.4642C77.12 33.7256 76.8331 33.0346 76.3119 32.52L70.842 27.0687C69.7662 25.9965 68.0114 25.9965 66.9357 27.0687L63.5791 30.4138C63.3688 30.2899 63.1584 30.1707 62.948 30.0516C64.3203 27.6976 65.071 25.0197 65.071 22.2273C65.071 13.6121 58.0376 6.60215 49.3925 6.60215C40.7473 6.60215 33.714 13.6116 33.714 22.2273C33.714 25.0387 34.4838 27.7644 35.8846 30.1421C35.7269 30.2327 35.5739 30.3184 35.4209 30.4137L32.0643 27.0686C30.9885 25.9965 29.2338 25.9965 28.158 27.0686L22.6881 32.5199C22.1669 33.0393 21.88 33.7303 21.88 34.4642C21.88 35.2027 22.1669 35.8937 22.6881 36.4084L26.0446 39.7535C25.4613 40.7208 24.9353 41.7215 24.4812 42.7459H16.5393L14.2012 39.62C14.0195 39.377 13.7279 39.2293 13.4219 39.2293H7.32085C6.90488 37.9237 5.69045 36.9658 4.2417 36.9658C2.45353 36.9658 1 38.4144 1 40.1965C1 41.9786 2.45353 43.4272 4.2417 43.4272C5.69045 43.4272 6.90493 42.4694 7.32085 41.1637H12.9341L15.2722 44.2896C15.4539 44.5326 15.7456 44.6803 16.0516 44.6803H23.716C23.4244 45.4999 23.171 46.3339 22.9606 47.182H18.2175C16.697 47.182 15.4539 48.4162 15.4539 49.9362V52.8239H8.10977C7.6938 51.5183 6.47937 50.5604 5.03062 50.5604C3.24245 50.5604 1.78892 52.009 1.78892 53.7911C1.78892 55.5732 3.24245 57.0218 5.03062 57.0218C6.47937 57.0218 7.69384 56.064 8.10977 54.7583H15.4539V57.646C15.4539 59.1613 16.6922 60.4002 18.2175 60.4002H22.9606C23.171 61.2484 23.4244 62.0822 23.716 62.9019H16.0516C15.7456 62.9019 15.4587 63.0448 15.2722 63.2926L12.9341 66.4185H7.32085C6.90488 65.1129 5.69045 64.155 4.2417 64.155C2.45353 64.155 1 65.6036 1 67.3857C1 69.1678 2.45353 70.6164 4.2417 70.6164C5.69045 70.6164 6.90493 69.6586 7.32085 68.3529H13.4219C13.7279 68.3529 14.0147 68.21 14.2012 67.9622L16.5393 64.8363H24.4812C24.9402 65.8608 25.4613 66.8615 26.0446 67.8287L22.6881 71.1738C22.1669 71.6932 21.88 72.3842 21.88 73.1181C21.88 73.8566 22.1669 74.5476 22.6881 75.0623L28.158 80.5136C28.6983 81.052 29.4011 81.3189 30.1088 81.3189C30.8166 81.3189 31.5241 81.052 32.0597 80.5136L35.4162 77.1685C36.2051 77.6402 37.0132 78.0691 37.8404 78.4598L32.5522 84.8021H17.7489C17.333 83.4965 16.1185 82.5387 14.6698 82.5387C12.8816 82.5387 11.4281 83.9872 11.4281 85.7693C11.4281 87.5514 12.8816 89 14.6698 89C16.1185 89 17.333 88.0422 17.7489 86.7366H33.0064C33.2932 86.7366 33.5658 86.6079 33.7522 86.3887L39.7002 79.2553C40.733 79.6508 41.7897 79.9796 42.8702 80.2465V84.9734C42.8702 86.4887 44.1086 87.7276 45.6338 87.7276H53.3652C54.8857 87.7276 56.1288 86.4935 56.1288 84.9734V80.2465C57.2094 79.9796 58.2661 79.6508 59.2988 79.2553L65.2468 86.3887C65.4333 86.6079 65.7058 86.7366 65.9927 86.7366H81.2501C81.6661 88.0422 82.8805 89 84.3293 89C86.1174 89 87.571 87.5514 87.571 85.7693C87.571 83.9872 86.1174 82.5387 84.3293 82.5387C82.8805 82.5387 81.6661 83.4964 81.2501 84.8021H66.4468L61.1587 78.4598C61.9858 78.0691 62.7938 77.645 63.5828 77.1685L66.9394 80.5136C67.4796 81.052 68.1825 81.3189 68.8902 81.3189C69.5979 81.3189 70.3054 81.052 70.841 80.5136L76.311 75.0623C76.8321 74.5429 77.119 73.8519 77.119 73.1181C77.119 72.3795 76.8321 71.6885 76.311 71.1738L72.9544 67.8287C73.5378 66.8614 74.0637 65.8607 74.5179 64.8363H82.4597L84.7978 67.9622C84.9795 68.2052 85.2712 68.3529 85.5772 68.3529H91.6782C92.0942 69.6585 93.3086 70.6164 94.7574 70.6164C96.5455 70.6164 97.999 69.1678 97.999 67.3857C97.999 65.6036 96.5465 64.1551 94.7583 64.1551ZM93.9694 52.4997C94.6866 52.4997 95.2699 53.081 95.2699 53.7958C95.2699 54.5105 94.6866 55.0919 93.9694 55.0919C93.2522 55.0919 92.6689 54.5105 92.6689 53.7958C92.6689 53.081 93.2522 52.4997 93.9694 52.4997ZM94.7583 38.9092C95.4755 38.9092 96.0588 39.4906 96.0588 40.2053C96.0588 40.9201 95.4755 41.5014 94.7583 41.5014C94.0411 41.5014 93.4578 40.9201 93.4578 40.2053C93.4578 39.4906 94.0411 38.9092 94.7583 38.9092ZM4.24803 41.5062C3.53082 41.5062 2.9475 40.9249 2.9475 40.2101C2.9475 39.4953 3.53082 38.914 4.24803 38.914C4.96523 38.914 5.54855 39.4953 5.54855 40.2101C5.54855 40.9249 4.96523 41.5062 4.24803 41.5062ZM5.03695 55.0966C4.31974 55.0966 3.73642 54.5153 3.73642 53.8005C3.73642 53.0858 4.31974 52.5044 5.03695 52.5044C5.75415 52.5044 6.33747 53.0858 6.33747 53.8005C6.33747 54.5153 5.75415 55.0966 5.03695 55.0966ZM4.24803 68.6871C3.53082 68.6871 2.9475 68.1057 2.9475 67.391C2.9475 66.6762 3.53082 66.0949 4.24803 66.0949C4.96523 66.0949 5.54855 66.6762 5.54855 67.391C5.54855 68.1057 4.96523 68.6871 4.24803 68.6871ZM14.6809 87.0703C13.9636 87.0703 13.3803 86.489 13.3803 85.7742C13.3803 85.0595 13.9636 84.4781 14.6809 84.4781C15.3981 84.4781 15.9814 85.0595 15.9814 85.7742C15.9814 86.489 15.3981 87.0703 14.6809 87.0703ZM84.3301 84.4734C85.0473 84.4734 85.6307 85.0547 85.6307 85.7695C85.6307 86.4842 85.0473 87.0656 84.3301 87.0656C83.6129 87.0656 83.0296 86.4842 83.0296 85.7695C83.0296 85.0547 83.6129 84.4734 84.3301 84.4734ZM49.3978 8.55183C56.9714 8.55183 63.135 14.6941 63.135 22.2423C63.135 25.8924 61.7101 29.328 59.1235 31.9107C59.1139 31.9202 59.1139 31.9297 59.1044 31.9393C59.0948 31.9488 59.0852 31.9535 59.0757 31.9583C56.4508 34.9747 56.049 37.6812 55.9534 39.53C55.9439 39.7301 55.9391 39.9064 55.9343 40.0827H53.4384V31.4437L55.7621 29.3804C56.1111 29.5472 56.4936 29.652 56.9048 29.652C58.3536 29.652 59.5345 28.4751 59.5345 27.0313C59.5345 25.5875 58.3535 24.4105 56.9048 24.4105C55.4561 24.4105 54.2751 25.5875 54.2751 27.0313C54.2751 27.3553 54.3421 27.665 54.452 27.9509L51.8224 30.2906C51.6168 30.4765 51.4972 30.7386 51.4972 31.0102V40.0829H50.4788V21.0994C51.392 20.6896 52.0327 19.7748 52.0327 18.7121C52.0327 17.2683 50.8517 16.0914 49.403 16.0914C47.9543 16.0914 46.7733 17.2684 46.7733 18.7121C46.7733 19.8558 47.5144 20.8184 48.5424 21.1757V40.0786H47.3805V31.0059C47.3805 30.7295 47.261 30.4674 47.0554 30.2864L44.0335 27.5989C44.0814 27.3988 44.1196 27.1891 44.1196 26.9699C44.1196 25.5261 42.9386 24.3492 41.4899 24.3492C40.0412 24.3492 38.8602 25.5261 38.8602 26.9699C38.8602 28.4137 40.0412 29.5907 41.4899 29.5907C42.0063 29.5907 42.4892 29.4334 42.8956 29.1761L45.4392 31.4395V40.0786H43.1728C43.1728 39.8975 43.1681 39.7069 43.1633 39.502V39.4639C43.1107 37.7533 42.733 35.3373 40.3375 32.5307C40.3231 32.5116 40.2992 32.5069 40.2849 32.4878C40.2706 32.4735 40.261 32.4497 40.2466 32.4354C37.3396 29.8384 35.6709 26.1216 35.6709 22.2333C35.6709 14.6855 41.8341 8.54288 49.4081 8.54288L49.3978 8.55183ZM56.2638 42.0223C56.7085 42.0223 57.0671 42.3845 57.0671 42.8228V44.1047C57.0671 44.5478 56.7037 44.9052 56.2638 44.9052H42.7518C42.3072 44.9052 41.9486 44.5431 41.9486 44.1047V42.8228C41.9486 42.3797 42.3119 42.0223 42.7518 42.0223H56.2638ZM49.3978 19.4074C49.0153 19.4074 48.7093 19.0976 48.7093 18.7212C48.7093 18.34 49.0201 18.035 49.3978 18.035C49.7803 18.035 50.0863 18.3447 50.0863 18.7212C50.0863 19.1024 49.7755 19.4074 49.3978 19.4074ZM55.3218 46.8395C55.5895 46.8395 55.8095 47.0635 55.8095 47.3256V48.3787C55.8095 48.6455 55.5848 48.8647 55.3218 48.8647H43.6888C43.4258 48.8647 43.2011 48.6407 43.2011 48.3787V47.3256C43.2011 47.0587 43.4258 46.8395 43.6888 46.8395H55.3218ZM53.5623 50.8041C52.6012 52.4433 51.1094 53.4582 49.4981 53.4582C47.8868 53.4582 46.395 52.4433 45.434 50.8041H53.5623ZM41.4224 46.4821C41.322 46.7442 41.2599 47.0301 41.2599 47.3255V48.3786C41.2599 49.5651 42.1205 50.5514 43.2537 50.7564C44.4633 53.582 46.8445 55.388 49.4981 55.388C52.147 55.388 54.5329 53.582 55.7426 50.7564C56.8806 50.5562 57.7555 49.5699 57.7555 48.3786V47.3255C57.7555 47.0253 57.6933 46.7442 57.5929 46.4821C58.4345 46.0151 59.0082 45.1288 59.0082 44.1044V42.8225C59.0082 42.5462 58.9556 42.2793 58.8743 42.0268C62.446 44.8477 64.5832 49.1458 64.5832 53.7965C64.5832 62.083 57.8177 68.8251 49.5033 68.8251C41.1889 68.8251 34.4233 62.0826 34.4233 53.7965C34.4233 49.1315 36.5558 44.8381 40.1323 42.022C40.0558 42.2746 39.9984 42.5414 39.9984 42.8226V44.1044C39.9984 45.1289 40.5722 46.0152 41.4136 46.4821L41.4224 46.4821ZM56.2159 27.0364C56.2159 26.6551 56.5267 26.3502 56.9045 26.3502C57.287 26.3502 57.593 26.6599 57.593 27.0364C57.593 27.4176 57.2822 27.7225 56.9045 27.7225C56.5219 27.7225 56.2159 27.4128 56.2159 27.0364ZM42.1776 26.9792C42.1776 27.3604 41.8669 27.6653 41.4891 27.6653C41.1066 27.6653 40.8006 27.3556 40.8006 26.9792C40.8006 26.598 41.1114 26.293 41.4891 26.293C41.8716 26.293 42.1776 26.6027 42.1776 26.9792ZM75.1834 73.1191C75.1834 73.3383 75.0973 73.5432 74.9443 73.6957L69.4744 79.147C69.1541 79.4662 68.6329 79.4662 68.3125 79.147L64.4301 75.2777C64.4062 75.2539 64.3775 75.2491 64.3536 75.2301C64.301 75.1872 64.2484 75.1538 64.191 75.1205C64.1384 75.0919 64.0858 75.068 64.0237 75.049C63.9615 75.0299 63.9041 75.0204 63.842 75.0156C63.7798 75.0109 63.7224 75.0061 63.6603 75.0109C63.5981 75.0156 63.5407 75.0299 63.4834 75.0442C63.4212 75.0633 63.3591 75.0823 63.3017 75.1157C63.273 75.13 63.2443 75.13 63.2204 75.1491C60.6767 76.7739 57.8987 77.9223 54.9582 78.5609C54.9296 78.5656 54.9056 78.5895 54.877 78.599C54.8148 78.6181 54.7574 78.6466 54.7001 78.6752C54.6475 78.7038 54.5949 78.7372 54.5518 78.7753C54.504 78.8134 54.4658 78.8611 54.4227 78.9087C54.3845 78.9564 54.351 79.004 54.3223 79.0612C54.2936 79.1136 54.2745 79.1708 54.2554 79.228C54.2363 79.2899 54.2219 79.3519 54.2171 79.4186C54.2124 79.4472 54.198 79.4758 54.198 79.5044V84.9747C54.198 85.4274 53.8299 85.7943 53.3756 85.7943H45.6442C45.19 85.7943 44.8218 85.4274 44.8218 84.9747V79.5044C44.8218 79.471 44.8075 79.4472 44.8027 79.4186C44.7979 79.3519 44.7836 79.2899 44.7644 79.228C44.7453 79.1708 44.7262 79.1136 44.6975 79.0612C44.6688 79.004 44.6353 78.9564 44.5971 78.9087C44.5588 78.8611 44.5158 78.8182 44.468 78.7753C44.4202 78.7372 44.3724 78.7038 44.3198 78.6752C44.2624 78.6419 44.205 78.6181 44.1429 78.599C44.1142 78.5895 44.0903 78.5704 44.0616 78.5609C41.1211 77.9224 38.3383 76.774 35.7994 75.1491C35.7708 75.13 35.7421 75.13 35.7134 75.1157C35.656 75.0871 35.5986 75.0633 35.5317 75.0442C35.4695 75.0252 35.4121 75.0156 35.35 75.0109C35.2878 75.0061 35.2305 75.0109 35.1731 75.0156C35.1109 75.0204 35.0488 75.0347 34.9866 75.0538C34.9292 75.0728 34.8766 75.0966 34.8241 75.1252C34.7667 75.1586 34.7093 75.1919 34.6567 75.2348C34.6328 75.2539 34.6041 75.2634 34.585 75.2825L30.7025 79.1517C30.3822 79.471 29.861 79.471 29.5406 79.1517L24.0707 73.7004C23.9177 73.548 23.8317 73.3431 23.8317 73.1239C23.8317 72.9047 23.9177 72.6998 24.0707 72.5473L27.9532 68.678C27.9771 68.6542 27.9819 68.6256 28.001 68.6018C28.0441 68.5494 28.0775 68.4969 28.111 68.4398C28.1397 68.3874 28.1636 68.3349 28.1827 68.273C28.2018 68.211 28.2114 68.1539 28.2162 68.0919C28.221 68.03 28.2257 67.9728 28.221 67.9108C28.2162 67.8489 28.2018 67.7917 28.1875 67.7345C28.1684 67.6726 28.1492 67.6106 28.1158 67.5535C28.1014 67.5249 28.1014 67.4963 28.0823 67.4677C27.2695 66.2001 26.5714 64.8755 26.0024 63.5031C26.0024 63.4984 26.0024 63.4984 25.9977 63.4936C25.4287 62.1213 24.9792 60.6965 24.6588 59.2336C24.6541 59.205 24.6301 59.1812 24.6206 59.1526C24.6015 59.0907 24.5728 59.0335 24.5441 58.9763C24.5154 58.9239 24.4819 58.8715 24.4437 58.8238C24.4054 58.7762 24.3624 58.7381 24.3146 58.6999C24.2668 58.6618 24.2142 58.6237 24.1568 58.5951C24.1042 58.5665 24.0516 58.5475 23.9942 58.5284C23.9321 58.5093 23.8699 58.495 23.7982 58.4903C23.7695 58.4855 23.7408 58.4712 23.7121 58.4712H18.2231C17.7689 58.4712 17.4007 58.1043 17.4007 57.6516V49.9465C17.4007 49.4938 17.7689 49.1269 18.2231 49.1269H23.7121C23.8364 49.1269 23.9512 49.0983 24.0612 49.0554C24.0994 49.0411 24.1281 49.0173 24.1664 48.9982C24.2333 48.9601 24.3002 48.922 24.3576 48.8696C24.3911 48.841 24.4198 48.8029 24.4485 48.7695C24.4963 48.7171 24.5345 48.6599 24.568 48.5932C24.5919 48.5503 24.6062 48.5074 24.6254 48.4598C24.6349 48.4264 24.6588 48.3979 24.6636 48.3645C24.984 46.9016 25.4334 45.4768 26.0024 44.1045C26.0024 44.0997 26.0072 44.0997 26.0072 44.095C26.581 42.7226 27.2743 41.3932 28.0871 40.1304C28.1062 40.1018 28.1062 40.0733 28.1206 40.0447C28.1492 39.9875 28.1732 39.9255 28.1923 39.8636C28.2114 39.8016 28.221 39.7492 28.2257 39.6873C28.2305 39.6253 28.2305 39.5682 28.221 39.5062C28.2162 39.4443 28.2066 39.3871 28.1875 39.3251C28.1684 39.268 28.1445 39.2155 28.1158 39.1584C28.0871 39.1012 28.0488 39.0488 28.0058 38.9963C27.9867 38.9725 27.9771 38.9439 27.958 38.9201L24.0755 35.0508C23.9225 34.8984 23.8365 34.6935 23.8365 34.4743C23.8365 34.2551 23.9225 34.0502 24.0755 33.8977L29.5454 28.4464C29.8658 28.1271 30.3869 28.1271 30.7073 28.4464L34.5898 32.3156C34.6376 32.3633 34.695 32.3871 34.7476 32.4205C34.7858 32.4443 34.8193 32.4777 34.8623 32.4967C34.9914 32.5587 35.1301 32.5968 35.2735 32.6015H35.2783C35.3883 32.6015 35.4982 32.5777 35.6034 32.5396C35.6321 32.5301 35.6608 32.5158 35.6895 32.5015C35.7277 32.4824 35.766 32.4729 35.7994 32.4538C36.1867 32.2061 36.5931 31.9869 36.9948 31.7581C37.559 32.4872 38.1758 33.1734 38.869 33.8024C40.619 35.8561 41.078 37.6192 41.1975 39.0106C35.8185 42.0173 32.4954 47.6211 32.4954 53.8013C32.4954 63.1552 40.1312 70.7598 49.5117 70.7598C58.8975 70.7598 66.5281 63.15 66.5281 53.8013C66.5281 47.6735 63.2481 42.0983 57.9408 39.0777C58.0843 37.5099 58.5768 35.4991 60.5467 33.2309V33.2261C61.0296 32.7401 61.4695 32.2159 61.8806 31.6775C62.3348 31.93 62.7891 32.1731 63.2242 32.4494C63.2577 32.4733 63.2959 32.4828 63.3342 32.4971C63.3629 32.5114 63.3916 32.5257 63.425 32.5352C63.5302 32.5733 63.6402 32.5971 63.7501 32.5971C63.8936 32.5971 64.0323 32.5543 64.1661 32.4923C64.2092 32.4733 64.2426 32.4447 64.2809 32.4161C64.3335 32.3827 64.3908 32.3589 64.4387 32.3112L68.3211 28.442C68.6415 28.1227 69.1627 28.1227 69.483 28.442L74.9529 33.8933C75.1059 34.0458 75.192 34.2507 75.192 34.4699C75.192 34.6891 75.1059 34.894 74.9529 35.0464L71.0704 38.9157C71.0465 38.9395 71.0417 38.9681 71.0226 38.9919C70.9796 39.0444 70.9461 39.0968 70.9126 39.154C70.884 39.2064 70.8601 39.2588 70.8409 39.3207C70.8218 39.3827 70.8122 39.4399 70.8075 39.5018C70.8027 39.5638 70.7979 39.6209 70.8027 39.6829C70.8075 39.7448 70.8218 39.802 70.8361 39.8592C70.8553 39.9211 70.8744 39.9831 70.9079 40.0403C70.9222 40.0689 70.9222 40.0974 70.9413 40.126C71.7542 41.3936 72.4523 42.7182 73.0212 44.0906C73.0212 44.0953 73.026 44.0953 73.026 44.1001C73.595 45.4724 74.0444 46.8972 74.3648 48.3601C74.3744 48.3935 74.3935 48.422 74.4031 48.4554C74.4174 48.503 74.4365 48.5459 74.4604 48.5888C74.4939 48.6555 74.5322 48.708 74.58 48.7651C74.6087 48.7985 74.6373 48.8366 74.6708 48.8652C74.7282 48.9176 74.7951 48.9557 74.8621 48.9939C74.8955 49.0129 74.929 49.0367 74.9673 49.051C75.0772 49.0939 75.1968 49.1225 75.3163 49.1225H80.8053C81.2595 49.1225 81.6277 49.4894 81.6277 49.9421V57.6472C81.6277 58.0999 81.2595 58.4668 80.8053 58.4668H75.3163C75.2876 58.4668 75.2589 58.4811 75.2302 58.4859C75.1633 58.4906 75.0964 58.5049 75.0342 58.524C74.9768 58.5431 74.9242 58.5621 74.8716 58.5907C74.8143 58.6193 74.7664 58.6574 74.7138 58.6955C74.666 58.7337 74.623 58.7718 74.5848 58.8194C74.5465 58.8671 74.513 58.9147 74.4843 58.9719C74.4509 59.0291 74.427 59.0863 74.4078 59.1482C74.3983 59.1768 74.3792 59.2006 74.3744 59.2292C74.054 60.6921 73.6046 62.1169 73.0355 63.4892C73.0355 63.494 73.0355 63.494 73.0308 63.4987C72.457 64.8758 71.7637 66.2005 70.9509 67.4633C70.9318 67.4919 70.9318 67.5205 70.9174 67.5491C70.8887 67.6062 70.8648 67.6682 70.8457 67.7301C70.8266 67.7921 70.817 67.8493 70.8122 67.9064C70.8075 67.9684 70.8075 68.0256 70.817 68.0875C70.8218 68.1495 70.8361 68.2066 70.8505 68.2686C70.8696 68.3258 70.8935 68.3782 70.9222 68.4354C70.9509 68.4925 70.9892 68.545 71.0322 68.5974C71.0513 68.6212 71.0609 68.6498 71.08 68.6689L74.9625 72.5381C75.1155 72.6906 75.2015 72.8955 75.2015 73.1147L75.1834 73.1191ZM94.7628 68.6828C94.0456 68.6828 93.4623 68.1015 93.4623 67.3867C93.4623 66.672 94.0456 66.0906 94.7628 66.0906C95.48 66.0906 96.0634 66.672 96.0634 67.3867C96.0634 68.1015 95.48 68.6828 94.7628 68.6828ZM27.4037 22.2379C27.4037 21.7043 27.8388 21.2706 28.3743 21.2706H31.1093C31.6448 21.2706 32.0799 21.7043 32.0799 22.2379C32.0799 22.7716 31.6448 23.2053 31.1093 23.2053H28.3743C27.8388 23.2053 27.4037 22.7716 27.4037 22.2379ZM29.7178 11.0448C29.976 10.5778 30.5689 10.411 31.0375 10.6683L33.3756 11.9597C33.8441 12.217 34.0115 12.8079 33.7533 13.2748C33.5764 13.5941 33.2465 13.7751 32.9022 13.7751C32.7444 13.7751 32.5819 13.737 32.4337 13.656L30.0955 12.3647C29.627 12.1074 29.4596 11.5165 29.7178 11.0495L29.7178 11.0448ZM48.0733 4.14976V1.96731C48.0733 1.43362 48.5084 1 49.0439 1C49.5794 1 50.0145 1.43362 50.0145 1.96731V4.14976C50.0145 4.68345 49.5794 5.11707 49.0439 5.11707C48.5084 5.11707 48.0733 4.68345 48.0733 4.14976ZM37.6357 5.13137C37.3631 4.66915 37.5161 4.07829 37.9799 3.80672C38.4437 3.53511 39.0366 3.6876 39.3091 4.14981L40.5188 6.1988C40.7913 6.66102 40.6383 7.25188 40.1745 7.52345C40.0215 7.61398 39.8494 7.65688 39.682 7.65688C39.3473 7.65688 39.027 7.48534 38.8453 7.18038L37.6357 5.13137ZM66.9791 21.2701H69.7141C70.2496 21.2701 70.6847 21.7037 70.6847 22.2374C70.6847 22.7711 70.2496 23.2047 69.7141 23.2047H66.9791C66.4436 23.2047 66.0085 22.7711 66.0085 22.2374C66.0085 21.7037 66.4436 21.2701 66.9791 21.2701ZM64.335 13.2695C64.0768 12.8026 64.2442 12.2165 64.7127 11.9544L67.0509 10.6631C67.5194 10.4057 68.1075 10.5725 68.3705 11.0395C68.6287 11.5065 68.4613 12.0926 67.9927 12.3546L65.6546 13.646C65.5064 13.727 65.3438 13.7651 65.186 13.7651C64.8466 13.7651 64.5119 13.584 64.335 13.2648L64.335 13.2695ZM57.5695 6.19813L58.7791 4.14914C59.0517 3.68692 59.6446 3.53444 60.1083 3.80605C60.5721 4.07767 60.7251 4.66853 60.4526 5.1307L59.2429 7.17969C59.0612 7.48466 58.7361 7.65619 58.4062 7.65619C58.2388 7.65619 58.0715 7.61331 57.9137 7.52277C57.4499 7.25115 57.2969 6.6603 57.5695 6.19813Z" fill="black" stroke="black" stroke-width="0.6"/>
</svg>
