<svg width="87" height="89" viewBox="0 0 87 89" fill="none" xmlns="http://www.w3.org/2000/svg">
<path d="M10.3295 80.2501L6.18316 81.8049L3.62923 77.1229L3.5917 77.1402C3.5917 77.1151 3.59243 77.0877 3.59397 77.0583L3.07324 76.1037L3.9325 75.674C4.16853 75.0543 4.55035 74.3071 5.14641 73.5122C5.56105 73.0977 6.01034 72.3029 6.18316 71.9573C6.01034 71.6118 5.7684 70.8171 6.18316 70.4025C6.59793 69.9879 5.66481 69.1931 5.14641 68.8476L3.5917 66.7744C3.41893 66.4289 3.17706 65.5305 3.5917 64.7012C4.00633 63.8719 3.76446 62.2826 3.5917 61.5915C4.10999 61.4187 5.35389 61.0732 6.18316 61.0732C7.21975 61.0732 7.73804 61.0732 8.25633 61.5915C8.77462 62.1099 10.3295 61.5915 12.4027 61.0732C12.921 60.5548 12.921 59 13.9576 57.4451C14.7868 56.2012 14.3031 55.5447 13.9576 55.3719H16.0307L20.6954 55.8902V57.4451V59L22.2502 60.5549L23.2868 61.5915H26.3966C27.9515 61.5915 28.988 61.0732 30.0246 61.5915C30.0246 62.0062 30.7157 62.4553 31.0612 62.6281C31.4067 63.4919 32.0978 65.4269 32.0978 66.2562C32.0978 67.0854 31.4067 66.9472 31.0612 66.7744C30.7157 67.12 29.7136 68.3293 28.4697 70.4025C28.4697 71.4391 28.988 71.9574 30.0246 73.5122C31.0612 75.0671 30.0246 74.5488 31.0612 75.5854C32.0978 76.622 31.5795 77.6586 31.0612 78.6952L30.0246 80.7683C29.6791 81.1139 28.8844 81.8049 28.4697 81.8049C27.9515 81.8049 27.4332 81.8049 26.9149 80.7683C26.3966 79.7318 25.36 80.7683 24.8417 80.7683H22.2502C21.421 80.7683 20.8681 81.4594 20.6954 81.8049V85.433C20.5226 85.9513 19.9697 86.9879 19.1405 86.9879H16.549C16.1344 86.9879 14.6486 85.9513 13.9576 85.433V83.3598L12.921 80.7683L10.3295 80.2501Z" fill="#DD0004"/>
<path d="M10.3694 11.2891H12.5464V9.21828H10.3694V11.2891ZM22.2406 71.1236C22.2406 68.4482 20.0635 66.2617 17.3999 66.2617C14.7363 66.2617 12.6745 68.4482 12.6745 71.1236C12.6745 73.7989 14.7363 75.8697 17.3999 75.8697C20.0507 75.8697 22.2406 73.7989 22.2406 71.1236ZM24.2895 71.1236C24.2895 74.8921 21.2673 78.0562 17.3871 78.0562C13.6349 78.0562 10.4847 74.8921 10.4847 71.1236C10.4847 67.2263 13.6349 64.1909 17.3871 64.1909C21.2673 64.1909 24.2895 67.2263 24.2895 71.1236ZM31.32 76.3456L28.8997 80.6029C23.3291 77.8118 20.1788 79.5096 19.9355 85.8378H14.9668C14.6082 79.5096 11.4579 77.8118 5.88734 80.6029L3.46701 76.3456C8.67904 72.9371 8.67904 69.2971 3.46701 65.8887L5.88734 61.6313C11.4579 64.4224 14.6082 62.6088 14.9668 56.3965H19.9355C20.1788 62.596 23.3291 64.4224 28.8997 61.6313L31.32 65.8887C26.108 69.2971 26.108 72.95 31.32 76.3456ZM33.3817 67.2263C33.9836 66.8662 33.8684 66.0044 33.7403 65.7729L30.2315 59.5734C29.8729 59.0846 29.2582 58.9689 28.7844 59.2133C23.7004 62.1329 21.9972 61.1554 21.9972 55.316C21.9972 54.7115 21.5106 54.2228 20.9087 54.2228H13.8911C13.2892 54.2228 12.8026 54.7115 12.8026 55.316C12.8026 61.1554 11.1122 62.1329 6.14346 59.2133C5.54158 58.9689 4.92689 59.0975 4.69638 59.5734L1.05949 65.7729C0.944232 66.0173 0.944233 66.8662 1.54611 67.2263C6.51483 70.146 6.51483 72.0882 1.54611 75.0079C0.944233 75.368 0.944232 76.2298 1.05949 76.4613L4.69638 82.5451C4.93969 83.1496 5.54158 83.2782 6.14346 83.0339C11.1122 80.1142 12.8026 81.0917 12.8026 86.9311C12.8026 87.5356 13.2892 88.0243 13.8911 88.0243H20.9087C21.5106 88.0243 21.9972 87.5356 21.9972 86.9311C21.9972 81.0917 23.6876 80.1142 28.7844 83.0339C29.271 83.2782 29.8729 83.1496 30.2315 82.5451L33.7403 76.4613C33.8556 76.2169 33.9836 75.368 33.3817 75.0079C28.285 72.0882 28.285 70.146 33.3817 67.2263ZM84.119 13.347C85.0922 12.3695 86.6674 13.8358 85.6941 14.8004L80.8535 19.5465C79.8802 20.5241 78.4331 18.942 79.4064 17.9645L84.119 13.347ZM27.0812 14.8133C25.9927 13.8358 27.5678 12.3824 28.5283 13.3599L33.2537 17.9774C34.3422 18.9549 32.7671 20.5369 31.8066 19.5594L27.0812 14.8133ZM55.2928 2.04123C55.2928 0.587818 57.3545 0.587818 57.3545 2.04123V8.72952C57.3545 10.0672 55.2928 10.0672 55.2928 8.72952V2.04123ZM67.5225 79.3939V75.6253H45.1248V79.3939H67.5225ZM67.5225 73.4387V71.1236C67.5225 70.3904 66.9206 69.7859 66.1906 69.7859H46.5719C45.7267 69.7859 45.1248 70.3904 45.1248 71.1236V73.4387H67.5225ZM45.97 81.4647L48.3903 85.3619H64.2569L66.6773 81.4647H45.97ZM69.6995 71.1236L69.5842 80.3714C69.5842 80.6158 69.5842 80.8602 69.469 80.9759L65.8321 86.9311C65.5888 87.2912 65.2302 87.5356 64.8588 87.5356H47.7885C47.4299 87.5356 47.0585 87.2912 46.9433 87.0468L43.1911 81.0917C43.0759 80.8473 43.0759 80.6029 43.0759 80.3585V71.1107C43.0759 70.1332 43.4344 69.2843 44.0491 68.6798C37.5053 65.6443 32.306 60.165 29.5143 53.361C29.271 52.8722 29.5143 52.2677 30.001 52.0233L35.6868 49.7082C33.9964 48.2547 30.2315 48.1261 28.5411 48.1261C27.9392 48.1261 27.5678 47.6374 27.5678 47.0328V37.1805C27.5678 36.576 28.0545 36.0872 28.6563 36.0872C37.6205 36.0872 38.8243 33.0517 32.5366 26.7236C32.0499 26.2348 32.0499 25.6303 32.5366 25.1416L39.439 18.2089C39.9256 17.7201 40.5275 17.7201 41.0141 18.2089C47.1866 25.0258 50.3368 22.7106 50.3368 14.3117C50.3368 13.7072 50.8235 13.2184 51.4254 13.2184H61.2347C61.8366 13.2184 62.3232 13.7072 62.3232 14.3117C62.3232 23.4309 65.3454 24.5242 71.774 18.2089C72.1326 17.7201 72.8625 17.7201 73.2211 18.2089L80.2388 25.1416C80.5973 25.6303 80.5973 26.2348 80.2388 26.7236C79.0222 27.8169 76.4866 30.6208 76.2433 32.6787L81.8139 30.3636C82.4158 30.1192 83.0305 30.4793 83.261 31.0967C87.0131 40.2159 85.9246 50.8014 80.2388 58.9431C77.2166 63.2005 73.2211 66.4803 68.611 68.6669C69.2128 69.2971 69.6995 70.146 69.6995 71.1236ZM47.1738 67.7151H55.2928V54.943C52.7444 54.6987 50.2088 53.7211 48.147 52.0233C47.0585 51.0458 48.3903 49.4638 49.4789 50.3255C53.4743 53.734 59.5315 53.734 63.3989 50.2098C65.3326 48.512 66.6645 46.0811 66.9078 43.3929C67.023 41.9395 69.2128 42.171 69.0848 43.6373C68.7262 46.8013 67.1511 49.721 64.846 51.7918C62.669 53.6182 60.1206 54.7115 57.3417 54.9559V67.728H65.576C70.9032 65.6572 75.5006 62.1329 78.7789 57.2711C83.6196 50.094 84.5928 40.9748 81.6859 32.8202L62.0671 40.9748C62.1824 41.3349 62.3104 41.8237 62.3104 42.1967C62.3104 45.4765 59.6468 48.1518 56.3813 48.1518C54.3195 48.1518 52.3858 47.0586 51.4125 45.4765L31.7938 53.6311C34.9441 60.1779 40.3994 65.2842 47.1738 67.7151ZM56.3813 36.2158C58.443 36.2158 60.2615 37.3091 61.35 39.0069L65.704 37.0647C64.8588 35.6113 63.6423 34.2736 62.1952 33.2961C58.0845 30.5051 52.3858 30.9809 48.877 34.6338C46.9433 36.576 45.7267 39.2513 45.7267 42.171C45.7267 43.2643 45.842 44.2418 46.2133 45.335L50.5674 43.3929C50.4521 43.0327 50.4521 42.6597 50.4521 42.171C50.4521 38.8911 53.1157 36.2158 56.3813 36.2158ZM56.3813 38.4024C54.2043 38.4024 52.5011 40.1002 52.5011 42.171C52.5011 44.2418 54.1914 45.9396 56.3813 45.9396C58.443 45.9396 60.1334 44.2418 60.1334 42.171C60.1334 40.113 58.443 38.4024 56.3813 38.4024ZM67.6505 36.3316L74.0663 33.6563C73.823 30.8652 76.2433 27.8169 77.9465 25.9905L72.4912 20.3954C65.4735 27.0837 60.5048 25.1416 60.2615 15.405H52.5139C52.1553 25.1287 47.3018 27.0837 40.1561 20.3954L34.7008 25.9905C41.3599 33.0389 39.2981 37.9136 29.6168 38.2738V46.0553C32.1652 46.1711 36.0326 46.5441 37.7358 48.7306L44.1516 46.0553C43.793 44.8334 43.5497 43.4958 43.5497 42.1581C43.5497 38.6339 44.9968 35.3412 47.3018 33.0389C51.5406 28.7815 58.443 28.0484 63.4117 31.4568C65.2174 32.6916 66.6773 34.3894 67.6505 36.3316ZM69.3409 61.3869C68.8543 61.8757 68.2524 61.8757 67.7658 61.5027C67.4072 61.1426 67.2791 60.4094 67.6505 60.0493L68.739 58.8274C69.0976 58.4673 69.469 58.0942 69.7123 57.6055C70.1989 57.2453 70.8008 57.1167 71.2874 57.4897C71.646 57.9785 71.774 58.583 71.4027 59.0718C71.0441 59.4319 70.6727 59.8049 70.3142 60.2937L69.3409 61.3869ZM74.4249 55.0717C74.0663 55.5604 73.4516 55.6762 72.9778 55.4318C72.4912 55.0717 72.3759 54.3385 72.7345 53.8498C74.0663 51.9076 75.1548 49.8368 75.8848 47.6502C76.4866 45.5794 76.7299 43.3929 76.6147 40.9619C76.6147 40.4732 77.1013 39.8687 77.588 39.8687C78.1898 39.8687 78.6765 40.3574 78.8045 40.8462C78.9198 43.5215 78.5612 45.9524 77.8313 48.3834C77.0885 50.6857 76 52.8722 74.4249 55.0717ZM17.0285 28.4343H19.0903V26.3635H17.0285V28.4343ZM17.0285 24.1769H19.0903V21.9903H17.0285V24.1769ZM17.0285 19.9195H19.0903V17.733H17.0285V19.9195ZM17.0285 15.5336H19.0903V13.4628H17.0285V15.5336ZM17.0285 11.2891H19.0903V9.21828H17.0285V11.2891ZM10.3694 28.4343H12.5464V26.3635H10.3694V28.4343ZM10.3694 24.1769H12.5464V21.9903H10.3694V24.1769ZM10.3694 19.9195H12.5464V17.733H10.3694V19.9195ZM10.3694 15.5336H12.5464V13.4628H10.3694V15.5336Z" fill="black" stroke="black" stroke-width="0.8"/>
</svg>
