<svg width="90" height="90" viewBox="0 0 90 90" fill="none" xmlns="http://www.w3.org/2000/svg">
<ellipse cx="40" cy="43.5" rx="4" ry="7.5" fill="#DD0004"/>
<path d="M48.8094 41.1536L47.7225 41.9051C47.2555 42.2193 46.6781 42.3169 46.1474 42.1556L45.0945 41.8414C44.8992 41.5145 44.6699 41.1876 44.4109 40.9074C44.3685 40.8649 44.326 40.8225 44.2793 40.7758C44.5638 40.1559 44.7251 39.4936 44.7251 38.7973C44.7251 37.2519 43.9736 35.8933 42.8358 35.0271C43.0863 34.7342 43.4769 34.3988 44.1095 34.1271C44.7506 33.8426 45.0435 33.0954 44.7633 32.4543C44.4789 31.8132 43.7316 31.5202 43.0905 31.8004C41.613 32.4543 40.8403 33.3459 40.4072 34.0846C40.2671 34.0719 40.1228 34.0422 39.9742 34.0422C39.8213 34.0422 39.6812 34.0761 39.5411 34.0846C39.1165 33.3459 38.3353 32.4416 36.8578 31.8004C36.2167 31.516 35.4653 31.8004 35.185 32.4543C34.9005 33.0954 35.185 33.8468 35.8388 34.1271C36.4672 34.4115 36.862 34.7342 37.1125 35.0271C35.9704 35.8975 35.2232 37.2561 35.2232 38.7973C35.2232 39.4809 35.3845 40.1559 35.669 40.7758C35.6266 40.8182 35.5841 40.8607 35.5374 40.9074C35.2784 41.2003 35.0491 41.5145 34.8538 41.8414L33.8009 42.1556C33.2575 42.3169 32.6801 42.2193 32.2258 41.9051L31.139 41.1536C30.5615 40.763 29.7676 40.9031 29.377 41.4805C28.9864 42.0579 29.1265 42.8518 29.7039 43.2425L30.7908 43.9939C31.5295 44.5034 32.3999 44.7666 33.2702 44.7666C33.5207 44.7666 33.7584 44.7327 34.0089 44.703C34.0089 44.9747 34.0089 45.2464 34.0302 45.5181L34.0726 45.9851L32.973 46.3418H32.9391C32.3404 46.5583 31.8183 46.8852 31.3639 47.3183L30.2644 48.3712C29.7549 48.8509 29.7421 49.6534 30.2219 50.1628C30.4724 50.4218 30.8078 50.5534 31.1347 50.5534C31.4489 50.5534 31.763 50.4345 32.0051 50.2053L33.1046 49.1523C33.2914 48.9655 33.5165 48.8382 33.7585 48.749L34.3996 48.541C34.4845 48.8679 34.6076 49.1948 34.7477 49.4877L33.9198 50.0439C33.1895 50.4897 32.6164 51.1435 32.247 51.912L31.5634 53.3682C31.2705 53.9966 31.5422 54.7608 32.1706 55.0538C32.3446 55.1302 32.5272 55.1727 32.7013 55.1727C33.181 55.1727 33.6353 54.9009 33.8518 54.4424L34.5354 52.9862C34.6882 52.6508 34.9387 52.3791 35.2529 52.1838C35.2741 52.1838 35.2869 52.1626 35.3081 52.1498L36.2973 51.4875C37.2993 52.3027 38.556 52.8122 39.9486 52.8122C41.3412 52.8122 42.6106 52.3112 43.6126 51.4875L44.589 52.1626C44.589 52.1626 44.6315 52.1838 44.6442 52.205C44.9584 52.4003 45.2089 52.672 45.3618 53.0074L46.0453 54.4636C46.2618 54.9222 46.7204 55.1939 47.1959 55.1939C47.3827 55.1939 47.5525 55.1514 47.7266 55.075C48.3549 54.7821 48.6267 54.0221 48.3337 53.3895L47.6501 51.9333C47.2935 51.1606 46.7161 50.511 45.9859 50.0651L45.158 49.5005C45.2981 49.1948 45.417 48.8934 45.5062 48.5664L46.1472 48.7745C46.3977 48.8594 46.6143 49.0037 46.8011 49.1778L47.9007 50.2307C48.1512 50.4685 48.4653 50.5789 48.771 50.5789C49.1064 50.5789 49.4333 50.4472 49.6838 50.1883C50.1636 49.6788 50.1508 48.8849 49.6414 48.3966L48.5418 47.3437C48.0832 46.9107 47.5525 46.5838 46.9667 46.3757H46.9327L45.8458 46.0191L45.8883 45.5394C45.9222 45.2676 45.9222 44.9959 45.9095 44.7242C46.16 44.7666 46.3977 44.7879 46.6482 44.7879C47.5271 44.7879 48.389 44.5289 49.1276 44.0152L50.2145 43.2637C50.7919 42.8731 50.9448 42.0792 50.5414 41.5018C50.1508 40.9243 49.3569 40.7715 48.7795 41.1748L48.8094 41.1536ZM37.7536 38.793C37.7536 37.5745 38.7429 36.5768 39.9699 36.5768C41.1969 36.5768 42.1861 37.566 42.1861 38.793C42.1861 38.9798 42.1522 39.1624 42.1097 39.3365C41.4347 39.0775 40.7086 38.9331 39.9699 38.9331C39.2311 38.9331 38.5008 39.0732 37.83 39.3365C37.7876 39.1624 37.7536 38.9798 37.7536 38.793ZM39.9699 50.2694C38.2971 50.2694 36.9173 49.0212 36.7517 47.3569L36.5437 45.2595C36.4461 44.283 36.7602 43.3363 37.4141 42.606C38.0764 41.8758 38.9807 41.4766 39.97 41.4766C40.9592 41.4766 41.8593 41.88 42.5259 42.606C43.1882 43.3363 43.4939 44.2788 43.3962 45.2595L43.1882 47.3569C43.0268 49.0211 41.6341 50.2694 39.9699 50.2694Z" fill="black"/>
<path d="M52.7449 30.6542C49.3314 27.2407 44.8013 25.3599 39.9741 25.3599C35.1468 25.3599 30.6167 27.2407 27.2032 30.6542C23.7898 34.0676 21.9089 38.5977 21.9089 43.425C21.9089 48.2522 23.7898 52.7824 27.2032 56.1958C30.6167 59.6093 35.1468 61.4901 39.9741 61.4901C44.8013 61.4901 49.3314 59.6093 52.7449 56.1958C56.1583 52.7824 58.0392 48.2522 58.0392 43.425C58.0392 38.5977 56.1583 34.0676 52.7449 30.6542ZM50.9533 54.4046C48.0196 57.3383 44.1178 58.9475 39.9736 58.9475C35.8341 58.9475 31.9325 57.3299 28.994 54.4046C26.0603 51.4709 24.4511 47.5691 24.4511 43.425C24.4511 39.2855 26.0687 35.3838 28.994 32.4453C31.9277 29.5116 35.8295 27.9025 39.9736 27.9025C44.1131 27.9025 48.0148 29.5201 50.9533 32.4453C53.887 35.379 55.4961 39.2808 55.4961 43.425C55.4961 47.5645 53.8785 51.4661 50.9533 54.4046Z" fill="black"/>
<path d="M68.5893 64.6824C72.2406 58.7046 74.1213 51.9333 74.1213 44.5328L74.1256 21.7507C74.1256 21.1648 73.735 20.6638 73.1703 20.5237C59.0746 17.0253 48.5416 10.9583 40.9889 1.9707C40.7512 1.68624 40.3903 1.5249 40.0209 1.5249H39.9997C39.6176 1.5249 39.261 1.71172 39.0232 2.00466C29.8059 13.7103 19.0692 19.9251 7.11352 20.4946C6.43847 20.5286 5.90773 21.0805 5.90773 21.7556V44.4953C5.12654 57.3085 10.7435 68.4403 22.1555 76.6767C30.6892 82.8414 39.3293 85.1849 39.6988 85.2869C39.8092 85.3208 39.9153 85.3293 40.0257 85.3293C40.1361 85.3293 40.2422 85.3166 40.3526 85.2869C40.8536 85.1552 52.4692 82.005 62.0141 72.8638L76.1435 86.9933C77.1328 87.9825 78.4277 88.4708 79.7184 88.4708C81.0133 88.4708 82.3167 87.9825 83.2933 86.9933L83.5225 86.764C84.4778 85.8087 85 84.535 85 83.1891C85 81.8433 84.4778 80.5695 83.5225 79.6143L68.5893 64.6824ZM40.0033 82.7474C38.373 82.2592 30.8753 79.8689 23.6154 74.6297C12.7805 66.8051 7.66869 56.7093 8.42081 44.6221V44.5457V22.9483C20.245 22.0355 30.8627 15.9261 40.0381 4.76483C47.6124 13.2221 58.2096 19.2638 71.5793 22.7407V44.5337C71.5793 51.3819 69.8726 57.6404 66.5483 63.1715C65.9284 62.9125 65.2661 62.7682 64.5826 62.7682C63.6061 62.7682 62.6805 63.0527 61.8781 63.5621L57.6707 59.3335C61.6148 54.9521 63.8013 49.3648 63.8013 43.4205C63.8013 37.0521 61.3219 31.0747 56.8215 26.5739C52.321 22.0731 46.3348 19.5941 39.9749 19.5941C33.6149 19.5941 27.629 22.0735 23.1282 26.5739C13.8346 35.8676 13.8346 50.9863 23.1282 60.2671C27.7687 64.9076 33.8781 67.2343 39.9749 67.2343C45.681 67.2343 51.3654 65.1794 55.8748 61.1163L60.0822 65.3449C58.9826 67.0729 59.0378 69.3103 60.2436 70.9958C52.0283 78.863 41.9275 82.17 40.0048 82.7352L40.0033 82.7474ZM39.9694 64.7291C34.2845 64.7291 28.9397 62.5129 24.9139 58.4923C20.8933 54.4717 18.6771 49.1222 18.6771 43.4369C18.6771 37.7515 20.8933 32.4072 24.9139 28.3814C28.9345 24.3608 34.284 22.1446 39.9694 22.1446C45.6543 22.1446 50.999 24.3608 55.0248 28.3814C59.0454 32.402 61.2617 37.7515 61.2617 43.4369C61.2617 49.1222 59.0454 54.4665 55.0248 58.4923C51.0042 62.5129 45.6547 64.7291 39.9694 64.7291ZM81.7164 84.9766L81.4871 85.2144C80.4979 86.2036 78.9015 86.2036 77.9123 85.2144L62.5645 69.8666C61.5752 68.8773 61.5752 67.281 62.5645 66.2917L62.8022 66.0539C63.282 65.5742 63.9103 65.3152 64.5938 65.3152C65.2774 65.3152 65.9099 65.5742 66.3854 66.0539L81.7332 81.4018C82.213 81.8815 82.472 82.5098 82.472 83.1934C82.472 83.8769 82.213 84.5095 81.7332 84.985L81.7164 84.9766Z" fill="black"/>
</svg>
