<svg width="88" height="82" viewBox="0 0 88 82" fill="none" xmlns="http://www.w3.org/2000/svg">
<path d="M87.5938 73H0.40625V75.8H87.5938V73Z" fill="black"/>
<path d="M87.5938 78.6H14.4688V81.4H87.5938V78.6Z" fill="black"/>
<path d="M8 46.5L11 44L12.5 45H15.5V43L17 41.5H20.5C22 41.5 21 42.5 21 43C21 43.4 21.6667 43.8333 22 44H23H25.5H27C27.3333 44 28 44.3 28 45.5C28 47 29.5 48 32 53.5C32.5 54.5 33 55 33 56C33 57 32 56.5 31.5 56.5C31 56.5 30.5 57 29.5 59V60.5C29.6667 61.3333 29.9 63.2 29.5 64C29 65 28.5 65 28 65.5C27.5 66 26 65.5 25.5 65.5C25 65.5 22.5 65.5 22 66C21.5 66.5 21.5 68 21 68C20.5 68 20 69 19 69C18 69 17.5 68.5 17 68C16.6 67.6 15.8333 66.1667 15.5 65.5H12.5L10 66L7.5 63C8 62.5 9 61.3 9 60.5C9 59.7 8 58.5 7.5 58L5 56.5V52.5H8L9 50L8 46.5Z" fill="#DD0004" stroke="black"/>
<path d="M32.75 58.7457C33.123 58.7457 33.4806 58.5982 33.7444 58.3357C34.0081 58.0731 34.1562 57.717 34.1562 57.3457V52.2543C34.1562 51.883 34.0081 51.5269 33.7444 51.2644C33.4806 51.0018 33.123 50.8543 32.75 50.8543H30.9688C30.7557 50.1977 30.4893 49.5594 30.1723 48.9457L31.4337 47.6899C31.5643 47.56 31.668 47.4057 31.7387 47.2358C31.8093 47.066 31.8457 46.8839 31.8457 46.7001C31.8457 46.5162 31.8093 46.3342 31.7387 46.1644C31.668 45.9945 31.5643 45.8402 31.4337 45.7102L27.8192 42.1118C27.6887 41.9814 27.5336 41.878 27.3629 41.8074C27.1922 41.7367 27.0091 41.7004 26.8242 41.7003C26.4513 41.7004 26.093 41.848 25.8293 42.1105L24.5679 43.3663C23.9515 43.0508 23.3103 42.7857 22.6508 42.5733V40.8C22.6508 40.4287 22.5027 40.0726 22.2389 39.8101C21.9752 39.5475 21.6175 39.4 21.2446 39.4H16.1304C15.7575 39.4 15.3998 39.5475 15.1361 39.8101C14.8723 40.0726 14.7242 40.4287 14.7242 40.8V42.5733C14.0646 42.7855 13.4235 43.0507 12.8071 43.3662L11.5457 42.1104C11.4151 41.9804 11.2601 41.8773 11.0895 41.8069C10.9189 41.7365 10.7361 41.7003 10.5514 41.7003C10.3667 41.7003 10.1839 41.7365 10.0133 41.8069C9.84267 41.8773 9.68767 41.9804 9.55713 42.1104L5.94125 45.7103C5.81064 45.8402 5.70703 45.9946 5.63634 46.1644C5.56564 46.3342 5.52926 46.5163 5.52926 46.7001C5.52926 46.884 5.56564 47.066 5.63634 47.2359C5.70703 47.4057 5.81064 47.56 5.94125 47.69L7.20266 48.9458C6.88579 49.5595 6.61941 50.1978 6.40614 50.8544H4.625C4.25204 50.8544 3.89435 51.0019 3.63063 51.2644C3.36691 51.527 3.21875 51.8831 3.21875 52.2544V57.3458C3.21875 57.7171 3.36691 58.0732 3.63063 58.3357C3.89435 58.5983 4.25204 58.7458 4.625 58.7458H6.40616C6.61932 59.4024 6.88569 60.0407 7.20266 60.6543L5.94125 61.9101C5.81064 62.0401 5.70703 62.1944 5.63634 62.3642C5.56564 62.5341 5.52926 62.7161 5.52926 62.9C5.52926 63.0838 5.56564 63.2659 5.63634 63.4357C5.70703 63.6055 5.81064 63.7599 5.94125 63.8898L9.55717 67.4896C9.68771 67.6197 9.84271 67.7228 10.0133 67.7932C10.1839 67.8636 10.3668 67.8998 10.5514 67.8998C10.7361 67.8998 10.919 67.8636 11.0896 67.7932C11.2602 67.7228 11.4152 67.6197 11.5457 67.4896L12.8071 66.2338C13.4236 66.5493 14.0647 66.8145 14.7242 67.0268V68.8C14.7242 69.1713 14.8724 69.5274 15.1361 69.79C15.3998 70.0525 15.7575 70.2 16.1305 70.2H21.2446C21.6176 70.2 21.9753 70.0525 22.239 69.79C22.5027 69.5274 22.6509 69.1713 22.6509 68.8V67.0268C23.3104 66.8146 23.9516 66.5494 24.568 66.2338L25.8294 67.4896C25.9599 67.6196 26.1149 67.7228 26.2855 67.7932C26.4561 67.8635 26.639 67.8998 26.8236 67.8998C27.0083 67.8998 27.1912 67.8635 27.3618 67.7932C27.5324 67.7228 27.6874 67.6196 27.8179 67.4896L31.4337 63.8898C31.5644 63.7598 31.668 63.6055 31.7387 63.4357C31.8094 63.2658 31.8457 63.0838 31.8457 62.8999C31.8457 62.7161 31.8094 62.534 31.7387 62.3642C31.668 62.1944 31.5644 62.04 31.4337 61.9101L30.1723 60.6543C30.4892 60.0406 30.7556 59.4023 30.9689 58.7457L32.75 58.7457ZM28.3067 57.8407C28.1331 58.3833 27.9133 58.9102 27.6496 59.4157C27.3789 59.9185 27.2769 60.4944 27.3586 61.0591C27.4402 61.6238 27.7013 62.1476 28.1035 62.554L28.4509 62.8999L26.8236 64.52L26.4761 64.1741C26.0684 63.7732 25.5422 63.513 24.975 63.4317C24.4077 63.3503 23.8292 63.4522 23.3244 63.7223C22.8164 63.9847 22.287 64.2035 21.7417 64.3765C21.1943 64.5422 20.7144 64.8777 20.372 65.334C20.0296 65.7904 19.8426 66.3437 19.8383 66.9133V67.4H17.5367V66.9133C17.5324 66.3437 17.3454 65.7904 17.003 65.334C16.6606 64.8777 16.1807 64.5422 15.6333 64.3765C15.0882 64.2037 14.5589 63.9848 14.0513 63.7223C13.5462 63.4526 12.9677 63.351 12.4005 63.4323C11.8332 63.5136 11.307 63.7736 10.8989 64.1742L10.5514 64.5201L8.92409 62.8999L9.27153 62.554C9.67372 62.1478 9.93475 61.624 10.0164 61.0594C10.0981 60.4949 9.99615 59.9191 9.72547 59.4163C9.46192 58.9106 9.24209 58.3835 9.06836 57.8407C8.90191 57.2957 8.56491 56.8179 8.10653 56.477C7.64815 56.1362 7.09236 55.95 6.52023 55.9457H6.03125V53.6543H6.52015C7.09228 53.65 7.64807 53.4639 8.10645 53.123C8.56483 52.7821 8.90182 52.3044 9.06827 51.7594C9.24189 51.2167 9.46172 50.6898 9.72538 50.1844C9.99611 49.6816 10.0981 49.1057 10.0164 48.541C9.93476 47.9763 9.67373 47.4524 9.27152 47.046L8.92407 46.7001L10.5514 45.08L10.8989 45.4259C11.307 45.8262 11.8331 46.0861 12.4001 46.1674C12.9672 46.2487 13.5456 46.1472 14.0506 45.8778C14.5585 45.6154 15.088 45.3965 15.6333 45.2236C16.1807 45.0579 16.6606 44.7224 17.003 44.266C17.3454 43.8097 17.5324 43.2564 17.5367 42.6868V42.2H19.8383V42.6867C19.8426 43.2563 20.0296 43.8097 20.372 44.266C20.7144 44.7223 21.1943 45.0578 21.7417 45.2235C22.2868 45.3964 22.816 45.6153 23.3237 45.8777C23.8288 46.1472 24.4073 46.2487 24.9745 46.1674C25.5417 46.0861 26.0679 45.8263 26.4761 45.4259L26.8235 45.0807L28.4509 46.7001L28.1035 47.046C27.7013 47.4523 27.4403 47.976 27.3586 48.5406C27.2769 49.1052 27.3789 49.681 27.6496 50.1837C27.9131 50.6894 28.133 51.2165 28.3067 51.7594C28.4732 52.3043 28.8101 52.7821 29.2685 53.123C29.7269 53.4639 30.2827 53.65 30.8548 53.6543H31.3438V55.9457H30.8549C30.2827 55.95 29.7269 56.1362 29.2685 56.477C28.8102 56.8179 28.4732 57.2957 28.3067 57.8407Z" fill="black"/>
<path d="M18.6875 47.1C17.1578 47.1 15.6624 47.5516 14.3905 48.3977C13.1186 49.2437 12.1273 50.4463 11.5419 51.8533C10.9565 53.2603 10.8033 54.8085 11.1017 56.3022C11.4002 57.7958 12.1368 59.1678 13.2185 60.2447C14.3001 61.3216 15.6783 62.0549 17.1786 62.352C18.6789 62.6491 20.234 62.4966 21.6473 61.9138C23.0606 61.3311 24.2685 60.3441 25.1184 59.0779C25.9683 57.8116 26.4219 56.3229 26.4219 54.8C26.4196 52.7585 25.6039 50.8013 24.154 49.3578C22.704 47.9143 20.7381 47.1023 18.6875 47.1ZM18.6875 59.7C17.714 59.7 16.7625 59.4126 15.9531 58.8742C15.1437 58.3358 14.5128 57.5705 14.1403 56.6751C13.7678 55.7798 13.6703 54.7945 13.8602 53.844C14.0501 52.8935 14.5189 52.0204 15.2072 51.3352C15.8955 50.6499 16.7725 50.1832 17.7273 49.9941C18.682 49.8051 19.6717 49.9021 20.571 50.273C21.4704 50.6438 22.2391 51.2719 22.7799 52.0777C23.3207 52.8835 23.6094 53.8308 23.6094 54.8C23.6078 56.0991 23.0887 57.3445 22.1661 58.2631C21.2434 59.1816 19.9924 59.6984 18.6875 59.7Z" fill="black"/>
<path d="M39.7812 32.4C39.4083 32.4 39.0506 32.5475 38.7869 32.8101C38.5232 33.0726 38.375 33.4287 38.375 33.8V68.8C38.375 69.1713 38.5232 69.5274 38.7869 69.79C39.0506 70.0525 39.4083 70.2 39.7812 70.2H49.625C49.998 70.2 50.3556 70.0525 50.6194 69.79C50.8831 69.5274 51.0312 69.1713 51.0312 68.8V33.8C51.0312 33.4287 50.8831 33.0726 50.6194 32.8101C50.3556 32.5475 49.998 32.4 49.625 32.4H39.7812ZM48.2188 67.4H41.1875V35.2H48.2188V67.4Z" fill="black"/>
<path d="M56.6562 35.2C56.2833 35.2 55.9256 35.3474 55.6619 35.61C55.3982 35.8726 55.25 36.2286 55.25 36.6V68.7999C55.25 69.1713 55.3982 69.5274 55.6619 69.7899C55.9256 70.0525 56.2833 70.2 56.6562 70.2H66.5C66.873 70.2 67.2306 70.0525 67.4944 69.7899C67.7581 69.5274 67.9062 69.1713 67.9062 68.7999V36.6C67.9062 36.2286 67.7581 35.8726 67.4944 35.61C67.2306 35.3474 66.873 35.2 66.5 35.2H56.6562ZM65.0938 67.4H58.0625V38H65.0938V67.4Z" fill="black"/>
<path d="M73.5312 19.8C73.1583 19.8 72.8006 19.9475 72.5369 20.2101C72.2732 20.4726 72.125 20.8287 72.125 21.2V68.8001C72.125 69.1714 72.2732 69.5275 72.5369 69.79C72.8006 70.0526 73.1583 70.2001 73.5312 70.2001H83.375C83.748 70.2001 84.1056 70.0526 84.3694 69.79C84.6331 69.5275 84.7812 69.1714 84.7812 68.8001V21.2C84.7812 20.8287 84.6331 20.4726 84.3694 20.2101C84.1056 19.9475 83.748 19.8 83.375 19.8H73.5312ZM81.9688 67.4001H74.9375V22.6H81.9688V67.4001Z" fill="black"/>
<path d="M84.8705 0.459034C84.6789 0.296602 84.447 0.188388 84.199 0.145699C83.951 0.103009 83.6961 0.127412 83.4608 0.216357L75.8453 3.09087C75.6136 3.17819 75.4093 3.32489 75.2529 3.5161C75.0965 3.70732 74.9936 3.93626 74.9547 4.17978C74.9157 4.4233 74.942 4.67274 75.031 4.90286C75.12 5.13299 75.2685 5.33563 75.4614 5.49028L77.2734 6.94326L62.827 22.8091C62.0628 22.5547 61.2401 22.5316 60.4627 22.7428C59.6854 22.954 58.9885 23.3901 58.4602 23.9958L48.8876 20.8616C48.8389 20.2576 48.6592 19.6713 48.3609 19.1431C48.0626 18.615 47.6528 18.1575 47.1597 17.8023C46.6666 17.4471 46.102 17.2026 45.5048 17.0857C44.9077 16.9687 44.2921 16.9822 43.7006 17.125C43.1091 17.2679 42.5558 17.5367 42.0788 17.9131C41.6018 18.2894 41.2125 18.7643 40.9377 19.305C40.6629 19.8456 40.5092 20.4392 40.4872 21.0447C40.4651 21.6502 40.5752 22.2533 40.81 22.8124L30.3701 32.7903L32.3174 34.8096L42.7088 24.878C43.3191 25.2157 44.0049 25.3952 44.7032 25.4C45.3873 25.3994 46.0611 25.233 46.6662 24.9152C47.2714 24.5974 47.7897 24.1377 48.1764 23.5758L57.3808 26.5894C57.3772 26.6606 57.3594 26.7279 57.3594 26.8C57.3581 27.4556 57.5109 28.1024 57.8057 28.6886C58.1005 29.2748 58.529 29.7842 59.057 30.176C59.585 30.5677 60.1977 30.831 60.8463 30.9448C61.4948 31.0585 62.161 31.0195 62.7917 30.8309C63.4224 30.6423 63.9999 30.3094 64.4782 29.8587C64.9564 29.4081 65.3221 28.8522 65.5458 28.2357C65.7696 27.6191 65.8453 26.959 65.7668 26.3081C65.6884 25.6571 65.458 25.0336 65.094 24.4872L79.4671 8.70215L81.493 10.3267C81.6808 10.4774 81.9045 10.5775 82.1424 10.6172C82.3803 10.657 82.6245 10.6352 82.8515 10.5538C83.0785 10.4724 83.2806 10.3343 83.4384 10.1526C83.5963 9.97101 83.7045 9.75199 83.7528 9.51665L85.3367 1.80575C85.3873 1.56028 85.3707 1.30579 85.2887 1.06889C85.2067 0.831985 85.0623 0.621361 84.8705 0.459034ZM44.7032 22.6C44.425 22.6 44.1531 22.5178 43.9219 22.364C43.6906 22.2102 43.5104 21.9915 43.4039 21.7357C43.2975 21.4799 43.2697 21.1984 43.3239 20.9268C43.3782 20.6552 43.5121 20.4058 43.7088 20.21C43.9055 20.0142 44.156 19.8809 44.4288 19.8268C44.7016 19.7728 44.9843 19.8006 45.2413 19.9065C45.4983 20.0125 45.7179 20.1919 45.8724 20.4221C46.0269 20.6524 46.1094 20.9231 46.1094 21.1999C46.1089 21.5711 45.9606 21.9269 45.697 22.1894C45.4334 22.4518 45.076 22.5995 44.7032 22.6ZM61.5782 28.2C61.3 28.2 61.0281 28.1178 60.7969 27.964C60.5656 27.8102 60.3854 27.5915 60.2789 27.3357C60.1725 27.0799 60.1447 26.7984 60.1989 26.5268C60.2532 26.2552 60.3871 26.0058 60.5838 25.81C60.7805 25.6142 61.031 25.4809 61.3038 25.4269C61.5766 25.3728 61.8593 25.4006 62.1163 25.5065C62.3733 25.6125 62.5929 25.7919 62.7474 26.0222C62.9019 26.2524 62.9844 26.5231 62.9844 26.7999C62.9839 27.1711 62.8356 27.5269 62.572 27.7894C62.3084 28.0518 61.951 28.1995 61.5782 28.2ZM81.46 6.70502L79.1377 4.84292L82.0698 3.73618L81.46 6.70502Z" fill="black"/>
<path d="M11.6562 78.6H8.84375V81.4H11.6562V78.6Z" fill="black"/>
<path d="M6.03125 78.6H0.40625V81.4H6.03125V78.6Z" fill="black"/>
</svg>
