<svg width="76" height="85" viewBox="0 0 76 85" fill="none" xmlns="http://www.w3.org/2000/svg">
<path d="M13 77.5L15.5 79L17 82.5L21 82L23 78.5L26.5 78L29 79L32 76L31 72.1875L31.5 70L33 69L35.5 68V66V64L34.6875 63.5L32 62L31 60L31.5 55.5L29 53L25.5 54L23 53L21 49.5L17.5 49L15.5 53L13 54.5L10 53L6 56L7.5 59L7 61.5L3 63.5L3.5 67.5L6 69L7.5 72.5L6 76L9 78.5L13 77.5Z" fill="#DD0004"/>
<path fill-rule="evenodd" clip-rule="evenodd" d="M62.8822 30.3604C62.7992 30.2303 62.7436 30.0845 62.719 29.932C62.6944 29.7795 62.7012 29.6235 62.7391 29.4738C62.7769 29.324 62.845 29.1837 62.939 29.0615C63.0331 28.9393 63.1512 28.8378 63.2859 28.7633C63.4206 28.6889 63.5692 28.6431 63.7222 28.6287C63.8753 28.6143 64.0297 28.6317 64.1758 28.6798C64.322 28.7279 64.4567 28.8056 64.5717 28.9082C64.6866 29.0108 64.7794 29.136 64.8442 29.2761C67.2318 33.6316 68.6013 38.4762 68.8488 43.4425C69.0963 48.4089 68.2153 53.3667 66.2727 57.9401C66.5051 58.0651 66.718 58.2238 66.9046 58.4111L69.9739 61.4963L72.7619 58.6938C72.8648 58.5835 72.9886 58.495 73.1261 58.4337C73.2637 58.3725 73.412 58.3396 73.5625 58.3371C73.7129 58.3346 73.8623 58.3625 74.0017 58.4191C74.1412 58.4758 74.2679 58.5601 74.3743 58.667C74.4807 58.7738 74.5646 58.9011 74.6211 59.0412C74.6776 59.1813 74.7054 59.3314 74.703 59.4826C74.7006 59.6337 74.668 59.7828 74.607 59.9211C74.5461 60.0593 74.4582 60.1838 74.3484 60.2872L71.5596 63.0896L74.6281 66.1723C75.1327 66.6808 75.416 67.3697 75.416 68.0879C75.416 68.806 75.1327 69.4949 74.6281 70.0034L74.2431 70.392C75.4602 71.997 76.0567 73.9911 75.9219 76.0044C75.7871 78.0178 74.9301 79.9136 73.51 81.3402C72.0898 82.7669 70.2029 83.6275 68.1993 83.7624C66.1958 83.8972 64.2115 83.2973 62.6147 82.0737L61.187 83.5101C60.6804 84.0163 59.9951 84.3004 59.2807 84.3004C58.5663 84.3004 57.881 84.0163 57.3744 83.5101L54.3068 80.4257L51.5188 83.2273C51.3058 83.4249 51.025 83.5319 50.7353 83.5261C50.4455 83.5202 50.1692 83.4019 49.9643 83.196C49.7594 82.9901 49.6417 82.7125 49.6359 82.4213C49.6301 82.1301 49.7366 81.848 49.9331 81.634L52.7211 78.8324L49.6526 75.7472C49.4661 75.5605 49.3082 75.3471 49.1839 75.114C45.6598 76.6302 41.8959 77.506 38.0673 77.7005C37.9136 77.721 37.7573 77.7094 37.6083 77.6662C37.4593 77.623 37.3208 77.5492 37.2016 77.4495C37.0824 77.3499 36.985 77.2265 36.9156 77.0871C36.8463 76.9477 36.8064 76.7954 36.7986 76.6397C36.7907 76.4841 36.8151 76.3285 36.8701 76.1828C36.9251 76.0371 37.0096 75.9044 37.1181 75.7932C37.2267 75.6819 37.3571 75.5945 37.501 75.5364C37.6449 75.4783 37.7992 75.4509 37.9542 75.4557C39.9617 75.3502 41.9538 75.0451 43.9014 74.545C45.6937 74.0869 47.4401 73.4635 49.1183 72.6827C49.2504 72.3977 49.4313 72.1382 49.6526 71.916L63.0894 58.4128C63.3111 58.1911 63.5693 58.0094 63.8524 57.8759C65.8504 53.5346 66.8036 48.7818 66.635 44.0018C66.4665 39.2217 65.1809 34.5486 62.8822 30.3604ZM72.6359 72.0079L64.2227 80.4604C65.3878 81.2598 66.7942 81.6251 68.1988 81.4933C69.6035 81.3615 70.9182 80.7408 71.9159 79.7385C72.9136 78.7361 73.5315 77.4151 73.663 76.0037C73.7944 74.5922 73.4312 73.1789 72.6359 72.0079ZM19.2505 56.4872C21.4071 56.4877 23.4969 57.2396 25.1637 58.6148C26.8305 59.99 27.9713 61.9034 28.3916 64.029C28.812 66.1545 28.4859 68.3608 27.469 70.2719C26.4521 72.1831 24.8072 73.6807 22.8146 74.5098C20.822 75.3389 18.605 75.4481 16.5413 74.8187C14.4776 74.1894 12.6949 72.8605 11.4968 71.0585C10.2988 69.2565 9.75964 67.0928 9.97115 64.9361C10.1827 62.7794 11.1318 60.7631 12.6568 59.2307C13.5216 58.3592 14.5494 57.6682 15.681 57.1974C16.8126 56.7265 18.0257 56.4852 19.2505 56.4872ZM24.2568 60.8241C23.0984 59.6584 21.5737 58.9325 19.9423 58.77C18.311 58.6076 16.6741 59.0186 15.3106 59.9331C13.9471 60.8475 12.9413 62.2089 12.4647 63.785C11.9882 65.3612 12.0703 67.0546 12.6971 68.5768C13.3239 70.0989 14.4566 71.3556 15.9021 72.1325C17.3476 72.9094 19.0166 73.1586 20.6244 72.8375C22.2323 72.5164 23.6796 71.645 24.7197 70.3717C25.7598 69.0984 26.3283 67.5021 26.3284 65.8548C26.3299 64.9205 26.1477 63.9951 25.7921 63.1317C25.4366 62.2684 24.9149 61.4841 24.2568 60.8241ZM23.883 52.3325C23.8286 52.3148 23.7788 52.2852 23.7372 52.2458C23.7002 52.2032 23.6725 52.1533 23.656 52.0992L22.9854 50.0262C22.8177 49.4997 22.4876 49.0404 22.0428 48.7151C21.598 48.3898 21.0617 48.2153 20.5115 48.2169H17.9859C17.4358 48.2153 16.8995 48.3898 16.4547 48.7151C16.0099 49.0404 15.6797 49.4997 15.5121 50.0262L14.8415 52.0992C14.8238 52.1539 14.7943 52.2039 14.7551 52.2458C14.7144 52.285 14.6654 52.3147 14.6119 52.3325C14.3529 52.4245 14.0784 52.5268 13.7988 52.6431C13.5191 52.7593 13.255 52.879 13.0081 53.0013C12.9582 53.0279 12.9031 53.0433 12.8467 53.0464C12.7895 53.0431 12.7338 53.0261 12.6844 52.9969L10.7501 52.0081C10.2607 51.757 9.70472 51.6681 9.16195 51.7543C8.61918 51.8405 8.11754 52.0973 7.72904 52.4878L5.94144 54.2841C5.55303 54.6746 5.29757 55.1786 5.21168 55.724C5.12578 56.2693 5.21384 56.828 5.46325 57.3199L6.44984 59.2637C6.47742 59.3129 6.49364 59.3678 6.49731 59.4241C6.49564 59.4817 6.47993 59.538 6.45156 59.5881C6.3313 59.8367 6.21333 60.1016 6.09767 60.3826C5.98201 60.6636 5.879 60.9357 5.78866 61.1988C5.77086 61.2531 5.74139 61.3029 5.70234 61.3445C5.65969 61.382 5.60928 61.4096 5.55474 61.4252L3.49093 62.1C2.96652 62.267 2.50901 62.5982 2.18523 63.0451C1.86145 63.4921 1.68836 64.0313 1.69125 64.5841V67.1246C1.68943 67.6775 1.86288 68.2166 2.18648 68.6637C2.51007 69.1108 2.96697 69.4428 3.49093 69.6114L5.55474 70.2845C5.60984 70.2996 5.66048 70.3278 5.70234 70.3669C5.74103 70.4081 5.77046 70.4572 5.78866 70.5108C5.87497 70.7711 5.98114 71.0478 6.09767 71.3288C6.2142 71.6098 6.33158 71.8744 6.45156 72.1207C6.47943 72.1713 6.4951 72.2277 6.49731 72.2855C6.49358 72.3424 6.47737 72.3978 6.44984 72.4477L5.4667 74.3932C5.21703 74.8851 5.12882 75.4438 5.21473 75.9892C5.30063 76.5346 5.55625 77.0386 5.94489 77.429L7.73249 79.2244C8.12054 79.6156 8.62205 79.873 9.1649 79.9597C9.70775 80.0463 10.264 79.9578 10.7535 79.7067L12.6887 78.7162C12.7382 78.687 12.7938 78.67 12.851 78.6667C12.9079 78.6708 12.9634 78.6864 13.0142 78.7127C13.2593 78.8353 13.5223 78.9547 13.8031 79.0709C14.0827 79.1871 14.3529 79.2912 14.6162 79.3823C14.6699 79.3977 14.719 79.426 14.7595 79.4647C14.7986 79.5072 14.8281 79.5579 14.8458 79.613L15.5164 81.686C15.6831 82.213 16.013 82.6725 16.4581 82.9976C16.9032 83.3226 17.4401 83.4961 17.9903 83.4928H20.5124C21.0626 83.4961 21.5995 83.3226 22.0445 82.9976C22.4896 82.6725 22.8196 82.213 22.9862 81.686L23.6569 79.613C23.6734 79.5584 23.701 79.5079 23.738 79.4647C23.7794 79.425 23.8293 79.3953 23.8839 79.378C24.1428 79.2912 24.4156 79.1845 24.6953 79.0683C24.9749 78.9521 25.2391 78.8324 25.4859 78.7101C25.5366 78.6836 25.5921 78.6679 25.6491 78.6641C25.7054 78.6676 25.7602 78.6845 25.8087 78.7136L27.7439 79.7049C28.2335 79.956 28.7897 80.0446 29.3326 79.958C29.8754 79.8713 30.3769 79.6139 30.765 79.2227L32.5526 77.4272C32.9413 77.0369 33.1969 76.5328 33.2827 75.9874C33.3685 75.4419 33.28 74.8832 33.0299 74.3915L32.0442 72.4494C32.0169 72.3994 32.0007 72.3441 31.9967 72.2872C31.9997 72.2299 32.016 72.1741 32.0442 72.1242C32.1642 71.8761 32.2842 71.6115 32.3981 71.3305C32.512 71.0495 32.6182 70.7771 32.7088 70.5143C32.7254 70.4609 32.7534 70.4118 32.7908 70.3703C32.8324 70.3313 32.8827 70.303 32.9376 70.2879L35.0014 69.6149C35.5257 69.4471 35.983 69.1154 36.3065 68.668C36.6299 68.2206 36.8026 67.6811 36.7993 67.1281V64.5859C36.803 64.0331 36.6304 63.4937 36.3069 63.0467C35.9833 62.5996 35.5258 62.2685 35.0014 62.1017L32.9376 61.4269C32.8822 61.4143 32.8315 61.3864 32.7911 61.3464C32.7507 61.3064 32.7222 61.2559 32.7088 61.2005C32.6185 60.9374 32.5149 60.6653 32.3981 60.3843C32.2813 60.1033 32.1633 59.8385 32.0442 59.5898C32.0161 59.5397 32.0004 59.4834 31.9985 59.4259C32.0023 59.369 32.0185 59.3136 32.0459 59.2637L33.0317 57.3216C33.2814 56.8298 33.3698 56.2712 33.284 55.7258C33.1983 55.1804 32.9428 54.6763 32.5543 54.2858L30.7667 52.4895C30.3782 52.099 29.8766 51.8422 29.3338 51.7561C28.791 51.6699 28.2351 51.7587 27.7457 52.0099L25.8105 52.9987C25.7614 53.028 25.706 53.0449 25.6491 53.0481C25.5912 53.0456 25.5348 53.0295 25.4842 53.0013C25.2391 52.8787 24.9761 52.7593 24.6953 52.6431C24.4156 52.5268 24.1446 52.4245 23.883 52.3325ZM23.8356 54.7204C23.625 54.6331 23.3979 54.5463 23.1545 54.4602C22.7731 54.3291 22.4271 54.1109 22.1438 53.8227C21.8618 53.5332 21.6515 53.1811 21.5301 52.7948L20.8577 50.7236C20.8375 50.6482 20.7922 50.5821 20.7294 50.5361C20.6666 50.4902 20.59 50.4673 20.5124 50.4712H17.9859C17.9081 50.4695 17.8316 50.4926 17.7676 50.5371C17.7067 50.5842 17.6622 50.6495 17.6407 50.7236L16.9709 52.7948C16.8484 53.1813 16.6372 53.5334 16.3545 53.8228C16.0717 54.1123 15.7252 54.3309 15.343 54.4611C15.0995 54.5455 14.8725 54.6322 14.6619 54.7213C14.447 54.808 14.2303 54.913 13.9956 55.0257C13.6335 55.2036 13.2352 55.2943 12.8322 55.2907C12.4292 55.2871 12.0325 55.1892 11.6737 55.0049L9.73761 54.0144C9.67121 53.9735 9.5925 53.9578 9.51561 53.97C9.43871 53.9823 9.36869 54.0217 9.31811 54.0812L7.53051 55.8775C7.47367 55.93 7.43547 55.9997 7.42175 56.0761C7.41232 56.1529 7.42679 56.2308 7.46319 56.299L8.44977 58.2463C8.63387 58.607 8.73153 59.006 8.73498 59.4114C8.73842 59.8168 8.64756 60.2174 8.46963 60.5812C8.35742 60.8128 8.25556 61.0357 8.16838 61.2508C8.08121 61.4659 7.99575 61.6888 7.90944 61.9334C7.77887 62.3174 7.56106 62.6654 7.27329 62.95C6.9859 63.2344 6.63574 63.4466 6.25131 63.5693L4.1875 64.2424C4.11404 64.266 4.04938 64.3114 4.00192 64.3725C3.95947 64.4367 3.93749 64.5123 3.93891 64.5893V67.1298C3.93709 67.2072 3.9591 67.2832 4.00192 67.3475C4.04847 67.4094 4.1135 67.4547 4.1875 67.4768L6.25131 68.1507C6.63584 68.2732 6.98641 68.4846 7.27484 68.768C7.56327 69.0513 7.78152 69.3987 7.91203 69.7823C7.99604 70.0269 8.08236 70.2553 8.17097 70.4675C8.25729 70.6808 8.36001 70.9012 8.47222 71.1371C8.64973 71.5006 8.74036 71.9007 8.73691 72.3056C8.73347 72.7105 8.63603 73.109 8.45236 73.4694L7.46578 75.4132C7.42941 75.4821 7.41494 75.5605 7.42434 75.6379C7.43859 75.7143 7.47668 75.7841 7.5331 75.8374L9.3207 77.6328C9.37337 77.6896 9.44256 77.7281 9.51836 77.743C9.59509 77.7518 9.67265 77.7364 9.7402 77.6987L11.6737 76.7073C12.0329 76.5234 12.4298 76.426 12.8329 76.4228C13.2359 76.4186 13.6342 76.5099 13.9956 76.6891C14.226 76.8027 14.447 76.9034 14.6619 76.9927C14.8768 77.082 15.0995 77.1662 15.343 77.2529C15.7253 77.3824 16.072 77.6005 16.3548 77.8897C16.6376 78.1789 16.8487 78.531 16.9709 78.9174L17.6407 80.9904C17.662 81.0641 17.7065 81.1289 17.7676 81.1751C17.8316 81.2197 17.9081 81.2427 17.9859 81.2411H20.5124C20.5903 81.2427 20.6667 81.2197 20.7308 81.1751C20.7916 81.1287 20.836 81.064 20.8577 80.9904L21.5301 78.9156C21.6521 78.5298 21.8629 78.1782 22.1455 77.8896C22.4284 77.6009 22.7741 77.3821 23.1554 77.2503C23.3988 77.167 23.6258 77.0803 23.8364 76.9901C24.0505 76.9034 24.268 76.8001 24.5045 76.6865C24.8664 76.5081 25.2648 76.4171 25.6679 76.4207C26.071 76.4243 26.4677 76.5225 26.8264 76.7073L28.7607 77.6961C28.8271 77.7367 28.9057 77.7524 28.9825 77.7403C29.0593 77.7282 29.1293 77.6892 29.1802 77.6302L30.9678 75.8348C31.0239 75.7813 31.062 75.7115 31.0766 75.6353C31.086 75.5579 31.0715 75.4795 31.0352 75.4106L30.0486 73.4668C29.8649 73.1064 29.7675 72.7079 29.764 72.303C29.7606 71.8981 29.8512 71.498 30.0287 71.1345C30.1409 70.902 30.2428 70.6782 30.33 70.4649C30.4171 70.2515 30.5026 70.0243 30.5889 69.7797C30.718 69.3956 30.9352 69.0476 31.2229 68.7635C31.5107 68.4795 31.8609 68.2675 32.2453 68.1447L34.3091 67.4707C34.3831 67.4491 34.448 67.4037 34.4938 67.3415C34.5381 67.2778 34.5605 67.2014 34.5577 67.1238V64.5859C34.5601 64.5086 34.5377 64.4325 34.4938 64.369C34.4471 64.3076 34.3826 64.2621 34.3091 64.2389L32.2453 63.5658C31.8609 63.4431 31.5107 63.2309 31.2233 62.9465C30.9356 62.6619 30.7178 62.3139 30.5872 61.93C30.5037 61.6854 30.4174 61.4573 30.3282 61.2456C30.2419 61.0322 30.1392 60.8119 30.027 60.576C29.8502 60.2127 29.7601 59.813 29.7638 59.4086C29.7676 59.0042 29.8651 58.6062 30.0486 58.2463L31.0352 56.3025C31.0716 56.2343 31.086 56.1564 31.0766 56.0796C31.0625 56.0033 31.0244 55.9337 30.9678 55.8809L29.1802 54.0829C29.1297 54.0234 29.0596 53.984 28.9827 53.9718C28.9059 53.9595 28.8271 53.9753 28.7607 54.0161L26.8247 55.0066C26.4658 55.1908 26.0691 55.2885 25.6661 55.292C25.2631 55.2954 24.8648 55.2046 24.5028 55.0266C24.2723 54.9138 24.0488 54.8115 23.8364 54.7221L23.8356 54.7204ZM50.5727 6.44788H48.5944V5.59699C48.5942 4.96567 48.3446 4.36025 47.9005 3.91367C47.4564 3.4671 46.8541 3.21589 46.2259 3.2152H45.5285V1.22719C45.5285 0.928136 45.4102 0.641332 45.1998 0.42987C44.9894 0.218408 44.7039 0.0996094 44.4063 0.0996094C44.1087 0.0996094 43.8233 0.218408 43.6129 0.42987C43.4025 0.641332 43.2842 0.928136 43.2842 1.22719V3.2152H38.4911V1.22719C38.4911 0.928136 38.3729 0.641332 38.1625 0.42987C37.952 0.218408 37.6666 0.0996094 37.369 0.0996094C37.0714 0.0996094 36.786 0.218408 36.5756 0.42987C36.3651 0.641332 36.2469 0.928136 36.2469 1.22719V3.2152H31.4564V1.22719C31.4564 0.928136 31.3382 0.641332 31.1277 0.42987C30.9173 0.218408 30.6319 0.0996094 30.3343 0.0996094C30.0367 0.0996094 29.7513 0.218408 29.5408 0.42987C29.3304 0.641332 29.2122 0.928136 29.2122 1.22719V3.2152H28.513C27.8852 3.21612 27.2835 3.46754 26.8402 3.91419C26.3968 4.36084 26.1481 4.96614 26.1488 5.59699V6.45135H24.1687C24.0214 6.45135 23.8755 6.48051 23.7393 6.53718C23.6032 6.59385 23.4795 6.6769 23.3753 6.78161C23.2711 6.88631 23.1884 7.01062 23.1321 7.14742C23.0757 7.28423 23.0466 7.43085 23.0466 7.57893C23.0466 7.727 23.0757 7.87363 23.1321 8.01043C23.1884 8.14724 23.2711 8.27154 23.3753 8.37625C23.4795 8.48095 23.6032 8.56401 23.7393 8.62068C23.8755 8.67734 24.0214 8.70651 24.1687 8.70651H26.1488V21.3527H11.6012C11.3224 19.9281 10.5259 18.6587 9.36673 17.7919C8.2076 16.925 6.76887 16.5228 5.33077 16.6635C3.89268 16.8042 2.55821 17.4778 1.58728 18.5531C0.616363 19.6284 0.0785217 21.0284 0.0785217 22.4803C0.0785217 23.9323 0.616363 25.3322 1.58728 26.4075C2.55821 27.4828 3.89268 28.1564 5.33077 28.2971C6.76887 28.4379 8.2076 28.0356 9.36673 27.1688C10.5259 26.3019 11.3224 25.0326 11.6012 23.6079H26.1583C26.2131 24.1984 26.485 24.7472 26.9209 25.1471C27.3568 25.5469 27.9254 25.7691 28.5156 25.7702H30.0978V34.3277H25.1588C24.88 32.903 24.0835 31.6337 22.9244 30.7668C21.7652 29.9 20.3265 29.4977 18.8884 29.6385C17.4503 29.7792 16.1158 30.4528 15.1449 31.5281C14.174 32.6034 13.6361 34.0033 13.6361 35.4553C13.6361 36.9072 14.174 38.3072 15.1449 39.3825C16.1158 40.4578 17.4503 41.1314 18.8884 41.2721C20.3265 41.4128 21.7652 41.0106 22.9244 40.1437C24.0835 39.2769 24.88 38.0075 25.1588 36.5829H31.2182C31.5158 36.5829 31.8012 36.4641 32.0116 36.2526C32.222 36.0411 32.3403 35.7543 32.3403 35.4553V25.7694H36.2504V36.8856C34.8331 37.1657 33.5703 37.9659 32.708 39.1304C31.8457 40.2948 31.4456 41.7401 31.5856 43.1848C31.7257 44.6294 32.3958 45.97 33.4656 46.9453C34.5353 47.9206 35.928 48.4609 37.3725 48.4609C38.8169 48.4609 40.2096 47.9206 41.2794 46.9453C42.3491 45.97 43.0193 44.6294 43.1593 43.1848C43.2994 41.7401 42.8993 40.2948 42.0369 39.1304C41.1746 37.9659 39.9119 37.1657 38.4946 36.8856V25.7694H42.4021V35.4527C42.4021 35.7517 42.5203 36.0385 42.7308 36.25C42.9412 36.4615 43.2266 36.5803 43.5242 36.5803H49.5844C49.8632 38.0056 50.66 39.2757 51.8196 40.143C52.9793 41.0103 54.4187 41.4128 55.8575 41.2721C57.2962 41.1314 58.6314 40.4575 59.6028 39.3817C60.5742 38.3059 61.1123 36.9053 61.1123 35.4527C61.1123 34 60.5742 32.5994 59.6028 31.5236C58.6314 30.4479 57.2962 29.774 55.8575 29.6333C54.4187 29.4925 52.9793 29.895 51.8196 30.7624C50.66 31.6297 49.8632 32.8997 49.5844 34.3251H44.6463V25.7694H46.2259C46.8161 25.7683 47.3847 25.5461 47.8206 25.1462C48.2565 24.7464 48.5284 24.1976 48.5832 23.607H63.1403C63.4191 25.0324 64.2159 26.3024 65.3755 27.1698C66.5352 28.0371 67.9746 28.4396 69.4134 28.2989C70.8521 28.1581 72.1873 27.4843 73.1587 26.4085C74.1301 25.3327 74.6682 23.9321 74.6682 22.4795C74.6682 21.0268 74.1301 19.6262 73.1587 18.5504C72.1873 17.4746 70.8521 16.8008 69.4134 16.66C67.9746 16.5193 66.5352 16.9218 65.3755 17.7891C64.2159 18.6565 63.4191 19.9265 63.1403 21.3519H48.5944V8.69957H50.5727C50.8703 8.69957 51.1558 8.58077 51.3662 8.36931C51.5766 8.15785 51.6949 7.87104 51.6949 7.57199C51.6949 7.27294 51.5766 6.98613 51.3662 6.77467C51.1558 6.56321 50.8703 6.44441 50.5727 6.44441V6.44788ZM33.9647 11.0692H40.7768V17.9136H33.9647V11.0692ZM31.7205 18.4791V10.5054C31.7207 10.0579 31.8976 9.62876 32.2124 9.31216C32.5271 8.99555 32.954 8.81735 33.3994 8.81666H41.3404C41.7858 8.81758 42.2128 8.9958 42.5277 9.3123C42.8427 9.62881 43.0201 10.0578 43.021 10.5054V18.4791C43.0203 18.9271 42.8429 19.3564 42.5277 19.6731C42.2126 19.9899 41.7853 20.1681 41.3395 20.1688H33.3985C32.9534 20.1681 32.5268 19.9901 32.2121 19.6739C31.8974 19.3577 31.7203 18.929 31.7196 18.4818L31.7205 18.4791ZM33.7921 42.6241C33.7913 43.4564 34.0779 44.2632 34.6028 44.907C35.1277 45.5508 35.8586 45.9917 36.6708 46.1547C37.483 46.3176 38.3263 46.1925 39.057 45.8006C39.7877 45.4087 40.3606 44.7743 40.6779 44.0055C40.9953 43.2368 41.0375 42.3812 40.7974 41.5846C40.5573 40.7881 40.0498 40.0998 39.3612 39.6372C38.6727 39.1746 37.8458 38.9662 37.0216 39.0476C36.1973 39.129 35.4266 39.4951 34.8408 40.0836C34.508 40.4166 34.2439 40.8126 34.064 41.2486C33.884 41.6846 33.7916 42.152 33.7921 42.6241ZM57.8215 37.9949C58.406 37.4069 58.7695 36.6335 58.8501 35.8064C58.9307 34.9793 58.7235 34.1496 58.2637 33.4588C57.8039 32.768 57.12 32.2588 56.3285 32.0178C55.537 31.7769 54.6868 31.8191 53.9228 32.1374C53.1588 32.4556 52.5283 33.0302 52.1386 33.7632C51.7488 34.4962 51.6241 35.3423 51.7855 36.1574C51.9469 36.9725 52.3845 37.7061 53.0239 38.2333C53.6632 38.7605 54.4646 39.0487 55.2916 39.0488C55.7616 39.0493 56.2271 38.9565 56.6613 38.7756C57.0954 38.5947 57.4897 38.3294 57.8215 37.9949ZM15.8721 35.4527C15.8723 34.6209 16.1595 33.8149 16.6848 33.1721C17.2101 32.5292 17.941 32.0893 18.7529 31.9273C19.5648 31.7652 20.4075 31.8911 21.1374 32.2834C21.8673 32.6757 22.4392 33.3102 22.7557 34.0788C23.0723 34.8474 23.1138 35.7025 22.8733 36.4984C22.6327 37.2943 22.125 37.9817 21.4366 38.4436C20.7482 38.9055 19.9217 39.1132 19.0979 39.0314C18.2742 38.9496 17.5042 38.5833 16.9191 37.9949C16.5866 37.6614 16.3229 37.265 16.1432 36.8288C15.9635 36.3925 15.8714 35.9248 15.8721 35.4527ZM65.2758 22.4803C65.2756 21.6485 65.5624 20.8424 66.0875 20.1993C66.6125 19.5562 67.3432 19.1159 68.155 18.9535C68.9669 18.7911 69.8096 18.9166 70.5397 19.3086C71.2698 19.7006 71.842 20.3349 72.1589 21.1033C72.4757 21.8718 72.5176 22.7269 72.2774 23.5229C72.0371 24.3189 71.5297 25.0066 70.8414 25.4688C70.1532 25.9309 69.3267 26.139 68.5029 26.0575C67.6791 25.9759 66.909 25.6099 66.3237 25.0217C65.9913 24.6881 65.7277 24.292 65.5479 23.8559C65.3681 23.4198 65.2756 22.9524 65.2758 22.4803ZM2.31531 22.4803C2.31689 21.6491 2.60518 20.8442 3.13106 20.2026C3.65695 19.561 4.38792 19.1224 5.19947 18.9616C6.01101 18.8007 6.85295 18.9276 7.58186 19.3205C8.31078 19.7135 8.8816 20.3482 9.19709 21.1166C9.51259 21.8849 9.55326 22.7395 9.31216 23.5346C9.07106 24.3297 8.56312 25.0162 7.87484 25.4773C7.18656 25.9383 6.36051 26.1453 5.5374 26.063C4.71428 25.9808 3.94501 25.6143 3.3606 25.026C3.02821 24.6925 2.76462 24.2964 2.58495 23.8602C2.40527 23.4241 2.31306 22.9567 2.31359 22.4847L2.31531 22.4803ZM28.3904 5.59699C28.3913 5.56419 28.4049 5.53303 28.4284 5.51025C28.4395 5.49828 28.4528 5.48866 28.4677 5.48196C28.4825 5.47526 28.4985 5.47161 28.5147 5.47122H46.2259C46.2421 5.47161 46.2581 5.47526 46.273 5.48196C46.2878 5.48866 46.3011 5.49828 46.3122 5.51025C46.3357 5.53303 46.3493 5.56419 46.3502 5.59699V23.3893C46.3495 23.4226 46.3362 23.4543 46.3128 23.4778C46.2895 23.5014 46.2581 23.5151 46.225 23.516H28.5156C28.4825 23.5151 28.4511 23.5014 28.4278 23.4778C28.4045 23.4543 28.3911 23.4226 28.3904 23.3893V5.59699ZM54.3068 77.2416L68.3831 63.0914L65.3138 60.0061C65.228 59.9221 65.1129 59.875 64.9931 59.875C64.8733 59.875 64.7582 59.9221 64.6724 60.0061L51.2374 73.5119C51.1532 73.5981 51.1061 73.7139 51.1061 73.8346C51.1061 73.9553 51.1532 74.0712 51.2374 74.1573L54.3068 77.2416ZM69.9714 64.683L55.8907 78.8324L58.9609 81.9167C59.0468 82.0013 59.1622 82.0487 59.2824 82.0487C59.4027 82.0487 59.5181 82.0013 59.604 81.9167L73.0442 68.4136C73.1281 68.3273 73.1749 68.2115 73.1745 68.0909C73.1751 68.031 73.1639 67.9716 73.1415 67.9161C73.1191 67.8605 73.0861 67.81 73.0442 67.7674L69.9714 64.683ZM6.58104 50.4018C6.61376 50.6876 6.53651 50.9752 6.36512 51.2056C6.19373 51.4361 5.94115 51.592 5.65909 51.6414C5.37704 51.6909 5.08685 51.6301 4.84794 51.4716C4.60902 51.313 4.43945 51.0687 4.37394 50.7886C3.15147 43.848 4.19072 36.6963 7.33716 30.3968C7.47442 30.1375 7.70725 29.9426 7.98579 29.8538C8.26432 29.7649 8.5664 29.7892 8.82732 29.9215C9.08825 30.0537 9.28726 30.2833 9.38174 30.5612C9.47622 30.8391 9.45865 31.1431 9.33279 31.4081C6.40477 37.2772 5.4397 43.9391 6.58104 50.4035V50.4018Z" fill="black"/>
</svg>
