<svg width="88" height="88" viewBox="0 0 88 88" fill="none" xmlns="http://www.w3.org/2000/svg">
<mask id="path-1-inside-1_4_624" fill="white">
<path d="M67.8276 47.9696V15.9289C67.8276 12.192 64.7895 9.15399 61.0527 9.15399H52.3408C52.3408 7.55344 51.0398 6.249 49.4358 6.249H44.5077C44.0452 3.50706 41.6593 1.40741 38.7877 1.40741C35.916 1.40741 33.5301 3.50373 33.0676 6.249H28.1395C26.539 6.249 25.2345 7.55004 25.2345 9.15399H16.5226C12.7858 9.15399 9.74774 12.192 9.74774 15.9289V75.9445C9.74774 79.6813 12.7858 82.7193 16.5226 82.7193H54.2733C54.2866 82.7193 54.3 82.7127 54.3133 82.7127C57.5477 85.1385 61.5474 86.5926 65.8899 86.5926C76.5645 86.5926 85.25 77.908 85.25 67.2326C85.25 57.2097 77.5972 48.9441 67.8276 47.9696ZM61.0527 11.0869C63.7214 11.0869 65.8943 13.2598 65.8943 15.9285V47.873C64.906 47.873 63.941 47.9728 62.9893 48.1159V16.8972C62.9893 15.2967 61.6883 13.9922 60.0843 13.9922H52.3412V11.0872L61.0527 11.0869ZM28.1397 19.7988H49.436C51.0366 19.7988 52.341 18.4978 52.341 16.8938V15.9255H60.0842C60.6166 15.9255 61.0525 16.3615 61.0525 16.8938V48.5087C52.7169 50.6649 46.5309 58.2317 46.5309 67.2324C46.5309 70.367 47.2963 73.3218 48.6273 75.9443H17.4912C16.9588 75.9443 16.5229 75.5084 16.5229 74.976V16.8967C16.5229 16.3642 16.9588 15.9284 17.4912 15.9284H25.2343V16.8967C25.2343 18.4972 26.5354 19.8016 28.1393 19.8016L28.1397 19.7988ZM38.7878 3.34444C40.5881 3.34444 42.1054 4.57894 42.538 6.24943H35.0376C35.4702 4.58235 36.9877 3.34444 38.7878 3.34444ZM27.1711 9.15101C27.1711 8.6186 27.607 8.18271 28.1394 8.18271H49.4357C49.9682 8.18271 50.4041 8.61862 50.4041 9.15101V16.8942C50.4041 17.4266 49.9681 17.8625 49.4357 17.8625H28.1394C27.607 17.8625 27.1711 17.4266 27.1711 16.8942V9.15101ZM11.681 75.9448V15.9292C11.681 13.2605 13.8539 11.0876 16.5226 11.0876H25.2345V13.9926H17.4913C15.8908 13.9926 14.5864 15.2936 14.5864 16.8976V74.9803C14.5864 76.5809 15.8874 77.8853 17.4913 77.8853H49.7382C50.427 78.9269 51.2157 79.9018 52.0875 80.7903L16.5226 80.787C13.8539 80.787 11.681 78.6135 11.681 75.9448ZM65.8904 84.6567C56.284 84.6567 48.4674 76.8403 48.4674 67.2338C48.4674 57.6274 56.2839 49.8108 65.8904 49.8108C75.4969 49.8108 83.3133 57.6272 83.3133 67.2338C83.3133 76.8401 75.4969 84.6567 65.8904 84.6567ZM76.1825 57.0013C76.1725 56.9913 76.1692 56.9747 76.1592 56.9647C76.1492 56.9547 76.1326 56.9514 76.1226 56.9414C73.4972 54.3293 69.8801 52.7121 65.8901 52.7121C61.9037 52.7121 58.2867 54.3293 55.6577 56.9414C55.6477 56.9514 55.6311 56.9547 55.6211 56.9647C55.6111 56.9747 55.6078 56.9913 55.5978 57.0013C52.9857 59.6267 51.3685 63.2438 51.3685 67.2338C51.3685 71.2202 52.9857 74.8372 55.5978 77.4662C55.6078 77.4762 55.6111 77.4928 55.6211 77.5028C55.6311 77.5128 55.6477 77.5161 55.6577 77.5261C58.2831 80.1382 61.9001 81.7554 65.8901 81.7554C69.8765 81.7554 73.4936 80.1382 76.1226 77.5261C76.1326 77.5161 76.1492 77.5128 76.1592 77.5028C76.1692 77.4928 76.1725 77.4762 76.1825 77.4662C78.7946 74.8408 80.4118 71.2238 80.4118 67.2338C80.4118 63.2473 78.7946 59.6303 76.1825 57.0013ZM77.5069 68.2015H78.4252C78.2156 70.9434 77.1275 73.439 75.4371 75.4122L74.7882 74.7634C74.4089 74.384 73.7966 74.384 73.4206 74.7634C73.0413 75.1427 73.0413 75.755 73.4206 76.131L74.0695 76.7799C72.0996 78.4703 69.6039 79.5584 66.8587 79.768V78.8496C66.8587 78.3139 66.4261 77.8813 65.8904 77.8813C65.3547 77.8813 64.9221 78.3139 64.9221 78.8496V79.768C62.1802 79.5584 59.6846 78.4703 57.7113 76.7799L58.3602 76.131C58.7395 75.7517 58.7395 75.1394 58.3602 74.7634C57.9809 74.384 57.3686 74.384 56.9926 74.7634L56.3437 75.4122C54.6533 73.4423 53.5652 70.9466 53.3556 68.2015H55.2422C55.778 68.2015 56.2105 67.7689 56.2105 67.2332C56.2105 66.6974 55.778 66.2649 55.2422 66.2649H53.3556C53.5652 63.5229 54.6533 61.0273 56.3437 59.0541L56.9926 59.703C57.1822 59.8926 57.4285 59.9858 57.678 59.9858C57.9243 59.9858 58.1738 59.8926 58.3635 59.703C58.7428 59.3236 58.7428 58.7113 58.3635 58.3353L57.7146 57.6864C59.6845 55.996 62.1802 54.908 64.9254 54.6983V55.6167C64.9254 56.1524 65.358 56.585 65.8937 56.585C66.4294 56.585 66.862 56.1524 66.862 55.6167V54.6983C69.6039 54.9079 72.0995 55.996 74.0728 57.6864L73.4239 58.3353C73.0446 58.7147 73.0446 59.327 73.4239 59.703C73.6136 59.8926 73.8598 59.9858 74.1094 59.9858C74.3556 59.9858 74.6052 59.8926 74.7949 59.703L75.4437 59.0541C77.1341 61.024 78.2222 63.5197 78.4319 66.2649H77.5135C76.9777 66.2649 76.5452 66.6974 76.5452 67.2332C76.5452 67.7689 76.9778 68.2015 77.5135 68.2015H77.5069ZM41.6924 44.0003H55.2454C56.8459 44.0003 58.1504 42.6993 58.1504 41.0953V25.6052C58.1504 24.0047 56.8493 22.7002 55.2454 22.7002H41.6924C40.0919 22.7002 38.7874 24.0013 38.7874 25.6052V41.0953C38.7874 42.6959 40.0884 44.0003 41.6924 44.0003ZM45.5624 32.3836C45.5624 30.7831 46.8634 29.4786 48.4674 29.4786C50.0679 29.4786 51.3724 30.7796 51.3724 32.3836C51.3724 33.9841 50.0713 35.2886 48.4674 35.2886C46.8668 35.2886 45.5624 33.9876 45.5624 32.3836ZM42.7473 42.0632C43.2098 39.3213 45.5957 37.2216 48.4673 37.2216C51.339 37.2216 53.7248 39.3179 54.1873 42.0632H42.7473ZM40.7241 25.6088C40.7241 25.0764 41.16 24.6405 41.6924 24.6405H55.2454C55.7778 24.6405 56.2137 25.0764 56.2137 25.6088V41.0989C56.2137 41.2753 56.1538 41.4317 56.0706 41.5747C55.5914 39.0824 53.9177 37.016 51.6682 35.9911C52.6665 35.1026 53.3087 33.8248 53.3087 32.3873C53.3087 29.7187 51.1358 27.5457 48.4671 27.5457C45.7984 27.5457 43.6255 29.7187 43.6255 32.3873C43.6255 33.8248 44.2678 35.1026 45.266 35.9911C43.0166 37.016 41.3428 39.0824 40.8637 41.5747C40.7805 41.4317 40.7206 41.2753 40.7206 41.0989V25.6088H40.7241ZM21.3615 65.2966V70.1382H43.6264C44.1621 70.1382 44.5947 70.5708 44.5947 71.1065C44.5947 71.6423 44.1621 72.0748 43.6264 72.0748H20.3938C19.858 72.0748 19.4255 71.6423 19.4255 71.1065V53.6836C19.4255 53.1478 19.8581 52.7153 20.3938 52.7153C20.9295 52.7153 21.3621 53.1479 21.3621 53.6836V63.3632H22.6997L26.3035 56.1558C26.6329 55.5002 27.7077 55.5002 28.0338 56.1558L31.8272 63.7459L33.0251 60.1555C33.1582 59.7596 33.5275 59.4934 33.9434 59.4934H43.623C44.1588 59.4934 44.5913 59.9259 44.5913 60.4617C44.5913 60.9974 44.1588 61.43 43.623 61.43H34.642L32.9283 66.5777C32.8052 66.9504 32.4691 67.21 32.0798 67.2366C32.0565 67.2366 32.0332 67.2399 32.0099 67.2399C31.6438 67.2399 31.3078 67.0336 31.1447 66.7042L27.1716 58.7547L24.1669 64.7676C24.0038 65.097 23.6677 65.3033 23.3017 65.3033H21.3651L21.3615 65.2966ZM66.859 59.4901V67.2333C66.859 67.4895 66.7558 67.7357 66.5761 67.9187L62.7028 71.792C62.5132 71.9817 62.2669 72.0749 62.0173 72.0749C61.7711 72.0749 61.5215 71.9817 61.3319 71.792C60.9525 71.4127 60.9525 70.8004 61.3319 70.4244L64.9189 66.8373V59.4934C64.9189 58.9576 65.3515 58.5251 65.8872 58.5251C66.423 58.5251 66.8555 58.9577 66.8555 59.4934L66.859 59.4901ZM19.4278 24.6408V29.4824C19.4278 30.0181 19.8604 30.4507 20.3961 30.4507H34.9176C35.4534 30.4507 35.8859 30.0181 35.8859 29.4824V24.6408C35.8859 24.105 35.4533 23.6725 34.9176 23.6725H20.3961C19.8603 23.6725 19.4278 24.105 19.4278 24.6408ZM21.3611 25.6091H33.9455V28.5141H21.3611V25.6091ZM19.4278 34.321C19.4278 33.7852 19.8604 33.3527 20.3961 33.3527H29.108C29.6437 33.3527 30.0763 33.7852 30.0763 34.321C30.0763 34.8567 29.6437 35.2893 29.108 35.2893H20.3961C19.8603 35.2893 19.4278 34.8567 19.4278 34.321ZM32.0096 34.321C32.0096 33.7852 32.4422 33.3527 32.9779 33.3527H34.9146C35.4503 33.3527 35.8829 33.7852 35.8829 34.321C35.8829 34.8567 35.4503 35.2893 34.9146 35.2893H32.9779C32.4422 35.2893 32.0096 34.8567 32.0096 34.321ZM19.4278 38.1943C19.4278 37.6585 19.8604 37.226 20.3961 37.226H29.108C29.6437 37.226 30.0763 37.6585 30.0763 38.1943C30.0763 38.73 29.6437 39.1626 29.108 39.1626H20.3961C19.8603 39.1626 19.4278 38.73 19.4278 38.1943ZM32.0096 38.1943C32.0096 37.6585 32.4422 37.226 32.9779 37.226H34.9146C35.4503 37.226 35.8829 37.6585 35.8829 38.1943C35.8829 38.73 35.4503 39.1626 34.9146 39.1626H32.9779C32.4422 39.1626 32.0096 38.73 32.0096 38.1943ZM19.4278 42.0642C19.4278 41.5285 19.8604 41.0959 20.3961 41.0959H29.108C29.6437 41.0959 30.0763 41.5285 30.0763 42.0642C30.0763 42.6 29.6437 43.0325 29.108 43.0325H20.3961C19.8603 43.0325 19.4278 42.5999 19.4278 42.0642ZM32.0096 42.0642C32.0096 41.5285 32.4422 41.0959 32.9779 41.0959H34.9146C35.4503 41.0959 35.8829 41.5285 35.8829 42.0642C35.8829 42.6 35.4503 43.0325 34.9146 43.0325H32.9779C32.4422 43.0325 32.0096 42.5999 32.0096 42.0642ZM19.4278 45.9375C19.4278 45.4018 19.8604 44.9692 20.3961 44.9692H29.108C29.6437 44.9692 30.0763 45.4018 30.0763 45.9375C30.0763 46.4733 29.6437 46.9058 29.108 46.9058H20.3961C19.8603 46.9058 19.4278 46.4732 19.4278 45.9375ZM32.0096 45.9375C32.0096 45.4018 32.4422 44.9692 32.9779 44.9692H34.9146C35.4503 44.9692 35.8829 45.4018 35.8829 45.9375C35.8829 46.4733 35.4503 46.9058 34.9146 46.9058H32.9779C32.4422 46.9058 32.0096 46.4732 32.0096 45.9375ZM44.6145 54.6494C44.6145 55.1852 44.1819 55.6177 43.6462 55.6177C43.1105 55.6177 42.6746 55.1851 42.6746 54.6494C42.6746 54.1137 43.1038 53.6811 43.6362 53.6811H43.6462C44.182 53.6811 44.6145 54.1137 44.6145 54.6494ZM39.7762 55.6177C39.2405 55.6177 38.8046 55.1851 38.8046 54.6494C38.8046 54.1137 39.2339 53.6811 39.7663 53.6811H39.7763C40.312 53.6811 40.7446 54.1137 40.7446 54.6494C40.7446 55.1851 40.312 55.6177 39.7762 55.6177Z"/>
</mask>
<path d="M67.8276 47.9696V15.9289C67.8276 12.192 64.7895 9.15399 61.0527 9.15399H52.3408C52.3408 7.55344 51.0398 6.249 49.4358 6.249H44.5077C44.0452 3.50706 41.6593 1.40741 38.7877 1.40741C35.916 1.40741 33.5301 3.50373 33.0676 6.249H28.1395C26.539 6.249 25.2345 7.55004 25.2345 9.15399H16.5226C12.7858 9.15399 9.74774 12.192 9.74774 15.9289V75.9445C9.74774 79.6813 12.7858 82.7193 16.5226 82.7193H54.2733C54.2866 82.7193 54.3 82.7127 54.3133 82.7127C57.5477 85.1385 61.5474 86.5926 65.8899 86.5926C76.5645 86.5926 85.25 77.908 85.25 67.2326C85.25 57.2097 77.5972 48.9441 67.8276 47.9696ZM61.0527 11.0869C63.7214 11.0869 65.8943 13.2598 65.8943 15.9285V47.873C64.906 47.873 63.941 47.9728 62.9893 48.1159V16.8972C62.9893 15.2967 61.6883 13.9922 60.0843 13.9922H52.3412V11.0872L61.0527 11.0869ZM28.1397 19.7988H49.436C51.0366 19.7988 52.341 18.4978 52.341 16.8938V15.9255H60.0842C60.6166 15.9255 61.0525 16.3615 61.0525 16.8938V48.5087C52.7169 50.6649 46.5309 58.2317 46.5309 67.2324C46.5309 70.367 47.2963 73.3218 48.6273 75.9443H17.4912C16.9588 75.9443 16.5229 75.5084 16.5229 74.976V16.8967C16.5229 16.3642 16.9588 15.9284 17.4912 15.9284H25.2343V16.8967C25.2343 18.4972 26.5354 19.8016 28.1393 19.8016L28.1397 19.7988ZM38.7878 3.34444C40.5881 3.34444 42.1054 4.57894 42.538 6.24943H35.0376C35.4702 4.58235 36.9877 3.34444 38.7878 3.34444ZM27.1711 9.15101C27.1711 8.6186 27.607 8.18271 28.1394 8.18271H49.4357C49.9682 8.18271 50.4041 8.61862 50.4041 9.15101V16.8942C50.4041 17.4266 49.9681 17.8625 49.4357 17.8625H28.1394C27.607 17.8625 27.1711 17.4266 27.1711 16.8942V9.15101ZM11.681 75.9448V15.9292C11.681 13.2605 13.8539 11.0876 16.5226 11.0876H25.2345V13.9926H17.4913C15.8908 13.9926 14.5864 15.2936 14.5864 16.8976V74.9803C14.5864 76.5809 15.8874 77.8853 17.4913 77.8853H49.7382C50.427 78.9269 51.2157 79.9018 52.0875 80.7903L16.5226 80.787C13.8539 80.787 11.681 78.6135 11.681 75.9448ZM65.8904 84.6567C56.284 84.6567 48.4674 76.8403 48.4674 67.2338C48.4674 57.6274 56.2839 49.8108 65.8904 49.8108C75.4969 49.8108 83.3133 57.6272 83.3133 67.2338C83.3133 76.8401 75.4969 84.6567 65.8904 84.6567ZM76.1825 57.0013C76.1725 56.9913 76.1692 56.9747 76.1592 56.9647C76.1492 56.9547 76.1326 56.9514 76.1226 56.9414C73.4972 54.3293 69.8801 52.7121 65.8901 52.7121C61.9037 52.7121 58.2867 54.3293 55.6577 56.9414C55.6477 56.9514 55.6311 56.9547 55.6211 56.9647C55.6111 56.9747 55.6078 56.9913 55.5978 57.0013C52.9857 59.6267 51.3685 63.2438 51.3685 67.2338C51.3685 71.2202 52.9857 74.8372 55.5978 77.4662C55.6078 77.4762 55.6111 77.4928 55.6211 77.5028C55.6311 77.5128 55.6477 77.5161 55.6577 77.5261C58.2831 80.1382 61.9001 81.7554 65.8901 81.7554C69.8765 81.7554 73.4936 80.1382 76.1226 77.5261C76.1326 77.5161 76.1492 77.5128 76.1592 77.5028C76.1692 77.4928 76.1725 77.4762 76.1825 77.4662C78.7946 74.8408 80.4118 71.2238 80.4118 67.2338C80.4118 63.2473 78.7946 59.6303 76.1825 57.0013ZM77.5069 68.2015H78.4252C78.2156 70.9434 77.1275 73.439 75.4371 75.4122L74.7882 74.7634C74.4089 74.384 73.7966 74.384 73.4206 74.7634C73.0413 75.1427 73.0413 75.755 73.4206 76.131L74.0695 76.7799C72.0996 78.4703 69.6039 79.5584 66.8587 79.768V78.8496C66.8587 78.3139 66.4261 77.8813 65.8904 77.8813C65.3547 77.8813 64.9221 78.3139 64.9221 78.8496V79.768C62.1802 79.5584 59.6846 78.4703 57.7113 76.7799L58.3602 76.131C58.7395 75.7517 58.7395 75.1394 58.3602 74.7634C57.9809 74.384 57.3686 74.384 56.9926 74.7634L56.3437 75.4122C54.6533 73.4423 53.5652 70.9466 53.3556 68.2015H55.2422C55.778 68.2015 56.2105 67.7689 56.2105 67.2332C56.2105 66.6974 55.778 66.2649 55.2422 66.2649H53.3556C53.5652 63.5229 54.6533 61.0273 56.3437 59.0541L56.9926 59.703C57.1822 59.8926 57.4285 59.9858 57.678 59.9858C57.9243 59.9858 58.1738 59.8926 58.3635 59.703C58.7428 59.3236 58.7428 58.7113 58.3635 58.3353L57.7146 57.6864C59.6845 55.996 62.1802 54.908 64.9254 54.6983V55.6167C64.9254 56.1524 65.358 56.585 65.8937 56.585C66.4294 56.585 66.862 56.1524 66.862 55.6167V54.6983C69.6039 54.9079 72.0995 55.996 74.0728 57.6864L73.4239 58.3353C73.0446 58.7147 73.0446 59.327 73.4239 59.703C73.6136 59.8926 73.8598 59.9858 74.1094 59.9858C74.3556 59.9858 74.6052 59.8926 74.7949 59.703L75.4437 59.0541C77.1341 61.024 78.2222 63.5197 78.4319 66.2649H77.5135C76.9777 66.2649 76.5452 66.6974 76.5452 67.2332C76.5452 67.7689 76.9778 68.2015 77.5135 68.2015H77.5069ZM41.6924 44.0003H55.2454C56.8459 44.0003 58.1504 42.6993 58.1504 41.0953V25.6052C58.1504 24.0047 56.8493 22.7002 55.2454 22.7002H41.6924C40.0919 22.7002 38.7874 24.0013 38.7874 25.6052V41.0953C38.7874 42.6959 40.0884 44.0003 41.6924 44.0003ZM45.5624 32.3836C45.5624 30.7831 46.8634 29.4786 48.4674 29.4786C50.0679 29.4786 51.3724 30.7796 51.3724 32.3836C51.3724 33.9841 50.0713 35.2886 48.4674 35.2886C46.8668 35.2886 45.5624 33.9876 45.5624 32.3836ZM42.7473 42.0632C43.2098 39.3213 45.5957 37.2216 48.4673 37.2216C51.339 37.2216 53.7248 39.3179 54.1873 42.0632H42.7473ZM40.7241 25.6088C40.7241 25.0764 41.16 24.6405 41.6924 24.6405H55.2454C55.7778 24.6405 56.2137 25.0764 56.2137 25.6088V41.0989C56.2137 41.2753 56.1538 41.4317 56.0706 41.5747C55.5914 39.0824 53.9177 37.016 51.6682 35.9911C52.6665 35.1026 53.3087 33.8248 53.3087 32.3873C53.3087 29.7187 51.1358 27.5457 48.4671 27.5457C45.7984 27.5457 43.6255 29.7187 43.6255 32.3873C43.6255 33.8248 44.2678 35.1026 45.266 35.9911C43.0166 37.016 41.3428 39.0824 40.8637 41.5747C40.7805 41.4317 40.7206 41.2753 40.7206 41.0989V25.6088H40.7241ZM21.3615 65.2966V70.1382H43.6264C44.1621 70.1382 44.5947 70.5708 44.5947 71.1065C44.5947 71.6423 44.1621 72.0748 43.6264 72.0748H20.3938C19.858 72.0748 19.4255 71.6423 19.4255 71.1065V53.6836C19.4255 53.1478 19.8581 52.7153 20.3938 52.7153C20.9295 52.7153 21.3621 53.1479 21.3621 53.6836V63.3632H22.6997L26.3035 56.1558C26.6329 55.5002 27.7077 55.5002 28.0338 56.1558L31.8272 63.7459L33.0251 60.1555C33.1582 59.7596 33.5275 59.4934 33.9434 59.4934H43.623C44.1588 59.4934 44.5913 59.9259 44.5913 60.4617C44.5913 60.9974 44.1588 61.43 43.623 61.43H34.642L32.9283 66.5777C32.8052 66.9504 32.4691 67.21 32.0798 67.2366C32.0565 67.2366 32.0332 67.2399 32.0099 67.2399C31.6438 67.2399 31.3078 67.0336 31.1447 66.7042L27.1716 58.7547L24.1669 64.7676C24.0038 65.097 23.6677 65.3033 23.3017 65.3033H21.3651L21.3615 65.2966ZM66.859 59.4901V67.2333C66.859 67.4895 66.7558 67.7357 66.5761 67.9187L62.7028 71.792C62.5132 71.9817 62.2669 72.0749 62.0173 72.0749C61.7711 72.0749 61.5215 71.9817 61.3319 71.792C60.9525 71.4127 60.9525 70.8004 61.3319 70.4244L64.9189 66.8373V59.4934C64.9189 58.9576 65.3515 58.5251 65.8872 58.5251C66.423 58.5251 66.8555 58.9577 66.8555 59.4934L66.859 59.4901ZM19.4278 24.6408V29.4824C19.4278 30.0181 19.8604 30.4507 20.3961 30.4507H34.9176C35.4534 30.4507 35.8859 30.0181 35.8859 29.4824V24.6408C35.8859 24.105 35.4533 23.6725 34.9176 23.6725H20.3961C19.8603 23.6725 19.4278 24.105 19.4278 24.6408ZM21.3611 25.6091H33.9455V28.5141H21.3611V25.6091ZM19.4278 34.321C19.4278 33.7852 19.8604 33.3527 20.3961 33.3527H29.108C29.6437 33.3527 30.0763 33.7852 30.0763 34.321C30.0763 34.8567 29.6437 35.2893 29.108 35.2893H20.3961C19.8603 35.2893 19.4278 34.8567 19.4278 34.321ZM32.0096 34.321C32.0096 33.7852 32.4422 33.3527 32.9779 33.3527H34.9146C35.4503 33.3527 35.8829 33.7852 35.8829 34.321C35.8829 34.8567 35.4503 35.2893 34.9146 35.2893H32.9779C32.4422 35.2893 32.0096 34.8567 32.0096 34.321ZM19.4278 38.1943C19.4278 37.6585 19.8604 37.226 20.3961 37.226H29.108C29.6437 37.226 30.0763 37.6585 30.0763 38.1943C30.0763 38.73 29.6437 39.1626 29.108 39.1626H20.3961C19.8603 39.1626 19.4278 38.73 19.4278 38.1943ZM32.0096 38.1943C32.0096 37.6585 32.4422 37.226 32.9779 37.226H34.9146C35.4503 37.226 35.8829 37.6585 35.8829 38.1943C35.8829 38.73 35.4503 39.1626 34.9146 39.1626H32.9779C32.4422 39.1626 32.0096 38.73 32.0096 38.1943ZM19.4278 42.0642C19.4278 41.5285 19.8604 41.0959 20.3961 41.0959H29.108C29.6437 41.0959 30.0763 41.5285 30.0763 42.0642C30.0763 42.6 29.6437 43.0325 29.108 43.0325H20.3961C19.8603 43.0325 19.4278 42.5999 19.4278 42.0642ZM32.0096 42.0642C32.0096 41.5285 32.4422 41.0959 32.9779 41.0959H34.9146C35.4503 41.0959 35.8829 41.5285 35.8829 42.0642C35.8829 42.6 35.4503 43.0325 34.9146 43.0325H32.9779C32.4422 43.0325 32.0096 42.5999 32.0096 42.0642ZM19.4278 45.9375C19.4278 45.4018 19.8604 44.9692 20.3961 44.9692H29.108C29.6437 44.9692 30.0763 45.4018 30.0763 45.9375C30.0763 46.4733 29.6437 46.9058 29.108 46.9058H20.3961C19.8603 46.9058 19.4278 46.4732 19.4278 45.9375ZM32.0096 45.9375C32.0096 45.4018 32.4422 44.9692 32.9779 44.9692H34.9146C35.4503 44.9692 35.8829 45.4018 35.8829 45.9375C35.8829 46.4733 35.4503 46.9058 34.9146 46.9058H32.9779C32.4422 46.9058 32.0096 46.4732 32.0096 45.9375ZM44.6145 54.6494C44.6145 55.1852 44.1819 55.6177 43.6462 55.6177C43.1105 55.6177 42.6746 55.1851 42.6746 54.6494C42.6746 54.1137 43.1038 53.6811 43.6362 53.6811H43.6462C44.182 53.6811 44.6145 54.1137 44.6145 54.6494ZM39.7762 55.6177C39.2405 55.6177 38.8046 55.1851 38.8046 54.6494C38.8046 54.1137 39.2339 53.6811 39.7663 53.6811H39.7763C40.312 53.6811 40.7446 54.1137 40.7446 54.6494C40.7446 55.1851 40.312 55.6177 39.7762 55.6177Z" fill="black" stroke="black" stroke-width="2" mask="url(#path-1-inside-1_4_624)"/>
<circle cx="48.4375" cy="32.1875" r="3.4375" fill="#DD0004"/>
</svg>
