<svg width="88" height="79" viewBox="0 0 88 79" fill="none" xmlns="http://www.w3.org/2000/svg">
<path fill-rule="evenodd" clip-rule="evenodd" d="M58.8344 38.2397C57.9908 37.3946 56.8255 36.872 55.5375 36.872C54.2494 36.872 53.0841 37.3946 52.2405 38.2397C51.397 39.0847 50.8752 40.2521 50.8752 41.5423C50.8752 42.8326 51.397 44 52.2405 44.845C53.0841 45.6901 54.2494 46.2127 55.5375 46.2127C56.8255 46.2127 57.9908 45.6901 58.8344 44.845C59.6779 44 60.1997 42.8326 60.1997 41.5423C60.1997 40.2521 59.6779 39.0847 58.8344 38.2397ZM57.9348 41.5406C57.9348 40.2147 56.8619 39.139 55.5375 39.139C54.2139 39.139 53.1401 40.2147 53.1401 41.5406C53.1401 42.8664 54.2139 43.9421 55.5375 43.9421C56.861 43.9421 57.9348 42.8664 57.9348 41.5406Z" fill="#DD0004"/>
<path d="M70.5705 58.7128C70.623 58.6265 70.6861 58.5445 70.7607 58.4706L72.4363 56.7921C72.5101 56.7182 72.5919 56.6541 72.6781 56.6016C72.7457 56.5775 72.8105 56.5455 72.8719 56.5054C73.0265 56.444 73.191 56.4137 73.3554 56.4137C73.6897 56.4137 74.023 56.5402 74.2746 56.7921L81.7911 64.3218C82.0427 64.5738 82.1689 64.9077 82.1689 65.2425C82.1689 65.5773 82.0427 65.9112 81.7911 66.1632L80.1155 67.8417C79.864 68.0937 79.5306 68.2202 79.1964 68.2202C78.8622 68.2202 78.5288 68.0937 78.2773 67.8417L70.7607 60.3121C70.5092 60.0601 70.383 59.7262 70.383 59.3914C70.383 59.2266 70.4132 59.0619 70.4745 58.907C70.5145 58.8455 70.5465 58.7805 70.5705 58.7128Z" fill="#DD0004"/>
<path fill-rule="evenodd" clip-rule="evenodd" d="M57.9348 41.5406C57.9348 40.2147 56.8619 39.139 55.5375 39.139C54.2139 39.139 53.1401 40.2147 53.1401 41.5406C53.1401 42.8664 54.2139 43.9421 55.5375 43.9421C56.861 43.9421 57.9348 42.8664 57.9348 41.5406ZM48.7552 65.3859H55.5579C55.365 65.5877 55.1627 65.7998 54.9524 66.0202C54.7916 66.1888 54.6261 66.3624 54.4566 66.5399C53.1 67.961 51.5961 69.6407 50.361 71.0202C49.6165 71.8517 48.9696 72.5742 48.5116 73.0651V65.6298C48.5116 65.5631 48.5392 65.5025 48.5836 65.458C48.628 65.4135 48.6894 65.3859 48.7552 65.3859ZM10.9245 10.667H52.0041L52.005 10.6661V8.32332C52.005 8.19599 51.9525 8.08023 51.8681 7.99564C51.7836 7.91193 51.6681 7.8594 51.541 7.8594H6.07647C6.01069 7.8594 5.94935 7.887 5.90491 7.93152C5.86046 7.97605 5.83291 8.03749 5.83291 8.10338V68.8551C5.83291 68.9218 5.86046 68.9824 5.90491 69.0269C5.94935 69.0714 6.01069 69.099 6.07647 69.099H8.84894V12.7462C8.84894 12.1736 9.08183 11.6536 9.45784 11.2769C9.83384 10.9012 10.353 10.667 10.9245 10.667ZM36.451 37.9788H18.0295C17.5228 37.9788 17.113 37.5683 17.113 37.0607C17.113 36.5532 17.5237 36.1427 18.0295 36.1427H36.451C36.9577 36.1427 37.3675 36.5532 37.3675 37.0607C37.3675 37.5683 36.9568 37.9788 36.451 37.9788ZM36.451 44.0401H18.0295C17.5228 44.0401 17.113 43.6296 17.113 43.122C17.113 42.6144 17.5237 42.2039 18.0295 42.2039H36.451C36.9577 42.2039 37.3675 42.6144 37.3675 43.122C37.3675 43.6296 36.9568 44.0401 36.451 44.0401ZM15.1957 37.9788H14.561C14.0543 37.9788 13.6446 37.5683 13.6446 37.0607C13.6446 36.5532 14.0552 36.1427 14.561 36.1427H15.1957C15.7024 36.1427 16.1121 36.5532 16.1121 37.0607C16.1121 37.5683 15.7015 37.9788 15.1957 37.9788ZM15.1957 44.0401H14.561C14.0543 44.0401 13.6446 43.6296 13.6446 43.122C13.6446 42.6144 14.0552 42.2039 14.561 42.2039H15.1957C15.7024 42.2039 16.1121 42.6144 16.1121 43.122C16.1121 43.6296 15.7015 44.0401 15.1957 44.0401ZM44.8956 30.8819C47.8343 27.9381 51.6859 26.4662 55.5375 26.4662C59.3891 26.4662 63.2407 27.9381 66.1794 30.8819C69.1181 33.8258 70.5874 37.684 70.5874 41.5423C70.5874 45.4007 69.1181 49.259 66.1794 52.2028C63.2407 55.1466 59.3891 56.6185 55.5375 56.6185C51.6859 56.6185 47.8343 55.1466 44.8956 52.2028C41.9569 49.259 40.4875 45.4007 40.4875 41.5423C40.4875 37.684 41.9569 33.8258 44.8956 30.8819ZM55.5375 24.631C51.2174 24.631 46.8965 26.2828 43.6004 29.5846C40.3035 32.8863 38.6555 37.2157 38.6555 41.5432C38.6555 45.8708 40.3044 50.1993 43.6004 53.5011C46.8965 56.8037 51.2174 58.4546 55.5375 58.4546C55.9757 58.4546 56.4148 58.4368 56.8521 58.403V63.5515H48.7552C48.1836 63.5515 47.6645 63.7848 47.2885 64.1615C46.9134 64.5382 46.6796 65.0582 46.6796 65.6307V73.7418H10.9245C10.8579 73.7418 10.7974 73.7142 10.753 73.6697C10.7085 73.6252 10.681 73.5637 10.681 73.4978V12.7471C10.681 12.6812 10.7085 12.6197 10.753 12.5752C10.7974 12.5307 10.8587 12.5031 10.9245 12.5031H56.389C56.5161 12.5031 56.6317 12.5547 56.7161 12.6393C56.7997 12.7239 56.8521 12.8397 56.8521 12.967V24.6826C56.4148 24.6479 55.9757 24.631 55.5375 24.631ZM68.55 59.3914C68.55 59.1367 68.5803 58.8829 68.6416 58.6345L65.3322 55.3185C63.3064 56.7672 61.0335 57.7138 58.6842 58.1581V64.4037H58.6815C58.6815 64.6343 58.5953 64.8641 58.4228 65.0422C57.9242 65.5551 56.9375 66.5889 55.7792 67.8026C52.6708 71.0607 48.3587 75.5779 47.8058 75.5779H10.9236C10.3521 75.5779 9.83295 75.3446 9.45695 74.968C9.08095 74.5913 8.84805 74.0713 8.84805 73.4987V70.936H6.07558C5.50402 70.936 4.9849 70.7027 4.6089 70.3261C4.23289 69.9494 4 69.4294 4 68.8568V8.10605C4 7.53349 4.23289 7.01347 4.6089 6.63681C4.9849 6.26104 5.50402 6.02686 6.07558 6.02686H51.5401C52.173 6.02686 52.7463 6.2842 53.1623 6.70092C53.5774 7.11676 53.8352 7.69199 53.8352 8.32599V10.6688H56.3881C57.021 10.6688 57.5953 10.9261 58.0104 11.3428C58.4255 11.7587 58.6833 12.3339 58.6833 12.9679V24.9275C61.9038 25.5366 64.9811 27.0886 67.4736 29.5854C70.7705 32.8872 72.4185 37.2157 72.4185 41.5432C72.4185 44.9857 71.3759 48.4291 69.2896 51.3551L72.599 54.6702C72.847 54.6088 73.1012 54.5785 73.3546 54.5785C74.1563 54.5785 74.959 54.8839 75.5688 55.4948L83.0853 63.0244C83.6951 63.6352 84 64.4393 84 65.2425C84 66.0457 83.6951 66.8498 83.0853 67.4606L81.4098 69.1391C80.8 69.75 79.9973 70.0554 79.1955 70.0554C78.3937 70.0554 77.591 69.75 76.9813 69.1391L69.4647 61.6095C68.8549 60.9986 68.55 60.1945 68.55 59.3914ZM70.7607 58.4706C70.6861 58.5445 70.623 58.6265 70.5705 58.7128C70.5465 58.7805 70.5145 58.8455 70.4745 58.907C70.4132 59.0619 70.383 59.2266 70.383 59.3914C70.383 59.7262 70.5092 60.0601 70.7607 60.3121L78.2773 67.8417C78.5288 68.0937 78.8622 68.2202 79.1964 68.2202C79.5306 68.2202 79.864 68.0937 80.1155 67.8417L81.7911 66.1632C82.0427 65.9112 82.1689 65.5773 82.1689 65.2425C82.1689 64.9077 82.0427 64.5738 81.7911 64.3218L74.2746 56.7921C74.023 56.5402 73.6897 56.4137 73.3554 56.4137C73.191 56.4137 73.0265 56.444 72.8719 56.5054C72.8105 56.5455 72.7457 56.5775 72.6781 56.6016C72.5919 56.6541 72.5101 56.7182 72.4363 56.7921L70.7607 58.4706ZM66.1545 41.0838C66.3278 41.383 66.3127 41.74 66.1456 42.017C65.0691 43.8744 63.5171 45.4247 61.6549 46.5012C59.8504 47.544 57.7615 48.1415 55.5375 48.1415C53.3134 48.1415 51.2245 47.5449 49.4201 46.5012C47.5525 45.4211 45.9969 43.8655 44.9205 42.0009C44.7471 41.7017 44.7622 41.3447 44.9293 41.0677C46.0058 39.2103 47.5578 37.66 49.4201 36.5834C51.2245 35.5407 53.3134 34.9432 55.5375 34.9432C57.7615 34.9432 59.8504 35.5398 61.6549 36.5834C63.5224 37.6636 65.078 39.2192 66.1545 41.0838ZM55.5375 36.872C56.8255 36.872 57.9908 37.3946 58.8344 38.2397C59.6779 39.0847 60.1997 40.2521 60.1997 41.5423C60.1997 42.8326 59.6779 44 58.8344 44.845C57.9908 45.6901 56.8255 46.2127 55.5375 46.2127C54.2494 46.2127 53.0841 45.6901 52.2405 44.845C51.397 44 50.8752 42.8326 50.8752 41.5423C50.8752 40.2521 51.397 39.0847 52.2405 38.2397C53.0841 37.3946 54.2494 36.872 55.5375 36.872ZM49.0432 41.5423C49.0432 42.6429 49.3161 43.6794 49.7978 44.5877C48.5969 43.7934 47.5694 42.7551 46.7836 41.5423C47.5694 40.3296 48.5969 39.2913 49.7978 38.497C49.3161 39.4053 49.0432 40.4418 49.0432 41.5423ZM64.2922 41.5423C63.5064 40.3296 62.4789 39.2913 61.278 38.497C61.7598 39.4053 62.0318 40.4418 62.0318 41.5423C62.0318 42.6429 61.7598 43.6794 61.278 44.5877C62.4789 43.7934 63.5064 42.7551 64.2922 41.5423ZM36.451 50.1013H18.0295C17.5228 50.1013 17.113 49.6908 17.113 49.1833C17.113 48.6757 17.5237 48.2652 18.0295 48.2652H36.451C36.9577 48.2652 37.3675 48.6757 37.3675 49.1833C37.3675 49.6908 36.9568 50.1013 36.451 50.1013ZM41.5613 56.1626H18.0295C17.5228 56.1626 17.113 55.7521 17.113 55.2446C17.113 54.737 17.5237 54.3265 18.0295 54.3265H41.5613C42.068 54.3265 42.4778 54.737 42.4778 55.2446C42.4778 55.7521 42.0671 56.1626 41.5613 56.1626ZM15.1957 50.1013H14.561C14.0543 50.1013 13.6446 49.6908 13.6446 49.1833C13.6446 48.6757 14.0552 48.2652 14.561 48.2652H15.1957C15.7024 48.2652 16.1121 48.6757 16.1121 49.1833C16.1121 49.6908 15.7015 50.1013 15.1957 50.1013ZM15.1957 56.1626H14.561C14.0543 56.1626 13.6446 55.7521 13.6446 55.2446C13.6446 54.737 14.0552 54.3265 14.561 54.3265H15.1957C15.7024 54.3265 16.1121 54.737 16.1121 55.2446C16.1121 55.7521 15.7015 56.1626 15.1957 56.1626ZM44.7 62.2239H18.0295C17.5228 62.2239 17.113 61.8134 17.113 61.3058C17.113 60.7983 17.5237 60.3878 18.0295 60.3878H44.7C45.2067 60.3878 45.6165 60.7983 45.6165 61.3058C45.6165 61.8134 45.2058 62.2239 44.7 62.2239ZM43.2289 68.2852H18.0295C17.5228 68.2852 17.113 67.8747 17.113 67.3671C17.113 66.8596 17.5237 66.4491 18.0295 66.4491H43.2289C43.7356 66.4491 44.1453 66.8596 44.1453 67.3671C44.1453 67.8747 43.7347 68.2852 43.2289 68.2852ZM15.1957 62.2239H14.561C14.0543 62.2239 13.6446 61.8134 13.6446 61.3058C13.6446 60.7983 14.0552 60.3878 14.561 60.3878H15.1957C15.7024 60.3878 16.1121 60.7983 16.1121 61.3058C16.1121 61.8134 15.7015 62.2239 15.1957 62.2239ZM15.1957 68.2852H14.561C14.0543 68.2852 13.6446 67.8747 13.6446 67.3671C13.6446 66.8596 14.0552 66.4491 14.561 66.4491H15.1957C15.7024 66.4491 16.1121 66.8596 16.1121 67.3671C16.1121 67.8747 15.7015 68.2852 15.1957 68.2852ZM22.1318 17.7113H45.4013V20.0096H22.1318V17.7113ZM20.2997 16.7942C20.2997 16.2866 20.7104 15.8761 21.2162 15.8761H46.3178C46.8245 15.8761 47.2343 16.2875 47.2343 16.7942V20.9276C47.2343 21.4352 46.8236 21.8457 46.3178 21.8457H21.2162C20.7095 21.8457 20.2997 21.4343 20.2997 20.9276V16.7942ZM43.2298 26.8812H18.0304C17.5237 26.8812 17.1139 26.4707 17.1139 25.9631C17.1139 25.4555 17.5246 25.0451 18.0304 25.0451H43.2298C43.7364 25.0451 44.1462 25.4555 44.1462 25.9631C44.1462 26.4707 43.7356 26.8812 43.2298 26.8812ZM36.4519 32.9424H18.0304C17.5237 32.9424 17.1139 32.5319 17.1139 32.0244C17.1139 31.5168 17.5246 31.1063 18.0304 31.1063H36.4519C36.9586 31.1063 37.3684 31.5168 37.3684 32.0244C37.3684 32.5319 36.9577 32.9424 36.4519 32.9424ZM15.1966 26.8812H14.5619C14.0552 26.8812 13.6454 26.4707 13.6454 25.9631C13.6454 25.4555 14.0561 25.0451 14.5619 25.0451H15.1966C15.7032 25.0451 16.113 25.4555 16.113 25.9631C16.113 26.4707 15.7024 26.8812 15.1966 26.8812ZM15.1966 32.9424H14.5619C14.0552 32.9424 13.6454 32.5319 13.6454 32.0244C13.6454 31.5168 14.0561 31.1063 14.5619 31.1063H15.1966C15.7032 31.1063 16.113 31.5168 16.113 32.0244C16.113 32.5319 15.7024 32.9424 15.1966 32.9424Z" fill="black"/>
<path d="M45.4013 17.7113H22.1318V20.0096H45.4013V17.7113Z" fill="#DD0004"/>
<path fill-rule="evenodd" clip-rule="evenodd" d="M55.5 58C64.6127 58 72 50.6127 72 41.5C72 32.3873 64.6127 25 55.5 25C46.3873 25 39 32.3873 39 41.5C39 50.6127 46.3873 58 55.5 58ZM55.5 54.9062C62.9041 54.9062 68.9062 48.9041 68.9062 41.5C68.9062 34.0959 62.9041 28.0938 55.5 28.0938C48.0959 28.0938 42.0938 34.0959 42.0938 41.5C42.0938 48.9041 48.0959 54.9062 55.5 54.9062Z" fill="#DD0004"/>
<path d="M71.4 41.5C71.4 50.2813 64.2813 57.4 55.5 57.4V58.6C64.9441 58.6 72.6 50.9441 72.6 41.5H71.4ZM55.5 25.6C64.2813 25.6 71.4 32.7187 71.4 41.5H72.6C72.6 32.0559 64.9441 24.4 55.5 24.4V25.6ZM39.6 41.5C39.6 32.7187 46.7187 25.6 55.5 25.6V24.4C46.0559 24.4 38.4 32.0559 38.4 41.5H39.6ZM55.5 57.4C46.7187 57.4 39.6 50.2813 39.6 41.5H38.4C38.4 50.9441 46.0559 58.6 55.5 58.6V57.4ZM68.3062 41.5C68.3062 48.5727 62.5727 54.3062 55.5 54.3062V55.5063C63.2354 55.5063 69.5063 49.2354 69.5063 41.5H68.3062ZM55.5 28.6938C62.5727 28.6938 68.3062 34.4273 68.3062 41.5H69.5063C69.5063 33.7646 63.2354 27.4937 55.5 27.4937V28.6938ZM42.6938 41.5C42.6938 34.4273 48.4273 28.6938 55.5 28.6938V27.4937C47.7646 27.4937 41.4937 33.7646 41.4937 41.5H42.6938ZM55.5 54.3062C48.4273 54.3062 42.6938 48.5727 42.6938 41.5H41.4937C41.4937 49.2354 47.7646 55.5063 55.5 55.5063V54.3062Z" fill="black"/>
<path d="M68.75 52.1997C67.8 53.5 66.8056 54.2832 66.25 54.6999L69 57.5L71.5001 55L68.75 52.1997Z" fill="#DD0004"/>
<path fill-rule="evenodd" clip-rule="evenodd" d="M77.7191 4.87181L75.6201 4.00196L74.5175 5.3028C74.3045 5.55315 73.9717 5.69453 73.6202 5.65035C73.2461 5.60322 72.8721 5.57966 72.501 5.57966C72.1456 5.57966 71.7912 5.60126 71.4407 5.64348C71.0961 5.70729 70.7279 5.58948 70.4864 5.3028L69.3829 4L67.2849 4.86886L67.4253 6.57125H67.4223C67.4488 6.90014 67.3143 7.2359 67.0335 7.45287C66.741 7.67966 66.4592 7.92706 66.1921 8.1941C65.9457 8.44053 65.713 8.70168 65.4961 8.97755C65.2987 9.27208 64.9512 9.45273 64.5732 9.42229L62.8718 9.28092L62.002 11.38L63.3028 12.4825C63.5541 12.6965 63.6955 13.0283 63.6504 13.3798C63.6032 13.7539 63.5797 14.1279 63.5797 14.499C63.5797 14.8544 63.6013 15.2088 63.6435 15.5593C63.7073 15.9039 63.5895 16.2721 63.3028 16.5136L62 17.6171L62.8689 19.7152L64.5712 19.5748V19.5777C64.9001 19.5512 65.2359 19.6857 65.4529 19.9665C65.6797 20.2591 65.9271 20.5408 66.1941 20.8079C66.4405 21.0543 66.7017 21.287 66.9776 21.5039C67.2721 21.7013 67.4527 22.0488 67.4223 22.4268L67.2809 24.1282L69.3799 24.998L70.4825 23.6972C70.6955 23.4468 71.0283 23.3055 71.3798 23.3497C71.7539 23.3968 72.1279 23.4203 72.499 23.4203C72.8544 23.4203 73.2088 23.3987 73.5593 23.3565C73.9039 23.2927 74.2721 23.4105 74.5136 23.6972L75.6171 25L77.7151 24.1311L77.5748 22.4288H77.5777C77.5512 22.0999 77.6857 21.7641 77.9665 21.5471C78.259 21.3203 78.5408 21.0729 78.8078 20.8059C79.0543 20.5595 79.287 20.2983 79.5039 20.0224C79.7013 19.7279 80.0488 19.5473 80.4268 19.5777L82.1282 19.7191L82.998 17.6201L81.6972 16.5175C81.4458 16.3035 81.3045 15.9717 81.3496 15.6202C81.3968 15.2462 81.4203 14.8721 81.4203 14.501C81.4203 14.1456 81.3987 13.7912 81.3565 13.4407C81.2927 13.0961 81.4105 12.7279 81.6972 12.4864L83 11.3829L82.1311 9.28485L80.4287 9.42524V9.42229C80.0999 9.4488 79.7641 9.3143 79.5471 9.03352C79.3203 8.74095 79.0729 8.45918 78.8059 8.19214C78.5595 7.94572 78.2983 7.71304 78.0224 7.49607C77.7279 7.29873 77.5473 6.95119 77.5777 6.57321L77.7191 4.87181ZM78.2031 12.1418C77.5983 10.6799 76.4369 9.44978 74.8641 8.79789L74.8651 8.79691C73.2913 8.14502 71.6017 8.19312 70.1428 8.79691C68.7006 9.39382 67.4842 10.5317 66.8254 12.0721C66.8048 12.1143 66.7861 12.1575 66.7714 12.2027C66.148 13.7578 66.203 15.4199 66.7979 16.8582C67.3948 18.3004 68.5327 19.5168 70.0731 20.1756C70.1153 20.1962 70.1585 20.2149 70.2036 20.2296C71.7588 20.853 73.4209 20.798 74.8592 20.2031C76.321 19.5983 77.5512 18.4369 78.2031 16.8641C78.854 15.2903 78.8069 13.6007 78.2031 12.1418Z" fill="#DD0004"/>
<path fill-rule="evenodd" clip-rule="evenodd" d="M77.7191 4.87181L75.6201 4.00196L74.5175 5.3028C74.3045 5.55315 73.9717 5.69453 73.6202 5.65035C73.2461 5.60322 72.8721 5.57966 72.501 5.57966C72.1456 5.57966 71.7912 5.60126 71.4407 5.64348C71.0961 5.70729 70.7279 5.58948 70.4864 5.3028L69.3829 4L67.2849 4.86886L67.4253 6.57125H67.4223C67.4488 6.90014 67.3143 7.2359 67.0335 7.45287C66.741 7.67966 66.4592 7.92706 66.1921 8.1941C65.9457 8.44053 65.713 8.70168 65.4961 8.97755C65.2987 9.27208 64.9512 9.45273 64.5732 9.42229L62.8718 9.28092L62.002 11.38L63.3028 12.4825C63.5541 12.6965 63.6955 13.0283 63.6504 13.3798C63.6032 13.7539 63.5797 14.1279 63.5797 14.499C63.5797 14.8544 63.6013 15.2088 63.6435 15.5593C63.7073 15.9039 63.5895 16.2721 63.3028 16.5136L62 17.6171L62.8689 19.7152L64.5712 19.5748V19.5777C64.9001 19.5512 65.2359 19.6857 65.4529 19.9665C65.6797 20.2591 65.9271 20.5408 66.1941 20.8079C66.4405 21.0543 66.7017 21.287 66.9776 21.5039C67.2721 21.7013 67.4527 22.0488 67.4223 22.4268L67.2809 24.1282L69.3799 24.998L70.4825 23.6972C70.6955 23.4468 71.0283 23.3055 71.3798 23.3497C71.7539 23.3968 72.1279 23.4203 72.499 23.4203C72.8544 23.4203 73.2088 23.3987 73.5593 23.3565C73.9039 23.2927 74.2721 23.4105 74.5136 23.6972L75.6171 25L77.7151 24.1311L77.5748 22.4288H77.5777C77.5512 22.0999 77.6857 21.7641 77.9665 21.5471C78.259 21.3203 78.5408 21.0729 78.8078 20.8059C79.0543 20.5595 79.287 20.2983 79.5039 20.0224C79.7013 19.7279 80.0488 19.5473 80.4268 19.5777L82.1282 19.7191L82.998 17.6201L81.6972 16.5175C81.4458 16.3035 81.3045 15.9717 81.3496 15.6202C81.3968 15.2462 81.4203 14.8721 81.4203 14.501C81.4203 14.1456 81.3987 13.7912 81.3565 13.4407C81.2927 13.0961 81.4105 12.7279 81.6972 12.4864L83 11.3829L82.1311 9.28485L80.4287 9.42524V9.42229C80.0999 9.4488 79.7641 9.3143 79.5471 9.03352C79.3203 8.74095 79.0729 8.45918 78.8059 8.19214C78.5595 7.94572 78.2983 7.71304 78.0224 7.49607C77.7279 7.29873 77.5473 6.95119 77.5777 6.57321L77.7191 4.87181ZM78.2031 12.1418C77.5983 10.6799 76.4369 9.44978 74.8641 8.79789L74.8651 8.79691C73.2913 8.14502 71.6017 8.19312 70.1428 8.79691C68.7006 9.39382 67.4842 10.5317 66.8254 12.0721C66.8048 12.1143 66.7861 12.1575 66.7714 12.2027C66.148 13.7578 66.203 15.4199 66.7979 16.8582C67.3948 18.3004 68.5327 19.5168 70.0731 20.1756C70.1153 20.1962 70.1585 20.2149 70.2036 20.2296C71.7588 20.853 73.4209 20.798 74.8592 20.2031C76.321 19.5983 77.5512 18.4369 78.2031 16.8641C78.854 15.2903 78.8069 13.6007 78.2031 12.1418Z" stroke="black"/>
</svg>
