<svg width="86" height="86" viewBox="0 0 86 86" fill="none" xmlns="http://www.w3.org/2000/svg">
<path d="M43 16.5V7.5V6.5L39 7L38.5 10L32.5 13L29.5 10.5L23.5 16L26.5 19L23.5 25L20.5 25.5L20 33.5L24 34L26 40L23.5 42.5L30 48.5L32 46.5L39.5 48.5V52.5H43V43L35.5 41L32 36.5L30 30L32 23.5L35.5 19.5L43 16.5Z" fill="#DD0004"/>
<path d="M19.8184 34.9342H22.7487C23.2116 36.6495 23.8972 38.2952 24.7881 39.8404L22.714 41.9098C22.2964 42.3265 22.2964 42.9932 22.714 43.4133L28.9155 49.6007C29.3331 50.0174 30.0014 50.0174 30.4224 49.6007L32.4965 47.5313C34.0452 48.4202 35.6947 49.1042 37.4139 49.5661V52.4897C37.4139 53.0765 37.8872 53.5488 38.4753 53.5488H42.8603C43.4484 53.5488 43.9217 53.0765 43.9217 52.4897L43.9182 6.5075C43.9182 5.9207 43.4449 5.44848 42.8568 5.44848H38.4718C37.8837 5.44848 37.4104 5.9207 37.4104 6.5075V9.43115C35.6912 9.89295 34.0417 10.577 32.493 11.4659L30.4189 9.39648C30.0013 8.97982 29.3331 8.97982 28.912 9.39648L22.7105 15.5839C22.2929 16.0006 22.2929 16.6673 22.7105 17.0874L24.7846 19.1568C23.8937 20.702 23.2082 22.3478 22.7453 24.0631H19.815C19.2268 24.0631 18.7535 24.5353 18.7535 25.1221V33.8686C18.757 34.4554 19.2373 34.9342 19.8184 34.9342ZM41.7954 40.9238C35.9523 40.389 31.3548 35.4655 31.3548 29.4998C31.3548 23.5341 35.9521 18.6109 41.7954 18.0758V40.9238ZM20.8866 26.1771H23.5872C24.0848 26.1771 24.5129 25.8299 24.6208 25.3507C25.0837 23.2986 25.8945 21.3403 27.036 19.5556C27.3039 19.1389 27.2413 18.5973 26.8828 18.2396L24.9688 16.3299L29.6635 11.6459L31.5775 13.5556C31.9255 13.9028 32.4788 13.9653 32.8965 13.7084C34.6887 12.5799 36.648 11.7709 38.7048 11.3091C39.185 11.2015 39.533 10.7674 39.533 10.2778V7.57292H41.7951V15.9549C34.7757 16.4965 29.2315 22.3646 29.2315 29.4998C29.2315 36.6386 34.7719 42.5033 41.7951 43.0447V51.4266H39.533V48.7322C39.533 48.2357 39.185 47.8086 38.7048 47.7009C36.648 47.2391 34.6852 46.4301 32.8965 45.2912C32.4789 45.0239 31.9256 45.0864 31.5775 45.444L29.6635 47.3537L24.9688 42.6697L26.8828 40.76C27.2308 40.4128 27.2935 39.8607 27.036 39.444C25.905 37.6558 25.094 35.701 24.6208 33.6489C24.5129 33.1697 24.0779 32.8225 23.5872 32.8225H20.8866V26.1771ZM51.8181 39.3851C54.2959 39.3851 56.3179 37.3747 56.3179 34.8955C56.3179 32.4233 54.303 30.4059 51.8181 30.4059C49.3403 30.4059 47.3183 32.4163 47.3183 34.8955C47.3218 37.3677 49.3437 39.3851 51.8181 39.3851ZM51.8181 32.5344C53.1267 32.5344 54.1881 33.5935 54.1881 34.8991C54.1881 36.2047 53.1267 37.2637 51.8181 37.2637C50.5095 37.2637 49.4481 36.2047 49.4481 34.8991C49.4481 33.59 50.5095 32.5344 51.8181 32.5344ZM51.8181 27.6629C54.2959 27.6629 56.3179 25.6525 56.3179 23.1733C56.3179 20.6941 54.303 18.6837 51.8181 18.6837C49.3403 18.6837 47.3183 20.6941 47.3183 23.1733C47.3218 25.6525 49.3437 27.6629 51.8181 27.6629ZM51.8181 20.8191C53.1267 20.8191 54.1881 21.8782 54.1881 23.1838C54.1881 24.4894 53.1267 25.5484 51.8181 25.5484C50.5095 25.5484 49.4481 24.4894 49.4481 23.1838C49.4481 21.8747 50.5095 20.8191 51.8181 20.8191ZM51.8181 51.1C54.2959 51.1 56.3179 49.0896 56.3179 46.6104C56.3179 44.1383 54.303 42.1208 51.8181 42.1208C49.3403 42.1208 47.3183 44.1312 47.3183 46.6104C47.3218 49.0931 49.3437 51.1 51.8181 51.1ZM51.8181 44.2494C53.1267 44.2494 54.1881 45.3084 54.1881 46.614C54.1881 47.9196 53.1267 48.9786 51.8181 48.9786C50.5095 48.9786 49.4481 47.9196 49.4481 46.614C49.4481 45.3154 50.5095 44.2494 51.8181 44.2494ZM51.8181 15.9471C54.2959 15.9471 56.3179 13.9367 56.3179 11.4575C56.3179 8.97835 54.296 6.97835 51.8181 6.97835C49.3402 6.97835 47.3183 8.98875 47.3183 11.4679C47.3218 13.9471 49.3437 15.9471 51.8181 15.9471ZM51.8181 9.09302C53.1267 9.09302 54.1881 10.152 54.1881 11.4576C54.1881 12.7632 53.1267 13.8223 51.8181 13.8223C50.5095 13.8223 49.4481 12.7632 49.4481 11.4576C49.4481 10.152 50.5095 9.09302 51.8181 9.09302ZM62.7424 45.3428C65.2202 45.3428 67.2422 43.3324 67.2422 40.8532C67.2422 38.381 65.2273 36.3636 62.7424 36.3636C60.2647 36.3636 58.2426 38.374 58.2426 40.8532C58.2531 43.3219 60.2646 45.3428 62.7424 45.3428ZM62.7424 38.4887C64.051 38.4887 65.1124 39.5477 65.1124 40.8533C65.1124 42.1589 64.051 43.2179 62.7424 43.2179C61.4339 43.2179 60.3724 42.1589 60.3724 40.8533C60.3724 39.5442 61.4339 38.4887 62.7424 38.4887ZM62.7424 33.5269C65.2202 33.5269 67.2422 31.5165 67.2422 29.0373C67.2422 26.5651 65.2273 24.5477 62.7424 24.5477C60.2647 24.5477 58.2426 26.5581 58.2426 29.0373C58.2531 31.5095 60.2646 33.5269 62.7424 33.5269ZM62.7424 26.6762C64.051 26.6762 65.1124 27.7352 65.1124 29.0408C65.1124 30.3464 64.051 31.4055 62.7424 31.4055C61.4339 31.4055 60.3724 30.3464 60.3724 29.0408C60.3724 27.7318 61.4339 26.6762 62.7424 26.6762ZM62.7424 21.7075C65.2202 21.7075 67.2422 19.6971 67.2422 17.2179C67.2422 14.7387 65.2273 12.7283 62.7424 12.7283C60.2647 12.7283 58.2426 14.7387 58.2426 17.2179C58.2426 19.6971 60.2646 21.7075 62.7424 21.7075ZM62.7424 14.8603C64.051 14.8603 65.1124 15.9193 65.1124 17.2249C65.1124 18.5305 64.051 19.5895 62.7424 19.5895C61.4339 19.5895 60.3724 18.5305 60.3724 17.2249C60.3724 15.9193 61.4339 14.8603 62.7424 14.8603ZM80.4528 0.773193H5.54697C2.67931 0.773193 0.344238 3.10306 0.344238 5.96413V62.0957C0.344238 64.9568 2.6794 67.2866 5.54697 67.2866H36.8544V76.8875H31.0635C28.5787 76.8875 26.5567 78.9048 26.5567 81.384V84.825C26.5567 85.4118 27.03 85.884 27.6182 85.884H58.3893C58.9774 85.884 59.4507 85.4118 59.4507 84.825V81.384C59.4507 78.9048 57.4288 76.8875 54.944 76.8875H49.1531V67.2866H80.4667C83.3344 67.2866 85.6695 64.9567 85.6695 62.0957L85.666 5.96413C85.6555 3.0995 83.324 0.773193 80.4528 0.773193ZM5.54697 2.89817H80.4528C82.1441 2.89817 83.5257 4.27666 83.5257 5.96413V55.405L2.47351 55.4015V5.96421C2.47351 4.26625 3.84524 2.89817 5.54697 2.89817ZM57.3239 81.3951V83.777H28.6759V81.3951C28.6759 80.0791 29.7442 79.0131 31.0632 79.0131H54.9405C56.256 79.0131 57.3239 80.0791 57.3239 81.3951ZM47.0197 76.8881H38.9841V67.2872H47.0197V76.8881ZM80.4528 65.1628H5.54697C3.85567 65.1628 2.47405 63.7843 2.47405 62.0968V57.5205H83.5361V62.0968C83.5257 63.7878 82.1546 65.1628 80.4528 65.1628Z" fill="black" stroke="black" stroke-width="0.2"/>
</svg>
