<svg width="88" height="88" viewBox="0 0 88 88" fill="none" xmlns="http://www.w3.org/2000/svg">
<path d="M26.6303 9.76232V9.5209L26.4596 9.69161L12.827 23.3241L12.6563 23.4948H12.8978H22.6666C24.8533 23.4948 26.6303 21.7178 26.6303 19.5312V9.76232ZM69.1006 72.3372H69.2006L69.2006 72.2372L69.1977 7.94034L69.1977 7.84034H69.0977H29.1056H29.0056V7.94034V19.5308C29.0056 23.0269 26.1623 25.8702 22.6662 25.8702H11.0758H10.9758V25.9702V72.2372V72.3372H11.0758H69.1006ZM71.5763 6.65164V73.5247C71.5763 74.181 71.0448 74.7126 70.3884 74.7126H9.78787C9.13155 74.7126 8.6 74.181 8.6 73.5247V24.6819C8.6 24.367 8.7248 24.064 8.94741 23.8414L26.9776 5.81119C27.2003 5.58857 27.5032 5.46377 27.8181 5.46377H70.3885C71.0448 5.46377 71.5763 5.99532 71.5763 6.65164Z" fill="black" stroke="white" stroke-width="0.2"/>
<path d="M76.9247 80.1605H77.0247V80.0605V14.4757C77.0247 13.8194 77.5562 13.2879 78.2126 13.2879C78.8689 13.2879 79.4 13.819 79.4 14.4753V81.3483C79.4 82.0047 78.8685 82.5362 78.2121 82.5362H17.6116C16.9553 82.5362 16.4237 82.0047 16.4237 81.3483C16.4237 80.692 16.9553 80.1605 17.6116 80.1605H76.9247Z" fill="black" stroke="white" stroke-width="0.2"/>
<path d="M29.3471 33.5581L29.6566 33.3724H29.3675C29.2886 33.044 29.2346 32.7101 29.2346 32.3616C29.2346 29.9311 31.2118 27.954 33.6422 27.954C36.0727 27.954 38.0498 29.9312 38.0498 32.3616C38.0498 32.7369 37.9873 33.0952 37.8983 33.4479L37.8802 33.5199L37.9438 33.5581L43.4431 36.8583L43.507 36.8967L43.5621 36.8463C44.3468 36.1278 45.3791 35.6813 46.521 35.6813C47.2747 35.6813 47.9765 35.8916 48.6017 36.2295L48.6673 36.2649L48.7199 36.2122L55.5231 29.409L55.5758 29.3564L55.5404 29.2908C55.2027 28.6659 54.9954 27.9641 54.9954 27.2101C54.9954 24.7797 56.9726 22.8025 59.403 22.8025C61.8335 22.8025 63.8106 24.7797 63.8106 27.2101C63.8106 29.6406 61.8334 31.6177 59.403 31.6177C58.6493 31.6177 57.9476 31.4074 57.3224 31.0695L57.2568 31.0341L57.2041 31.0868L50.4041 37.89L50.3512 37.9429L50.3871 38.0086C50.7278 38.6333 50.9351 39.335 50.9351 40.0889C50.9351 42.5193 48.9579 44.4965 46.5275 44.4965C44.0971 44.4965 42.1199 42.5192 42.1199 40.0889C42.1199 39.7136 42.1824 39.3553 42.2714 39.0025L42.2896 38.9305L42.2259 38.8923L36.7266 35.5922L36.6627 35.5538L36.6077 35.6041C35.823 36.3226 34.7906 36.7692 33.6487 36.7692C32.5069 36.7692 31.4744 36.3195 30.6895 35.604L30.6345 35.5539L30.5707 35.5922L25.0714 38.8923L25.0078 38.9305L25.0259 39.0025C25.1149 39.3553 25.1774 39.7136 25.1774 40.0889C25.1774 42.5193 23.2003 44.4965 20.7698 44.4965C18.3394 44.4965 16.3622 42.5193 16.3622 40.0889C16.3622 37.6585 18.3395 35.6813 20.7698 35.6813C21.9116 35.6813 22.9441 36.1309 23.729 36.8465L23.784 36.8966L23.8478 36.8583L29.3471 33.5581ZM18.7378 40.0887C18.7378 41.2097 19.6487 42.1206 20.7697 42.1206C21.8906 42.1206 22.8015 41.2097 22.8015 40.0887C22.8015 38.9678 21.8906 38.0569 20.7697 38.0569C19.6487 38.0569 18.7378 38.9678 18.7378 40.0887ZM61.4378 27.2105C61.4378 26.0895 60.5269 25.1786 59.4059 25.1786C58.2849 25.1786 57.374 26.0895 57.374 27.2105C57.374 28.3315 58.2849 29.2423 59.4059 29.2423C60.5269 29.2423 61.4378 28.3315 61.4378 27.2105ZM48.559 40.0892C48.559 38.9683 47.6481 38.0574 46.5272 38.0574C45.4062 38.0574 44.4953 38.9683 44.4953 40.0892C44.4953 41.2102 45.4062 42.1211 46.5272 42.1211C47.6481 42.1211 48.559 41.2102 48.559 40.0892ZM35.6803 32.362C35.6803 31.241 34.7694 30.3301 33.6484 30.3301C32.5274 30.3301 31.6166 31.241 31.6166 32.362C31.6166 33.483 32.5274 34.3938 33.6484 34.3938C34.7694 34.3938 35.6803 33.483 35.6803 32.362Z" fill="black" stroke="white" stroke-width="0.2"/>
<path d="M25.8799 50.0185H62.6262C63.2825 50.0185 63.814 50.55 63.814 51.2063C63.814 51.8627 63.2825 52.3942 62.6262 52.3942H25.8799C25.2236 52.3942 24.692 51.8627 24.692 51.2063C24.692 50.55 25.2236 50.0185 25.8799 50.0185Z" fill="black" stroke="white" stroke-width="0.2"/>
<path d="M20.7702 52.3942H18.803C18.1467 52.3942 17.6151 51.8627 17.6151 51.2063C17.6151 50.55 18.1467 50.0185 18.803 50.0185H20.7702C21.4265 50.0185 21.9581 50.55 21.9581 51.2063C21.9581 51.8627 21.4265 52.3942 20.7702 52.3942Z" fill="black" stroke="white" stroke-width="0.2"/>
<path d="M25.8799 57.0567H62.6262C63.2825 57.0567 63.814 57.5882 63.814 58.2445C63.814 58.9009 63.2825 59.4324 62.6262 59.4324H25.8799C25.2236 59.4324 24.692 58.9009 24.692 58.2445C24.692 57.5882 25.2236 57.0567 25.8799 57.0567Z" fill="black" stroke="white" stroke-width="0.2"/>
<path d="M20.7702 59.4324H18.803C18.1467 59.4324 17.6151 58.9009 17.6151 58.2445C17.6151 57.5882 18.1467 57.0567 18.803 57.0567H20.7702C21.4265 57.0567 21.9581 57.5882 21.9581 58.2445C21.9581 58.9009 21.4265 59.4324 20.7702 59.4324Z" fill="black" stroke="white" stroke-width="0.2"/>
<path d="M18.803 64.0948H62.6262C63.2825 64.0948 63.814 64.6264 63.814 65.2827C63.814 65.939 63.2825 66.4706 62.6262 66.4706H18.803C18.1467 66.4706 17.6151 65.939 17.6151 65.2827C17.6151 64.6264 18.1467 64.0948 18.803 64.0948Z" fill="black" stroke="white" stroke-width="0.2"/>
<circle cx="20.75" cy="40.0882" r="2.0625" fill="#DD0004"/>
<circle cx="33.6875" cy="32.4007" r="2.0625" fill="#DD0004"/>
<circle cx="46.6875" cy="40.0882" r="2.0625" fill="#DD0004"/>
<circle cx="59.375" cy="27.3382" r="2.0625" fill="#DD0004"/>
</svg>
