<svg width="79" height="85" viewBox="0 0 79 85" fill="none" xmlns="http://www.w3.org/2000/svg">
<path d="M24.5 42L31 50.5H49L54.5 42V38.5L39.5 20L24.5 38.5V42Z" fill="#DD0004"/>
<path d="M25.1789 56.7656H25.8853V51.7534C25.8853 50.3513 27.0052 49.2297 28.3834 49.2297H28.7797L24.1969 43.7268C22.4913 41.6588 22.4396 38.3465 24.1624 36.2785L28.0389 31.5992H16.6163C14.1871 31.5992 12.1886 33.6322 12.1886 36.1033V57.5718C12.1886 60.0429 14.1871 62.0758 16.6163 62.0758H23.5594V58.3955C23.5594 57.5017 24.283 56.7656 25.1789 56.7656ZM27.8666 56.7656H51.1424V51.7534C51.1424 51.473 50.9184 51.2451 50.6427 51.2451H28.3662C28.0906 51.2451 27.8666 51.473 27.8666 51.7534V56.7656ZM53.1236 56.7656C53.83 56.7656 54.4158 56.678 54.9499 57.2563C55.2428 57.5543 55.4323 57.9573 55.4323 58.413V62.0933H62.3754C64.8046 62.0933 66.8031 60.0604 66.8031 57.5893V36.1208C66.8031 33.6497 64.8046 31.6168 62.3754 31.6168H50.9528L54.7948 36.2435C56.5004 38.3114 56.5521 41.6237 54.8293 43.6917L50.2292 49.2297C51.0734 49.2297 51.7109 49.2998 52.3828 49.9658C52.8308 50.4215 53.1236 51.0699 53.1236 51.7534V56.7656ZM54.433 64.1087H16.6163C13.0845 64.1087 10.1901 61.1645 10.1901 57.5718V36.1208C10.1901 32.5281 13.0845 29.5838 16.6163 29.5838H29.71L34.0172 24.3963H26.2299C25.1272 28.0591 20.5617 29.2508 17.874 26.5169C17.3055 25.9386 16.8575 25.22 16.6163 24.3963H13.653C10.4658 24.3963 7.84701 27.0602 7.84701 30.3199V66.8252H71.1275V30.3199C71.1275 27.0602 68.5087 24.3963 65.3042 24.3963H61.4106C60.308 28.0591 55.7424 29.2508 53.0547 26.5169C52.4862 25.9386 52.0382 25.22 51.797 24.3963H44.9401L49.2472 29.5838H62.3409C65.8728 29.5838 68.7672 32.5281 68.7672 36.1208V57.5718C68.7672 61.1645 65.8728 64.1087 62.3409 64.1087H54.433ZM53.4338 58.7986H25.558V62.0933H53.4338V58.7986ZM36.791 1H42.2524C43.9408 1 45.3191 2.40203 45.3191 4.11951V6.20503H55.484C56.1042 2.1041 61.1005 0.421664 64.0121 3.38345C67.1649 6.59058 64.9252 12.1111 60.463 12.1111C58.1372 12.1111 56.1386 10.4812 55.5873 8.23797H47.1281C51.194 10.2008 54.4675 13.5832 56.3109 17.8068C59.033 17.614 61.3933 19.6645 61.6518 22.3809H65.3387C69.6286 22.3809 73.1432 25.9561 73.1432 30.3199V67.8416C73.1432 68.1921 72.9709 68.4901 72.7125 68.6653L77.6743 79.2331C78.708 81.4413 77.1575 84 74.7627 84H48.8682C48.2996 84 47.8689 83.5443 47.8689 82.9134C47.8172 81.1784 46.9214 79.5836 45.4742 78.4094C42.1835 75.7456 36.8082 75.7456 33.5176 78.4094C32.0531 79.6011 31.1228 81.2135 31.1056 82.9835C31.1056 83.5268 30.6576 83.9825 30.1063 83.9825H4.22902C1.83425 83.9825 0.283678 81.4238 1.33462 79.2156L6.29644 68.6478C6.03801 68.4726 5.86573 68.1571 5.86573 67.8241V30.3199C5.86573 25.9386 9.38035 22.3809 13.6703 22.3809H16.4268C16.7025 19.647 19.0628 17.614 21.7677 17.8068C23.6111 13.5832 26.8846 10.2008 30.9505 8.23797H23.4216C22.4913 12.0585 17.7707 13.443 14.9796 10.6214C11.8268 7.41427 14.0665 1.89379 18.5287 1.89379C21.0269 1.89379 23.1115 3.75148 23.4905 6.22255H33.7071V4.10199C33.7415 2.40203 35.1026 1 36.791 1ZM45.3191 9.62247C45.3191 11.375 43.9408 12.7595 42.2524 12.7595H36.8082C35.1198 12.7595 33.7415 11.3575 33.7415 9.63999V9.25444C29.331 10.7266 25.6958 14.0038 23.7317 18.3326C25.2306 19.1212 26.2643 20.6109 26.4538 22.3634H35.7056L38.7378 18.7006C39.1341 18.2099 39.8749 18.2274 40.2539 18.7181L43.2861 22.3634H51.6248C51.797 20.6109 52.848 19.1212 54.3469 18.3326C52.5206 14.3543 49.2817 11.2523 45.3191 9.62247ZM42.2524 3.01541H36.8082C36.2224 3.01541 35.74 3.50612 35.74 4.10199V9.63999C35.74 10.2359 36.2224 10.7266 36.8082 10.7266H42.2524C42.8382 10.7266 43.3206 10.2359 43.3206 9.63999V4.10199C43.3206 3.50612 42.8382 3.01541 42.2524 3.01541ZM23.5767 20.716C21.6643 18.7707 18.3909 20.1552 18.3909 22.8892C18.3909 25.6406 21.6643 27.0076 23.5767 25.0798C24.7654 23.8706 24.7654 21.9253 23.5767 20.716ZM56.621 19.8047C53.9334 19.8047 52.5723 23.1345 54.4847 25.0798C56.3971 27.0251 59.6705 25.6406 59.6705 22.8892C59.6705 21.1892 58.3094 19.8047 56.621 19.8047ZM62.5821 4.803C60.6698 2.85769 57.3963 4.24219 57.3963 6.97614C57.3963 9.72762 60.6698 11.0946 62.5821 9.16681C63.7709 7.97509 63.7709 6.01225 62.5821 4.803ZM20.6995 4.803C18.7871 2.85769 15.5137 4.24219 15.5137 6.97614C15.5137 9.72762 18.7871 11.0946 20.6995 9.16681C21.8883 7.97509 21.8883 6.01225 20.6995 4.803ZM38.4966 32.9312V22.1356L25.6786 37.5929C24.5932 38.9073 24.6276 41.1155 25.713 42.4299L31.3468 49.2297H47.6277L53.2959 42.3949C54.3813 41.0804 54.3469 38.8723 53.2615 37.5579L40.4951 22.1531V32.9487C44.2682 33.7549 45.7326 38.5393 42.9588 41.3433C39.8749 44.4628 34.603 42.2371 34.603 37.8207C34.603 35.4373 36.2569 33.4219 38.4966 32.9312ZM41.5461 35.7352C39.7198 33.8775 36.5842 35.2095 36.5842 37.8207C36.5842 40.4495 39.7198 41.7639 41.5461 39.9238C42.6831 38.7496 42.6831 36.8744 41.5461 35.7352ZM49.7813 81.9846H74.7627C75.7103 81.9846 76.2788 80.9681 75.8826 80.1094L70.5934 68.8406H8.39833L3.10916 80.1094C2.69567 80.9681 3.28145 81.9846 4.22902 81.9846H29.2104C29.8996 77.2878 34.7235 74.4136 39.4959 74.4136C44.2682 74.4136 49.0749 77.2878 49.7813 81.9846Z" fill="black" stroke="black" stroke-width="0.5"/>
</svg>
