<svg width="88" height="88" viewBox="0 0 88 88" fill="none" xmlns="http://www.w3.org/2000/svg">
<circle cx="27.1921" cy="61.0121" r="8.68292" fill="#DD0004"/>
<circle cx="61.3171" cy="23.0121" r="7.01215" fill="#DD0004"/>
<path fill-rule="evenodd" clip-rule="evenodd" d="M50.6147 68.4112L48.76 70.1001H68.0083C68.5628 70.0994 69.0945 69.8788 69.4867 69.4867C69.8788 69.0945 70.0994 68.5628 70.1001 68.0083V48.4583C70.1001 48.2206 70.1945 47.9928 70.3625 47.8248C70.5305 47.6567 70.7584 47.5624 70.996 47.5624C71.2336 47.5624 71.4615 47.6567 71.6295 47.8248C71.7975 47.9928 71.8919 48.2206 71.8919 48.4583V68.0083C71.891 69.0381 71.4816 70.0254 70.7535 70.7537C70.0254 71.482 69.0381 71.8916 68.0083 71.8928H48.76L50.6147 73.58C50.7018 73.6593 50.7724 73.755 50.8224 73.8616C50.8725 73.9682 50.9011 74.0836 50.9066 74.2012C50.9121 74.3189 50.8944 74.4364 50.8544 74.5472C50.8145 74.658 50.7531 74.7599 50.6738 74.8469C50.5945 74.934 50.4988 75.0046 50.3922 75.0547C50.2856 75.1048 50.1702 75.1334 50.0525 75.1389C49.9349 75.1443 49.8173 75.1266 49.7065 75.0866C49.5958 75.0467 49.4939 74.9853 49.4069 74.906L45.8368 71.6573C45.7445 71.5734 45.6707 71.4711 45.6202 71.357C45.5696 71.2429 45.5436 71.1195 45.5436 70.9947C45.5436 70.8699 45.5696 70.7465 45.6202 70.6324C45.6707 70.5183 45.7445 70.416 45.8368 70.3321L49.4069 67.0835C49.5836 66.9297 49.8134 66.8512 50.0473 66.8647C50.2811 66.8783 50.5004 66.9828 50.6582 67.1559C50.816 67.329 50.8998 67.557 50.8917 67.7911C50.8835 68.0252 50.7841 68.2468 50.6147 68.4086V68.4112ZM19.9917 16.1073H37.2238L35.3666 14.42C35.1961 14.2587 35.0957 14.0369 35.0869 13.8024C35.0781 13.5679 35.1616 13.3392 35.3195 13.1656C35.4773 12.9919 35.697 12.887 35.9313 12.8735C36.1656 12.86 36.3959 12.9388 36.5727 13.0932L40.1427 16.3419C40.2349 16.426 40.3085 16.5285 40.3589 16.6427C40.4093 16.757 40.4353 16.8804 40.4353 17.0053C40.4353 17.1301 40.4093 17.2536 40.3589 17.3678C40.3085 17.482 40.2349 17.5845 40.1427 17.6687L36.5727 20.9174C36.4856 20.9967 36.3837 21.058 36.2729 21.0978C36.1621 21.1377 36.0445 21.1554 35.9268 21.1498C35.8092 21.1443 35.6938 21.1156 35.5872 21.0654C35.4807 21.0153 35.385 20.9446 35.3058 20.8575C35.2265 20.7704 35.1652 20.6685 35.1253 20.5577C35.0854 20.4468 35.0678 20.3292 35.0734 20.2116C35.0789 20.094 35.1076 19.9786 35.1578 19.872C35.2079 19.7654 35.2786 19.6698 35.3657 19.5906L37.223 17.9016H19.9917C19.4372 17.9023 18.9055 18.1229 18.5133 18.515C18.1212 18.9072 17.9006 19.4389 17.8999 19.9935V41.5605C17.8927 41.7934 17.7951 42.0144 17.6278 42.1767C17.4605 42.3389 17.2366 42.4296 17.0036 42.4296C16.7705 42.4296 16.5466 42.3389 16.3793 42.1767C16.212 42.0144 16.1144 41.7934 16.1073 41.5605V19.9917C16.1084 18.9619 16.518 17.9745 17.2462 17.2462C17.9745 16.518 18.9619 16.1084 19.9917 16.1073ZM61.1827 29.386C59.9028 29.3861 58.6516 29.0067 57.5874 28.2956C56.5232 27.5846 55.6938 26.5739 55.2041 25.3914C54.7143 24.2089 54.5863 22.9077 54.8362 21.6524C55.0861 20.3972 55.7027 19.2442 56.608 18.3394C57.5132 17.4346 58.6665 16.8187 59.9219 16.5694C61.1773 16.3202 62.4784 16.4489 63.6607 16.9392C64.8429 17.4295 65.8532 18.2595 66.5637 19.3241C67.2742 20.3887 67.6529 21.6401 67.6521 22.92C67.6503 24.6353 66.9682 26.2799 65.7553 27.4928C64.5425 28.7058 62.8981 29.3882 61.1827 29.3902V29.386ZM74.7224 40.521C77.4432 37.8355 79.3041 34.4016 80.0683 30.6559C80.8325 26.9101 80.4656 23.0217 79.0142 19.4851C77.5628 15.9484 75.0925 12.9232 71.9174 10.7941C68.7422 8.665 65.0057 7.52818 61.1827 7.52818C57.3598 7.52818 53.6233 8.665 50.4481 10.7941C47.273 12.9232 44.8027 15.9484 43.3513 19.4851C41.8999 23.0217 41.533 26.9101 42.2972 30.6559C43.0614 34.4016 44.9223 37.8355 47.6431 40.521C48.1264 38.0975 49.2495 35.8475 50.8957 34.0045C52.5419 32.1614 54.6513 30.7924 57.005 30.0396C55.4403 29.1218 54.2211 27.7145 53.5356 26.0349C52.8501 24.3554 52.7363 22.4969 53.2119 20.7463C53.6874 18.9957 54.7259 17.4503 56.1669 16.3484C57.608 15.2466 59.3717 14.6496 61.1857 14.6496C62.9998 14.6496 64.7634 15.2466 66.2045 16.3484C67.6456 17.4503 68.684 18.9957 69.1596 20.7463C69.6352 22.4969 69.5214 24.3554 68.8359 26.0349C68.1504 27.7145 66.9312 29.1218 65.3665 30.0396C67.719 30.7934 69.8271 32.1628 71.4722 34.0058C73.1173 35.8487 74.2395 38.0982 74.7224 40.521ZM49.2403 41.9353C49.5478 38.9822 50.9387 36.2477 53.1442 34.26C55.3498 32.2722 58.2136 31.1721 61.1827 31.1721C64.1519 31.1721 67.0157 32.2722 69.2213 34.26C71.4268 36.2477 72.8177 38.9822 73.1253 41.9353C69.7267 44.6273 65.5183 46.0922 61.1827 46.0922C56.8472 46.0922 52.6388 44.6273 49.2403 41.9353ZM61.1827 5.75C57.0158 5.74983 52.9424 6.98533 49.4776 9.30026C46.0129 11.6152 43.3124 14.9056 41.7177 18.7553C40.123 22.605 39.7057 26.8412 40.5186 30.9281C41.3315 35.015 43.338 38.769 46.2845 41.7155C49.231 44.662 52.985 46.6685 57.0719 47.4814C61.1588 48.2943 65.395 47.877 69.2447 46.2823C73.0944 44.6876 76.3848 41.9871 78.6997 38.5224C81.0147 35.0576 82.2502 30.9842 82.25 26.8173C82.2437 21.2318 80.0221 15.8769 76.0726 11.9274C72.1231 7.9779 66.7682 5.7563 61.1827 5.75ZM26.8173 53.2055C28.395 53.2055 29.9373 53.6734 31.2492 54.5499C32.561 55.4265 33.5835 56.6723 34.1873 58.13C34.791 59.5876 34.949 61.1916 34.6412 62.739C34.3334 64.2865 33.5737 65.7079 32.458 66.8235C31.3424 67.9392 29.921 68.6989 28.3735 69.0067C26.8261 69.3145 25.2221 69.1566 23.7645 68.5528C22.3068 67.949 21.061 66.9265 20.1844 65.6147C19.3079 64.3028 18.84 62.7605 18.84 61.1827C18.8434 59.0681 19.6849 57.041 21.1802 55.5457C22.6755 54.0504 24.7026 53.2089 26.8173 53.2055ZM26.8173 70.9535C28.7498 70.9537 30.6389 70.3808 32.2458 69.3072C33.8527 68.2337 35.1052 66.7078 35.8449 64.9224C36.5845 63.1371 36.7781 61.1725 36.4012 59.2771C36.0243 57.3817 35.0938 55.6406 33.7274 54.2741C32.3609 52.9075 30.62 51.9769 28.7246 51.5998C26.8292 51.2227 24.8646 51.4162 23.0792 52.1557C21.2938 52.8952 19.7677 54.1475 18.6941 55.7543C17.6204 57.3611 17.0474 59.2502 17.0474 61.1827C17.0505 63.773 18.0808 66.2563 19.9123 68.0879C21.7438 69.9196 24.227 70.9501 26.8173 70.9535ZM12.4599 57.2983C12.4132 57.4708 12.316 57.6255 12.1807 57.7424C12.0455 57.8594 11.8784 57.9332 11.7009 57.9545L7.56815 58.45C7.56466 58.4497 7.56115 58.4502 7.55787 58.4515C7.5546 58.4527 7.55164 58.4547 7.5492 58.4572C7.54677 58.4597 7.54492 58.4627 7.54378 58.466C7.54265 58.4693 7.54226 58.4729 7.54265 58.4763V63.89C7.54213 63.8935 7.54241 63.8972 7.54348 63.9006C7.54455 63.904 7.54638 63.9071 7.54883 63.9098C7.55128 63.9124 7.55429 63.9144 7.55764 63.9157C7.56098 63.917 7.56458 63.9175 7.56815 63.9172L11.6992 64.4119C11.8767 64.4328 12.0439 64.5063 12.1792 64.6232C12.3145 64.74 12.4117 64.8947 12.4582 65.0673C12.7912 66.2983 13.2821 67.4811 13.9185 68.5863C14.0076 68.7414 14.0482 68.9197 14.0352 69.0981C14.0222 69.2765 13.9561 69.447 13.8454 69.5875L11.275 72.8618C11.272 72.864 11.2696 72.8668 11.2679 72.8702C11.2662 72.8735 11.2654 72.8772 11.2654 72.8809C11.2654 72.8846 11.2662 72.8883 11.2679 72.8916C11.2696 72.8949 11.272 72.8978 11.275 72.9L15.1 76.725C15.1023 76.7277 15.1052 76.7299 15.1084 76.7313C15.1116 76.7328 15.1151 76.7336 15.1187 76.7336C15.1223 76.7336 15.1258 76.7328 15.129 76.7313C15.1322 76.7299 15.1351 76.7277 15.1374 76.725L18.415 74.1537C18.5734 74.0297 18.7688 73.9624 18.97 73.9625C19.1273 73.9621 19.2819 74.0034 19.418 74.0824C20.5223 74.7173 21.704 75.2073 22.9336 75.5401C23.1064 75.5866 23.2613 75.6837 23.3784 75.8189C23.4955 75.9542 23.5695 76.1215 23.5907 76.2992L24.0854 80.4319C24.0852 80.4354 24.0858 80.4389 24.0872 80.4421C24.0885 80.4453 24.0905 80.4482 24.0931 80.4506C24.0957 80.4529 24.0988 80.4547 24.1022 80.4557C24.1055 80.4567 24.1091 80.457 24.1126 80.4565H29.5271C29.5441 80.4565 29.5526 80.4497 29.5534 80.4319L30.049 76.3008C30.07 76.1234 30.1437 75.9563 30.2605 75.821C30.3773 75.6858 30.5318 75.5885 30.7043 75.5418C31.9354 75.2093 33.1182 74.7187 34.2233 74.0824C34.3783 73.9928 34.5567 73.9519 34.7352 73.9649C34.9137 73.978 35.0842 74.0443 35.2246 74.1554L38.4954 76.725C38.4977 76.7277 38.5006 76.7299 38.5038 76.7313C38.507 76.7328 38.5106 76.7336 38.5141 76.7336C38.5177 76.7336 38.5212 76.7328 38.5244 76.7313C38.5276 76.7299 38.5305 76.7277 38.5328 76.725L42.3578 72.9C42.3605 72.8978 42.3626 72.895 42.3641 72.8918C42.3656 72.8887 42.3664 72.8852 42.3664 72.8817C42.3664 72.8782 42.3656 72.8748 42.3641 72.8716C42.3626 72.8685 42.3605 72.8657 42.3578 72.8634L39.7874 69.585C39.677 69.4443 39.6112 69.2737 39.5985 69.0953C39.5857 68.9168 39.6267 68.7387 39.716 68.5837C40.3514 67.479 40.8414 66.2967 41.1738 65.0664C41.2204 64.8937 41.3176 64.7389 41.4528 64.6218C41.5881 64.5048 41.7552 64.4308 41.9328 64.4094L46.0663 63.9147C46.0699 63.9149 46.0735 63.9144 46.0769 63.9131C46.0802 63.9119 46.0832 63.9098 46.0857 63.9072C46.0881 63.9046 46.09 63.9015 46.091 63.898C46.0921 63.8946 46.0924 63.891 46.0919 63.8875V58.4755C46.0922 58.472 46.0918 58.4685 46.0907 58.4652C46.0896 58.4619 46.0877 58.4588 46.0853 58.4563C46.0829 58.4538 46.0799 58.4519 46.0766 58.4506C46.0734 58.4494 46.0698 58.4489 46.0663 58.4492L41.9353 57.9545C41.7577 57.9334 41.5905 57.8597 41.4552 57.7427C41.3199 57.6258 41.2228 57.4709 41.1763 57.2983C40.843 56.0673 40.3521 54.8845 39.716 53.7793C39.6269 53.6241 39.5863 53.4458 39.5993 53.2674C39.6123 53.089 39.6784 52.9185 39.7891 52.778L42.3621 49.5046C42.3647 49.5023 42.3669 49.4994 42.3684 49.4962C42.3699 49.493 42.3706 49.4895 42.3706 49.4859C42.3706 49.4823 42.3699 49.4788 42.3684 49.4756C42.3669 49.4724 42.3647 49.4695 42.3621 49.4672L38.5371 45.6422C38.5347 45.6395 38.5319 45.6373 38.5286 45.6359C38.5254 45.6344 38.5219 45.6336 38.5183 45.6336C38.5148 45.6336 38.5113 45.6344 38.5081 45.6359C38.5048 45.6373 38.502 45.6395 38.4996 45.6422L35.2263 48.2169C35.0852 48.3272 34.9145 48.393 34.7358 48.4059C34.5572 48.4188 34.3787 48.3781 34.2233 48.2891C33.119 47.6524 31.9367 47.1618 30.706 46.8297C30.5336 46.7831 30.379 46.686 30.2623 46.5509C30.1455 46.4158 30.0718 46.2488 30.0507 46.0715L29.55 41.9328C29.5502 41.9294 29.5496 41.926 29.5483 41.9229C29.547 41.9197 29.545 41.9169 29.5425 41.9147C29.5399 41.9124 29.5369 41.9107 29.5337 41.9097C29.5304 41.9087 29.527 41.9085 29.5237 41.909H24.11C24.1066 41.9085 24.1031 41.9088 24.0998 41.9097C24.0966 41.9107 24.0935 41.9124 24.0909 41.9146C24.0883 41.9169 24.0863 41.9197 24.0849 41.9228C24.0835 41.926 24.0828 41.9294 24.0828 41.9328L23.5881 46.0672C23.5669 46.2445 23.4931 46.4114 23.3764 46.5465C23.2596 46.6816 23.1051 46.7787 22.9328 46.8254C21.7018 47.1579 20.519 47.6481 19.4138 48.284C19.2588 48.3733 19.0806 48.4143 18.9022 48.4015C18.7237 48.3888 18.5532 48.323 18.4124 48.2126L15.1391 45.638C15.1368 45.6353 15.1339 45.6331 15.1307 45.6316C15.1275 45.6301 15.124 45.6294 15.1204 45.6294C15.1168 45.6294 15.1133 45.6301 15.1101 45.6316C15.1069 45.6331 15.104 45.6353 15.1017 45.638L11.275 49.4672C11.2723 49.4695 11.2701 49.4724 11.2687 49.4756C11.2672 49.4788 11.2664 49.4823 11.2664 49.4859C11.2664 49.4895 11.2672 49.493 11.2687 49.4962C11.2701 49.4994 11.2723 49.5023 11.275 49.5046L13.8497 52.778C13.9597 52.9188 14.0253 53.0894 14.0381 53.2677C14.0508 53.4461 14.01 53.6242 13.9211 53.7793C13.2853 54.8845 12.7951 56.0673 12.4625 57.2983H12.4599ZM7.3548 56.665C6.91215 56.7182 6.50436 56.9319 6.20863 57.2655C5.91289 57.5992 5.74972 58.0297 5.75 58.4755V63.89C5.75051 64.3355 5.91399 64.7653 6.20962 65.0985C6.50525 65.4317 6.91258 65.6452 7.3548 65.6988L10.8985 66.1238C11.2002 67.0998 11.5921 68.0457 12.0689 68.9492L9.8589 71.7542C9.58392 72.1045 9.44686 72.5434 9.47364 72.9879C9.50043 73.4325 9.6892 73.8518 10.0043 74.1665L13.8293 77.9915C14.1446 78.3062 14.5642 78.4947 15.0089 78.5213C15.4536 78.5479 15.8926 78.4109 16.2433 78.136L19.0483 75.926C19.9515 76.4024 20.8967 76.7945 21.872 77.0973L22.2969 80.6418C22.3498 81.0854 22.5636 81.4941 22.8978 81.7905C23.232 82.0869 23.6633 82.2504 24.11 82.25H29.5245C29.9702 82.2503 30.4006 82.0873 30.7342 81.7917C31.0678 81.4961 31.2816 81.0886 31.335 80.646L31.76 77.1016C32.7361 76.7999 33.682 76.4081 34.5854 75.9311L37.3904 78.1369C37.7403 78.4123 38.1791 78.55 38.6237 78.5236C39.0682 78.4973 39.4877 78.3089 39.8027 77.994L43.6277 74.1691C43.943 73.8544 44.1318 73.4349 44.1583 72.9902C44.1848 72.5455 44.0471 72.1066 43.7714 71.7568L41.5614 68.9518C42.0375 68.049 42.4296 67.1043 42.7327 66.1298L46.2763 65.7048C46.7202 65.6518 47.1291 65.4378 47.4256 65.1033C47.722 64.7687 47.8854 64.337 47.8845 63.89V58.4755C47.8848 58.0297 47.7216 57.5992 47.4259 57.2655C47.1301 56.9319 46.7224 56.7182 46.2797 56.665L42.736 56.24C42.4344 55.2639 42.0426 54.3181 41.5656 53.4146L43.7714 50.6096C44.0471 50.2596 44.1849 49.8205 44.1584 49.3757C44.1319 48.9309 43.9431 48.5113 43.6277 48.1965L39.8027 44.3672C39.4878 44.0522 39.0684 43.8637 38.6238 43.8372C38.1793 43.8107 37.7404 43.9482 37.3904 44.2236L34.5854 46.4336C33.6819 45.9574 32.7363 45.5656 31.7609 45.2631L31.3359 41.7186C31.2822 41.2761 31.0683 40.8686 30.7345 40.5732C30.4007 40.2778 29.9702 40.115 29.5245 40.1155H24.11C23.6646 40.116 23.2347 40.2795 22.9015 40.5751C22.5683 40.8707 22.3548 41.2781 22.3012 41.7203L21.8762 45.2648C20.9008 45.5669 19.9556 45.9588 19.0525 46.4353L16.2475 44.2253C15.8971 43.9501 15.458 43.8128 15.0133 43.8393C14.5685 43.8657 14.1488 44.0541 13.8335 44.3689L10.0085 48.1982C9.69339 48.513 9.50458 48.9325 9.4778 49.3771C9.45102 49.8218 9.58811 50.2609 9.86315 50.6113L12.0732 53.4163C11.5967 54.3198 11.2046 55.2653 10.9019 56.2409L7.3548 56.665Z" fill="black"/>
</svg>
