<svg width="88" height="88" viewBox="0 0 88 88" fill="none" xmlns="http://www.w3.org/2000/svg">
<circle cx="44" cy="44" r="12.9635" fill="#DD0004"/>
<path d="M10.8759 53.481C10.2597 53.0115 10.1423 52.1276 10.6118 51.5113C11.0813 50.8951 11.9652 50.7778 12.5814 51.2473L12.7611 51.3866C13.3773 51.8561 13.4947 52.74 13.0252 53.3563C12.5557 53.9725 11.6718 54.0898 11.0556 53.6203L10.8759 53.481ZM56.6126 27.5793C57.3278 28.1295 58.0027 28.7237 58.6409 29.3582L58.7179 29.4425C62.4187 33.1836 64.7037 38.3294 64.7037 43.9999C64.7037 49.7105 62.3856 54.8897 58.6373 58.6379C57.9991 59.2761 57.3206 59.874 56.6017 60.4241C59.8476 59.6025 62.9982 58.4656 66.0098 57.0351C72.4614 53.9689 78.278 49.5528 83.0169 43.9998C82.4631 43.3506 81.8872 42.7087 81.2931 42.0852C80.4165 41.1572 79.5252 40.2806 78.634 39.459C78.0618 38.9382 78.0215 38.0506 78.546 37.4784C79.0668 36.9063 79.9544 36.8659 80.5266 37.3904C81.5132 38.2963 82.4558 39.2206 83.3434 40.1595C84.2273 41.0948 85.0893 42.0778 85.9218 43.101C86.3473 43.6072 86.3656 44.359 85.9328 44.8872C80.7943 51.192 74.3726 56.1733 67.2094 59.5769C60.0427 62.9843 52.1281 64.8108 43.9997 64.8108C39.0116 64.8108 34.0892 64.1176 29.3729 62.7936C24.6049 61.4548 20.0458 59.4669 15.8277 56.8921C15.1639 56.4887 14.9585 55.623 15.3619 54.9629C15.7654 54.299 16.631 54.0936 17.2912 54.4971C21.289 56.9362 25.6096 58.8214 30.1284 60.0904C30.5502 60.2077 30.972 60.3214 31.4011 60.4314C30.6822 59.8776 30.0037 59.2834 29.3655 58.6453L29.3582 58.638C25.6134 54.8895 23.2991 49.7144 23.2991 44.0074C23.2991 38.2968 25.6171 33.1213 29.3618 29.3731L29.3692 29.3657C30.0073 28.7275 30.6858 28.1334 31.4011 27.5832C28.1515 28.4048 25.0009 29.5454 21.9901 30.9759C15.5386 34.0421 9.72191 38.4581 4.98308 44.0112C5.43421 44.5431 5.89268 45.0565 6.34745 45.548C7.05533 46.3109 7.81089 47.0774 8.61049 47.8403C9.17166 48.3758 9.19366 49.267 8.66184 49.8282C8.12635 50.3894 7.23512 50.4114 6.67391 49.8796C5.88168 49.124 5.08579 48.3134 4.28985 47.4553C3.51229 46.6153 2.77505 45.7681 2.07817 44.9135C1.65272 44.4074 1.63437 43.6555 2.06717 43.1274C7.20571 36.8226 13.6274 31.8413 20.7906 28.4377C27.9573 25.0303 35.8719 23.2038 44.0003 23.2038C49.8319 23.2038 55.5539 24.1464 60.9632 25.9326C66.4244 27.7371 71.5817 30.4108 76.2247 33.8549C76.8482 34.317 76.9766 35.1973 76.5181 35.8171C76.056 36.4406 75.1757 36.569 74.5559 36.1105C70.1656 32.8573 65.2766 30.3228 60.0869 28.61C58.9425 28.2322 57.7872 27.8947 56.6172 27.5977L56.6126 27.5793ZM56.6493 31.3497C53.4144 28.1148 48.9397 26.1122 43.9989 26.1122C39.0549 26.1122 34.5842 28.1111 31.3523 31.3461C28.1138 34.5847 26.1148 39.0556 26.1148 44.0002C26.1148 48.9447 28.1137 53.4149 31.3487 56.6468C34.5873 59.8854 39.0582 61.8843 44.0028 61.8843C48.9432 61.8843 53.4138 59.8817 56.6531 56.6468C59.8917 53.4155 61.8906 48.9409 61.8906 44.0002C61.8906 39.0891 59.9174 34.6438 56.7228 31.4165L56.6531 31.3505L56.6493 31.3497ZM27.421 75.5278C27.0322 76.199 26.174 76.4264 25.5027 76.0377C24.8315 75.6489 24.6041 74.7907 24.9929 74.1194L29.1191 66.9746C29.5079 66.3034 30.3661 66.076 31.0374 66.4648C31.7085 66.8536 31.936 67.7118 31.5472 68.3831L27.421 75.5278ZM58.8905 21.0251C58.5018 21.6963 57.6435 21.9237 56.9723 21.535C56.3011 21.1462 56.0737 20.288 56.4625 19.6167L60.5887 12.4719C60.9774 11.8007 61.8357 11.5733 62.5069 11.9621C63.1781 12.3509 63.4055 13.2091 63.0167 13.8804L58.8905 21.0251ZM63.0167 74.1194C63.4055 74.7906 63.1781 75.6525 62.5069 76.0377C61.8357 76.4265 60.9738 76.1991 60.5887 75.5279L56.4625 68.3831C56.0737 67.7119 56.3011 66.85 56.9723 66.4648C57.6435 66.0761 58.5054 66.3035 58.8905 66.9747L63.0167 74.1194ZM31.5472 19.6167C31.936 20.2879 31.7086 21.1498 31.0374 21.535C30.3662 21.9238 29.5043 21.6964 29.1191 21.0252L24.9929 13.8804C24.6041 13.2092 24.8315 12.3473 25.5027 11.9621C26.1739 11.5734 27.0358 11.8008 27.421 12.472L31.5472 19.6167ZM45.4116 79.5916C45.4116 80.3691 44.7807 81 44.0032 81C43.2256 81 42.5948 80.3691 42.5948 79.5916V71.3428C42.5948 70.5653 43.2256 69.9344 44.0032 69.9344C44.7807 69.9344 45.4116 70.5653 45.4116 71.3428V79.5916ZM45.4116 16.6572C45.4116 17.4348 44.7807 18.0656 44.0032 18.0656C43.2256 18.0656 42.5948 17.4348 42.5948 16.6572V8.40841C42.5948 7.63086 43.2256 7 44.0032 7C44.7807 7 45.4116 7.63086 45.4116 8.40841V16.6572ZM44.0032 28.4785C45.5473 28.4785 47.0474 28.7095 48.4631 29.1313C49.9266 29.5678 51.3019 30.2243 52.549 31.0459C53.1542 31.4457 53.3486 32.2379 53.0222 32.8651L51.5587 35.6819L54.5333 34.1342C55.1752 33.8004 55.96 34.0131 56.3525 34.6037C57.3538 35.9203 58.1571 37.4022 58.6962 38.9976C59.2317 40.5674 59.5251 42.2546 59.5251 43.9967C59.5251 48.2806 57.7866 52.1611 54.9771 54.9711C52.1676 57.7806 48.2871 59.5191 44.0027 59.5191C39.7225 59.5191 35.8383 57.7806 33.0284 54.9711C30.2189 52.1616 28.4803 48.2811 28.4803 43.9967C28.4803 39.7123 30.2189 35.8323 33.0284 33.0224C35.8379 30.2129 39.7183 28.4743 44.0027 28.4743L44.0032 28.4785ZM47.6599 31.8271C46.5082 31.4823 45.2795 31.2953 44.0032 31.2953C40.4968 31.2953 37.3205 32.7183 35.0209 35.018C32.7249 37.314 31.2982 40.4939 31.2982 44.0003C31.2982 47.5066 32.7212 50.6829 35.0209 52.9826C37.3169 55.2785 40.4968 56.7053 44.0032 56.7053C47.5095 56.7053 50.6858 55.2822 52.9854 52.9826C55.2814 50.6866 56.7082 47.5066 56.7082 44.0003C56.7082 42.5626 56.4698 41.1834 56.0333 39.9034C55.7069 38.9461 55.2704 38.0402 54.7386 37.2039L48.9766 40.1932C48.5731 40.4316 48.0597 40.4609 47.6122 40.2298C46.9227 39.8704 46.655 39.0194 47.0107 38.3336L49.9119 32.7513C49.1966 32.3736 48.4448 32.0655 47.6599 31.8307L47.6599 31.8271Z" fill="black"/>
</svg>
