<svg width="97" height="86" viewBox="0 0 97 86" fill="none" xmlns="http://www.w3.org/2000/svg">
<path d="M41.5 55L44 57.5L46 56.5L47 54.5L46.5 31L44 29L41.5 31L38.5 33L37.5 36L35.5 39L36.5 43L35.5 47L37.5 49.5L38.5 53L41.5 55Z" fill="#DD0004"/>
<path d="M55 55L52.5 57.5L50.5 56.5L49.5 54.5L50 31L52.5 29L55 31L58 33L59 36L61 39L60 43L61 47L59 49.5L58 53L55 55Z" fill="#DD0004"/>
<path fill-rule="evenodd" clip-rule="evenodd" d="M48.5 22.4437C53.2424 22.444 57.838 24.0932 61.5037 27.1104C65.1694 30.1276 67.6785 34.326 68.6035 38.9904C69.5284 43.6547 68.812 48.4964 66.5763 52.6904C64.3406 56.8845 60.7239 60.1714 56.3425 61.9912C51.961 63.811 47.0859 64.051 42.5478 62.6703C38.0097 61.2897 34.0893 58.3738 31.4547 54.4196C28.8201 50.4653 27.6342 45.7173 28.0991 40.9845C28.564 36.2517 30.6509 31.827 34.0043 28.4643C35.9059 26.5526 38.1654 25.0366 40.653 24.0033C43.1407 22.9701 45.8074 22.4401 48.5 22.4437ZM53.0511 35.7669C53.7363 35.7902 54.4004 36.0107 54.964 36.4021C55.0999 36.5319 55.2027 36.6926 55.2639 36.8705C55.3251 37.0485 55.3428 37.2385 55.3156 37.4248C55.3096 37.7122 55.4147 37.9909 55.6088 38.2026C55.8029 38.4142 56.0711 38.5425 56.3573 38.5605C56.6434 38.5785 56.9255 38.485 57.1445 38.2994C57.3635 38.1138 57.5026 37.8505 57.5325 37.5645C57.5911 37.0349 57.5203 36.4989 57.326 36.0029C57.1318 35.507 56.8201 35.0659 56.4177 34.7178C55.5181 34.0228 54.4299 33.6169 53.296 33.5532C53.0057 33.526 52.7163 33.6143 52.4902 33.799C52.2642 33.9837 52.1195 34.2502 52.0876 34.5409C52.0556 34.8315 52.1388 35.1232 52.3192 35.3529C52.4996 35.5827 52.7629 35.7321 53.0522 35.769L53.0511 35.7669ZM53.2285 49.7962C56.3533 50.2529 58.0695 48.9292 58.3771 45.8252C58.3959 45.6774 58.385 45.5274 58.345 45.3839C58.305 45.2404 58.2366 45.1065 58.1441 44.99C58.0515 44.8735 57.9365 44.7768 57.806 44.7056C57.6755 44.6344 57.5321 44.5902 57.3843 44.5756C57.2364 44.561 57.0872 44.5763 56.9453 44.6206C56.8035 44.6649 56.6719 44.7373 56.5585 44.8335C56.445 44.9297 56.352 45.0477 56.2848 45.1806C56.2177 45.3135 56.1778 45.4585 56.1675 45.6071C56.0134 47.1598 55.1382 47.8204 53.542 47.5889C53.2501 47.5468 52.9535 47.6227 52.7174 47.7999C52.4813 47.9771 52.3251 48.2411 52.2831 48.5338C52.2411 48.8265 52.3168 49.1239 52.4935 49.3607C52.6702 49.5975 52.9334 49.7541 53.2253 49.7962H53.2285ZM53.9896 40.1423C53.797 40.572 53.6802 41.0319 53.6444 41.5016C53.6049 42.0135 53.7331 42.5243 54.0097 42.9562C54.2933 43.3792 54.6983 43.7059 55.171 43.8932C55.7099 44.1059 56.2812 44.2241 56.8601 44.2425C57.0081 44.2549 57.157 44.2374 57.2982 44.191C57.4393 44.1446 57.5697 44.0704 57.6817 43.9726C57.7937 43.8748 57.885 43.7554 57.9502 43.6216C58.0154 43.4878 58.0532 43.3423 58.0613 43.1936C58.0694 43.0449 58.0477 42.896 57.9975 42.7559C57.9472 42.6157 57.8695 42.4871 57.7688 42.3777C57.6681 42.2682 57.5466 42.18 57.4113 42.1185C57.2761 42.057 57.1299 42.0232 56.9815 42.0193C56.6598 42.0133 56.3413 41.9542 56.0387 41.8447C55.9766 41.8248 55.9198 41.7907 55.873 41.7451C55.8607 41.7062 55.8575 41.6649 55.8635 41.6245C55.8872 41.4136 55.945 41.208 56.0345 41.0157C56.15 40.7438 56.1531 40.437 56.043 40.1628C55.9329 39.8886 55.7187 39.6695 55.4476 39.5537C55.1764 39.4379 54.8704 39.4348 54.597 39.5452C54.3236 39.6556 54.1051 39.8704 53.9896 40.1423ZM42.3073 42.5455C41.2157 42.7036 40.6041 41.9364 40.4725 40.244C40.4637 40.0965 40.4258 39.9523 40.3609 39.8196C40.296 39.687 40.2054 39.5686 40.0945 39.4714C39.9836 39.3742 39.8545 39.3 39.7148 39.2533C39.5751 39.2065 39.4274 39.188 39.2805 39.199C39.1336 39.2099 38.9903 39.2501 38.859 39.317C38.7277 39.384 38.611 39.4764 38.5156 39.589C38.4202 39.7016 38.3481 39.8321 38.3035 39.9729C38.2589 40.1137 38.2426 40.262 38.2556 40.4091C38.5096 43.6888 39.9647 45.1357 42.6209 44.7496C42.9128 44.7075 43.176 44.5508 43.3527 44.3141C43.5294 44.0773 43.6051 43.7799 43.5631 43.4872C43.5211 43.1945 43.3649 42.9305 43.1288 42.7533C42.8927 42.5761 42.5961 42.5002 42.3042 42.5423L42.3073 42.5455ZM39.6977 47.2946C39.5714 48.4194 39.8614 49.5515 40.5126 50.4759C40.8627 50.8964 41.303 51.2322 41.8005 51.4582C42.2981 51.6843 42.8402 51.7947 43.3862 51.7812C43.5341 51.7903 43.6822 51.7696 43.822 51.7203C43.9617 51.671 44.0901 51.5942 44.1998 51.4943C44.3094 51.3945 44.398 51.2736 44.4604 51.1389C44.5227 51.0041 44.5575 50.8583 44.5627 50.7098C44.5679 50.5614 44.5434 50.4134 44.4907 50.2746C44.438 50.1358 44.3581 50.009 44.2557 49.9017C44.1534 49.7943 44.0306 49.7086 43.8947 49.6496C43.7588 49.5906 43.6125 49.5595 43.4644 49.558C43.2412 49.5742 43.0172 49.5415 42.808 49.4621C42.5987 49.3828 42.4091 49.2587 42.2524 49.0986C41.9491 48.5897 41.8302 47.9914 41.9157 47.4047C41.9286 47.2554 41.9114 47.1049 41.865 46.9624C41.8186 46.8199 41.7439 46.6882 41.6455 46.5753C41.5471 46.4624 41.427 46.3706 41.2924 46.3054C41.1578 46.2401 41.0114 46.2028 40.8621 46.1957C40.7127 46.1886 40.5635 46.2117 40.4233 46.2639C40.2831 46.316 40.1549 46.3959 40.0462 46.4989C39.9376 46.6019 39.8508 46.7259 39.7911 46.8633C39.7314 47.0008 39.7 47.1489 39.6987 47.2989L39.6977 47.2946ZM42.6684 37.0521C42.6555 36.9146 42.67 36.7759 42.7112 36.6442C42.7523 36.5124 42.8192 36.3901 42.908 36.2846C43.2017 36.08 43.5563 35.9822 43.913 36.0072C44.0619 36.0083 44.2095 35.9792 44.347 35.9219C44.4845 35.8645 44.609 35.78 44.7132 35.6734C44.8175 35.5668 44.8992 35.4402 44.9536 35.3012C45.008 35.1622 45.034 35.0137 45.03 34.8644C45.0259 34.7151 44.992 34.5682 44.9301 34.4324C44.8683 34.2966 44.7798 34.1746 44.6699 34.0738C44.5601 33.973 44.4312 33.8954 44.2908 33.8456C44.1504 33.7958 44.0015 33.7749 43.8529 33.784C42.9586 33.76 42.0869 34.0667 41.4037 34.6458C41.087 34.9532 40.8387 35.3242 40.675 35.7345C40.5112 36.1448 40.4358 36.5851 40.4535 37.0267C40.4621 37.3136 40.581 37.586 40.7852 37.7871C40.9894 37.9882 41.2632 38.1024 41.5494 38.1058C41.8355 38.1092 42.112 38.0016 42.3209 37.8055C42.5298 37.6093 42.6551 37.3398 42.6705 37.0532L42.6684 37.0521ZM41.5947 32.5951L41.4892 32.5867C41.4628 32.5867 41.4807 32.5867 41.3836 32.5867C41.0167 32.5879 40.6544 32.6679 40.321 32.8214C39.9875 32.9749 39.6908 33.1982 39.4507 33.4764C39.2106 33.7546 39.0328 34.0811 38.9291 34.4341C38.8255 34.787 38.7985 35.1581 38.8499 35.5223C38.8674 35.6444 38.8935 35.765 38.9281 35.8833C39.0082 36.1525 38.9839 36.4422 38.86 36.6941C38.736 36.946 38.5216 37.1416 38.2598 37.2416C37.7905 37.4197 37.3761 37.7184 37.0581 38.1077C36.7401 38.4969 36.5296 38.9632 36.4479 39.4597C36.3661 39.9562 36.4158 40.4655 36.5921 40.9366C36.7683 41.4078 37.0649 41.8242 37.4522 42.1443C37.6793 42.3317 37.823 42.602 37.8515 42.8956C37.88 43.1892 37.791 43.4821 37.6042 43.71C37.5556 43.7697 37.5007 43.824 37.4406 43.872C37.1188 44.1413 36.8602 44.4784 36.6832 44.8594C36.5062 45.2404 36.4152 45.6558 36.4166 46.0761C36.4146 46.6585 36.5901 47.2276 36.9195 47.7072C37.2489 48.1868 37.7165 48.554 38.2598 48.7598C38.5239 48.8595 38.7403 49.0562 38.865 49.31C38.9897 49.5639 39.0134 49.8558 38.9312 50.1265C38.8983 50.2415 38.8733 50.3586 38.8563 50.477C38.803 50.8415 38.8287 51.2133 38.9317 51.567C39.0346 51.9207 39.2124 52.2479 39.4528 52.5265C39.6933 52.8051 39.9908 53.0285 40.325 53.1814C40.6593 53.3343 41.0225 53.4132 41.3899 53.4126C41.4828 53.4126 41.4649 53.4126 41.4955 53.4126L41.6011 53.4042C41.8952 53.3823 42.1859 53.4784 42.4094 53.6713C42.6328 53.8643 42.7708 54.1383 42.7929 54.4332V54.4723C42.8405 54.8236 43.0194 55.1435 43.2933 55.3675C43.5673 55.5914 43.9159 55.7026 44.2685 55.6785C44.6211 55.6545 44.9515 55.4969 45.1926 55.2378C45.4338 54.9786 45.5677 54.6373 45.5673 54.2828V31.7165C45.5648 31.3589 45.4257 31.0158 45.1787 30.7579C44.9317 30.5 44.5956 30.3467 44.2394 30.3296C43.8832 30.3125 43.534 30.4329 43.2636 30.6661C42.9932 30.8992 42.8221 31.2274 42.7856 31.5831C42.7597 31.8739 42.6208 32.1428 42.3987 32.3316C42.1766 32.5205 41.8893 32.614 41.599 32.592L41.5947 32.5951ZM38.0054 31.7599C37.5613 32.2044 37.2091 32.7325 36.9688 33.3138C36.7286 33.8952 36.6052 34.5183 36.6055 35.1476C36.6055 35.2884 36.6119 35.4302 36.6256 35.571C36.0183 35.9415 35.4953 36.4357 35.0905 37.0217C34.6857 37.6077 34.4082 38.2724 34.2758 38.9727C34.1435 39.6731 34.1593 40.3935 34.3222 41.0874C34.4851 41.7813 34.7915 42.4331 35.2215 43.0007C34.5755 43.8544 34.2152 44.8911 34.192 45.9625C34.1689 47.034 34.4841 48.0853 35.0927 48.9663C35.4973 49.5533 36.0198 50.0491 36.6266 50.4219C36.6129 50.5659 36.6066 50.7077 36.6066 50.8454C36.6057 52.0171 37.0326 53.1486 37.8067 54.0263C38.5807 54.904 39.6485 55.4671 40.8082 55.6093C41.1171 56.3945 41.6893 57.047 42.4264 57.4546C43.1634 57.8621 44.0191 57.9991 44.8461 57.842C45.673 57.6849 46.4194 57.2434 46.9567 56.5938C47.494 55.9441 47.7885 55.1269 47.7895 54.2828V31.7165C47.7885 30.8724 47.494 30.0552 46.9567 29.4055C46.4194 28.7559 45.673 28.3144 44.8461 28.1573C44.0191 28.0002 43.1634 28.1372 42.4264 28.5447C41.6893 28.9523 41.1171 29.6048 40.8082 30.39C39.7477 30.5192 38.7611 31.0016 38.0064 31.7599H38.0054ZM55.5056 32.5867L55.4 32.5951C55.1097 32.6172 54.8224 32.5237 54.6003 32.3348C54.3783 32.146 54.2393 31.8771 54.2134 31.5862C54.1793 31.2288 54.0093 30.8982 53.7386 30.663C53.4679 30.4279 53.1174 30.3063 52.7597 30.3235C52.402 30.3407 52.0646 30.4953 51.8175 30.7552C51.5705 31.0152 51.4327 31.3605 51.4327 31.7196V54.285C51.4343 54.6381 51.5691 54.9775 51.81 55.2351C52.0509 55.4926 52.3802 55.6491 52.7315 55.6731C53.0828 55.6971 53.4302 55.5868 53.7038 55.3645C53.9773 55.1421 54.1568 54.8241 54.2061 54.4745V54.4353C54.2282 54.1404 54.3662 53.8664 54.5896 53.6734C54.8131 53.4805 55.1038 53.3844 55.3979 53.4063L55.5035 53.4147C55.5299 53.4147 55.512 53.4147 55.6091 53.4147C55.9759 53.4135 56.3383 53.3335 56.6717 53.18C57.0051 53.0265 57.3019 52.8032 57.542 52.525C57.7821 52.2468 57.9599 51.9203 58.0635 51.5674C58.1672 51.2144 58.1942 50.8433 58.1427 50.4791C58.1262 50.3606 58.1012 50.2435 58.0678 50.1287C57.985 49.8575 58.0086 49.5649 58.1335 49.3106C58.2585 49.0562 58.4755 48.8593 58.7403 48.7598C59.2073 48.5817 59.6197 48.2841 59.9366 47.8967C60.2535 47.5093 60.4638 47.0455 60.5466 46.5513C60.6294 46.0572 60.5819 45.5499 60.4087 45.0799C60.2356 44.6098 59.9428 44.1934 59.5595 43.872C59.4993 43.824 59.4445 43.7697 59.3958 43.71C59.2093 43.482 59.1205 43.1891 59.149 42.8956C59.1775 42.6021 59.321 42.3319 59.5479 42.1443C59.9348 41.8241 60.2312 41.4076 60.4072 40.9365C60.5833 40.4654 60.6329 39.9562 60.5512 39.4598C60.4694 38.9635 60.2591 38.4973 59.9413 38.108C59.6235 37.7188 59.2094 37.42 58.7403 37.2416C58.4778 37.1428 58.2623 36.9481 58.1371 36.6965C58.012 36.4449 57.9865 36.1552 58.0657 35.8855C58.1002 35.7671 58.1263 35.6465 58.1438 35.5245C58.197 35.1599 58.1713 34.7881 58.0684 34.4344C57.9654 34.0808 57.7877 33.7535 57.5472 33.4749C57.3068 33.1963 57.0093 32.9729 56.675 32.82C56.3408 32.6671 55.9775 32.5883 55.6101 32.5888C55.5172 32.5888 55.5341 32.5888 55.5046 32.5888L55.5056 32.5867ZM56.1908 30.39C55.8819 29.6048 55.3097 28.9523 54.5726 28.5447C53.8356 28.1372 52.9799 28.0002 52.1529 28.1573C51.326 28.3144 50.5796 28.7559 50.0423 29.4055C49.505 30.0552 49.2105 30.8724 49.2095 31.7165V54.285C49.2105 55.129 49.505 55.9462 50.0423 56.5959C50.5796 57.2456 51.326 57.687 52.1529 57.8441C52.9799 58.0012 53.8356 57.8642 54.5726 57.4567C55.3097 57.0491 55.8819 56.3966 56.1908 55.6115C57.3504 55.4688 58.4178 54.9055 59.1918 54.0279C59.9658 53.1503 60.3929 52.0191 60.3924 50.8475C60.3924 50.7067 60.3861 50.5648 60.3724 50.424C61.1152 49.9683 61.729 49.3293 62.1554 48.5679C62.5818 47.8065 62.8064 46.9483 62.8078 46.0751C62.808 45.3241 62.6418 44.5824 62.3212 43.9037C62.1718 43.585 61.9892 43.283 61.7764 43.0028C62.2052 42.4349 62.5105 41.7832 62.6726 41.0898C62.8348 40.3963 62.8502 39.6764 62.7179 38.9766C62.5856 38.2768 62.3085 37.6125 61.9045 37.0267C61.5005 36.4409 60.9786 35.9464 60.3724 35.5753C60.3861 35.4313 60.3924 35.2894 60.3924 35.1518C60.3929 33.9802 59.9658 32.849 59.1918 31.9714C58.4178 31.0938 57.3504 30.5305 56.1908 30.3878V30.39ZM49.6138 17.3505V13.4112C50.7898 13.137 51.8242 12.4386 52.5199 11.449C53.2156 10.4594 53.5241 9.2478 53.3865 8.0449C53.2489 6.842 52.6748 5.73187 51.7737 4.92597C50.8727 4.12008 49.7074 3.67471 48.5 3.67471C47.2926 3.67471 46.1274 4.12008 45.2263 4.92597C44.3252 5.73187 43.7512 6.842 43.6136 8.0449C43.476 9.2478 43.7844 10.4594 44.4801 11.449C45.1758 12.4386 46.2102 13.137 47.3863 13.4112V17.3505C43.646 17.5075 39.9864 18.4896 36.6678 20.2268L31.2067 10.7412C32.156 9.89865 32.789 8.75547 33.0002 7.50195C33.2115 6.24842 32.9884 4.96015 32.368 3.85149C32.3564 3.82925 32.3447 3.80596 32.331 3.78267C31.6024 2.51752 30.4071 1.59033 29.0028 1.20115C27.5986 0.811965 26.0981 0.992001 24.825 1.70241C24.7632 1.73174 24.7045 1.76721 24.6498 1.80827C23.4232 2.55065 22.5309 3.74041 22.1599 5.12809C21.7889 6.51576 21.9681 7.99359 22.6598 9.25171C22.6875 9.31386 22.7207 9.37338 22.759 9.42956C23.4084 10.5193 24.4099 11.3535 25.5971 11.7939C26.7844 12.2343 28.0862 12.2544 29.2864 11.8507L34.7496 21.3405C31.5924 23.3591 28.9134 26.0455 26.9005 29.2117L23.4991 27.2415C23.8199 26.1896 23.7806 25.0603 23.3875 24.0334C22.9943 23.0065 22.27 22.1409 21.3296 21.5745C21.2797 21.54 21.2271 21.5096 21.1723 21.4835C20.058 20.8654 18.7479 20.705 17.518 21.0362C16.2881 21.3673 15.2343 22.1641 14.5785 23.2588C14.5377 23.3161 14.5024 23.3771 14.4729 23.4409C13.8569 24.5703 13.7061 25.8966 14.053 27.136C14.3999 28.3754 15.2167 29.4294 16.3288 30.0724C17.2913 30.6304 18.414 30.8447 19.5137 30.6803C20.6133 30.5159 21.6249 29.9825 22.3832 29.1672L25.7815 31.1342C24.0492 34.4621 23.0698 38.132 22.9132 41.8828H11.9952C11.7192 40.5308 10.9526 39.3298 9.84392 38.5123C8.73522 37.6949 7.36338 37.3193 5.99428 37.4584C4.62518 37.5975 3.35631 38.2413 2.43359 39.2651C1.51086 40.2888 1 41.6197 1 42.9996C1 44.3796 1.51086 45.7105 2.43359 46.7342C3.35631 47.758 4.62518 48.4018 5.99428 48.5409C7.36338 48.68 8.73522 48.3044 9.84392 47.487C10.9526 46.6695 11.7192 45.4685 11.9952 44.1165H22.9216C23.0782 47.8661 24.0572 51.535 25.7889 54.8619L22.3896 56.83C21.6401 56.0254 20.6436 55.4955 19.559 55.325C18.4743 55.1544 17.3639 55.3529 16.4048 55.8888C16.3805 55.9015 16.3563 55.9132 16.333 55.9269C15.7738 56.2502 15.2836 56.6809 14.8905 57.1942C14.4973 57.7076 14.2089 58.2936 14.0417 58.9188C13.8746 59.5441 13.8319 60.1962 13.9162 60.8379C14.0005 61.4797 14.2102 62.0985 14.5331 62.659C15.1766 63.7822 16.2356 64.6058 17.4805 64.9514C18.7255 65.297 20.0561 65.1367 21.184 64.5053C21.2082 64.4936 21.2315 64.4809 21.2547 64.4671C22.2175 63.9103 22.9636 63.0425 23.3713 62.0056C23.7789 60.9686 23.824 59.8237 23.4991 58.7578L26.9016 56.7876C28.9146 59.9528 31.5931 62.6385 34.7496 64.6566L29.2864 74.1496C28.086 73.7467 26.7844 73.7672 25.5972 74.2077C24.4101 74.6483 23.4087 75.4824 22.759 76.5718C22.7191 76.6289 22.6838 76.6891 22.6535 76.7518C21.9535 78.0306 21.7818 79.5339 22.1755 80.9383C22.5691 82.3427 23.4966 83.5361 24.7585 84.2619C26.0205 84.9877 27.516 85.1879 28.9236 84.8195C30.3312 84.4511 31.5384 83.5434 32.2856 82.2918C32.3195 82.2429 32.3491 82.1912 32.3743 82.1372C32.991 81.0281 33.2109 79.7409 32.9976 78.4892C32.7842 77.2375 32.1504 76.0967 31.2014 75.2559L36.6625 65.7693C39.9811 67.5065 43.6408 68.4886 47.381 68.6457V72.5902C46.205 72.8644 45.1706 73.5628 44.4749 74.5524C43.7791 75.542 43.4707 76.7536 43.6083 77.9565C43.7459 79.1594 44.3199 80.2695 45.221 81.0754C46.1221 81.8813 47.2873 82.3267 48.4948 82.3267C49.7022 82.3267 50.8674 81.8813 51.7685 81.0754C52.6696 80.2695 53.2436 79.1594 53.3812 77.9565C53.5188 76.7536 53.2104 75.542 52.5146 74.5524C51.8189 73.5628 50.7845 72.8644 49.6085 72.5902V68.651C53.348 68.4943 57.007 67.5125 60.3249 65.7757L65.786 75.2623C64.8385 76.1043 64.2067 77.2459 63.9955 78.4976C63.7842 79.7493 64.0063 81.0358 64.6247 82.1436C64.6363 82.1679 64.6479 82.1902 64.6616 82.2134C65.3903 83.4794 66.5862 84.4072 67.9912 84.7965C69.3962 85.1857 70.8975 85.0051 72.1708 84.2937C72.2326 84.2637 72.2916 84.2283 72.3471 84.1878C73.5733 83.4451 74.4652 82.2553 74.836 80.8677C75.2068 79.4801 75.0276 78.0025 74.336 76.7444C74.3083 76.6823 74.2751 76.6227 74.2368 76.5666C73.5868 75.4787 72.5858 74.646 71.3995 74.2065C70.2132 73.7669 68.9128 73.7469 67.7137 74.1496L62.2504 64.6598C65.4067 62.6412 68.0849 59.9552 70.0974 56.7897L73.4989 58.7599C73.1781 59.8118 73.2173 60.9411 73.6105 61.968C74.0036 62.995 74.728 63.8605 75.6683 64.4269C75.7183 64.4614 75.7709 64.4918 75.8256 64.518C76.94 65.136 78.2501 65.2964 79.48 64.9652C80.7099 64.6341 81.7637 63.8373 82.4195 62.7426C82.4602 62.6853 82.4956 62.6244 82.525 62.5605C83.1412 61.431 83.2919 60.1045 82.945 58.8649C82.5982 57.6254 81.7813 56.5712 80.6691 55.928C79.7066 55.3702 78.5839 55.156 77.4843 55.3204C76.3847 55.4848 75.3732 56.018 74.6147 56.8332L71.2164 54.8651C72.9489 51.5377 73.9283 47.868 74.0848 44.1176H85.0112C85.2871 45.4687 86.0534 46.6689 87.1615 47.4858C88.2696 48.3026 89.6406 48.6778 91.0089 48.5388C92.3771 48.3997 93.6452 47.7562 94.5673 46.733C95.4895 45.7099 96 44.3798 96 43.0007C96 41.6216 95.4895 40.2915 94.5673 39.2684C93.6452 38.2452 92.3771 37.6017 91.0089 37.4627C89.6406 37.3236 88.2696 37.6988 87.1615 38.5157C86.0534 39.3325 85.2871 40.5327 85.0112 41.8838H74.0784C73.9218 38.1331 72.9425 34.4631 71.2101 31.1353L74.6084 29.1683C75.3578 29.9736 76.3546 30.504 77.4396 30.6749C78.5247 30.8459 79.6357 30.6476 80.5952 30.1115C80.6195 30.0999 80.6438 30.0861 80.667 30.0734C81.2257 29.7495 81.7153 29.3184 82.1079 28.8047C82.5005 28.291 82.7883 27.7049 82.955 27.0796C83.1216 26.4544 83.1638 25.8024 83.0792 25.1608C82.9946 24.5192 82.7847 23.9006 82.4617 23.3403C81.8182 22.2171 80.7591 21.3935 79.5141 21.0481C78.2691 20.7027 76.9385 20.8633 75.8108 21.4951C75.7866 21.5067 75.7633 21.5184 75.7401 21.5322C74.7771 22.0894 74.0309 22.9575 73.6233 23.9948C73.2157 25.0321 73.1707 26.1774 73.4957 27.2436L70.0995 29.2117C68.0866 26.0459 65.4081 23.3595 62.2515 21.3405L67.7137 11.8518C68.914 12.2547 70.2157 12.2342 71.4028 11.7937C72.59 11.3532 73.5914 10.519 74.241 9.42956C74.2791 9.37232 74.3127 9.31215 74.3413 9.24959C75.0413 7.97077 75.213 6.46754 74.8193 5.06314C74.4257 3.65873 73.4982 2.46533 72.2363 1.73953C70.9743 1.01373 69.4788 0.813514 68.0712 1.18193C66.6636 1.55034 65.4564 2.45796 64.7092 3.70963C64.6753 3.75855 64.6456 3.81026 64.6205 3.86419C64.0042 4.97337 63.7845 6.26049 63.9978 7.51208C64.2111 8.76367 64.8447 9.90453 65.7934 10.7455L60.3312 20.2311C57.0131 18.4937 53.3537 17.5116 49.6138 17.3547V17.3505ZM65.0269 26.4253C61.2024 22.5915 56.1706 20.2062 50.789 19.6756C45.4073 19.1451 40.0086 20.5022 35.5129 23.5157C31.0171 26.5292 27.7024 31.0127 26.1334 36.2023C24.5645 41.3918 24.8384 46.9664 26.9086 51.9761C28.9787 56.9858 32.717 61.1208 37.4864 63.6764C42.2558 66.2321 47.7614 67.0503 53.065 65.9918C58.3685 64.9332 63.1421 62.0633 66.5722 57.871C70.0023 53.6788 71.8768 48.4235 71.8763 43.0007C71.8802 39.9217 71.2773 36.8723 70.1022 34.0277C68.9271 31.1832 67.203 28.5995 65.029 26.4253H65.0269ZM28.3859 3.34651C28.8089 3.45952 29.2055 3.65528 29.5528 3.92254C29.9001 4.18979 30.1913 4.52327 30.4097 4.90379L30.4403 4.95249C30.8622 5.7199 30.9673 6.62255 30.7333 7.46683C30.4992 8.31112 29.9445 9.0298 29.1882 9.46873L29.1386 9.49837C28.3736 9.91994 27.4744 10.0241 26.6337 9.78864C25.7929 9.55314 25.0777 8.99668 24.6413 8.23857L24.6107 8.18987C24.1894 7.42295 24.084 6.52113 24.3172 5.67731C24.5504 4.8335 25.1037 4.11471 25.8586 3.67469C26.2372 3.45511 26.6554 3.31271 27.0892 3.25566C27.5229 3.19861 27.9636 3.22805 28.3859 3.34227V3.34651ZM39.154 24.5525L37.2316 25.6694L37.2453 25.6927L39.1677 24.5769L39.154 24.5525ZM4.19573 40.6399C4.74036 40.094 5.4569 39.7543 6.22327 39.6788C6.98963 39.6032 7.75841 39.7965 8.39862 40.2256C9.03882 40.6548 9.51085 41.2932 9.73428 42.0322C9.95771 42.7712 9.91872 43.5651 9.62395 44.2785C9.32918 44.9919 8.79686 45.5807 8.1177 45.9447C7.43854 46.3086 6.65454 46.4252 5.89929 46.2745C5.14404 46.1238 4.46425 45.7152 3.97575 45.1182C3.48725 44.5213 3.22026 43.7729 3.22027 43.0007C3.21975 42.5622 3.30566 42.1278 3.47306 41.7227C3.64047 41.3175 3.88606 40.9496 4.19573 40.6399ZM27.8992 41.8838H27.9235V44.1176H27.8992V41.8838ZM24.3099 80.2973C24.1949 79.873 24.1647 79.4301 24.2211 78.994C24.2774 78.558 24.4192 78.1374 24.6382 77.7565C25.0803 76.9892 25.8079 76.4292 26.6614 76.1993C27.5149 75.9695 28.4244 76.0886 29.1903 76.5306C29.9544 76.9744 30.5117 77.704 30.7403 78.5593C30.9689 79.4146 30.85 80.3259 30.4097 81.0934C30.0808 81.6663 29.5897 82.1285 28.9986 82.4213C28.4075 82.7141 27.743 82.8243 27.0894 82.738C26.4358 82.6517 25.8224 82.3728 25.327 81.9366C24.8316 81.5004 24.4765 80.9265 24.3067 80.2877L24.3099 80.2973ZM37.2368 60.3405L39.1593 61.4489L39.173 61.4246L37.2506 60.3172L37.2368 60.3405ZM68.6121 82.6591C68.189 82.5461 67.7924 82.3504 67.4451 82.0831C67.0978 81.8158 66.8066 81.4824 66.5883 81.1019L66.5577 81.0532C66.1355 80.2858 66.0302 79.3831 66.2643 78.5387C66.4983 77.6943 67.0532 76.9757 67.8097 76.5369L67.8583 76.5073C68.6232 76.0849 69.5226 75.9798 70.3639 76.2145C71.2051 76.4492 71.9212 77.005 72.3587 77.7628L72.3883 77.8115C72.8096 78.5785 72.915 79.4803 72.6818 80.3241C72.4486 81.1679 71.8953 81.8867 71.1404 82.3267C70.7618 82.5463 70.3436 82.6887 69.9098 82.7458C69.4761 82.8028 69.0344 82.7734 68.6121 82.6591ZM57.844 61.4489L59.7664 60.3415L59.7527 60.3172L57.8271 61.4214L57.8408 61.4457L57.844 61.4489ZM92.8075 45.3573C92.2629 45.9032 91.5463 46.2429 90.78 46.3184C90.0136 46.3939 89.2448 46.2007 88.6046 45.7715C87.9644 45.3424 87.4924 44.704 87.2689 43.965C87.0455 43.226 87.0845 42.4321 87.3793 41.7187C87.674 41.0053 88.2064 40.4165 88.8855 40.0525C89.5647 39.6885 90.3487 39.572 91.1039 39.7227C91.8592 39.8734 92.539 40.282 93.0275 40.879C93.516 41.4759 93.783 42.2243 93.783 42.9965C93.7835 43.435 93.6976 43.8694 93.5302 44.2745C93.3628 44.6796 93.1172 45.0476 92.8075 45.3573ZM69.1008 44.1176H69.0776V41.8838H69.1008V44.1176ZM72.6902 5.70414C72.8045 6.12769 72.8343 6.56972 72.7777 7.00483C72.7212 7.43995 72.5795 7.85958 72.3608 8.23963C71.9187 9.00692 71.1911 9.56695 70.3376 9.79679C69.4842 10.0266 68.5746 9.9075 67.8087 9.46556C67.0446 9.02167 66.4873 8.29213 66.2587 7.43684C66.0301 6.58154 66.149 5.67027 66.5893 4.90273C66.9183 4.32977 67.4094 3.86762 68.0004 3.57483C68.5915 3.28205 69.256 3.17181 69.9096 3.2581C70.5632 3.34438 71.1766 3.6233 71.672 4.05951C72.1674 4.49571 72.5225 5.06958 72.6923 5.70837L72.6902 5.70414ZM59.7632 25.6652L57.8419 24.5483L57.8271 24.5726L59.7495 25.6885L59.7632 25.6652ZM18.096 23.19C18.4379 23.0974 18.7946 23.0733 19.1457 23.1193C19.4967 23.1653 19.8353 23.2803 20.142 23.4579C20.7605 23.8174 21.2118 24.408 21.3974 25.1003C21.5829 25.7927 21.4876 26.5305 21.1322 27.1526C20.7812 27.7609 20.2084 28.2088 19.5345 28.402C18.8606 28.5951 18.1382 28.5184 17.5196 28.1879C17.4783 28.1596 17.4353 28.1338 17.3908 28.1107C16.8026 27.7502 16.374 27.178 16.1927 26.511C16.0113 25.8441 16.091 25.1328 16.4154 24.5229C16.4437 24.4811 16.4694 24.4376 16.4924 24.3927C16.8523 23.7994 17.4269 23.3685 18.096 23.19ZM31.2141 31.7059L30.0993 33.6337L30.1236 33.6475L31.2363 31.7196L31.2141 31.7059ZM16.4133 61.4775C16.0899 60.8676 16.0107 60.157 16.1917 59.4905C16.3728 58.824 16.8005 58.2519 17.3877 57.8908C17.4334 57.8681 17.4775 57.8423 17.5196 57.8135C18.1381 57.4831 18.8603 57.4064 19.534 57.5995C20.2077 57.7927 20.7803 58.2406 21.1312 58.8488L21.1597 58.8954C21.4981 59.5166 21.5811 60.2458 21.3907 60.9274C21.2004 61.609 20.7519 62.189 20.1409 62.5436L20.0945 62.5721C19.489 62.9028 18.7806 62.9895 18.1136 62.8144C17.4466 62.6393 16.8714 62.2157 16.5051 61.6299C16.4797 61.5768 16.45 61.5258 16.4164 61.4775H16.4133ZM30.1035 52.3677L31.2088 54.2955L31.232 54.2818L30.131 52.354L30.1067 52.3677H30.1035ZM46.5998 79.3127C46.159 78.8705 45.8849 78.2886 45.8241 77.6663C45.7633 77.0441 45.9196 76.4199 46.2664 75.9003C46.6132 75.3807 47.1289 74.9977 47.7257 74.8168C48.3226 74.6359 48.9635 74.6681 49.5392 74.908C50.115 75.148 50.59 75.5807 50.8831 76.1326C51.1763 76.6844 51.2695 77.3211 51.1469 77.9341C51.0243 78.5472 50.6935 79.0986 50.2108 79.4944C49.7281 79.8902 49.1235 80.1058 48.5 80.1046C48.1469 80.1044 47.7973 80.0344 47.4712 79.8985C47.1452 79.7626 46.849 79.5636 46.5998 79.3127ZM47.3916 63.6626V63.6382H49.6191V63.6626H47.3916ZM78.9103 62.8156C78.5686 62.9086 78.2118 62.9327 77.8607 62.8868C77.5095 62.8408 77.1709 62.7256 76.8644 62.5478C76.2459 62.1882 75.7946 61.5977 75.609 60.9053C75.4235 60.213 75.5188 59.4751 75.8742 58.8531C76.2252 58.2447 76.798 57.7968 77.4719 57.6037C78.1458 57.4105 78.8682 57.4873 79.4868 57.8177C79.5278 57.8461 79.5709 57.8716 79.6155 57.8939C80.2036 58.2548 80.6321 58.8272 80.8134 59.4942C80.9947 60.1613 80.9152 60.8726 80.591 61.4828C80.5629 61.5247 80.5372 61.5682 80.5139 61.613C80.1518 62.206 79.5749 62.6354 78.904 62.8114L78.9103 62.8156ZM65.787 54.2955L66.9008 52.3677L66.8765 52.354L65.7638 54.2818L65.787 54.2955ZM80.5868 24.5239C80.9102 25.1338 80.9894 25.8445 80.8083 26.5109C80.6273 27.1774 80.1996 27.7495 79.6124 28.1107C79.5667 28.1333 79.5226 28.1592 79.4804 28.1879C78.8621 28.5182 78.1401 28.5949 77.4664 28.4019C76.7928 28.209 76.2201 27.7615 75.8689 27.1536L75.8404 27.106C75.5019 26.4848 75.419 25.7556 75.6093 25.074C75.7997 24.3924 76.2482 23.8124 76.8591 23.4579L76.9066 23.4293C77.512 23.0983 78.2206 23.0115 78.8876 23.1866C79.5547 23.3617 80.1299 23.7855 80.496 24.3715C80.5214 24.4246 80.5511 24.4756 80.5847 24.5239H80.5868ZM66.9008 33.6337L65.787 31.7059L65.7638 31.7196L66.8765 33.6475L66.9008 33.6337ZM50.4056 6.68869C50.8463 7.13094 51.1204 7.7128 51.1812 8.33507C51.242 8.95734 51.0857 9.58149 50.739 10.1011C50.3922 10.6207 49.8764 11.0037 49.2796 11.1846C48.6828 11.3655 48.0419 11.3333 47.4661 11.0934C46.8903 10.8534 46.4154 10.4207 46.1222 9.86885C45.829 9.31703 45.7358 8.68032 45.8584 8.06728C45.981 7.45424 46.3118 6.90282 46.7945 6.50702C47.2772 6.11123 47.8818 5.89557 48.5053 5.89682C48.8584 5.89712 49.208 5.96721 49.534 6.10309C49.8601 6.23896 50.1562 6.43796 50.4056 6.68869ZM49.6138 22.3389V22.3632H47.3863V22.3389H49.6138ZM61.4217 30.0438C58.4324 27.0456 54.4989 25.1796 50.2914 24.7637C46.0839 24.3479 41.8628 25.4079 38.3474 27.7631C34.8319 30.1184 32.2395 33.6232 31.0121 37.6803C29.7846 41.7374 29.9979 46.0958 31.6157 50.0129C33.2335 53.93 36.1556 57.1633 39.8842 59.1621C43.6128 61.1608 47.9171 61.8011 52.0637 60.9741C56.2104 60.147 59.9428 57.9037 62.6249 54.6264C65.3071 51.349 66.773 47.2404 66.773 43.0007C66.7762 40.594 66.3051 38.2103 65.3867 35.9867C64.4684 33.7632 63.1209 31.7435 61.4217 30.0438Z" fill="black" stroke="black" stroke-width="0.2"/>
</svg>
