<svg width="85" height="87" viewBox="0 0 85 87" fill="none" xmlns="http://www.w3.org/2000/svg">
<path d="M27.4428 32.739L30.3316 35.6278L32.2574 34.6648L35.1461 34.1833L37.0719 34.6648L38.0348 36.1091L39.4792 38.0349L40.4421 39.4793L44.2937 38.9978C44.4542 38.6769 44.7752 37.9386 44.7752 37.5535C44.7752 37.072 45.7381 36.1091 46.2195 36.1091C46.701 36.1091 46.8815 35.6278 47.1824 35.1462C47.4833 34.6647 48.6268 34.1833 49.1082 34.1833H51.5155C52.1575 34.5043 53.5376 35.2425 53.9228 35.6278C54.3079 36.013 55.0462 35.1463 55.3671 34.6648L57.293 33.4009L56.8115 32.2575L55.8486 29.3688V26.9615L57.293 24.0728L59.2188 23.11C60.1817 22.6285 60.1817 22.8691 60.1817 22.6284C60.1817 22.3877 61.1446 22.147 61.1446 21.6655V20.7026V19.7397C61.1446 19.3545 60.8236 18.6163 60.6631 18.2953L60.1817 17.8139C59.7002 17.6534 58.641 17.3324 58.2559 17.3324C57.7744 17.3324 57.293 16.3696 56.3301 16.3695C55.3671 16.3694 55.8486 14.4437 55.8486 14.1428V11.0735C55.8486 10.1106 56.3301 9.62917 56.3301 9.14771V8.18481C56.1696 7.86384 55.7523 7.2219 55.3671 7.2219C54.8857 7.2219 54.4042 6.25899 53.9228 6.01837C53.5376 5.82587 53.4413 5.93816 53.4413 6.01837C53.1204 6.2591 52.3821 6.74055 51.997 6.74055H51.0341H48.1453H46.701C46.2195 6.74055 45.2566 4.81463 44.7752 4.33318C44.2937 3.85172 44.2937 2.40747 43.8123 1.44456C43.3308 0.481653 43.3308 1.44456 42.3679 1.44456C41.405 1.44456 40.4421 1.44456 39.9606 1.92601C39.4792 2.40747 39.4792 3.85183 38.9977 4.33328C38.6126 4.71845 37.5534 6.09861 37.0719 6.74055H32.7388L30.3316 6.01837L28.4057 8.66637C28.5662 9.78976 28.8872 12.2291 28.8872 12.9994C28.8872 13.7698 27.9243 15.5672 27.4428 16.3696L23.1097 18.7769L22.6283 23.11L25.9985 23.5914L28.8872 27.9245L27.4428 32.739Z" fill="#DD0004"/>
<path d="M45.9471 11.5003C40.9188 9.47914 35.1856 11.9297 33.1664 16.9551C31.1462 21.9835 33.5939 27.7166 38.6213 29.7358C39.8182 30.2173 41.0545 30.4445 42.2716 30.4445C46.1685 30.4445 49.8632 28.1114 51.4019 24.2809C52.3802 21.8448 52.3514 19.1737 51.321 16.7597C50.2907 14.3457 48.3813 12.4776 45.9471 11.5003ZM48.7039 23.1958C48.0144 24.9107 46.7001 26.2539 45.0005 26.98C43.302 27.707 41.4214 27.7253 39.7074 27.0378C37.9925 26.3483 36.6492 25.0339 35.9232 23.3344C35.1972 21.6358 35.1769 19.7553 35.8654 18.0413C36.5549 16.3264 37.8692 14.9831 39.5688 14.2571C40.4421 13.8844 41.3627 13.6976 42.2832 13.6976C43.1556 13.6976 44.028 13.8652 44.8628 14.1993C46.5768 14.8878 47.9201 16.2031 48.6461 17.9027C49.3721 19.6012 49.3914 21.4818 48.7039 23.1958Z" fill="black"/>
<path d="M54.0683 37.5874L55.1246 36.7487C56.4582 35.6885 57.657 34.4637 58.6873 33.1099L59.5058 32.0352L58.4947 31.1407C57.2458 30.0334 56.8222 28.2529 57.4423 26.7075C58.0624 25.163 59.6021 24.1654 61.2689 24.2328L62.6169 24.2848L62.77 22.9435C62.9636 21.2565 62.9443 19.5425 62.7142 17.8516L62.5322 16.5141L61.1861 16.596C59.5299 16.6961 57.9613 15.7361 57.3075 14.2051C56.6537 12.6741 57.0379 10.8831 58.2617 9.74972L59.2525 8.834L58.4139 7.77769C57.3537 6.44406 56.1289 5.24524 54.775 4.21493L53.7004 3.39646L52.8059 4.40751C51.6985 5.65737 49.9172 6.08104 48.3727 5.45997C46.8282 4.83986 45.8335 3.30209 45.898 1.63338L45.95 0.285306L44.6087 0.132203C42.9216 -0.061341 41.2086 -0.0420827 39.5168 0.188052L38.1793 0.370042L38.2612 1.71619C38.3613 3.38298 37.4003 4.94193 35.8703 5.59478C34.3412 6.25052 32.5482 5.86439 31.4149 4.64054L30.5001 3.64874L29.4438 4.48743C28.1102 5.54759 26.9114 6.77241 25.8811 8.12626L25.0626 9.20086L26.0736 10.0954C27.3225 11.2027 27.7462 12.9832 27.1261 14.5286C26.505 16.0731 24.9615 17.0601 23.2995 17.0033L21.9514 16.9513L21.7983 18.2917C21.6048 19.9787 21.6241 21.6927 21.8542 23.3835L22.0362 24.721L23.3833 24.6392C25.0655 24.5448 26.6071 25.499 27.2609 27.0301C27.9147 28.5611 27.5305 30.3521 26.3067 31.4854L25.3158 32.4012L26.1545 33.4575C27.2147 34.7911 28.4395 35.9899 29.7934 37.0202L30.868 37.8387L31.7625 36.8276C32.8708 35.5778 34.6503 35.157 36.1957 35.7752C37.7402 36.3963 38.7349 37.934 38.6704 39.6018L38.6184 40.9498L39.9597 41.1029C40.7291 41.1906 41.5023 41.2349 42.2765 41.2349C43.2038 41.2349 44.1311 41.1723 45.0516 41.0461L46.3881 40.8632L46.3063 39.518C46.2061 37.8512 47.1671 36.2932 48.6972 35.6394C50.2301 34.9866 52.0182 35.3708 53.1525 36.5946L54.0683 37.5874ZM47.5561 32.9664C45.3366 33.9139 43.8065 35.9572 43.4638 38.2884C42.8071 38.3317 42.1465 38.3394 41.4879 38.3115C41.096 35.988 39.5216 33.9784 37.2809 33.079C35.0422 32.1797 32.5165 32.5398 30.6243 33.9485C30.1294 33.5143 29.6576 33.0521 29.2127 32.5648C30.5772 30.6448 30.8853 28.1114 29.9378 25.8909C28.9903 23.6705 26.947 22.1404 24.6158 21.7986C24.5715 21.1409 24.5638 20.4804 24.5927 19.8227C26.9162 19.4308 28.9258 17.8564 29.8251 15.6158C30.7255 13.3751 30.3634 10.8503 28.9556 8.95918C29.3899 8.46424 29.8521 7.99242 30.3393 7.54755C32.2584 8.91199 34.7928 9.21916 37.0132 8.27262C39.2327 7.32512 40.7628 5.28183 41.1056 2.95063C41.7623 2.90634 42.4229 2.8996 43.0815 2.92752C43.4734 5.25102 45.0477 7.26061 47.2884 8.15996C49.5272 9.05932 52.0529 8.69919 53.945 7.29046C54.4399 7.72473 54.9118 8.18692 55.3566 8.67415C53.9922 10.5942 53.6841 13.1276 54.6316 15.3481C55.5791 17.5676 57.6223 19.0976 59.9535 19.4404C59.9978 20.0981 60.0055 20.7586 59.9767 21.4163C57.6532 21.8082 55.6436 23.3826 54.7442 25.6232C53.8439 27.8639 54.2059 30.3887 55.6137 32.2798C55.1794 32.7748 54.7182 33.2466 54.23 33.6914C52.309 32.3251 49.7756 32.0179 47.5561 32.9664Z" fill="black"/>
<path d="M42.2841 47.1692C36.7773 47.1692 32.3123 51.6332 32.3123 57.1411C32.3123 62.6479 36.7763 67.1129 42.2841 67.1129C47.791 67.1129 52.256 62.6489 52.256 57.1411C52.256 51.6342 47.791 47.1692 42.2841 47.1692ZM42.2841 64.204C38.3901 64.204 35.2212 61.036 35.2212 57.1411C35.2212 53.2461 38.3892 50.0781 42.2841 50.0781C46.1781 50.0781 49.347 53.2461 49.347 57.1411C49.347 61.036 46.1781 64.204 42.2841 64.204Z" fill="black"/>
<path d="M16.8788 68.4919C22.0274 68.4919 26.2016 64.3177 26.2016 59.1691C26.2016 54.0204 22.0274 49.8462 16.8788 49.8462C11.7301 49.8462 7.55591 54.0204 7.55591 59.1691C7.55591 64.3177 11.7291 68.4919 16.8788 68.4919ZM16.8788 52.7551C20.4155 52.7551 23.2927 55.6323 23.2927 59.1691C23.2927 62.7058 20.4155 65.583 16.8788 65.583C13.342 65.583 10.4649 62.7058 10.4649 59.1691C10.4649 55.6323 13.342 52.7551 16.8788 52.7551Z" fill="black"/>
<path d="M67.6895 69.7832C63.0415 69.7832 58.8336 71.6628 55.7812 74.7027C52.4736 70.9724 47.6601 68.6094 42.2832 68.6094C36.9063 68.6094 32.0927 70.9733 28.7851 74.7036C25.7327 71.6647 21.5248 69.7841 16.8778 69.7841C7.55593 69.7841 0 77.341 0 86.662H24.2316H33.7566H50.8116H60.3367H84.5683C84.5673 77.3391 77.0114 69.7832 67.6895 69.7832ZM24.4867 83.7521H3.21418C4.55648 77.4412 10.1731 72.6921 16.8788 72.6921C20.8672 72.6921 24.4617 74.381 27.0096 77.0704C25.752 79.0685 24.8806 81.3275 24.4867 83.7521ZM54.0258 83.7521H30.5425H27.4207C28.7813 76.7893 34.9285 71.5174 42.2841 71.5174C49.6398 71.5174 55.787 76.7893 57.1476 83.7521H54.0258ZM60.0816 83.7521C59.6877 81.3275 58.8173 79.0685 57.5597 77.0704C60.1076 74.381 63.7021 72.6921 67.6905 72.6921C74.3961 72.6921 80.0128 77.4412 81.3551 83.7521H60.0816Z" fill="black"/>
<path d="M67.6895 68.4919C72.8382 68.4919 77.0124 64.3177 77.0124 59.1691C77.0124 54.0204 72.8382 49.8462 67.6895 49.8462C62.5408 49.8462 58.3666 54.0204 58.3666 59.1691C58.3666 64.3177 62.5408 68.4919 67.6895 68.4919ZM67.6895 52.7551C71.2263 52.7551 74.1034 55.6323 74.1034 59.1691C74.1034 62.7058 71.2263 65.583 67.6895 65.583C64.1527 65.583 61.2756 62.7058 61.2756 59.1691C61.2756 55.6323 64.1537 52.7551 67.6895 52.7551Z" fill="black"/>
</svg>
