<svg width="102" height="92" viewBox="0 0 102 92" fill="none" xmlns="http://www.w3.org/2000/svg">
<circle cx="85.5" cy="63.5" r="13.5" fill="#DD0004"/>
<path d="M65.672 22.3981V30.8434C65.672 31.2028 65.8166 31.5504 66.0705 31.8083C66.3283 32.0661 66.6759 32.2106 67.0392 32.2106H76.6994C77.0627 32.2106 77.4103 32.0661 77.6682 31.8083C77.926 31.5543 78.0666 31.2028 78.0666 30.8434C78.0666 28.8629 79.6721 27.2575 81.6525 27.2575C83.633 27.2575 85.2384 28.863 85.2384 30.8434C85.2384 31.2028 85.3829 31.5504 85.6368 31.8083C85.8947 32.0661 86.2423 32.2106 86.6056 32.2106H96.2658C97.0236 32.2106 97.633 31.5973 97.633 30.8434C97.6252 22.7301 94.3986 14.9524 88.6642 9.2144C82.9298 3.48 75.1522 0.253499 67.0392 0.241699C66.2853 0.241699 65.672 0.854979 65.672 1.6089V10.0542C62.7775 10.6948 60.715 13.2612 60.715 16.2261C60.715 19.1909 62.7775 21.7573 65.672 22.3941L65.672 22.3981ZM67.0392 12.6403V12.6442C67.7931 12.6442 68.4064 12.0309 68.4064 11.277V3.01143C75.3126 3.35909 81.8404 6.25753 86.7304 11.1481C91.6171 16.0348 94.5195 22.5661 94.8671 29.4721H87.8241C87.1796 26.5776 84.6132 24.519 81.6522 24.519C78.6913 24.519 76.1249 26.5776 75.4803 29.4721H68.4061V21.1752C68.4061 20.4213 67.7928 19.808 67.0389 19.808C65.0584 19.808 63.453 18.2025 63.453 16.226C63.453 14.2455 65.0588 12.6403 67.0392 12.6403ZM86.0622 47.3003C85.4255 47.3003 84.7927 47.3433 84.1599 47.4253C84.6013 45.355 84.8201 43.2417 84.8084 41.1245C84.8084 40.3706 84.199 39.7573 83.4412 39.7573H75.6014C74.9686 37.0385 72.5467 35.1128 69.7537 35.1128C66.9646 35.1128 64.5428 37.0386 63.9099 39.7573H57.4451V32.0776C57.4451 31.7143 57.3005 31.3667 57.0427 31.1128C56.7888 30.855 56.4412 30.7104 56.0779 30.7104C54.2967 30.6792 52.867 29.226 52.867 27.4448C52.867 25.6636 54.2967 24.2104 56.0779 24.1792C56.8318 24.1792 57.4451 23.566 57.4451 22.812V13.7651C57.4412 13.0112 56.8318 12.4018 56.0779 12.3979C49.8865 12.4058 43.8629 14.4096 38.9019 18.1127C33.941 21.8158 30.3042 27.0189 28.5349 32.9527C26.8279 32.8473 25.1169 32.9137 23.4255 33.1441C22.8708 33.2184 22.4216 33.6246 22.2849 34.1636L21.2732 38.1988C19.5701 38.6676 17.9334 39.3472 16.3982 40.2183L12.8279 38.0855C12.3513 37.8004 11.7459 37.8316 11.3045 38.1676C9.40218 39.6051 7.70678 41.3004 6.26538 43.1988C5.92944 43.6441 5.89429 44.2457 6.18335 44.7261L8.31615 48.3003C7.44506 49.8315 6.76535 51.4683 6.30055 53.1714L2.26535 54.187C1.72629 54.3237 1.32004 54.7729 1.24585 55.3276C0.917723 57.687 0.917723 60.0854 1.24585 62.4448C1.32007 62.9995 1.72632 63.4487 2.26535 63.5854L6.30055 64.601C6.7693 66.3041 7.44505 67.9408 8.32005 69.476L6.18335 73.0463C5.89429 73.5228 5.92944 74.1244 6.26538 74.5697C7.70678 76.4681 9.39818 78.1595 11.3006 79.6009C11.7459 79.9368 12.3475 79.9681 12.824 79.6829L16.3982 77.554C17.9334 78.4251 19.574 79.1048 21.2771 79.5696L22.2888 83.6048C22.4255 84.1478 22.8786 84.554 23.4333 84.6282C25.7927 84.9485 28.1833 84.9485 30.5427 84.6282C31.0974 84.554 31.5466 84.1478 31.6833 83.6087L32.6989 79.5696C34.402 79.1048 36.0387 78.4251 37.57 77.554L39.0231 78.4251L39.027 78.4212C39.5504 81.1321 41.9215 83.0931 44.6832 83.1009H49.6441V85.3275V85.3236C49.6441 88.8783 52.523 91.7572 56.0777 91.7572C59.6285 91.7572 62.5113 88.8783 62.5113 85.3236V83.1009H67.4722C70.3394 83.1048 72.773 80.9993 73.187 78.1634C73.6011 75.3236 71.8667 72.6126 69.1167 71.8001C69.9565 70.2259 70.9292 68.7259 72.0229 67.3196C73.269 70.761 75.7377 73.6282 78.9604 75.3704C82.1831 77.1126 85.9331 77.6126 89.4954 76.7688C93.0618 75.9289 96.1907 73.8079 98.2962 70.8079C100.398 67.8118 101.323 64.1438 100.902 60.5069C100.476 56.8663 98.7298 53.5108 95.9955 51.0772C93.2612 48.6436 89.7224 47.2964 86.0622 47.3003ZM37.1992 63.6983C37.4102 63.9522 37.6211 64.2022 37.8281 64.4522C35.8164 68.3741 31.8437 70.9014 27.4371 71.0655C23.0348 71.2296 18.8863 68.9991 16.5891 65.2413C14.2883 61.4796 14.2024 56.7686 16.3587 52.9253C18.511 49.0815 22.5735 46.7026 26.9837 46.6987C27.2844 46.6987 27.5735 46.7104 27.8626 46.73C29.2845 54.23 33.4446 59.207 37.1985 63.699L37.1992 63.6983ZM36.8555 74.8003C35.1328 75.8706 33.2422 76.6558 31.2657 77.1128C30.7657 77.23 30.3751 77.6167 30.2501 78.1128L29.2618 82.0269C27.7501 82.1754 26.2266 82.1754 24.711 82.0269L23.7266 78.1128C23.6016 77.6167 23.211 77.23 22.711 77.1128C20.7305 76.6558 18.8399 75.8706 17.1094 74.8003C16.6758 74.5269 16.125 74.523 15.6875 74.7886L12.2305 76.855C11.6485 76.3745 11.0821 75.8628 10.543 75.3238C10.004 74.7847 9.49222 74.2222 9.01182 73.6363L11.0782 70.1754L11.0821 70.1793C11.3438 69.7418 11.3399 69.191 11.0704 68.7574C9.9962 67.0308 9.2149 65.1402 8.754 63.1597C8.63681 62.6597 8.254 62.2691 7.754 62.1441L3.8438 61.1597H3.84771C3.69537 59.648 3.69537 58.1206 3.84771 56.6089L7.75791 55.6206C8.254 55.4956 8.64072 55.105 8.75791 54.605C9.21494 52.6284 10.0001 50.7417 11.0704 49.0191C11.3438 48.5816 11.3477 48.0309 11.0821 47.5933L9.01183 44.1324C9.4923 43.5465 10.004 42.984 10.543 42.4449C11.0821 41.9059 11.6446 41.3941 12.2305 40.9137L15.6875 42.984C16.1289 43.2497 16.6758 43.2419 17.1133 42.9723C18.8399 41.902 20.7305 41.1168 22.7071 40.6559C23.2071 40.5426 23.6017 40.1559 23.7266 39.6559L24.711 35.7418H24.7071C25.7579 35.6442 26.8165 35.6129 27.8712 35.6559C27.5235 37.4567 27.3478 39.2887 27.3478 41.1207C27.3478 42.109 27.3946 43.0543 27.4767 43.9684C27.3126 43.9684 27.1486 43.9606 26.9845 43.9606V43.9645C21.6954 43.9645 16.8005 46.7692 14.1255 51.3317C11.4458 55.8942 11.3872 61.5307 13.9614 66.1517C16.5395 70.7728 21.3676 73.6829 26.6564 73.8001C31.9455 73.9212 36.9024 71.2298 39.6834 66.7298C40.9568 68.3118 42.0779 70.0071 43.035 71.8001C41.2811 72.3274 39.8827 73.6556 39.2616 75.3743L38.2772 74.7844V74.7884C37.8358 74.5227 37.289 74.5266 36.8514 74.8001L36.8555 74.8003ZM59.7735 85.3233C59.7735 87.3663 58.1173 89.0225 56.0743 89.0225C54.0313 89.0225 52.3751 87.3663 52.3751 85.3233V83.1006H59.7735V85.3233ZM70.5005 77.3272C70.5005 78.9991 69.145 80.3584 67.4732 80.3624H44.6842C43.0084 80.3624 41.649 79.003 41.649 77.3272C41.649 75.6514 43.0084 74.292 44.6842 74.292H67.4732C69.1451 74.2959 70.5005 75.6553 70.5005 77.3272ZM66.1997 71.5577H45.9617C44.5047 68.6202 42.6765 65.8819 40.5164 63.4132L40.489 63.3781C40.0906 62.8976 39.6922 62.421 39.2976 61.9445C35.4578 57.3429 31.5085 52.6164 30.3992 45.3115L30.3914 45.2646V45.2685C30.1883 43.8935 30.0867 42.5107 30.0906 41.124C30.0984 34.4717 32.6531 28.073 37.2312 23.245C41.8093 18.417 48.0672 15.5262 54.7112 15.1669V21.6005C51.9924 22.2294 50.0667 24.6513 50.0667 27.4443C50.0667 30.2334 51.9925 32.6552 54.7112 33.2881V41.124C54.7112 41.8779 55.3206 42.4912 56.0784 42.4912H65.1253C65.8792 42.4912 66.4925 41.8779 66.4925 41.124C66.5238 39.3428 67.9769 37.9131 69.7581 37.9131C71.5393 37.9131 72.9925 39.3428 73.0237 41.124C73.0237 41.8779 73.637 42.4912 74.3909 42.4912H82.0393C81.9612 44.3974 81.6721 46.2842 81.1721 48.124C78.2424 49.1435 75.7033 51.0498 73.9026 53.5771C72.1019 56.1044 71.137 59.1279 71.1331 62.2294C71.1331 62.7919 71.1683 63.3544 71.2308 63.9169C69.2347 66.2411 67.5433 68.8075 66.1956 71.5575L66.1997 71.5577ZM86.0667 74.4288V74.4327C81.1331 74.4327 76.6839 71.46 74.7967 66.9015C72.9061 62.3429 73.949 57.0929 77.4412 53.6045C80.9295 50.1162 86.1756 49.0733 90.7342 50.96C95.2928 52.8467 98.2654 57.2959 98.2654 62.23C98.2615 68.9683 92.8006 74.429 86.0624 74.433L86.0667 74.4288ZM93.7815 56.3428V56.3467C94.0393 56.6006 94.1838 56.9483 94.1838 57.3116C94.1838 57.6748 94.0393 58.0225 93.7815 58.2803L83.9495 68.1201V68.1162C83.6956 68.374 83.3479 68.5186 82.9846 68.5186C82.6214 68.5186 82.2737 68.374 82.0159 68.1162L78.3518 64.4521C77.8635 63.9131 77.883 63.0849 78.3987 62.5693C78.9104 62.0537 79.7385 62.0341 80.2815 62.5185L82.9807 65.2177L91.8479 56.3466C92.3791 55.8154 93.2424 55.8154 93.7776 56.3466L93.7815 56.3428Z" fill="black" stroke="black" stroke-width="0.3"/>
</svg>
